<?xml version="1.0" encoding="UTF-8" standalone="no"?>
<svg
   xmlns:dc="http://purl.org/dc/elements/1.1/"
   xmlns:cc="http://creativecommons.org/ns#"
   xmlns:rdf="http://www.w3.org/1999/02/22-rdf-syntax-ns#"
   xmlns:svg="http://www.w3.org/2000/svg"
   xmlns="http://www.w3.org/2000/svg"
   xmlns:sodipodi="http://sodipodi.sourceforge.net/DTD/sodipodi-0.dtd"
   xmlns:inkscape="http://www.inkscape.org/namespaces/inkscape"
   version="1.1"
   width="24"
   height="24"
   viewBox="0 0 24 24"
   id="svg4"
   sodipodi:docname="mask-burnin-battery-raw.svg"
   inkscape:version="0.92.2 (5c3e80d, 2017-08-06)">
  <metadata
     id="metadata10">
    <rdf:RDF>
      <cc:Work
         rdf:about="">
        <dc:format>image/svg+xml</dc:format>
        <dc:type
           rdf:resource="http://purl.org/dc/dcmitype/StillImage" />
        <dc:title></dc:title>
      </cc:Work>
    </rdf:RDF>
  </metadata>
  <defs
     id="defs8" />
  <sodipodi:namedview
     pagecolor="#ffffff"
     bordercolor="#666666"
     borderopacity="1"
     objecttolerance="10"
     gridtolerance="10"
     guidetolerance="10"
     inkscape:pageopacity="0"
     inkscape:pageshadow="2"
     inkscape:window-width="1920"
     inkscape:window-height="1018"
     id="namedview6"
     showgrid="false"
     inkscape:zoom="33.379557"
     inkscape:cx="5.9350871"
     inkscape:cy="13.348904"
     inkscape:window-x="-8"
     inkscape:window-y="-8"
     inkscape:window-maximized="1"
     inkscape:current-layer="svg4" />
  <path
     style="opacity:1;fill:#ff00ff;fill-opacity:1;fill-rule:nonzero;stroke:none;stroke-width:10;stroke-linecap:round;stroke-linejoin:round;stroke-miterlimit:4;stroke-dasharray:none;stroke-dashoffset:0;stroke-opacity:0.99737531;paint-order:markers stroke fill"
     d="M 6 6 L 6 8 L 8 8 L 8 6 L 6 6 z M 8 8 L 8 10 L 10 10 L 10 8 L 8 8 z M 10 8 L 12 8 L 12 6 L 10 6 L 10 8 z M 10 10 L 10 12 L 12 12 L 12 10 L 10 10 z M 10 12 L 8 12 L 8 14 L 10 14 L 10 12 z M 10 14 L 10 16 L 12 16 L 12 14 L 10 14 z M 10 16 L 8 16 L 8 18 L 10 18 L 10 16 z M 10 18 L 10 20 L 12 20 L 12 18 L 10 18 z M 8 18 L 6 18 L 6 20 L 8 20 L 8 18 z M 6 18 L 6 16 L 4 16 L 4 18 L 6 18 z M 6 16 L 8 16 L 8 14 L 6 14 L 6 16 z M 6 14 L 6 12 L 4 12 L 4 14 L 6 14 z M 6 12 L 8 12 L 8 10 L 6 10 L 6 12 z M 6 10 L 6 8 L 4 8 L 4 10 L 6 10 z "
     id="rect824-9" />
</svg>
