<?xml version="1.0" encoding="UTF-8"?>
<svg width="24" height="24" version="1.1" viewBox="0 0 24 24" xmlns="http://www.w3.org/2000/svg">
 <path d="m5 2v2h-2c-.55228 0-1 .44772-1 1v16c0 .55228.44772 1 1 1h10c.55228 0 1-.44772 1-1v-16c0-.55228-.44772-1-1-1h-2v-2zm15.07 2.9297-1.4102 1.4102c3.13 3.12 3.13 8.1903 0 11.32l1.4102 1.4102c3.9-3.9 3.9-10.231 0-14.141zm-16.07 1.0703h8v2h-2v2h2v2h-2v2h2v2h-2v2h2v2h-2v-2h-2v2h-2v-2h-2v-2h2v-2h-2v-2h2v-2h-2v-2h2v-.5h-2zm2 2v2h2v-2zm2 0h2v-.5h-2zm0 2v2h2v-2zm0 2h-2v2h2zm0 2v2h2v-2zm0 2h-2v2h2zm9.2402-8.2402-1.4102 1.4102c1.56 1.56 1.56 4.0902 0 5.6602l1.4102 1.4102c2.34-2.34 2.34-6.1405 0-8.4805z"/>
</svg>
