<?xml version="1.0" encoding="UTF-8" standalone="no"?>
<svg
   xmlns:dc="http://purl.org/dc/elements/1.1/"
   xmlns:cc="http://creativecommons.org/ns#"
   xmlns:rdf="http://www.w3.org/1999/02/22-rdf-syntax-ns#"
   xmlns:svg="http://www.w3.org/2000/svg"
   xmlns="http://www.w3.org/2000/svg"
   id="svg6582"
   version="1.1"
   viewBox="0 0 6.3499999 6.3500002"
   height="24"
   width="24">
  <defs
     id="defs6576" />
  <metadata
     id="metadata6579">
    <rdf:RDF>
      <cc:Work
         rdf:about="">
        <dc:format>image/svg+xml</dc:format>
        <dc:type
           rdf:resource="http://purl.org/dc/dcmitype/StillImage" />
        <dc:title></dc:title>
      </cc:Work>
    </rdf:RDF>
  </metadata>
  <g
     transform="translate(0,-290.64998)"
     id="layer1">
    <path
       id="path7219"
       transform="matrix(0.26458333,0,0,0.26458333,0,290.64998)"
       d="M 7.9589844 0 L 7.9589844 7.640625 L 3.3398438 7.640625 L 3.3398438 9.0839844 L 9.4023438 9.0839844 L 9.4023438 1.4433594 L 11.779297 1.4433594 L 11.779297 5.1425781 L 15.359375 5.1425781 L 15.359375 9.0839844 L 20.660156 9.0839844 L 20.660156 7.640625 L 16.802734 7.640625 L 16.802734 3.703125 L 13.222656 3.703125 L 13.222656 0 L 7.9589844 0 z M 24 10.115234 C 23.985902 10.094145 23.597586 10.448491 22.828125 11.166016 L 21.8125 12.113281 L 21.367188 12.005859 C 20.05834 11.690647 19.823883 11.652859 19.607422 11.714844 C 19.472354 11.753697 18.024903 13.11198 16.150391 14.962891 C 13.334081 17.743754 12.908553 18.133487 12.779297 18.037109 C 12.697935 17.976637 12.612483 17.884189 12.589844 17.832031 C 12.524636 17.680094 12.019785 17.642729 11.820312 17.775391 C 11.6369 17.897658 11.551196 18.17117 11.611328 18.441406 C 11.629219 18.521872 11.953644 18.919797 12.332031 19.326172 C 12.710449 19.732358 13.016457 20.088524 13.013672 20.107422 C 13.010214 20.130666 12.696832 20.44494 12.316406 20.806641 C 11.648085 21.44179 11.618107 21.458324 11.457031 21.298828 C 11.084335 20.928548 10.810664 20.706524 10.703125 20.691406 C 10.640585 20.681957 10.477803 20.756886 10.341797 20.857422 C 10.073095 21.057197 9.9805223 21.363864 10.121094 21.603516 C 10.170276 21.687346 10.672697 22.254286 11.236328 22.863281 C 12.346181 24.062563 12.536006 24.173637 12.900391 23.830078 C 13.224108 23.524692 13.208551 23.314186 12.824219 22.832031 C 12.595652 22.545014 12.506094 22.361756 12.5625 22.292969 C 12.825947 21.972767 13.802647 21.058974 13.871094 21.070312 C 13.915526 21.076927 14.255128 21.412387 14.625 21.814453 C 15.379437 22.634459 15.645127 22.738652 16.019531 22.365234 C 16.270533 22.115067 16.249459 21.851492 15.945312 21.476562 L 15.730469 21.212891 L 18.986328 17.998047 C 21.589822 15.426532 22.249464 14.729168 22.28125 14.515625 C 22.303077 14.369055 22.248695 13.814744 22.160156 13.285156 L 21.998047 12.322266 L 22.929688 11.316406 C 23.654744 10.532438 24.014098 10.136324 24 10.115234 z M 5.8691406 10.695312 L 5.2753906 11.326172 C 4.9459731 11.675929 4.6056409 12.183837 4.5097656 12.470703 C 4.3473385 12.957015 4.3103601 12.988937 3.8789062 12.992188 C 3.3278786 12.996421 2.8969349 13.443413 2.3964844 14.527344 C 2.0768503 15.219715 1.927367 15.335513 1.6816406 15.089844 C 1.4905534 14.898713 0.80184526 15.550563 0.37109375 16.328125 C 0.04748769 16.912327 0.015625 17.073811 0.015625 18.117188 C 0.015625 19.209433 0.035191176 19.299549 0.45117188 20.046875 C 0.69128942 20.478232 0.85966983 20.911939 0.82617188 21.011719 C 0.79267366 21.111234 0.57636367 21.370946 0.34375 21.587891 C -0.067175581 21.970757 -0.073923619 21.987884 0.13671875 22.220703 C 0.25595755 22.352987 0.38004764 22.460938 0.41210938 22.460938 C 0.44417625 22.460938 0.70483267 22.243461 0.9921875 21.978516 L 1.515625 21.498047 L 2.3632812 21.939453 C 3.0955859 22.321752 3.3487051 22.389437 4.2246094 22.435547 C 5.1143139 22.482035 5.3191729 22.45295 5.890625 22.191406 C 6.2488482 22.027375 6.745323 21.71455 6.9941406 21.496094 C 7.3557133 21.178613 7.4386161 21.027478 7.4101562 20.740234 C 7.3724989 20.359749 7.3645877 20.365869 8.2792969 19.925781 C 9.0462677 19.556786 9.7467646 18.860523 9.609375 18.603516 C 9.4584169 18.321487 9.5792438 18.197389 10.332031 17.851562 C 10.697044 17.683827 11.203451 17.335511 11.457031 17.078125 L 11.917969 16.611328 L 11.576172 16.328125 C 11.388959 16.172219 10.951935 15.857568 10.603516 15.628906 C 10.255091 15.400207 9.96875 15.153401 9.96875 15.080078 C 9.96875 15.006566 10.191517 14.704581 10.462891 14.410156 C 11.113728 13.704103 11.440278 12.932145 11.511719 11.933594 C 11.568446 11.140649 11.562601 11.112901 11.283203 11.101562 C 10.029236 11.030923 9.2143461 11.279489 8.25 12.027344 C 7.8683074 12.323281 7.4867104 12.566406 7.4023438 12.566406 C 7.3179734 12.566406 7.153017 12.386803 7.0351562 12.167969 C 6.9172924 11.949096 6.6054936 11.527981 6.34375 11.232422 L 5.8691406 10.695312 z M 10.466797 11.814453 C 10.925502 11.849589 10.932575 12.282348 10.503906 13.142578 C 10.154952 13.842849 9.6584222 14.312748 8.9433594 14.623047 C 7.9458589 15.055803 7.6464844 15.018128 7.6464844 14.458984 C 7.6464844 13.543545 8.7860737 12.229968 9.8554688 11.912109 C 10.109368 11.836717 10.313895 11.802741 10.466797 11.814453 z M 5.8515625 11.919922 C 5.89071 11.921683 5.9294863 11.931235 5.9667969 11.951172 C 6.3078977 12.133723 6.7559203 13.171482 6.8046875 13.892578 C 6.8416173 14.438682 6.7899874 14.674599 6.5097656 15.220703 C 6.0625149 16.0923 5.7405401 16.162242 5.3847656 15.464844 C 4.9709452 14.653682 4.8553859 13.751032 5.0703125 13.011719 C 5.2689315 12.328541 5.5775303 11.907592 5.8515625 11.919922 z M 19.787109 12.296875 C 19.918923 12.291442 20.108416 12.312257 20.412109 12.357422 C 21.46696 12.514537 21.500463 12.543973 21.654297 13.457031 C 21.726267 13.883513 21.773927 14.300797 21.761719 14.382812 C 21.749472 14.465017 20.315971 15.938228 18.576172 17.65625 C 16.279261 19.924344 15.379809 20.760764 15.289062 20.708984 C 15.22108 20.667032 15.146153 20.635647 15.126953 20.632812 C 14.937026 20.604542 15.429834 20.050474 17.029297 18.494141 C 18.06287 17.488484 18.90209 16.635705 18.894531 16.605469 C 18.887566 16.572284 18.509646 16.140431 18.052734 15.646484 C 17.595876 15.152349 17.22577 14.723342 17.232422 14.685547 C 17.238688 14.651909 17.331133 14.540303 17.4375 14.4375 L 17.630859 14.25 L 18.265625 14.941406 C 18.851835 15.578861 19.099731 15.730791 19.074219 15.4375 C 19.068691 15.373588 18.794521 15.03112 18.462891 14.677734 L 17.859375 14.035156 L 18.082031 13.802734 C 18.205187 13.674608 18.325572 13.572619 18.349609 13.576172 C 18.372834 13.579649 18.669894 13.886285 19.011719 14.257812 C 19.593598 14.890127 19.784546 15.007135 19.822266 14.753906 C 19.830842 14.696344 19.559116 14.35433 19.216797 13.994141 C 18.69178 13.441271 18.611316 13.31695 18.703125 13.193359 C 18.999118 12.795451 19.083854 12.823889 19.744141 13.546875 C 20.088789 13.924336 20.408907 14.216163 20.455078 14.197266 C 20.647073 14.114796 20.539107 13.917518 19.984375 13.332031 C 19.66243 12.99176 19.383162 12.676528 19.363281 12.628906 C 19.343322 12.581662 19.407452 12.476988 19.505859 12.396484 C 19.580886 12.334122 19.655296 12.302308 19.787109 12.296875 z M 3.6816406 14.041016 C 3.8749313 14.054901 4.0755926 14.299529 4.3183594 14.775391 C 4.8272448 15.772921 4.7074613 17.150587 4.0507812 17.855469 C 3.7427019 18.184666 3.623863 18.182396 3.4023438 17.84375 C 2.7519812 16.849507 2.6310223 15.631248 3.0878906 14.6875 C 3.3023767 14.244539 3.4883499 14.027131 3.6816406 14.041016 z M 8.734375 15.732422 C 9.3814479 15.766844 10.017957 15.993165 10.482422 16.400391 C 10.830611 16.705701 10.72755 16.90612 10.060547 17.216797 L 10.060547 17.214844 C 9.1824198 17.624998 8.2151185 17.615923 7.2851562 17.191406 C 6.4963855 16.831406 6.4008346 16.576418 6.921875 16.210938 C 7.4287348 15.855378 8.0873021 15.698 8.734375 15.732422 z M 1.5136719 16.246094 C 1.9873751 16.246094 2.4194099 17.224713 2.4238281 18.306641 C 2.4268158 19.039415 2.3802937 19.230588 2.09375 19.664062 C 1.5838916 20.435275 1.1889904 20.295751 0.81835938 19.214844 C 0.42880392 18.07868 0.85798692 16.246094 1.5136719 16.246094 z M 6.359375 17.851562 C 7.1405701 17.851562 8.3508756 18.328194 8.4902344 18.691406 C 8.5992382 18.975476 8.0180646 19.402309 7.3164062 19.552734 C 6.493659 19.72886 6.1528615 19.713663 5.4902344 19.46875 C 4.620158 19.147188 4.3316794 18.908971 4.4902344 18.640625 C 4.7483965 18.204468 5.584915 17.851562 6.359375 17.851562 z M 4.2460938 19.958984 C 5.2439714 20.010012 6.4800681 20.618786 6.3105469 21.060547 C 6.2669757 21.174311 5.999634 21.36658 5.7167969 21.488281 C 5.4339582 21.609982 5.0135284 21.735516 4.78125 21.769531 C 3.8239176 21.904649 2.2460938 21.359829 2.2460938 20.894531 C 2.2460938 20.583098 3.1334643 20.06979 3.8378906 19.972656 C 3.9658777 19.955115 4.1035398 19.951695 4.2460938 19.958984 z "
       style="fill:#ffffff;stroke-width:3.77952719" />
    <g
       style="fill:#000000;stroke-width:1.70355296"
       transform="matrix(0.58700842,0,0,0.58700842,1.7392457,119.14951)"
       id="layer1-1" />
  </g>
</svg>
