<?xml version="1.0" encoding="UTF-8" standalone="no"?>
<svg
   xmlns:dc="http://purl.org/dc/elements/1.1/"
   xmlns:cc="http://creativecommons.org/ns#"
   xmlns:rdf="http://www.w3.org/1999/02/22-rdf-syntax-ns#"
   xmlns:svg="http://www.w3.org/2000/svg"
   xmlns="http://www.w3.org/2000/svg"
   id="svg6582"
   version="1.1"
   viewBox="0 0 6.3499999 6.3500002"
   height="24"
   width="24">
  <defs
     id="defs6576" />
  <metadata
     id="metadata6579">
    <rdf:RDF>
      <cc:Work
         rdf:about="">
        <dc:format>image/svg+xml</dc:format>
        <dc:type
           rdf:resource="http://purl.org/dc/dcmitype/StillImage" />
        <dc:title></dc:title>
      </cc:Work>
    </rdf:RDF>
  </metadata>
  <g
     transform="translate(0,-290.64998)"
     id="layer1">
    <path
       id="path7219"
       transform="matrix(0.26458333,0,0,0.26458333,0,290.64998)"
       d="M 8.2460938 0 L 7.4121094 0.88476562 C 6.9493002 1.3761798 6.4706361 2.0909406 6.3359375 2.4941406 C 6.1077391 3.1778572 6.0573352 3.222783 5.4511719 3.2265625 C 4.6770165 3.2325342 4.0702859 3.8600031 3.3671875 5.3828125 C 2.9181237 6.3552849 2.7085097 6.5192769 2.3632812 6.1738281 C 2.0948169 5.9053305 1.1247074 6.8216279 0.51953125 7.9140625 C 0.064887118 8.7348625 0.021484375 8.9598915 0.021484375 10.425781 C 0.021484375 11.960307 0.050341474 12.088757 0.63476562 13.138672 C 0.97211397 13.744681 1.2091717 14.35392 1.1621094 14.494141 C 1.1150467 14.633945 0.8092278 14.997727 0.48242188 15.302734 C -0.094900204 15.840788 -0.10453178 15.864099 0.19140625 16.191406 C 0.35892848 16.377359 0.53308059 16.529297 0.578125 16.529297 C 0.62317678 16.529297 0.99081761 16.223846 1.3945312 15.851562 L 2.1289062 15.175781 L 3.3203125 15.796875 C 4.3491503 16.333984 4.7049614 16.429133 5.9355469 16.494141 C 7.1855198 16.559262 7.47254 16.517761 8.2753906 16.150391 C 8.7786695 15.919877 9.4765996 15.481104 9.8261719 15.173828 C 10.334162 14.727844 10.452093 14.514906 10.412109 14.111328 C 10.359204 13.57679 10.34771 13.585165 11.632812 12.966797 C 12.710354 12.448472 13.694977 11.472651 13.501953 11.111328 C 13.289868 10.715082 13.45801 10.538593 14.515625 10.052734 C 15.028442 9.8170808 15.739441 9.3284977 16.095703 8.9667969 L 16.742188 8.3105469 L 16.265625 7.9121094 C 16.002604 7.6930858 15.38599 7.2529005 14.896484 6.9316406 C 14.406974 6.610343 14.005859 6.2613842 14.005859 6.1582031 C 14.005859 6.0549464 14.317957 5.6324193 14.699219 5.21875 C 15.6136 4.2267374 16.073459 3.1431194 16.173828 1.7402344 C 16.253525 0.6264076 16.244097 0.58543061 15.851562 0.5703125 C 14.089826 0.47102431 12.944683 0.82038509 11.589844 1.8710938 C 11.053592 2.2870686 10.51892 2.6269531 10.400391 2.6269531 C 10.281857 2.6269531 10.048397 2.3760129 9.8828125 2.0683594 C 9.7172219 1.7608192 9.2817916 1.1688606 8.9140625 0.75390625 L 8.2460938 0 z M 14.705078 1.5722656 C 15.349526 1.6216434 15.35811 2.2289772 14.755859 3.4375 C 14.265602 4.4213488 13.57102 5.081723 12.566406 5.5175781 C 11.164986 6.1252506 10.742188 6.0726842 10.742188 5.2871094 C 10.742188 4.0009739 12.34523 2.1536202 13.847656 1.7070312 C 14.204367 1.6011194 14.490262 1.5558064 14.705078 1.5722656 z M 8.2226562 1.71875 C 8.2776556 1.7212252 8.3303939 1.7356561 8.3828125 1.7636719 C 8.8620358 2.0201506 9.4920354 3.4790851 9.5605469 4.4921875 C 9.6124315 5.2594316 9.5382238 5.5901778 9.1445312 6.3574219 C 8.5161746 7.5822534 8.0662446 7.6789857 7.5664062 6.6992188 C 6.9850148 5.5595778 6.8230422 4.2906429 7.125 3.2519531 C 7.4040457 2.2922035 7.8376606 1.7014234 8.2226562 1.71875 z M 5.171875 4.7011719 C 5.443435 4.7207357 5.7253358 5.0619081 6.0664062 5.7304688 C 6.7813545 7.1319554 6.6120434 9.0663288 5.6894531 10.056641 L 5.6894531 10.058594 C 5.2566228 10.521888 5.0905145 10.518736 4.7792969 10.042969 C 3.8655821 8.646131 3.6960223 6.9333557 4.3378906 5.6074219 C 4.639229 4.9853305 4.900315 4.6816081 5.171875 4.7011719 z M 12.271484 7.0761719 C 13.180577 7.1245451 14.074021 7.4415459 14.726562 8.0136719 C 15.215744 8.4426105 15.069906 8.7238854 14.132812 9.1601562 L 14.132812 9.15625 C 12.899105 9.7341398 11.540908 9.7234004 10.234375 9.1269531 C 9.1262066 8.6212145 8.9945368 8.2614957 9.7265625 7.7480469 C 10.438666 7.2485067 11.362392 7.0277986 12.271484 7.0761719 z M 2.1269531 7.7988281 C 2.7924735 7.7988281 3.400044 9.1713937 3.40625 10.691406 C 3.4104475 11.720912 3.3459335 11.990614 2.9433594 12.599609 C 2.2270435 13.683162 1.6711017 13.487364 1.1503906 11.96875 C 0.60309217 10.372504 1.205761 7.7988281 2.1269531 7.7988281 z M 8.9335938 10.052734 C 10.031119 10.052734 11.731951 10.722148 11.927734 11.232422 C 12.080878 11.63154 11.263125 12.232084 10.277344 12.443359 C 9.1214403 12.690918 8.6438359 12.670109 7.7128906 12.326172 C 6.4904928 11.874405 6.085836 11.539306 6.3085938 11.162109 C 6.6712938 10.549372 7.8455309 10.052734 8.9335938 10.052734 z M 5.9648438 13.013672 C 7.366793 13.085381 9.105354 13.939939 8.8671875 14.560547 C 8.8059728 14.720421 8.4305709 14.990897 8.0332031 15.162109 C 7.6358346 15.332755 7.0431288 15.508641 6.7167969 15.556641 C 5.3718112 15.746448 3.15625 14.981794 3.15625 14.328125 C 3.15625 13.890531 4.4009546 13.171597 5.390625 13.035156 C 5.5704379 13.010514 5.7645653 13.003428 5.9648438 13.013672 z M 11.183594 16.90625 A 0.80196695 0.80196695 0 0 0 11.263672 18.507812 L 18.298828 18.507812 A 0.80108009 0.80108009 0 1 0 18.298828 16.90625 L 11.263672 16.90625 A 0.80108009 0.80108009 0 0 0 11.183594 16.90625 z M 20.550781 16.90625 A 0.80196695 0.80196695 0 0 0 20.630859 18.507812 L 23.177734 18.507812 A 0.80108009 0.80108009 0 1 0 23.177734 16.90625 L 20.630859 16.90625 A 0.80108009 0.80108009 0 0 0 20.550781 16.90625 z M 11.183594 19.652344 A 0.80196695 0.80196695 0 0 0 11.263672 21.253906 L 14.298828 21.253906 A 0.80108009 0.80108009 0 1 0 14.298828 19.652344 L 11.263672 19.652344 A 0.80108009 0.80108009 0 0 0 11.183594 19.652344 z M 16.578125 19.652344 A 0.80196695 0.80196695 0 0 0 16.660156 21.253906 L 23.177734 21.253906 A 0.80108009 0.80108009 0 1 0 23.177734 19.652344 L 16.660156 19.652344 A 0.80108009 0.80108009 0 0 0 16.578125 19.652344 z M 11.183594 22.398438 A 0.80196695 0.80196695 0 0 0 11.263672 24 L 23.177734 24 A 0.80108009 0.80108009 0 1 0 23.177734 22.398438 L 11.263672 22.398438 A 0.80108009 0.80108009 0 0 0 11.183594 22.398438 z "
       style="fill:#ffffff;stroke-width:3.77952743" />
  </g>
</svg>
