<?xml version="1.0" encoding="UTF-8" standalone="no"?>
<svg
   xmlns:dc="http://purl.org/dc/elements/1.1/"
   xmlns:cc="http://creativecommons.org/ns#"
   xmlns:rdf="http://www.w3.org/1999/02/22-rdf-syntax-ns#"
   xmlns:svg="http://www.w3.org/2000/svg"
   xmlns="http://www.w3.org/2000/svg"
   id="svg6582"
   version="1.1"
   viewBox="0 0 6.3499999 6.3500002"
   height="24"
   width="24">
  <defs
     id="defs6576" />
  <metadata
     id="metadata6579">
    <rdf:RDF>
      <cc:Work
         rdf:about="">
        <dc:format>image/svg+xml</dc:format>
        <dc:type
           rdf:resource="http://purl.org/dc/dcmitype/StillImage" />
        <dc:title></dc:title>
      </cc:Work>
    </rdf:RDF>
  </metadata>
  <g
     transform="translate(0,-290.64998)"
     id="layer1">
    <path
       id="path7219"
       transform="matrix(0.26458333,0,0,0.26458333,0,290.64998)"
       d="M 7.4277344 0 L 6.6777344 0.796875 C 6.2608154 1.2395333 5.8303261 1.8848343 5.7089844 2.2480469 C 5.5034128 2.8638453 5.4562152 2.9024705 4.9101562 2.90625 C 4.2127627 2.9116169 3.6665853 3.4777921 3.0332031 4.8496094 C 2.6286665 5.7257795 2.4399035 5.8735551 2.1289062 5.5625 C 1.8870617 5.3206102 1.0139195 6.1447929 0.46875 7.1289062 C 0.059186372 7.8682952 0.017578125 8.072049 0.017578125 9.3925781 C 0.017578125 10.77494 0.043837275 10.890111 0.5703125 11.835938 C 0.87421097 12.381852 1.0892707 12.930404 1.046875 13.056641 C 1.0044789 13.182574 0.72799514 13.510385 0.43359375 13.785156 C -0.086483604 14.269729 -0.092765992 14.291134 0.17382812 14.585938 C 0.3247396 14.753749 0.48090623 14.890625 0.52148438 14.890625 C 0.56206902 14.890625 0.89217623 14.614541 1.2558594 14.279297 L 1.9179688 13.669922 L 2.9902344 14.230469 C 3.9170572 14.714362 4.2390902 14.800792 5.3476562 14.859375 C 6.4736875 14.917958 6.7318345 14.879915 7.4550781 14.548828 C 7.908454 14.341181 8.5366523 13.94463 8.8515625 13.667969 C 9.3091809 13.266205 9.4149251 13.074528 9.3789062 12.710938 C 9.3312464 12.229426 9.3227911 12.238667 10.480469 11.681641 C 11.451166 11.21468 12.335994 10.335183 12.162109 10.009766 C 11.971053 9.652827 12.123426 9.4943099 13.076172 9.0566406 C 13.53814 8.8443446 14.179061 8.4039203 14.5 8.078125 L 15.082031 7.4863281 L 14.652344 7.1289062 C 14.415403 6.9316149 13.86089 6.5336524 13.419922 6.2441406 C 12.97895 5.9547044 12.617188 5.6418045 12.617188 5.5488281 C 12.617187 5.455814 12.89873 5.0738333 13.242188 4.7011719 C 14.065903 3.8075404 14.479895 2.8321578 14.570312 1.5683594 C 14.642108 0.56485701 14.632909 0.52878999 14.279297 0.51367188 C 12.692246 0.42424825 11.661906 0.73903979 10.441406 1.6855469 C 9.9583267 2.0602114 9.4759161 2.3671875 9.3691406 2.3671875 C 9.2623607 2.3671875 9.0534635 2.1403206 8.9042969 1.8632812 C 8.7551257 1.5862419 8.3605649 1.0534828 8.0292969 0.6796875 L 7.4277344 0 z M 13.246094 1.4160156 C 13.826642 1.460493 13.835503 2.0089539 13.292969 3.0976562 C 12.851323 3.9839555 12.225313 4.578048 11.320312 4.9707031 C 10.057851 5.5182433 9.6777344 5.4713506 9.6777344 4.7636719 C 9.6777344 3.6050577 11.121157 1.9413554 12.474609 1.5390625 C 12.795951 1.4436483 13.052578 1.4011898 13.246094 1.4160156 z M 7.40625 1.5488281 C 7.4557959 1.5510528 7.5055134 1.5646154 7.5527344 1.5898438 C 7.9844399 1.8208863 8.5496084 3.1342325 8.6113281 4.046875 C 8.658068 4.7380372 8.592937 5.0354003 8.2382812 5.7265625 C 7.6722297 6.82992 7.2666829 6.9177893 6.8164062 6.0351562 C 6.2926646 5.0085232 6.1459524 3.8653851 6.4179688 2.9296875 C 6.6693454 2.0651158 7.0594288 1.5332554 7.40625 1.5488281 z M 4.6582031 4.234375 C 4.9028364 4.2519876 5.1575923 4.5598417 5.4648438 5.1621094 C 6.1089013 6.4246228 5.9561102 8.1684272 5.125 9.0605469 L 5.125 9.0625 C 4.7350873 9.4783614 4.5869984 9.4754734 4.3066406 9.046875 C 3.4835256 7.7885191 3.3280264 6.2452253 3.90625 5.0507812 C 4.1777089 4.4903151 4.4135698 4.2167624 4.6582031 4.234375 z M 24 6.3066406 C 23.982035 6.2797398 23.48833 6.73216 22.507812 7.6464844 L 21.212891 8.8535156 L 20.644531 8.7167969 C 18.976679 8.3138992 18.678177 8.2647579 18.402344 8.34375 C 18.230229 8.3932618 16.386722 10.125799 13.998047 12.484375 C 10.40925 16.028022 9.8658799 16.523225 9.7011719 16.400391 C 9.5974919 16.323288 9.4897753 16.205192 9.4609375 16.138672 C 9.3778435 15.94516 8.7346533 15.899414 8.4804688 16.068359 C 8.2467352 16.224189 8.1362645 16.571701 8.2128906 16.916016 C 8.2356884 17.018554 8.6486843 17.527089 9.1308594 18.044922 C 9.6130742 18.562528 10.003549 19.016385 10 19.039062 C 9.9955931 19.068694 9.5961009 19.470727 9.1113281 19.931641 C 8.2596917 20.741026 8.2228367 20.761932 8.0175781 20.558594 C 7.5426548 20.086644 7.1917218 19.802101 7.0546875 19.783203 C 6.9749935 19.771109 6.7670602 19.867968 6.59375 19.996094 L 6.59375 19.992188 C 6.2501872 20.246701 6.1350616 20.641502 6.3144531 20.947266 C 6.3771256 21.054075 7.0161453 21.776722 7.734375 22.552734 C 9.1486512 24.080986 9.3930903 24.221024 9.8574219 23.783203 C 10.26993 23.394063 10.249516 23.126119 9.7597656 22.511719 C 9.4685039 22.146087 9.353906 21.913857 9.4257812 21.826172 C 9.7614891 21.418134 11.00653 20.25246 11.09375 20.267578 C 11.15037 20.276006 11.58141 20.702491 12.052734 21.214844 C 13.014106 22.259959 13.354932 22.393811 13.832031 21.917969 C 14.151881 21.599203 14.121946 21.262926 13.734375 20.785156 L 13.462891 20.447266 L 17.611328 16.351562 C 20.928937 13.074712 21.768089 12.186188 21.808594 11.914062 C 21.836407 11.727316 21.767123 11.022491 21.654297 10.347656 L 21.449219 9.1210938 L 22.634766 7.8378906 C 23.558699 6.8387914 24.017965 6.3335414 24 6.3066406 z M 11.054688 6.375 C 11.873639 6.4185638 12.67974 6.7033547 13.267578 7.21875 C 13.708254 7.6051689 13.576597 7.8589201 12.732422 8.2519531 L 12.732422 8.2480469 C 11.621043 8.7693949 10.395733 8.7580008 9.21875 8.2207031 C 8.2204626 7.7650811 8.1022774 7.4430073 8.7617188 6.9804688 C 9.4032129 6.5304404 10.235736 6.3314362 11.054688 6.375 z M 1.9160156 7.0253906 C 2.5155459 7.0253906 3.0627695 8.2615743 3.0683594 9.6308594 C 3.0721407 10.55828 3.0130473 10.801011 2.6503906 11.349609 C 2.0051015 12.32571 1.506189 12.149288 1.0371094 10.78125 C 0.54407862 9.3432909 1.0861649 7.0253906 1.9160156 7.0253906 z M 8.0488281 9.0566406 C 9.0375276 9.0566406 10.569722 9.6594745 10.746094 10.119141 C 10.884052 10.478687 10.145848 11.018496 9.2578125 11.208984 L 9.2578125 11.210938 C 8.2165236 11.43393 7.7878559 11.413437 6.9492188 11.103516 C 5.8480303 10.696536 5.4829235 10.394467 5.6835938 10.054688 C 6.0103301 9.5026875 7.068653 9.0566406 8.0488281 9.0566406 z M 18.632812 9.0859375 C 18.800782 9.0789926 19.040741 9.1064247 19.427734 9.1640625 C 20.771922 9.3642641 20.813737 9.4009256 21.009766 10.564453 C 21.101476 11.107911 21.164009 11.639448 21.148438 11.744141 C 21.132832 11.848871 19.306854 13.726762 17.089844 15.916016 C 14.162911 18.80622 13.014076 19.870829 12.898438 19.804688 C 12.811807 19.751396 12.717813 19.712613 12.693359 19.708984 L 12.691406 19.708984 C 12.449383 19.672965 13.079007 18.965616 15.117188 16.982422 C 16.43426 15.700897 17.505732 14.614723 17.496094 14.576172 C 17.487218 14.533879 17.00216 13.984911 16.419922 13.355469 C 15.837751 12.725799 15.368487 12.178859 15.376953 12.130859 C 15.384935 12.087773 15.501177 11.94365 15.636719 11.8125 L 15.882812 11.576172 L 16.693359 12.457031 C 17.440362 13.269138 17.757113 13.463639 17.724609 13.089844 C 17.717566 13.008395 17.365954 12.571424 16.943359 12.121094 L 16.175781 11.300781 L 16.458984 11.003906 C 16.615918 10.840631 16.768214 10.713017 16.798828 10.716797 C 16.828423 10.721219 17.208948 11.112514 17.644531 11.585938 C 18.386013 12.391544 18.62967 12.541522 18.677734 12.21875 C 18.688663 12.145389 18.340511 11.708986 17.904297 11.25 C 17.235287 10.545307 17.133009 10.386122 17.25 10.228516 C 17.627181 9.7214542 17.736727 9.7583899 18.578125 10.679688 C 19.017308 11.160595 19.423586 11.53049 19.482422 11.507812 C 19.727079 11.402704 19.591656 11.152329 18.884766 10.40625 C 18.474513 9.9726626 18.11712 9.570616 18.091797 9.5097656 C 18.066361 9.4492932 18.148037 9.3153158 18.273438 9.2128906 C 18.369043 9.1335205 18.464843 9.0928824 18.632812 9.0859375 z M 5.3730469 11.724609 C 6.6359849 11.789204 8.2028318 12.558125 7.9882812 13.117188 C 7.9331364 13.261225 7.5942947 13.503998 7.2363281 13.658203 C 6.8783608 13.81203 6.3447567 13.970585 6.0507812 14.013672 C 4.8391584 14.184658 2.84375 13.497054 2.84375 12.908203 C 2.84375 12.513998 3.9658827 11.865022 4.8574219 11.742188 C 5.0194053 11.719988 5.1926272 11.715382 5.3730469 11.724609 z "
       style="fill:#ffffff;stroke-width:3.77952719" />
  </g>
</svg>
