<?xml version="1.0" encoding="UTF-8" standalone="no"?>
<svg
   xmlns:dc="http://purl.org/dc/elements/1.1/"
   xmlns:cc="http://creativecommons.org/ns#"
   xmlns:rdf="http://www.w3.org/1999/02/22-rdf-syntax-ns#"
   xmlns:svg="http://www.w3.org/2000/svg"
   xmlns="http://www.w3.org/2000/svg"
   id="svg6582"
   version="1.1"
   viewBox="0 0 6.3499999 6.3500002"
   height="24"
   width="24">
  <defs
     id="defs6576" />
  <metadata
     id="metadata6579">
    <rdf:RDF>
      <cc:Work
         rdf:about="">
        <dc:format>image/svg+xml</dc:format>
        <dc:type
           rdf:resource="http://purl.org/dc/dcmitype/StillImage" />
        <dc:title></dc:title>
      </cc:Work>
    </rdf:RDF>
  </metadata>
  <g
     transform="translate(0,-290.64998)"
     id="layer1">
    <path
       id="path7206"
       d="m 2.6709439,296.94599 c -0.564202,-0.13292 -1.10932,-0.57834 -1.395458,-1.14023 -0.209976,-0.41234 -0.255,-1.03331 -0.115079,-1.58719 0.192881,-0.76352 1.199054,-2.58796 1.865321,-3.38228 l 0.156223,-0.18625 0.127394,0.15521 c 0.255954,0.31183 1.051728,1.53363 1.300101,1.99612 0.140327,0.2613 0.343099,0.70829 0.450605,0.99333 0.251656,0.66721 0.280223,1.46003 0.06928,1.9227 -0.424912,0.93195 -1.479804,1.45914 -2.458384,1.22859 z m 0.0041,-1.00028 c 0.121194,-0.12119 0.08718,-0.27576 -0.138214,-0.62811 -0.319446,-0.49937 -0.421499,-0.87437 -0.397534,-1.46074 0.01125,-0.27533 0.003,-0.48091 -0.01834,-0.45684 -0.120721,0.13615 -0.385751,0.96774 -0.411897,1.29242 -0.03899,0.4842 0.107815,0.95289 0.366713,1.17073 0.198622,0.16713 0.476417,0.2054 0.599268,0.0825 z"
       style="fill:#ffffff;stroke-width:0.99999994" />
  </g>
</svg>
