<?xml version="1.0" encoding="UTF-8"?>
<svg width="24" height="24" version="1.1" viewBox="0 0 24 24" xmlns="http://www.w3.org/2000/svg">
 <path d="m9 2v2h-1.6699a1.33 1.33 0 0 0-1.3301 1.3301v15.34c0 .73.60008 1.3301 1.3301 1.3301h9.3398a1.33 1.33 0 0 0 1.3301-1.3301v-15.34c0-.73-.60008-1.3301-1.3301-1.3301h-1.6699v-2h-6zm-1 4h8v14h-8v-14zm3.9922 1.6348c-.20776.0001459-.41627.012296-.53906.035156-.40487.075377-.87711.27315-1.1992.50391-.6162.44145-1.052 1.0995-1.2012 1.8145-.036974.17724-.068135.43288-.068359.54883v.076172h.75.75v-.09375c.0014-.40911.27856-.88798.66211-1.1445.27527-.18413.51594-.25465.85547-.25195.42432.00337.77536.15218 1.0664.45312.18687.19323.29535.3781.37695.64648.041091.13522.045052.18127.044922.39648-.00018.27125-.03153.43084-.12695.63476-.09497.20296-.18126.30868-.59375.72852-.74662.75992-.86069.88539-.99219 1.082-.13974.20897-.2684.46308-.34766.68945-.05321.15199-.14258.52203-.14258.58984v.037109h.75977.75781l.009765-.048828c.03414-.15494.12253-.39847.19141-.5332.15368-.3006.29355-.46626 1.0293-1.2148.18393-.18714.36832-.38472.41211-.4375.25761-.31052.44302-.7197.51172-1.1309.04095-.24512.02889-.73384-.02539-.98828-.12115-.568-.37976-1.0577-.77734-1.4727-.45238-.47215-.98198-.76014-1.6328-.88672-.11668-.022692-.32349-.03335-.53125-.033203zm-.75781 8.2637v.75.75h.75.75195v-.75-.75h-.75195-.75z"/>
</svg>
