<svg width="218" height="219" viewBox="0 0 218 219" fill="none" xmlns="http://www.w3.org/2000/svg">
<g clip-path="url(#clip0_7_17)">
<mask id="mask0_7_17" style="mask-type:luminance" maskUnits="userSpaceOnUse" x="0" y="0" width="218" height="219">
<path d="M109 0.599976C169.1 0.599976 217.8 49.3 217.8 109.4C217.8 169.5 169.1 218.2 109 218.2C48.9002 218.2 0.200195 169.5 0.200195 109.4C0.200195 49.3 48.9002 0.599976 109 0.599976Z" fill="white"/>
</mask>
<g mask="url(#mask0_7_17)">
<path d="M109 0.599976C169.1 0.599976 217.8 49.3 217.8 109.4C217.8 169.5 169.1 218.2 109 218.2C48.9002 218.2 0.200195 169.5 0.200195 109.4C0.200195 49.3 48.9002 0.599976 109 0.599976Z" fill="url(#paint0_linear_7_17)"/>
<mask id="mask1_7_17" style="mask-type:luminance" maskUnits="userSpaceOnUse" x="0" y="0" width="218" height="219">
<path d="M0.200195 0.599976H217.9V218.3H0.200195V0.599976Z" fill="white"/>
</mask>
<g mask="url(#mask1_7_17)">
<mask id="mask2_7_17" style="mask-type:luminance" maskUnits="userSpaceOnUse" x="-74" y="42" width="404" height="221">
<path d="M-73.6997 42H329.3V262.5H-73.6997V42Z" fill="white"/>
</mask>
<g mask="url(#mask2_7_17)">
<path d="M-53.6997 139.5C-65.1997 137.2 -70.5997 143.9 -73.6997 147.3V262.6H329.3V44.3C325.5 57.6 293.7 91.3001 292.8 91.3001C292 91.3001 288.7 90.5 288.3 89.6C286.1 85.1 271.5 94.6 271.5 95.5C271.5 96.4 247 103 237.5 107.2C234.7 101.4 228.3 89.6001 221 96.3001C211.8 104.7 194.1 112 191.8 108.6C189.5 105.3 183.1 92.7001 173.2 99.4001L173 99.5C163 106.2 149.4 115.3 140.2 115.3C131 115.3 124.9 111.6 120.3 107.1C115.7 102.6 110.5 108.2 106.6 111.6C102.8 114.9 98.8003 111.6 92.1003 111.6C88.0003 111.6 87.1003 113.1 84.1003 115.3C81.0003 117.5 81.9003 121.8 67.8003 126.5C49.6003 132.5 49.6003 111.2 46.5003 110.3C42.0003 109 29.8003 118.9 19.9003 124.4C9.90029 130 9.70029 130.4 2.80029 131.5C-4.09971 132.6 -10.8997 125.9 -16.2997 124.8C-21.6997 123.7 -24.6997 130.4 -30.8997 138.2C-37.1997 146.1 -42.9997 141.6 -53.6997 139.5Z" fill="url(#paint1_linear_7_17)"/>
<path d="M-73.3996 145.4L-74.0996 146.2L-72.3996 147.7L-71.6996 146.9L-73.3996 145.4ZM237.2 105.4L236.2 105.9C236.4 106.4 237 106.6 237.5 106.5L237.2 105.4ZM291 93.1L289.9 93.5C290 93.8 290.3 94.1 290.6 94.2C290.9 94.3 291.3 94.3 291.5 94.1L291 93.1ZM-71.2996 146.5C-70.8996 146 -70.8996 145.3 -71.3996 144.9C-71.8996 144.5 -72.5996 144.5 -72.9996 145L-71.2996 146.5ZM-68.7996 140.9C-69.2996 141.3 -69.3996 142 -68.9996 142.5C-68.5996 143 -67.8996 143.1 -67.3996 142.7L-68.7996 140.9ZM-66.4996 142C-65.9996 141.6 -65.8996 140.9 -66.1996 140.4C-66.5996 139.9 -67.2996 139.8 -67.7996 140.1L-66.4996 142ZM-62.4996 137.5C-63.0996 137.7 -63.3996 138.3 -63.1996 138.9C-62.9996 139.5 -62.3996 139.8 -61.7996 139.6L-62.4996 137.5ZM-60.7996 139.3C-60.1996 139.2 -59.7996 138.5 -59.9996 137.9C-60.1996 137.3 -60.7996 136.9 -61.3996 137.1L-60.7996 139.3ZM-55.2996 136.8C-55.8996 136.7 -56.4996 137.2 -56.5996 137.8C-56.6996 138.4 -56.1996 139 -55.5996 139.1L-55.2996 136.8ZM-54.5996 139.2C-53.9996 139.3 -53.3996 138.9 -53.2996 138.3C-53.1996 137.7 -53.5996 137.1 -54.1996 137L-54.5996 139.2ZM-48.9996 138.3C-49.5996 138.1 -50.1996 138.5 -50.3996 139C-50.5996 139.6 -50.1996 140.2 -49.6996 140.4L-48.9996 138.3ZM-48.6996 140.7C-48.0996 140.9 -47.4996 140.6 -47.2996 140C-47.0996 139.4 -47.3996 138.8 -47.9996 138.6L-48.6996 140.7ZM-42.9996 140.2C-43.5996 140 -44.1996 140.4 -44.3996 141C-44.5996 141.6 -44.1996 142.2 -43.5996 142.4L-42.9996 140.2ZM-42.5996 142.6C-41.9996 142.8 -41.3996 142.4 -41.1996 141.8C-40.9996 141.2 -41.3996 140.6 -41.9996 140.4L-42.5996 142.6ZM-37.3996 140.8C-37.9996 140.9 -38.3996 141.5 -38.2996 142.1C-38.1996 142.7 -37.5996 143.1 -36.9996 143L-37.3996 140.8ZM-35.7996 142.6C-35.1996 142.4 -34.8996 141.7 -35.0996 141.2C-35.2996 140.6 -35.9996 140.3 -36.4996 140.5L-35.7996 142.6ZM-32.9996 137.7C-33.3996 138.2 -33.2996 138.9 -32.7996 139.3C-32.2996 139.7 -31.5996 139.6 -31.1996 139.1L-32.9996 137.7ZM-30.5996 138.2C-30.1996 137.7 -30.2996 137 -30.7996 136.6C-31.2996 136.2 -31.9996 136.3 -32.3996 136.8L-30.5996 138.2ZM-28.5996 131.8C-28.9996 132.3 -28.8996 133 -28.3996 133.4C-27.8996 133.8 -27.1996 133.7 -26.7996 133.2L-28.5996 131.8ZM-26.0996 132.2C-25.6996 131.7 -25.7996 131 -26.2996 130.6C-26.7996 130.2 -27.4996 130.3 -27.8996 130.8L-26.0996 132.2ZM-23.5996 126.1C-23.9996 126.5 -24.0996 127.2 -23.5996 127.7C-23.0996 128.2 -22.4996 128.2 -21.9996 127.7L-23.5996 126.1ZM-21.1996 126.9C-20.6996 126.5 -20.6996 125.8 -21.0996 125.3C-21.4996 124.8 -22.1996 124.8 -22.6996 125.2L-21.1996 126.9ZM-16.1996 122.8C-16.7996 122.7 -17.3996 123.2 -17.3996 123.8C-17.4996 124.4 -16.9996 125 -16.3996 125L-16.1996 122.8ZM-15.4996 125.2C-14.8996 125.4 -14.2996 125 -14.0996 124.4C-13.8996 123.8 -14.2996 123.2 -14.8996 123L-15.4996 125.2ZM-10.1996 125.4C-10.6996 125.1 -11.3996 125.2 -11.7996 125.7C-12.0996 126.2 -11.9996 126.9 -11.4996 127.3L-10.1996 125.4ZM-10.5996 127.8C-10.0996 128.1 -9.39961 128 -8.99961 127.5C-8.69961 127 -8.79961 126.3 -9.29961 125.9L-10.5996 127.8ZM-5.29961 128.4C-5.89961 128.1 -6.49961 128.4 -6.79961 128.9C-7.09961 129.5 -6.79961 130.1 -6.29961 130.4L-5.29961 128.4ZM-5.29961 130.9C-4.69961 131.1 -4.09961 130.8 -3.89961 130.3C-3.69961 129.7 -3.99961 129.1 -4.49961 128.9L-5.29961 130.9ZM-0.199608 129.4C-0.799608 129.5 -1.29961 130 -1.19961 130.6C-1.09961 131.2 -0.599611 131.7 0.000389099 131.6L-0.199608 129.4ZM1.10039 131.5C1.70039 131.5 2.20039 130.9 2.10039 130.3C2.10039 129.7 1.50039 129.2 0.900391 129.3L1.10039 131.5ZM1.10039 132.7C0.500388 132.9 0.200391 133.5 0.400391 134.1C0.600391 134.7 1.20039 135 1.80039 134.8L1.10039 132.7ZM2.90039 134.3C3.50039 134 3.70039 133.4 3.40039 132.8C3.10039 132.2 2.50039 132 1.90039 132.3L2.90039 134.3ZM6.70039 129.8C6.20039 130.1 6.00039 130.8 6.30039 131.3C6.60039 131.8 7.30039 132 7.80039 131.7L6.70039 129.8ZM8.70039 131.2C9.20039 130.9 9.40039 130.2 9.10039 129.7C8.80039 129.2 8.10039 129 7.60039 129.3L8.70039 131.2ZM12.3004 126.6C11.8004 126.9 11.6004 127.6 11.9004 128.1C12.2004 128.6 12.9004 128.8 13.4004 128.5L12.3004 126.6ZM14.4004 128C14.9004 127.7 15.1004 127 14.8004 126.5C14.5004 126 13.8004 125.8 13.3004 126.1L14.4004 128ZM17.8004 123.3C17.3004 123.6 17.1004 124.3 17.4004 124.8C17.7004 125.3 18.4004 125.5 18.9004 125.2L17.8004 123.3ZM20.0004 124.7C20.5004 124.4 20.7004 123.7 20.4004 123.2C20.1004 122.7 19.4004 122.5 18.9004 122.8L20.0004 124.7ZM24.0004 119.7C23.5004 120 23.3004 120.7 23.6004 121.2C23.9004 121.7 24.6004 121.9 25.1004 121.6L24.0004 119.7ZM26.2004 121C26.7004 120.7 26.9004 120 26.6004 119.5C26.3004 119 25.6004 118.8 25.1004 119.1L26.2004 121ZM30.3004 116C29.8004 116.3 29.6004 117 29.9004 117.5C30.2004 118 30.9004 118.2 31.4004 117.9L30.3004 116ZM32.4004 117.4C32.9004 117.1 33.1004 116.4 32.8004 115.9C32.5004 115.4 31.8004 115.2 31.3004 115.5L32.4004 117.4ZM36.6004 112.5C36.1004 112.8 35.9004 113.5 36.1004 114C36.4004 114.5 37.1004 114.7 37.6004 114.5L36.6004 112.5ZM38.7004 113.9C39.2004 113.6 39.5004 112.9 39.2004 112.4C38.9004 111.9 38.2004 111.6 37.7004 111.9L38.7004 113.9ZM43.3004 109.4C42.7004 109.6 42.4004 110.2 42.6004 110.8C42.8004 111.4 43.4004 111.7 44.0004 111.5L43.3004 109.4ZM45.0004 111.2C45.6004 111.1 46.0004 110.5 45.9004 109.9C45.8004 109.3 45.2004 108.9 44.6004 109L45.0004 111.2ZM49.0004 113.8C48.9004 113.2 48.2004 112.8 47.6004 113C47.0004 113.1 46.6004 113.8 46.8004 114.4L49.0004 113.8ZM47.2004 115.6C47.4004 116.2 48.0004 116.5 48.6004 116.3C49.2004 116.1 49.5004 115.5 49.3004 114.9L47.2004 115.6ZM51.6004 120.3C51.3004 119.8 50.6004 119.6 50.1004 119.9C49.6004 120.2 49.4004 120.9 49.7004 121.4L51.6004 120.3ZM50.3004 122.5C50.6004 123 51.3004 123.2 51.8004 122.8C52.3004 122.4 52.5004 121.8 52.1004 121.3L50.3004 122.5ZM56.0004 125.5C55.5004 125.1 54.8004 125.2 54.4004 125.7C54.0004 126.2 54.1004 126.9 54.6004 127.3L56.0004 125.5ZM55.7004 128C56.2004 128.3 56.9004 128.1 57.2004 127.6C57.5004 127.1 57.3004 126.4 56.8004 126.1L55.7004 128ZM62.1004 127.4C61.5004 127.4 61.0004 127.9 61.0004 128.5C61.0004 129.1 61.5004 129.6 62.1004 129.6V127.4ZM63.5004 129.6C64.1004 129.5 64.6004 129 64.5004 128.4C64.4004 127.8 63.9004 127.3 63.3004 127.4L63.5004 129.6ZM68.6004 125.6C68.0004 125.9 67.8004 126.6 68.1004 127.1C68.4004 127.7 69.1004 127.9 69.6004 127.6L68.6004 125.6ZM70.7004 127C71.2004 126.7 71.4004 126 71.1004 125.5C70.8004 125 70.1004 124.8 69.6004 125.1L70.7004 127ZM74.2004 122.1C73.7004 122.5 73.6004 123.2 74.0004 123.7C74.4004 124.2 75.1004 124.3 75.6004 123.9L74.2004 122.1ZM76.5004 123.3C77.0004 122.9 77.1004 122.2 76.7004 121.7C76.3004 121.2 75.6004 121.1 75.1004 121.5L76.5004 123.3ZM79.3004 117.8C78.9004 118.2 78.8004 118.9 79.3004 119.4C79.7004 119.8 80.4004 119.9 80.9004 119.4L79.3004 117.8ZM81.7004 118.7C82.1004 118.3 82.1004 117.6 81.7004 117.1C81.3004 116.7 80.6004 116.7 80.1004 117.1L81.7004 118.7ZM84.4004 113.1C83.9004 113.5 83.8004 114.2 84.2004 114.7C84.6004 115.2 85.3004 115.3 85.8004 114.9L84.4004 113.1ZM86.6004 114.3C87.1004 114 87.3004 113.3 87.0004 112.8C86.7004 112.3 86.0004 112.1 85.5004 112.4L86.6004 114.3ZM91.3004 110.7C90.7004 110.7 90.2004 111.2 90.2004 111.9C90.2004 112.5 90.7004 113 91.4004 113L91.3004 110.7ZM92.5004 112.9C93.1004 112.9 93.6004 112.4 93.6004 111.8C93.6004 111.2 93.1004 110.7 92.5004 110.7V112.9ZM98.2004 110.7C97.6004 110.7 97.1004 111.2 97.1004 111.8C97.1004 112.4 97.6004 112.9 98.2004 112.9V110.7ZM99.5004 112.9C100.1 112.9 100.6 112.5 100.7 111.8C100.7 111.2 100.3 110.7 99.6004 110.6L99.5004 112.9ZM106 109.7C105.5 110.1 105.5 110.8 105.9 111.3C106.3 111.8 107 111.8 107.5 111.4L106 109.7ZM108.4 110.6C108.9 110.2 108.9 109.5 108.5 109C108.1 108.5 107.4 108.5 106.9 108.9L108.4 110.6ZM111.5 106.1C110.9 106.3 110.7 107 110.9 107.6C111.1 108.2 111.8 108.4 112.4 108.2L111.5 106.1ZM113.2 107.8C113.8 107.6 114.1 107 113.9 106.4C113.7 105.8 113.1 105.5 112.5 105.7L113.2 107.8ZM117.8 104.8C117.2 104.8 116.7 105.3 116.7 105.9C116.7 106.5 117.2 107 117.8 107V104.8ZM118.6 107.1C119.2 107.2 119.8 106.7 119.8 106.1C119.9 105.5 119.4 104.9 118.8 104.9L118.6 107.1ZM124 107.1C123.5 106.7 122.8 106.7 122.4 107.2C122 107.7 122 108.4 122.5 108.8L124 107.1ZM123.2 109.4C123.6 109.8 124.3 109.8 124.8 109.4C125.2 109 125.2 108.3 124.8 107.8L123.2 109.4ZM128.2 111C127.7 110.6 127 110.7 126.6 111.2C126.2 111.7 126.3 112.4 126.8 112.8L128.2 111ZM127.6 113.4C128.1 113.7 128.8 113.6 129.2 113.1C129.6 112.6 129.4 111.9 128.9 111.5L127.6 113.4ZM132.8 113.1C132.2 113 131.6 113.4 131.5 114C131.4 114.6 131.8 115.2 132.4 115.3L132.8 113.1ZM133.4 115.5C134 115.6 134.6 115.2 134.7 114.5C134.8 113.9 134.4 113.3 133.7 113.2L133.4 115.5ZM138.3 113.6C137.7 113.6 137.2 114.1 137.2 114.7C137.2 115.3 137.7 115.8 138.3 115.8V113.6ZM139.4 115.8C140 115.8 140.5 115.3 140.5 114.6C140.5 114 140 113.5 139.3 113.5L139.4 115.8ZM144.2 112.7C143.6 112.9 143.3 113.5 143.4 114.1C143.5 114.7 144.2 115 144.8 114.9L144.2 112.7ZM145.9 114.5C146.5 114.3 146.8 113.7 146.6 113.1C146.4 112.5 145.8 112.2 145.2 112.4L145.9 114.5ZM150.1 110.6C149.5 110.8 149.3 111.5 149.5 112.1C149.7 112.7 150.4 112.9 151 112.7L150.1 110.6ZM151.9 112.2C152.5 111.9 152.7 111.3 152.5 110.7C152.2 110.1 151.6 109.9 151 110.1L151.9 112.2ZM155.7 107.8C155.2 108.1 154.9 108.8 155.2 109.3C155.5 109.8 156.2 110.1 156.7 109.8L155.7 107.8ZM157.7 109.3C158.2 109 158.4 108.3 158.1 107.8C157.8 107.3 157.1 107.1 156.6 107.4L157.7 109.3ZM161.2 104.7C160.7 105 160.5 105.7 160.8 106.2C161.1 106.7 161.8 106.9 162.3 106.6L161.2 104.7ZM163.3 106C163.8 105.7 164 105 163.7 104.5C163.4 104 162.7 103.8 162.2 104.1L163.3 106ZM166.6 101.3C166.1 101.6 165.9 102.3 166.3 102.8C166.6 103.3 167.3 103.5 167.9 103.1L166.6 101.3ZM168.7 102.6C169.2 102.3 169.4 101.6 169 101C168.7 100.5 168 100.3 167.4 100.7L168.7 102.6ZM171.8 97.8C171.3 98.2 171.2 98.9 171.5 99.4C171.9 99.9 172.6 100 173.1 99.7L171.8 97.8ZM173.9 99C174.4 98.7 174.6 98 174.2 97.5C173.9 97 173.2 96.8 172.7 97.2L173.9 99ZM177.9 95.3C177.3 95.3 176.8 95.9 176.9 96.5C176.9 97.1 177.5 97.6 178.1 97.5L177.9 95.3ZM178.9 97.5C179.5 97.5 180.1 97.1 180.1 96.5C180.1 95.9 179.7 95.3 179.1 95.3L178.9 97.5ZM184.2 97.4C183.7 97 183 97.1 182.6 97.6C182.2 98.1 182.3 98.8 182.8 99.2L184.2 97.4ZM183.6 99.8C184.1 100.2 184.8 100.2 185.2 99.7C185.6 99.2 185.6 98.5 185.1 98.1L183.6 99.8ZM188.5 102.1C188.1 101.6 187.4 101.5 186.9 101.8C186.4 102.2 186.3 102.9 186.6 103.4L188.5 102.1ZM187.2 104.2C187.5 104.7 188.2 104.9 188.8 104.5C189.3 104.2 189.5 103.5 189.1 102.9L187.2 104.2ZM191.7 107.3C191.4 106.8 190.7 106.6 190.2 106.9C189.7 107.2 189.5 107.9 189.8 108.4L191.7 107.3ZM190.7 109.6C191.2 110 191.9 109.9 192.3 109.4C192.7 108.9 192.6 108.2 192.1 107.8L190.7 109.6ZM196.4 107.7C195.8 107.8 195.4 108.4 195.6 109C195.7 109.6 196.3 110 196.9 109.8L196.4 107.7ZM198 109.6C198.6 109.4 198.9 108.8 198.8 108.2C198.6 107.6 198 107.3 197.4 107.4L198 109.6ZM202.3 105.7C201.7 105.9 201.5 106.6 201.7 107.2C201.9 107.8 202.6 108 203.2 107.8L202.3 105.7ZM204.2 107.3C204.8 107 205 106.4 204.8 105.8C204.5 105.2 203.9 105 203.3 105.2L204.2 107.3ZM208 102.9C207.5 103.2 207.3 103.9 207.6 104.4C207.9 104.9 208.6 105.1 209.1 104.8L208 102.9ZM210.1 104.3C210.6 104 210.8 103.3 210.5 102.8C210.2 102.3 209.5 102.1 209 102.4L210.1 104.3ZM213.4 99.5C212.9 99.9 212.8 100.6 213.1 101.1C213.5 101.6 214.2 101.7 214.7 101.4L213.4 99.5ZM215.6 100.7C216.1 100.3 216.2 99.6 215.8 99.1C215.4 98.6 214.7 98.5 214.2 98.9L215.6 100.7ZM218.3 95.6C217.8 96 217.8 96.7 218.2 97.2C218.6 97.7 219.3 97.7 219.8 97.3L218.3 95.6ZM220.6 96.6C221.1 96.2 221.1 95.5 220.7 95C220.3 94.5 219.6 94.5 219.1 94.9L220.6 96.6ZM224.2 92.6C223.6 92.6 223.1 93.2 223.2 93.8C223.2 94.4 223.8 94.9 224.4 94.8L224.2 92.6ZM225.2 94.9C225.8 95 226.4 94.5 226.4 93.9C226.5 93.3 226 92.7 225.4 92.7L225.2 94.9ZM230.4 94.7C229.9 94.3 229.2 94.4 228.8 94.9C228.4 95.4 228.5 96.1 229 96.5L230.4 94.7ZM229.8 97.1C230.3 97.5 231 97.4 231.4 97C231.8 96.5 231.7 95.8 231.3 95.4L229.8 97.1ZM234.8 99.2C234.4 98.7 233.7 98.6 233.2 99C232.7 99.4 232.6 100.1 233 100.6L234.8 99.2ZM233.5 101.3C233.9 101.8 234.6 101.9 235.1 101.6C235.6 101.2 235.7 100.5 235.4 100L233.5 101.3ZM238 104.4C237.7 103.8 237.1 103.6 236.5 103.9C235.9 104.2 235.7 104.8 236 105.4L238 104.4ZM238 106.3C238.6 106.1 239 105.5 238.8 104.9C238.6 104.3 238 103.9 237.4 104.1L238 106.3ZM243.2 102.6C242.6 102.8 242.3 103.4 242.4 104C242.6 104.6 243.2 104.9 243.8 104.8L243.2 102.6ZM244.9 104.4C245.5 104.2 245.8 103.6 245.7 103C245.5 102.4 244.9 102.1 244.3 102.2L244.9 104.4ZM250 100.6C249.4 100.8 249.1 101.4 249.3 102C249.5 102.6 250.1 102.9 250.7 102.7L250 100.6ZM251.8 102.3C252.4 102.1 252.7 101.5 252.5 100.9C252.3 100.3 251.7 100 251.1 100.2L251.8 102.3ZM256.8 98.3C256.2 98.5 255.9 99.1 256.1 99.7C256.3 100.3 256.9 100.6 257.5 100.4L256.8 98.3ZM258.6 100.1C259.2 99.9 259.5 99.3 259.3 98.7C259.1 98.1 258.5 97.8 257.9 98L258.6 100.1ZM263.4 95.9C262.8 96.1 262.5 96.8 262.8 97.4C263 98 263.7 98.3 264.3 98L263.4 95.9ZM265.4 97.5C266 97.3 266.3 96.6 266 96C265.8 95.4 265.1 95.1 264.5 95.4L265.4 97.5ZM269.9 93.1C269.3 93.4 269.1 94 269.4 94.6C269.7 95.2 270.3 95.4 270.9 95.1L269.9 93.1ZM272 94.6C272.6 94.3 272.8 93.7 272.5 93.1C272.2 92.5 271.6 92.3 271 92.6L272 94.6ZM276 89.7C275.5 90.1 275.4 90.8 275.7 91.3C276.1 91.8 276.8 91.9 277.3 91.6L276 89.7ZM278.2 90.9C278.7 90.5 278.8 89.8 278.5 89.3C278.1 88.8 277.4 88.7 276.9 89L278.2 90.9ZM281.4 86.7C280.8 86.9 280.5 87.5 280.6 88.1C280.8 88.7 281.4 89 282 88.9L281.4 86.7ZM282.8 88.7C283.4 88.6 283.8 88 283.7 87.4C283.6 86.8 283 86.4 282.4 86.5L282.8 88.7ZM287.8 87.5C287.3 87.2 286.6 87.4 286.3 87.9C286 88.4 286.2 89.1 286.7 89.4L287.8 87.5ZM287.3 89.8C287.8 90.2 288.5 90.1 288.9 89.6C289.3 89.1 289.2 88.4 288.7 88L287.3 89.8ZM291.8 92.3C291.6 91.7 290.9 91.5 290.3 91.7C289.7 91.9 289.5 92.6 289.7 93.2L291.8 92.3ZM292 93.8C292.5 93.5 292.7 92.8 292.3 92.3C292 91.8 291.3 91.6 290.8 92L292 93.8ZM295.1 88.4C294.6 88.8 294.6 89.5 295 90C295.4 90.5 296.1 90.5 296.6 90.1L295.1 88.4ZM297.4 89.3C297.8 88.9 297.9 88.2 297.4 87.7C297 87.3 296.3 87.2 295.8 87.7L297.4 89.3ZM299.9 83.7C299.5 84.1 299.5 84.9 299.9 85.3C300.3 85.7 301.1 85.7 301.5 85.3L299.9 83.7ZM302.3 84.4C302.7 83.9 302.7 83.2 302.2 82.8C301.7 82.4 301 82.4 300.6 82.9L302.3 84.4ZM304.4 78.7C304 79.2 304 79.9 304.5 80.3C305 80.7 305.7 80.7 306.1 80.2L304.4 78.7ZM306.8 79.3C307.2 78.8 307.2 78.1 306.7 77.7C306.2 77.3 305.5 77.3 305.1 77.8L306.8 79.3ZM308.8 73.5C308.4 74 308.5 74.7 309 75.1C309.5 75.5 310.2 75.4 310.6 74.9L308.8 73.5ZM311.2 74C311.6 73.5 311.5 72.8 311 72.4C310.5 72 309.8 72.1 309.4 72.6L311.2 74ZM313 68.2C312.6 68.7 312.7 69.4 313.2 69.8C313.7 70.2 314.4 70.1 314.8 69.6L313 68.2ZM315.5 68.6C315.9 68.1 315.8 67.4 315.3 67C314.8 66.6 314.1 66.7 313.7 67.2L315.5 68.6ZM317 62.7C316.6 63.2 316.8 63.9 317.3 64.3C317.8 64.7 318.5 64.5 318.9 64L317 62.7ZM319.5 63C319.8 62.5 319.7 61.8 319.2 61.4C318.7 61.1 318 61.2 317.6 61.7L319.5 63ZM320.7 57.1C320.4 57.6 320.5 58.3 321.1 58.6C321.6 58.9 322.3 58.8 322.6 58.2L320.7 57.1ZM323.2 57.2C323.5 56.7 323.3 56 322.8 55.7C322.3 55.4 321.6 55.6 321.3 56.1L323.2 57.2ZM323.9 51.2C323.6 51.8 323.9 52.4 324.4 52.7C325 53 325.6 52.7 325.9 52.2L323.9 51.2ZM326.4 51.1C326.7 50.5 326.4 49.9 325.9 49.6C325.3 49.3 324.7 49.6 324.4 50.1L326.4 51.1ZM326.4 45.1C326.2 45.7 326.6 46.3 327.2 46.5C327.8 46.7 328.4 46.3 328.6 45.7L326.4 45.1ZM-71.6996 146.9C-71.5996 146.8 -71.4996 146.6 -71.2996 146.5L-72.9996 145C-73.0996 145.1 -73.2996 145.3 -73.3996 145.4L-71.6996 146.9ZM-67.3996 142.7C-67.0996 142.5 -66.7996 142.3 -66.4996 142.1L-67.7996 140.3C-68.0996 140.5 -68.3996 140.8 -68.7996 141L-67.3996 142.7ZM-61.7996 139.6C-61.4996 139.5 -61.0996 139.4 -60.7996 139.3L-61.2996 137.1C-61.6996 137.2 -62.0996 137.3 -62.4996 137.4L-61.7996 139.6ZM-55.5996 139C-55.3996 139 -55.2996 139 -55.0996 139.1L-54.6996 136.9C-54.8996 136.9 -55.0996 136.8 -55.2996 136.8L-55.5996 139ZM-55.0996 139.1C-54.8996 139.1 -54.7996 139.2 -54.5996 139.2L-54.1996 137C-54.3996 137 -54.5996 136.9 -54.6996 136.9L-55.0996 139.1ZM-49.5996 140.4C-49.2996 140.5 -48.8996 140.6 -48.5996 140.7L-47.8996 138.6C-48.1996 138.5 -48.5996 138.4 -48.8996 138.3L-49.5996 140.4ZM-43.6996 142.3C-43.3996 142.4 -42.9996 142.5 -42.6996 142.6L-42.0996 140.4C-42.3996 140.3 -42.6996 140.2 -43.0996 140.1L-43.6996 142.3ZM-36.9996 142.9C-36.5996 142.8 -36.1996 142.7 -35.7996 142.6L-36.5996 140.5C-36.8996 140.6 -37.1996 140.7 -37.3996 140.7L-36.9996 142.9ZM-31.2996 139.1C-31.1996 139 -31.0996 138.8 -30.9996 138.7L-32.7996 137.4C-32.8996 137.5 -32.9996 137.7 -33.0996 137.8L-31.2996 139.1ZM-30.8996 138.7C-30.7996 138.5 -30.5996 138.4 -30.4996 138.2L-32.2996 136.9C-32.3996 137.1 -32.4996 137.2 -32.6996 137.4L-30.8996 138.7ZM-26.7996 133.2C-26.4996 132.9 -26.2996 132.5 -25.9996 132.2L-27.7996 130.8C-28.0996 131.1 -28.2996 131.5 -28.5996 131.8L-26.7996 133.2ZM-22.0996 127.7C-21.7996 127.4 -21.4996 127.2 -21.1996 126.9L-22.5996 125.2C-22.8996 125.5 -23.2996 125.8 -23.5996 126.1L-22.0996 127.7ZM-16.3996 125C-16.1996 125 -16.0996 125 -15.8996 125.1L-15.3996 122.9C-15.5996 122.8 -15.8996 122.8 -16.0996 122.8L-16.3996 125ZM-15.8996 125.1C-15.7996 125.1 -15.5996 125.2 -15.4996 125.2L-14.8996 123C-15.0996 123 -15.2996 122.9 -15.3996 122.9L-15.8996 125.1ZM-11.3996 127.3C-11.0996 127.5 -10.8996 127.7 -10.5996 127.8L-9.29961 125.9C-9.59961 125.7 -9.89961 125.5 -10.0996 125.3L-11.3996 127.3ZM-6.29961 130.5C-5.99961 130.7 -5.69961 130.8 -5.29961 130.9L-4.49961 128.8C-4.79961 128.7 -5.09961 128.6 -5.29961 128.4L-6.29961 130.5ZM0.100388 131.6C0.300388 131.6 0.500388 131.6 0.600388 131.5L0.200386 129.3C0.100386 129.3 -0.0996078 129.3 -0.199608 129.4L0.100388 131.6ZM0.600388 131.5C0.800388 131.5 0.900389 131.5 1.00039 131.4L0.800392 129.2C0.600392 129.2 0.400386 129.2 0.200386 129.3L0.600388 131.5ZM1.80039 134.8C2.10039 134.7 2.50039 134.5 2.90039 134.3L2.00039 132.3C1.60039 132.5 1.30039 132.6 1.10039 132.7L1.80039 134.8ZM7.80039 131.8C8.10039 131.6 8.40039 131.5 8.80039 131.3L7.70039 129.4C7.40039 129.6 7.10039 129.8 6.80039 129.9L7.80039 131.8ZM13.4004 128.5C13.7004 128.3 14.0004 128.1 14.4004 127.9L13.3004 126C13.0004 126.2 12.7004 126.4 12.3004 126.6L13.4004 128.5ZM19.0004 125.3C19.2004 125.2 19.3004 125.1 19.5004 125L18.4004 123.1C18.2004 123.2 18.1004 123.3 17.9004 123.4L19.0004 125.3ZM19.5004 125C19.7004 124.9 19.9004 124.8 20.0004 124.7L18.9004 122.8C18.7004 122.9 18.5004 123 18.4004 123.1L19.5004 125ZM25.2004 121.6C25.6004 121.4 25.9004 121.2 26.2004 121L25.1004 119.1C24.8004 119.3 24.4004 119.5 24.1004 119.7L25.2004 121.6ZM31.4004 118C31.8004 117.8 32.1004 117.6 32.5004 117.4L31.4004 115.5C31.1004 115.7 30.7004 115.9 30.3004 116.1L31.4004 118ZM37.6004 114.5C38.0004 114.3 38.3004 114.1 38.6004 113.9L37.6004 111.9C37.3004 112.1 36.9004 112.3 36.5004 112.5L37.6004 114.5ZM44.0004 111.5C44.4004 111.4 44.7004 111.3 45.0004 111.2L44.6004 109C44.2004 109.1 43.8004 109.2 43.3004 109.4L44.0004 111.5ZM46.9004 114.4C46.9004 114.6 47.0004 114.8 47.1004 115L49.3004 114.4C49.2004 114.2 49.2004 114 49.2004 113.9L46.9004 114.4ZM47.0004 115C47.1004 115.2 47.1004 115.4 47.2004 115.6L49.3004 114.9C49.2004 114.7 49.2004 114.5 49.1004 114.3L47.0004 115ZM49.7004 121.4C49.9004 121.8 50.1004 122.1 50.4004 122.5L52.3004 121.3C52.1004 121 51.9004 120.6 51.7004 120.3L49.7004 121.4ZM54.6004 127.3C55.0004 127.6 55.3004 127.8 55.7004 128L56.8004 126.1C56.5004 125.9 56.2004 125.7 55.9004 125.5L54.6004 127.3ZM62.1004 129.7C62.5004 129.7 63.0004 129.7 63.4004 129.6L63.1004 127.4C62.7004 127.4 62.4004 127.5 62.0004 127.5L62.1004 129.7ZM69.6004 127.6C69.8004 127.5 70.0004 127.4 70.2004 127.3L69.1004 125.3C68.9004 125.4 68.7004 125.5 68.6004 125.6L69.6004 127.6ZM70.2004 127.3C70.4004 127.2 70.5004 127.1 70.7004 127L69.6004 125C69.4004 125.1 69.3004 125.2 69.1004 125.3L70.2004 127.3ZM75.6004 123.9C75.9004 123.7 76.2004 123.4 76.5004 123.2L75.1004 121.4C74.8004 121.6 74.5004 121.8 74.2004 122.1L75.6004 123.9ZM80.9004 119.5C81.2004 119.2 81.5004 119 81.7004 118.7L80.1004 117.1C79.8004 117.4 79.6004 117.6 79.3004 117.9L80.9004 119.5ZM85.7004 114.9C86.0004 114.7 86.3004 114.5 86.6004 114.3L85.4004 112.4C85.1004 112.6 84.7004 112.8 84.4004 113.1L85.7004 114.9ZM91.4004 112.9H91.9004V110.7C91.7004 110.7 91.5004 110.7 91.3004 110.7L91.4004 112.9ZM91.9004 112.9C92.0004 112.9 92.0004 112.9 91.9004 112.9ZM98.2004 112.9C98.3004 112.9 98.3004 112.9 98.2004 112.9ZM98.8004 112.9H99.5004L99.6004 110.7C99.3004 110.7 99.1004 110.7 98.8004 110.7V112.9ZM107.4 111.4C107.6 111.2 107.8 111.1 108 110.9L106.5 109.2C106.3 109.4 106.1 109.5 106 109.7L107.4 111.4ZM108 110.9L108.3 110.6L106.9 108.9C106.8 109 106.6 109.1 106.5 109.3L108 110.9ZM112.4 108.1C112.7 108 113 107.9 113.3 107.8L112.5 105.7C112.2 105.8 111.8 106 111.5 106.1L112.4 108.1ZM117.8 107C118.1 107 118.4 107 118.7 107.1L119 104.9C118.6 104.9 118.3 104.8 117.9 104.8L117.8 107ZM122.6 108.8L122.9 109.1L124.5 107.5C124.4 107.4 124.2 107.2 124.1 107.1L122.6 108.8ZM122.9 109.1L123.2 109.4L124.8 107.8C124.7 107.7 124.6 107.6 124.5 107.5L122.9 109.1ZM126.8 112.8C127.1 113 127.3 113.2 127.6 113.4L128.9 111.6C128.7 111.4 128.4 111.3 128.2 111.1L126.8 112.8ZM132.4 115.3C132.7 115.4 133.1 115.4 133.4 115.5L133.7 113.3C133.4 113.3 133.1 113.2 132.8 113.2L132.4 115.3ZM138.3 115.8H138.8V113.6C138.6 113.6 138.5 113.6 138.3 113.6V115.8ZM138.8 115.8H139.4L139.3 113.6C139.1 113.6 139 113.6 138.8 113.6V115.8ZM144.8 114.9C145.1 114.8 145.5 114.7 145.8 114.6L145.1 112.5C144.8 112.6 144.4 112.7 144.1 112.8L144.8 114.9ZM151 112.6C151.3 112.5 151.7 112.3 152 112.2L151.1 110.2C150.8 110.3 150.5 110.5 150.1 110.6L151 112.6ZM156.8 109.8C157.1 109.6 157.4 109.5 157.7 109.3L156.6 107.3C156.3 107.5 156 107.6 155.7 107.8L156.8 109.8ZM162.4 106.6C162.7 106.4 163 106.2 163.3 106L162.1 104.1C161.8 104.3 161.5 104.5 161.2 104.6L162.4 106.6ZM167.8 103.2C168.1 103 168.4 102.8 168.7 102.6L167.5 100.7C167.2 100.9 166.9 101.1 166.6 101.3L167.8 103.2ZM173.1 99.6C173.2 99.5 173.4 99.4 173.5 99.3L172.2 97.5C172.1 97.6 171.9 97.7 171.8 97.8L173.1 99.6ZM173.5 99.3C173.6 99.2 173.8 99.1 173.9 99L172.7 97.1C172.5 97.2 172.4 97.3 172.2 97.4L173.5 99.3ZM178 97.5H178.9L179.1 95.3C178.7 95.3 178.3 95.3 177.9 95.3L178 97.5ZM182.9 99.2C183.1 99.4 183.4 99.6 183.6 99.8L185.1 98.1C184.8 97.9 184.5 97.6 184.3 97.4L182.9 99.2ZM186.7 103.4C186.9 103.7 187.1 103.9 187.2 104.2L189.1 103C188.9 102.7 188.7 102.4 188.5 102.1L186.7 103.4ZM189.8 108.4C189.9 108.6 190 108.7 190.1 108.9L192 107.7C191.9 107.6 191.8 107.5 191.8 107.3L189.8 108.4ZM190.1 108.9C190.3 109.2 190.5 109.4 190.7 109.6L192 107.8C191.9 107.8 191.9 107.7 191.9 107.7L190.1 108.9ZM196.9 109.9C197.3 109.8 197.6 109.7 198 109.6L197.4 107.4C197.1 107.5 196.7 107.6 196.4 107.7L196.9 109.9ZM203.2 107.7C203.5 107.6 203.9 107.4 204.2 107.3L203.3 105.3C203 105.4 202.7 105.6 202.3 105.7L203.2 107.7ZM209.1 104.8C209.4 104.6 209.7 104.4 210.1 104.3L209 102.4C208.7 102.6 208.4 102.8 208.1 102.9L209.1 104.8ZM214.7 101.4C215 101.2 215.3 101 215.6 100.8L214.3 99C214 99.2 213.7 99.4 213.4 99.6L214.7 101.4ZM219.9 97.2C220 97.1 220.2 96.9 220.3 96.8L218.8 95.2C218.7 95.3 218.5 95.4 218.4 95.6L219.9 97.2ZM220.3 96.9C220.4 96.8 220.5 96.7 220.6 96.6L219.1 94.9C219 95 218.8 95.1 218.7 95.3L220.3 96.9ZM224.3 94.8H225.1L225.3 92.6C224.9 92.6 224.5 92.6 224.1 92.6L224.3 94.8ZM229.1 96.5C229.3 96.7 229.6 96.9 229.8 97.1L231.2 95.4C230.9 95.2 230.7 94.9 230.4 94.7L229.1 96.5ZM233 100.5C233.2 100.8 233.4 101 233.6 101.3L235.4 100C235.2 99.7 235 99.4 234.8 99.2L233 100.5ZM235.9 105.4C236 105.5 236 105.7 236.1 105.8L238.1 104.9C238 104.7 238 104.6 237.9 104.4L235.9 105.4ZM237.4 106.5C237.6 106.5 237.8 106.4 238 106.4L237.4 104.2C237.2 104.2 237 104.3 236.8 104.3L237.4 106.5ZM243.8 104.7C244.2 104.6 244.6 104.5 244.9 104.4L244.3 102.2C243.9 102.3 243.5 102.4 243.2 102.5L243.8 104.7ZM250.7 102.7C251.1 102.6 251.5 102.5 251.8 102.3L251.1 100.2C250.7 100.3 250.3 100.4 250 100.6L250.7 102.7ZM257.5 100.4C257.9 100.3 258.3 100.1 258.6 100L257.9 97.9C257.5 98 257.2 98.2 256.8 98.3L257.5 100.4ZM264.3 98C264.7 97.9 265 97.7 265.4 97.6L264.6 95.5C264.2 95.6 263.9 95.8 263.5 95.9L264.3 98ZM270.9 95.1C271.3 94.9 271.6 94.7 272 94.6L271 92.6C270.7 92.8 270.3 92.9 269.9 93.1L270.9 95.1ZM277.3 91.5C277.5 91.4 277.6 91.3 277.8 91.1L276.4 89.3C276.3 89.4 276.1 89.5 276 89.6L277.3 91.5ZM277.8 91.1C277.9 91 278 90.9 278.2 90.8L276.9 89C276.8 89.1 276.6 89.2 276.5 89.3L277.8 91.1ZM282 88.9C282.3 88.8 282.5 88.8 282.8 88.7L282.4 86.5C282.1 86.6 281.7 86.6 281.4 86.7L282 88.9ZM286.6 89.4C286.8 89.5 287.1 89.7 287.3 89.9L288.7 88.1C288.4 87.9 288.1 87.7 287.8 87.5L286.6 89.4ZM289.8 93.1C289.9 93.2 289.9 93.4 290 93.5L292.1 92.7C292 92.5 292 92.4 291.9 92.2L289.8 93.1ZM291.5 94.1C291.7 94 291.8 93.9 292 93.8L290.8 91.9C290.6 92 290.5 92.1 290.4 92.2L291.5 94.1ZM296.6 90.1C296.9 89.8 297.2 89.6 297.4 89.3L295.9 87.7C295.6 88 295.3 88.2 295.1 88.5L296.6 90.1ZM301.5 85.2C301.8 84.9 302 84.7 302.3 84.4L300.7 82.9C300.4 83.2 300.2 83.4 299.9 83.7L301.5 85.2ZM306.1 80.2C306.3 79.9 306.6 79.6 306.9 79.3L305.2 77.8C305 78.1 304.7 78.4 304.5 78.7L306.1 80.2ZM310.5 74.9C310.7 74.6 311 74.3 311.2 74L309.5 72.6C309.3 72.9 309 73.2 308.8 73.5L310.5 74.9ZM314.8 69.5C315 69.2 315.3 68.9 315.5 68.6L313.7 67.3C313.5 67.6 313.2 67.9 313 68.2L314.8 69.5ZM318.8 64C319 63.7 319.2 63.4 319.4 63.1L317.5 61.8C317.3 62.1 317.1 62.4 316.9 62.7L318.8 64ZM322.6 58.2C322.8 57.9 323 57.5 323.2 57.2L321.3 56.1C321.1 56.4 320.9 56.7 320.7 57.1L322.6 58.2ZM325.9 52.2C326.1 51.8 326.2 51.5 326.4 51.2L324.4 50.2C324.2 50.5 324.1 50.9 323.9 51.2L325.9 52.2ZM328.5 45.7C328.6 45.5 328.6 45.3 328.7 45.1L326.5 44.5C326.5 44.7 326.4 44.8 326.4 45L328.5 45.7Z" fill="#153F80"/>
</g>
<path d="M109 0.599976C48.9002 0.599976 0.200195 49.3 0.200195 109.5C0.200195 169.7 48.9002 218.3 109 218.3C127.4 218.3 144.8 213.7 160 205.6C167.1 201.8 173.8 197.3 179.9 192C203.1 172 217.9 142.4 217.9 109.4C217.9 49.3 169.2 0.599976 109 0.599976ZM179.4 175.2C179.5 175 179.7 174.9 179.8 174.7C179.7 174.9 179.6 175 179.4 175.2ZM179.9 174.7V109C180 95.7 176.9 83.6 170.8 72.7C164.6 61.8 156.2 53.4 145.3 47.1C140.6 44.4 135.6 42.3 130.5 40.8C124.9 39.1 119.1 43.6 119.1 49.5C119.1 53.5 121.8 56.9 125.5 58.1C129 59.2 132.2 60.7 135.4 62.5C143.2 67.2 149.4 73.5 153.8 81.6C158.2 89.7 160.5 98.6 160.5 108.7C160.5 118.8 158.2 127.8 153.8 135.8C149.2 143.9 143.2 150.2 135.4 154.7C133.3 155.9 131.1 157 128.8 157.9V121.8C128.8 119 127.9 116.6 126 114.7C124.1 112.8 121.8 111.9 118.9 111.9C116.2 111.9 113.9 112.8 111.9 114.7C110 116.6 108.9 118.9 108.9 121.8V168.5C108.9 171.2 109.8 173.5 111.9 175.5C113.8 177.4 116.2 178.5 118.9 178.5C126 178.3 133 174.8 137.3 172.5C146.4 167.8 153.9 161.5 160 153.3V191.2C145.2 200.4 127.7 205.8 109 205.8C55.8002 205.8 12.7002 162.7 12.7002 109.5C12.7002 56.3 55.8002 13.2 109 13.2C162.2 13.2 205.3 56.3 205.3 109.5C205.4 134.6 195.7 157.5 179.9 174.7Z" fill="url(#paint2_radial_7_17)"/>
<path d="M109.6 89V48.9C109.6 46.1 108.7 43.7 106.8 41.8C104.8 40.1 101.5 39.1 99.5005 39.1C92.6005 39.3 80.4005 43.7 73.3005 47.7C62.6005 53.9 54.1005 62.5 47.8005 73.3C41.6005 84.2 38.5005 96.3 38.5005 109.4C38.5005 122.6 41.5005 134.6 47.5005 145.4C53.5005 156.2 61.7005 164.6 72.2005 170.9C77.0005 173.9 82.1005 176 87.6005 177.5C93.5005 179.1 99.4005 174.8 99.4005 168.6C99.4005 164.4 96.6005 161.1 92.7005 159.7C89.3005 158.6 86.0005 157.1 82.9005 155.3C75.0005 150.7 68.8005 144.4 64.4005 136.4C59.8005 128.3 57.7005 119.4 57.7005 109.3C57.7005 99.2 60.0005 90.2 64.4005 82.2C68.8005 74.1 75.1005 67.8 82.9005 63.1C85.0005 61.9 87.3005 60.8 89.6005 59.9V95.5C89.6005 98.2 90.5005 100.5 92.6005 102.5C94.5005 104.4 96.9005 105.5 99.6005 105.5C102.4 105.5 104.8 104.6 106.7 102.5C108.6 100.6 109.5 98.2 109.5 95.5V89H109.6Z" fill="white"/>
<path d="M125.1 58.3C128.5 59.4 131.9 60.9 135 62.8C143 67.4 149.2 73.7 153.7 81.8C155.1 84.3 156.3 87 157.3 89.7C166.9 100.7 173.9 114 177.4 128.6C179.1 122.4 179.9 115.8 179.9 109C179.9 95.6 176.9 83.6 170.8 72.8C164.7 62 156.4 53.5 145.9 47.1C141 44.1 135.9 42 130.3 40.5C124.3 38.9 118.4 43.2 118.4 49.4C118.3 53.6 121.1 57 125.1 58.3Z" fill="#C0E9F5"/>
<path d="M125 58.3C126 58.6 126.9 59 127.9 59.3C146.9 62.3 163.8 71.7 176.2 85.2C174.8 80.9 173 76.7 170.7 72.7C164.6 61.9 156.3 53.4 145.8 47C140.9 44 135.8 41.9 130.2 40.4C124.2 38.8 118.3 43.1 118.3 49.3C118.3 53.6 121.1 57 125 58.3Z" fill="#0BBCE2"/>
</g>
<mask id="mask3_7_17" style="mask-type:luminance" maskUnits="userSpaceOnUse" x="38" y="89" width="63" height="89">
<path d="M38.5 89.4H100.1V177.8H38.5V89.4Z" fill="white"/>
</mask>
<g mask="url(#mask3_7_17)">
<path d="M93.3 159.7C89.9 158.6 86.5 157.1 83.4 155.2C75.4 150.6 69.2 144.3 64.7 136.2C63.3 133.7 62.1 131 61.1 128.3C51.5 117.3 44.5 104 41 89.4C39.3 95.6 38.5 102.2 38.5 109C38.5 122.4 41.5 134.4 47.6 145.2C53.7 156 62 164.5 72.5 170.9C77.4 173.9 82.5 176 88.1 177.5C94.1 179.1 100 174.8 100 168.6C100.1 164.4 97.2 161 93.3 159.7Z" fill="#C0E9F5"/>
<path d="M93.3001 159.7C92.3001 159.4 91.4001 159 90.4001 158.7C71.4001 155.7 54.5001 146.3 42.1001 132.8C43.5001 137.1 45.3001 141.3 47.6001 145.3C53.7001 156.1 62.0001 164.6 72.5001 171C77.4001 174 82.5001 176.1 88.1001 177.6C94.1001 179.2 100 174.9 100 168.7C100.1 164.4 97.2001 161 93.3001 159.7Z" fill="#0BBCE2"/>
</g>
</g>
</g>
<defs>
<linearGradient id="paint0_linear_7_17" x1="109.045" y1="0.619576" x2="109.045" y2="218.3" gradientUnits="userSpaceOnUse">
<stop stop-color="#011122"/>
<stop offset="1" stop-color="#00468C"/>
</linearGradient>
<linearGradient id="paint1_linear_7_17" x1="126.918" y1="70.3962" x2="128.984" y2="262.57" gradientUnits="userSpaceOnUse">
<stop offset="0.2812" stop-color="#011932"/>
<stop offset="1" stop-color="#024314" stop-opacity="0.1"/>
</linearGradient>
<radialGradient id="paint2_radial_7_17" cx="0" cy="0" r="1" gradientUnits="userSpaceOnUse" gradientTransform="translate(109.05 106.778) rotate(88.9595) scale(111.54)">
<stop offset="0.458333" stop-color="white"/>
<stop offset="1" stop-color="#D3D3D3"/>
</radialGradient>
<clipPath id="clip0_7_17">
<rect width="218" height="219" fill="white"/>
</clipPath>
</defs>
</svg>
