<?xml version="1.0" encoding="UTF-8" standalone="no"?>
<!-- Created with Inkscape (http://www.inkscape.org/) -->

<svg
   xmlns:dc="http://purl.org/dc/elements/1.1/"
   xmlns:cc="http://creativecommons.org/ns#"
   xmlns:rdf="http://www.w3.org/1999/02/22-rdf-syntax-ns#"
   xmlns:svg="http://www.w3.org/2000/svg"
   xmlns="http://www.w3.org/2000/svg"
   xmlns:sodipodi="http://sodipodi.sourceforge.net/DTD/sodipodi-0.dtd"
   xmlns:inkscape="http://www.inkscape.org/namespaces/inkscape"
   width="24"
   height="24"
   viewBox="0 0 6.3499999 6.3500002"
   version="1.1"
   id="svg6582"
   inkscape:version="0.92.2 (5c3e80d, 2017-08-06)"
   sodipodi:docname="ic_cob_iob_orig.svg">
  <defs
     id="defs6576" />
  <sodipodi:namedview
     id="base"
     pagecolor="#ffffff"
     bordercolor="#666666"
     borderopacity="1.0"
     inkscape:pageopacity="0.0"
     inkscape:pageshadow="2"
     inkscape:zoom="20.48"
     inkscape:cx="11.749487"
     inkscape:cy="7.6899364"
     inkscape:document-units="mm"
     inkscape:current-layer="layer1"
     showgrid="false"
     units="px"
     inkscape:snap-object-midpoints="true"
     inkscape:snap-center="true"
     inkscape:window-width="1920"
     inkscape:window-height="1017"
     inkscape:window-x="-8"
     inkscape:window-y="-8"
     inkscape:window-maximized="1"
     showguides="true"
     inkscape:guide-bbox="true">
    <sodipodi:guide
       position="5.3485108,-2.2479248"
       orientation="0,1"
       id="guide7239"
       inkscape:locked="false" />
    <sodipodi:guide
       position="7.4930827,-2.2479248"
       orientation="0,1"
       id="guide4515"
       inkscape:locked="false" />
  </sodipodi:namedview>
  <metadata
     id="metadata6579">
    <rdf:RDF>
      <cc:Work
         rdf:about="">
        <dc:format>image/svg+xml</dc:format>
        <dc:type
           rdf:resource="http://purl.org/dc/dcmitype/StillImage" />
        <dc:title></dc:title>
      </cc:Work>
    </rdf:RDF>
  </metadata>
  <g
     inkscape:label="Layer 1"
     inkscape:groupmode="layer"
     id="layer1"
     transform="translate(0,-290.64998)">
    <path
       style="fill:#000000;stroke-width:0.99999988"
       d="m 0.04584936,294.50936 c -0.07053636,-0.078 -0.06857641,-0.0839 0.06902739,-0.21211 0.0778937,-0.0727 0.15080309,-0.15921 0.1620204,-0.19253 0.0112172,-0.0334 -0.045391,-0.17881 -0.12579747,-0.32325 -0.13929657,-0.25025 -0.14619309,-0.28076 -0.14619309,-0.64651 0,-0.34939 0.01068934,-0.40315 0.11905305,-0.59878 0.14424277,-0.26038 0.37548489,-0.47848 0.43947293,-0.41448 0.0822847,0.0823 0.13200479,0.043 0.23903845,-0.18882 0.16758237,-0.36296 0.31213098,-0.51256 0.49664968,-0.51398 0.1444781,-0.001 0.1568714,-0.0113 0.2112622,-0.17423 0.032105,-0.0961 0.1459955,-0.26675 0.2563053,-0.38387 l 0.1985248,-0.21082 0.1593607,0.1799 c 0.087648,0.0989 0.1916529,0.23984 0.2311211,0.31314 0.039467,0.0733 0.094874,0.13325 0.1231262,0.13325 0.028251,0 0.1559422,-0.0811 0.283757,-0.18023 0.3229239,-0.25043 0.5957324,-0.33372 1.0156396,-0.31006 0.09356,0.004 0.095779,0.0133 0.076783,0.27881 -0.023923,0.33438 -0.1334116,0.59275 -0.351353,0.82919 -0.090873,0.0986 -0.1652256,0.1994 -0.1652256,0.22401 0,0.0246 0.095459,0.10733 0.2121329,0.18391 0.1166728,0.0766 0.2634249,0.18188 0.3261156,0.23408 l 0.1139833,0.0949 -0.154389,0.15655 c -0.084915,0.0862 -0.2543944,0.20253 -0.3766235,0.2587 -0.2520808,0.1158 -0.2921168,0.15762 -0.2415665,0.25206 0.046007,0.0861 -0.1885094,0.31906 -0.4453397,0.44261 -0.3063022,0.14738 -0.3037438,0.14498 -0.2911338,0.27238 0.00953,0.0962 -0.0185,0.14707 -0.1395782,0.25337 -0.08332,0.0732 -0.2496364,0.17794 -0.3695921,0.23288 -0.1913582,0.0876 -0.2597391,0.0975 -0.5576682,0.082 -0.2933081,-0.0155 -0.3782413,-0.0381 -0.62346317,-0.16613 l -0.28389618,-0.14829 -0.17495384,0.16127 c -0.0962245,0.0887 -0.18373949,0.16127 -0.19447751,0.16127 -0.0107363,0 -0.0521927,-0.0359 -0.09212136,-0.0803 z m 1.86872944,-0.24558 c 0.094712,-0.0408 0.1841418,-0.10516 0.1987322,-0.14327 0.064876,-0.16905 -0.4855061,-0.41073 -0.8283711,-0.36374 -0.2358864,0.0325 -0.53251782,0.20413 -0.53251782,0.30843 0,0.1558 0.52795612,0.33792 0.84853132,0.29268 0.077781,-0.0114 0.2189132,-0.0533 0.3136254,-0.094 z m -1.21323775,-0.61086 c 0.0959529,-0.14515 0.11152629,-0.20918 0.11052582,-0.45456 -0.001479,-0.36229 -0.14616094,-0.68969 -0.30478666,-0.68969 -0.21956467,0 -0.36329215,0.61357 -0.23284443,0.99403 0.12411066,0.36196 0.25637252,0.40848 0.42710527,0.15022 z m 1.74833855,-0.037 c 0.2349594,-0.0504 0.4298971,-0.19332 0.3933956,-0.28845 -0.046665,-0.12162 -0.4519777,-0.28151 -0.7135711,-0.28151 -0.259338,0 -0.5394454,0.11834 -0.6258944,0.26439 -0.053094,0.0899 0.043477,0.16972 0.3348331,0.2774 0.2218894,0.082 0.3357291,0.0872 0.6112368,0.0282 z m -1.0934703,-0.5687 c 0.2198979,-0.23604 0.2599309,-0.69715 0.089524,-1.03119 -0.1625872,-0.3187 -0.2683737,-0.32628 -0.4120207,-0.0297 -0.15298833,0.31603 -0.11220682,0.7245 0.1055757,1.05744 0.074178,0.1134 0.1137573,0.11403 0.2169217,0.004 z m 2.0125172,-0.21394 c 0.2233548,-0.10399 0.2580173,-0.17094 0.1414217,-0.27318 -0.3110645,-0.27273 -0.8525268,-0.30154 -1.1919841,-0.0634 -0.1744772,0.12238 -0.1429112,0.20795 0.121219,0.3285 0.31141,0.14216 0.6352913,0.14494 0.9293436,0.007 z m -1.1890714,-0.66809 c 0.093836,-0.18287 0.1113686,-0.26158 0.099002,-0.44445 -0.01633,-0.24147 -0.1662903,-0.58906 -0.2805124,-0.65019 -0.099951,-0.0534 -0.2241085,0.0933 -0.30012,0.35473 -0.071971,0.24757 -0.033184,0.54994 0.1053893,0.82157 0.1191357,0.23353 0.2264741,0.21023 0.3762419,-0.0817 z m 0.8153137,-0.19994 c 0.2394481,-0.10389 0.4052873,-0.26134 0.5221394,-0.49584 0.1913939,-0.38407 0.1234794,-0.51337 -0.2166069,-0.41239 -0.3581009,0.10644 -0.7398998,0.54657 -0.7398998,0.85312 0,0.18724 0.1003409,0.19997 0.4343673,0.0551 z"
       id="path7219"
       inkscape:connector-curvature="0" />
    <path
       style="fill:#000000;stroke-width:1"
       d="m 1.7447878,295.94036 c 0.045855,-0.0339 0.1006869,-0.0591 0.1217726,-0.0559 0.036257,0.005 0.1290298,0.08 0.2546866,0.20487 0.054308,0.0538 0.064066,0.0483 0.2893948,-0.16585 0.1282628,-0.12195 0.2341546,-0.22802 0.2353206,-0.23586 9.389e-4,-0.006 -0.1022529,-0.12641 -0.2298389,-0.26336 -0.1275755,-0.13701 -0.2368859,-0.27133 -0.2429178,-0.29846 -0.020274,-0.0911 0.00856,-0.183 0.070402,-0.22423 0.067253,-0.0447 0.2374462,-0.0326 0.2594315,0.0186 0.00763,0.0176 0.036265,0.0488 0.063697,0.0692 0.043579,0.0325 0.1872697,-0.0985 1.1368056,-1.03609 0.6320035,-0.62404 1.1196713,-1.08258 1.1652101,-1.09568 0.072981,-0.0209 0.1520957,-0.008 0.5933816,0.0986 l 0.1502722,0.0362 0.3425533,-0.31943 c 0.5188572,-0.48383 0.5228988,-0.47779 0.033984,0.0509 l -0.3137396,0.33915 0.054282,0.32464 c 0.029852,0.17855 0.048256,0.36511 0.040897,0.41452 -0.010717,0.072 -0.2331773,0.30697 -1.1109612,1.17397 l -1.0975694,1.08406 0.072152,0.0891 c 0.1025447,0.12641 0.110151,0.21547 0.025524,0.29981 -0.1262325,0.1259 -0.2159948,0.0904 -0.4703578,-0.18612 -0.1247047,-0.13556 -0.2389782,-0.2483 -0.2539588,-0.25053 -0.023077,-0.004 -0.3525114,0.30415 -0.4413341,0.41211 -0.019017,0.0232 0.011112,0.0849 0.088175,0.18164 0.1295798,0.16256 0.1350698,0.2336 0.025927,0.33656 -0.1228544,0.11584 -0.1873308,0.0785 -0.5615247,-0.32585 -0.1900316,-0.20532 -0.359072,-0.39647 -0.3756541,-0.42473 -0.047464,-0.0809 -0.016856,-0.18521 0.074045,-0.25255 z m 1.6134739,-0.0758 c 0.00647,9.6e-4 0.031614,0.0115 0.054535,0.0256 0.030596,0.0175 0.3342972,-0.26462 1.1087147,-1.02932 0.5865839,-0.57924 1.0699087,-1.07587 1.0740377,-1.10358 0.00412,-0.0277 -0.012297,-0.16808 -0.036562,-0.31187 -0.051866,-0.30785 -0.06302,-0.31771 -0.4186696,-0.37068 -0.2047842,-0.0305 -0.2548637,-0.0289 -0.305455,0.0131 -0.033179,0.0271 -0.054908,0.0624 -0.048178,0.0784 0.0067,0.0161 0.101129,0.12221 0.2096749,0.23693 0.1870314,0.1974 0.2231725,0.26394 0.1584402,0.29175 -0.015567,0.006 -0.1233883,-0.0919 -0.2395887,-0.21914 -0.2226198,-0.24376 -0.2515461,-0.25356 -0.351342,-0.1194 -0.030954,0.0417 -0.00387,0.0838 0.1731389,0.27025 0.1154151,0.12144 0.2074519,0.23679 0.2045603,0.2562 -0.012717,0.0854 -0.076923,0.0457 -0.2731067,-0.16745 -0.1152481,-0.12526 -0.2159517,-0.22873 -0.223782,-0.2299 -0.0081,-0.001 -0.048129,0.033 -0.089651,0.0762 l -0.075402,0.0784 0.2032737,0.21693 c 0.1118114,0.11915 0.2047997,0.23459 0.2066633,0.25614 0.0086,0.0989 -0.075141,0.0476 -0.2727854,-0.16727 l -0.2143087,-0.23299 -0.06513,0.0627 c -0.035862,0.0347 -0.066856,0.0726 -0.068968,0.084 -0.00224,0.0127 0.1222121,0.1574 0.2762448,0.324 0.1540505,0.16654 0.2820043,0.31196 0.2843527,0.32315 0.00255,0.0102 -0.2808487,0.29771 -0.6293242,0.63678 -0.5392686,0.52472 -0.7055582,0.71164 -0.641523,0.72117 z"
       id="path825"
       inkscape:connector-curvature="0" />
  </g>
</svg>
