<?xml version="1.0" encoding="UTF-8" standalone="no"?>
<svg
   xmlns:dc="http://purl.org/dc/elements/1.1/"
   xmlns:cc="http://creativecommons.org/ns#"
   xmlns:rdf="http://www.w3.org/1999/02/22-rdf-syntax-ns#"
   xmlns:svg="http://www.w3.org/2000/svg"
   xmlns="http://www.w3.org/2000/svg"
   xmlns:sodipodi="http://sodipodi.sourceforge.net/DTD/sodipodi-0.dtd"
   xmlns:inkscape="http://www.inkscape.org/namespaces/inkscape"
   id="svg6582"
   version="1.1"
   viewBox="0 0 6.3499999 6.3500002"
   height="24"
   width="24"
   sodipodi:docname="ic_ins_orig.svg"
   inkscape:version="0.92.2 (5c3e80d, 2017-08-06)">
  <sodipodi:namedview
     pagecolor="#ffffff"
     bordercolor="#666666"
     borderopacity="1"
     objecttolerance="10"
     gridtolerance="10"
     guidetolerance="10"
     inkscape:pageopacity="0"
     inkscape:pageshadow="2"
     inkscape:window-width="1301"
     inkscape:window-height="764"
     id="namedview7"
     showgrid="false"
     inkscape:zoom="4.9166667"
     inkscape:cx="-24.10281"
     inkscape:cy="-2.764539"
     inkscape:window-x="0"
     inkscape:window-y="0"
     inkscape:window-maximized="0"
     inkscape:current-layer="svg6582" />
  <defs
     id="defs6576" />
  <metadata
     id="metadata6579">
    <rdf:RDF>
      <cc:Work
         rdf:about="">
        <dc:format>image/svg+xml</dc:format>
        <dc:type
           rdf:resource="http://purl.org/dc/dcmitype/StillImage" />
        <dc:title></dc:title>
      </cc:Work>
    </rdf:RDF>
  </metadata>
  <path
     style="fill:#000000;stroke-width:1"
     d="m 5.2032286,5.5871636 c -0.04934,-0.04934 -0.08964,-0.111011 -0.08957,-0.137051 1.52e-4,-0.04479 0.07357,-0.17029 0.201637,-0.344565 0.05534,-0.07532 0.04685,-0.08608 -0.252444,-0.319785 -0.170344,-0.133015 -0.317626,-0.241845 -0.327294,-0.241845 -0.0097,0 -0.134233,0.146285 -0.276812,0.325077 -0.14258,0.178792 -0.285173,0.33503 -0.316874,0.347195 -0.106583,0.0409 -0.222631,0.0226 -0.28355,-0.04472 -0.06622,-0.07318 -0.08206,-0.280988 -0.02413,-0.316785 0.01999,-0.01236 0.05248,-0.05261 0.0722,-0.08944 0.03132,-0.05851 -0.152744,-0.208523 -1.45636,-1.186943 -0.867679,-0.65123 -1.50947501,-1.157865 -1.53346701,-1.210523 -0.03847,-0.08443 -0.03669,-0.182385 0.01334,-0.734653 l 0.01703,-0.188057 -0.447569,-0.356365 c -0.677916,-0.53977105 -0.671352,-0.54573805 0.05517,-0.05015 l 0.46618901,0.318004 0.382456,-0.124018 c 0.210351,-0.06821 0.432408,-0.124018 0.49346,-0.124018 0.08878,0 0.412826,0.226458 1.618266,1.1309 l 1.507261,1.1309 0.09444,-0.1032 c 0.13419,-0.146644 0.240524,-0.171859 0.357656,-0.08481 0.174744,0.129864 0.147971,0.244692 -0.140308,0.601765 -0.141329,0.175055 -0.256962,0.333412 -0.256962,0.351903 0,0.02852 0.430933,0.371143 0.577336,0.459025 0.03126,0.01877 0.100589,-0.02865 0.203562,-0.139225 0.173028,-0.185803 0.257926,-0.205222 0.401944,-0.09194 0.162187,0.127576 0.128598,0.212191 -0.292577,0.737056 -0.21388,0.266535 -0.414377,0.505167 -0.445547,0.530293 -0.08919,0.07189 -0.220737,0.05371 -0.318466,-0.04402 z m -0.38208,-1.935654 c 0,-0.0084 0.0095,-0.04015 0.0212,-0.07054 0.0154,-0.04012 -0.379863,-0.35625 -1.443129,-1.154214 -0.805383,-0.604426 -1.492346,-1.098957 -1.526584,-1.098957 -0.03424,0 -0.200846,0.04514 -0.37024,0.100301 -0.362556,0.118072 -0.37248,0.133324 -0.37248,0.57253 0,0.252909 0.01163,0.313126 0.07079,0.36667 0.03893,0.03524 0.08535,0.05506 0.103151,0.04406 0.0178,-0.011 0.12963,-0.144179 0.248515,-0.295954 0.204828,-0.261494 0.278719,-0.31713 0.323961,-0.243927 0.01089,0.01762 -0.08884,0.165617 -0.221625,0.328891 -0.254408,0.312833 -0.261065,0.349543 -0.08088,0.445977 0.05584,0.02989 0.101998,-0.01041 0.295319,-0.257823 0.126023,-0.161285 0.248747,-0.293246 0.27272,-0.293246 0.1052,0 0.06917,0.08472 -0.153163,0.360085 -0.130623,0.161786 -0.237497,0.30207 -0.237497,0.311742 0,0.0097 0.04864,0.05222 0.108097,0.09456 l 0.108096,0.07697 0.225527,-0.284627 c 0.12404,-0.156545 0.246547,-0.28965 0.272238,-0.295788 0.118009,-0.0282 0.07105,0.08224 -0.152949,0.359672 l -0.242907,0.300856 0.08764,0.06738 c 0.0482,0.03706 0.09946,0.06775 0.11391,0.06819 0.01445,4.42e-4 0.168222,-0.175983 0.341718,-0.392066 0.173497,-0.216083 0.326136,-0.396847 0.339198,-0.401698 0.01306,-0.0049 0.410233,0.285716 0.882601,0.645702 0.73098,0.557073 0.986764,0.72433 0.986764,0.645245 z"
     id="path825"
     inkscape:connector-curvature="0" />
</svg>
