<?xml version="1.0" encoding="utf-8"?>
<!-- Generator: Adobe Illustrator 17.0.0, SVG Export Plug-In . SVG Version: 6.00 Build 0)  -->
<!DOCTYPE svg PUBLIC "-//W3C//DTD SVG 1.1//EN" "http://www.w3.org/Graphics/SVG/1.1/DTD/svg11.dtd">
<svg version="1.1" xmlns="http://www.w3.org/2000/svg" xmlns:xlink="http://www.w3.org/1999/xlink" x="0px" y="0px" width="24px"
	 height="24px" viewBox="0 0 24 24" enable-background="new 0 0 24 24" xml:space="preserve">
<g id="actions_x5F_cancelextbolus">
	<path fill="none" d="M0,0h24v24H0V0z"/>
	<g>
		<path fill="#FEAF05" d="M20.164,7.697l0.353-0.684c0.18-0.348,0.043-0.775-0.305-0.955c-0.351-0.181-0.775-0.043-0.955,0.305
			l-0.354,0.685c-0.379-0.148-0.772-0.265-1.18-0.344V6.106c0.45-0.061,0.802-0.431,0.802-0.897c0-0.509-0.412-0.921-0.921-0.921
			h-2.312c-0.509,0-0.921,0.413-0.921,0.921c0,0.467,0.352,0.836,0.802,0.897v0.598c-3.125,0.599-5.495,3.349-5.495,6.646
			c0,3.732,3.037,6.77,6.77,6.77c3.732,0,6.77-3.037,6.77-6.77C23.218,10.989,22.001,8.909,20.164,7.697z M16.448,19.119
			c-3.182,0-5.77-2.588-5.77-5.77s2.588-5.77,5.77-5.77s5.77,2.588,5.77,5.77S19.63,19.119,16.448,19.119z"/>
		<path fill="#FEAF05" d="M16.45,8.814c-0.086,0-0.169,0.035-0.23,0.096s-0.096,0.144-0.096,0.23v4.198
			c0,0.08,0.029,0.157,0.083,0.217l2.789,3.14c0.058,0.064,0.139,0.104,0.226,0.108c0.006,0.001,0.013,0.001,0.019,0.001
			c0.08,0,0.157-0.029,0.217-0.083c0.971-0.866,1.527-2.095,1.527-3.372C20.983,10.85,18.95,8.816,16.45,8.814z"/>
	</g>
	<polygon fill="#FEAF05" points="4.729,9.857 2.383,12.203 1.65,11.47 3.996,9.124 1.65,6.778 2.383,6.045 4.729,8.391 7.075,6.045 
		7.808,6.778 5.463,9.124 7.808,11.47 7.075,12.203 	"/>
</g>
</svg>
