<?xml version="1.0" encoding="utf-8"?>
<svg version="1.1" xmlns="http://www.w3.org/2000/svg" xmlns:xlink="http://www.w3.org/1999/xlink" x="0px" y="0px" width="24px"
    height="24px" viewBox="0 0 24 24" enable-background="new 0 0 24 24" xml:space="preserve">
<g id="actions_temptarget">
    <path fill="#67E86A" d="M7.243,17.761c-0.006,0-0.013,0-0.019,0c-0.729-0.014-1.377-0.85-1.776-2.293
        c-0.283-1.024-0.54-2.094-0.788-3.127c-0.158-0.655-0.315-1.311-0.48-1.96L4.071,9.948C3.708,8.483,3.333,6.967,2.382,6.802
        C2.228,6.775,2.125,6.628,2.151,6.475C2.178,6.32,2.328,6.217,2.479,6.244C3.793,6.472,4.214,8.17,4.622,9.812l0.107,0.429
        c0.166,0.651,0.324,1.31,0.481,1.967c0.248,1.029,0.503,2.094,0.784,3.109c0.356,1.287,0.879,1.869,1.24,1.876
        c0.002,0,0.005,0,0.007,0c0.404,0,0.853-0.654,1.201-1.754c0.187-0.589,0.348-1.227,0.503-1.842l0.124-0.488
        c0.138-0.539,0.269-1.085,0.4-1.632c0.266-1.112,0.542-2.261,0.877-3.327c0.383-1.214,0.962-1.886,1.633-1.892
        c0.678-0.007,1.271,0.662,1.678,1.88c0.277,0.828,0.511,1.719,0.736,2.581l0.183,0.692c0.146,0.548,0.285,1.103,0.425,1.656
        c0.241,0.962,0.491,1.955,0.771,2.893c0.219,0.729,0.593,1.212,0.953,1.23c0.33,0.007,0.672-0.348,0.942-0.998
        c0.27-0.648,0.523-1.425,0.756-2.309c0.336-1.275,0.654-2.567,0.973-3.859l0.431-1.743c0.288-1.152,0.834-1.818,1.67-2.034
        c0.156-0.04,0.307,0.052,0.346,0.204c0.039,0.151-0.052,0.306-0.203,0.345c-0.394,0.102-0.952,0.38-1.262,1.623l-0.432,1.741
        c-0.318,1.295-0.638,2.59-0.974,3.868c-0.239,0.908-0.502,1.71-0.781,2.382c-0.505,1.214-1.174,1.366-1.495,1.346
        c-0.621-0.031-1.17-0.643-1.467-1.634c-0.284-0.949-0.535-1.949-0.778-2.916c-0.139-0.552-0.277-1.104-0.423-1.649l-0.183-0.695
        c-0.224-0.853-0.455-1.734-0.726-2.544c-0.368-1.101-0.826-1.493-1.133-1.493c-0.001,0-0.002,0-0.003,0
        c-0.387,0.003-0.807,0.576-1.097,1.495c-0.33,1.047-0.603,2.187-0.867,3.289c-0.131,0.549-0.263,1.099-0.402,1.641l-0.124,0.486
        c-0.158,0.624-0.321,1.269-0.513,1.875C8.531,17.038,7.945,17.761,7.243,17.761z"/>
    <path fill="#67E86A" d="M21.569,12.709H2.431c-0.392,0-0.708-0.317-0.708-0.709s0.317-0.708,0.708-0.708h19.139
		c0.392,0,0.709,0.317,0.709,0.708S21.961,12.709,21.569,12.709z"/>
</g>
</svg>
