<?xml version="1.0" encoding="utf-8"?>
<svg version="1.1" xmlns="http://www.w3.org/2000/svg" xmlns:xlink="http://www.w3.org/1999/xlink" x="0px" y="0px" width="24px"
	 height="24px" viewBox="0 0 24 24" enable-background="new 0 0 24 24" xml:space="preserve">
<g id="actions_x5F_temptarget">
	<path fill="#36FF00" d="M18.71,11.606h-0.736c-0.198-3.001-2.579-5.382-5.58-5.58V5.29c0-0.218-0.177-0.394-0.394-0.394
		s-0.394,0.177-0.394,0.394v0.736c-3.001,0.198-5.382,2.579-5.58,5.58H5.29c-0.218,0-0.394,0.177-0.394,0.394
		s0.177,0.394,0.394,0.394h0.736c0.198,3.001,2.579,5.382,5.58,5.58v0.736c0,0.217,0.177,0.394,0.394,0.394s0.394-0.177,0.394-0.394
		v-0.736c3.001-0.198,5.382-2.579,5.58-5.58h0.736c0.217,0,0.394-0.177,0.394-0.394S18.927,11.606,18.71,11.606z M17.143,11.606
		h-1.944c-0.179-1.478-1.331-2.643-2.804-2.841V6.85C14.939,7.044,16.953,9.06,17.143,11.606z M13.542,12.394h0.938
		c-0.171,1.079-1.01,1.93-2.085,2.115v-0.967c0-0.217-0.177-0.394-0.394-0.394s-0.394,0.177-0.394,0.394v0.975
		c-1.111-0.156-1.988-1.017-2.163-2.122h1.016c0.218,0,0.394-0.177,0.394-0.394s-0.177-0.394-0.394-0.394H9.442
		c0.171-1.111,1.049-1.978,2.164-2.134v0.987c0,0.218,0.177,0.394,0.394,0.394s0.394-0.177,0.394-0.394v-0.98
		c1.079,0.185,1.92,1.041,2.086,2.126h-0.939c-0.217,0-0.394,0.177-0.394,0.394S13.324,12.394,13.542,12.394z M11.606,6.851v1.906
		C10.095,8.921,8.903,10.1,8.72,11.606H6.864C7.053,9.062,9.064,7.047,11.606,6.851z M6.866,12.394H8.72
		c0.183,1.505,1.374,2.684,2.885,2.849v1.884C9.071,16.931,7.065,14.928,6.866,12.394z M12.394,17.128v-1.893
		c1.473-0.197,2.625-1.362,2.804-2.841h1.942C16.941,14.93,14.932,16.935,12.394,17.128z"/>
</g>
</svg>
