<?xml version="1.0" encoding="utf-8"?>
<svg version="1.1" xmlns="http://www.w3.org/2000/svg" xmlns:xlink="http://www.w3.org/1999/xlink" x="0px" y="0px" width="24px"
	 height="24px" viewBox="0 0 24 24" enable-background="new 0 0 24 24" xml:space="preserve">
<g id="add">
	<path display="none" fill="none" d="M0,0h24v24H0V0z"/>
	<path fill="#00C03E" d="M22.5,8.784h-7.283V1.5c0-0.313-0.254-0.567-0.567-0.567H9.351c-0.313,0-0.567,0.254-0.567,0.567v7.284H1.5
		c-0.313,0-0.567,0.254-0.567,0.567v5.299c0,0.313,0.254,0.567,0.567,0.567h7.284V22.5c0,0.313,0.254,0.567,0.567,0.567h5.299
		c0.313,0,0.567-0.254,0.567-0.567v-7.283H22.5c0.313,0,0.567-0.254,0.567-0.567V9.351C23.067,9.038,22.813,8.784,22.5,8.784z"/>
</g>
</svg>
