<?xml version="1.0" encoding="utf-8"?>
<!-- Generator: Adobe Illustrator 17.0.0, SVG Export Plug-In . SVG Version: 6.00 Build 0)  -->
<!DOCTYPE svg PUBLIC "-//W3C//DTD SVG 1.1//EN" "http://www.w3.org/Graphics/SVG/1.1/DTD/svg11.dtd">
<svg version="1.1" xmlns="http://www.w3.org/2000/svg" xmlns:xlink="http://www.w3.org/1999/xlink" x="0px" y="0px" width="24px"
	 height="24px" viewBox="0 0 24 24" enable-background="new 0 0 24 24" xml:space="preserve">
<g id="x_x5F_swap_x5F_vert" display="none">
	<path display="inline" d="M19.375,17.01V10h-2v7.01h-3l4,3.99l4-3.99H19.375z M12.375,3l-4,3.99h3V14h2V6.99h3L12.375,3z"/>
	<polygon display="inline" points="5.437,12.733 3.092,15.079 2.358,14.346 4.704,12 2.358,9.654 3.092,8.921 5.437,11.267 
		7.783,8.921 8.517,9.654 6.171,12 8.517,14.346 7.783,15.079 	"/>
	<path display="inline" fill="none" d="M0,0h24v24H0V0z"/>
</g>
<g id="cp_x5F_basal_x5F_tbr_x5F_low" display="none">
	<path display="inline" fill="none" d="M0,0h24v24H0V0z"/>
	<polygon display="inline" fill="#CF8BFE" points="17.438,17.854 12.021,17.854 12.021,6.813 3.667,6.813 3.667,6.104 12.729,6.104 
		12.729,17.146 16.729,17.146 16.729,6.104 19.083,6.104 19.083,6.813 17.438,6.813 	"/>
</g>
<g id="cp_x5F_basal_x5F_tbr_x5F_high" display="none">
	<path display="inline" fill="none" d="M0,0h24v24H0V0z"/>
	<polygon display="inline" fill="#CF8BFE" points="19.083,17.896 16.729,17.896 16.729,6.854 12.729,6.854 12.729,17.896 
		3.667,17.896 3.667,17.188 12.021,17.188 12.021,6.146 17.438,6.146 17.438,17.188 19.083,17.188 	"/>
</g>
<g id="cp_x5F_basal_x5F_no_x5F_tbr" display="none">
	<path display="inline" fill="none" d="M0,0.021h24v24H0V0.021z"/>
	<rect x="3.667" y="11.646" display="inline" fill="#CF8BFE" width="15.417" height="0.709"/>
</g>
<g id="Layer_5">
	<path fill="#67DFE8" d="M18.501,12.002l-0.428,0.564L8.179,5.064c-0.092-0.07-0.212-0.09-0.323-0.055L5.115,5.89L1.571,3.501
		L4.755,6.36L4.647,9.243c-0.004,0.116,0.047,0.226,0.14,0.296l9.895,7.502l-0.428,0.564c-0.26,0.343-0.193,0.832,0.15,1.092
		s0.832,0.193,1.092-0.15l1.653-2.18l2.219,1.683l-0.719,0.948c-0.26,0.343-0.193,0.832,0.15,1.092
		c0.343,0.26,0.832,0.193,1.092-0.15l2.379-3.138c0.26-0.343,0.193-0.832-0.15-1.092c-0.343-0.26-0.832-0.193-1.092,0.15
		l-0.719,0.948l-2.219-1.683l1.653-2.18c0.26-0.343,0.193-0.832-0.15-1.092S18.762,11.659,18.501,12.002z M5.458,6.524l2.44-0.783
		l9.748,7.39L17.26,13.64l-5.754-4.362c-0.091-0.069-0.221-0.053-0.293,0.035L9.087,11.91l-0.67-0.508l1.526-1.833
		c0.002-0.002,0.004-0.005,0.006-0.008c0.068-0.09,0.054-0.219-0.033-0.291c-0.09-0.075-0.224-0.063-0.299,0.027l-1.538,1.848
		l-0.769-0.583l1.526-1.833c0.002-0.002,0.004-0.005,0.006-0.008c0.068-0.09,0.054-0.219-0.033-0.291
		c-0.09-0.075-0.224-0.063-0.299,0.027L6.97,10.305L6.201,9.721l1.526-1.833C7.728,7.886,7.731,7.882,7.732,7.88
		c0.068-0.09,0.054-0.219-0.033-0.291C7.609,7.513,7.475,7.526,7.4,7.616L5.861,9.464L5.362,9.085L5.458,6.524z"/>
	<path fill="none" d="M0,0h24v24H0V0z"/>
</g>
</svg>
