<?xml version="1.0" encoding="utf-8"?>
<svg version="1.1" xmlns="http://www.w3.org/2000/svg" xmlns:xlink="http://www.w3.org/1999/xlink" x="0px" y="0px" width="24px"
	 height="24px" viewBox="0 0 24 24" enable-background="new 0 0 24 24" xml:space="preserve">
<g id="Layer_51">
	<g>
		<circle fill="#E93057" cx="12" cy="17.813" r="1.5"/>
		<path fill="#E93057" d="M19.357,6.125c0.195-0.196,0.195-0.512,0-0.708c-0.195-0.195-0.512-0.195-0.707,0l-2.364,2.364
			C14.916,7.314,13.477,7.062,12,7.062c-2.902,0-5.674,0.925-8.015,2.675c-0.222,0.166-0.267,0.479-0.102,0.7
			c0.166,0.222,0.479,0.266,0.7,0.102C6.751,8.919,9.315,8.063,12,8.063c1.198,0,2.369,0.177,3.493,0.512l-1.829,1.829
			c-0.547-0.093-1.1-0.154-1.663-0.154c-2.212,0-4.325,0.705-6.111,2.039c-0.222,0.166-0.267,0.479-0.102,0.701
			c0.166,0.221,0.478,0.267,0.7,0.101C8.099,11.887,10.005,11.25,12,11.25c0.26,0,0.516,0.022,0.773,0.044l-2.215,2.215
			c-1.012,0.201-1.989,0.596-2.839,1.231c-0.222,0.165-0.267,0.479-0.102,0.7c0.166,0.22,0.479,0.268,0.7,0.101
			c0.192-0.143,0.392-0.271,0.597-0.389l-2.618,2.618c-0.195,0.195-0.195,0.512,0,0.707c0.098,0.098,0.226,0.146,0.354,0.146
			s0.256-0.049,0.354-0.146L19.357,6.125z"/>
		<path fill="#E93057" d="M20.016,9.737c-0.562-0.42-1.15-0.789-1.757-1.113L17.513,9.37c0.66,0.331,1.299,0.717,1.903,1.169
			c0.09,0.067,0.195,0.1,0.3,0.1c0.152,0,0.303-0.069,0.4-0.201C20.282,10.216,20.236,9.902,20.016,9.737z"/>
		<path fill="#E93057" d="M15.867,11.016l-0.776,0.776c0.856,0.307,1.671,0.739,2.421,1.298c0.09,0.067,0.195,0.1,0.3,0.1
			c0.152,0,0.303-0.069,0.4-0.2c0.166-0.222,0.12-0.535-0.101-0.701C17.409,11.764,16.656,11.341,15.867,11.016z"/>
		<path fill="#E93057" d="M13.394,13.489l-0.887,0.887c1.13,0.091,2.24,0.467,3.176,1.166c0.09,0.067,0.195,0.1,0.3,0.1
			c0.152,0,0.303-0.069,0.4-0.2c0.166-0.222,0.12-0.535-0.101-0.7C15.418,14.095,14.424,13.688,13.394,13.489z"/>
	</g>
</g>
</svg>
