<?xml version="1.0" encoding="utf-8"?>
<svg version="1.1" xmlns="http://www.w3.org/2000/svg" xmlns:xlink="http://www.w3.org/1999/xlink" x="0px" y="0px" width="24px"
	 height="24px" viewBox="0 0 24 24" enable-background="new 0 0 24 24" xml:space="preserve">
<g id="cp_x5F_age_x5F_canula">
	<path opacity="0.5" fill="#FFFFFF" d="M20.951,10.458h-1.99c-0.054-0.733-0.659-1.313-1.406-1.313h-2.354
		c-0.747,0-1.352,0.58-1.406,1.313h-1.99c-0.388,0-0.696,0.27-0.771,0.622c-1.32-0.021-2.226-0.555-2.936-0.999
		c-0.7-0.437-1.304-0.814-2.005-0.434c-1.202,0.654-0.843,2.024-0.554,3.126c0.192,0.731,0.39,1.489,0.098,1.836
		c-0.603,0.718-2.212,0.276-2.781,0.045c-0.143-0.057-0.31,0.011-0.369,0.156c-0.059,0.146,0.011,0.311,0.156,0.369
		c0.061,0.024,0.971,0.388,1.893,0.388c0.574,0,1.153-0.142,1.534-0.593c0.482-0.571,0.256-1.433,0.017-2.345
		c-0.323-1.234-0.479-2.074,0.276-2.485c0.392-0.213,0.762-0.003,1.434,0.417c0.755,0.471,1.766,1.123,3.359,1.096
		C11.301,11.859,11.531,12,11.806,12h4.406v5.771l0.333-0.854V12h4.406c0.443,0,0.802-0.345,0.802-0.771
		S21.394,10.458,20.951,10.458z"/>
</g>
</svg>
