<?xml version="1.0" encoding="utf-8"?>
<svg version="1.1" xmlns="http://www.w3.org/2000/svg" xmlns:xlink="http://www.w3.org/1999/xlink" x="0px" y="0px" width="24px"
	 height="24px" viewBox="0 0 24 24" enable-background="new 0 0 24 24" xml:space="preserve">
<g id="cp_x5F_age_x5F_sensor">
		<path opacity="0.5" fill="#FFFFFF" d="M13.568,13.328c0.673,0,1.219-0.546,1.219-1.219s-0.546-1.219-1.219-1.219
			c-0.493,0-0.913,0.296-1.105,0.718h-1.603L9.464,8.126c-0.078-0.195-0.246-0.309-0.48-0.314c-0.21,0.006-0.394,0.144-0.459,0.343
			l-2.16,6.53l-1.131-2.751c-0.077-0.188-0.26-0.31-0.463-0.31h-2c-0.276,0-0.5,0.224-0.5,0.5s0.224,0.5,0.5,0.5h1.665l1.518,3.69
			c0.078,0.188,0.261,0.31,0.463,0.31c0.006,0,0.012,0,0.018,0c0.209-0.008,0.392-0.145,0.458-0.343L9.045,9.77l1.012,2.525
			c0.076,0.19,0.26,0.314,0.464,0.314h1.941C12.654,13.031,13.074,13.328,13.568,13.328z"/>
		<path opacity="0.5" fill="#FFFFFF" d="M13.567,15.055c-0.276,0-0.5,0.224-0.5,0.5s0.224,0.5,0.5,0.5
			c2.176,0,3.945-1.77,3.945-3.945s-1.77-3.946-3.945-3.946c-0.276,0-0.5,0.224-0.5,0.5s0.224,0.5,0.5,0.5
			c1.624,0,2.945,1.321,2.945,2.945S15.191,15.055,13.567,15.055z"/>
		<path opacity="0.5" fill="#FFFFFF" d="M13.567,5.14c-0.276,0-0.5,0.224-0.5,0.5s0.224,0.5,0.5,0.5
			c3.291,0,5.969,2.677,5.969,5.968s-2.678,5.969-5.969,5.969c-0.276,0-0.5,0.224-0.5,0.5s0.224,0.5,0.5,0.5
			c3.843,0,6.969-3.126,6.969-6.969S17.41,5.14,13.567,5.14z"/>
</g>
</svg>
