<?xml version="1.0" encoding="utf-8"?>
<svg version="1.1" xmlns="http://www.w3.org/2000/svg" xmlns:xlink="http://www.w3.org/1999/xlink" x="0px" y="0px" width="24px"
	 height="24px" viewBox="0 0 24 24" enable-background="new 0 0 24 24" xml:space="preserve">
<g id="cp_x5F_bolus_x5F_meal">
    <path fill="#FEAF05" d="M20.528,15.994h-0.547c-0.244-3.433-2.748-6.265-6.013-7.017c-0.095-0.871-0.825-1.553-1.721-1.553
        c-0.895,0-1.627,0.683-1.721,1.553c-3.264,0.752-5.768,3.584-6.013,7.017H3.966c-0.235,0-0.425,0.19-0.425,0.425
        s0.19,0.425,0.425,0.425h16.562c0.234,0,0.425-0.19,0.425-0.425S20.763,15.994,20.528,15.994z M12.248,8.076
        c0.489,0,0.888,0.33,1.024,0.776c-0.336-0.045-0.677-0.077-1.024-0.077c-0.348,0-0.688,0.032-1.025,0.077
        C11.359,8.407,11.758,8.076,12.248,8.076z M12.248,9.625c3.603,0,6.599,2.82,6.883,6.369H5.365
        C5.649,12.445,8.645,9.625,12.248,9.625z"/>
    <path fill="#FEAF05" d="M14.495,10.781c-0.625-0.288-1.503-0.485-2.409-0.541c-0.234-0.014-0.436,0.164-0.45,0.399
        c-0.014,0.234,0.164,0.436,0.399,0.45c0.792,0.048,1.579,0.222,2.104,0.464c0.049,0.023,0.101,0.035,0.152,0.038
        c0.17,0.01,0.337-0.083,0.412-0.246C14.801,11.133,14.708,10.88,14.495,10.781z"/>
    <path fill="#FEAF05" d="M6.657,15.362c-0.031,0.001-0.065-0.003-0.101-0.012c-0.2-0.05-0.323-0.254-0.273-0.454
        c0.457-1.834,1.769-3.395,3.51-4.178c0.045-0.02,0.094-0.031,0.144-0.033c0.152-0.004,0.29,0.083,0.352,0.221
        c0.041,0.092,0.045,0.194,0.009,0.287c-0.036,0.094-0.106,0.168-0.197,0.208c-1.534,0.69-2.689,2.063-3.09,3.674
        C6.971,15.241,6.825,15.358,6.657,15.362z"/>
</g>
</svg>
