<?xml version="1.0" encoding="utf-8"?>
<svg version="1.1" xmlns="http://www.w3.org/2000/svg" xmlns:xlink="http://www.w3.org/1999/xlink" x="0px" y="0px" width="24px"
	 height="24px" viewBox="0 0 24 24" enable-background="new 0 0 24 24" xml:space="preserve">
<g id="cp_x5F_basal_x5F_end">
	<g>
		<path fill="#CF8BFE" d="M3.923,12.021c-0.128,0-0.256-0.049-0.354-0.146c-0.195-0.195-0.195-0.512,0-0.707l5.514-5.515
			c0.196-0.195,0.512-0.196,0.708,0c0.195,0.195,0.195,0.512,0,0.708l-5.514,5.514C4.179,11.972,4.051,12.021,3.923,12.021z"/>
		<path fill="#CF8BFE" d="M9.438,12.021c-0.128,0-0.256-0.049-0.354-0.146L3.569,6.361c-0.196-0.196-0.196-0.512,0-0.708
			c0.195-0.196,0.512-0.196,0.708,0l5.514,5.515c0.196,0.195,0.196,0.512,0,0.707C9.694,11.972,9.566,12.021,9.438,12.021z"/>
	</g>
	<polygon fill="#CF8BFE" points="16.578,18.026 16.578,6.984 12.88,6.984 12.88,18.026 3.517,18.026 3.517,17.016 11.871,17.016 
		11.871,5.975 17.588,5.975 17.588,17.016 19.233,17.016 19.233,18.026 	"/>
</g>
</svg>
