<?xml version="1.0" encoding="utf-8"?>
<svg version="1.1" xmlns="http://www.w3.org/2000/svg" xmlns:xlink="http://www.w3.org/1999/xlink" x="0px" y="0px" width="24px"
	 height="24px" viewBox="0 0 24 24" enable-background="new 0 0 24 24" xml:space="preserve">
<g id="cp_x5F_cgm_x5F_target">
	<path fill="#36FF00" d="M18.031,11.646H17.37c-0.178-2.697-2.318-4.837-5.015-5.015V5.969c0-0.196-0.159-0.354-0.354-0.354
		s-0.354,0.159-0.354,0.354V6.63C8.948,6.808,6.808,8.948,6.63,11.646H5.969c-0.196,0-0.354,0.159-0.354,0.354
		s0.159,0.354,0.354,0.354H6.63c0.178,2.697,2.318,4.837,5.015,5.015v0.662c0,0.195,0.159,0.354,0.354,0.354
		s0.354-0.159,0.354-0.354V17.37c2.697-0.178,4.837-2.318,5.015-5.015h0.662c0.195,0,0.354-0.159,0.354-0.354
		S18.227,11.646,18.031,11.646z M16.622,11.646h-1.748c-0.161-1.329-1.197-2.376-2.52-2.553V7.371
		C14.642,7.545,16.452,9.357,16.622,11.646z M13.386,12.354h0.843c-0.154,0.97-0.908,1.735-1.874,1.901v-0.869
		c0-0.195-0.159-0.354-0.354-0.354s-0.354,0.159-0.354,0.354v0.876c-0.999-0.14-1.787-0.914-1.944-1.908h0.913
		c0.196,0,0.354-0.159,0.354-0.354s-0.159-0.354-0.354-0.354H9.701c0.153-0.998,0.943-1.778,1.945-1.918v0.888
		c0,0.196,0.159,0.354,0.354,0.354s0.354-0.159,0.354-0.354v-0.88c0.97,0.166,1.725,0.936,1.875,1.911h-0.844
		c-0.195,0-0.354,0.159-0.354,0.354S13.19,12.354,13.386,12.354z M11.646,7.372v1.713c-1.358,0.148-2.429,1.208-2.593,2.561H7.383
		C7.554,9.359,9.361,7.548,11.646,7.372z M7.385,12.354h1.667c0.164,1.353,1.235,2.413,2.593,2.561v1.693
		C9.367,16.432,7.565,14.632,7.385,12.354z M12.354,16.609v-1.701c1.324-0.177,2.359-1.224,2.52-2.553h1.746
		C16.441,14.633,14.635,16.435,12.354,16.609z"/>
</g>
</svg>
