<?xml version="1.0" encoding="utf-8"?>
<svg version="1.1" xmlns="http://www.w3.org/2000/svg" xmlns:xlink="http://www.w3.org/1999/xlink" x="0px" y="0px" width="24px"
	 height="24px" viewBox="0 0 24 24" enable-background="new 0 0 24 24" xml:space="preserve">
<g id="cp_x5F_cgm_x5F_start">
	<path display="inline" fill="#36FF00" d="M9.955,11.969c-0.154,0-0.306-0.071-0.404-0.205c-0.164-0.223-0.115-0.536,0.107-0.699
		c1.828-1.34,4.354-1.34,6.184-0.001c0.223,0.164,0.271,0.477,0.107,0.699c-0.162,0.224-0.475,0.271-0.699,0.108
		c-1.482-1.086-3.518-1.086-5,0C10.161,11.938,10.057,11.969,9.955,11.969z"/>
	<path display="inline" fill="#36FF00" d="M16.804,10.249c-0.103,0-0.207-0.032-0.296-0.097c-2.205-1.616-5.311-1.616-7.516,0
		c-0.225,0.163-0.536,0.115-0.7-0.108C8.129,9.821,8.177,9.508,8.4,9.344c2.551-1.868,6.149-1.868,8.7,0
		c0.223,0.164,0.271,0.477,0.107,0.7C17.109,10.178,16.957,10.249,16.804,10.249z"/>
	<path display="inline" fill="#36FF00" d="M18.155,8.4c-0.103,0-0.206-0.032-0.296-0.097c-2.998-2.196-7.221-2.196-10.219,0
		C7.417,8.466,7.105,8.418,6.941,8.195C6.778,7.973,6.826,7.66,7.049,7.496c1.671-1.224,3.643-1.872,5.701-1.872
		c2.058,0,4.029,0.647,5.701,1.872c0.223,0.164,0.271,0.477,0.107,0.699C18.461,8.329,18.309,8.4,18.155,8.4z"/>
	<path display="inline" fill="#36FF00" d="M22.44,14.727l-1.772-1.804l-13.37,0.502c-1.522,0.021-2.591,0.907-2.926,1.717
		c-1.247,0.944-2.605,2.549-2.668,3.198c-0.035,0.357,0.038,0.638,0.216,0.834c0.104,0.115,0.292,0.251,0.599,0.251h18.345
		c0.719,0,1.282-0.721,1.282-1.642c0-0.065-0.011-0.137-0.028-0.213c0.221-0.181,0.402-0.429,0.53-0.737
		C22.965,16.067,22.875,15.161,22.44,14.727z M5.398,15.153c0.162-0.194,0.778-0.829,1.923-0.844l12.99-0.488l1.501,1.528
		c0.139,0.139,0.217,0.666,0.019,1.144c-0.146,0.352-0.375,0.531-0.682,0.531h-2.753l-2.385-0.57H13.83
		c-0.459,0-0.699-0.151-0.713-0.449l-0.021-0.421l-7.942,0C5.177,15.492,5.246,15.336,5.398,15.153z M20.865,18.539l-18.284,0
		c-0.002-0.025-0.002-0.059,0.002-0.103c0.061-0.277,0.881-1.363,1.879-2.229C4.61,16.369,4.83,16.465,5.1,16.469h7.216
		c0.201,0.546,0.748,0.87,1.514,0.87h2.078l2.385,0.57h2.857c0.036,0,0.07-0.002,0.105-0.004
		C21.219,18.3,21.016,18.539,20.865,18.539z"/>
</g>
</svg>
