<?xml version="1.0" encoding="utf-8"?>
<svg version="1.1" xmlns="http://www.w3.org/2000/svg" xmlns:xlink="http://www.w3.org/1999/xlink" x="0px" y="0px" width="24px"
	 height="24px" viewBox="0 0 24 24" enable-background="new 0 0 24 24" xml:space="preserve">
<g id="cp_x5F_cgm_x5F_profile">
	<path display="inline" fill="#FFFFFF" d="M19.744,9.7c-0.135-0.417-0.494-0.72-0.928-0.783l-3.997-0.581L13.03,4.714
		c-0.387-0.786-1.675-0.786-2.061,0L9.181,8.336L5.183,8.918C4.751,8.98,4.39,9.284,4.255,9.7c-0.135,0.416-0.023,0.873,0.291,1.178
		l2.894,2.819L6.757,17.68c-0.074,0.432,0.103,0.868,0.457,1.125c0.2,0.146,0.437,0.22,0.676,0.22c0.183,0,0.367-0.044,0.535-0.133
		L12,17.013l3.576,1.879c0.39,0.203,0.855,0.173,1.212-0.087c0.353-0.257,0.531-0.694,0.456-1.125l-0.683-3.983l2.893-2.819
		C19.766,10.573,19.881,10.116,19.744,9.7z M18.689,10.261l-3.16,3.081l0.746,4.35c0.014,0.087-0.021,0.174-0.092,0.225
		c-0.04,0.03-0.087,0.044-0.135,0.044c-0.036,0-0.073-0.008-0.108-0.027l-3.907-2.053l-3.907,2.053
		c-0.075,0.044-0.17,0.036-0.242-0.017c-0.07-0.051-0.106-0.138-0.091-0.225l0.746-4.35l-3.162-3.081
		c-0.063-0.061-0.085-0.153-0.058-0.236c0.027-0.083,0.099-0.143,0.185-0.156l4.369-0.634l1.954-3.959
		c0.078-0.158,0.334-0.158,0.412,0l1.953,3.959l4.369,0.634c0.087,0.013,0.158,0.073,0.185,0.156S18.753,10.2,18.689,10.261z"/>
</g>
</svg>
