<?xml version="1.0" encoding="utf-8"?>
<svg version="1.1" xmlns="http://www.w3.org/2000/svg" xmlns:xlink="http://www.w3.org/1999/xlink" x="0px" y="0px" width="24px"
	 height="24px" viewBox="0 0 24 24" enable-background="new 0 0 24 24" xml:space="preserve">
<g id="cp_x5F_pump_x5F_canula">
	<path fill="#67DFE8" d="M23.706,7.373c-0.149-0.541-0.728-0.854-1.294-0.699L19.87,7.373c-0.325-0.913-1.301-1.438-2.255-1.175
		l-3.008,0.826c-0.954,0.262-1.525,1.212-1.338,2.163l-2.542,0.698c-0.499,0.137-0.799,0.593-0.767,1.07
		c-1.696,0.439-3.037,0.067-4.101-0.248c-1.047-0.309-1.951-0.578-2.713,0.152c-1.307,1.253-0.369,2.87,0.384,4.17
		c0.501,0.863,1.019,1.757,0.766,2.3c-0.519,1.124-2.729,1.128-3.537,1.033c-0.203-0.022-0.392,0.122-0.417,0.328
		c-0.024,0.206,0.123,0.391,0.329,0.414c0.086,0.01,1.376,0.152,2.554-0.172c0.734-0.202,1.424-0.585,1.753-1.292
		c0.416-0.896-0.173-1.912-0.797-2.987c-0.844-1.456-1.336-2.47-0.515-3.257c0.426-0.409,0.972-0.272,1.977,0.026
		c1.128,0.334,2.648,0.808,4.674,0.215c0.255,0.206,0.598,0.304,0.949,0.207l5.63-1.547l2.016,7.338l0.127-1.203l-1.718-6.252
		l5.63-1.547C23.517,8.479,23.855,7.914,23.706,7.373z"/>
</g>
</svg>
