<?xml version="1.0" encoding="utf-8"?>
<svg version="1.1" xmlns="http://www.w3.org/2000/svg" xmlns:xlink="http://www.w3.org/1999/xlink" x="0px" y="0px" width="24px"
	 height="24px" viewBox="0 0 24 24" enable-background="new 0 0 24 24" xml:space="preserve">
<g id="cp_x5F_pump_x5F_battery">
    <path fill="#36FF00" d="M20.234,10.422c-0.362,0-0.656,0.294-0.656,0.656v0.297h-0.469V9.031c0-0.87-0.708-1.578-1.578-1.578
        H4.188c-0.87,0-1.578,0.708-1.578,1.578v5.938c0,0.87,0.708,1.578,1.578,1.578h13.344c0.72,0,1.323-0.488,1.511-1.149
        c0.01,0.001,0.018,0.006,0.028,0.006c0.332,0,0.602-0.297,0.602-0.664c0-0.351-0.25-0.632-0.563-0.655v-1.46h0.469v0.297
        c0,0.362,0.294,0.656,0.656,0.656s0.656-0.294,0.656-0.656v-1.844C20.891,10.716,20.597,10.422,20.234,10.422z M18.109,14.969
        c0,0.318-0.26,0.578-0.578,0.578H4.188c-0.319,0-0.578-0.26-0.578-0.578V9.031c0-0.319,0.259-0.578,0.578-0.578h13.344
        c0.318,0,0.578,0.259,0.578,0.578V14.969z"/>
    <polygon fill="#36FF00" points="9.703,10.273 5.766,13.195 9.219,11.977 11,13.742 15.438,10.258 11.141,11.945 		"/>
</g>
</svg>
