<?xml version="1.0" encoding="utf-8"?>
<svg version="1.1" xmlns="http://www.w3.org/2000/svg" xmlns:xlink="http://www.w3.org/1999/xlink" x="0px" y="0px" width="24px"
	 height="24px" viewBox="0 0 24 24" enable-background="new 0 0 24 24" xml:space="preserve">
<g id="cp_x5F_question">
	<circle fill="#FEAF05" cx="12.042" cy="18.479" r="0.979"/>
	<path fill="#FEAF05" d="M12,16.126c-0.392,0-0.708-0.317-0.708-0.709c0-2.548,1.188-3.437,2.142-4.151
		c0.8-0.599,1.378-1.032,1.378-2.432c0-1.931-1.854-2.531-2.53-2.531c-1.456,0-2.631,0.873-3.225,2.393
		C8.914,9.06,8.501,9.241,8.138,9.098C7.773,8.955,7.594,8.544,7.736,8.18c0.806-2.063,2.505-3.294,4.545-3.294
		c1.592,0,3.948,1.255,3.948,3.948c0,2.11-1.079,2.917-1.946,3.566c-0.88,0.659-1.574,1.178-1.574,3.017
		C12.709,15.809,12.392,16.126,12,16.126z"/>
</g>
</svg>
