<?xml version="1.0" encoding="utf-8"?>
<svg version="1.1" xmlns="http://www.w3.org/2000/svg" xmlns:xlink="http://www.w3.org/1999/xlink" x="0px" y="0px" width="24px"
	 height="24px" viewBox="0 0 24 24" enable-background="new 0 0 24 24" xml:space="preserve">
<g id="danarhistory">
		<path fill="#67DFE8" d="M12.069,3.578c-4.48,0-8.144,3.518-8.398,7.936L2.71,10.552c-0.268-0.267-0.699-0.267-0.966,0
			c-0.267,0.267-0.267,0.699,0,0.966l2.103,2.102c0.133,0.133,0.308,0.2,0.483,0.2c0.175,0,0.35-0.067,0.483-0.2l2.102-2.102
			c0.267-0.267,0.267-0.699,0-0.966c-0.267-0.267-0.699-0.267-0.966,0L5.04,11.461c0.277-3.64,3.32-6.518,7.03-6.518
			c3.891,0,7.057,3.166,7.057,7.057c0,3.891-3.166,7.057-7.057,7.057c-1.921,0-3.719-0.762-5.062-2.148
			c-0.263-0.27-0.695-0.276-0.966-0.015c-0.271,0.262-0.278,0.695-0.015,0.966c1.603,1.652,3.749,2.562,6.043,2.562
			c4.644,0,8.423-3.779,8.423-8.423S16.714,3.578,12.069,3.578z"/>
		<path fill="#67DFE8" d="M12.069,12.683h3.814c0.377,0,0.683-0.306,0.683-0.683s-0.305-0.683-0.683-0.683h-3.131V6.915
			c0-0.377-0.306-0.683-0.683-0.683s-0.683,0.306-0.683,0.683V12C11.387,12.377,11.692,12.683,12.069,12.683z"/>
</g>
</svg>
