<?xml version="1.0" encoding="utf-8"?>
<svg version="1.1" xmlns="http://www.w3.org/2000/svg" xmlns:xlink="http://www.w3.org/1999/xlink" x="0px" y="0px" width="24px"
	 height="24px" viewBox="0 0 24 24" enable-background="new 0 0 24 24" xml:space="preserve">
<g id="danarprofile">
	<path fill="#FFFFFF" d="M21.089,9.375c-0.158-0.489-0.58-0.845-1.089-0.918l-4.691-0.682l-2.099-4.251
		c-0.454-0.922-1.965-0.922-2.419,0L8.691,7.774L4,8.457C3.492,8.53,3.069,8.886,2.911,9.375c-0.159,0.488-0.027,1.024,0.341,1.382
		l3.396,3.308L5.847,18.74c-0.087,0.508,0.121,1.019,0.536,1.32c0.235,0.171,0.513,0.258,0.793,0.258
		c0.215,0,0.43-0.052,0.627-0.156L12,17.957l4.197,2.205c0.457,0.238,1.004,0.203,1.422-0.102c0.415-0.301,0.623-0.814,0.535-1.32
		l-0.801-4.674l3.395-3.308C21.115,10.399,21.248,9.863,21.089,9.375z M19.85,10.033l-3.709,3.616l0.876,5.105
		c0.017,0.102-0.024,0.205-0.108,0.264c-0.046,0.035-0.102,0.052-0.158,0.052c-0.043,0-0.086-0.009-0.126-0.032l-4.585-2.41
		l-4.586,2.41c-0.088,0.052-0.199,0.043-0.284-0.02c-0.083-0.059-0.125-0.162-0.107-0.264l0.876-5.105l-3.711-3.616
		C4.154,9.962,4.128,9.854,4.16,9.756s0.116-0.168,0.218-0.183l5.128-0.745l2.293-4.646c0.091-0.186,0.392-0.186,0.483,0
		l2.292,4.646l5.128,0.745c0.102,0.015,0.186,0.086,0.218,0.183S19.925,9.962,19.85,10.033z"/>
</g>
</svg>
