<?xml version="1.0" encoding="utf-8"?>
<svg version="1.1" xmlns="http://www.w3.org/2000/svg" xmlns:xlink="http://www.w3.org/1999/xlink" x="0px" y="0px" width="24px"
	 height="24px" viewBox="0 0 24 24" enable-background="new 0 0 24 24" xml:space="preserve">
<g id="ic_DoubleDown">
    <path fill="#36FF00" d="M2.702,16.281c1.952,1.81,4.279,4.076,5.31,5.654v0.002c0,0,0.001-0.001,0.001-0.001
        c0,0,0.001,0.001,0.001,0.001v-0.002c1.032-1.578,3.359-3.844,5.31-5.654l-1.325-1.821c0,0-1.578,1.408-2.934,2.728V2.063H6.961
        l0,15.125c-1.356-1.319-2.934-2.728-2.934-2.728L2.702,16.281z"/>
    <path fill="#36FF00" d="M10.676,16.281c1.952,1.81,4.279,4.076,5.31,5.654v0.002c0,0,0.001-0.001,0.001-0.001
        c0,0,0.001,0.001,0.001,0.001v-0.002c1.032-1.578,3.359-3.844,5.31-5.654l-1.325-1.821c0,0-1.578,1.408-2.934,2.728V2.063h-2.104
        v15.125c-1.356-1.319-2.934-2.728-2.934-2.728L10.676,16.281z"/>
</g>
</svg>
