<?xml version="1.0" encoding="utf-8"?>
<svg version="1.1" xmlns="http://www.w3.org/2000/svg" xmlns:xlink="http://www.w3.org/1999/xlink" x="0px" y="0px" width="24px"
	 height="24px" viewBox="0 0 24 24" enable-background="new 0 0 24 24" xml:space="preserve">
<g id="ic_DoubleUp">
    <path fill="#36FF00" d="M2.702,7.719c1.952-1.81,4.279-4.076,5.31-5.654V2.063c0,0,0.001,0.001,0.001,0.001
        c0,0,0.001-0.001,0.001-0.001v0.002c1.032,1.578,3.359,3.844,5.31,5.654L11.999,9.54c0,0-1.578-1.408-2.934-2.728v15.125H6.961
        l0-15.125C5.605,8.132,4.027,9.54,4.027,9.54L2.702,7.719z"/>
    <path fill="#36FF00" d="M10.676,7.719c1.952-1.81,4.279-4.076,5.31-5.654V2.063c0,0,0.001,0.001,0.001,0.001
        c0,0,0.001-0.001,0.001-0.001v0.002c1.032,1.578,3.359,3.844,5.31,5.654L19.973,9.54c0,0-1.578-1.408-2.934-2.728v15.125h-2.104
        V6.813c-1.356,1.319-2.934,2.728-2.934,2.728L10.676,7.719z"/>
</g>
</svg>
