<?xml version="1.0" encoding="utf-8"?>
<svg version="1.1" xmlns="http://www.w3.org/2000/svg" xmlns:xlink="http://www.w3.org/1999/xlink" x="0px" y="0px" width="24px"
	 height="24px" viewBox="0 0 24 24" enable-background="new 0 0 24 24" xml:space="preserve">
<g id="ic_home_loop">
	<path fill="#FFFFFF" d="M16.78,7.263h-2.953l1.399-1.398c0.21-0.21,0.291-0.342,0.212-0.533S15.219,4.99,14.863,4.99H12.6
		c-0.241,0-0.462,0.149-0.663,0.35L8.78,8.497c-0.2,0.2-0.2,0.524,0,0.724l3.157,3.157c0.194,0.194,0.422,0.35,0.663,0.35h2.263
		c0.371,0,0.495-0.1,0.574-0.291c0.079-0.191,0.014-0.357-0.212-0.583l-1.489-1.489h3.044c1.646,0,2.985,1.339,2.985,2.985
		c0,1.646-1.339,2.985-2.985,2.985H7.277c-1.646,0-2.985-1.339-2.985-2.985c0-1.646,1.339-2.985,2.985-2.985h0.404
		c0.105,0,0.195-0.067,0.234-0.164C7.597,9.942,7.389,9.571,7.316,9.15c-0.012-0.046-0.015-0.093-0.022-0.14
		C7.29,8.958,7.27,8.912,7.27,8.859c0-0.007,0.003-0.013,0.003-0.02c0-0.009-0.003-0.017-0.003-0.026
		c0-0.139,0.029-0.272,0.07-0.402c0.097-0.362,0.3-0.677,0.583-0.906c-0.001-0.023,0.007-0.044,0-0.067
		C7.89,7.334,7.792,7.263,7.681,7.263H7.277c-3.357,0-6.088,2.731-6.088,6.088c0,3.357,2.731,6.088,6.088,6.088h9.504
		c3.357,0,6.088-2.731,6.088-6.088C22.868,9.994,20.137,7.263,16.78,7.263z"/>
</g>
</svg>
