<?xml version="1.0" encoding="utf-8"?>
<svg version="1.1" xmlns="http://www.w3.org/2000/svg" xmlns:xlink="http://www.w3.org/1999/xlink" x="0px" y="0px" width="24px"
	 height="24px" viewBox="0 0 24 24" enable-background="new 0 0 24 24" xml:space="preserve">
<g id="ic_Invalid">
    <circle fill="#36FF00" cx="17.35" cy="19.561" r="1.147"/>
    <path fill="#36FF00" d="M17.301,16.804c-0.459,0-0.83-0.372-0.83-0.831c0-2.985,1.391-4.027,2.51-4.864
        c0.937-0.702,1.614-1.209,1.614-2.849c0-2.262-2.173-2.965-2.964-2.965c-1.705,0-3.083,1.022-3.778,2.804
        c-0.167,0.427-0.65,0.64-1.075,0.471c-0.427-0.167-0.638-0.648-0.471-1.075c0.944-2.417,2.935-3.86,5.325-3.86
        c1.865,0,4.626,1.47,4.626,4.626c0,2.472-1.264,3.418-2.28,4.178c-1.031,0.772-1.844,1.38-1.844,3.535
        C18.131,16.432,17.76,16.804,17.301,16.804z"/>
    <circle fill="#36FF00" cx="6.846" cy="19.561" r="1.147"/>
    <path fill="#36FF00" d="M6.797,16.804c-0.459,0-0.83-0.372-0.83-0.831c0-2.985,1.391-4.027,2.51-4.864
        c0.937-0.702,1.614-1.209,1.614-2.849c0-2.262-2.173-2.965-2.964-2.965c-1.705,0-3.083,1.022-3.778,2.804
        c-0.167,0.427-0.65,0.64-1.075,0.471C1.845,8.403,1.635,7.922,1.801,7.495c0.944-2.417,2.935-3.86,5.325-3.86
        c1.865,0,4.626,1.47,4.626,4.626c0,2.472-1.264,3.418-2.28,4.178c-1.031,0.772-1.844,1.38-1.844,3.535
        C7.627,16.432,7.256,16.804,6.797,16.804z"/>
</g>
</svg>
