<?xml version="1.0" encoding="utf-8"?>
<svg version="1.1" xmlns="http://www.w3.org/2000/svg" xmlns:xlink="http://www.w3.org/1999/xlink" x="0px" y="0px" width="24px"
	 height="24px" viewBox="0 0 24 24" enable-background="new 0 0 24 24" xml:space="preserve">
<g id="icon_snooze">
	<g id="Logo_AAPS">
		<path fill="#009EE2" d="M12,22.5C6.21,22.5,1.5,17.79,1.5,12S6.21,1.5,12,1.5S22.5,6.21,22.5,12S17.79,22.5,12,22.5z M12,2.225
			C6.61,2.225,2.225,6.61,2.225,12S6.61,21.775,12,21.775S21.775,17.39,21.775,12S17.39,2.225,12,2.225z M12,20.963
			c-4.942,0-8.963-4.021-8.963-8.963S7.058,3.037,12,3.037S20.963,7.058,20.963,12S16.942,20.963,12,20.963z M12,3.762
			c-4.543,0-8.238,3.696-8.238,8.238S7.457,20.238,12,20.238s8.238-3.696,8.238-8.238S16.543,3.762,12,3.762z"/>
		<path fill="#009EE2" d="M12,21.043c4.994,0,9.043-4.049,9.043-9.043S16.994,2.957,12,2.957c-4.994,0-9.043,4.048-9.043,9.042V12
			C2.957,16.994,7.006,21.043,12,21.043z"/>
		<path fill="#38B9D7" d="M19.749,16.663c0.056-0.093,0.11-0.187,0.163-0.283h-3.25v-4.239h4.378
			c0.001-0.047,0.002-0.094,0.002-0.141c0-0.047-0.001-0.094-0.002-0.141h-4.378V7.62h3.25c-0.053-0.095-0.107-0.19-0.163-0.283
			h-3.087V4.251c-0.093-0.056-0.187-0.11-0.283-0.163v3.25h-4.239V2.959C12.094,2.958,12.047,2.957,12,2.957
			c-0.047,0-0.094,0.001-0.141,0.002v4.378H7.62v-3.25C7.525,4.14,7.43,4.195,7.337,4.251v3.087H4.251
			C4.195,7.43,4.14,7.525,4.088,7.62h3.25v4.239H2.959C2.958,11.906,2.957,11.952,2.957,12V12c0,0.047,0.001,0.094,0.002,0.141
			h4.378v4.239h-3.25c0.053,0.095,0.107,0.19,0.163,0.283h3.087v3.087c0.093,0.056,0.187,0.11,0.283,0.163v-3.25h4.239v4.378
			c0.047,0.001,0.094,0.002,0.141,0.002c0.047,0,0.094-0.001,0.141-0.002v-4.378h4.239v3.25c0.095-0.053,0.19-0.107,0.283-0.163
			v-3.087H19.749z M11.859,16.38H7.62v-4.239h4.239V16.38z M11.859,11.859H7.62V7.62h4.239V11.859z M16.38,16.38h-4.239v-4.239
			h4.239V16.38z M16.38,11.859h-4.239V7.62h4.239V11.859z"/>
		<path fill="#26B2D7" d="M19.74,16.678c0.056-0.093,0.111-0.187,0.164-0.283h-3.227v-4.239h4.363
			c0.001-0.052,0.002-0.104,0.002-0.156c0-0.042-0.001-0.084-0.002-0.126h-4.364V7.635h3.243c-0.053-0.095-0.107-0.189-0.163-0.283
			h-3.08V4.26c-0.093-0.056-0.187-0.111-0.283-0.164v3.256h-4.239v-4.38h-0.283v4.38H7.635V4.079
			C7.539,4.132,7.445,4.186,7.352,4.242v3.11h-3.11c-0.056,0.093-0.11,0.187-0.163,0.283h3.273v4.239h-4.38v0.283h4.38v4.239H4.096
			c0.053,0.095,0.107,0.19,0.164,0.283h3.093v3.08c0.093,0.056,0.187,0.11,0.283,0.163v-3.243h4.239v4.364
			c0.042,0.001,0.084,0.002,0.126,0.002c0.052,0,0.104-0.001,0.156-0.002v-4.363h4.239v3.227c0.095-0.053,0.19-0.107,0.283-0.164
			v-3.063H19.74z M11.874,16.395H7.635v-4.239h4.239V16.395z M11.874,11.874H7.635V7.635h4.239V11.874z M16.395,16.395h-4.239
			v-4.239h4.239V16.395z M16.395,11.874h-4.239V7.635h4.239V11.874z"/>
		<path fill="#494494" d="M20.977,13.095c0.026-0.215,0.045-0.432,0.055-0.651l-8.512-1.685l-9.473,2.514
			c0.031,0.216,0.069,0.43,0.114,0.642l9.38-2.49L20.977,13.095z"/>
		<path opacity="0.61" fill="#494494" d="M3.096,13.588c0.751,4.237,4.451,7.454,8.904,7.454c4.733,0,8.615-3.636,9.009-8.266
			l-8.509-1.684L3.096,13.588z"/>
		<path fill="#F5F5F5" d="M18.117,8.395c-0.621-1.088-1.471-1.943-2.552-2.564C15.094,5.56,14.6,5.348,14.082,5.196
			c-0.571-0.168-1.14,0.279-1.14,0.874v0c0,0.402,0.269,0.743,0.651,0.867c0.346,0.112,0.676,0.262,0.991,0.45
			c0.782,0.468,1.399,1.106,1.85,1.914c0.45,0.808,0.676,1.714,0.676,2.718c0,1.004-0.226,1.91-0.676,2.718
			c-0.451,0.808-1.068,1.441-1.85,1.901c-0.211,0.124-0.43,0.226-0.655,0.316v-0.425v-0.964v-0.812v-1.418
			c0-0.286-0.093-0.522-0.278-0.708c-0.186-0.185-0.422-0.278-0.708-0.278c-0.27,0-0.502,0.093-0.696,0.278
			c-0.194,0.186-0.291,0.422-0.291,0.708v1.418v0.812v1.017v0.796v0.65c0,0.27,0.097,0.502,0.291,0.696
			c0.194,0.194,0.426,0.291,0.696,0.291c0.153,0,0.291-0.03,0.416-0.085c0.499-0.117,0.976-0.288,1.43-0.519
			c0.919-0.468,1.675-1.11,2.271-1.926v1.531c0,0.289,0.093,0.523,0.281,0.701c0.187,0.179,0.425,0.268,0.714,0.268
			c0.289,0,0.527-0.093,0.714-0.281c0.187-0.187,0.281-0.416,0.281-0.688v-5.996C19.048,10.691,18.738,9.484,18.117,8.395z"/>
		<path fill="#F5F5F5" d="M11.955,9.99V9.14V8.176V7.364V5.946c0-0.286-0.093-0.522-0.278-0.708
			c-0.186-0.185-0.422-0.278-0.708-0.278c-0.121,0-0.233,0.022-0.339,0.059c-0.814,0.14-1.578,0.405-2.285,0.812
			c-1.08,0.621-1.931,1.476-2.552,2.564c-0.621,1.089-0.931,2.296-0.931,3.623s0.302,2.531,0.906,3.61
			c0.604,1.081,1.429,1.931,2.475,2.552c0.488,0.29,1.002,0.51,1.544,0.664c0.592,0.168,1.182-0.27,1.182-0.885
			c0-0.411-0.276-0.76-0.668-0.885c-0.343-0.11-0.672-0.255-0.986-0.438c-0.791-0.46-1.412-1.093-1.863-1.901
			c-0.451-0.808-0.676-1.713-0.676-2.718c0-1.004,0.225-1.909,0.676-2.718c0.45-0.807,1.072-1.445,1.863-1.914
			c0.215-0.127,0.439-0.233,0.668-0.325v0.302v0.812v1.017V9.99v0.65c0,0.27,0.097,0.502,0.291,0.696
			c0.194,0.194,0.426,0.291,0.696,0.291c0.287,0,0.523-0.097,0.708-0.291c0.185-0.193,0.278-0.425,0.278-0.696V9.99z"/>
	</g>
	<g>
		<path fill="#303030" d="M7.795,8.389H6.762C6.396,8.389,6.1,8.686,6.1,9.051v6.282c0,0.365,0.296,0.662,0.662,0.662h3.871
			l3.706,3.438c0.125,0.116,0.286,0.177,0.45,0.177c0.089,0,0.179-0.018,0.264-0.055c0.241-0.105,0.397-0.343,0.397-0.606v-2.903
			L7.795,8.389z"/>
		<path fill="#303030" d="M15.45,12.206V5.437c0-0.263-0.156-0.501-0.397-0.606c-0.085-0.037-0.175-0.055-0.264-0.055
			c-0.164,0-0.325,0.061-0.45,0.177l-3.187,2.956L7.06,3.815L6.1,4.775l9.35,9.35l0,0l3.782,3.782l0.96-0.96L15.45,12.206z"/>
	</g>
</g>
</svg>
