<?xml version="1.0" encoding="utf-8"?>
<svg version="1.1" id="Layer_1" xmlns:serif="http://www.serif.com/"
	 xmlns="http://www.w3.org/2000/svg" xmlns:xlink="http://www.w3.org/1999/xlink" x="0px" y="0px" width="841.89px"
	 height="595.28px" viewBox="0 0 841.89 595.28" enable-background="new 0 0 841.89 595.28" xml:space="preserve">
<g id="Insight">
	<path id="Pumpen-Body" serif:id="Pumpen Body" fill="#1F1E1C" d="M703.252,211.655c-5.53-55.501-39.335-82.949-88.994-87.39
		c-129.218-5.59-257.598-10.599-391.997,3.269c-50.469,2.372-88.762,33.517-88.762,83.855c-0.153,27.839-2.53,56.356-2.586,81.842
		c-0.805,30.085-0.042,60.802,2.855,92.38c-1.098,50.729,36.535,84.079,88.487,85.437c126.376,3.293,256.691,9.771,390.355,1.907
		c47.125-2.776,85.302-32.178,89.552-86.246C704.447,328.213,706.74,269.42,703.252,211.655L703.252,211.655z"/>
	<g>
		<defs>
			<path id="SVGID_1_" d="M703.252,211.655c-5.53-55.501-39.335-82.949-88.994-87.39c-129.218-5.59-257.598-10.599-391.997,3.269
				c-50.469,2.372-88.762,33.517-88.762,83.855c-0.153,27.839-2.53,56.356-2.586,81.842c-0.805,30.085-0.042,60.802,2.855,92.38
				c-1.098,50.729,36.535,84.079,88.487,85.437c126.376,3.293,256.691,9.771,390.355,1.907
				c47.125-2.776,85.302-32.178,89.552-86.246C704.447,328.213,706.74,269.42,703.252,211.655L703.252,211.655z"/>
		</defs>
		<clipPath id="SVGID_2_">
			<use xlink:href="#SVGID_1_"  overflow="visible"/>
		</clipPath>
		<g clip-path="url(#SVGID_2_)">
			<path d="M648.235,131.859l-6.929-1.637v335.491l6.743-1.846L648.235,131.859L648.235,131.859z"/>
		</g>
	</g>
	<g id="Background">
		<path fill="#A29A9A" d="M610.57,228.894c0-34.131-27.708-61.839-61.839-61.839H232.827c-34.126,0-61.835,27.708-61.835,61.839
			v147.457c0,34.126,27.708,61.835,61.835,61.835H548.73c34.131,0,61.839-27.708,61.839-61.835V228.894L610.57,228.894z"/>
		<path d="M607.937,229.894c0-33.647-27.313-60.96-60.96-60.96H234.241c-33.647,0-60.965,27.313-60.965,60.96v145.379
			c0,33.643,27.318,60.96,60.965,60.96h312.736c33.647,0,60.96-27.318,60.96-60.96V229.894z"/>
	</g>
	<g id="Accuchek-insight" serif:id="Accuchek insight">
		<g>
			<path fill="#FFFFFF" d="M243.031,221.514c0.06-0.298,0.009-0.516-0.144-0.656c-0.158-0.14-0.47-0.242-0.944-0.302
				c-0.205-0.042-0.312-0.163-0.312-0.353c0-0.042,0.009-0.093,0.023-0.144c0.014-0.051,0.028-0.116,0.047-0.186
				c0.442,0.042,0.879,0.074,1.307,0.098s0.828,0.033,1.2,0.033c0.312,0,0.688-0.009,1.13-0.033
				c0.446-0.023,0.865-0.056,1.265-0.098c0.028,0.144,0.046,0.256,0.046,0.33c0,0.209-0.107,0.316-0.312,0.335
				c-0.474,0.056-0.809,0.163-1,0.307c-0.191,0.149-0.316,0.372-0.377,0.67l-2.195,11.403c-0.06,0.298-0.009,0.512,0.153,0.646
				c0.163,0.13,0.498,0.233,1,0.307c0.191,0.046,0.288,0.158,0.288,0.335c0,0.088-0.014,0.205-0.047,0.353
				c-0.442-0.042-0.893-0.074-1.353-0.098c-0.456-0.023-0.874-0.033-1.242-0.033c-0.312,0-0.684,0.009-1.121,0.033
				c-0.437,0.023-0.856,0.056-1.256,0.098c-0.028-0.149-0.042-0.265-0.042-0.353c0-0.177,0.088-0.284,0.265-0.312
				c0.474-0.074,0.814-0.181,1.023-0.321c0.205-0.14,0.339-0.358,0.395-0.656L243.031,221.514L243.031,221.514z"/>
			<path fill="#FFFFFF" d="M254.546,227.727c0.088-0.4,0.135-0.735,0.135-1c0-0.428-0.209-0.642-0.623-0.642
				c-0.219,0-0.493,0.121-0.819,0.363c-0.326,0.246-0.665,0.563-1.023,0.953c-0.353,0.395-0.707,0.832-1.051,1.321
				c-0.349,0.488-0.656,0.986-0.921,1.488c-0.135,0.251-0.265,0.53-0.391,0.832c-0.126,0.302-0.237,0.614-0.33,0.93
				c-0.098,0.321-0.172,0.632-0.223,0.944c-0.051,0.312-0.079,0.6-0.079,0.865c0,0.209,0.023,0.409,0.065,0.6
				c-0.558,0.06-1.144,0.172-1.753,0.335c-0.116-0.074-0.177-0.163-0.177-0.27c0-0.028,0.009-0.088,0.023-0.186
				c0.014-0.098,0.028-0.177,0.047-0.233c0.339-1.716,0.605-3.069,0.795-4.06c0.195-0.995,0.34-1.744,0.433-2.256
				c0.098-0.507,0.158-0.842,0.181-0.995c0.019-0.158,0.033-0.251,0.033-0.279c0-0.177-0.06-0.265-0.177-0.265
				c-0.06,0-0.149,0.023-0.27,0.074l-0.73,0.312c-0.121,0.051-0.209,0.079-0.265,0.079c-0.074,0-0.14-0.047-0.191-0.135
				c-0.051-0.088-0.093-0.191-0.121-0.312c0.265-0.163,0.581-0.335,0.944-0.521c0.363-0.181,0.712-0.353,1.051-0.507
				c0.339-0.158,0.637-0.288,0.888-0.391c0.251-0.102,0.414-0.153,0.488-0.153c0.102,0,0.191,0.023,0.265,0.074
				c0.074,0.051,0.112,0.14,0.112,0.256c0,0.047-0.005,0.102-0.009,0.167c-0.009,0.065-0.019,0.135-0.033,0.209l-0.8,3.865h0.088
				c0.386-0.651,0.786-1.26,1.2-1.823c0.414-0.563,0.832-1.046,1.251-1.451c0.423-0.409,0.846-0.725,1.279-0.953
				c0.428-0.233,0.865-0.344,1.307-0.344c0.414,0,0.744,0.102,0.986,0.307c0.246,0.209,0.367,0.549,0.367,1.023
				c0,0.177-0.014,0.386-0.042,0.623c-0.033,0.233-0.07,0.47-0.112,0.707l-1.135,5.325c-0.042,0.209-0.065,0.349-0.065,0.423
				c0,0.191,0.088,0.288,0.265,0.288c0.088,0,0.195-0.028,0.312-0.079c0.121-0.051,0.233-0.107,0.344-0.177
				c0.112-0.065,0.209-0.126,0.302-0.177c0.088-0.051,0.163-0.079,0.219-0.079c0.149,0,0.251,0.149,0.312,0.446
				c-0.265,0.191-0.539,0.372-0.819,0.544c-0.284,0.167-0.563,0.321-0.832,0.451c-0.274,0.135-0.53,0.242-0.767,0.326
				c-0.237,0.079-0.428,0.121-0.577,0.121c-0.163,0-0.316-0.033-0.456-0.102c-0.14-0.065-0.209-0.223-0.209-0.474
				c0-0.046,0.005-0.116,0.023-0.209c0.014-0.098,0.028-0.181,0.042-0.256L254.546,227.727L254.546,227.727z"/>
			<path fill="#FFFFFF" d="M264.489,227.057c-0.163-0.014-0.265-0.051-0.312-0.121c-0.042-0.065-0.074-0.144-0.088-0.233
				c-0.074-0.442-0.242-0.786-0.512-1.032c-0.265-0.242-0.628-0.363-1.088-0.363c-0.47,0-0.879,0.112-1.218,0.344
				c-0.339,0.228-0.512,0.558-0.512,0.986c0,0.293,0.13,0.595,0.391,0.898c0.256,0.302,0.563,0.609,0.921,0.921
				c0.265,0.237,0.549,0.479,0.842,0.735c0.298,0.251,0.563,0.507,0.8,0.763c0.237,0.26,0.432,0.53,0.586,0.809
				c0.158,0.284,0.233,0.572,0.233,0.865c0,0.433-0.093,0.832-0.288,1.2c-0.191,0.372-0.451,0.693-0.786,0.967
				c-0.335,0.274-0.725,0.488-1.177,0.651c-0.451,0.163-0.925,0.246-1.432,0.246c-0.516,0-1.018-0.047-1.507-0.135
				s-0.949-0.228-1.377-0.419c0.121-0.446,0.209-0.856,0.279-1.232c0.065-0.377,0.112-0.805,0.144-1.279h0.219
				c0.358,0,0.535,0.126,0.535,0.381c-0.028,0.619,0.116,1.102,0.433,1.442s0.758,0.507,1.321,0.507
				c0.577,0,1.051-0.149,1.418-0.451c0.372-0.307,0.558-0.702,0.558-1.191c0-0.219-0.056-0.432-0.167-0.642
				c-0.112-0.209-0.256-0.405-0.433-0.586c-0.177-0.186-0.377-0.372-0.6-0.558s-0.451-0.372-0.688-0.563
				c-0.442-0.372-0.846-0.758-1.209-1.167c-0.363-0.405-0.544-0.874-0.544-1.409c0-0.4,0.093-0.767,0.279-1.111
				c0.181-0.34,0.437-0.628,0.753-0.874c0.316-0.242,0.688-0.437,1.112-0.577c0.419-0.14,0.865-0.209,1.339-0.209
				c0.86,0,1.665,0.2,2.418,0.595c-0.074,0.223-0.135,0.507-0.186,0.846c-0.051,0.34-0.093,0.679-0.121,1.018L264.489,227.057
				L264.489,227.057z"/>
			<path fill="#FFFFFF" d="M269.66,222.244c-0.284,0-0.502-0.084-0.665-0.256c-0.163-0.167-0.246-0.395-0.246-0.674
				c0-0.4,0.135-0.758,0.409-1.079c0.274-0.316,0.605-0.474,0.991-0.474c0.293,0,0.507,0.093,0.633,0.288
				c0.126,0.191,0.186,0.437,0.186,0.73c0,0.372-0.126,0.707-0.377,1.009C270.339,222.091,270.028,222.244,269.66,222.244z
				 M268.525,232.606c-0.014,0.06-0.028,0.14-0.042,0.233c-0.014,0.098-0.023,0.167-0.023,0.214c0,0.177,0.088,0.265,0.265,0.265
				c0.107,0,0.214-0.028,0.321-0.079c0.112-0.051,0.223-0.107,0.335-0.177c0.112-0.065,0.209-0.126,0.298-0.177
				c0.093-0.051,0.163-0.079,0.223-0.079c0.149,0,0.251,0.149,0.312,0.446c-0.251,0.191-0.521,0.372-0.809,0.544
				c-0.288,0.167-0.567,0.321-0.832,0.451c-0.265,0.135-0.516,0.242-0.753,0.326c-0.237,0.079-0.433,0.121-0.577,0.121
				c-0.163,0-0.321-0.033-0.47-0.102c-0.144-0.065-0.219-0.223-0.219-0.474c0-0.046,0.005-0.121,0.019-0.233
				c0.019-0.112,0.033-0.191,0.047-0.233c0.326-1.586,0.586-2.846,0.777-3.786s0.335-1.656,0.433-2.153
				c0.098-0.493,0.158-0.823,0.191-0.986c0.028-0.163,0.042-0.26,0.042-0.288c0-0.177-0.065-0.265-0.2-0.265
				c-0.06,0-0.149,0.023-0.265,0.074c-0.121,0.051-0.246,0.107-0.377,0.158c-0.135,0.051-0.256,0.102-0.367,0.153
				c-0.112,0.051-0.195,0.079-0.256,0.079c-0.088,0-0.153-0.046-0.2-0.135c-0.042-0.088-0.079-0.191-0.112-0.312
				c0.27-0.144,0.577-0.312,0.935-0.498c0.353-0.186,0.698-0.358,1.032-0.521c0.33-0.163,0.628-0.298,0.888-0.4
				c0.256-0.102,0.432-0.153,0.521-0.153c0.251,0,0.377,0.126,0.377,0.377c0,0.102-0.014,0.214-0.047,0.33L268.525,232.606
				L268.525,232.606z"/>
			<path fill="#FFFFFF" d="M278.515,225.704c-0.181-0.056-0.386-0.107-0.623-0.144c-0.237-0.037-0.46-0.056-0.665-0.056
				c-0.637,0-1.191,0.163-1.665,0.488s-0.87,0.772-1.186,1.335c-0.321,0.563-0.558,1.218-0.712,1.972
				c-0.153,0.758-0.233,1.563-0.233,2.423c0,0.544,0.074,0.939,0.223,1.186c0.144,0.242,0.367,0.367,0.665,0.367
				c0.265,0,0.553-0.14,0.865-0.414c0.312-0.274,0.623-0.628,0.944-1.065c0.316-0.437,0.619-0.925,0.907-1.474
				c0.288-0.549,0.544-1.102,0.767-1.665c0.223-0.563,0.395-1.102,0.521-1.618C278.45,226.518,278.515,226.076,278.515,225.704
				L278.515,225.704z M271.52,237.577c0.209,0.446,0.526,0.818,0.958,1.121c0.428,0.302,0.893,0.456,1.395,0.456
				c0.623,0,1.172-0.256,1.642-0.767c0.474-0.507,0.814-1.251,1.023-2.228l1.088-5.325h-0.088c-0.623,1.302-1.307,2.27-2.056,2.907
				c-0.744,0.637-1.46,0.953-2.139,0.953c-0.223,0-0.446-0.033-0.665-0.102c-0.223-0.065-0.414-0.181-0.577-0.353
				c-0.163-0.167-0.298-0.4-0.4-0.688c-0.107-0.288-0.158-0.66-0.158-1.121c0-1.195,0.181-2.279,0.544-3.251
				c0.363-0.967,0.832-1.79,1.409-2.46c0.577-0.674,1.218-1.195,1.921-1.553c0.702-0.363,1.386-0.544,2.051-0.544
				c0.521,0,0.995,0.019,1.432,0.065c0.437,0.042,0.949,0.126,1.544,0.242l-2.042,10.431c-0.163,0.842-0.437,1.558-0.823,2.139
				c-0.386,0.586-0.814,1.07-1.288,1.446c-0.47,0.377-0.972,0.651-1.497,0.818c-0.526,0.172-1.009,0.256-1.451,0.256
				c-1.112,0-1.977-0.149-2.6-0.442c0.107-0.326,0.186-0.609,0.246-0.846s0.112-0.544,0.153-0.93L271.52,237.577L271.52,237.577z"/>
			<path fill="#FFFFFF" d="M284.258,220.668c0-0.074-0.009-0.149-0.033-0.219c-0.023-0.074-0.084-0.112-0.186-0.112
				c-0.047,0-0.126,0.009-0.233,0.033c-0.112,0.023-0.228,0.042-0.344,0.065c-0.121,0.023-0.233,0.042-0.335,0.056
				c-0.102,0.014-0.177,0.023-0.223,0.023c-0.205,0-0.312-0.153-0.312-0.465c0.67-0.177,1.284-0.358,1.856-0.544
				c0.567-0.186,1.135-0.391,1.697-0.609c0.177,0.116,0.265,0.256,0.265,0.419c0,0.06-0.005,0.121-0.023,0.191
				c-0.014,0.065-0.028,0.121-0.042,0.167l-1.888,9.52h0.07c0.395-0.651,0.795-1.26,1.195-1.823c0.4-0.563,0.809-1.046,1.223-1.451
				c0.414-0.409,0.832-0.725,1.265-0.953c0.428-0.233,0.856-0.344,1.284-0.344c0.432,0,0.777,0.102,1.032,0.307
				c0.26,0.209,0.391,0.549,0.391,1.023c0,0.177-0.014,0.386-0.047,0.623c-0.028,0.233-0.065,0.47-0.112,0.707l-1.13,5.325
				c-0.014,0.06-0.028,0.135-0.042,0.223c-0.019,0.088-0.023,0.153-0.023,0.2c0,0.191,0.088,0.288,0.265,0.288
				c0.088,0,0.191-0.028,0.312-0.079c0.116-0.051,0.233-0.107,0.344-0.177c0.112-0.065,0.209-0.126,0.298-0.177
				c0.088-0.051,0.163-0.079,0.223-0.079c0.149,0,0.251,0.149,0.312,0.446c-0.27,0.191-0.539,0.372-0.823,0.544
				c-0.279,0.167-0.558,0.321-0.832,0.451c-0.274,0.135-0.526,0.242-0.753,0.326c-0.228,0.079-0.419,0.121-0.567,0.121
				c-0.163,0-0.316-0.033-0.465-0.102c-0.149-0.065-0.223-0.223-0.223-0.474c0-0.046,0.009-0.121,0.023-0.233
				c0.014-0.112,0.033-0.191,0.047-0.233l1.242-5.925c0.088-0.414,0.135-0.749,0.135-1c0-0.428-0.209-0.642-0.623-0.642
				c-0.209,0-0.465,0.107-0.777,0.33c-0.312,0.223-0.642,0.521-0.986,0.898c-0.349,0.377-0.702,0.819-1.056,1.321
				c-0.353,0.502-0.688,1.028-1,1.577c-0.13,0.251-0.26,0.53-0.386,0.832c-0.126,0.302-0.233,0.619-0.321,0.944
				c-0.093,0.326-0.163,0.642-0.214,0.953c-0.051,0.312-0.074,0.591-0.074,0.842c0,0.209,0.019,0.409,0.065,0.6
				c-0.563,0.06-1.149,0.172-1.753,0.335c-0.135-0.074-0.2-0.163-0.2-0.27c0-0.056,0.009-0.126,0.023-0.209
				c0.014-0.079,0.028-0.153,0.042-0.209l2.153-11.096c0.088-0.428,0.154-0.856,0.2-1.274
				C284.24,221.235,284.259,220.905,284.258,220.668L284.258,220.668z"/>
			<path fill="#FFFFFF" d="M295.09,224.509c0.116-0.563,0.177-1.014,0.177-1.353c0-0.195-0.023-0.395-0.065-0.6
				c0.279-0.046,0.577-0.088,0.888-0.135c0.307-0.042,0.619-0.112,0.93-0.2c0.116,0.088,0.177,0.177,0.177,0.27
				c0,0.028-0.005,0.088-0.009,0.177c-0.009,0.088-0.019,0.163-0.033,0.219l-0.381,2h2.288c-0.047,0.135-0.088,0.298-0.135,0.488
				c-0.042,0.191-0.079,0.367-0.112,0.53c-0.367-0.056-0.744-0.102-1.13-0.13c-0.386-0.033-0.749-0.051-1.088-0.07l-1.218,6.925
				c-0.046,0.223-0.065,0.377-0.065,0.465c0,0.358,0.214,0.535,0.642,0.535c0.223,0,0.423-0.028,0.609-0.079
				c0.186-0.051,0.353-0.112,0.502-0.186c0.13-0.06,0.246-0.116,0.34-0.167c0.098-0.051,0.177-0.079,0.237-0.079
				c0.163,0,0.256,0.14,0.288,0.423c-0.46,0.353-0.958,0.637-1.497,0.842c-0.544,0.209-1.051,0.312-1.521,0.312
				c-0.535,0-0.912-0.084-1.135-0.256c-0.219-0.172-0.33-0.423-0.33-0.767c0-0.163,0.014-0.316,0.042-0.465l1.4-7.567h-1.618
				c0.028-0.251,0.074-0.442,0.144-0.567c0.065-0.126,0.181-0.186,0.344-0.186h1.265L295.09,224.509L295.09,224.509z"/>
		</g>
		<g>
			<path fill="#FFFFFF" d="M213.434,204.707l-0.991-5.916l-3.2,5.916C209.244,204.707,213.434,204.707,213.434,204.707z
				 M206.481,209.832c-0.121,0.237-0.181,0.432-0.181,0.581c0,0.205,0.116,0.353,0.344,0.446c0.228,0.093,0.581,0.172,1.056,0.242
				c0.302,0.051,0.456,0.177,0.456,0.381c0,0.084-0.019,0.209-0.051,0.377c-0.507-0.047-0.977-0.088-1.409-0.112
				c-0.433-0.028-0.884-0.037-1.358-0.037c-0.339,0-0.688,0.009-1.051,0.023c-0.367,0.019-0.767,0.06-1.209,0.126
				c-0.014-0.065-0.033-0.135-0.051-0.2c-0.014-0.07-0.023-0.126-0.023-0.177c0-0.223,0.144-0.358,0.433-0.409
				c0.879-0.149,1.446-0.474,1.697-0.963l8.125-14.947c0.098-0.167,0.228-0.256,0.377-0.256c0.051,0,0.102,0.009,0.153,0.028
				c0.051,0.014,0.093,0.033,0.126,0.051l2.716,15.049c0.051,0.302,0.205,0.53,0.46,0.684c0.251,0.153,0.581,0.26,0.986,0.33
				c0.223,0.033,0.367,0.084,0.433,0.153c0.07,0.065,0.102,0.149,0.102,0.251c0,0.084-0.019,0.214-0.051,0.381
				c-0.474-0.033-0.925-0.065-1.358-0.088c-0.433-0.028-0.874-0.037-1.33-0.037c-1,0-1.99,0.051-2.972,0.149
				c-0.051-0.116-0.074-0.242-0.074-0.377c0-0.223,0.158-0.358,0.479-0.409c0.223-0.033,0.46-0.107,0.712-0.228
				c0.256-0.116,0.381-0.302,0.381-0.558v-0.153c0-0.065-0.009-0.144-0.023-0.228l-0.763-4.237h-4.874L206.481,209.832
				L206.481,209.832z"/>
			<path fill="#FFFFFF" d="M227.084,212.013c-1.335,0-2.474-0.177-3.409-0.53c-0.939-0.358-1.707-0.842-2.297-1.46
				c-0.595-0.619-1.023-1.339-1.298-2.158c-0.27-0.819-0.405-1.702-0.405-2.651c0-1.237,0.205-2.465,0.609-3.693
				c0.405-1.228,1.014-2.33,1.828-3.311c0.814-0.981,1.832-1.777,3.055-2.386c1.228-0.609,2.669-0.916,4.33-0.916
				c0.846,0,1.66,0.07,2.446,0.205c0.791,0.135,1.544,0.321,2.274,0.558c-0.051,0.493-0.079,0.972-0.079,1.446
				c0,0.34,0.014,0.679,0.042,1.014c0.023,0.34,0.051,0.679,0.088,1.018c-0.121,0.084-0.27,0.126-0.46,0.126
				c-0.321,0-0.488-0.126-0.507-0.381c-0.149-1.116-0.567-1.893-1.242-2.335c-0.679-0.442-1.581-0.66-2.716-0.66
				c-1.116,0-2.116,0.242-2.995,0.725c-0.879,0.479-1.628,1.135-2.246,1.967c-0.614,0.828-1.084,1.795-1.409,2.902
				c-0.321,1.111-0.479,2.283-0.479,3.516c0,0.916,0.121,1.739,0.367,2.474s0.586,1.363,1.028,1.879
				c0.437,0.516,0.977,0.916,1.609,1.204c0.637,0.288,1.353,0.433,2.144,0.433c1.153,0,2.06-0.237,2.73-0.712
				c0.67-0.474,1.246-1.232,1.739-2.283c0.116-0.27,0.321-0.405,0.609-0.405c0.102,0,0.205,0.019,0.316,0.06
				c0.112,0.042,0.181,0.084,0.214,0.116c-0.251,0.539-0.474,1.111-0.67,1.711c-0.195,0.6-0.395,1.274-0.595,2.018
				c-0.372,0.07-0.772,0.13-1.195,0.191c-0.423,0.06-0.846,0.116-1.27,0.163c-0.423,0.051-0.819,0.093-1.191,0.116
				C227.679,211.999,227.358,212.013,227.084,212.013L227.084,212.013z"/>
			<path fill="#FFFFFF" d="M242.64,212.013c-1.335,0-2.474-0.177-3.409-0.53c-0.939-0.358-1.707-0.842-2.297-1.46
				c-0.595-0.619-1.023-1.339-1.298-2.158c-0.27-0.819-0.405-1.702-0.405-2.651c0-1.237,0.205-2.465,0.609-3.693
				c0.405-1.228,1.014-2.33,1.828-3.311c0.814-0.981,1.832-1.777,3.055-2.386c1.228-0.609,2.669-0.916,4.33-0.916
				c0.846,0,1.66,0.07,2.446,0.205c0.791,0.135,1.544,0.321,2.274,0.558c-0.051,0.493-0.079,0.972-0.079,1.446
				c0,0.34,0.014,0.679,0.042,1.014c0.023,0.34,0.051,0.679,0.088,1.018c-0.121,0.084-0.274,0.126-0.46,0.126
				c-0.321,0-0.488-0.126-0.507-0.381c-0.149-1.116-0.567-1.893-1.242-2.335c-0.679-0.442-1.581-0.66-2.716-0.66
				c-1.116,0-2.116,0.242-2.995,0.725c-0.879,0.479-1.628,1.135-2.246,1.967c-0.619,0.828-1.084,1.795-1.409,2.902
				c-0.321,1.111-0.479,2.283-0.479,3.516c0,0.916,0.121,1.739,0.367,2.474c0.246,0.735,0.586,1.363,1.028,1.879
				c0.437,0.516,0.977,0.916,1.609,1.204c0.637,0.288,1.349,0.433,2.144,0.433c1.153,0,2.06-0.237,2.73-0.712
				c0.67-0.474,1.246-1.232,1.739-2.283c0.116-0.27,0.321-0.405,0.609-0.405c0.102,0,0.205,0.019,0.316,0.06
				c0.112,0.042,0.181,0.084,0.214,0.116c-0.251,0.539-0.474,1.111-0.67,1.711c-0.195,0.6-0.395,1.274-0.595,2.018
				c-0.372,0.07-0.772,0.13-1.195,0.191c-0.423,0.06-0.846,0.116-1.27,0.163c-0.423,0.051-0.819,0.093-1.191,0.116
				S242.914,212.013,242.64,212.013L242.64,212.013z"/>
			<path fill="#FFFFFF" d="M264.693,206.051c-0.149,0.846-0.419,1.632-0.8,2.358c-0.377,0.73-0.86,1.358-1.446,1.893
				c-0.581,0.53-1.265,0.949-2.042,1.256c-0.777,0.302-1.656,0.456-2.637,0.456c-0.967,0-1.804-0.153-2.516-0.47
				c-0.707-0.312-1.284-0.735-1.725-1.27c-0.437-0.53-0.735-1.163-0.888-1.888c-0.149-0.73-0.144-1.516,0.028-2.363l1.749-9.059
				c0.07-0.353-0.028-0.609-0.288-0.758c-0.265-0.153-0.581-0.246-0.953-0.279c-0.256-0.037-0.381-0.172-0.381-0.409
				c0-0.116,0.028-0.27,0.079-0.456c1.014,0.102,1.944,0.153,2.79,0.153c0.353,0,0.814-0.014,1.381-0.037
				c0.567-0.028,1.079-0.065,1.535-0.116c0.019,0.084,0.033,0.163,0.037,0.228c0.009,0.07,0.014,0.126,0.014,0.177
				c0,0.102-0.028,0.191-0.088,0.27c-0.06,0.074-0.158,0.121-0.293,0.14c-0.437,0.065-0.805,0.181-1.102,0.34
				c-0.298,0.163-0.479,0.405-0.544,0.725l-1.679,8.655c-0.116,0.642-0.144,1.265-0.088,1.874c0.06,0.609,0.228,1.158,0.498,1.637
				c0.27,0.484,0.646,0.874,1.13,1.167c0.479,0.298,1.084,0.446,1.814,0.446c0.609,0,1.195-0.088,1.763-0.265
				c0.567-0.181,1.093-0.465,1.572-0.865c0.484-0.395,0.902-0.916,1.256-1.563c0.358-0.642,0.628-1.437,0.814-2.381l1.651-8.655
				c0.065-0.34-0.019-0.595-0.256-0.763c-0.237-0.167-0.572-0.288-1.014-0.353c-0.205-0.019-0.307-0.153-0.307-0.409
				c0-0.051,0.005-0.107,0.014-0.177c0.009-0.065,0.023-0.144,0.037-0.228c0.507,0.051,0.925,0.088,1.246,0.116
				c0.321,0.023,0.651,0.037,0.991,0.037c0.302,0,0.637-0.009,1-0.028c0.363-0.014,0.767-0.051,1.204-0.098
				c0.019,0.084,0.037,0.158,0.051,0.228c0.019,0.065,0.028,0.126,0.028,0.177c0,0.219-0.112,0.344-0.33,0.381
				c-0.423,0.065-0.772,0.186-1.042,0.353s-0.442,0.405-0.507,0.712C266.447,196.94,264.693,206.051,264.693,206.051z"/>
			<path fill="#FFFFFF" d="M274.999,204.986c-0.07,0.539-0.177,0.893-0.33,1.065c-0.153,0.167-0.381,0.251-0.688,0.251h-5.023
				c0.07-0.539,0.172-0.893,0.316-1.065c0.144-0.167,0.377-0.251,0.698-0.251H274.999L274.999,204.986z"/>
			<path fill="#FFFFFF" d="M285.072,212.013c-1.335,0-2.474-0.177-3.414-0.53c-0.939-0.358-1.702-0.842-2.297-1.46
				c-0.591-0.619-1.023-1.339-1.293-2.158c-0.27-0.819-0.405-1.702-0.405-2.651c0-1.237,0.2-2.465,0.609-3.693
				c0.405-1.228,1.014-2.33,1.828-3.311c0.809-0.981,1.828-1.777,3.055-2.386c1.228-0.609,2.669-0.916,4.325-0.916
				c0.846,0,1.665,0.07,2.451,0.205c0.786,0.135,1.544,0.321,2.27,0.558c-0.047,0.493-0.074,0.972-0.074,1.446
				c0,0.34,0.014,0.679,0.037,1.014c0.028,0.34,0.056,0.679,0.088,1.018c-0.116,0.084-0.27,0.126-0.456,0.126
				c-0.321,0-0.488-0.126-0.507-0.381c-0.153-1.116-0.567-1.893-1.242-2.335c-0.679-0.442-1.586-0.66-2.716-0.66
				c-1.116,0-2.116,0.242-2.995,0.725c-0.879,0.479-1.628,1.135-2.246,1.967c-0.619,0.828-1.088,1.795-1.409,2.902
				c-0.321,1.111-0.484,2.283-0.484,3.516c0,0.916,0.126,1.739,0.372,2.474c0.242,0.735,0.586,1.363,1.028,1.879
				c0.437,0.516,0.977,0.916,1.609,1.204c0.632,0.288,1.349,0.433,2.144,0.433c1.149,0,2.06-0.237,2.73-0.712
				c0.665-0.474,1.246-1.232,1.735-2.283c0.121-0.27,0.326-0.405,0.609-0.405c0.102,0,0.209,0.019,0.321,0.06
				c0.107,0.042,0.181,0.084,0.214,0.116c-0.256,0.539-0.479,1.111-0.674,1.711c-0.191,0.6-0.391,1.274-0.595,2.018
				c-0.372,0.07-0.767,0.13-1.191,0.191c-0.423,0.06-0.846,0.116-1.27,0.163c-0.423,0.051-0.823,0.093-1.195,0.116
				C285.663,211.999,285.342,212.013,285.072,212.013L285.072,212.013z"/>
			<path fill="#FFFFFF" d="M306.391,196.963c0.065-0.335,0.009-0.586-0.177-0.749c-0.186-0.158-0.544-0.284-1.07-0.367
				c-0.237-0.051-0.353-0.167-0.353-0.353c0-0.051,0.009-0.116,0.023-0.191c0.019-0.074,0.037-0.149,0.051-0.214
				c0.507,0.033,1.014,0.065,1.511,0.098c0.498,0.037,0.953,0.051,1.358,0.051c0.353,0,0.786-0.009,1.293-0.037
				c0.507-0.023,0.991-0.065,1.446-0.112c0.037,0.135,0.051,0.27,0.051,0.405c0,0.205-0.107,0.312-0.33,0.33
				c-0.507,0.084-0.884,0.209-1.13,0.381c-0.242,0.167-0.4,0.423-0.47,0.758l-2.483,13.022c-0.07,0.335,0.005,0.581,0.214,0.735
				c0.214,0.153,0.572,0.27,1.079,0.353c0.219,0.051,0.33,0.177,0.33,0.381c0,0.102-0.019,0.237-0.051,0.405
				c-0.488-0.046-1.005-0.088-1.535-0.112c-0.535-0.028-1.009-0.037-1.432-0.037c-0.339,0-0.772,0.009-1.298,0.037
				c-0.521,0.023-1.014,0.065-1.47,0.112c-0.033-0.167-0.051-0.302-0.051-0.405c0-0.219,0.102-0.344,0.302-0.381
				c0.595-0.102,1.005-0.223,1.232-0.367c0.228-0.144,0.377-0.386,0.446-0.721l1.191-6.218h-7.208l-1.191,6.218
				c-0.07,0.335,0,0.581,0.2,0.735c0.205,0.153,0.586,0.27,1.144,0.353c0.219,0.019,0.33,0.144,0.33,0.381
				c0,0.102-0.019,0.237-0.051,0.405c-0.507-0.046-1.032-0.088-1.572-0.112c-0.544-0.028-1.023-0.037-1.446-0.037
				c-0.34,0-0.753,0.009-1.246,0.037c-0.488,0.023-0.953,0.065-1.395,0.112c-0.051-0.116-0.074-0.251-0.074-0.405
				c0-0.219,0.107-0.34,0.33-0.353c0.539-0.084,0.925-0.209,1.153-0.367c0.228-0.163,0.377-0.414,0.446-0.749l2.511-13.022
				c0.065-0.335,0.009-0.595-0.167-0.772c-0.177-0.177-0.535-0.307-1.079-0.395c-0.237-0.014-0.353-0.135-0.353-0.353
				c0-0.121,0.023-0.246,0.074-0.381c0.493,0.051,0.977,0.088,1.46,0.116c0.484,0.023,0.935,0.037,1.358,0.037
				c0.34,0,0.781-0.014,1.335-0.037c0.549-0.028,1.051-0.065,1.507-0.116c0.051,0.135,0.079,0.26,0.079,0.381
				c0,0.205-0.121,0.321-0.358,0.353c-0.539,0.088-0.939,0.219-1.191,0.395c-0.256,0.177-0.414,0.437-0.484,0.772l-1.144,5.813
				h7.208L306.391,196.963L306.391,196.963z"/>
			<path fill="#FFFFFF" d="M315.273,196.94c0.065-0.34-0.028-0.586-0.279-0.735c-0.256-0.153-0.586-0.256-0.991-0.307
				c-0.237-0.051-0.358-0.195-0.358-0.432c0-0.051,0.005-0.107,0.014-0.177c0.009-0.065,0.023-0.144,0.037-0.228
				c0.507,0.051,1.023,0.088,1.549,0.116c0.526,0.023,1.014,0.037,1.474,0.037h4.795c0.725,0,1.237-0.028,1.521-0.079
				c0.288-0.047,0.526-0.074,0.712-0.074c0.219,0,0.358,0.102,0.405,0.307c0.037,0.284,0.079,0.721,0.13,1.307
				c0.051,0.581,0.149,1.246,0.302,1.99c-0.065,0.033-0.153,0.07-0.251,0.116c-0.102,0.042-0.195,0.06-0.279,0.06
				c-0.223,0-0.367-0.102-0.432-0.302c-0.219-0.865-0.544-1.474-0.963-1.828c-0.423-0.358-1.06-0.535-1.907-0.535h-3.172
				l-1.27,6.622h3.479c0.372,0,0.642-0.126,0.814-0.377c0.167-0.256,0.321-0.605,0.456-1.042c0.033-0.084,0.079-0.153,0.139-0.205
				c0.056-0.051,0.153-0.074,0.288-0.074c0.153,0,0.316,0.033,0.484,0.102c-0.102,0.405-0.191,0.772-0.265,1.102
				c-0.074,0.33-0.144,0.665-0.205,1.005c-0.06,0.335-0.107,0.693-0.153,1.065c-0.042,0.372-0.079,0.795-0.112,1.27
				c-0.153,0.046-0.307,0.074-0.456,0.074c-0.154,0-0.26-0.042-0.321-0.126c-0.056-0.088-0.079-0.181-0.06-0.279
				c0.033-0.391,0-0.744-0.102-1.07c-0.102-0.321-0.34-0.479-0.712-0.479h-3.451l-1.191,6.292c-0.051,0.27-0.014,0.451,0.112,0.544
				c0.126,0.093,0.335,0.14,0.623,0.14h2.916c0.73,0,1.381-0.186,1.958-0.558c0.572-0.372,1.172-1.014,1.8-1.925
				c0.07-0.088,0.13-0.149,0.191-0.191c0.06-0.042,0.139-0.065,0.242-0.065c0.102,0,0.2,0.023,0.302,0.074
				c0.102,0.051,0.195,0.121,0.279,0.205c-0.084,0.167-0.167,0.349-0.251,0.535c-0.084,0.149-0.172,0.33-0.256,0.53
				c-0.084,0.205-0.167,0.409-0.251,0.609c-0.14,0.34-0.246,0.67-0.33,0.991c-0.088,0.321-0.172,0.549-0.256,0.684
				c-0.084,0.135-0.219,0.205-0.405,0.205c-0.288,0-0.577-0.023-0.865-0.065c-0.288-0.042-0.674-0.06-1.167-0.06h-5.99
				c-0.353,0-0.791,0.009-1.307,0.037c-0.516,0.023-1,0.065-1.456,0.112c-0.019-0.084-0.033-0.158-0.042-0.228
				c-0.005-0.065-0.009-0.126-0.009-0.177c0-0.084,0.023-0.167,0.074-0.251c0.051-0.088,0.144-0.14,0.279-0.153
				c0.526-0.084,0.916-0.214,1.167-0.381c0.256-0.167,0.405-0.4,0.456-0.684L315.273,196.94L315.273,196.94z"/>
			<path fill="#FFFFFF" d="M330.853,203.283l0.051-0.353l6.241-5.66c0.34-0.288,0.507-0.549,0.507-0.786
				c0-0.307-0.302-0.507-0.912-0.609c-0.237-0.051-0.353-0.177-0.353-0.381c0-0.121,0.014-0.265,0.051-0.433
				c0.488,0.051,0.912,0.088,1.265,0.116c0.358,0.023,0.753,0.037,1.195,0.037c0.372,0,0.735-0.014,1.088-0.037
				c0.358-0.028,0.749-0.065,1.167-0.116c0.019,0.084,0.033,0.163,0.042,0.228c0.005,0.07,0.009,0.126,0.009,0.177
				c0,0.223-0.107,0.358-0.33,0.409c-0.386,0.084-0.721,0.205-1,0.367c-0.279,0.158-0.539,0.349-0.777,0.572l-6.241,5.683
				l4.748,7.636c0.149,0.237,0.358,0.446,0.619,0.623c0.265,0.177,0.581,0.302,0.953,0.367c0.135,0.033,0.219,0.079,0.251,0.126
				c0.037,0.051,0.051,0.112,0.051,0.181c0,0.116-0.042,0.26-0.126,0.428c-0.963-0.098-1.767-0.149-2.409-0.149
				c-0.391,0-0.702-0.116-0.939-0.344c-0.237-0.228-0.502-0.563-0.786-1L330.853,203.283L330.853,203.283z M329.332,196.94
				c0.033-0.205,0.014-0.367-0.051-0.498c-0.07-0.126-0.167-0.228-0.293-0.302c-0.126-0.074-0.27-0.13-0.432-0.163
				c-0.158-0.037-0.316-0.06-0.47-0.079c-0.237-0.033-0.353-0.167-0.353-0.405c0-0.051,0.009-0.116,0.023-0.191
				c0.019-0.074,0.037-0.158,0.051-0.242c0.507,0.051,1.009,0.088,1.497,0.116c0.493,0.023,0.949,0.037,1.372,0.037
				c0.353,0,0.8-0.014,1.33-0.037c0.535-0.028,1.028-0.065,1.488-0.116c0.014,0.084,0.028,0.163,0.037,0.228
				c0.009,0.07,0.009,0.135,0.009,0.205c0,0.205-0.116,0.33-0.353,0.381c-0.442,0.065-0.809,0.177-1.102,0.33
				c-0.298,0.149-0.479,0.395-0.549,0.735l-2.511,13.045c-0.033,0.2-0.023,0.367,0.028,0.493c0.051,0.126,0.139,0.233,0.265,0.316
				c0.126,0.084,0.274,0.149,0.442,0.191c0.172,0.042,0.349,0.074,0.535,0.088c0.205,0.037,0.302,0.163,0.302,0.381
				c0,0.051,0,0.112-0.009,0.177c-0.009,0.07-0.023,0.144-0.037,0.228c-0.512-0.046-1.014-0.088-1.511-0.112
				c-0.498-0.028-0.963-0.037-1.386-0.037c-0.353,0-0.795,0.009-1.33,0.037c-0.535,0.023-1.028,0.065-1.484,0.112
				c-0.019-0.084-0.033-0.158-0.037-0.228c-0.009-0.065-0.014-0.126-0.014-0.177c0-0.219,0.102-0.344,0.302-0.381
				c0.46-0.065,0.842-0.181,1.158-0.34c0.312-0.163,0.502-0.414,0.567-0.749L329.332,196.94L329.332,196.94z"/>
		</g>
	</g>
	<g id="Stempel">
		<path id="Sichtfenster" fill="#7D7474" d="M562.831,195.819c0-2.018-1.637-3.66-3.655-3.66H363.282c-2.018,0-3.66,1.642-3.66,3.66
			v36.559c0,2.018,1.642,3.66,3.66,3.66h195.894c2.018,0,3.655-1.642,3.655-3.66V195.819z"/>
		<rect x="358.72" y="198.038" width="20.765" height="34.401"/>
		<path fill="#2A2727" d="M562.831,195.912c0-2.07-1.679-3.753-3.748-3.753H428.307v43.879h130.776c2.07,0,3.748-1.684,3.748-3.753
			V195.912L562.831,195.912z"/>
		<path fill="#FFFFFF" d="M428.307,192.159h-42.823c-3.116,0-5.646,2.53-5.646,5.646v32.517c0,3.121,2.53,5.651,5.646,5.651h42.823
			V192.159z"/>
		<rect x="400.636" y="192.159" width="10.585" height="43.874"/>
		<rect x="417.666" y="192.159" width="10.585" height="43.874"/>
		<path fill="#FFFFFF" d="M428.307,236.038v-43.879l16.189,15.51l0.047,15.063L428.307,236.038L428.307,236.038z"/>
	</g>
	<g id="Bedienkopf">
		<path fill="#423F3F" d="M589.777,302.263c0-19.454-15.794-35.247-35.242-35.247h-35.591c-19.454,0-35.247,15.794-35.247,35.247
			v64.393c0,19.454,15.794,35.242,35.247,35.242h35.591c19.449,0,35.242-15.789,35.242-35.242V302.263z"/>
		<path d="M588.377,302.984c0-18.882-15.328-34.21-34.21-34.21h-34.391c-18.882,0-34.21,15.328-34.21,34.21v62.304
			c0,18.882,15.328,34.21,34.21,34.21h34.391c18.882,0,34.21-15.328,34.21-34.21V302.984z"/>
		<path fill="#9D9292" d="M585.247,304.523c0-17.412-14.133-31.545-31.545-31.545h-33.587c-17.412,0-31.545,14.133-31.545,31.545
			v59.835c0,17.412,14.133,31.545,31.545,31.545h33.587c17.412,0,31.545-14.133,31.545-31.545V304.523z"/>
		<path d="M582.857,305.425c0-16.663-13.529-30.192-30.187-30.192h-31.513c-16.663,0-30.192,13.529-30.192,30.192v57.677
			c0,16.663,13.529,30.192,30.192,30.192h31.513c16.659,0,30.187-13.529,30.187-30.192V305.425z"/>
		<path fill="#FFFFFF" d="M537.011,288.818l9.301,11.454h-18.602L537.011,288.818z"/>
		<path fill="#FFFFFF" d="M537.839,383.053l-9.297-11.459h18.598L537.839,383.053z"/>
		<path fill="#766D6D" d="M570.435,329.283c0-8.153-6.618-14.77-14.766-14.77h-37.893c-8.153,0-14.766,6.618-14.766,14.77v14.891
			c0,8.153,6.613,14.77,14.766,14.77h37.893c8.148,0,14.766-6.618,14.766-14.77V329.283z"/>
		<path d="M559.813,327.385c0-4.995-4.055-9.05-9.05-9.05h-27.867c-4.999,0-9.055,4.055-9.055,9.05v18.105
			c0,4.995,4.055,9.05,9.055,9.05h27.867c4.995,0,9.05-4.055,9.05-9.05V327.385z"/>
		<circle fill="#FFFFFF" cx="537.094" cy="335.733" r="7.106"/>
		
			<path fill="none" stroke="#FFFFFF" stroke-width="1.25" stroke-linecap="round" stroke-linejoin="round" stroke-miterlimit="1.5" d="
			M556.478,329.441c0-3.827-3.107-6.929-6.929-6.929h-25.155c-3.827,0-6.929,3.102-6.929,6.929V343.3
			c0,3.823,3.102,6.925,6.929,6.925h25.155c3.823,0,6.929-3.102,6.929-6.925V329.441z"/>
	</g>
	<g id="Untere-Linie" serif:id="Untere Linie">
		<path fill="#FFFFFF" d="M324.128,391.471c3.641,0,6.599,2.958,6.599,6.599c0,3.641-2.958,6.595-6.599,6.595
			c-3.641,0-6.599-2.953-6.599-6.595C317.529,394.429,320.487,391.471,324.128,391.471z M324.128,392.485
			c3.079,0,5.581,2.502,5.581,5.585c0,3.079-2.502,5.581-5.581,5.581c-3.083,0-5.585-2.502-5.585-5.581
			C318.543,394.987,321.045,392.485,324.128,392.485z"/>
		
			<circle fill="#FFFFFF" stroke="#FFFFFF" stroke-width="1.25" stroke-linecap="round" stroke-linejoin="round" stroke-miterlimit="1.5" cx="296.587" cy="397.554" r="1.014"/>
		
			<circle fill="#FFFFFF" stroke="#FFFFFF" stroke-width="1.25" stroke-linecap="round" stroke-linejoin="round" stroke-miterlimit="1.5" cx="303.8" cy="397.549" r="1.014"/>
		
			<circle fill="#FFFFFF" stroke="#FFFFFF" stroke-width="1.25" stroke-linecap="round" stroke-linejoin="round" stroke-miterlimit="1.5" cx="311.576" cy="397.666" r="1.014"/>
		
			<circle fill="#FFFFFF" stroke="#FFFFFF" stroke-width="1.25" stroke-linecap="round" stroke-linejoin="round" stroke-miterlimit="1.5" cx="334.904" cy="398.07" r="1.014"/>
		
			<circle fill="#FFFFFF" stroke="#FFFFFF" stroke-width="1.25" stroke-linecap="round" stroke-linejoin="round" stroke-miterlimit="1.5" cx="342.517" cy="397.973" r="1.014"/>
		
			<circle fill="#FFFFFF" stroke="#FFFFFF" stroke-width="1.25" stroke-linecap="round" stroke-linejoin="round" stroke-miterlimit="1.5" cx="350.181" cy="398.07" r="1.014"/>
		<rect x="321.082" y="397.256" fill="#FFFFFF" width="6.092" height="1.423"/>
		<path fill="#FFFFFF" d="M324.84,401.014v-6.092h-1.423v6.092H324.84z"/>
		<path fill="#FFFFFF" d="M335.485,408.674c0.274-0.27,0.274-0.712,0.005-0.986l-4.832-4.906c-0.27-0.274-0.712-0.274-0.986-0.005
			l-0.995,0.977c-0.274,0.27-0.274,0.712-0.005,0.986l4.832,4.906c0.27,0.274,0.712,0.279,0.986,0.009L335.485,408.674z"/>
	</g>
	<g id="Display">
		<path fill="#484343" d="M458.303,280.447c0-3.209-2.604-5.813-5.813-5.813H196.831c-3.209,0-5.809,2.604-5.809,5.813v90.394
			c0,3.209,2.6,5.813,5.809,5.813H452.49c3.209,0,5.813-2.604,5.813-5.813V280.447L458.303,280.447z"/>
		<path d="M455.574,282.651c0-3.055-2.483-5.534-5.539-5.534H199.231c-3.055,0-5.539,2.479-5.539,5.534v86.13
			c0,3.055,2.483,5.539,5.539,5.539h250.804c3.055,0,5.539-2.483,5.539-5.539V282.651L455.574,282.651z"/>
	</g>
	<g id="Laufbalken">
		<path fill="#FFFFFF" d="M451.923,362.126c0-0.819-0.665-1.484-1.484-1.484H198.166c-0.819,0-1.484,0.665-1.484,1.484v7.208
			c0,0.819,0.665,1.488,1.484,1.488h252.273c0.819,0,1.484-0.67,1.484-1.488V362.126z"/>
		<path fill="#23211F" d="M449.891,363.507c0-0.549-0.446-0.995-1-0.995H199.547c-0.553,0-1,0.446-1,0.995v4.832
			c0,0.549,0.446,0.995,1,0.995h249.343c0.553,0,1-0.446,1-0.995V363.507z"/>
		<rect x="199.957" y="363.684" fill="#F37E31" width="224.807" height="4.409"/>
		<rect x="423.242" y="363.623" fill="#5C5454" width="25.323" height="4.465"/>
		<g>
			<path fill="#A79999" d="M429.032,361.707l-4.218,4.241l1.311,1.321l4.218-4.246L429.032,361.707z"/>
			<path fill="#A79999" d="M426.126,364.576l4.218,4.246l-1.311,1.316l-4.218-4.246L426.126,364.576z"/>
		</g>
	</g>
	<path fill="#6AAE47" d="M452.355,285.683l-8.799,4.995v-9.99L452.355,285.683L452.355,285.683z"/>
	<g id="Datum">
		<path fill="#FFFFFF" d="M342.517,285.939c0-1.609,0.153-2.907,0.46-3.888c0.307-0.986,0.763-1.739,1.372-2.274
			c0.605-0.535,1.367-0.8,2.288-0.8c0.679,0,1.274,0.149,1.786,0.442s0.935,0.721,1.265,1.274c0.335,0.553,0.595,1.228,0.786,2.028
			c0.191,0.795,0.284,1.87,0.284,3.218c0,1.6-0.153,2.888-0.456,3.869c-0.307,0.981-0.763,1.744-1.367,2.279
			c-0.605,0.535-1.372,0.805-2.297,0.805c-1.218,0-2.177-0.474-2.869-1.414C342.935,290.343,342.517,288.497,342.517,285.939
			L342.517,285.939z M344.112,285.939c0,2.237,0.242,3.725,0.725,4.465c0.488,0.739,1.088,1.111,1.8,1.111
			c0.712,0,1.311-0.372,1.8-1.116c0.484-0.744,0.725-2.228,0.725-4.46c0-2.242-0.242-3.734-0.725-4.469
			c-0.488-0.739-1.093-1.107-1.818-1.107c-0.712,0-1.279,0.326-1.707,0.977C344.377,282.167,344.112,283.702,344.112,285.939
			L344.112,285.939z"/>
		<path fill="#FFFFFF" d="M352.344,289.06l1.553-0.223c0.177,0.949,0.479,1.632,0.907,2.051c0.428,0.419,0.953,0.628,1.567,0.628
			c0.73,0,1.344-0.274,1.846-0.819c0.507-0.544,0.758-1.218,0.758-2.028c0-0.767-0.233-1.4-0.698-1.897
			c-0.47-0.498-1.06-0.749-1.777-0.749c-0.293,0-0.66,0.06-1.098,0.186l0.172-1.47c0.107,0.014,0.186,0.019,0.251,0.019
			c0.66,0,1.256-0.186,1.786-0.558c0.526-0.372,0.791-0.944,0.791-1.716c0-0.614-0.191-1.125-0.577-1.525
			c-0.386-0.405-0.884-0.605-1.493-0.605c-0.6,0-1.102,0.205-1.507,0.614c-0.4,0.409-0.66,1.023-0.777,1.842l-1.549-0.298
			c0.186-1.125,0.619-1.99,1.293-2.609c0.67-0.619,1.507-0.925,2.507-0.925c0.688,0,1.325,0.163,1.907,0.479
			c0.581,0.321,1.023,0.753,1.33,1.307c0.307,0.549,0.46,1.135,0.46,1.758c0,0.586-0.144,1.121-0.437,1.604
			c-0.293,0.484-0.73,0.87-1.302,1.153c0.744,0.186,1.325,0.572,1.739,1.158c0.414,0.586,0.623,1.316,0.623,2.195
			c0,1.191-0.405,2.2-1.209,3.028c-0.805,0.828-1.823,1.242-3.051,1.242c-1.111,0-2.032-0.358-2.762-1.07
			C352.864,291.12,352.446,290.194,352.344,289.06L352.344,289.06z"/>
		<path fill="#FFFFFF" d="M366.835,288.79l1.511-0.223c0.037,1.042,0.219,1.753,0.539,2.139c0.326,0.386,0.767,0.577,1.339,0.577
			c0.419,0,0.781-0.102,1.084-0.312c0.307-0.209,0.516-0.488,0.633-0.846c0.112-0.353,0.172-0.925,0.172-1.707v-9.385h1.67v9.287
			c0,1.139-0.126,2.018-0.381,2.646c-0.256,0.628-0.66,1.102-1.214,1.432c-0.558,0.326-1.209,0.493-1.953,0.493
			c-1.112,0-1.958-0.344-2.549-1.032C367.095,291.171,366.812,290.148,366.835,288.79L366.835,288.79z"/>
		<path fill="#FFFFFF" d="M382.294,291.441c-0.577,0.526-1.13,0.898-1.66,1.116c-0.53,0.214-1.102,0.326-1.711,0.326
			c-1.005,0-1.777-0.265-2.316-0.795c-0.544-0.53-0.814-1.209-0.814-2.032c0-0.484,0.102-0.925,0.307-1.325
			c0.205-0.4,0.47-0.716,0.805-0.958c0.33-0.242,0.702-0.428,1.116-0.549c0.302-0.088,0.763-0.172,1.377-0.251
			c1.256-0.163,2.176-0.353,2.767-0.577c0.005-0.228,0.009-0.377,0.009-0.437c0-0.684-0.144-1.163-0.437-1.442
			c-0.4-0.377-0.986-0.567-1.767-0.567c-0.73,0-1.27,0.139-1.618,0.414c-0.349,0.279-0.605,0.763-0.772,1.465l-1.516-0.223
			c0.135-0.702,0.363-1.265,0.679-1.697c0.316-0.428,0.772-0.763,1.372-0.995c0.595-0.228,1.288-0.344,2.079-0.344
			c0.781,0,1.414,0.098,1.902,0.293c0.488,0.2,0.851,0.451,1.079,0.749c0.233,0.302,0.391,0.684,0.484,1.139
			c0.051,0.284,0.079,0.8,0.079,1.544v2.228c0,1.558,0.033,2.539,0.098,2.953c0.065,0.414,0.195,0.805,0.391,1.186h-1.618
			C382.442,292.31,382.34,291.906,382.294,291.441L382.294,291.441z M382.163,287.706c-0.563,0.246-1.409,0.456-2.535,0.628
			c-0.637,0.102-1.088,0.214-1.353,0.335c-0.265,0.126-0.47,0.307-0.609,0.544c-0.144,0.242-0.219,0.507-0.219,0.795
			c0,0.446,0.158,0.819,0.47,1.116c0.316,0.298,0.772,0.446,1.377,0.446c0.595,0,1.13-0.14,1.595-0.423
			c0.465-0.284,0.805-0.67,1.023-1.158c0.167-0.377,0.251-0.935,0.251-1.67V287.706L382.163,287.706z"/>
		<path fill="#FFFFFF" d="M386.14,292.659v-9.869h1.395v1.4c0.674-1.084,1.646-1.623,2.916-1.623c0.549,0,1.056,0.107,1.521,0.316
			c0.46,0.214,0.809,0.498,1.037,0.842c0.233,0.349,0.391,0.763,0.484,1.237c0.056,0.312,0.088,0.851,0.088,1.628v6.069h-1.553
			v-6.004c0-0.684-0.06-1.191-0.181-1.53c-0.121-0.34-0.335-0.605-0.642-0.809c-0.307-0.2-0.67-0.302-1.084-0.302
			c-0.66,0-1.232,0.228-1.711,0.679c-0.479,0.451-0.721,1.311-0.721,2.576v5.39H386.14L386.14,292.659z"/>
		<path fill="#FFFFFF" d="M408.588,291.05v1.609h-8.353c-0.014-0.405,0.047-0.791,0.181-1.163c0.209-0.614,0.549-1.218,1.018-1.814
			s1.144-1.284,2.032-2.06c1.372-1.214,2.302-2.176,2.786-2.888c0.479-0.707,0.721-1.381,0.721-2.009
			c0-0.665-0.219-1.223-0.66-1.679c-0.437-0.456-1.009-0.684-1.716-0.684c-0.749,0-1.349,0.242-1.795,0.725
			c-0.446,0.484-0.674,1.153-0.679,2.004l-1.595-0.177c0.107-1.279,0.516-2.256,1.232-2.93c0.712-0.674,1.67-1.009,2.869-1.009
			c1.214,0,2.172,0.363,2.879,1.088c0.707,0.725,1.06,1.623,1.06,2.697c0,0.544-0.102,1.079-0.312,1.604
			c-0.205,0.526-0.549,1.084-1.028,1.665c-0.479,0.581-1.279,1.381-2.39,2.395c-0.935,0.846-1.53,1.418-1.795,1.716
			c-0.265,0.302-0.484,0.605-0.656,0.907L408.588,291.05L408.588,291.05z"/>
		<path fill="#FFFFFF" d="M410.253,285.939c0-1.609,0.153-2.907,0.46-3.888c0.307-0.986,0.763-1.739,1.372-2.274
			c0.605-0.535,1.367-0.8,2.288-0.8c0.679,0,1.27,0.149,1.781,0.442s0.935,0.721,1.27,1.274c0.335,0.553,0.595,1.228,0.786,2.028
			c0.186,0.795,0.284,1.87,0.284,3.218c0,1.6-0.153,2.888-0.456,3.869c-0.307,0.981-0.763,1.744-1.367,2.279
			c-0.609,0.535-1.372,0.805-2.297,0.805c-1.218,0-2.176-0.474-2.874-1.414C410.667,290.343,410.253,288.497,410.253,285.939
			L410.253,285.939z M411.848,285.939c0,2.237,0.242,3.725,0.725,4.465c0.488,0.739,1.084,1.111,1.8,1.111
			c0.712,0,1.311-0.372,1.795-1.116c0.488-0.744,0.73-2.228,0.73-4.46c0-2.242-0.242-3.734-0.73-4.469
			c-0.484-0.739-1.088-1.107-1.814-1.107c-0.712,0-1.284,0.326-1.707,0.977C412.113,282.167,411.848,283.702,411.848,285.939
			L411.848,285.939z"/>
		<path fill="#FFFFFF" d="M428.228,291.05v1.609h-8.357c-0.009-0.405,0.051-0.791,0.181-1.163c0.214-0.614,0.553-1.218,1.023-1.814
			s1.144-1.284,2.032-2.06c1.372-1.214,2.302-2.176,2.781-2.888c0.484-0.707,0.725-1.381,0.725-2.009
			c0-0.665-0.219-1.223-0.66-1.679c-0.437-0.456-1.014-0.684-1.721-0.684c-0.744,0-1.344,0.242-1.79,0.725
			c-0.451,0.484-0.674,1.153-0.684,2.004l-1.595-0.177c0.112-1.279,0.521-2.256,1.237-2.93c0.712-0.674,1.67-1.009,2.869-1.009
			c1.214,0,2.172,0.363,2.879,1.088c0.707,0.725,1.06,1.623,1.06,2.697c0,0.544-0.102,1.079-0.312,1.604
			c-0.205,0.526-0.549,1.084-1.028,1.665c-0.479,0.581-1.279,1.381-2.395,2.395c-0.93,0.846-1.525,1.418-1.79,1.716
			c-0.265,0.302-0.484,0.605-0.656,0.907L428.228,291.05L428.228,291.05z"/>
		<path fill="#FFFFFF" d="M429.888,285.939c0-1.609,0.158-2.907,0.465-3.888c0.307-0.986,0.763-1.739,1.367-2.274
			c0.609-0.535,1.372-0.8,2.293-0.8c0.674,0,1.27,0.149,1.781,0.442c0.512,0.293,0.935,0.721,1.27,1.274
			c0.33,0.553,0.595,1.228,0.781,2.028c0.191,0.795,0.288,1.87,0.288,3.218c0,1.6-0.153,2.888-0.46,3.869
			c-0.302,0.981-0.758,1.744-1.363,2.279c-0.609,0.535-1.377,0.805-2.297,0.805c-1.218,0-2.177-0.474-2.874-1.414
			C430.307,290.343,429.888,288.497,429.888,285.939L429.888,285.939z M431.483,285.939c0,2.237,0.246,3.725,0.73,4.465
			c0.484,0.739,1.084,1.111,1.8,1.111c0.712,0,1.311-0.372,1.795-1.116c0.484-0.744,0.73-2.228,0.73-4.46
			c0-2.242-0.246-3.734-0.73-4.469c-0.484-0.739-1.088-1.107-1.814-1.107c-0.712,0-1.284,0.326-1.707,0.977
			C431.753,282.167,431.483,283.702,431.483,285.939L431.483,285.939z"/>
	</g>
	<g>
		<path fill="#FFFFFF" d="M199.761,292.543l-1.693,0.005v-10.185c-0.409,0.367-0.944,0.735-1.604,1.107
			c-0.66,0.367-1.256,0.646-1.786,0.832v-1.544c0.949-0.428,1.777-0.939,2.488-1.539c0.707-0.6,1.209-1.181,1.502-1.744l1.093-0.005
			V292.543z"/>
		<path fill="#FFFFFF" d="M204.1,286.106c0-1.539,0.167-2.781,0.502-3.721c0.335-0.939,0.832-1.665,1.497-2.176
			c0.66-0.512,1.493-0.772,2.497-0.772c0.739-0.005,1.391,0.135,1.949,0.414c0.558,0.279,1.018,0.684,1.381,1.209
			c0.363,0.53,0.651,1.172,0.856,1.935c0.209,0.758,0.312,1.786,0.312,3.074c0,1.53-0.167,2.762-0.498,3.702
			c-0.335,0.939-0.832,1.665-1.493,2.181c-0.66,0.516-1.498,0.772-2.507,0.777c-1.33,0.005-2.376-0.442-3.135-1.339
			C204.556,290.311,204.1,288.548,204.1,286.106L204.1,286.106z M205.84,286.097c0,2.139,0.265,3.558,0.795,4.265
			c0.53,0.707,1.186,1.056,1.963,1.056c0.777-0.005,1.432-0.363,1.963-1.074s0.795-2.135,0.795-4.265
			c0-2.144-0.265-3.567-0.795-4.269c-0.53-0.702-1.191-1.051-1.981-1.051c-0.777,0.005-1.4,0.316-1.865,0.939
			C206.133,282.493,205.84,283.963,205.84,286.097z"/>
		<path fill="#FFFFFF" d="M215.759,284.869v-1.818l1.925-0.009v1.823L215.759,284.869z M215.759,292.482v-1.823l1.925-0.005v1.818
			L215.759,292.482z"/>
		<path fill="#FFFFFF" d="M229.07,290.892v1.539l-9.115,0.033c-0.014-0.386,0.051-0.753,0.195-1.111
			c0.233-0.586,0.605-1.163,1.116-1.735c0.512-0.572,1.251-1.228,2.218-1.981c1.497-1.163,2.511-2.088,3.037-2.767
			c0.526-0.679,0.791-1.321,0.791-1.925c0-0.632-0.242-1.167-0.721-1.6c-0.479-0.432-1.102-0.651-1.874-0.646
			c-0.819,0.005-1.47,0.237-1.958,0.702c-0.488,0.46-0.739,1.102-0.744,1.921l-1.739-0.163c0.116-1.228,0.567-2.163,1.344-2.809
			c0.777-0.646,1.823-0.967,3.135-0.977c1.321-0.005,2.372,0.34,3.139,1.028c0.772,0.693,1.158,1.549,1.158,2.572
			c0,0.521-0.112,1.032-0.335,1.539c-0.228,0.502-0.605,1.032-1.125,1.59c-0.526,0.563-1.395,1.33-2.614,2.302
			c-1.014,0.809-1.665,1.358-1.958,1.646c-0.288,0.288-0.526,0.577-0.712,0.87C222.307,290.92,229.07,290.892,229.07,290.892z"/>
		<path fill="#FFFFFF" d="M237.269,292.399l-1.697,0.005v-10.185c-0.405,0.372-0.939,0.739-1.604,1.107
			c-0.66,0.372-1.256,0.651-1.781,0.832v-1.544c0.949-0.423,1.777-0.935,2.483-1.535c0.712-0.6,1.214-1.186,1.507-1.749l1.093-0.005
			C237.269,279.326,237.269,292.399,237.269,292.399z"/>
	</g>
	<g id="Batterie">
		<rect x="324.705" y="283.744" fill="#999D97" width="1.474" height="3.972"/>
		<path fill="#999D97" d="M324.589,281.316v9.459h-16.71v-9.459H324.589z M322.235,283.195h-11.715v5.446h11.715V283.195z"/>
	</g>
	<g id="Flugzeug">
		<rect x="273.785" y="291.185" fill="#FFFFFF" width="4.604" height="2.046"/>
		<path fill="#FFFFFF" d="M282.84,288.125l-5.869-2.99l-0.851,1.595l5.869,2.995L282.84,288.125L282.84,288.125z"/>
		<path fill="#FFFFFF" d="M276.087,286.73l-5.869,2.995l-0.851-1.6l5.864-2.99L276.087,286.73L276.087,286.73z"/>
		<rect x="275.083" y="280.675" fill="#FFFFFF" width="2.074" height="12.557"/>
		<path fill="#FFFFFF" d="M277.157,279.805c0-0.288-0.233-0.521-0.516-0.521h-1.037c-0.288,0-0.521,0.233-0.521,0.521v10.041
			c0,0.288,0.233,0.521,0.521,0.521h1.037c0.284,0,0.516-0.233,0.516-0.521V279.805z"/>
	</g>
	<g id="U-h" serif:id="U/h">
		<path fill="#FFFFFF" d="M288.997,307.471h2.176v9.38c0,1.632-0.186,2.925-0.563,3.888c-0.372,0.958-1.046,1.739-2.023,2.339
			c-0.972,0.605-2.251,0.902-3.837,0.902c-1.539,0-2.795-0.26-3.776-0.786c-0.977-0.521-1.674-1.284-2.093-2.274
			c-0.419-0.995-0.628-2.349-0.628-4.069v-9.38h2.172v9.366c0,1.414,0.135,2.451,0.4,3.121c0.265,0.665,0.721,1.181,1.367,1.544
			c0.642,0.363,1.432,0.544,2.367,0.544c1.6,0,2.739-0.358,3.418-1.074c0.679-0.716,1.018-2.093,1.018-4.134L288.997,307.471
			L288.997,307.471z"/>
		<path fill="#FFFFFF" d="M293.02,323.981l4.762-16.789h1.614l-4.748,16.789H293.02z"/>
		<path fill="#FFFFFF" d="M300.908,323.707v-16.235h2.018v5.823c0.944-1.074,2.13-1.614,3.562-1.614
			c0.884,0,1.651,0.172,2.297,0.516c0.651,0.339,1.116,0.814,1.395,1.423c0.279,0.605,0.423,1.484,0.423,2.632v7.455h-2.018v-7.455
			c0-0.995-0.219-1.721-0.656-2.177c-0.437-0.451-1.056-0.679-1.856-0.679c-0.595,0-1.158,0.153-1.684,0.46
			c-0.53,0.307-0.902,0.721-1.13,1.246c-0.223,0.521-0.335,1.246-0.335,2.167v6.436H300.908L300.908,323.707z"/>
	</g>
	<g id="BR-Profil" serif:id="BR Profil">
		<path fill="#FFFFFF" d="M318.794,323.707v-15.138h5.083c1.037,0,1.865,0.153,2.493,0.46c0.623,0.302,1.116,0.777,1.47,1.414
			c0.353,0.637,0.53,1.302,0.53,1.995c0,0.651-0.153,1.26-0.47,1.828c-0.316,0.572-0.791,1.032-1.423,1.386
			c0.819,0.27,1.451,0.725,1.888,1.372c0.442,0.646,0.66,1.414,0.66,2.293c0,0.712-0.13,1.367-0.4,1.977
			c-0.27,0.609-0.6,1.079-0.995,1.409c-0.395,0.33-0.888,0.581-1.484,0.749c-0.595,0.172-1.321,0.256-2.186,0.256H318.794
			L318.794,323.707z M320.585,314.926h2.935c0.795,0,1.363-0.056,1.707-0.172c0.456-0.153,0.8-0.405,1.032-0.753
			c0.233-0.353,0.349-0.795,0.349-1.325c0-0.502-0.112-0.944-0.326-1.325c-0.214-0.381-0.526-0.642-0.925-0.786
			c-0.4-0.139-1.088-0.209-2.06-0.209h-2.711V314.926L320.585,314.926z M320.585,321.921h3.376c0.581,0,0.986-0.028,1.218-0.074
			c0.414-0.084,0.758-0.219,1.037-0.414c0.279-0.191,0.507-0.47,0.684-0.842c0.181-0.367,0.27-0.791,0.27-1.274
			c0-0.563-0.13-1.056-0.391-1.47c-0.256-0.419-0.614-0.712-1.074-0.879c-0.46-0.167-1.121-0.251-1.986-0.251h-3.135
			L320.585,321.921L320.585,321.921z"/>
		<path fill="#FFFFFF" d="M331.523,323.707v-15.138h6.013c1.204,0,2.125,0.135,2.753,0.405c0.628,0.274,1.13,0.753,1.507,1.442
			c0.377,0.688,0.563,1.451,0.563,2.283c0,1.074-0.312,1.977-0.93,2.716c-0.623,0.735-1.586,1.205-2.888,1.404
			c0.474,0.256,0.837,0.507,1.084,0.753c0.526,0.535,1.018,1.209,1.488,2.014l2.358,4.12h-2.256l-1.795-3.148
			c-0.526-0.911-0.953-1.604-1.293-2.088c-0.339-0.484-0.642-0.819-0.911-1.014c-0.27-0.191-0.539-0.326-0.819-0.4
			c-0.205-0.051-0.535-0.074-1-0.074h-2.079v6.725H331.523z M333.318,315.247h3.855c0.819,0,1.46-0.093,1.925-0.284
			c0.46-0.186,0.814-0.493,1.051-0.907c0.242-0.419,0.363-0.87,0.363-1.358c0-0.716-0.233-1.307-0.698-1.767
			c-0.465-0.46-1.2-0.693-2.209-0.693h-4.288V315.247L333.318,315.247z"/>
		<rect x="344.312" y="317.294" fill="#FFFFFF" width="5.111" height="1.87"/>
		<path fill="#FFFFFF" d="M351.479,323.707v-15.138h5.111c0.902,0,1.586,0.047,2.06,0.144c0.67,0.121,1.228,0.358,1.674,0.707
			c0.451,0.349,0.814,0.832,1.088,1.46c0.274,0.628,0.409,1.316,0.409,2.065c0,1.288-0.363,2.376-1.098,3.269
			s-2.06,1.335-3.976,1.335h-3.479v6.157L351.479,323.707L351.479,323.707z M353.269,315.764h3.507c1.158,0,1.981-0.237,2.469-0.721
			c0.484-0.484,0.73-1.163,0.73-2.037c0-0.632-0.144-1.172-0.432-1.623c-0.284-0.451-0.66-0.749-1.13-0.893
			c-0.302-0.093-0.86-0.135-1.674-0.135h-3.469V315.764L353.269,315.764z"/>
		<path fill="#FFFFFF" d="M363.877,323.707v-10.966h1.497v1.66c0.381-0.777,0.735-1.288,1.06-1.539
			c0.321-0.246,0.679-0.372,1.065-0.372c0.563,0,1.13,0.2,1.711,0.6l-0.572,1.725c-0.409-0.27-0.814-0.405-1.223-0.405
			c-0.363,0-0.688,0.126-0.977,0.367c-0.293,0.246-0.498,0.586-0.623,1.018c-0.181,0.66-0.274,1.386-0.274,2.167v5.744
			L363.877,323.707L363.877,323.707z"/>
		<path fill="#FFFFFF" d="M369.579,318.224c0-2.032,0.507-3.534,1.521-4.516c0.842-0.809,1.87-1.218,3.088-1.218
			c1.349,0,2.451,0.498,3.307,1.484c0.86,0.986,1.288,2.353,1.288,4.093c0,1.414-0.191,2.525-0.572,3.335
			c-0.377,0.805-0.93,1.437-1.651,1.884c-0.725,0.446-1.516,0.67-2.372,0.67c-1.377,0-2.488-0.493-3.334-1.474
			C370.007,321.493,369.579,320.075,369.579,318.224L369.579,318.224z M371.29,318.224c0,1.405,0.274,2.456,0.823,3.153
			c0.549,0.698,1.242,1.046,2.074,1.046c0.823,0,1.511-0.349,2.06-1.051c0.549-0.702,0.823-1.772,0.823-3.214
			c0-1.353-0.274-2.381-0.828-3.079c-0.553-0.702-1.237-1.051-2.056-1.051c-0.832,0-1.525,0.349-2.074,1.046
			C371.565,315.768,371.29,316.819,371.29,318.224L371.29,318.224z"/>
		<path fill="#FFFFFF" d="M381.178,323.707v-9.534h-1.484v-1.432h1.484v-1.065c0-1.088,0.209-1.921,0.628-2.497
			c0.419-0.581,1.079-0.87,1.986-0.87c0.609,0,1.177,0.079,1.693,0.237l-0.26,1.572c-0.326-0.065-0.623-0.093-0.893-0.093
			c-0.577,0-0.967,0.126-1.177,0.381c-0.209,0.256-0.316,0.795-0.316,1.623v0.712h1.907v1.432h-1.907v9.534L381.178,323.707
			L381.178,323.707z M386,310.704v-2.135h1.665v2.135H386z M386,323.707v-10.966h1.665v10.966H386z"/>
		<rect x="390.163" y="308.569" fill="#FFFFFF" width="1.665" height="15.138"/>
		<path fill="#FFFFFF" d="M405.472,323.707h-1.66v-11.845c-0.405,0.428-0.93,0.856-1.577,1.279
			c-0.651,0.428-1.237,0.749-1.753,0.963v-1.8c0.93-0.488,1.744-1.079,2.442-1.772c0.693-0.698,1.191-1.372,1.479-2.028h1.07
			V323.707L405.472,323.707z"/>
	</g>
	<g id="Basal-Zeichwen" serif:id="Basal Zeichwen">
		<rect x="211.29" y="311.201" fill="#FFFFFF" width="3.246" height="11.148"/>
		<rect x="207.509" y="311.001" fill="#FFFFFF" width="7.032" height="3.246"/>
		<rect x="207.565" y="304.579" fill="#FFFFFF" width="3.246" height="8.05"/>
		<rect x="197.389" y="313.085" fill="#FFFFFF" width="3.246" height="9.12"/>
		<rect x="200.468" y="306.02" fill="#FFFFFF" width="3.167" height="9.957"/>
		<rect x="200.468" y="304.579" fill="#FFFFFF" width="8.655" height="2.883"/>
	</g>
	<g id="Basalrate">
		<path fill="#FFFFFF" d="M229.614,323.335h-2.507v-16.31c-0.6,0.591-1.391,1.177-2.367,1.767c-0.981,0.586-1.86,1.028-2.637,1.321
			v-2.474c1.4-0.674,2.623-1.488,3.669-2.446c1.051-0.958,1.79-1.888,2.228-2.786h1.614V323.335z"/>
		<rect x="237.427" y="320.423" fill="#FFFFFF" width="2.851" height="2.916"/>
		<path fill="#FFFFFF" d="M243.952,317.833l2.502-0.339c0.288,1.451,0.777,2.493,1.47,3.135c0.688,0.637,1.53,0.958,2.521,0.958
			c1.181,0,2.172-0.414,2.986-1.251c0.809-0.832,1.214-1.865,1.214-3.097c0-1.177-0.372-2.149-1.125-2.911
			c-0.749-0.763-1.707-1.144-2.865-1.144c-0.47,0-1.06,0.098-1.767,0.284l0.279-2.246c0.167,0.019,0.302,0.028,0.405,0.028
			c1.065,0,2.028-0.284,2.879-0.851c0.851-0.567,1.279-1.446,1.279-2.632c0-0.935-0.312-1.716-0.93-2.33
			c-0.623-0.614-1.423-0.925-2.409-0.925c-0.972,0-1.781,0.316-2.432,0.939c-0.651,0.628-1.065,1.563-1.251,2.814l-2.502-0.451
			c0.302-1.716,1-3.046,2.083-3.99c1.084-0.944,2.437-1.414,4.046-1.414c1.116,0,2.139,0.242,3.074,0.73
			c0.939,0.488,1.656,1.153,2.149,2c0.498,0.842,0.744,1.739,0.744,2.688c0,0.898-0.237,1.721-0.707,2.46
			c-0.474,0.739-1.172,1.325-2.102,1.763c1.205,0.284,2.144,0.874,2.809,1.767c0.67,0.898,1.005,2.018,1.005,3.362
			c0,1.823-0.651,3.362-1.949,4.632c-1.298,1.265-2.939,1.897-4.925,1.897c-1.786,0-3.274-0.544-4.455-1.637
			C244.793,320.982,244.119,319.568,243.952,317.833z"/>
		<path fill="#FFFFFF" d="M259.778,317.875l2.628-0.228c0.195,1.311,0.646,2.293,1.358,2.953c0.707,0.656,1.563,0.986,2.563,0.986
			c1.209,0,2.228-0.465,3.06-1.391c0.837-0.93,1.251-2.163,1.251-3.697c0-1.46-0.4-2.614-1.2-3.455
			c-0.805-0.846-1.856-1.265-3.153-1.265c-0.805,0-1.535,0.186-2.181,0.558c-0.651,0.377-1.158,0.86-1.53,1.46l-2.349-0.316
			l1.972-10.706h10.138v2.446H264.2l-1.098,5.604c1.223-0.874,2.507-1.311,3.851-1.311c1.781,0,3.283,0.633,4.506,1.893
			c1.223,1.26,1.837,2.883,1.837,4.865c0,1.883-0.539,3.516-1.614,4.888c-1.307,1.688-3.093,2.535-5.358,2.535
			c-1.851,0-3.367-0.53-4.539-1.595C260.615,321.037,259.945,319.628,259.778,317.875L259.778,317.875z"/>
	</g>
	<g id="Bolus-Zeichen" serif:id="Bolus Zeichen">
		<rect x="197.217" y="339.072" fill="#F37E31" width="13.719" height="2.855"/>
		<rect x="210.765" y="353.545" fill="#F37E31" width="3.083" height="2.842"/>
		<rect x="208.002" y="341.928" fill="#F37E31" width="2.935" height="14.468"/>
		<rect x="197.217" y="341.928" fill="#F37E31" width="2.842" height="14.468"/>
	</g>
	<g id="IOB">
		<path fill="#FFFFFF" d="M233.888,355.047v2.404h-12.998c-0.019-0.605,0.074-1.181,0.279-1.739c0.33-0.916,0.86-1.818,1.591-2.707
			c0.73-0.893,1.781-1.921,3.162-3.088c2.135-1.818,3.581-3.255,4.33-4.316c0.753-1.06,1.13-2.065,1.13-3.009
			c0-0.995-0.344-1.828-1.028-2.511c-0.684-0.679-1.577-1.023-2.674-1.023c-1.167,0-2.097,0.363-2.795,1.088
			c-0.698,0.721-1.051,1.721-1.06,3l-2.479-0.265c0.167-1.916,0.809-3.376,1.916-4.386c1.111-1.005,2.6-1.507,4.469-1.507
			c1.888,0,3.381,0.544,4.483,1.628c1.098,1.084,1.651,2.428,1.651,4.032c0,0.814-0.163,1.614-0.484,2.404
			c-0.326,0.786-0.856,1.614-1.604,2.488c-0.749,0.87-1.99,2.065-3.725,3.586c-1.446,1.26-2.376,2.116-2.79,2.563
			c-0.409,0.451-0.749,0.902-1.018,1.358L233.888,355.047L233.888,355.047z"/>
		<rect x="237.836" y="354.601" fill="#FFFFFF" width="2.749" height="2.851"/>
		<path fill="#FFFFFF" d="M244.128,352.071l2.414-0.335c0.279,1.418,0.749,2.442,1.414,3.069c0.67,0.623,1.479,0.935,2.437,0.935
			c1.135,0,2.097-0.405,2.879-1.223c0.781-0.814,1.172-1.823,1.172-3.028c0-1.149-0.363-2.097-1.084-2.846
			c-0.725-0.744-1.646-1.116-2.767-1.116c-0.456,0-1.023,0.093-1.702,0.279l0.27-2.2c0.158,0.019,0.288,0.028,0.386,0.028
			c1.028,0,1.958-0.279,2.781-0.832c0.819-0.558,1.232-1.414,1.232-2.572c0-0.916-0.298-1.679-0.898-2.279
			c-0.6-0.605-1.377-0.907-2.321-0.907c-0.939,0-1.725,0.307-2.349,0.921c-0.628,0.609-1.032,1.53-1.209,2.753l-2.414-0.446
			c0.293-1.679,0.963-2.976,2.009-3.902c1.046-0.921,2.349-1.381,3.907-1.381c1.074,0,2.06,0.237,2.967,0.716
			c0.902,0.479,1.591,1.13,2.07,1.953c0.479,0.823,0.721,1.702,0.721,2.628c0,0.879-0.228,1.684-0.684,2.404
			c-0.46,0.721-1.135,1.298-2.028,1.725c1.163,0.274,2.065,0.851,2.711,1.73c0.642,0.874,0.963,1.972,0.963,3.288
			c0,1.777-0.623,3.288-1.874,4.525c-1.256,1.237-2.837,1.856-4.753,1.856c-1.725,0-3.158-0.535-4.302-1.6
			C244.937,355.15,244.286,353.768,244.128,352.071L244.128,352.071z"/>
		<path fill="#FFFFFF" d="M259.396,352.113l2.535-0.223c0.191,1.279,0.623,2.242,1.311,2.888c0.684,0.642,1.507,0.963,2.474,0.963
			c1.163,0,2.149-0.451,2.953-1.363c0.805-0.907,1.205-2.111,1.205-3.614c0-1.428-0.386-2.553-1.158-3.376
			c-0.777-0.823-1.786-1.237-3.042-1.237c-0.777,0-1.479,0.181-2.107,0.549c-0.623,0.367-1.116,0.842-1.474,1.423l-2.27-0.302
			l1.907-10.469h9.78v2.39h-7.85l-1.056,5.478c1.177-0.856,2.418-1.279,3.716-1.279c1.716,0,3.167,0.614,4.348,1.846
			c1.177,1.232,1.767,2.818,1.767,4.753c0,1.846-0.516,3.441-1.553,4.785c-1.265,1.646-2.986,2.474-5.167,2.474
			c-1.79,0-3.251-0.521-4.381-1.558C260.205,355.205,259.559,353.829,259.396,352.113L259.396,352.113z"/>
		<path fill="#FFFFFF" d="M288.565,337.073h2.604v11.775c0,2.046-0.223,3.674-0.67,4.879c-0.446,1.205-1.256,2.186-2.423,2.939
			c-1.167,0.758-2.697,1.135-4.595,1.135c-1.842,0-3.348-0.33-4.52-0.986c-1.172-0.66-2.009-1.614-2.511-2.86
			c-0.502-1.246-0.753-2.948-0.753-5.106v-11.775h2.604v11.761c0,1.767,0.158,3.074,0.479,3.911c0.316,0.842,0.86,1.488,1.637,1.939
			c0.772,0.456,1.716,0.684,2.837,0.684c1.911,0,3.279-0.451,4.093-1.349c0.814-0.902,1.218-2.628,1.218-5.185L288.565,337.073
			L288.565,337.073z"/>
	</g>
	<g id="Tageszeit">
		<path fill="#FFFFFF" d="M386.605,357.452h-2.586v-15.998c-0.623,0.577-1.437,1.153-2.446,1.73
			c-1.014,0.577-1.921,1.009-2.725,1.298v-2.428c1.446-0.66,2.711-1.46,3.795-2.4c1.079-0.939,1.846-1.851,2.297-2.735h1.665
			V357.452z"/>
		<path fill="#FFFFFF" d="M406.816,355.038v2.414h-13.919c-0.019-0.605,0.084-1.186,0.302-1.744
			c0.353-0.921,0.921-1.828,1.702-2.721c0.781-0.893,1.907-1.925,3.381-3.097c2.288-1.823,3.837-3.265,4.641-4.33
			s1.204-2.07,1.204-3.018c0-0.995-0.363-1.837-1.098-2.521c-0.73-0.684-1.688-1.023-2.865-1.023c-1.246,0-2.242,0.363-2.99,1.088
			c-0.744,0.725-1.121,1.73-1.135,3.014l-2.656-0.265c0.181-1.925,0.865-3.395,2.056-4.4c1.186-1.009,2.781-1.516,4.781-1.516
			c2.023,0,3.623,0.544,4.799,1.632c1.177,1.088,1.767,2.437,1.767,4.046c0,0.819-0.172,1.623-0.516,2.414
			c-0.344,0.791-0.921,1.618-1.716,2.493c-0.8,0.874-2.13,2.074-3.99,3.6c-1.549,1.265-2.544,2.125-2.986,2.576
			c-0.442,0.446-0.805,0.902-1.093,1.358L406.816,355.038L406.816,355.038z"/>
		<path fill="#FFFFFF" d="M411.025,345.5v-2.86h2.944v2.86H411.025z M411.025,357.452v-2.86h2.944v2.86H411.025z"/>
		<path fill="#FFFFFF" d="M417.764,347.365c0-2.414,0.256-4.362,0.767-5.837c0.512-1.474,1.274-2.609,2.283-3.409
			c1.009-0.8,2.283-1.2,3.814-1.2c1.13,0,2.121,0.223,2.972,0.665c0.856,0.442,1.558,1.074,2.116,1.907
			c0.553,0.832,0.991,1.846,1.307,3.042c0.316,1.195,0.474,2.809,0.474,4.832c0,2.4-0.256,4.339-0.763,5.813
			c-0.507,1.47-1.265,2.609-2.279,3.414c-1.009,0.805-2.283,1.209-3.827,1.209c-2.028,0-3.623-0.707-4.781-2.121
			C418.457,353.978,417.764,351.206,417.764,347.365L417.764,347.365z M420.419,347.365c0,3.358,0.405,5.595,1.214,6.702
			c0.809,1.111,1.809,1.67,2.995,1.67c1.186,0,2.186-0.558,2.995-1.674c0.809-1.116,1.214-3.348,1.214-6.697
			c0-3.362-0.405-5.599-1.214-6.706s-1.818-1.66-3.023-1.66c-1.186,0-2.135,0.488-2.846,1.465
			C420.866,341.709,420.419,344.011,420.419,347.365L420.419,347.365z"/>
		<path fill="#FFFFFF" d="M442.412,357.452v-4.897h-9.134v-2.302l9.608-13.25h2.111v13.25h2.846v2.302h-2.846v4.897H442.412
			L442.412,357.452z M442.412,350.253v-9.218l-6.595,9.218H442.412z"/>
	</g>
	<ellipse fill="#AAA2A2" cx="364.733" cy="347.402" rx="7.869" ry="7.915"/>
</g>
</svg>
