<?xml version="1.0" encoding="utf-8"?>
<!-- Generator: Adobe Illustrator 17.0.0, SVG Export Plug-In . SVG Version: 6.00 Build 0)  -->
<!DOCTYPE svg PUBLIC "-//W3C//DTD SVG 1.1//EN" "http://www.w3.org/Graphics/SVG/1.1/DTD/svg11.dtd">
<svg version="1.1" id="Layer_1" xmlns="http://www.w3.org/2000/svg" xmlns:xlink="http://www.w3.org/1999/xlink" x="0px" y="0px"
	 width="128px" height="128px" viewBox="0 0 128 128" enable-background="new 0 0 128 128" xml:space="preserve">
<g>
	<path fill="#1F1E1C" d="M121.885,46.425L121.885,46.425c-1.121-11.256-7.977-16.822-18.048-17.723
		c-26.206-1.134-52.242-2.149-79.498,0.663C14.103,29.846,6.337,36.163,6.337,46.371c-0.031,5.646-0.513,11.429-0.524,16.598
		C5.65,69.07,5.805,75.3,6.392,81.704C6.17,91.992,13.802,98.755,24.338,99.031c25.629,0.668,52.058,1.982,79.165,0.387
		c9.557-0.563,17.299-6.526,18.161-17.491C122.127,70.064,122.592,58.14,121.885,46.425z M71.655,78.291
		c0,0.62-0.504,1.123-1.123,1.123H19.668c-0.62,0-1.123-0.504-1.123-1.123V60.823c0-0.62,0.504-1.122,1.123-1.122h50.864
		c0.62,0,1.123,0.503,1.123,1.122V78.291z M52.938,51.37c-0.409,0-0.742-0.333-0.742-0.742v-7.414c0-0.409,0.333-0.742,0.742-0.742
		h39.728c0.409,0,0.741,0.333,0.741,0.742v7.414c0,0.409-0.332,0.742-0.741,0.742H52.938z M97.468,77.139
		c0,3.379-2.744,6.123-6.122,6.123h-6.391c-3.379,0-6.123-2.744-6.123-6.123V65.442c0-3.379,2.744-6.123,6.123-6.123h6.391
		c3.378,0,6.122,2.744,6.122,6.123V77.139z M110.727,97.49l-1.405,0.459V30.033l1.405,0.501V97.49z"/>
	<g id="Stempel_1_">
		<rect x="52.084" y="43.752" fill="#010101" width="4.284" height="6.338"/>
		<path fill="#FFFFFF" d="M66.125,42.471h-8.685c-0.632,0-1.145,0.513-1.145,1.145v6.595c0,0.633,0.513,1.146,1.145,1.146h8.685
			V42.471z"/>
		<rect x="60.513" y="42.471" fill="#010101" width="2.147" height="8.898"/>
		<rect x="63.967" y="42.471" fill="#010101" width="2.147" height="8.898"/>
		<path fill="#FFFFFF" d="M66.125,51.37v-8.899l3.293,2.698l0,3.502L66.125,51.37L66.125,51.37z"/>
	</g>
	<path fill="#A29A9A" d="M90.547,37.38H26.481c-6.921,0-12.54,5.619-12.54,12.541v29.905c0,6.921,5.619,12.54,12.54,12.54h64.066
		c6.922,0,12.541-5.619,12.541-12.54V49.921C103.089,43,97.469,37.38,90.547,37.38z M50.687,41.107h44.229v11.627H50.687V41.107z
		 M71.655,78.291c0,0.62-0.504,1.123-1.123,1.123H19.668c-0.62,0-1.123-0.504-1.123-1.123V60.823c0-0.62,0.504-1.122,1.123-1.122
		h50.864c0.62,0,1.123,0.503,1.123,1.122V78.291z M97.468,77.139c0,3.379-2.744,6.123-6.122,6.123h-6.391
		c-3.379,0-6.123-2.744-6.123-6.123V65.442c0-3.379,2.744-6.123,6.123-6.123h6.391c3.378,0,6.122,2.744,6.122,6.123V77.139z"/>
	<path fill="#010101" d="M90.192,37.761H26.768c-6.824,0-12.364,5.539-12.364,12.363v29.483c0,6.823,5.54,12.363,12.364,12.363
		h63.424c6.824,0,12.363-5.54,12.363-12.363V50.124C102.555,43.3,97.016,37.761,90.192,37.761z M52.196,43.214
		c0-0.409,0.333-0.742,0.742-0.742h39.728c0.409,0,0.741,0.333,0.741,0.742v7.414c0,0.409-0.332,0.742-0.741,0.742H52.938
		c-0.409,0-0.742-0.333-0.742-0.742V43.214z M71.655,78.291c0,0.62-0.504,1.123-1.123,1.123H19.668c-0.62,0-1.123-0.504-1.123-1.123
		V60.823c0-0.62,0.504-1.122,1.123-1.122h50.864c0.62,0,1.123,0.503,1.123,1.122V78.291z M97.468,77.139
		c0,3.379-2.744,6.123-6.122,6.123h-6.391c-3.379,0-6.123-2.744-6.123-6.123V65.442c0-3.379,2.744-6.123,6.123-6.123h6.391
		c3.378,0,6.122,2.744,6.122,6.123V77.139z"/>
	<g id="Accuchek-insight_1_" serif:id="Accuchek insight">
		<g>
			<path fill="#FFFFFF" d="M28.551,48.425c0.012-0.06,0.002-0.105-0.029-0.133c-0.032-0.028-0.095-0.049-0.191-0.061
				c-0.042-0.008-0.063-0.033-0.063-0.072c0-0.008,0.002-0.019,0.005-0.029c0.003-0.01,0.006-0.024,0.009-0.038
				c0.09,0.008,0.178,0.015,0.265,0.02c0.087,0.005,0.168,0.007,0.243,0.007c0.063,0,0.14-0.002,0.229-0.007
				c0.091-0.005,0.175-0.011,0.257-0.02c0.006,0.029,0.009,0.052,0.009,0.067c0,0.042-0.022,0.064-0.063,0.068
				c-0.096,0.011-0.164,0.033-0.203,0.062c-0.039,0.03-0.064,0.075-0.076,0.136l-0.445,2.313c-0.012,0.06-0.002,0.104,0.031,0.131
				c0.033,0.026,0.101,0.047,0.203,0.062c0.039,0.009,0.058,0.032,0.058,0.068c0,0.018-0.003,0.041-0.009,0.072
				c-0.09-0.008-0.181-0.015-0.274-0.02c-0.092-0.005-0.177-0.007-0.252-0.007c-0.063,0-0.139,0.002-0.227,0.007
				c-0.089,0.005-0.174,0.011-0.255,0.02c-0.006-0.03-0.008-0.054-0.008-0.072c0-0.036,0.018-0.058,0.054-0.063
				c0.096-0.015,0.165-0.037,0.207-0.065c0.042-0.028,0.069-0.073,0.08-0.133L28.551,48.425L28.551,48.425z"/>
			<path fill="#FFFFFF" d="M30.886,49.685c0.018-0.081,0.027-0.149,0.027-0.203c0-0.087-0.042-0.13-0.126-0.13
				c-0.044,0-0.1,0.025-0.166,0.074c-0.066,0.05-0.135,0.114-0.207,0.193c-0.072,0.08-0.143,0.169-0.213,0.268
				c-0.071,0.099-0.133,0.2-0.187,0.302c-0.027,0.051-0.054,0.108-0.079,0.169c-0.025,0.061-0.048,0.124-0.067,0.189
				c-0.02,0.065-0.035,0.128-0.045,0.191c-0.01,0.063-0.016,0.122-0.016,0.175c0,0.042,0.005,0.083,0.013,0.122
				c-0.113,0.012-0.232,0.035-0.356,0.068c-0.024-0.015-0.036-0.033-0.036-0.055c0-0.006,0.002-0.018,0.005-0.038
				s0.006-0.036,0.009-0.047c0.069-0.348,0.123-0.622,0.161-0.823c0.04-0.202,0.069-0.354,0.088-0.457
				c0.02-0.103,0.032-0.171,0.037-0.202c0.004-0.032,0.007-0.051,0.007-0.057c0-0.036-0.012-0.054-0.036-0.054
				c-0.012,0-0.03,0.005-0.055,0.015l-0.148,0.063c-0.025,0.01-0.042,0.016-0.054,0.016c-0.015,0-0.028-0.009-0.039-0.027
				c-0.01-0.018-0.019-0.039-0.025-0.063c0.054-0.033,0.118-0.068,0.191-0.106c0.074-0.037,0.144-0.072,0.213-0.103
				c0.069-0.032,0.129-0.058,0.18-0.079s0.084-0.031,0.099-0.031c0.021,0,0.039,0.005,0.054,0.015
				c0.015,0.01,0.023,0.028,0.023,0.052c0,0.009-0.001,0.021-0.002,0.034c-0.002,0.013-0.004,0.027-0.007,0.042l-0.162,0.784h0.018
				c0.078-0.132,0.159-0.256,0.243-0.37c0.084-0.114,0.169-0.212,0.254-0.294c0.086-0.083,0.172-0.147,0.259-0.193
				c0.087-0.047,0.175-0.07,0.265-0.07c0.084,0,0.151,0.021,0.2,0.062c0.05,0.042,0.075,0.111,0.075,0.207
				c0,0.036-0.003,0.078-0.008,0.126c-0.007,0.047-0.014,0.095-0.023,0.143l-0.23,1.08c-0.008,0.042-0.013,0.071-0.013,0.086
				c0,0.039,0.018,0.058,0.054,0.058c0.018,0,0.04-0.006,0.063-0.016c0.025-0.01,0.047-0.022,0.07-0.036
				c0.023-0.013,0.042-0.025,0.061-0.036c0.018-0.01,0.033-0.016,0.044-0.016c0.03,0,0.051,0.03,0.063,0.091
				c-0.054,0.039-0.109,0.075-0.166,0.11c-0.058,0.034-0.114,0.065-0.169,0.091c-0.056,0.027-0.108,0.049-0.156,0.066
				c-0.048,0.016-0.087,0.025-0.117,0.025c-0.033,0-0.064-0.007-0.092-0.021c-0.028-0.013-0.042-0.045-0.042-0.096
				c0-0.009,0.001-0.024,0.005-0.042c0.003-0.02,0.006-0.037,0.008-0.052L30.886,49.685L30.886,49.685z"/>
			<path fill="#FFFFFF" d="M32.902,49.549c-0.033-0.003-0.054-0.01-0.063-0.025c-0.008-0.013-0.015-0.029-0.018-0.047
				c-0.015-0.09-0.049-0.159-0.104-0.209c-0.054-0.049-0.127-0.074-0.221-0.074c-0.095,0-0.178,0.023-0.247,0.07
				c-0.069,0.046-0.104,0.113-0.104,0.2c0,0.059,0.026,0.121,0.079,0.182c0.052,0.061,0.114,0.124,0.187,0.187
				c0.054,0.048,0.111,0.097,0.171,0.149c0.06,0.051,0.114,0.103,0.162,0.155c0.048,0.053,0.088,0.108,0.119,0.164
				c0.032,0.058,0.047,0.116,0.047,0.175c0,0.088-0.019,0.169-0.058,0.243c-0.039,0.075-0.091,0.141-0.159,0.196
				c-0.068,0.056-0.147,0.099-0.239,0.132c-0.091,0.033-0.188,0.05-0.29,0.05c-0.105,0-0.207-0.009-0.306-0.027
				s-0.192-0.046-0.279-0.085c0.025-0.091,0.042-0.174,0.057-0.25c0.013-0.076,0.023-0.163,0.029-0.259h0.044
				c0.073,0,0.108,0.025,0.108,0.077c-0.006,0.125,0.024,0.224,0.088,0.292c0.064,0.069,0.154,0.103,0.268,0.103
				c0.117,0,0.213-0.03,0.288-0.091c0.075-0.062,0.113-0.142,0.113-0.241c0-0.044-0.011-0.088-0.034-0.13
				c-0.023-0.042-0.052-0.082-0.088-0.119c-0.036-0.038-0.076-0.075-0.122-0.113c-0.045-0.038-0.091-0.075-0.14-0.114
				c-0.09-0.075-0.172-0.154-0.245-0.237c-0.074-0.082-0.11-0.177-0.11-0.286c0-0.081,0.019-0.156,0.057-0.225
				c0.037-0.069,0.089-0.127,0.153-0.177c0.064-0.049,0.14-0.089,0.225-0.117c0.085-0.028,0.175-0.042,0.272-0.042
				c0.174,0,0.338,0.041,0.49,0.121c-0.015,0.045-0.027,0.103-0.038,0.172c-0.01,0.069-0.019,0.138-0.025,0.207L32.902,49.549
				L32.902,49.549z"/>
			<path fill="#FFFFFF" d="M33.951,48.573c-0.058,0-0.102-0.017-0.135-0.052c-0.033-0.034-0.05-0.08-0.05-0.137
				c0-0.081,0.027-0.154,0.083-0.219c0.056-0.064,0.123-0.096,0.201-0.096c0.059,0,0.103,0.019,0.128,0.058
				c0.025,0.039,0.038,0.089,0.038,0.148c0,0.075-0.025,0.143-0.076,0.205C34.089,48.542,34.026,48.573,33.951,48.573z
				 M33.721,50.674c-0.003,0.012-0.006,0.028-0.008,0.047c-0.003,0.02-0.005,0.034-0.005,0.043c0,0.036,0.018,0.054,0.054,0.054
				c0.022,0,0.043-0.006,0.065-0.016c0.023-0.01,0.045-0.022,0.068-0.036c0.023-0.013,0.042-0.025,0.06-0.036
				c0.019-0.01,0.033-0.016,0.045-0.016c0.03,0,0.051,0.03,0.063,0.091c-0.051,0.039-0.106,0.075-0.164,0.11
				c-0.058,0.034-0.115,0.065-0.169,0.091c-0.054,0.027-0.105,0.049-0.153,0.066c-0.048,0.016-0.088,0.025-0.117,0.025
				c-0.033,0-0.065-0.007-0.095-0.021c-0.029-0.013-0.044-0.045-0.044-0.096c0-0.009,0.001-0.025,0.004-0.047
				c0.004-0.023,0.007-0.039,0.009-0.047c0.066-0.322,0.119-0.577,0.158-0.768s0.068-0.336,0.088-0.437
				c0.02-0.1,0.032-0.167,0.039-0.2c0.006-0.033,0.008-0.053,0.008-0.058c0-0.036-0.013-0.054-0.041-0.054
				c-0.012,0-0.03,0.005-0.054,0.015c-0.025,0.01-0.05,0.022-0.076,0.032c-0.027,0.01-0.052,0.021-0.075,0.031
				c-0.023,0.01-0.04,0.016-0.052,0.016c-0.018,0-0.031-0.009-0.041-0.027c-0.008-0.018-0.016-0.039-0.023-0.063
				c0.055-0.029,0.117-0.063,0.19-0.101c0.072-0.038,0.141-0.073,0.209-0.106c0.067-0.033,0.127-0.06,0.18-0.081
				c0.052-0.021,0.088-0.031,0.106-0.031c0.051,0,0.076,0.025,0.076,0.076c0,0.021-0.003,0.043-0.009,0.067L33.721,50.674
				L33.721,50.674z"/>
			<path fill="#FFFFFF" d="M35.747,49.274c-0.037-0.011-0.078-0.022-0.126-0.029c-0.048-0.008-0.093-0.011-0.135-0.011
				c-0.129,0-0.241,0.033-0.338,0.099s-0.176,0.157-0.241,0.271c-0.065,0.114-0.113,0.247-0.144,0.4
				c-0.031,0.154-0.047,0.317-0.047,0.491c0,0.11,0.015,0.191,0.045,0.241c0.029,0.049,0.075,0.075,0.135,0.075
				c0.054,0,0.112-0.028,0.175-0.084c0.063-0.056,0.126-0.127,0.191-0.216c0.064-0.089,0.125-0.188,0.184-0.299
				c0.058-0.111,0.11-0.224,0.156-0.338c0.045-0.114,0.08-0.224,0.106-0.328C35.734,49.439,35.747,49.35,35.747,49.274
				L35.747,49.274z M34.328,51.682c0.042,0.091,0.107,0.166,0.194,0.227c0.087,0.061,0.181,0.092,0.283,0.092
				c0.126,0,0.238-0.052,0.333-0.156c0.096-0.103,0.165-0.254,0.207-0.452l0.221-1.08h-0.018c-0.126,0.264-0.265,0.46-0.417,0.589
				c-0.151,0.129-0.296,0.193-0.434,0.193c-0.045,0-0.091-0.007-0.135-0.021c-0.045-0.013-0.084-0.037-0.117-0.072
				c-0.033-0.034-0.06-0.081-0.081-0.14c-0.022-0.058-0.032-0.134-0.032-0.227c0-0.242,0.037-0.462,0.11-0.659
				c0.074-0.196,0.169-0.363,0.286-0.499c0.117-0.137,0.247-0.242,0.39-0.315c0.142-0.074,0.281-0.11,0.416-0.11
				c0.106,0,0.202,0.004,0.29,0.013c0.089,0.008,0.192,0.025,0.313,0.049l-0.414,2.116c-0.033,0.171-0.089,0.316-0.167,0.434
				c-0.078,0.119-0.165,0.217-0.261,0.293c-0.095,0.076-0.197,0.132-0.304,0.166c-0.107,0.035-0.205,0.052-0.294,0.052
				c-0.225,0-0.401-0.03-0.527-0.09c0.022-0.066,0.038-0.124,0.05-0.172s0.023-0.11,0.031-0.189L34.328,51.682L34.328,51.682z"/>
			<path fill="#FFFFFF" d="M36.912,48.253c0-0.015-0.002-0.03-0.007-0.044c-0.005-0.015-0.017-0.023-0.038-0.023
				c-0.009,0-0.025,0.002-0.047,0.007c-0.023,0.005-0.046,0.008-0.07,0.013c-0.025,0.005-0.047,0.008-0.068,0.011
				c-0.021,0.003-0.036,0.005-0.045,0.005c-0.041,0-0.063-0.031-0.063-0.094c0.136-0.036,0.26-0.073,0.376-0.11
				c0.115-0.038,0.23-0.079,0.344-0.124c0.036,0.024,0.054,0.052,0.054,0.085c0,0.012-0.001,0.025-0.005,0.039
				c-0.003,0.013-0.006,0.025-0.008,0.034l-0.383,1.931h0.014c0.08-0.132,0.161-0.256,0.242-0.37
				c0.081-0.114,0.164-0.212,0.248-0.294c0.084-0.083,0.169-0.147,0.257-0.193c0.087-0.047,0.174-0.07,0.26-0.07
				c0.088,0,0.158,0.021,0.209,0.062c0.053,0.042,0.079,0.111,0.079,0.207c0,0.036-0.003,0.078-0.009,0.126
				c-0.006,0.047-0.013,0.095-0.023,0.143l-0.229,1.08c-0.003,0.012-0.006,0.027-0.008,0.045c-0.004,0.018-0.005,0.031-0.005,0.041
				c0,0.039,0.018,0.058,0.054,0.058c0.018,0,0.039-0.006,0.063-0.016c0.024-0.01,0.047-0.022,0.07-0.036
				c0.023-0.013,0.042-0.025,0.06-0.036c0.018-0.01,0.033-0.016,0.045-0.016c0.03,0,0.051,0.03,0.063,0.091
				c-0.055,0.039-0.109,0.075-0.167,0.11c-0.057,0.034-0.113,0.065-0.169,0.091c-0.056,0.027-0.107,0.049-0.153,0.066
				c-0.046,0.016-0.085,0.025-0.115,0.025c-0.033,0-0.064-0.007-0.094-0.021c-0.03-0.013-0.045-0.045-0.045-0.096
				c0-0.009,0.002-0.025,0.005-0.047c0.003-0.023,0.007-0.039,0.009-0.047l0.252-1.202c0.018-0.084,0.027-0.152,0.027-0.203
				c0-0.087-0.042-0.13-0.126-0.13c-0.042,0-0.094,0.022-0.158,0.067c-0.063,0.045-0.13,0.106-0.2,0.182
				c-0.071,0.076-0.142,0.166-0.214,0.268c-0.072,0.102-0.14,0.208-0.203,0.32c-0.026,0.051-0.053,0.108-0.078,0.169
				c-0.025,0.061-0.047,0.125-0.065,0.191c-0.019,0.066-0.033,0.13-0.043,0.193c-0.01,0.063-0.015,0.12-0.015,0.171
				c0,0.042,0.004,0.083,0.013,0.122c-0.114,0.012-0.233,0.035-0.356,0.068c-0.027-0.015-0.041-0.033-0.041-0.055
				c0-0.011,0.002-0.025,0.005-0.042c0.003-0.016,0.006-0.031,0.008-0.042l0.437-2.25c0.018-0.087,0.031-0.174,0.041-0.258
				C36.908,48.368,36.912,48.301,36.912,48.253L36.912,48.253z"/>
			<path fill="#FFFFFF" d="M39.108,49.032c0.024-0.114,0.036-0.206,0.036-0.274c0-0.04-0.005-0.08-0.013-0.122
				c0.057-0.009,0.117-0.018,0.18-0.027c0.062-0.008,0.125-0.023,0.189-0.041c0.024,0.018,0.036,0.036,0.036,0.055
				c0,0.006-0.001,0.018-0.002,0.036c-0.002,0.018-0.004,0.033-0.007,0.044l-0.077,0.406h0.464c-0.009,0.027-0.018,0.06-0.027,0.099
				c-0.008,0.039-0.016,0.075-0.023,0.108c-0.075-0.011-0.151-0.021-0.229-0.026c-0.078-0.007-0.152-0.01-0.221-0.014l-0.247,1.404
				c-0.009,0.045-0.013,0.076-0.013,0.094c0,0.073,0.043,0.108,0.13,0.108c0.045,0,0.086-0.006,0.124-0.016
				c0.038-0.01,0.072-0.023,0.102-0.038c0.026-0.012,0.05-0.024,0.069-0.034c0.02-0.01,0.036-0.016,0.048-0.016
				c0.033,0,0.052,0.028,0.058,0.086c-0.093,0.072-0.194,0.129-0.304,0.171c-0.11,0.042-0.213,0.063-0.308,0.063
				c-0.108,0-0.185-0.017-0.23-0.052c-0.044-0.035-0.067-0.086-0.067-0.156c0-0.033,0.003-0.064,0.008-0.094l0.284-1.535H38.74
				c0.006-0.051,0.015-0.09,0.029-0.115c0.013-0.025,0.037-0.038,0.07-0.038h0.257L39.108,49.032L39.108,49.032z"/>
		</g>
		<g>
			<path fill="#FFFFFF" d="M22.548,45.016l-0.201-1.2l-0.649,1.2C21.699,45.016,22.548,45.016,22.548,45.016z M21.138,46.055
				c-0.025,0.048-0.037,0.088-0.037,0.118c0,0.041,0.024,0.072,0.07,0.091s0.118,0.035,0.214,0.049
				c0.061,0.01,0.092,0.036,0.092,0.077c0,0.017-0.004,0.042-0.01,0.076c-0.103-0.009-0.198-0.018-0.286-0.023
				c-0.088-0.006-0.179-0.008-0.275-0.008c-0.069,0-0.14,0.002-0.213,0.005c-0.075,0.004-0.156,0.012-0.245,0.025
				c-0.003-0.013-0.007-0.027-0.01-0.041c-0.003-0.014-0.005-0.025-0.005-0.036c0-0.045,0.029-0.073,0.088-0.083
				c0.178-0.03,0.293-0.096,0.344-0.195l1.648-3.031c0.02-0.034,0.046-0.052,0.076-0.052c0.01,0,0.021,0.002,0.031,0.006
				c0.01,0.003,0.019,0.007,0.025,0.01l0.551,3.052c0.01,0.061,0.041,0.108,0.093,0.139c0.051,0.031,0.118,0.053,0.2,0.067
				c0.045,0.007,0.075,0.017,0.088,0.031c0.014,0.013,0.021,0.03,0.021,0.051c0,0.017-0.004,0.043-0.01,0.077
				c-0.096-0.007-0.188-0.013-0.275-0.018c-0.088-0.006-0.177-0.008-0.27-0.008c-0.203,0-0.404,0.01-0.603,0.03
				c-0.01-0.024-0.015-0.049-0.015-0.076c0-0.045,0.032-0.073,0.097-0.083c0.045-0.007,0.093-0.022,0.144-0.046
				c0.052-0.024,0.077-0.061,0.077-0.113v-0.031c0-0.013-0.002-0.029-0.005-0.046l-0.155-0.859h-0.988L21.138,46.055L21.138,46.055z
				"/>
			<path fill="#FFFFFF" d="M25.317,46.498c-0.271,0-0.502-0.036-0.691-0.108c-0.191-0.073-0.346-0.171-0.466-0.296
				c-0.121-0.125-0.207-0.272-0.263-0.438c-0.055-0.166-0.082-0.345-0.082-0.538c0-0.251,0.042-0.5,0.124-0.749
				c0.082-0.249,0.206-0.473,0.371-0.672c0.165-0.199,0.372-0.36,0.62-0.484c0.249-0.124,0.541-0.186,0.878-0.186
				c0.172,0,0.337,0.014,0.496,0.041c0.16,0.027,0.313,0.065,0.461,0.113c-0.01,0.1-0.016,0.197-0.016,0.293
				c0,0.069,0.003,0.138,0.008,0.206c0.005,0.069,0.01,0.138,0.018,0.207c-0.025,0.017-0.055,0.025-0.093,0.025
				c-0.065,0-0.099-0.025-0.103-0.077c-0.03-0.226-0.115-0.384-0.252-0.473c-0.138-0.09-0.321-0.134-0.551-0.134
				c-0.226,0-0.429,0.049-0.607,0.147c-0.178,0.097-0.33,0.23-0.456,0.399c-0.124,0.168-0.22,0.364-0.286,0.589
				c-0.065,0.225-0.097,0.463-0.097,0.713c0,0.186,0.025,0.353,0.075,0.502c0.05,0.149,0.119,0.276,0.208,0.381
				c0.089,0.105,0.198,0.186,0.326,0.244c0.129,0.058,0.274,0.088,0.435,0.088c0.234,0,0.418-0.048,0.554-0.144
				c0.136-0.096,0.253-0.25,0.353-0.463c0.024-0.055,0.065-0.082,0.124-0.082c0.021,0,0.042,0.004,0.064,0.012
				s0.037,0.017,0.043,0.024c-0.051,0.109-0.096,0.225-0.136,0.347c-0.04,0.122-0.08,0.258-0.121,0.409
				c-0.075,0.014-0.157,0.026-0.242,0.039c-0.086,0.012-0.172,0.024-0.257,0.033c-0.086,0.01-0.166,0.019-0.241,0.024
				C25.437,46.495,25.372,46.498,25.317,46.498L25.317,46.498z"/>
			<path fill="#FFFFFF" d="M28.471,46.498c-0.271,0-0.502-0.036-0.691-0.108c-0.191-0.073-0.346-0.171-0.466-0.296
				c-0.121-0.125-0.207-0.272-0.263-0.438c-0.055-0.166-0.082-0.345-0.082-0.538c0-0.251,0.042-0.5,0.124-0.749
				c0.082-0.249,0.206-0.473,0.371-0.672c0.165-0.199,0.372-0.36,0.62-0.484c0.249-0.124,0.541-0.186,0.878-0.186
				c0.172,0,0.337,0.014,0.496,0.041c0.16,0.027,0.313,0.065,0.461,0.113c-0.01,0.1-0.016,0.197-0.016,0.293
				c0,0.069,0.003,0.138,0.008,0.206c0.005,0.069,0.01,0.138,0.018,0.207c-0.025,0.017-0.056,0.025-0.093,0.025
				c-0.065,0-0.099-0.025-0.103-0.077c-0.03-0.226-0.115-0.384-0.252-0.473c-0.138-0.09-0.321-0.134-0.551-0.134
				c-0.226,0-0.429,0.049-0.607,0.147c-0.178,0.097-0.33,0.23-0.456,0.399c-0.125,0.168-0.22,0.364-0.286,0.589
				c-0.065,0.225-0.097,0.463-0.097,0.713c0,0.186,0.025,0.353,0.075,0.502s0.119,0.276,0.208,0.381
				c0.089,0.105,0.198,0.186,0.326,0.244c0.129,0.058,0.274,0.088,0.435,0.088c0.234,0,0.418-0.048,0.554-0.144
				c0.136-0.096,0.253-0.25,0.353-0.463c0.024-0.055,0.065-0.082,0.124-0.082c0.021,0,0.042,0.004,0.064,0.012
				c0.023,0.008,0.037,0.017,0.043,0.024c-0.051,0.109-0.096,0.225-0.136,0.347s-0.08,0.258-0.121,0.409
				c-0.075,0.014-0.157,0.026-0.242,0.039c-0.086,0.012-0.172,0.024-0.257,0.033c-0.086,0.01-0.166,0.019-0.241,0.024
				C28.592,46.495,28.527,46.498,28.471,46.498L28.471,46.498z"/>
			<path fill="#FFFFFF" d="M32.944,45.289c-0.03,0.172-0.085,0.331-0.162,0.478c-0.076,0.148-0.174,0.275-0.293,0.384
				c-0.118,0.108-0.257,0.192-0.414,0.255c-0.158,0.061-0.336,0.092-0.535,0.092c-0.196,0-0.366-0.031-0.51-0.095
				c-0.143-0.063-0.26-0.149-0.35-0.257c-0.089-0.108-0.149-0.236-0.18-0.383c-0.03-0.148-0.029-0.307,0.006-0.479l0.355-1.837
				c0.014-0.072-0.006-0.124-0.058-0.154c-0.054-0.031-0.118-0.05-0.193-0.057c-0.052-0.008-0.077-0.035-0.077-0.083
				c0-0.024,0.006-0.055,0.016-0.092c0.206,0.021,0.394,0.031,0.566,0.031c0.072,0,0.165-0.003,0.28-0.008
				c0.115-0.006,0.219-0.013,0.311-0.024c0.004,0.017,0.007,0.033,0.008,0.046c0.002,0.014,0.003,0.025,0.003,0.036
				c0,0.021-0.006,0.039-0.018,0.055c-0.012,0.015-0.032,0.025-0.059,0.028c-0.089,0.013-0.163,0.037-0.224,0.069
				c-0.06,0.033-0.097,0.082-0.11,0.147l-0.34,1.755c-0.024,0.13-0.029,0.257-0.018,0.38c0.012,0.124,0.046,0.235,0.101,0.332
				c0.055,0.098,0.131,0.177,0.229,0.237c0.097,0.06,0.22,0.091,0.368,0.091c0.124,0,0.242-0.018,0.357-0.054
				c0.115-0.037,0.222-0.094,0.319-0.175c0.098-0.08,0.183-0.186,0.255-0.317c0.073-0.13,0.127-0.291,0.165-0.483l0.335-1.755
				c0.013-0.069-0.004-0.121-0.052-0.155c-0.048-0.034-0.116-0.058-0.206-0.072c-0.042-0.004-0.062-0.031-0.062-0.083
				c0-0.01,0.001-0.022,0.003-0.036c0.002-0.013,0.005-0.029,0.008-0.046c0.103,0.01,0.188,0.018,0.253,0.024
				c0.065,0.005,0.132,0.008,0.201,0.008c0.061,0,0.129-0.002,0.203-0.006c0.074-0.003,0.156-0.01,0.244-0.02
				c0.004,0.017,0.008,0.032,0.01,0.046c0.004,0.013,0.006,0.025,0.006,0.036c0,0.044-0.023,0.07-0.067,0.077
				c-0.086,0.013-0.157,0.038-0.211,0.072s-0.09,0.082-0.103,0.144C33.299,43.441,32.944,45.289,32.944,45.289z"/>
			<path fill="#FFFFFF" d="M35.034,45.073c-0.014,0.109-0.036,0.181-0.067,0.216c-0.031,0.034-0.077,0.051-0.14,0.051h-1.019
				c0.014-0.109,0.035-0.181,0.064-0.216c0.029-0.034,0.076-0.051,0.141-0.051H35.034L35.034,45.073z"/>
			<path fill="#FFFFFF" d="M37.077,46.498c-0.271,0-0.502-0.036-0.692-0.108c-0.191-0.073-0.345-0.171-0.466-0.296
				c-0.12-0.125-0.207-0.272-0.262-0.438c-0.055-0.166-0.082-0.345-0.082-0.538c0-0.251,0.041-0.5,0.124-0.749
				c0.082-0.249,0.206-0.473,0.371-0.672c0.164-0.199,0.371-0.36,0.62-0.484c0.249-0.124,0.541-0.186,0.877-0.186
				c0.172,0,0.338,0.014,0.497,0.041s0.313,0.065,0.46,0.113c-0.009,0.1-0.015,0.197-0.015,0.293c0,0.069,0.003,0.138,0.008,0.206
				c0.006,0.069,0.011,0.138,0.018,0.207c-0.024,0.017-0.055,0.025-0.092,0.025c-0.065,0-0.099-0.025-0.103-0.077
				c-0.031-0.226-0.115-0.384-0.252-0.473c-0.138-0.09-0.322-0.134-0.551-0.134c-0.226,0-0.429,0.049-0.607,0.147
				c-0.178,0.097-0.33,0.23-0.456,0.399c-0.125,0.168-0.221,0.364-0.286,0.589c-0.065,0.225-0.098,0.463-0.098,0.713
				c0,0.186,0.025,0.353,0.075,0.502c0.049,0.149,0.119,0.276,0.208,0.381c0.089,0.105,0.198,0.186,0.326,0.244
				c0.128,0.058,0.274,0.088,0.435,0.088c0.233,0,0.418-0.048,0.554-0.144c0.135-0.096,0.253-0.25,0.352-0.463
				c0.025-0.055,0.066-0.082,0.124-0.082c0.021,0,0.042,0.004,0.065,0.012c0.022,0.008,0.037,0.017,0.043,0.024
				c-0.052,0.109-0.097,0.225-0.137,0.347c-0.039,0.122-0.079,0.258-0.121,0.409c-0.075,0.014-0.156,0.026-0.241,0.039
				c-0.086,0.012-0.172,0.024-0.257,0.033c-0.086,0.01-0.167,0.019-0.242,0.024C37.197,46.495,37.132,46.498,37.077,46.498
				L37.077,46.498z"/>
			<path fill="#FFFFFF" d="M41.4,43.446c0.013-0.068,0.002-0.119-0.036-0.152c-0.038-0.032-0.11-0.058-0.217-0.075
				c-0.048-0.01-0.072-0.034-0.072-0.072c0-0.01,0.002-0.024,0.005-0.039c0.004-0.015,0.008-0.03,0.01-0.043
				c0.103,0.007,0.206,0.013,0.307,0.02c0.101,0.008,0.193,0.01,0.275,0.01c0.072,0,0.159-0.002,0.262-0.008
				c0.103-0.005,0.201-0.013,0.293-0.023c0.008,0.027,0.01,0.055,0.01,0.082c0,0.041-0.022,0.063-0.067,0.067
				c-0.103,0.017-0.179,0.042-0.229,0.077c-0.049,0.034-0.081,0.086-0.095,0.154l-0.504,2.641c-0.014,0.068,0.001,0.118,0.043,0.149
				c0.043,0.031,0.116,0.055,0.219,0.072c0.044,0.01,0.067,0.036,0.067,0.077c0,0.021-0.004,0.048-0.01,0.082
				c-0.099-0.009-0.204-0.018-0.311-0.023c-0.108-0.006-0.205-0.008-0.29-0.008c-0.069,0-0.157,0.002-0.263,0.008
				c-0.106,0.005-0.206,0.013-0.298,0.023c-0.007-0.034-0.01-0.061-0.01-0.082c0-0.044,0.021-0.07,0.061-0.077
				c0.121-0.021,0.204-0.045,0.25-0.075s0.076-0.078,0.091-0.146l0.241-1.261h-1.462l-0.241,1.261c-0.014,0.068,0,0.118,0.041,0.149
				c0.042,0.031,0.119,0.055,0.232,0.072c0.044,0.004,0.067,0.029,0.067,0.077c0,0.021-0.004,0.048-0.01,0.082
				c-0.103-0.009-0.209-0.018-0.319-0.023c-0.11-0.006-0.207-0.008-0.293-0.008c-0.069,0-0.153,0.002-0.253,0.008
				c-0.099,0.005-0.193,0.013-0.283,0.023c-0.01-0.024-0.015-0.051-0.015-0.082c0-0.044,0.022-0.069,0.067-0.072
				c0.109-0.017,0.188-0.042,0.234-0.075c0.046-0.033,0.076-0.084,0.091-0.152l0.509-2.641c0.013-0.068,0.002-0.121-0.034-0.157
				c-0.036-0.036-0.108-0.062-0.219-0.08c-0.048-0.003-0.072-0.027-0.072-0.072c0-0.025,0.005-0.05,0.015-0.077
				c0.1,0.01,0.198,0.018,0.296,0.024c0.098,0.005,0.19,0.008,0.275,0.008c0.069,0,0.158-0.003,0.271-0.008
				c0.111-0.006,0.213-0.013,0.306-0.024c0.01,0.027,0.016,0.053,0.016,0.077c0,0.041-0.025,0.065-0.073,0.072
				c-0.109,0.018-0.191,0.044-0.241,0.08c-0.052,0.036-0.084,0.089-0.098,0.157l-0.232,1.179h1.462L41.4,43.446L41.4,43.446z"/>
			<path fill="#FFFFFF" d="M43.202,43.441c0.013-0.069-0.006-0.119-0.057-0.149c-0.052-0.031-0.119-0.052-0.201-0.062
				c-0.048-0.01-0.073-0.04-0.073-0.088c0-0.01,0.001-0.022,0.003-0.036c0.002-0.013,0.005-0.029,0.008-0.046
				c0.103,0.01,0.207,0.018,0.314,0.024c0.107,0.005,0.206,0.008,0.299,0.008h0.972c0.147,0,0.251-0.006,0.308-0.016
				c0.058-0.009,0.107-0.015,0.144-0.015c0.044,0,0.073,0.021,0.082,0.062c0.008,0.058,0.016,0.146,0.026,0.265
				c0.01,0.118,0.03,0.253,0.061,0.404c-0.013,0.007-0.031,0.014-0.051,0.024c-0.021,0.008-0.04,0.012-0.057,0.012
				c-0.045,0-0.075-0.021-0.088-0.061c-0.044-0.175-0.11-0.299-0.195-0.371c-0.086-0.073-0.215-0.108-0.387-0.108H43.67
				l-0.257,1.343h0.705c0.075,0,0.13-0.025,0.165-0.076c0.034-0.052,0.065-0.123,0.092-0.211c0.007-0.017,0.016-0.031,0.028-0.041
				c0.011-0.01,0.031-0.015,0.058-0.015c0.031,0,0.064,0.007,0.098,0.021c-0.021,0.082-0.039,0.157-0.054,0.224
				c-0.015,0.067-0.029,0.135-0.042,0.204c-0.012,0.068-0.022,0.141-0.031,0.216c-0.008,0.075-0.016,0.161-0.023,0.257
				c-0.031,0.009-0.062,0.015-0.092,0.015c-0.031,0-0.053-0.008-0.065-0.025c-0.011-0.018-0.016-0.037-0.012-0.057
				c0.007-0.079,0-0.151-0.021-0.217c-0.021-0.065-0.069-0.097-0.144-0.097h-0.7l-0.241,1.276c-0.01,0.055-0.003,0.091,0.023,0.11
				c0.025,0.019,0.068,0.028,0.126,0.028h0.591c0.148,0,0.28-0.038,0.397-0.113c0.116-0.075,0.238-0.206,0.365-0.39
				c0.014-0.018,0.026-0.03,0.039-0.039c0.012-0.008,0.028-0.013,0.049-0.013s0.041,0.005,0.061,0.015
				c0.021,0.01,0.04,0.025,0.057,0.041c-0.017,0.034-0.034,0.071-0.051,0.108c-0.017,0.03-0.035,0.067-0.052,0.108
				c-0.017,0.041-0.034,0.083-0.051,0.124c-0.028,0.069-0.05,0.136-0.067,0.201c-0.018,0.065-0.035,0.111-0.052,0.139
				c-0.017,0.027-0.044,0.041-0.082,0.041c-0.058,0-0.117-0.005-0.175-0.013c-0.058-0.008-0.137-0.012-0.237-0.012h-1.215
				c-0.072,0-0.16,0.002-0.265,0.008c-0.105,0.005-0.203,0.013-0.295,0.023c-0.004-0.017-0.007-0.032-0.008-0.046
				c-0.001-0.013-0.002-0.025-0.002-0.036c0-0.017,0.005-0.034,0.015-0.051c0.01-0.018,0.029-0.028,0.057-0.031
				c0.107-0.017,0.186-0.043,0.237-0.077c0.052-0.034,0.082-0.081,0.092-0.139L43.202,43.441L43.202,43.441z"/>
			<path fill="#FFFFFF" d="M46.361,44.727l0.01-0.072l1.266-1.148c0.069-0.058,0.103-0.111,0.103-0.159
				c0-0.062-0.061-0.103-0.185-0.124c-0.048-0.01-0.072-0.036-0.072-0.077c0-0.025,0.003-0.054,0.01-0.088
				c0.099,0.01,0.185,0.018,0.257,0.024c0.073,0.005,0.153,0.008,0.242,0.008c0.075,0,0.149-0.003,0.221-0.008
				c0.073-0.006,0.152-0.013,0.237-0.024c0.004,0.017,0.007,0.033,0.008,0.046c0.001,0.014,0.002,0.025,0.002,0.036
				c0,0.045-0.022,0.073-0.067,0.083c-0.078,0.017-0.146,0.042-0.203,0.075c-0.057,0.032-0.109,0.071-0.158,0.116l-1.266,1.153
				l0.963,1.549c0.03,0.048,0.073,0.091,0.125,0.126c0.054,0.036,0.118,0.061,0.193,0.075c0.027,0.007,0.044,0.016,0.051,0.025
				c0.008,0.01,0.01,0.023,0.01,0.037c0,0.024-0.008,0.053-0.025,0.087c-0.195-0.02-0.358-0.03-0.489-0.03
				c-0.079,0-0.142-0.024-0.191-0.07c-0.048-0.046-0.102-0.114-0.159-0.203L46.361,44.727L46.361,44.727z M46.053,43.441
				c0.007-0.041,0.003-0.075-0.01-0.101c-0.014-0.025-0.034-0.046-0.059-0.061c-0.025-0.015-0.055-0.026-0.088-0.033
				c-0.032-0.008-0.064-0.012-0.095-0.016c-0.048-0.007-0.072-0.034-0.072-0.082c0-0.01,0.002-0.024,0.005-0.039
				c0.004-0.015,0.008-0.032,0.01-0.049c0.103,0.01,0.205,0.018,0.304,0.024c0.1,0.005,0.192,0.008,0.278,0.008
				c0.072,0,0.162-0.003,0.27-0.008c0.108-0.006,0.208-0.013,0.302-0.024c0.003,0.017,0.006,0.033,0.008,0.046
				c0.002,0.014,0.002,0.027,0.002,0.041c0,0.042-0.024,0.067-0.072,0.077c-0.09,0.013-0.164,0.036-0.224,0.067
				c-0.06,0.03-0.097,0.08-0.111,0.149l-0.509,2.646c-0.007,0.041-0.005,0.075,0.006,0.1c0.01,0.025,0.028,0.047,0.054,0.064
				s0.056,0.03,0.09,0.039c0.035,0.008,0.071,0.015,0.108,0.018c0.041,0.008,0.061,0.033,0.061,0.077c0,0.01,0,0.023-0.002,0.036
				c-0.002,0.014-0.005,0.029-0.008,0.046c-0.104-0.009-0.206-0.018-0.307-0.023c-0.101-0.006-0.195-0.008-0.281-0.008
				c-0.072,0-0.161,0.002-0.27,0.008c-0.108,0.005-0.208,0.013-0.301,0.023c-0.004-0.017-0.007-0.032-0.008-0.046
				c-0.002-0.013-0.003-0.025-0.003-0.036c0-0.044,0.021-0.07,0.061-0.077c0.093-0.013,0.171-0.037,0.235-0.069
				c0.063-0.033,0.102-0.084,0.115-0.152L46.053,43.441L46.053,43.441z"/>
		</g>
	</g>
	<g id="Untere-Linie_1_" serif:id="Untere Linie">
		<path fill="#FFFFFF" d="M44.998,82.892c0.738,0,1.338,0.6,1.338,1.338c0,0.738-0.6,1.337-1.338,1.337
			c-0.738,0-1.338-0.599-1.338-1.337C43.659,83.492,44.259,82.892,44.998,82.892z M44.998,83.098c0.624,0,1.132,0.507,1.132,1.133
			c0,0.624-0.507,1.132-1.132,1.132c-0.625,0-1.133-0.507-1.133-1.132C43.865,83.605,44.372,83.098,44.998,83.098z"/>
		
			<circle fill="#FFFFFF" stroke="#FFFFFF" stroke-width="1.25" stroke-linecap="round" stroke-linejoin="round" stroke-miterlimit="1.5" cx="39.412" cy="84.126" r="0.206"/>
		
			<circle fill="#FFFFFF" stroke="#FFFFFF" stroke-width="1.25" stroke-linecap="round" stroke-linejoin="round" stroke-miterlimit="1.5" cx="40.875" cy="84.125" r="0.206"/>
		
			<circle fill="#FFFFFF" stroke="#FFFFFF" stroke-width="1.25" stroke-linecap="round" stroke-linejoin="round" stroke-miterlimit="1.5" cx="42.452" cy="84.149" r="0.206"/>
		
			<circle fill="#FFFFFF" stroke="#FFFFFF" stroke-width="1.25" stroke-linecap="round" stroke-linejoin="round" stroke-miterlimit="1.5" cx="47.183" cy="84.231" r="0.206"/>
		
			<circle fill="#FFFFFF" stroke="#FFFFFF" stroke-width="1.25" stroke-linecap="round" stroke-linejoin="round" stroke-miterlimit="1.5" cx="48.727" cy="84.211" r="0.206"/>
		
			<circle fill="#FFFFFF" stroke="#FFFFFF" stroke-width="1.25" stroke-linecap="round" stroke-linejoin="round" stroke-miterlimit="1.5" cx="50.281" cy="84.231" r="0.206"/>
		<rect x="44.38" y="84.066" fill="#FFFFFF" width="1.236" height="0.289"/>
		<path fill="#FFFFFF" d="M45.142,84.828v-1.236h-0.289v1.236H45.142z"/>
		<path fill="#FFFFFF" d="M47.301,86.381c0.056-0.055,0.056-0.144,0.001-0.2l-0.98-0.995c-0.055-0.056-0.144-0.056-0.2-0.001
			l-0.202,0.198c-0.056,0.055-0.056,0.144-0.001,0.2l0.98,0.995c0.055,0.056,0.144,0.057,0.2,0.002L47.301,86.381z"/>
	</g>
	<g id="Bedienkopf_1_">
		<path fill="#434040" d="M91.724,57.653h-7.218c-3.945,0-7.148,3.203-7.148,7.148V77.86c0,3.945,3.203,7.147,7.148,7.147h7.218
			c3.944,0,7.147-3.202,7.147-7.147V64.801C98.872,60.855,95.669,57.653,91.724,57.653z M97.468,77.139
			c0,3.379-2.744,6.123-6.122,6.123h-6.391c-3.379,0-6.123-2.744-6.123-6.123V65.442c0-3.379,2.744-6.123,6.123-6.123h6.391
			c3.378,0,6.122,2.744,6.122,6.123V77.139z"/>
		<path fill="#010101" d="M91.65,58.009h-6.975c-3.829,0-6.938,3.109-6.938,6.938v12.636c0,3.829,3.109,6.938,6.938,6.938h6.975
			c3.829,0,6.938-3.109,6.938-6.938V64.947C98.588,61.118,95.479,58.009,91.65,58.009z M97.468,77.139
			c0,3.379-2.744,6.123-6.122,6.123h-6.391c-3.379,0-6.123-2.744-6.123-6.123V65.442c0-3.379,2.744-6.123,6.123-6.123h6.391
			c3.378,0,6.122,2.744,6.122,6.123V77.139z"/>
		<path fill="#9D9292" d="M91.556,58.862h-6.811c-3.531,0-6.397,2.866-6.397,6.397v12.135c0,3.531,2.866,6.397,6.397,6.397h6.811
			c3.531,0,6.397-2.866,6.397-6.397V65.259C97.953,61.728,95.087,58.862,91.556,58.862z M97.468,77.139
			c0,3.379-2.744,6.123-6.122,6.123h-6.391c-3.379,0-6.123-2.744-6.123-6.123V65.442c0-3.379,2.744-6.123,6.123-6.123h6.391
			c3.378,0,6.122,2.744,6.122,6.123V77.139z"/>
		<path fill="#FFFFFF" d="M88.171,62.074l1.886,2.323h-3.773L88.171,62.074z"/>
		<path fill="#FFFFFF" d="M88.339,81.185l-1.885-2.324h3.772L88.339,81.185z"/>
		<path fill="#776E6E" d="M91.955,67.285H84.27c-1.653,0-2.995,1.342-2.995,2.995v3.02c0,1.653,1.341,2.995,2.995,2.995h7.685
			c1.652,0,2.995-1.342,2.995-2.995v-3.02C94.949,68.627,93.607,67.285,91.955,67.285z M92.795,73.567
			c0,1.013-0.822,1.835-1.835,1.835h-5.651c-1.014,0-1.836-0.822-1.836-1.835v-3.672c0-1.013,0.822-1.835,1.836-1.835h5.651
			c1.013,0,1.835,0.822,1.835,1.835V73.567z"/>
		<circle fill="#FFFFFF" cx="88.188" cy="71.589" r="1.441"/>
		<path fill="#FFFFFF" d="M90.713,74.654h-5.102c-0.845,0-1.532-0.687-1.532-1.531v-2.811c0-0.845,0.687-1.532,1.532-1.532h5.102
			c0.845,0,1.532,0.687,1.532,1.532v2.811C92.245,73.968,91.558,74.654,90.713,74.654z M85.612,69.034
			c-0.705,0-1.278,0.574-1.278,1.279v2.811c0,0.704,0.574,1.278,1.278,1.278h5.102c0.705,0,1.279-0.573,1.279-1.278v-2.811
			c0-0.705-0.574-1.279-1.279-1.279H85.612z"/>
	</g>
	<g id="Display_1_">
		<path fill="#494444" d="M71.03,59.197H19.181c-0.651,0-1.178,0.528-1.178,1.179v18.332c0,0.651,0.527,1.179,1.178,1.179H71.03
			c0.651,0,1.179-0.528,1.179-1.179V60.376C72.209,59.726,71.68,59.197,71.03,59.197z M71.655,78.291
			c0,0.62-0.504,1.123-1.123,1.123H19.668c-0.62,0-1.123-0.504-1.123-1.123V60.823c0-0.62,0.504-1.122,1.123-1.122h50.864
			c0.62,0,1.123,0.503,1.123,1.122V78.291z"/>
	</g>
	<g>
		<g id="Laufbalken_1_">
			<path fill="#FFFFFF" d="M70.915,76.941c0-0.166-0.135-0.301-0.301-0.301H19.452c-0.166,0-0.301,0.135-0.301,0.301v1.462
				c0,0.166,0.135,0.302,0.301,0.302h51.162c0.166,0,0.301-0.136,0.301-0.302V76.941z"/>
			<path fill="#23211F" d="M70.502,77.221c0-0.111-0.091-0.202-0.203-0.202H19.732c-0.112,0-0.203,0.091-0.203,0.202v0.98
				c0,0.111,0.091,0.202,0.203,0.202H70.3c0.112,0,0.203-0.091,0.203-0.202V77.221z"/>
			<rect x="19.815" y="77.257" fill="#F27E30" width="45.591" height="0.894"/>
			<rect x="65.098" y="77.245" fill="#5D5555" width="5.136" height="0.905"/>
			<g>
				<path fill="#A79998" d="M66.272,76.856l-0.855,0.86l0.266,0.268l0.855-0.861L66.272,76.856z"/>
				<path fill="#A79998" d="M65.683,77.438l0.855,0.861l-0.266,0.267l-0.855-0.861L65.683,77.438z"/>
			</g>
		</g>
		<path fill="#6AAE46" d="M71.002,61.438l-1.784,1.013v-2.026L71.002,61.438L71.002,61.438z"/>
		<g id="Datum_1_">
			<path fill="#FFFFFF" d="M48.727,61.49c0-0.326,0.031-0.589,0.093-0.788c0.062-0.2,0.155-0.353,0.278-0.461
				c0.123-0.108,0.277-0.162,0.464-0.162c0.138,0,0.258,0.03,0.362,0.09c0.104,0.059,0.19,0.146,0.257,0.258
				c0.068,0.112,0.121,0.249,0.159,0.411c0.039,0.161,0.058,0.379,0.058,0.653c0,0.324-0.031,0.586-0.092,0.785
				c-0.062,0.199-0.155,0.354-0.277,0.462c-0.123,0.108-0.278,0.163-0.466,0.163c-0.247,0-0.441-0.096-0.582-0.287
				C48.812,62.383,48.727,62.009,48.727,61.49L48.727,61.49z M49.05,61.49c0,0.454,0.049,0.755,0.147,0.905
				c0.099,0.15,0.221,0.225,0.365,0.225s0.266-0.075,0.365-0.226c0.098-0.151,0.147-0.452,0.147-0.904
				c0-0.455-0.049-0.757-0.147-0.906c-0.099-0.15-0.222-0.224-0.369-0.224c-0.144,0-0.259,0.066-0.346,0.198
				C49.104,60.725,49.05,61.037,49.05,61.49L49.05,61.49z"/>
			<path fill="#FFFFFF" d="M50.72,62.123l0.315-0.045c0.036,0.192,0.097,0.331,0.184,0.416c0.087,0.085,0.193,0.127,0.318,0.127
				c0.148,0,0.273-0.056,0.374-0.166c0.103-0.11,0.154-0.247,0.154-0.411c0-0.156-0.047-0.284-0.141-0.385
				c-0.095-0.101-0.215-0.152-0.36-0.152c-0.059,0-0.134,0.012-0.223,0.038l0.035-0.298c0.022,0.003,0.038,0.004,0.051,0.004
				c0.134,0,0.255-0.038,0.362-0.113c0.107-0.075,0.16-0.191,0.16-0.348c0-0.124-0.039-0.228-0.117-0.309
				c-0.078-0.082-0.179-0.123-0.303-0.123c-0.122,0-0.224,0.041-0.306,0.124c-0.081,0.083-0.134,0.207-0.158,0.373l-0.314-0.06
				c0.038-0.228,0.125-0.404,0.262-0.529c0.136-0.125,0.306-0.188,0.508-0.188c0.14,0,0.269,0.033,0.387,0.097
				c0.118,0.065,0.207,0.153,0.27,0.265c0.062,0.111,0.093,0.23,0.093,0.357c0,0.119-0.029,0.227-0.089,0.325
				c-0.059,0.098-0.148,0.176-0.264,0.234c0.151,0.038,0.269,0.116,0.353,0.235c0.084,0.119,0.126,0.267,0.126,0.445
				c0,0.241-0.082,0.446-0.245,0.614c-0.163,0.168-0.37,0.252-0.619,0.252c-0.225,0-0.412-0.073-0.56-0.217
				C50.825,62.541,50.74,62.353,50.72,62.123L50.72,62.123z"/>
			<path fill="#FFFFFF" d="M53.659,62.068l0.307-0.045c0.008,0.211,0.044,0.356,0.109,0.434c0.066,0.078,0.156,0.117,0.272,0.117
				c0.085,0,0.158-0.021,0.22-0.063c0.062-0.042,0.105-0.099,0.128-0.172c0.023-0.072,0.035-0.188,0.035-0.346V60.09h0.339v1.883
				c0,0.231-0.025,0.409-0.077,0.537c-0.052,0.127-0.134,0.224-0.246,0.29c-0.113,0.066-0.245,0.1-0.396,0.1
				c-0.225,0-0.397-0.07-0.517-0.209C53.711,62.551,53.654,62.344,53.659,62.068L53.659,62.068z"/>
			<path fill="#FFFFFF" d="M56.794,62.606c-0.117,0.107-0.229,0.182-0.337,0.226c-0.108,0.043-0.224,0.066-0.347,0.066
				c-0.204,0-0.36-0.054-0.47-0.161c-0.11-0.108-0.165-0.245-0.165-0.412c0-0.098,0.021-0.188,0.062-0.269
				c0.042-0.081,0.095-0.145,0.163-0.194c0.067-0.049,0.142-0.087,0.226-0.111c0.061-0.018,0.155-0.035,0.279-0.051
				c0.255-0.033,0.441-0.072,0.561-0.117c0.001-0.046,0.002-0.076,0.002-0.089c0-0.139-0.029-0.236-0.089-0.292
				c-0.081-0.076-0.2-0.115-0.358-0.115c-0.148,0-0.257,0.028-0.328,0.084c-0.071,0.057-0.123,0.155-0.157,0.297l-0.307-0.045
				c0.027-0.142,0.074-0.257,0.138-0.344c0.064-0.087,0.157-0.155,0.278-0.202c0.121-0.046,0.261-0.07,0.422-0.07
				c0.158,0,0.287,0.02,0.386,0.059c0.099,0.041,0.173,0.091,0.219,0.152c0.047,0.061,0.079,0.139,0.098,0.231
				c0.01,0.058,0.016,0.162,0.016,0.313v0.452c0,0.316,0.007,0.515,0.02,0.599c0.013,0.084,0.04,0.163,0.079,0.241h-0.328
				C56.824,62.782,56.803,62.7,56.794,62.606L56.794,62.606z M56.767,61.849c-0.114,0.05-0.286,0.092-0.514,0.127
				c-0.129,0.021-0.221,0.043-0.274,0.068c-0.054,0.025-0.095,0.062-0.124,0.11c-0.029,0.049-0.044,0.103-0.044,0.161
				c0,0.091,0.032,0.166,0.095,0.226c0.064,0.06,0.157,0.091,0.279,0.091c0.121,0,0.229-0.028,0.324-0.086s0.163-0.136,0.207-0.235
				c0.034-0.076,0.051-0.19,0.051-0.339L56.767,61.849L56.767,61.849z"/>
			<path fill="#FFFFFF" d="M57.574,62.853v-2.001h0.283v0.284c0.137-0.22,0.334-0.329,0.591-0.329c0.111,0,0.214,0.022,0.308,0.064
				c0.093,0.043,0.164,0.101,0.21,0.171c0.047,0.071,0.079,0.155,0.098,0.251c0.011,0.063,0.018,0.173,0.018,0.33v1.231h-0.315
				v-1.218c0-0.139-0.012-0.241-0.037-0.31c-0.025-0.069-0.068-0.123-0.13-0.164c-0.062-0.041-0.136-0.061-0.22-0.061
				c-0.134,0-0.25,0.046-0.347,0.138c-0.097,0.091-0.146,0.266-0.146,0.523v1.093H57.574L57.574,62.853z"/>
			<path fill="#FFFFFF" d="M62.126,62.527v0.326h-1.694c-0.003-0.082,0.009-0.16,0.037-0.236c0.042-0.125,0.111-0.247,0.207-0.368
				c0.095-0.121,0.232-0.26,0.412-0.418c0.278-0.246,0.467-0.441,0.565-0.586c0.097-0.143,0.146-0.28,0.146-0.407
				c0-0.135-0.044-0.248-0.134-0.34c-0.089-0.092-0.205-0.139-0.348-0.139c-0.152,0-0.274,0.049-0.364,0.147
				c-0.091,0.098-0.137,0.234-0.138,0.407l-0.324-0.036c0.022-0.259,0.105-0.457,0.25-0.594c0.144-0.137,0.339-0.205,0.582-0.205
				c0.246,0,0.44,0.074,0.584,0.221c0.143,0.147,0.215,0.329,0.215,0.547c0,0.11-0.021,0.219-0.063,0.325
				c-0.042,0.107-0.111,0.22-0.208,0.338c-0.097,0.118-0.259,0.28-0.485,0.486c-0.19,0.172-0.31,0.288-0.364,0.348
				c-0.054,0.061-0.098,0.123-0.133,0.184L62.126,62.527L62.126,62.527z"/>
			<path fill="#FFFFFF" d="M62.464,61.49c0-0.326,0.031-0.589,0.093-0.788c0.062-0.2,0.155-0.353,0.278-0.461
				c0.123-0.108,0.277-0.162,0.464-0.162c0.138,0,0.257,0.03,0.361,0.09c0.104,0.059,0.19,0.146,0.257,0.258
				s0.121,0.249,0.159,0.411c0.038,0.161,0.058,0.379,0.058,0.653c0,0.324-0.031,0.586-0.092,0.785
				c-0.062,0.199-0.155,0.354-0.277,0.462C63.642,62.846,63.487,62.9,63.3,62.9c-0.247,0-0.441-0.096-0.583-0.287
				C62.548,62.383,62.464,62.009,62.464,61.49L62.464,61.49z M62.787,61.49c0,0.454,0.049,0.755,0.147,0.905
				c0.099,0.15,0.22,0.225,0.365,0.225c0.144,0,0.266-0.075,0.364-0.226c0.099-0.151,0.148-0.452,0.148-0.904
				c0-0.455-0.049-0.757-0.148-0.906c-0.098-0.15-0.221-0.224-0.368-0.224c-0.144,0-0.26,0.066-0.346,0.198
				C62.841,60.725,62.787,61.037,62.787,61.49L62.787,61.49z"/>
			<path fill="#FFFFFF" d="M66.109,62.527v0.326h-1.695c-0.002-0.082,0.01-0.16,0.037-0.236c0.043-0.125,0.112-0.247,0.207-0.368
				c0.095-0.121,0.232-0.26,0.412-0.418c0.278-0.246,0.467-0.441,0.564-0.586c0.098-0.143,0.147-0.28,0.147-0.407
				c0-0.135-0.044-0.248-0.134-0.34c-0.089-0.092-0.206-0.139-0.349-0.139c-0.151,0-0.273,0.049-0.363,0.147
				c-0.091,0.098-0.137,0.234-0.139,0.407l-0.324-0.036c0.023-0.259,0.106-0.457,0.251-0.594c0.144-0.137,0.339-0.205,0.582-0.205
				c0.246,0,0.44,0.074,0.584,0.221c0.143,0.147,0.215,0.329,0.215,0.547c0,0.11-0.021,0.219-0.063,0.325
				c-0.041,0.107-0.111,0.22-0.208,0.338c-0.097,0.118-0.259,0.28-0.486,0.486c-0.189,0.172-0.309,0.288-0.363,0.348
				c-0.054,0.061-0.098,0.123-0.133,0.184L66.109,62.527L66.109,62.527z"/>
			<path fill="#FFFFFF" d="M66.446,61.49c0-0.326,0.032-0.589,0.094-0.788c0.062-0.2,0.155-0.353,0.277-0.461
				c0.124-0.108,0.278-0.162,0.465-0.162c0.137,0,0.257,0.03,0.361,0.09c0.104,0.059,0.19,0.146,0.257,0.258
				c0.067,0.112,0.121,0.249,0.158,0.411c0.039,0.161,0.058,0.379,0.058,0.653c0,0.324-0.031,0.586-0.093,0.785
				c-0.061,0.199-0.154,0.354-0.276,0.462c-0.124,0.108-0.279,0.163-0.466,0.163c-0.247,0-0.441-0.096-0.583-0.287
				C66.531,62.383,66.446,62.009,66.446,61.49L66.446,61.49z M66.769,61.49c0,0.454,0.05,0.755,0.148,0.905s0.22,0.225,0.365,0.225
				c0.144,0,0.266-0.075,0.364-0.226c0.098-0.151,0.148-0.452,0.148-0.904c0-0.455-0.05-0.757-0.148-0.906
				c-0.098-0.15-0.221-0.224-0.368-0.224c-0.144,0-0.26,0.066-0.346,0.198C66.824,60.725,66.769,61.037,66.769,61.49L66.769,61.49z"
				/>
		</g>
		<g>
			<path fill="#FFFFFF" d="M19.776,62.83l-0.343,0.001v-2.066c-0.083,0.075-0.191,0.149-0.325,0.224
				c-0.134,0.075-0.255,0.131-0.362,0.169v-0.313c0.192-0.087,0.36-0.191,0.505-0.312c0.143-0.122,0.245-0.24,0.305-0.354
				l0.222-0.001V62.83z"/>
			<path fill="#FFFFFF" d="M20.655,61.524c0-0.312,0.034-0.564,0.102-0.755c0.068-0.191,0.169-0.338,0.304-0.441
				c0.134-0.104,0.303-0.157,0.506-0.157c0.15-0.001,0.282,0.027,0.395,0.084s0.207,0.139,0.28,0.245
				c0.074,0.108,0.132,0.238,0.174,0.392c0.042,0.154,0.063,0.362,0.063,0.623c0,0.31-0.034,0.56-0.101,0.751
				c-0.068,0.191-0.169,0.338-0.303,0.442c-0.134,0.105-0.304,0.157-0.508,0.158c-0.27,0.001-0.482-0.09-0.636-0.272
				C20.748,62.377,20.656,62.019,20.655,61.524L20.655,61.524z M21.008,61.522c0,0.434,0.054,0.722,0.161,0.865
				c0.108,0.143,0.241,0.214,0.398,0.214c0.158-0.001,0.29-0.074,0.398-0.218c0.108-0.144,0.161-0.433,0.161-0.865
				c0-0.435-0.054-0.723-0.161-0.866c-0.108-0.142-0.241-0.213-0.402-0.213c-0.158,0.001-0.284,0.064-0.378,0.191
				C21.068,60.791,21.008,61.089,21.008,61.522z"/>
			<path fill="#FFFFFF" d="M23.02,61.273v-0.369l0.39-0.002v0.37L23.02,61.273z M23.02,62.817v-0.37l0.39-0.001v0.369L23.02,62.817z
				"/>
			<path fill="#FFFFFF" d="M25.719,62.495v0.312l-1.849,0.007c-0.003-0.078,0.01-0.153,0.04-0.225
				c0.047-0.119,0.123-0.236,0.226-0.352c0.104-0.116,0.254-0.249,0.45-0.402c0.304-0.236,0.509-0.423,0.616-0.561
				c0.107-0.138,0.16-0.268,0.16-0.39c0-0.128-0.049-0.237-0.146-0.324c-0.097-0.088-0.224-0.132-0.38-0.131
				c-0.166,0.001-0.298,0.048-0.397,0.142c-0.099,0.093-0.15,0.224-0.151,0.39l-0.353-0.033c0.024-0.249,0.115-0.439,0.273-0.57
				c0.158-0.131,0.37-0.196,0.636-0.198c0.268-0.001,0.481,0.069,0.637,0.208c0.157,0.141,0.235,0.314,0.235,0.522
				c0,0.106-0.023,0.209-0.068,0.312c-0.046,0.102-0.123,0.209-0.228,0.323c-0.107,0.114-0.283,0.27-0.53,0.467
				c-0.206,0.164-0.338,0.275-0.397,0.334c-0.058,0.058-0.107,0.117-0.144,0.176C24.348,62.5,25.719,62.495,25.719,62.495z"/>
			<path fill="#FFFFFF" d="M27.382,62.8l-0.344,0.001v-2.066c-0.082,0.075-0.191,0.15-0.325,0.224
				c-0.134,0.075-0.255,0.132-0.361,0.169v-0.313c0.192-0.086,0.36-0.19,0.504-0.311c0.144-0.122,0.246-0.241,0.306-0.355
				l0.222-0.001C27.382,60.149,27.382,62.8,27.382,62.8z"/>
		</g>
		<g id="Batterie_1_">
			<rect x="45.114" y="61.045" fill="#999C97" width="0.299" height="0.805"/>
			<path fill="#999C97" d="M45.091,60.553v1.918h-3.389v-1.918H45.091z M44.614,60.934h-2.376v1.104h2.376V60.934z"/>
		</g>
		<g id="Flugzeug_1_">
			<rect x="34.788" y="62.554" fill="#FFFFFF" width="0.934" height="0.415"/>
			<path fill="#FFFFFF" d="M36.624,61.934l-1.19-0.606l-0.173,0.324l1.19,0.607L36.624,61.934L36.624,61.934z"/>
			<path fill="#FFFFFF" d="M35.255,61.651l-1.19,0.607l-0.173-0.324l1.189-0.606L35.255,61.651L35.255,61.651z"/>
			<rect x="35.051" y="60.423" fill="#FFFFFF" width="0.421" height="2.547"/>
			<path fill="#FFFFFF" d="M35.472,60.246c0-0.058-0.047-0.106-0.105-0.106h-0.21c-0.058,0-0.106,0.047-0.106,0.106v2.036
				c0,0.058,0.047,0.106,0.106,0.106h0.21c0.058,0,0.105-0.047,0.105-0.106V60.246z"/>
		</g>
		<g id="U-h_1_" serif:id="U/h">
			<path fill="#FFFFFF" d="M37.873,65.857h0.441v1.902c0,0.331-0.038,0.593-0.114,0.788c-0.075,0.194-0.212,0.353-0.41,0.474
				c-0.197,0.123-0.456,0.183-0.778,0.183c-0.312,0-0.567-0.053-0.766-0.159c-0.198-0.106-0.34-0.26-0.424-0.461
				c-0.085-0.202-0.127-0.476-0.127-0.825v-1.902h0.44v1.9c0,0.287,0.027,0.497,0.081,0.633c0.054,0.135,0.146,0.24,0.277,0.313
				c0.13,0.074,0.29,0.11,0.48,0.11c0.324,0,0.556-0.073,0.693-0.218c0.138-0.145,0.207-0.424,0.207-0.838L37.873,65.857
				L37.873,65.857z"/>
			<path fill="#FFFFFF" d="M38.689,69.205l0.966-3.405h0.327l-0.963,3.405H38.689z"/>
			<path fill="#FFFFFF" d="M40.288,69.15v-3.293h0.409v1.181c0.191-0.218,0.432-0.327,0.722-0.327c0.179,0,0.335,0.035,0.466,0.105
				c0.132,0.069,0.226,0.165,0.283,0.289c0.057,0.123,0.086,0.301,0.086,0.534v1.512h-0.409v-1.512c0-0.202-0.044-0.349-0.133-0.441
				c-0.089-0.091-0.214-0.138-0.376-0.138c-0.121,0-0.235,0.031-0.341,0.093c-0.108,0.062-0.183,0.146-0.229,0.253
				c-0.045,0.106-0.068,0.253-0.068,0.44v1.305H40.288L40.288,69.15z"/>
		</g>
		<g id="BR-Profil_1_" serif:id="BR Profil">
			<path fill="#FFFFFF" d="M43.916,69.15v-3.07h1.031c0.21,0,0.378,0.031,0.506,0.093c0.126,0.061,0.226,0.158,0.298,0.287
				c0.072,0.129,0.108,0.264,0.108,0.405c0,0.132-0.031,0.256-0.095,0.371c-0.064,0.116-0.16,0.209-0.289,0.281
				c0.166,0.055,0.294,0.147,0.383,0.278c0.09,0.131,0.134,0.287,0.134,0.465c0,0.144-0.026,0.277-0.081,0.401
				c-0.055,0.124-0.122,0.219-0.202,0.286c-0.08,0.067-0.18,0.118-0.301,0.152c-0.121,0.035-0.268,0.052-0.443,0.052H43.916
				L43.916,69.15z M44.279,67.369h0.595c0.161,0,0.276-0.011,0.346-0.035c0.092-0.031,0.162-0.082,0.209-0.153
				c0.047-0.072,0.071-0.161,0.071-0.269c0-0.102-0.023-0.191-0.066-0.269c-0.043-0.077-0.107-0.13-0.188-0.159
				c-0.081-0.028-0.221-0.042-0.418-0.042h-0.55V67.369L44.279,67.369z M44.279,68.787h0.685c0.118,0,0.2-0.006,0.247-0.015
				c0.084-0.017,0.154-0.044,0.21-0.084c0.057-0.039,0.103-0.095,0.139-0.171c0.037-0.075,0.055-0.16,0.055-0.258
				c0-0.114-0.026-0.214-0.079-0.298c-0.052-0.085-0.124-0.144-0.218-0.178s-0.227-0.051-0.403-0.051h-0.636L44.279,68.787
				L44.279,68.787z"/>
			<path fill="#FFFFFF" d="M46.497,69.15v-3.07h1.22c0.244,0,0.431,0.027,0.558,0.082c0.127,0.056,0.229,0.153,0.306,0.292
				c0.076,0.14,0.114,0.294,0.114,0.463c0,0.218-0.063,0.401-0.189,0.551c-0.126,0.149-0.322,0.244-0.586,0.285
				c0.096,0.052,0.17,0.103,0.22,0.153c0.107,0.108,0.207,0.245,0.302,0.408l0.478,0.836h-0.457l-0.364-0.639
				c-0.107-0.185-0.193-0.325-0.262-0.423c-0.069-0.098-0.13-0.166-0.185-0.206c-0.055-0.039-0.109-0.066-0.166-0.081
				c-0.041-0.01-0.108-0.015-0.203-0.015h-0.422v1.364H46.497z M46.861,67.434h0.782c0.166,0,0.296-0.019,0.39-0.058
				c0.093-0.038,0.165-0.1,0.213-0.184c0.049-0.085,0.074-0.176,0.074-0.275c0-0.145-0.047-0.265-0.141-0.358
				c-0.094-0.093-0.243-0.141-0.448-0.141h-0.87V67.434L46.861,67.434z"/>
			<rect x="49.091" y="67.849" fill="#FFFFFF" width="1.037" height="0.379"/>
			<path fill="#FFFFFF" d="M50.544,69.15v-3.07h1.037c0.183,0,0.322,0.009,0.418,0.029c0.136,0.025,0.249,0.073,0.34,0.143
				c0.091,0.071,0.165,0.169,0.221,0.296c0.056,0.127,0.083,0.267,0.083,0.419c0,0.261-0.074,0.482-0.223,0.663
				c-0.149,0.181-0.418,0.271-0.806,0.271h-0.705v1.249L50.544,69.15L50.544,69.15z M50.907,67.539h0.711
				c0.235,0,0.402-0.048,0.501-0.146c0.098-0.098,0.148-0.236,0.148-0.413c0-0.128-0.029-0.238-0.088-0.329
				c-0.058-0.091-0.134-0.152-0.229-0.181c-0.061-0.019-0.174-0.027-0.34-0.027h-0.704L50.907,67.539L50.907,67.539z"/>
			<path fill="#FFFFFF" d="M53.059,69.15v-2.224h0.304v0.337c0.077-0.158,0.149-0.261,0.215-0.312
				c0.065-0.05,0.138-0.075,0.216-0.075c0.114,0,0.229,0.041,0.347,0.122l-0.116,0.35c-0.083-0.055-0.165-0.082-0.248-0.082
				c-0.074,0-0.14,0.025-0.198,0.075c-0.059,0.05-0.101,0.119-0.126,0.207c-0.037,0.134-0.056,0.281-0.056,0.44v1.165L53.059,69.15
				L53.059,69.15z"/>
			<path fill="#FFFFFF" d="M54.215,68.038c0-0.412,0.103-0.717,0.308-0.916c0.171-0.164,0.379-0.247,0.626-0.247
				c0.274,0,0.497,0.101,0.671,0.301c0.174,0.2,0.261,0.477,0.261,0.83c0,0.287-0.039,0.512-0.116,0.676
				c-0.076,0.163-0.189,0.291-0.335,0.382c-0.147,0.091-0.307,0.136-0.481,0.136c-0.279,0-0.505-0.1-0.676-0.299
				C54.302,68.701,54.215,68.413,54.215,68.038L54.215,68.038z M54.562,68.038c0,0.285,0.056,0.498,0.167,0.639
				c0.111,0.141,0.252,0.212,0.421,0.212c0.167,0,0.307-0.071,0.418-0.213c0.111-0.142,0.167-0.359,0.167-0.652
				c0-0.274-0.056-0.483-0.168-0.624c-0.112-0.142-0.251-0.213-0.417-0.213c-0.169,0-0.309,0.071-0.421,0.212
				C54.618,67.54,54.562,67.753,54.562,68.038L54.562,68.038z"/>
			<path fill="#FFFFFF" d="M56.567,69.15v-1.933h-0.301v-0.29h0.301V66.71c0-0.221,0.042-0.39,0.127-0.506
				c0.085-0.118,0.219-0.176,0.403-0.176c0.124,0,0.239,0.016,0.343,0.048l-0.053,0.319c-0.066-0.013-0.126-0.019-0.181-0.019
				c-0.117,0-0.196,0.025-0.239,0.077c-0.042,0.052-0.064,0.161-0.064,0.329v0.144h0.387v0.29h-0.387v1.933L56.567,69.15
				L56.567,69.15z M57.545,66.513V66.08h0.338v0.433H57.545z M57.545,69.15v-2.224h0.338v2.224H57.545z"/>
			<rect x="58.389" y="66.08" fill="#FFFFFF" width="0.338" height="3.07"/>
			<path fill="#FFFFFF" d="M61.494,69.15h-0.337v-2.402c-0.082,0.087-0.189,0.174-0.32,0.259c-0.132,0.087-0.251,0.152-0.356,0.195
				v-0.365c0.189-0.099,0.354-0.219,0.495-0.359c0.141-0.141,0.241-0.278,0.3-0.411h0.217L61.494,69.15L61.494,69.15z"/>
		</g>
		<g id="Basal-Zeichwen_1_" serif:id="Basal Zeichwen">
			<rect x="22.114" y="66.613" fill="#FFFFFF" width="0.658" height="2.261"/>
			<rect x="21.347" y="66.573" fill="#FFFFFF" width="1.426" height="0.658"/>
			<rect x="21.358" y="65.27" fill="#FFFFFF" width="0.658" height="1.633"/>
			<rect x="19.295" y="66.995" fill="#FFFFFF" width="0.658" height="1.85"/>
			<rect x="19.919" y="65.563" fill="#FFFFFF" width="0.642" height="2.019"/>
			<rect x="19.919" y="65.27" fill="#FFFFFF" width="1.755" height="0.585"/>
		</g>
		<g id="Basalrate_1_">
			<path fill="#FFFFFF" d="M25.83,69.074h-0.508v-3.308c-0.122,0.12-0.282,0.239-0.48,0.358c-0.199,0.119-0.377,0.208-0.535,0.268
				v-0.502c0.284-0.137,0.532-0.302,0.744-0.496c0.213-0.194,0.363-0.383,0.452-0.565h0.327V69.074z"/>
			<rect x="27.414" y="68.484" fill="#FFFFFF" width="0.578" height="0.591"/>
			<path fill="#FFFFFF" d="M28.737,67.958l0.507-0.069c0.058,0.294,0.158,0.506,0.298,0.636c0.14,0.129,0.31,0.194,0.511,0.194
				c0.24,0,0.44-0.084,0.606-0.254c0.164-0.169,0.246-0.378,0.246-0.628c0-0.239-0.075-0.436-0.228-0.59
				c-0.152-0.155-0.346-0.232-0.581-0.232c-0.095,0-0.215,0.02-0.358,0.058l0.057-0.456c0.034,0.004,0.061,0.006,0.082,0.006
				c0.216,0,0.411-0.058,0.584-0.173s0.259-0.293,0.259-0.534c0-0.19-0.063-0.348-0.189-0.473c-0.126-0.125-0.289-0.188-0.489-0.188
				c-0.197,0-0.361,0.064-0.493,0.191c-0.132,0.127-0.216,0.317-0.254,0.571l-0.507-0.091c0.061-0.348,0.203-0.618,0.423-0.809
				c0.22-0.191,0.494-0.287,0.821-0.287c0.226,0,0.434,0.049,0.623,0.148c0.191,0.099,0.336,0.234,0.436,0.406
				c0.101,0.171,0.151,0.353,0.151,0.545c0,0.182-0.048,0.349-0.143,0.499c-0.096,0.15-0.238,0.269-0.426,0.357
				c0.244,0.058,0.435,0.177,0.57,0.358c0.136,0.182,0.204,0.409,0.204,0.682c0,0.37-0.132,0.682-0.395,0.939
				c-0.263,0.257-0.596,0.385-0.999,0.385c-0.362,0-0.664-0.11-0.904-0.332C28.908,68.597,28.771,68.31,28.737,67.958z"/>
			<path fill="#FFFFFF" d="M31.947,67.967l0.533-0.046c0.04,0.266,0.131,0.465,0.275,0.599c0.143,0.133,0.317,0.2,0.52,0.2
				c0.245,0,0.452-0.094,0.621-0.282c0.17-0.189,0.254-0.439,0.254-0.75c0-0.296-0.081-0.53-0.243-0.701
				c-0.163-0.172-0.376-0.257-0.639-0.257c-0.163,0-0.311,0.038-0.442,0.113c-0.132,0.076-0.235,0.174-0.31,0.296l-0.476-0.064
				l0.4-2.171h2.056v0.496h-1.65l-0.223,1.137c0.248-0.177,0.508-0.266,0.781-0.266c0.361,0,0.666,0.128,0.914,0.384
				c0.248,0.256,0.373,0.585,0.373,0.987c0,0.382-0.109,0.713-0.327,0.991c-0.265,0.342-0.627,0.514-1.087,0.514
				c-0.375,0-0.683-0.108-0.921-0.324C32.117,68.608,31.981,68.322,31.947,67.967L31.947,67.967z"/>
		</g>
		<g id="Bolus-Zeichen_1_" serif:id="Bolus Zeichen">
			<rect x="19.26" y="72.266" fill="#F27E30" width="2.782" height="0.579"/>
			<rect x="22.007" y="75.201" fill="#F27E30" width="0.625" height="0.576"/>
			<rect x="21.447" y="72.845" fill="#F27E30" width="0.595" height="2.934"/>
			<rect x="19.26" y="72.845" fill="#F27E30" width="0.576" height="2.934"/>
		</g>
		<g id="IOB_1_">
			<path fill="#FFFFFF" d="M26.696,75.506v0.488H24.06c-0.004-0.123,0.015-0.24,0.057-0.353c0.067-0.186,0.174-0.369,0.323-0.549
				c0.148-0.181,0.361-0.39,0.641-0.626c0.433-0.369,0.726-0.66,0.878-0.875c0.153-0.215,0.229-0.419,0.229-0.61
				c0-0.202-0.07-0.371-0.208-0.509c-0.139-0.138-0.32-0.207-0.542-0.207c-0.237,0-0.425,0.074-0.567,0.221
				c-0.141,0.146-0.213,0.349-0.215,0.608l-0.503-0.054c0.034-0.389,0.164-0.685,0.389-0.889c0.225-0.204,0.527-0.306,0.906-0.306
				c0.383,0,0.686,0.11,0.909,0.33c0.223,0.22,0.335,0.492,0.335,0.818c0,0.165-0.033,0.327-0.098,0.488
				c-0.066,0.159-0.174,0.327-0.325,0.505c-0.152,0.176-0.404,0.419-0.755,0.727c-0.293,0.256-0.482,0.429-0.566,0.52
				c-0.083,0.091-0.152,0.183-0.207,0.275L26.696,75.506L26.696,75.506z"/>
			<rect x="27.497" y="75.415" fill="#FFFFFF" width="0.557" height="0.578"/>
			<path fill="#FFFFFF" d="M28.773,74.902l0.49-0.068c0.057,0.288,0.152,0.495,0.287,0.622c0.136,0.126,0.3,0.19,0.494,0.19
				c0.23,0,0.425-0.082,0.584-0.248c0.158-0.165,0.238-0.37,0.238-0.614c0-0.233-0.074-0.425-0.22-0.577
				c-0.147-0.151-0.334-0.226-0.561-0.226c-0.092,0-0.207,0.019-0.345,0.057l0.055-0.446c0.032,0.004,0.058,0.006,0.078,0.006
				c0.208,0,0.397-0.057,0.564-0.169c0.166-0.113,0.25-0.287,0.25-0.522c0-0.186-0.06-0.34-0.182-0.462
				c-0.122-0.123-0.279-0.184-0.471-0.184c-0.191,0-0.35,0.062-0.476,0.187c-0.127,0.124-0.209,0.31-0.245,0.558l-0.489-0.091
				c0.059-0.34,0.195-0.604,0.407-0.791c0.212-0.187,0.476-0.28,0.792-0.28c0.218,0,0.418,0.048,0.602,0.145
				c0.183,0.097,0.323,0.229,0.42,0.396c0.097,0.167,0.146,0.345,0.146,0.533c0,0.178-0.046,0.341-0.139,0.488
				c-0.093,0.146-0.23,0.263-0.411,0.35c0.236,0.056,0.419,0.173,0.55,0.351c0.13,0.177,0.195,0.4,0.195,0.667
				c0,0.36-0.126,0.667-0.38,0.918c-0.255,0.251-0.575,0.376-0.964,0.376c-0.35,0-0.64-0.108-0.872-0.324
				C28.937,75.526,28.805,75.246,28.773,74.902L28.773,74.902z"/>
			<path fill="#FFFFFF" d="M31.87,74.91l0.514-0.045c0.039,0.259,0.126,0.455,0.266,0.586c0.139,0.13,0.306,0.195,0.502,0.195
				c0.236,0,0.436-0.091,0.599-0.276c0.163-0.184,0.244-0.428,0.244-0.733c0-0.29-0.078-0.518-0.235-0.685
				c-0.158-0.167-0.362-0.251-0.617-0.251c-0.158,0-0.3,0.037-0.427,0.111c-0.126,0.075-0.226,0.171-0.299,0.289l-0.46-0.061
				l0.387-2.123h1.983v0.485h-1.592l-0.214,1.111c0.239-0.174,0.49-0.259,0.754-0.259c0.348,0,0.642,0.125,0.882,0.374
				c0.239,0.25,0.358,0.572,0.358,0.964c0,0.374-0.105,0.698-0.315,0.971c-0.257,0.334-0.606,0.502-1.048,0.502
				c-0.363,0-0.659-0.106-0.888-0.316C32.034,75.538,31.903,75.258,31.87,74.91L31.87,74.91z"/>
			<path fill="#FFFFFF" d="M37.785,71.86h0.528v2.388c0,0.415-0.045,0.745-0.136,0.989c-0.091,0.244-0.255,0.443-0.491,0.596
				c-0.237,0.154-0.547,0.23-0.932,0.23c-0.373,0-0.679-0.067-0.917-0.2c-0.238-0.134-0.407-0.327-0.509-0.58
				s-0.153-0.598-0.153-1.036V71.86h0.528v2.385c0,0.358,0.032,0.623,0.097,0.793c0.064,0.171,0.174,0.302,0.332,0.393
				c0.157,0.092,0.348,0.139,0.575,0.139c0.388,0,0.665-0.091,0.83-0.274c0.165-0.183,0.247-0.533,0.247-1.052L37.785,71.86
				L37.785,71.86z"/>
		</g>
		<g id="Tageszeit_1_">
			<path fill="#FFFFFF" d="M57.668,75.993h-0.524v-3.244c-0.126,0.117-0.291,0.234-0.496,0.351c-0.206,0.117-0.39,0.205-0.553,0.263
				V72.87c0.293-0.134,0.55-0.296,0.77-0.487c0.219-0.191,0.374-0.375,0.466-0.555h0.338V75.993z"/>
			<path fill="#FFFFFF" d="M61.767,75.504v0.49h-2.823c-0.004-0.123,0.017-0.241,0.061-0.354c0.072-0.187,0.187-0.371,0.345-0.552
				c0.158-0.181,0.387-0.39,0.686-0.628c0.464-0.37,0.778-0.662,0.941-0.878s0.244-0.42,0.244-0.612
				c0-0.202-0.074-0.373-0.223-0.511c-0.148-0.139-0.342-0.207-0.581-0.207c-0.253,0-0.455,0.074-0.606,0.221
				c-0.151,0.147-0.227,0.351-0.23,0.611l-0.539-0.054c0.037-0.39,0.175-0.689,0.417-0.892c0.241-0.205,0.564-0.307,0.97-0.307
				c0.41,0,0.735,0.11,0.973,0.331c0.239,0.221,0.358,0.494,0.358,0.821c0,0.166-0.035,0.329-0.105,0.49
				c-0.07,0.16-0.187,0.328-0.348,0.506c-0.162,0.177-0.432,0.421-0.809,0.73c-0.314,0.257-0.516,0.431-0.606,0.523
				c-0.09,0.091-0.163,0.183-0.222,0.275L61.767,75.504L61.767,75.504z"/>
			<path fill="#FFFFFF" d="M62.62,73.569v-0.58h0.597v0.58H62.62z M62.62,75.993v-0.58h0.597v0.58H62.62z"/>
			<path fill="#FFFFFF" d="M63.987,73.947c0-0.489,0.052-0.885,0.156-1.184c0.104-0.299,0.258-0.529,0.463-0.691
				c0.205-0.162,0.463-0.243,0.773-0.243c0.229,0,0.43,0.045,0.603,0.135c0.174,0.09,0.316,0.218,0.429,0.387
				c0.112,0.169,0.201,0.374,0.265,0.617c0.064,0.242,0.096,0.57,0.096,0.98c0,0.487-0.052,0.88-0.155,1.179
				c-0.103,0.298-0.257,0.529-0.462,0.692c-0.205,0.163-0.463,0.245-0.776,0.245c-0.411,0-0.735-0.143-0.97-0.43
				C64.128,75.289,63.987,74.727,63.987,73.947L63.987,73.947z M64.526,73.947c0,0.681,0.082,1.135,0.246,1.359
				c0.164,0.225,0.367,0.339,0.607,0.339s0.443-0.113,0.607-0.34c0.164-0.226,0.246-0.679,0.246-1.358
				c0-0.682-0.082-1.136-0.246-1.36c-0.164-0.224-0.369-0.337-0.613-0.337c-0.241,0-0.433,0.099-0.577,0.297
				C64.616,72.801,64.526,73.267,64.526,73.947L64.526,73.947z"/>
			<path fill="#FFFFFF" d="M68.986,75.993V75h-1.852v-0.467l1.949-2.687h0.428v2.687h0.577V75H69.51v0.993H68.986L68.986,75.993z
				 M68.986,74.533v-1.869l-1.337,1.869H68.986z"/>
		</g>
		<ellipse fill="#A9A2A2" cx="53.232" cy="73.955" rx="1.596" ry="1.605"/>
	</g>
</g>
</svg>
