<?xml version="1.0" encoding="utf-8"?>
<svg version="1.1" xmlns="http://www.w3.org/2000/svg" xmlns:xlink="http://www.w3.org/1999/xlink" x="0px" y="0px" width="24px"
	 height="24px" viewBox="0 0 24 24" enable-background="new 0 0 24 24" xml:space="preserve">
<g id="local_x5F_save">
		<path fill="#67E86A" d="M16.763,17.562c0,0.424-0.341,0.769-0.761,0.769H6.883c-0.42,0-0.762-0.345-0.762-0.769V8.397
			c0-0.424,0.342-0.769,0.762-0.769h7.342l0.959-1.417H6.883c-1.202,0-2.179,0.98-2.179,2.186v9.165
			c0,1.205,0.977,2.187,2.179,2.187h9.119c1.201,0,2.179-0.981,2.179-2.187V9.266l-1.418,2.096V17.562z"/>
		<path fill="#67E86A" d="M18.824,4.573c-0.326-0.221-0.766-0.135-0.984,0.19l-5.944,8.787l-2.518-2.53
			c-0.277-0.277-0.726-0.279-1.002-0.002c-0.277,0.276-0.278,0.725-0.002,1.002l3.125,3.141c0.134,0.134,0.315,0.209,0.502,0.209
			c0.022,0,0.044-0.001,0.066-0.004c0.211-0.02,0.402-0.133,0.521-0.308l6.427-9.501C19.233,5.232,19.148,4.792,18.824,4.573z"/>
</g>
</svg>
