<?xml version="1.0" encoding="utf-8"?>
<svg version="1.1" xmlns="http://www.w3.org/2000/svg" xmlns:xlink="http://www.w3.org/1999/xlink" x="0px" y="0px" width="24px"
	 height="24px" viewBox="0 0 24 24" enable-background="new 0 0 24 24" xml:space="preserve">
<g id="loop_x5F_Off">
	<rect width="24" height="24"/>
	<g>
		<path fill="#FFFFFF" d="M19.255,18.907l-1.967-1.967l0,0L6.801,6.453L5.218,4.87l0,0l-1.88-1.88L2.041,4.286l1.971,1.971
			C2.829,7.89,2.125,9.891,2.125,12.063c0,5.488,4.449,9.938,9.938,9.938c2.171,0,4.172-0.704,5.805-1.887l1.91,1.91l1.296-1.296
			L19.255,18.907L19.255,18.907z M12.063,19.219c-3.952,0-7.156-3.204-7.156-7.156c0-1.401,0.412-2.7,1.109-3.802l9.849,9.849
			C14.763,18.807,13.463,19.219,12.063,19.219z"/>
		<path fill="#FFFFFF" d="M12.063,4.906c1.072,0,2.085,0.242,2.998,0.665c0.325,0.151,0.639,0.321,0.936,0.517l0.002-0.002
			l-0.352-1.784l1.876-0.538c-1.567-1.033-3.442-1.639-5.46-1.639c-1.991,0-3.842,0.592-5.397,1.6l2.026,2.026
			C9.696,5.213,10.843,4.906,12.063,4.906z"/>
		<path fill="#FFFFFF" d="M24,9.343l-5.781-3.968l-1.328,6.688l2.102-1.757c0.014,0.056,0.03,0.111,0.043,0.168
			c0.116,0.512,0.183,1.042,0.183,1.589c0,1.219-0.307,2.366-0.844,3.371l2.025,2.025c1.009-1.555,1.6-3.405,1.6-5.397
			c0-0.759-0.093-1.496-0.254-2.206c-0.04-0.176-0.085-0.35-0.134-0.523L24,9.343L24,9.343z"/>
	</g>
</g>
</svg>
