<?xml version="1.0" encoding="utf-8"?>
<!-- Generator: Adobe Illustrator 17.0.0, SVG Export Plug-In . SVG Version: 6.00 Build 0)  -->
<!DOCTYPE svg PUBLIC "-//W3C//DTD SVG 1.1//EN" "http://www.w3.org/Graphics/SVG/1.1/DTD/svg11.dtd">
<svg version="1.1" xmlns="http://www.w3.org/2000/svg" xmlns:xlink="http://www.w3.org/1999/xlink" x="0px" y="0px" width="24px"
	 height="24px" viewBox="0 0 24 24" enable-background="new 0 0 24 24" xml:space="preserve">
<g id="x_x5F_swap_x5F_vert" display="none">
	<path display="inline" fill="none" d="M0,0h24v24H0V0z"/>
	<path display="inline" fill="#008585" d="M19.375,17.01V10h-2v7.01h-3l4,3.99l4-3.99H19.375z M12.375,3l-4,3.99h3V14h2V6.99h3
		L12.375,3z"/>
	<g display="inline">
		<path fill="#008585" d="M2.756,15.271c-0.128,0-0.256-0.049-0.354-0.146c-0.195-0.195-0.195-0.512,0-0.707l5.514-5.515
			c0.196-0.195,0.512-0.196,0.708,0c0.195,0.195,0.195,0.512,0,0.708L3.11,15.124C3.012,15.222,2.884,15.271,2.756,15.271z"/>
		<path fill="#008585" d="M8.271,15.271c-0.128,0-0.256-0.049-0.354-0.146L2.403,9.61c-0.196-0.196-0.196-0.512,0-0.708
			c0.195-0.196,0.512-0.196,0.708,0l5.514,5.515c0.196,0.195,0.196,0.512,0,0.707C8.527,15.222,8.399,15.271,8.271,15.271z"/>
	</g>
</g>
<g id="cp_x5F_basal_x5F_tbr_x5F_low" display="none">
	<path display="inline" fill="none" d="M0,0h24v24H0V0z"/>
	<polygon display="inline" fill="#CF8BFE" points="11.871,18.026 11.871,6.984 3.517,6.984 3.517,5.975 12.88,5.975 12.88,17.016 
		16.578,17.016 16.578,5.975 19.233,5.975 19.233,6.984 17.588,6.984 17.588,18.026 	"/>
</g>
<g id="cp_x5F_basal_x5F_tbr_x5F_high" display="none">
	<path display="inline" fill="none" d="M0,0h24v24H0V0z"/>
	<polygon display="inline" fill="#CF8BFE" points="16.578,18.033 16.578,6.99 12.88,6.99 12.88,18.033 3.517,18.033 3.517,17.023 
		11.871,17.023 11.871,5.982 17.588,5.982 17.588,17.023 19.233,17.023 19.233,18.033 	"/>
</g>
<g id="cp_x5F_basal_x5F_no_x5F_tbr" display="none">
	<path display="inline" fill="none" d="M0,0.021h24v24H0V0.021z"/>
	<rect x="3.517" y="11.496" display="inline" fill="#CF8BFE" width="15.717" height="1.009"/>
</g>
<g id="cp_x5F_basal_x5F_end" display="none">
	<g display="inline">
		<path fill="#CF8BFE" d="M3.923,12.021c-0.128,0-0.256-0.049-0.354-0.146c-0.195-0.195-0.195-0.512,0-0.707l5.514-5.515
			c0.196-0.195,0.512-0.196,0.708,0c0.195,0.195,0.195,0.512,0,0.708l-5.514,5.514C4.179,11.972,4.051,12.021,3.923,12.021z"/>
		<path fill="#CF8BFE" d="M9.438,12.021c-0.128,0-0.256-0.049-0.354-0.146L3.569,6.361c-0.196-0.196-0.196-0.512,0-0.708
			c0.195-0.196,0.512-0.196,0.708,0l5.514,5.515c0.196,0.195,0.196,0.512,0,0.707C9.694,11.972,9.566,12.021,9.438,12.021z"/>
	</g>
	<polygon display="inline" fill="#CF8BFE" points="16.578,18.026 16.578,6.984 12.88,6.984 12.88,18.026 3.517,18.026 3.517,17.016 
		11.871,17.016 11.871,5.975 17.588,5.975 17.588,17.016 19.233,17.016 19.233,18.026 	"/>
</g>
<g id="cp_x5F_bolus_x5F_correction" display="none">
	<polygon display="inline" fill="#E93057" points="16.578,18.026 16.578,6.984 12.88,6.984 12.88,18.026 3.517,18.026 3.517,17.016 
		11.871,17.016 11.871,5.975 17.588,5.975 17.588,17.016 19.233,17.016 19.233,18.026 	"/>
	<path display="inline" fill="#E93057" d="M2.852,13.946c-0.248,0-0.498-0.123-0.74-0.366c-0.49-0.49-0.492-0.986-0.004-1.474
		l3.125-3.125C5.106,8.737,5.048,8.435,5.048,8.136c0-1.336,1.172-2.508,2.508-2.508c0.282,0,0.572,0.055,0.864,0.163
		c0.186,0.069,0.347,0.148,0.493,0.242L8.547,6.484L7.431,7.6l0.731,0.661l1.046-1.116l0.374-0.374
		c0.171,0.154,0.25,0.315,0.319,0.501c0.108,0.292,0.163,0.583,0.163,0.864c0,0.67-0.261,1.3-0.734,1.773
		c-0.473,0.474-1.103,0.734-1.773,0.735c-0.298,0-0.6-0.058-0.898-0.173l-3.072,3.113C3.346,13.824,3.099,13.946,2.852,13.946z
		 M7.556,6.237c-0.507,0-0.984,0.198-1.342,0.556C5.855,7.152,5.657,7.629,5.657,8.136c0,0.153,0.024,0.313,0.076,0.5
		c0.046,0.168,0.114,0.326,0.2,0.47l0.022,0.037c0,0-0.139,0.115-0.168,0.146l-3.249,3.248c-0.26,0.26-0.227,0.381,0.004,0.612
		c0.134,0.134,0.219,0.186,0.304,0.186c0.085,0,0.184-0.058,0.308-0.182l3.249-3.249c0.03-0.03,0.104-0.12,0.104-0.12l0.078-0.026
		c0.146,0.087,0.304,0.155,0.471,0.2c0.186,0.052,0.344,0.076,0.499,0.076c1.009,0,1.896-0.887,1.898-1.898
		c0-0.134-0.018-0.274-0.054-0.43L8.342,8.872C8.284,8.929,8.208,8.961,8.126,8.961c-0.081,0-0.158-0.032-0.215-0.089L6.82,7.78
		c-0.119-0.119-0.119-0.313,0-0.431l1.143-1.142C7.886,6.235,7.807,6.241,7.729,6.241C7.67,6.241,7.556,6.237,7.556,6.237z"/>
</g>
<g id="Bolus" display="none">
	<path display="inline" fill="none" d="M0,0h24v24H0V0z"/>
	<path display="inline" fill="#67DFE8" d="M18.501,12.002l-0.428,0.564L8.179,5.064c-0.092-0.07-0.212-0.09-0.323-0.055L5.115,5.89
		L1.571,3.501L4.755,6.36L4.647,9.243c-0.004,0.116,0.047,0.226,0.14,0.296l9.895,7.502l-0.428,0.564
		c-0.26,0.343-0.193,0.832,0.15,1.092s0.832,0.193,1.092-0.15l1.653-2.18l2.219,1.683l-0.719,0.948
		c-0.26,0.343-0.193,0.832,0.15,1.092c0.343,0.26,0.832,0.193,1.092-0.15l2.379-3.138c0.26-0.343,0.193-0.832-0.15-1.092
		c-0.343-0.26-0.832-0.193-1.092,0.15l-0.719,0.948l-2.219-1.683l1.653-2.18c0.26-0.343,0.193-0.832-0.15-1.092
		S18.762,11.659,18.501,12.002z M5.458,6.524l2.44-0.783l9.748,7.39L17.26,13.64l-5.754-4.362c-0.091-0.069-0.221-0.053-0.293,0.035
		L9.087,11.91l-0.67-0.508l1.526-1.833c0.002-0.002,0.004-0.005,0.006-0.008c0.068-0.09,0.054-0.219-0.033-0.291
		c-0.09-0.075-0.224-0.063-0.299,0.027l-1.538,1.848l-0.769-0.583l1.526-1.833c0.002-0.002,0.004-0.005,0.006-0.008
		c0.068-0.09,0.054-0.219-0.033-0.291c-0.09-0.075-0.224-0.063-0.299,0.027L6.97,10.305L6.201,9.721l1.526-1.833
		C7.728,7.886,7.731,7.882,7.732,7.88c0.068-0.09,0.054-0.219-0.033-0.291C7.609,7.513,7.475,7.526,7.4,7.616L5.861,9.464
		L5.362,9.085L5.458,6.524z"/>
</g>
<g id="quickwizard" display="none">
	<path display="inline" fill="none" d="M0,0h24v24H0V0z"/>
	<path display="inline" fill="#FEAF05" d="M10.751,6.59c-0.561,0.69-0.796,1.057-1.25,1.797c-2.517,0.238-3.932,2.751-3.379,4.664
		c0.244,0.843,0.779,1.476,1.498,1.958c2.348,1.573,6.243,1.429,8.487-0.306c1.187-0.918,1.723-2.084,1.334-3.576
		c-0.412-1.58-1.445-2.585-3.039-2.87c-1.112-0.199-1.973,0.37-2.558,1.313c-0.494,0.796-0.72,1.616-1.628,2.345
		c-0.389-0.431-0.458-0.961-0.483-1.481c-0.12-2.486,2.019-4.439,4.595-4.213c2.365,0.207,4.466,1.956,5.114,4.256
		c0.611,2.172-0.226,4.432-2.19,5.909c-2.995,2.253-7.895,2.327-10.943,0.165c-2.057-1.459-2.88-3.881-2.099-6.18
		C5.023,7.978,7.368,6.304,9.77,6.4C10.072,6.412,10.365,6.459,10.751,6.59z"/>
	<path display="inline" fill="#FEAF06" d="M7.141,13.406c0.526-0.103,1.178-0.22,1.665-0.322c1.522-0.319,2.625-1.229,3.273-2.678
		c0.289-0.647,0.702-1.125,1.448-1.42c0.418,0.811,0.454,1.641,0.223,2.493c-0.284,1.049-0.889,1.863-1.819,2.429
		c-0.616,0.376-1.284,0.638-1.966,0.867C8.814,15.163,7.797,14.773,7.141,13.406z"/>
	<path display="inline" fill="#FEAF06" d="M12.313,14.203c0.734-0.537,1.25-1.089,1.469-1.612c0.894,0.159,1.92,0.314,2.804,0.471
		C16.036,14.799,13.922,15.203,12.313,14.203z"/>
	<path display="inline" fill="#FEAF06" d="M2.377,13.882c0.179-0.123,0.756-0.189,1.192-0.123c0.259,0.631,0.587,1.225,1.108,1.923
		c-0.572,0.116-1.037,0.253-1.567,0.224c-0.493-0.027-0.993-0.353-1.063-0.989C2.013,14.61,2.047,14.109,2.377,13.882z"/>
	<path display="inline" fill="#FEAF06" d="M19.143,15.22c0.196-0.497,0.362-0.961,0.561-1.411c0.235-0.531,0.618-0.76,1.121-0.681
		c0.419,0.066,0.575,0.376,0.644,0.756c0.098,0.541-0.078,0.989-0.529,1.213C20.38,15.377,19.787,15.293,19.143,15.22z"/>
</g>
<g id="calculator" display="none">
	<path display="inline" fill="none" d="M0,0h24v24H0V0z"/>
	<path display="inline" fill="#67E86A" d="M17.625,15.345h-4.083c-0.063,0-0.113,0.051-0.113,0.113v1.292
		c0,0.063,0.051,0.113,0.113,0.113h4.083c0.063,0,0.113-0.051,0.113-0.113v-1.292C17.738,15.396,17.688,15.345,17.625,15.345z"/>
	<g display="inline">
		<path fill="#67E86A" d="M16.343,14.036c0-0.063-0.051-0.113-0.113-0.113h-1.292c-0.063,0-0.113,0.051-0.113,0.113v1.016h1.519
			V14.036z"/>
		<path fill="#67E86A" d="M14.824,18.119c0,0.063,0.051,0.113,0.113,0.113h1.292c0.063,0,0.113-0.051,0.113-0.113v-1.017h-1.519
			V18.119z"/>
	</g>
	<path display="inline" fill="#67E86A" d="M19.836,1.96h-15.1c-0.344,0-0.624,0.279-0.624,0.624v18.375
		c0,0.345,0.279,0.624,0.624,0.624h15.1c0.345,0,0.624-0.279,0.624-0.624V2.583C20.46,2.239,20.181,1.96,19.836,1.96z
		 M19.212,20.334H5.36V7.04h13.852V20.334z M19.212,5.793H5.36V3.207h13.852V5.793z"/>
	<path display="inline" fill="#67E86A" d="M13.542,11.363h4.083c0.063,0,0.113-0.051,0.113-0.113V9.958
		c0-0.063-0.051-0.113-0.113-0.113h-4.083c-0.063,0-0.113,0.051-0.113,0.113v1.292C13.429,11.313,13.479,11.363,13.542,11.363z"/>
	<path display="inline" fill="#67E86A" d="M7.042,11.363h1.283v1.282c0,0.063,0.051,0.113,0.113,0.113h1.292
		c0.063,0,0.113-0.051,0.113-0.113v-1.282h1.283c0.063,0,0.113-0.051,0.113-0.113V9.958c0-0.063-0.051-0.113-0.113-0.113H9.842
		V8.563c0-0.063-0.051-0.113-0.113-0.113H8.438c-0.063,0-0.113,0.051-0.113,0.113v1.283H7.042c-0.063,0-0.113,0.051-0.113,0.113
		v1.292C6.928,11.313,6.979,11.363,7.042,11.363z"/>
	<path display="inline" fill="#67E86A" d="M10.157,16.078l0.907-0.907c0.021-0.021,0.033-0.05,0.033-0.08s-0.012-0.059-0.033-0.08
		l-0.914-0.913c-0.044-0.045-0.116-0.045-0.16,0l-0.907,0.907l-0.907-0.907c-0.044-0.045-0.116-0.045-0.16,0l-0.913,0.913
		c-0.044,0.044-0.044,0.116,0,0.16l0.907,0.907l-0.907,0.907c-0.044,0.044-0.044,0.116,0,0.16l0.913,0.914
		c0.021,0.021,0.05,0.033,0.08,0.033s0.059-0.012,0.08-0.033l0.907-0.907l0.907,0.907c0.021,0.021,0.05,0.033,0.08,0.033
		s0.059-0.012,0.08-0.033l0.914-0.914c0.044-0.044,0.044-0.116,0-0.16L10.157,16.078z"/>
</g>
<g id="cp_x5F_bolus_x5F_carbs" display="none">
	<path display="inline" fill="none" d="M0,0h24v24H0V0z"/>
	<path display="inline" fill="#FEAD01" d="M16.074,14.883c-0.332,0.416-0.691,0.722-1.09,0.993c-0.378,0.257-0.843,0.39-1.203,0.468
		c-0.688,0.125-0.25,0.188,0.096,0.657c-1.247,1.781-3.348,1.9-5.102,0.991c-0.141-0.073-0.272-0.165-0.403-0.255
		c-0.276-0.19-0.398-0.236-0.63,0.004c-0.187,0.193-0.628,0.618-0.852,0.838L6.4,18.047c0.241-0.219,0.518-0.491,0.718-0.678
		c0.435-0.408,0.336-0.458-0.011-0.955c-1.205-1.725-0.836-3.976,0.859-5.236c0.722,0.462,0.566,0.353,0.801-0.327
		c0.251-0.726,0.677-1.345,1.325-1.777c0.659,0.582,0.549,0.316,0.814-0.351c0.286-0.721,0.734-1.309,1.353-1.806
		c0.695,0.458,1.014,0.966,1.252,1.538c0.273,0.656,0.379,0.435,0.858-0.03c1.023-0.992,2.273-1.385,3.491-1.087
		c0.287,1.586-0.39,3.005-1.859,3.932c0.771,0.208,1.5,0.625,2.215,1.468c-0.439,0.643-1.213,1.259-1.993,1.39
		C15.105,14.317,15.734,14.359,16.074,14.883z M17.184,8.469c0.013-0.442-0.128-0.559-0.51-0.508
		c-1.244,0.167-2.413,1.284-2.621,2.504c-0.072,0.422,0.15,0.648,0.571,0.551c0.267-0.062,0.538-0.144,0.783-0.265
		C16.39,10.263,17,9.484,17.184,8.469z M13.259,10.211c0.011-0.699-0.231-1.258-0.566-1.784c-0.322-0.506-0.546-0.505-0.868-0.011
		c-0.744,1.138-0.442,2.461,0.152,3.433c0.19,0.311,0.445,0.313,0.669,0.011C13.017,11.357,13.273,10.801,13.259,10.211z
		 M10.925,17.86c0.517,0,1.245-0.233,1.618-0.515c0.317-0.24,0.344-0.436,0.03-0.652c-1.164-0.802-2.354-0.977-3.585-0.119
		c-0.414,0.289-0.391,0.523,0.063,0.79C9.629,17.703,10.26,17.846,10.925,17.86z M11.109,12.297c0.02-0.666-0.231-1.243-0.569-1.786
		c-0.316-0.507-0.532-0.495-0.854,0.026c-0.622,1.004-0.57,2.408,0.126,3.37c0.241,0.334,0.449,0.355,0.707,0.03
		C10.896,13.459,11.123,12.916,11.109,12.297z M15.068,13.639c0.661-0.003,1.381-0.217,1.756-0.502
		c0.32-0.244,0.329-0.403,0.036-0.66c-0.936-0.82-2.634-0.874-3.605-0.113c-0.351,0.275-0.358,0.527,0.019,0.737
		C13.85,13.423,14.46,13.658,15.068,13.639z M7.124,14.258c-0.023,0.548,0.124,1.116,0.447,1.633
		c0.305,0.489,0.569,0.494,0.893,0.036c0.704-0.995,0.645-2.507-0.135-3.438c-0.254-0.303-0.471-0.302-0.713,0.03
		C7.253,13.017,7.116,13.587,7.124,14.258z M12.831,13.928c-0.667-0.031-1.25,0.192-1.77,0.589c-0.26,0.198-0.271,0.416-0.005,0.636
		c0.852,0.704,2.692,0.765,3.599,0.114c0.367-0.263,0.376-0.482,0.005-0.726C14.106,14.175,13.512,13.911,12.831,13.928z"/>
</g>
<g id="actions_x5F_startextbolus" display="none">
	<path display="inline" fill="none" d="M-0.002,0h24v24h-24V0z"/>
	<path display="inline" fill="#67DFE8" d="M15.714,7.697l0.353-0.684c0.18-0.348,0.043-0.775-0.305-0.955
		c-0.351-0.181-0.775-0.043-0.955,0.305l-0.354,0.685c-0.379-0.148-0.772-0.265-1.18-0.344V6.106
		c0.45-0.061,0.802-0.431,0.802-0.897c0-0.509-0.412-0.921-0.921-0.921h-2.313c-0.509,0-0.921,0.413-0.921,0.921
		c0,0.467,0.352,0.836,0.802,0.897v0.598c-3.125,0.599-5.495,3.349-5.495,6.646c0,3.732,3.037,6.77,6.77,6.77
		c3.732,0,6.77-3.037,6.77-6.77C18.768,10.989,17.551,8.909,15.714,7.697z M11.998,19.119c-3.182,0-5.77-2.588-5.77-5.77
		s2.588-5.77,5.77-5.77s5.77,2.588,5.77,5.77S15.18,19.119,11.998,19.119z"/>
	<path display="inline" fill="#67DFE8" d="M12,8.814c-0.086,0-0.169,0.035-0.23,0.096s-0.096,0.144-0.096,0.23v4.198
		c0,0.08,0.029,0.157,0.083,0.217l2.789,3.14c0.058,0.064,0.139,0.104,0.226,0.108c0.006,0.001,0.013,0.001,0.019,0.001
		c0.08,0,0.157-0.029,0.217-0.083c0.971-0.866,1.527-2.095,1.527-3.372C16.533,10.85,14.5,8.816,12,8.814z"/>
</g>
<g id="actions_x5F_cancelextbolus" display="none">
	<path display="inline" fill="none" d="M0,0h24v24H0V0z"/>
	<g display="inline">
		<path fill="#FEAF05" d="M20.164,7.697l0.353-0.684c0.18-0.348,0.043-0.775-0.305-0.955c-0.351-0.181-0.775-0.043-0.955,0.305
			l-0.354,0.685c-0.379-0.148-0.772-0.265-1.18-0.344V6.106c0.45-0.061,0.802-0.431,0.802-0.897c0-0.509-0.412-0.921-0.921-0.921
			h-2.312c-0.509,0-0.921,0.413-0.921,0.921c0,0.467,0.352,0.836,0.802,0.897v0.598c-3.125,0.599-5.495,3.349-5.495,6.646
			c0,3.732,3.037,6.77,6.77,6.77c3.732,0,6.77-3.037,6.77-6.77C23.218,10.989,22.001,8.909,20.164,7.697z M16.448,19.119
			c-3.182,0-5.77-2.588-5.77-5.77s2.588-5.77,5.77-5.77s5.77,2.588,5.77,5.77S19.63,19.119,16.448,19.119z"/>
		<path fill="#FEAF05" d="M16.45,8.814c-0.086,0-0.169,0.035-0.23,0.096s-0.096,0.144-0.096,0.23v4.198
			c0,0.08,0.029,0.157,0.083,0.217l2.789,3.14c0.058,0.064,0.139,0.104,0.226,0.108c0.006,0.001,0.013,0.001,0.019,0.001
			c0.08,0,0.157-0.029,0.217-0.083c0.971-0.866,1.527-2.095,1.527-3.372C20.983,10.85,18.95,8.816,16.45,8.814z"/>
	</g>
	<g display="inline">
		<path fill="#FEAF05" d="M1.972,12.381c-0.128,0-0.256-0.049-0.354-0.146c-0.195-0.195-0.195-0.512,0-0.707l5.514-5.515
			c0.196-0.195,0.512-0.196,0.708,0c0.195,0.195,0.195,0.512,0,0.708l-5.514,5.514C2.228,12.333,2.1,12.381,1.972,12.381z"/>
		<path fill="#FEAF05" d="M7.486,12.381c-0.128,0-0.256-0.049-0.354-0.146L1.618,6.721c-0.196-0.196-0.196-0.512,0-0.708
			c0.195-0.196,0.512-0.196,0.708,0l5.514,5.515c0.196,0.195,0.196,0.512,0,0.707C7.743,12.333,7.614,12.381,7.486,12.381z"/>
	</g>
</g>
<g id="xdrip" display="none">
	<path display="inline" fill="none" d="M0,0h24v24H0V0z"/>
	<path display="inline" fill="#B92929" d="M12.143,3.619c1.326,1.335,2.613,2.639,3.908,3.934c0.86,0.86,1.735,1.695,2.294,2.811
		c1.242,2.477,0.847,5.53-1.039,7.698c-1.763,2.026-4.813,2.845-7.35,1.973c-4.996-1.716-6.424-7.776-2.71-11.543
		C8.837,6.878,10.458,5.294,12.143,3.619z M12.08,6.135c-1.258,1.251-2.447,2.427-3.628,3.61c-1.148,1.149-1.65,2.542-1.541,4.158
		c0.177,2.618,2.665,4.888,5.169,4.688C12.08,14.471,12.08,10.35,12.08,6.135z"/>
</g>
<g id="calibration" display="none">
	<path display="inline" fill="none" d="M0,0h24v24H0V0z"/>
	<path display="inline" fill="#E83258" d="M7.305,4.482c1.782,2.914,4.332,5.382,3.916,9.05c-0.256,2.254-2.529,3.635-4.783,3.199
		c-2.145-0.415-3.625-2.546-3.171-4.728C3.858,9.168,5.537,6.894,7.305,4.482z M5.08,10.061c-0.212,0.638-0.489,1.262-0.621,1.916
		c-0.205,1.017-0.065,1.994,0.764,2.731c0.297,0.264,0.68,0.354,1.038,0.077c0.242-0.187,0.269-0.46,0.096-0.692
		C5.468,12.903,5.032,11.589,5.08,10.061z"/>
	<path display="inline" fill="#E83258" d="M17.959,4.566c1.073,1.453,2.073,2.837,2.489,4.535c0.28,1.143-0.069,2.1-1.037,2.763
		c-0.943,0.645-1.961,0.655-2.904,0.009c-0.967-0.662-1.318-1.635-1.041-2.769C15.88,7.408,16.875,6.019,17.959,4.566z"/>
	<path display="inline" fill="#E83258" d="M14.82,14.425c0.797,1.094,1.535,2.104,1.819,3.355c0.188,0.826-0.096,1.498-0.784,1.965
		c-0.669,0.454-1.393,0.467-2.067,0.014c-0.688-0.462-0.985-1.13-0.8-1.959C13.272,16.531,14.004,15.503,14.82,14.425z"/>
</g>
<g id="Raw_x5F_Objects" display="none">
	<circle fill="#00CD40" cx="12.063" cy="12.063" r="9.938"/>
	<circle fill="#FFFFFF" cx="12.063" cy="12.063" r="7.156"/>
	<polygon fill="#00CD40" points="16.891,12.063 20.162,9.328 24,9.343 18.219,5.375 	"/>
	<line fill="none" stroke="#CF8BFE" stroke-width="0.0057" stroke-miterlimit="10" x1="12.063" y1="4.953" x2="12.063" y2="2.125"/>
	<circle fill="none" stroke="#CF8BFE" stroke-width="0.0057" stroke-miterlimit="10" cx="12.063" cy="12.063" r="8.547"/>
	<g>
		<path display="inline" fill="#939393" d="M5.299,19.329l1.944-1.987c-1.433-1.309-2.337-3.186-2.337-5.279
			c0-3.952,3.204-7.156,7.156-7.156c1.072,0,2.085,0.242,2.998,0.665c0.325,0.151,0.639,0.321,0.936,0.517l0.002-0.002l-0.352-1.784
			l1.876-0.538c-1.567-1.033-3.442-1.639-5.46-1.639c-5.488,0-9.938,4.449-9.938,9.938C2.125,14.935,3.351,17.515,5.299,19.329z"/>
		<path display="inline" fill="#939393" d="M24,9.343l-5.781-3.968l-1.328,6.688l2.102-1.757c0.014,0.056,0.03,0.111,0.043,0.168
			c0.116,0.512,0.183,1.042,0.183,1.589c0,2.461-1.243,4.63-3.134,5.918l2.1,1.899C20.504,18.06,22,15.239,22,12.063
			c0-0.759-0.093-1.496-0.254-2.206c-0.04-0.176-0.085-0.35-0.134-0.523L24,9.343L24,9.343z"/>
	</g>
	<g>
		<g display="inline">
			<g>
				<g>
					
						<rect x="8.17" y="20.061" transform="matrix(0.6572 -0.7537 0.7537 0.6572 -13.0797 13.707)" fill="#939393" width="0.719" height="2.344"/>
					
						<rect x="9.916" y="18.059" transform="matrix(0.6572 -0.7537 0.7537 0.6572 -10.9723 14.3365)" fill="#939393" width="0.719" height="2.344"/>
				</g>
				<path fill="#939393" d="M5.711,14.414l-2.58,2.959c-0.001,0.842,0.325,1.681,1.01,2.277l2.416,2.103l3.96-4.549l-2.416-2.103
					C7.417,14.506,6.544,14.298,5.711,14.414z"/>
			</g>
		</g>
		<g display="inline">
			<g>
				<path fill="#939393" d="M18.444,14.414l2.58,2.959c0.001,0.842-0.325,1.681-1.01,2.277l-2.416,2.103l-3.96-4.549l2.416-2.103
					C16.738,14.506,17.612,14.298,18.444,14.414z"/>
			</g>
		</g>
	</g>
	<g display="inline">
		
			<rect x="-0.623" y="14.395" transform="matrix(0.8655 -0.5009 0.5009 0.8655 -6.7608 5.3183)" fill="#FFFFFF" stroke="#CF8BFE" stroke-width="0.0057" stroke-miterlimit="10" width="14.292" height="1.708"/>
		
			<rect x="-1.474" y="11.198" transform="matrix(1 -0.001 0.001 1 -0.0125 0.0059)" fill="#FFFFFF" stroke="#CF8BFE" stroke-width="0.0057" stroke-miterlimit="10" width="14.292" height="1.708"/>
		
			<rect x="-0.613" y="8.004" transform="matrix(0.8665 0.4991 -0.4991 0.8665 5.2929 -2.0783)" fill="#FFFFFF" stroke="#CF8BFE" stroke-width="0.0057" stroke-miterlimit="10" width="14.292" height="1.708"/>
		
			<rect x="1.729" y="5.668" transform="matrix(0.5009 0.8655 -0.8655 0.5009 10.0749 -4.4262)" fill="#FFFFFF" stroke="#CF8BFE" stroke-width="0.0057" stroke-miterlimit="10" width="14.292" height="1.708"/>
		
			<rect x="4.926" y="4.817" transform="matrix(0.001 1 -1 0.001 17.7304 -6.4067)" fill="#FFFFFF" stroke="#CF8BFE" stroke-width="0.0057" stroke-miterlimit="10" width="14.292" height="1.708"/>
		
			<rect x="8.12" y="5.678" transform="matrix(-0.4991 0.8665 -0.8665 -0.4991 28.5462 -3.4363)" fill="#FFFFFF" stroke="#CF8BFE" stroke-width="0.0057" stroke-miterlimit="10" width="14.292" height="1.708"/>
		
			<rect x="10.456" y="8.021" transform="matrix(-0.8655 0.5009 -0.5009 -0.8655 37.2824 7.7403)" fill="#FFFFFF" stroke="#CF8BFE" stroke-width="0.0057" stroke-miterlimit="10" width="14.292" height="1.708"/>
		
			<rect x="11.308" y="11.218" transform="matrix(-1 0.001 -0.001 -1 36.9192 24.1257)" fill="#FFFFFF" stroke="#CF8BFE" stroke-width="0.0057" stroke-miterlimit="10" width="14.292" height="1.708"/>
		
			<rect x="10.446" y="14.413" transform="matrix(-0.8665 -0.4991 0.4991 -0.8665 25.2167 37.2764)" fill="#FFFFFF" stroke="#CF8BFE" stroke-width="0.0057" stroke-miterlimit="10" width="14.292" height="1.708"/>
		
			<rect x="8.103" y="16.748" transform="matrix(-0.5009 -0.8655 0.8655 -0.5009 7.652 39.6179)" fill="#FFFFFF" stroke="#CF8BFE" stroke-width="0.0057" stroke-miterlimit="10" width="14.292" height="1.708"/>
		
			<rect x="4.906" y="17.6" transform="matrix(-0.001 -1 1 -0.001 -6.3894 30.525)" fill="#FFFFFF" stroke="#CF8BFE" stroke-width="0.0057" stroke-miterlimit="10" width="14.292" height="1.708"/>
		
			<rect x="1.712" y="16.738" transform="matrix(0.4991 -0.8665 0.8665 0.4991 -10.8081 16.4877)" fill="#FFFFFF" stroke="#CF8BFE" stroke-width="0.0057" stroke-miterlimit="10" width="14.292" height="1.708"/>
	</g>
	<circle fill="none" stroke="#CF8BFE" stroke-width="0.0057" stroke-miterlimit="10" cx="12.063" cy="12.063" r="8.547"/>
</g>
<g id="loop_x5F_open">
	<path fill="#4983D7" d="M6.349,7.767c0.408-0.542,0.89-1.022,1.433-1.429L6.38,3.917C5.424,4.584,4.593,5.415,3.924,6.37
		L6.349,7.767z"/>
	<path fill="#4983D7" d="M3.072,7.85c-0.485,1.034-0.801,2.16-0.903,3.351l2.795-0.003c0.083-0.687,0.259-1.345,0.523-1.958
		L3.072,7.85z"/>
	<path fill="#4983D7" d="M21.059,7.862l-2.412,1.396c0.262,0.614,0.437,1.272,0.518,1.96l2.793-0.003
		C21.856,10.024,21.543,8.896,21.059,7.862z"/>
	<path fill="#4983D7" d="M17.787,7.781l2.421-1.401c-0.668-0.956-1.499-1.787-2.454-2.456l-1.397,2.425
		C16.9,6.757,17.38,7.238,17.787,7.781z"/>
	<path fill="#4983D7" d="M19.162,12.926c-0.427,3.544-3.44,6.293-7.099,6.293c-3.666,0-6.684-2.758-7.102-6.312L2.168,12.91
		C2.599,18.001,6.86,22,12.063,22c5.198,0,9.457-3.992,9.894-9.077L19.162,12.926z"/>
	<path fill="#4983D7" d="M9.258,5.478c0.613-0.262,1.272-0.436,1.959-0.517l-0.003-2.793c-1.191,0.101-2.318,0.414-3.352,0.898
		L9.258,5.478z"/>
	<path fill="#4983D7" d="M12.925,4.963c0.687,0.083,1.345,0.259,1.958,0.522l1.391-2.414c-1.034-0.485-2.161-0.801-3.352-0.903
		L12.925,4.963z"/>
</g>
<g id="loop_x5F_closed" display="none">
	<path display="inline" fill="#00C03E" d="M24,9.343l-5.781-3.968l-1.328,6.688l2.102-1.757c0.014,0.056,0.03,0.111,0.043,0.168
		c0.116,0.512,0.183,1.042,0.183,1.589c0,3.952-3.204,7.156-7.156,7.156s-7.156-3.204-7.156-7.156s3.204-7.156,7.156-7.156
		c1.072,0,2.085,0.242,2.998,0.665c0.325,0.151,0.639,0.321,0.936,0.517l0.002-0.002l-0.352-1.784l1.876-0.538
		c-1.567-1.033-3.442-1.639-5.46-1.639c-5.488,0-9.938,4.449-9.938,9.938S6.574,22,12.063,22S22,17.551,22,12.063
		c0-0.759-0.093-1.496-0.254-2.206c-0.04-0.176-0.085-0.35-0.134-0.523L24,9.343L24,9.343z"/>
</g>
<g id="loop_x5F_disconnected" display="none">
	<path display="inline" fill="#939393" d="M17.523,3.764c-1.567-1.033-3.442-1.639-5.46-1.639c-5.488,0-9.938,4.449-9.938,9.938
		c0,1.803,0.484,3.49,1.325,4.945l-0.319,0.365c-0.001,0.842,0.325,1.681,1.01,2.277l2.416,2.103l0.872-1.002l1.746,1.523
		l0.472-0.542l-1.747-1.523l1.272-1.461l1.748,1.524l0.472-0.542l-1.749-1.525l0.872-1.001l-2.416-2.103
		c-0.684-0.596-1.557-0.803-2.39-0.687l-0.277,0.318c-0.335-0.825-0.528-1.723-0.528-2.67c0-3.952,3.204-7.156,7.156-7.156
		c1.072,0,2.085,0.242,2.998,0.665c0.325,0.151,0.639,0.321,0.936,0.517l0.002-0.002l-0.352-1.784L17.523,3.764z"/>
	<path display="inline" fill="#939393" d="M24,9.343l-5.781-3.968l-1.328,6.688l2.102-1.757c0.014,0.056,0.03,0.111,0.043,0.168
		c0.116,0.512,0.183,1.042,0.183,1.589c0,0.938-0.183,1.833-0.511,2.653l-0.263-0.302c-0.833-0.116-1.706,0.091-2.39,0.687
		l-2.416,2.103l3.96,4.549l2.416-2.103c0.685-0.596,1.011-1.435,1.01-2.277l-0.346-0.397C21.51,15.526,22,13.855,22,12.063
		c0-0.759-0.093-1.496-0.254-2.206c-0.04-0.176-0.085-0.35-0.134-0.523L24,9.343L24,9.343z"/>
</g>
<g id="loop_x5F_superbolus" display="none">
	<path display="inline" fill="#FEAD01" d="M24,9.343l-5.781-3.968l-1.328,6.688l2.102-1.757c0.014,0.056,0.03,0.111,0.043,0.168
		c0.116,0.512,0.183,1.042,0.183,1.589c0,3.952-3.204,7.156-7.156,7.156s-7.156-3.204-7.156-7.156s3.204-7.156,7.156-7.156
		c1.072,0,2.085,0.242,2.998,0.665c0.325,0.151,0.639,0.321,0.936,0.517l0.002-0.002l-0.352-1.784l1.876-0.538
		c-1.567-1.033-3.442-1.639-5.46-1.639c-5.488,0-9.938,4.449-9.938,9.938S6.574,22,12.063,22S22,17.551,22,12.063
		c0-0.759-0.093-1.496-0.254-2.206c-0.04-0.176-0.085-0.35-0.134-0.523L24,9.343L24,9.343z"/>
	<path display="inline" fill="#FEAD01" d="M15.026,13.715c-0.267,0.334-0.555,0.58-0.875,0.798
		c-0.304,0.206-0.678,0.313-0.966,0.376c-0.552,0.1-0.201,0.151,0.077,0.528c-1.002,1.431-2.69,1.526-4.098,0.796
		c-0.113-0.059-0.219-0.132-0.324-0.205c-0.222-0.152-0.32-0.189-0.506,0.003c-0.151,0.155-0.504,0.496-0.684,0.673l-0.394-0.427
		c0.193-0.176,0.417-0.394,0.577-0.545c0.349-0.328,0.27-0.368-0.009-0.767c-0.968-1.386-0.672-3.195,0.69-4.207
		c0.58,0.372,0.455,0.284,0.643-0.263c0.201-0.583,0.544-1.081,1.064-1.427c0.529,0.467,0.441,0.254,0.654-0.282
		c0.23-0.58,0.59-1.052,1.087-1.451c0.559,0.368,0.815,0.776,1.006,1.236c0.219,0.527,0.304,0.35,0.689-0.024
		c0.822-0.797,1.826-1.113,2.805-0.873c0.23,1.274-0.314,2.414-1.494,3.159c0.619,0.167,1.205,0.502,1.78,1.179
		c-0.352,0.516-0.974,1.011-1.601,1.117C14.247,13.26,14.753,13.295,15.026,13.715z M15.918,8.562
		c0.01-0.355-0.102-0.449-0.41-0.408c-0.999,0.134-1.939,1.031-2.105,2.011c-0.058,0.339,0.121,0.52,0.459,0.442
		c0.215-0.049,0.432-0.116,0.629-0.213C15.279,10.004,15.77,9.378,15.918,8.562z M12.764,9.962c0.009-0.561-0.185-1.011-0.454-1.433
		c-0.259-0.406-0.438-0.405-0.697-0.009c-0.598,0.914-0.355,1.977,0.122,2.758c0.152,0.25,0.358,0.252,0.537,0.009
		C12.57,10.882,12.775,10.436,12.764,9.962z M10.889,16.107c0.415,0,1-0.187,1.3-0.414c0.255-0.193,0.276-0.35,0.024-0.524
		c-0.935-0.644-1.891-0.785-2.88-0.096c-0.333,0.232-0.314,0.421,0.05,0.635C9.848,15.981,10.355,16.096,10.889,16.107z
		 M11.037,11.638c0.016-0.535-0.186-0.998-0.457-1.435c-0.254-0.407-0.427-0.398-0.686,0.021c-0.5,0.806-0.458,1.935,0.101,2.707
		c0.194,0.268,0.361,0.285,0.568,0.024C10.866,12.571,11.048,12.136,11.037,11.638z M14.217,12.716
		c0.531-0.002,1.109-0.174,1.411-0.403c0.257-0.196,0.264-0.324,0.029-0.53c-0.752-0.659-2.116-0.702-2.896-0.091
		c-0.282,0.221-0.288,0.423,0.015,0.592C13.239,12.543,13.729,12.732,14.217,12.716z M7.835,13.214
		c-0.019,0.44,0.1,0.897,0.359,1.312c0.245,0.392,0.457,0.397,0.717,0.029c0.566-0.8,0.518-2.014-0.108-2.762
		c-0.204-0.244-0.378-0.243-0.573,0.024C7.939,12.217,7.829,12.674,7.835,13.214z M12.42,12.948
		c-0.536-0.025-1.004,0.155-1.422,0.473c-0.209,0.159-0.218,0.334-0.004,0.511c0.685,0.566,2.162,0.614,2.891,0.091
		c0.295-0.212,0.302-0.387,0.004-0.583C13.445,13.147,12.968,12.935,12.42,12.948z"/>
</g>
<g id="loop_x5F_disabled" display="none">
	<path display="inline" fill="#FF1313" d="M24,9.343l-5.781-3.968l-1.328,6.688l2.102-1.757c0.014,0.056,0.03,0.111,0.043,0.168
		c0.116,0.512,0.183,1.042,0.183,1.589c0,3.952-3.204,7.156-7.156,7.156s-7.156-3.204-7.156-7.156s3.204-7.156,7.156-7.156
		c1.072,0,2.085,0.242,2.998,0.665c0.325,0.151,0.639,0.321,0.936,0.517l0.002-0.002l-0.352-1.784l1.876-0.538
		c-1.567-1.033-3.442-1.639-5.46-1.639c-5.488,0-9.938,4.449-9.938,9.938S6.574,22,12.063,22S22,17.551,22,12.063
		c0-0.759-0.093-1.496-0.254-2.206c-0.04-0.176-0.085-0.35-0.134-0.523L24,9.343L24,9.343z"/>
	<g display="inline">
		
			<rect x="8.453" y="10.938" transform="matrix(0.7071 0.7071 -0.7071 0.7071 12 -4.9706)" fill="#FF1313" width="7.094" height="2.125"/>
		
			<rect x="8.453" y="10.938" transform="matrix(0.7071 -0.7071 0.7071 0.7071 -4.9706 12)" fill="#FF1313" width="7.094" height="2.125"/>
	</g>
</g>
<g id="loop_x5F_paused" display="none">
	<path display="inline" fill="#FFFF13" d="M24,9.343l-5.781-3.968l-1.328,6.688l2.102-1.757c0.014,0.056,0.03,0.111,0.043,0.168
		c0.116,0.512,0.183,1.042,0.183,1.589c0,3.952-3.204,7.156-7.156,7.156s-7.156-3.204-7.156-7.156s3.204-7.156,7.156-7.156
		c1.072,0,2.085,0.242,2.998,0.665c0.325,0.151,0.639,0.321,0.936,0.517l0.002-0.002l-0.352-1.784l1.876-0.538
		c-1.567-1.033-3.442-1.639-5.46-1.639c-5.488,0-9.938,4.449-9.938,9.938S6.574,22,12.063,22S22,17.551,22,12.063
		c0-0.759-0.093-1.496-0.254-2.206c-0.04-0.176-0.085-0.35-0.134-0.523L24,9.343L24,9.343z"/>
	<rect x="8.813" y="8.453" display="inline" fill="#FFFF13" width="2.125" height="7.094"/>
	<rect x="13.063" y="8.453" display="inline" fill="#FFFF13" width="2.125" height="7.094"/>
</g>
<g id="loop_x5F_lgs" display="none">
	<path display="inline" fill="#00C03E" d="M6.349,7.767c0.408-0.542,0.89-1.022,1.433-1.429L6.38,3.917
		C5.424,4.584,4.593,5.415,3.924,6.37L6.349,7.767z"/>
	<path display="inline" fill="#00C03E" d="M9.258,5.478c0.613-0.262,1.272-0.436,1.959-0.517l-0.003-2.793
		c-1.191,0.101-2.318,0.414-3.352,0.898L9.258,5.478z"/>
	<path display="inline" fill="#00C03E" d="M12.922,2.189l0.003,2.773c0.754,0.093,1.472,0.301,2.135,0.608
		c0.325,0.151,0.639,0.321,0.936,0.517l0.002-0.002l-0.352-1.784l1.876-0.538C16.182,2.88,14.61,2.336,12.922,2.189z"/>
	<path display="inline" fill="#00C03E" d="M4.963,11.199c0.083-0.687,0.259-1.345,0.523-1.958L3.072,7.85
		c-0.485,1.034-0.801,2.16-0.903,3.351L4.963,11.199z"/>
	<path display="inline" fill="#00C03E" d="M24,9.343l-5.781-3.968l-1.328,6.688l2.102-1.757c0.014,0.056,0.03,0.111,0.043,0.168
		c0.116,0.512,0.183,1.042,0.183,1.589c0,3.952-3.204,7.156-7.156,7.156c-2.345,0-4.42-1.133-5.725-2.876l-2.421,1.401
		C5.712,20.315,8.689,22,12.063,22C17.551,22,22,17.551,22,12.063c0-0.759-0.093-1.496-0.254-2.206
		c-0.04-0.176-0.085-0.35-0.134-0.523L24,9.343L24,9.343z"/>
	<path display="inline" fill="#00C03E" d="M5.478,14.867c-0.262-0.614-0.436-1.272-0.517-1.96L2.168,12.91
		c0.101,1.191,0.414,2.319,0.898,3.353L5.478,14.867z"/>
</g>
</svg>
