<?xml version="1.0" encoding="utf-8"?>
<svg version="1.1" xmlns="http://www.w3.org/2000/svg" xmlns:xlink="http://www.w3.org/1999/xlink" x="0px" y="0px" width="24px"
	 height="24px" viewBox="0 0 24 24" enable-background="new 0 0 24 24" xml:space="preserve">
<g id="loop_x5F_closed">
	<path fill="#00C03E" d="M24,9.343l-5.781-3.968l-1.328,6.688l2.102-1.757c0.014,0.056,0.03,0.111,0.043,0.168
		c0.116,0.512,0.183,1.042,0.183,1.589c0,3.952-3.204,7.156-7.156,7.156s-7.156-3.204-7.156-7.156s3.204-7.156,7.156-7.156
		c1.072,0,2.085,0.242,2.998,0.665c0.325,0.151,0.639,0.321,0.936,0.517l0.002-0.002l-0.352-1.784l1.876-0.538
		c-1.567-1.033-3.442-1.639-5.46-1.639c-5.488,0-9.938,4.449-9.938,9.938S6.574,22,12.063,22S22,17.551,22,12.063
		c0-0.759-0.093-1.496-0.254-2.206c-0.04-0.176-0.085-0.35-0.134-0.523L24,9.343L24,9.343z"/>
</g>
</svg>
