<?xml version="1.0" encoding="utf-8"?>
<svg version="1.1" xmlns="http://www.w3.org/2000/svg" xmlns:xlink="http://www.w3.org/1999/xlink" x="0px" y="0px" width="24px"
	 height="24px" viewBox="0 0 24 24" enable-background="new 0 0 24 24" xml:space="preserve">
<g id="loop_x5F_disconnected">
	<path fill="#939393" d="M17.523,3.764c-1.567-1.033-3.442-1.639-5.46-1.639c-5.488,0-9.938,4.449-9.938,9.938
		c0,1.803,0.484,3.49,1.325,4.945l-0.319,0.365c-0.001,0.842,0.325,1.681,1.01,2.277l2.416,2.103l0.872-1.002l1.746,1.523
		l0.472-0.542l-1.747-1.523l1.272-1.461l1.748,1.524l0.472-0.542l-1.749-1.525l0.872-1.001l-2.416-2.103
		c-0.684-0.596-1.557-0.803-2.39-0.687l-0.277,0.318c-0.335-0.825-0.528-1.723-0.528-2.67c0-3.952,3.204-7.156,7.156-7.156
		c1.072,0,2.085,0.242,2.998,0.665c0.325,0.151,0.639,0.321,0.936,0.517l0.002-0.002l-0.352-1.784L17.523,3.764z"/>
	<path fill="#939393" d="M24,9.343l-5.781-3.968l-1.328,6.688l2.102-1.757c0.014,0.056,0.03,0.111,0.043,0.168
		c0.116,0.512,0.183,1.042,0.183,1.589c0,0.938-0.183,1.833-0.511,2.653l-0.263-0.302c-0.833-0.116-1.706,0.091-2.39,0.687
		l-2.416,2.103l3.96,4.549l2.416-2.103c0.685-0.596,1.011-1.435,1.01-2.277l-0.346-0.397C21.51,15.526,22,13.855,22,12.063
		c0-0.759-0.093-1.496-0.254-2.206c-0.04-0.176-0.085-0.35-0.134-0.523L24,9.343L24,9.343z"/>
</g>
</svg>
