<?xml version="1.0" encoding="utf-8"?>
<svg version="1.1" id="Layer_1" xmlns:serif="http://www.serif.com/"
	 xmlns="http://www.w3.org/2000/svg" xmlns:xlink="http://www.w3.org/1999/xlink" x="0px" y="0px" width="841.89px"
	 height="595.28px" viewBox="0 0 841.89 595.28" enable-background="new 0 0 841.89 595.28" xml:space="preserve">
<g id="Pod">
	
		<path id="Plaster-dunkler-Rand" serif:id="Plaster dunkler Rand" fill="none" stroke="#000000" stroke-width="0.94" stroke-linecap="round" stroke-linejoin="round" stroke-miterlimit="1.5" d="
		M250.207,71.88c-65.523-0.177-118.856,52.882-119.033,118.405l-0.563,213.426c-0.172,65.523,52.887,118.861,118.41,119.033
		l249.487,0.656c118.498-8.404,210.418-113.378,212.715-224.872c2.525-122.511-85.804-211.464-234.326-226.053L250.207,71.88
		L250.207,71.88z M375.397,492.915c0.014-6.041,4.911-10.934,10.924-10.92c6.013,0.019,10.887,4.934,10.868,10.975
		c-0.014,6.041-4.911,10.934-10.924,10.92C380.247,503.872,375.378,498.956,375.397,492.915z M376.415,105.03
		c0.019-6.041,4.916-10.934,10.929-10.915c6.013,0.014,10.882,4.93,10.868,10.971c-0.014,6.041-4.911,10.934-10.924,10.92
		C381.271,115.987,376.401,111.071,376.415,105.03L376.415,105.03z"/>
	<path id="Plaster" fill="#ECEAEA" d="M250.207,71.88c-65.523-0.177-118.856,52.882-119.033,118.405l-0.563,213.426
		c-0.172,65.523,52.887,118.861,118.41,119.033l249.487,0.656c118.498-8.404,210.418-113.378,212.715-224.872
		c2.525-122.511-85.804-211.464-234.326-226.053L250.207,71.88L250.207,71.88z M375.397,492.915
		c0.014-6.041,4.911-10.934,10.924-10.92c6.013,0.019,10.887,4.934,10.868,10.975c-0.014,6.041-4.911,10.934-10.924,10.92
		C380.247,503.872,375.378,498.956,375.397,492.915z M376.415,105.03c0.019-6.041,4.916-10.934,10.929-10.915
		c6.013,0.014,10.882,4.93,10.868,10.971c-0.014,6.041-4.911,10.934-10.924,10.92C381.271,115.987,376.401,111.071,376.415,105.03
		L376.415,105.03z"/>
	<path id="POD" fill-opacity="0.69" d="M644.063,380.979c-17.914,54.933-70.117,94.645-131.543,94.482l-280.014-0.739
		c-23.769-0.06-43.018-19.207-42.953-42.725l0.693-263.639c0.06-22.862,18.872-41.377,41.977-41.316l281.437,0.744
		c75.94,0.2,137.431,61.365,137.231,136.505l-0.047,19.258c-11.813,6.069-20.556,26.718-20.621,51.255
		C630.172,354.54,635.748,371.794,644.063,380.979L644.063,380.979z"/>
	
		<linearGradient id="POD1_1_" gradientUnits="userSpaceOnUse" x1="0.4445" y1="595.1413" x2="1.4445" y2="595.1413" gradientTransform="matrix(0.8927 -338.4781 -338.4781 -0.8927 201862.4219 1152.2784)">
		<stop  offset="0" style="stop-color:#FFFFFF"/>
		<stop  offset="1" style="stop-color:#B3B3B3"/>
	</linearGradient>
	<path id="POD1" serif:id="POD" fill="url(#POD1_1_)" d="M641.459,378.821c-17.658,53.478-69.094,92.138-129.632,91.98
		l-275.94-0.725c-23.421-0.065-42.39-18.705-42.33-41.6l0.679-256.663c0.056-22.258,18.593-40.279,41.363-40.219l277.34,0.73
		c74.838,0.195,135.435,59.747,135.245,132.896l-0.051,18.747c-11.636,5.911-20.253,26.016-20.314,49.901
		C627.768,353.085,633.265,369.878,641.459,378.821L641.459,378.821z"/>
	<path fill="#464646" d="M651.542,283.353c-12.696-0.907-24.546,20.249-26.476,47.25c-1.925,27.002,6.799,49.627,19.495,50.534
		l2.567-50.385L651.542,283.353L651.542,283.353z"/>
</g>
</svg>
