<?xml version="1.0" encoding="utf-8"?>
<svg version="1.1" xmlns="http://www.w3.org/2000/svg" xmlns:xlink="http://www.w3.org/1999/xlink" x="0px" y="0px" width="24px"
	 height="24px" viewBox="0 0 24 24" enable-background="new 0 0 24 24" xml:space="preserve">
<g id="quickwizardsmall">
	<g>
		<path fill="#FEAF05" d="M10.803,7.155c-0.662,0.814-0.939,1.247-1.475,2.12c-2.97,0.281-4.64,3.247-3.987,5.504
			c0.288,0.994,0.919,1.742,1.768,2.311c2.77,1.856,7.367,1.686,10.014-0.36c1.401-1.083,2.033-2.459,1.574-4.219
			c-0.486-1.865-1.705-3.05-3.586-3.386c-1.312-0.235-2.328,0.437-3.018,1.549c-0.583,0.94-0.849,1.907-1.921,2.767
			c-0.459-0.508-0.54-1.134-0.57-1.748c-0.142-2.934,2.383-5.238,5.422-4.971c2.791,0.245,5.27,2.308,6.034,5.022
			c0.722,2.562-0.267,5.229-2.584,6.972c-3.534,2.658-9.316,2.745-12.913,0.194c-2.428-1.722-3.398-4.579-2.477-7.292
			c0.959-2.825,3.727-4.8,6.561-4.687C10.001,6.944,10.347,7,10.803,7.155z"/>
		<path fill="#FEAF05" d="M6.542,15.198c0.621-0.121,1.39-0.26,1.964-0.38c1.796-0.376,3.098-1.451,3.862-3.16
			c0.341-0.763,0.829-1.328,1.709-1.676c0.493,0.957,0.536,1.936,0.264,2.942c-0.335,1.237-1.05,2.198-2.146,2.867
			c-0.727,0.443-1.515,0.753-2.319,1.023C8.517,17.271,7.317,16.811,6.542,15.198z"/>
		<path fill="#FEAF05" d="M12.645,16.137c0.867-0.634,1.475-1.285,1.733-1.902c1.055,0.187,2.266,0.37,3.308,0.555
			C17.038,16.841,14.544,17.318,12.645,16.137z"/>
		<path fill="#FEAF05" d="M0.921,15.759c0.211-0.145,0.892-0.223,1.407-0.145c0.306,0.745,0.693,1.446,1.307,2.269
			C2.96,18.02,2.41,18.182,1.785,18.148c-0.581-0.032-1.172-0.416-1.254-1.167C0.492,16.619,0.531,16.027,0.921,15.759z"/>
		<path fill="#FEAF05" d="M20.705,17.338c0.231-0.587,0.427-1.134,0.661-1.665c0.277-0.627,0.73-0.897,1.323-0.803
			c0.495,0.078,0.679,0.444,0.76,0.892c0.116,0.638-0.092,1.167-0.624,1.432C22.165,17.523,21.465,17.424,20.705,17.338z"/>
	</g>
</g>
</svg>
