<?xml version="1.0" encoding="utf-8"?>
<!-- Generator: Adobe Illustrator 17.0.0, SVG Export Plug-In . SVG Version: 6.00 Build 0)  -->
<!DOCTYPE svg PUBLIC "-//W3C//DTD SVG 1.1//EN" "http://www.w3.org/Graphics/SVG/1.1/DTD/svg11.dtd">
<svg version="1.1" xmlns="http://www.w3.org/2000/svg" xmlns:xlink="http://www.w3.org/1999/xlink" x="0px" y="0px" width="24px"
	 height="24px" viewBox="0 0 24 24" enable-background="new 0 0 24 24" xml:space="preserve">
<g id="x_x5F_swap_x5F_vert" display="none">
	<path display="inline" d="M19.375,17.01V10h-2v7.01h-3l4,3.99l4-3.99H19.375z M12.375,3l-4,3.99h3V14h2V6.99h3L12.375,3z"/>
	<polygon display="inline" points="5.437,12.733 3.092,15.079 2.358,14.346 4.704,12 2.358,9.654 3.092,8.921 5.437,11.267 
		7.783,8.921 8.517,9.654 6.171,12 8.517,14.346 7.783,15.079 	"/>
	<path display="inline" fill="none" d="M0,0h24v24H0V0z"/>
</g>
<g id="cp_x5F_basal_x5F_tbr_x5F_low" display="none">
	<path display="inline" fill="none" d="M0,0h24v24H0V0z"/>
	<polygon display="inline" fill="#CF8BFE" points="17.438,17.854 12.021,17.854 12.021,6.813 3.667,6.813 3.667,6.104 12.729,6.104 
		12.729,17.146 16.729,17.146 16.729,6.104 19.083,6.104 19.083,6.813 17.438,6.813 	"/>
</g>
<g id="cp_x5F_basal_x5F_tbr_x5F_high" display="none">
	<path display="inline" fill="none" d="M0,0h24v24H0V0z"/>
	<polygon display="inline" fill="#CF8BFE" points="19.083,17.896 16.729,17.896 16.729,6.854 12.729,6.854 12.729,17.896 
		3.667,17.896 3.667,17.188 12.021,17.188 12.021,6.146 17.438,6.146 17.438,17.188 19.083,17.188 	"/>
</g>
<g id="cp_x5F_basal_x5F_no_x5F_tbr" display="none">
	<path display="inline" fill="none" d="M0,0.021h24v24H0V0.021z"/>
	<rect x="3.667" y="11.646" display="inline" fill="#CF8BFE" width="15.417" height="0.709"/>
</g>
<g id="Bolus" display="none">
	<path display="inline" fill="none" d="M0,0h24v24H0V0z"/>
	<path display="inline" fill="#67DFE8" d="M18.501,12.002l-0.428,0.564L8.179,5.064c-0.092-0.07-0.212-0.09-0.323-0.055L5.115,5.89
		L1.571,3.501L4.755,6.36L4.647,9.243c-0.004,0.116,0.047,0.226,0.14,0.296l9.895,7.502l-0.428,0.564
		c-0.26,0.343-0.193,0.832,0.15,1.092s0.832,0.193,1.092-0.15l1.653-2.18l2.219,1.683l-0.719,0.948
		c-0.26,0.343-0.193,0.832,0.15,1.092c0.343,0.26,0.832,0.193,1.092-0.15l2.379-3.138c0.26-0.343,0.193-0.832-0.15-1.092
		c-0.343-0.26-0.832-0.193-1.092,0.15l-0.719,0.948l-2.219-1.683l1.653-2.18c0.26-0.343,0.193-0.832-0.15-1.092
		S18.762,11.659,18.501,12.002z M5.458,6.524l2.44-0.783l9.748,7.39L17.26,13.64l-5.754-4.362c-0.091-0.069-0.221-0.053-0.293,0.035
		L9.087,11.91l-0.67-0.508l1.526-1.833c0.002-0.002,0.004-0.005,0.006-0.008c0.068-0.09,0.054-0.219-0.033-0.291
		c-0.09-0.075-0.224-0.063-0.299,0.027l-1.538,1.848l-0.769-0.583l1.526-1.833c0.002-0.002,0.004-0.005,0.006-0.008
		c0.068-0.09,0.054-0.219-0.033-0.291c-0.09-0.075-0.224-0.063-0.299,0.027L6.97,10.305L6.201,9.721l1.526-1.833
		C7.728,7.886,7.731,7.882,7.732,7.88c0.068-0.09,0.054-0.219-0.033-0.291C7.609,7.513,7.475,7.526,7.4,7.616L5.861,9.464
		L5.362,9.085L5.458,6.524z"/>
</g>
<g id="Layer_6">
	<path fill="none" d="M0,0h24v24H0V0z"/>
	<path fill="#FEAF05" d="M10.751,6.59c-0.561,0.69-0.796,1.057-1.25,1.797c-2.517,0.238-3.932,2.751-3.379,4.664
		c0.244,0.843,0.779,1.476,1.498,1.958c2.348,1.573,6.243,1.429,8.487-0.306c1.187-0.918,1.723-2.084,1.334-3.576
		c-0.412-1.58-1.445-2.585-3.039-2.87c-1.112-0.199-1.973,0.37-2.558,1.313c-0.494,0.796-0.72,1.616-1.628,2.345
		c-0.389-0.431-0.458-0.961-0.483-1.481c-0.12-2.486,2.019-4.439,4.595-4.213c2.365,0.207,4.466,1.956,5.114,4.256
		c0.611,2.172-0.226,4.432-2.19,5.909c-2.995,2.253-7.895,2.327-10.943,0.165c-2.057-1.459-2.88-3.881-2.099-6.18
		C5.023,7.978,7.368,6.304,9.77,6.4C10.072,6.412,10.365,6.459,10.751,6.59z"/>
	<path fill="#FEAF06" d="M7.141,13.406c0.526-0.103,1.178-0.22,1.665-0.322c1.522-0.319,2.625-1.229,3.273-2.678
		c0.289-0.647,0.702-1.125,1.448-1.42c0.418,0.811,0.454,1.641,0.223,2.493c-0.284,1.049-0.889,1.863-1.819,2.429
		c-0.616,0.376-1.284,0.638-1.966,0.867C8.814,15.163,7.797,14.773,7.141,13.406z"/>
	<path fill="#FEAF06" d="M12.313,14.203c0.734-0.537,1.25-1.089,1.469-1.612c0.894,0.159,1.92,0.314,2.804,0.471
		C16.036,14.799,13.922,15.203,12.313,14.203z"/>
	<path fill="#FEAF06" d="M2.377,13.882c0.179-0.123,0.756-0.189,1.192-0.123c0.259,0.631,0.587,1.225,1.108,1.923
		c-0.572,0.116-1.037,0.253-1.567,0.224c-0.493-0.027-0.993-0.353-1.063-0.989C2.013,14.61,2.047,14.109,2.377,13.882z"/>
	<path fill="#FEAF06" d="M19.143,15.22c0.196-0.497,0.362-0.961,0.561-1.411c0.235-0.531,0.618-0.76,1.121-0.681
		c0.419,0.066,0.575,0.376,0.644,0.756c0.098,0.541-0.078,0.989-0.529,1.213C20.38,15.377,19.787,15.293,19.143,15.22z"/>
</g>
</svg>
