<?xml version="1.0" encoding="utf-8"?>
<svg version="1.1" xmlns="http://www.w3.org/2000/svg" xmlns:xlink="http://www.w3.org/1999/xlink" x="0px" y="0px" width="24px"
	 height="24px" viewBox="0 0 24 24" enable-background="new 0 0 24 24" xml:space="preserve">
<g id="remove">
	<path fill="#FF1313" d="M16.548,12l5.15-5.15c0.222-0.221,0.222-0.581,0.001-0.802l-3.746-3.747c-0.213-0.213-0.591-0.213-0.802,0
		L12,7.452L6.85,2.301c-0.213-0.213-0.589-0.213-0.802,0L2.301,6.048c-0.106,0.106-0.166,0.25-0.166,0.401s0.06,0.294,0.166,0.401
		L7.452,12l-5.151,5.151c-0.106,0.105-0.166,0.25-0.166,0.4s0.06,0.295,0.166,0.401l3.747,3.746c0.111,0.11,0.256,0.166,0.401,0.166
		s0.29-0.056,0.401-0.167l5.15-5.15l5.151,5.151c0.11,0.11,0.255,0.166,0.4,0.166s0.29-0.056,0.401-0.167l3.745-3.745
		c0.222-0.222,0.222-0.581,0.001-0.802L16.548,12z"/>
</g>
</svg>
