<?xml version="1.0" encoding="utf-8"?>
<svg version="1.1" xmlns="http://www.w3.org/2000/svg" xmlns:xlink="http://www.w3.org/1999/xlink" x="0px" y="0px" width="24px"
	 height="24px" viewBox="0 0 24 24" enable-background="new 0 0 24 24" xml:space="preserve">
<g id="SendLog">
	<g>
		<path fill="#FFFFFF" d="M16.691,6.89H7.308c-0.133,0-0.241-0.107-0.241-0.241s0.107-0.241,0.241-0.241h9.384
			c0.133,0,0.241,0.107,0.241,0.241S16.824,6.89,16.691,6.89z"/>
		<path fill="#FFFFFF" d="M16.986,8.802H7.014c-0.133,0-0.241-0.107-0.241-0.241S6.88,8.321,7.014,8.321h9.973
			c0.133,0,0.241,0.107,0.241,0.241S17.119,8.802,16.986,8.802z"/>
		<path fill="#FFFFFF" d="M16.986,12.627H7.014c-0.133,0-0.241-0.108-0.241-0.241c0-0.133,0.107-0.241,0.241-0.241h9.973
			c0.133,0,0.241,0.107,0.241,0.241C17.228,12.519,17.119,12.627,16.986,12.627z"/>
		<path fill="#FFFFFF" d="M16.986,10.714H7.014c-0.133,0-0.241-0.107-0.241-0.241s0.107-0.241,0.241-0.241h9.973
			c0.133,0,0.241,0.107,0.241,0.241S17.119,10.714,16.986,10.714z"/>
		<path fill="#FFFFFF" d="M16.882,14.539H7.124c-0.133,0-0.241-0.108-0.241-0.241s0.107-0.241,0.241-0.241h9.758
			c0.133,0,0.241,0.108,0.241,0.241S17.015,14.539,16.882,14.539z"/>
		<path fill="#FFFFFF" d="M14.97,16.451H9.036c-0.133,0-0.241-0.108-0.241-0.241s0.107-0.241,0.241-0.241h5.934
			c0.133,0,0.241,0.108,0.241,0.241S15.103,16.451,14.97,16.451z"/>
		<path fill="#FFFFFF" d="M18.599,12.822c-0.133,0-0.241-0.108-0.241-0.241V5.259H5.642v7.322c0,0.133-0.107,0.241-0.241,0.241
			s-0.241-0.108-0.241-0.241V5.019c0-0.133,0.107-0.241,0.241-0.241h13.197c0.133,0,0.241,0.107,0.241,0.241v7.563
			C18.84,12.714,18.731,12.822,18.599,12.822z"/>
	</g>
	<g>
		<path fill="#FFFFFF" d="M20.604,22.283H3.391c-0.133,0-0.241-0.108-0.241-0.241V10.566c0-0.064,0.025-0.125,0.07-0.17l2.011-2.01
			c0.094-0.094,0.247-0.094,0.341,0c0.094,0.094,0.094,0.247,0,0.341l-1.94,1.939v11.135h16.731l0.006-11.133l-1.939-1.936
			c-0.095-0.094-0.095-0.247-0.001-0.341c0.096-0.094,0.247-0.094,0.341,0l2.011,2.006c0.046,0.045,0.071,0.106,0.071,0.17
			l-0.006,11.474C20.845,22.175,20.736,22.283,20.604,22.283z"/>
		<path fill="#FFFFFF" d="M15.061,5.259c-0.062,0-0.123-0.023-0.17-0.07L12,2.299l-2.891,2.89c-0.094,0.094-0.247,0.094-0.341,0
			c-0.094-0.094-0.094-0.247,0-0.341l3.061-3.06c0.094-0.094,0.247-0.094,0.341,0l3.06,3.06c0.095,0.094,0.095,0.247,0,0.341
			C15.184,5.236,15.122,5.259,15.061,5.259z"/>
		<path fill="#FFFFFF" d="M20.606,22.283H3.394c-0.109,0-0.205-0.074-0.233-0.18c-0.028-0.105,0.019-0.217,0.113-0.271l7.298-4.176
			c0.037-0.021,0.078-0.032,0.12-0.032l0,0l2.62,0.002c0.042,0,0.083,0.012,0.12,0.032l7.295,4.174
			c0.095,0.054,0.141,0.165,0.112,0.271C20.812,22.209,20.716,22.283,20.606,22.283z M4.3,21.801h15.4l-6.453-3.691l-2.491-0.002
			L4.3,21.801z"/>
		<path fill="#FFFFFF" d="M3.394,22.283c-0.042,0-0.083-0.011-0.121-0.033c-0.074-0.043-0.12-0.122-0.12-0.208V10.568
			c0-0.098,0.059-0.186,0.148-0.223c0.088-0.037,0.194-0.017,0.263,0.052l7.298,7.299c0.053,0.053,0.078,0.127,0.068,0.202
			c-0.01,0.074-0.054,0.14-0.119,0.177l-7.298,4.176C3.476,22.272,3.435,22.283,3.394,22.283z M3.634,11.149v10.478l6.665-3.813
			L3.634,11.149z"/>
		<path fill="#FFFFFF" d="M20.606,22.283H3.394c-0.109,0-0.205-0.074-0.233-0.18c-0.028-0.105,0.019-0.217,0.113-0.271l7.298-4.176
			c0.037-0.021,0.078-0.032,0.12-0.032l0,0l2.62,0.002c0.042,0,0.083,0.012,0.12,0.032l7.295,4.174
			c0.095,0.054,0.141,0.165,0.112,0.271C20.812,22.209,20.716,22.283,20.606,22.283z M4.3,21.801h15.4l-6.453-3.691l-2.491-0.002
			L4.3,21.801z"/>
		<path fill="#FFFFFF" d="M20.606,22.283c-0.041,0-0.083-0.011-0.12-0.032l-7.295-4.174c-0.064-0.037-0.108-0.103-0.119-0.177
			c-0.01-0.075,0.016-0.149,0.069-0.202l7.295-7.295c0.068-0.069,0.174-0.089,0.262-0.052c0.091,0.037,0.149,0.125,0.149,0.223
			v11.468c0,0.086-0.046,0.165-0.12,0.208C20.69,22.272,20.648,22.283,20.606,22.283z M13.705,17.815l6.66,3.812V11.155
			L13.705,17.815z"/>
		<path fill="#FFFFFF" d="M3.394,22.283c-0.042,0-0.083-0.011-0.121-0.033c-0.074-0.043-0.12-0.122-0.12-0.208V10.568
			c0-0.098,0.059-0.186,0.148-0.223c0.088-0.037,0.194-0.017,0.263,0.052l7.298,7.299c0.053,0.053,0.078,0.127,0.068,0.202
			c-0.01,0.074-0.054,0.14-0.119,0.177l-7.298,4.176C3.476,22.272,3.435,22.283,3.394,22.283z M3.634,11.149v10.478l6.665-3.813
			L3.634,11.149z"/>
	</g>
</g>
</svg>
