<?xml version="1.0" encoding="utf-8"?>
<svg version="1.1" xmlns="http://www.w3.org/2000/svg" xmlns:xlink="http://www.w3.org/1999/xlink" x="0px" y="0px" width="24px"
	 height="24px" viewBox="0 0 24 24" enable-background="new 0 0 24 24" xml:space="preserve">
<g id="target_manual">
	<path fill="#67E86A" d="M17.314,8.734l-6.709,6.709c-0.054,0.054-0.09,0.122-0.103,0.196L9.7,19.983
		c-0.022,0.121,0.016,0.245,0.103,0.332c0.087,0.087,0.211,0.126,0.332,0.103l4.343-0.801c0.074-0.014,0.143-0.05,0.196-0.103
		l6.709-6.709c0.391-0.391,0.39-1.029-0.002-1.421l-2.648-2.648C18.342,8.344,17.705,8.342,17.314,8.734z M13.783,18.588
		c0.085,0.085,0.116,0.211,0.08,0.326c-0.016,0.051-0.044,0.096-0.08,0.132c-0.046,0.046-0.106,0.078-0.173,0.09l-2.164,0.382
		c-0.215-0.007-0.428-0.091-0.592-0.255c-0.164-0.164-0.248-0.377-0.255-0.591l0.382-2.164c0.021-0.119,0.107-0.216,0.222-0.253
		c0.115-0.036,0.241-0.005,0.326,0.08L13.783,18.588z M20.824,11.857c0.124,0.124,0.124,0.324,0,0.447l-5.929,5.929
		c-0.124,0.124-0.324,0.124-0.447,0l-0.233-0.233c-0.124-0.124-0.124-0.324,0-0.447l5.929-5.929c0.124-0.124,0.324-0.124,0.447,0
		L20.824,11.857z M19.668,10.683c0.124,0.124,0.124,0.324,0,0.447l-5.929,5.929c-0.124,0.124-0.324,0.124-0.447,0l-0.233-0.233
		c-0.124-0.124-0.124-0.324,0-0.447l5.929-5.929c0.124-0.124,0.324-0.124,0.447,0L19.668,10.683z M18.512,9.508
		c0.124,0.124,0.124,0.324,0,0.447l-5.929,5.929c-0.124,0.124-0.324,0.124-0.447,0l-0.233-0.233c-0.124-0.124-0.124-0.324,0-0.447
		l5.929-5.929c0.124-0.124,0.324-0.124,0.447,0L18.512,9.508z"/>
    <path fill="#67E86A" d="M5.45,9.325c-0.004,0-0.008,0-0.011,0c-0.433-0.008-0.817-0.504-1.054-1.36
        c-0.168-0.608-0.32-1.242-0.468-1.855C3.824,5.72,3.73,5.331,3.632,4.946L3.568,4.69C3.353,3.821,3.13,2.922,2.566,2.824
        C2.475,2.808,2.413,2.721,2.429,2.629c0.016-0.092,0.105-0.153,0.194-0.137c0.78,0.136,1.03,1.143,1.271,2.117l0.064,0.255
        C4.057,5.25,4.151,5.64,4.244,6.031c0.147,0.611,0.299,1.242,0.465,1.845c0.211,0.764,0.522,1.109,0.735,1.113
        c0.001,0,0.003,0,0.004,0c0.24,0,0.506-0.388,0.713-1.041C6.272,7.598,6.368,7.22,6.46,6.855l0.074-0.29
        c0.082-0.32,0.16-0.644,0.237-0.968c0.158-0.66,0.321-1.341,0.52-1.974c0.227-0.72,0.571-1.119,0.969-1.122
        c0.402-0.004,0.754,0.393,0.996,1.115c0.165,0.491,0.303,1.02,0.437,1.531l0.108,0.411c0.087,0.325,0.169,0.654,0.252,0.983
        c0.143,0.571,0.291,1.16,0.458,1.716c0.13,0.432,0.352,0.719,0.565,0.73c0.196,0.004,0.399-0.206,0.559-0.592
        c0.16-0.385,0.311-0.845,0.448-1.37c0.199-0.757,0.388-1.523,0.577-2.29l0.255-1.034c0.171-0.684,0.495-1.078,0.991-1.206
        C14,2.471,14.089,2.526,14.112,2.616c0.023,0.09-0.031,0.182-0.121,0.205c-0.233,0.06-0.565,0.226-0.749,0.963l-0.256,1.033
        c-0.189,0.768-0.378,1.536-0.578,2.295c-0.142,0.539-0.298,1.014-0.463,1.413c-0.3,0.72-0.696,0.811-0.887,0.798
        c-0.368-0.019-0.694-0.381-0.87-0.969C10.02,7.79,9.871,7.197,9.727,6.623C9.645,6.296,9.562,5.969,9.476,5.645L9.368,5.233
        c-0.133-0.506-0.27-1.029-0.43-1.509C8.719,3.07,8.447,2.838,8.265,2.838c-0.001,0-0.001,0-0.002,0
        C8.033,2.84,7.784,3.18,7.612,3.725C7.417,4.346,7.255,5.022,7.098,5.675C7.02,6.001,6.942,6.327,6.86,6.649L6.786,6.937
        C6.693,7.307,6.596,7.69,6.482,8.05C6.214,8.896,5.867,9.325,5.45,9.325z"/>
    <path fill="#67E86A" d="M13.949,6.328H2.595c-0.232,0-0.42-0.188-0.42-0.421c0-0.232,0.188-0.42,0.42-0.42h11.354
        c0.232,0,0.421,0.188,0.421,0.42C14.37,6.14,14.181,6.328,13.949,6.328z"/>
</g>
</svg>
