<?xml version="1.0" encoding="utf-8"?>
<svg version="1.1" xmlns="http://www.w3.org/2000/svg" xmlns:xlink="http://www.w3.org/1999/xlink" x="0px" y="0px" width="24px"
	 height="24px" viewBox="0 0 24 24" enable-background="new 0 0 24 24" xml:space="preserve">
<g id="target_cancel">
	<path fill="#67E86A" d="M16.848,15.325l3.851-3.85c0.314-0.314,0.314-0.821,0.001-1.134c-0.315-0.315-0.82-0.314-1.134-0.001
		l-3.851,3.851l-3.851-3.851c-0.315-0.313-0.821-0.314-1.134,0.001c-0.313,0.313-0.313,0.82,0.001,1.134l3.851,3.85l-3.851,3.851
		c-0.314,0.313-0.314,0.82-0.001,1.133c0.157,0.156,0.362,0.235,0.567,0.235c0.205,0,0.41-0.078,0.567-0.235l3.851-3.85l3.851,3.85
		c0.157,0.156,0.362,0.235,0.567,0.235s0.411-0.078,0.567-0.235c0.313-0.313,0.313-0.82-0.001-1.133L16.848,15.325z"/>
    <path fill="#67E86A" d="M5.45,9.325c-0.004,0-0.008,0-0.011,0c-0.433-0.008-0.817-0.504-1.054-1.36
        c-0.168-0.608-0.32-1.242-0.468-1.855C3.824,5.72,3.73,5.331,3.632,4.946L3.568,4.69C3.353,3.821,3.13,2.922,2.566,2.824
        C2.475,2.808,2.413,2.721,2.429,2.629c0.016-0.092,0.105-0.153,0.194-0.137c0.78,0.136,1.03,1.143,1.271,2.117l0.064,0.255
        C4.057,5.25,4.151,5.64,4.244,6.031c0.147,0.611,0.299,1.242,0.465,1.845c0.211,0.764,0.522,1.109,0.735,1.113
        c0.001,0,0.003,0,0.004,0c0.24,0,0.506-0.388,0.713-1.041C6.272,7.598,6.368,7.22,6.46,6.855l0.074-0.29
        c0.082-0.32,0.16-0.644,0.237-0.968c0.158-0.66,0.321-1.341,0.52-1.974c0.227-0.72,0.571-1.119,0.969-1.122
        c0.402-0.004,0.754,0.393,0.996,1.115c0.165,0.491,0.303,1.02,0.437,1.531l0.108,0.411c0.087,0.325,0.169,0.654,0.252,0.983
        c0.143,0.571,0.291,1.16,0.458,1.716c0.13,0.432,0.352,0.719,0.565,0.73c0.196,0.004,0.399-0.206,0.559-0.592
        c0.16-0.385,0.311-0.845,0.448-1.37c0.199-0.757,0.388-1.523,0.577-2.29l0.255-1.034c0.171-0.684,0.495-1.078,0.991-1.206
        C14,2.471,14.089,2.526,14.112,2.616c0.023,0.09-0.031,0.182-0.121,0.205c-0.233,0.06-0.565,0.226-0.749,0.963l-0.256,1.033
        c-0.189,0.768-0.378,1.536-0.578,2.295c-0.142,0.539-0.298,1.014-0.463,1.413c-0.3,0.72-0.696,0.811-0.887,0.798
        c-0.368-0.019-0.694-0.381-0.87-0.969C10.02,7.79,9.871,7.197,9.727,6.623C9.645,6.296,9.562,5.969,9.476,5.645L9.368,5.233
        c-0.133-0.506-0.27-1.029-0.43-1.509C8.719,3.07,8.447,2.838,8.265,2.838c-0.001,0-0.001,0-0.002,0
        C8.033,2.84,7.784,3.18,7.612,3.725C7.417,4.346,7.255,5.022,7.098,5.675C7.02,6.001,6.942,6.327,6.86,6.649L6.786,6.937
        C6.693,7.307,6.596,7.69,6.482,8.05C6.214,8.896,5.867,9.325,5.45,9.325z"/>
    <path fill="#67E86A" d="M13.949,6.328H2.595c-0.232,0-0.42-0.188-0.42-0.421c0-0.232,0.188-0.42,0.42-0.42h11.354
        c0.232,0,0.421,0.188,0.421,0.42C14.37,6.14,14.181,6.328,13.949,6.328z"/>
</g>
</svg>
