<?xml version="1.0" encoding="utf-8"?>
<svg version="1.1" xmlns="http://www.w3.org/2000/svg" xmlns:xlink="http://www.w3.org/1999/xlink" x="0px" y="0px" width="24px"
	 height="24px" viewBox="0 0 24 24" enable-background="new 0 0 24 24" xml:space="preserve">
<g id="target_activity">
    <path fill="#67DFE8" d="M18.003,13.262c1.19,0,2.158-1.02,2.158-2.274c0-1.254-0.968-2.275-2.158-2.275
        c-1.19,0-2.158,1.02-2.158,2.275C15.845,12.242,16.813,13.262,18.003,13.262z M18.003,9.412c0.824,0,1.496,0.707,1.496,1.576
        c0,0.869-0.671,1.576-1.496,1.576s-1.496-0.707-1.496-1.576C16.507,10.118,17.179,9.412,18.003,9.412z"/>
    <path fill="#67DFE8" d="M21.192,15.915c-0.03-0.043-0.745-1.039-1.801-1.039c-0.785,0-1.295,0.514-1.746,0.969
        c-0.399,0.402-0.744,0.75-1.226,0.75h-0.001c-0.393,0-0.714-0.242-1.034-0.538l1.665-1.325l-4.553-6.356l-4.394,3.496
        c-0.259,0.242-0.627,0.87-0.164,1.515c0.214,0.298,0.463,0.387,0.635,0.41c0.409,0.053,0.738-0.217,0.765-0.24l2.759-2.195
        l0.676,0.943l-3.964,3.153c-0.371-0.351-0.791-0.637-1.305-0.637H7.503c-0.788,0-1.457,0.64-2.048,1.205
        c-0.352,0.337-0.752,0.72-0.973,0.72c-0.428,0-0.982-0.647-1.142-0.874c-0.109-0.154-0.316-0.186-0.464-0.071
        c-0.147,0.115-0.178,0.333-0.069,0.488c0.083,0.119,0.837,1.155,1.674,1.155c0.477,0,0.913-0.417,1.418-0.9
        c0.502-0.48,1.071-1.024,1.603-1.024h0c0.469,0,0.879,0.45,1.313,0.927c0.482,0.529,0.981,1.077,1.659,1.077
        c0.647,0,1.193-0.472,1.722-0.929c0.494-0.427,1.005-0.868,1.542-0.868c0.321,0.001,0.622,0.293,0.97,0.631
        c0.453,0.439,0.965,0.936,1.71,0.936h0.001c0.748,0,1.245-0.501,1.684-0.943c0.413-0.416,0.769-0.776,1.287-0.776
        c0.719,0,1.264,0.751,1.269,0.759c0.11,0.155,0.317,0.184,0.464,0.07C21.27,16.287,21.301,16.07,21.192,15.915z M11.777,16.055
        c-0.459,0.396-0.892,0.771-1.301,0.771c-0.395-0.001-0.777-0.42-1.181-0.862c-0.002-0.003-0.005-0.005-0.007-0.008l4.415-3.512
        l-1.475-2.059L8.93,13.008c-0.022,0.019-0.161,0.12-0.276,0.096c-0.024-0.003-0.097-0.012-0.186-0.136
        c-0.195-0.273,0.01-0.509,0.055-0.555l3.844-3.058l3.754,5.241l-1.24,0.986c-0.332-0.301-0.69-0.554-1.143-0.554
			C12.964,15.028,12.334,15.573,11.777,16.055z"/>
	<path fill="#36FF00" d="M8.724,5.96H8.388c-0.09-1.369-1.176-2.454-2.545-2.545V3.08c0-0.099-0.081-0.18-0.18-0.18
		c-0.099,0-0.18,0.081-0.18,0.18v0.336C4.115,3.506,3.029,4.592,2.939,5.96H2.604c-0.099,0-0.18,0.081-0.18,0.18
		c0,0.099,0.081,0.18,0.18,0.18h0.336c0.09,1.369,1.176,2.454,2.545,2.545V9.2c0,0.099,0.081,0.18,0.18,0.18
		c0.099,0,0.18-0.081,0.18-0.18V8.864c1.369-0.09,2.454-1.176,2.545-2.545h0.336c0.099,0,0.18-0.081,0.18-0.18
		C8.903,6.041,8.823,5.96,8.724,5.96z M8.009,5.96H7.122C7.04,5.286,6.515,4.755,5.843,4.665V3.792
		C7.004,3.88,7.922,4.799,8.009,5.96z M6.367,6.32h0.428C6.716,6.812,6.334,7.2,5.843,7.284V6.843c0-0.099-0.081-0.18-0.18-0.18
		c-0.099,0-0.18,0.081-0.18,0.18v0.445C4.977,7.217,4.577,6.824,4.497,6.32h0.463c0.099,0,0.18-0.081,0.18-0.18
		c0-0.099-0.081-0.18-0.18-0.18H4.497c0.078-0.506,0.478-0.902,0.987-0.973v0.45c0,0.099,0.081,0.18,0.18,0.18
		c0.099,0,0.18-0.081,0.18-0.18V4.99c0.492,0.084,0.875,0.475,0.951,0.97H6.367c-0.099,0-0.18,0.081-0.18,0.18
		C6.187,6.239,6.268,6.32,6.367,6.32z M5.484,3.792v0.869C4.795,4.736,4.251,5.274,4.168,5.96H3.321
		C3.408,4.8,4.324,3.881,5.484,3.792z M3.322,6.32h0.846c0.083,0.686,0.627,1.224,1.316,1.299v0.859
		C4.328,8.389,3.413,7.475,3.322,6.32z M5.843,8.478V7.615C6.515,7.525,7.04,6.994,7.122,6.32h0.886
		C7.917,7.476,7.001,8.39,5.843,8.478z"/>
</g>
</svg>
