<?xml version="1.0" encoding="utf-8"?>
<svg version="1.1" xmlns="http://www.w3.org/2000/svg" xmlns:xlink="http://www.w3.org/1999/xlink" x="0px" y="0px" width="24px"
	 height="24px" viewBox="0 0 24 24" enable-background="new 0 0 24 24" xml:space="preserve">
<g id="target_eating_soon">
	<path fill="#36FF00" d="M14.341,11.646h-0.662c-0.178-2.697-2.318-4.837-5.015-5.015V5.969c0-0.196-0.159-0.354-0.354-0.354
		S7.955,5.773,7.955,5.969V6.63C5.258,6.808,3.118,8.948,2.94,11.646H2.278c-0.196,0-0.354,0.159-0.354,0.354
		s0.159,0.354,0.354,0.354H2.94c0.178,2.697,2.318,4.837,5.015,5.015v0.662c0,0.195,0.159,0.354,0.354,0.354
		s0.354-0.159,0.354-0.354V17.37c2.697-0.178,4.837-2.318,5.015-5.015h0.662c0.195,0,0.354-0.159,0.354-0.354
		S14.536,11.646,14.341,11.646z M12.932,11.646h-1.748c-0.161-1.329-1.197-2.376-2.52-2.553V7.371
		C10.951,7.545,12.761,9.357,12.932,11.646z M9.695,12.354h0.843c-0.154,0.97-0.908,1.735-1.874,1.901v-0.869
		c0-0.195-0.159-0.354-0.354-0.354s-0.354,0.159-0.354,0.354v0.876c-0.999-0.14-1.787-0.914-1.944-1.908h0.913
		c0.196,0,0.354-0.159,0.354-0.354s-0.159-0.354-0.354-0.354H6.01c0.153-0.998,0.943-1.778,1.945-1.918v0.888
		c0,0.196,0.159,0.354,0.354,0.354s0.354-0.159,0.354-0.354v-0.88c0.97,0.166,1.725,0.936,1.875,1.911H9.695
		c-0.195,0-0.354,0.159-0.354,0.354S9.5,12.354,9.695,12.354z M7.955,7.372v1.713c-1.358,0.148-2.429,1.208-2.593,2.561H3.693
		C3.863,9.359,5.67,7.548,7.955,7.372z M3.695,12.354h1.667c0.164,1.353,1.235,2.413,2.593,2.561v1.693
		C5.677,16.432,3.874,14.632,3.695,12.354z M8.664,16.609v-1.701c1.324-0.177,2.359-1.224,2.52-2.553h1.746
		C12.75,14.633,10.945,16.435,8.664,16.609z"/>
	<g>
		<path fill="#FEAF05" d="M21.426,19.426H21.12c-0.137-1.92-1.537-3.504-3.363-3.925c-0.053-0.487-0.462-0.869-0.963-0.869
			c-0.501,0-0.91,0.382-0.963,0.869c-1.826,0.421-3.226,2.005-3.363,3.925h-0.306c-0.131,0-0.238,0.107-0.238,0.238
			s0.107,0.238,0.238,0.238h9.264c0.131,0,0.238-0.107,0.238-0.238S21.557,19.426,21.426,19.426z M16.795,14.997
			c0.274,0,0.497,0.185,0.573,0.434c-0.188-0.025-0.378-0.043-0.573-0.043c-0.195,0-0.385,0.018-0.573,0.043
			C16.298,15.182,16.521,14.997,16.795,14.997z M16.795,15.863c2.015,0,3.691,1.577,3.85,3.562h-7.7
			C13.104,17.441,14.78,15.863,16.795,15.863z"/>
		<path fill="#FEAF05" d="M18.052,16.51c-0.35-0.161-0.841-0.271-1.347-0.302c-0.131-0.008-0.244,0.092-0.252,0.223
			s0.092,0.244,0.223,0.252c0.443,0.027,0.883,0.124,1.177,0.26c0.028,0.013,0.056,0.02,0.085,0.021
			c0.095,0.006,0.188-0.046,0.231-0.138C18.223,16.706,18.171,16.565,18.052,16.51z"/>
		<path fill="#FEAF05" d="M13.668,19.072c-0.017,0-0.036-0.002-0.056-0.007c-0.112-0.028-0.181-0.142-0.153-0.254
			c0.255-1.026,0.989-1.899,1.963-2.337c0.025-0.011,0.053-0.017,0.08-0.018c0.085-0.002,0.162,0.046,0.197,0.124
			c0.023,0.051,0.025,0.108,0.005,0.161c-0.02,0.052-0.059,0.094-0.11,0.117c-0.858,0.386-1.504,1.154-1.729,2.055
			C13.843,19.004,13.762,19.07,13.668,19.072z"/>
	</g>
</g>
</svg>
