<?xml version="1.0" encoding="utf-8"?>
<svg version="1.1" xmlns="http://www.w3.org/2000/svg" xmlns:xlink="http://www.w3.org/1999/xlink" x="0px" y="0px" width="24px"
	 height="24px" viewBox="0 0 24 24" enable-background="new 0 0 24 24" xml:space="preserve">
<g id="target_hypo">
    <path fill="#FF1313" d="M8.059,14.762c-0.016-0.28,0.022-0.543,0.363-0.583c0.313-0.037,0.426,0.189,0.462,0.448
        c0.135,0.983,0.67,1.563,1.668,1.692c0.292,0.038,0.514,0.167,0.459,0.498c-0.051,0.305-0.324,0.337-0.568,0.336
        C9.267,17.151,8.073,15.946,8.059,14.762z"/>
    <path fill="#FF1313" d="M14.448,13.734c-0.631-2.484-3.383-6.32-3.773-6.32s-3.151,3.845-3.779,6.324
        c-0.42,1.658,0.111,3.081,1.577,4.049c1.43,0.944,2.973,0.929,4.402-0.013C14.344,16.805,14.872,15.404,14.448,13.734z
         M12.493,17.193c-0.603,0.397-1.221,0.599-1.835,0.599c-0.607,0-1.213-0.197-1.802-0.586C7.65,16.409,7.217,15.3,7.569,13.907
        c0.489-1.929,2.895-5.336,3.105-5.336s2.609,3.403,3.1,5.333C14.127,15.293,13.695,16.399,12.493,17.193z"/>
    <path fill="#FF1313" d="M18.759,14.396V7.684h-1.423v6.712h-2.135l2.846,3.82l2.846-3.82H18.759z"/>
    <path fill="#36FF00" d="M8.724,5.96H8.388c-0.09-1.369-1.176-2.454-2.545-2.545V3.08c0-0.099-0.081-0.18-0.18-0.18
        c-0.099,0-0.18,0.081-0.18,0.18v0.336C4.115,3.506,3.029,4.592,2.939,5.96H2.604c-0.099,0-0.18,0.081-0.18,0.18
        c0,0.099,0.081,0.18,0.18,0.18h0.336c0.09,1.369,1.176,2.454,2.545,2.545V9.2c0,0.099,0.081,0.18,0.18,0.18
        c0.099,0,0.18-0.081,0.18-0.18V8.864c1.369-0.09,2.454-1.176,2.545-2.545h0.336c0.099,0,0.18-0.081,0.18-0.18
        C8.903,6.041,8.823,5.96,8.724,5.96z M8.009,5.96H7.122C7.04,5.286,6.515,4.755,5.843,4.665V3.792
        C7.004,3.88,7.922,4.799,8.009,5.96z M6.367,6.32h0.428C6.716,6.812,6.334,7.2,5.843,7.284V6.843c0-0.099-0.081-0.18-0.18-0.18
        c-0.099,0-0.18,0.081-0.18,0.18v0.445C4.977,7.217,4.577,6.824,4.497,6.32h0.463c0.099,0,0.18-0.081,0.18-0.18
        c0-0.099-0.081-0.18-0.18-0.18H4.497c0.078-0.506,0.478-0.902,0.987-0.973v0.45c0,0.099,0.081,0.18,0.18,0.18
        c0.099,0,0.18-0.081,0.18-0.18V4.99c0.492,0.084,0.875,0.475,0.951,0.97H6.367c-0.099,0-0.18,0.081-0.18,0.18
        C6.187,6.239,6.268,6.32,6.367,6.32z M5.484,3.792v0.869C4.795,4.736,4.251,5.274,4.168,5.96H3.321
        C3.408,4.8,4.324,3.881,5.484,3.792z M3.322,6.32h0.846c0.083,0.686,0.627,1.224,1.316,1.299v0.859
        C4.328,8.389,3.413,7.475,3.322,6.32z M5.843,8.478V7.615C6.515,7.525,7.04,6.994,7.122,6.32h0.886
        C7.917,7.476,7.001,8.39,5.843,8.478z"/>
</g>
</svg>
