<?xml version="1.0" encoding="utf-8"?>
<svg version="1.1" xmlns="http://www.w3.org/2000/svg" xmlns:xlink="http://www.w3.org/1999/xlink" x="0px" y="0px" width="24px"
	 height="24px" viewBox="0 0 24 24" enable-background="new 0 0 24 24" xml:space="preserve">
<g id="target_hypo">
	<path fill="#36FF00" d="M14.341,11.646h-0.662c-0.178-2.697-2.318-4.837-5.015-5.015V5.969c0-0.196-0.159-0.354-0.354-0.354
		S7.955,5.773,7.955,5.969V6.63C5.258,6.808,3.118,8.948,2.94,11.646H2.278c-0.196,0-0.354,0.159-0.354,0.354
		s0.159,0.354,0.354,0.354H2.94c0.178,2.697,2.318,4.837,5.015,5.015v0.662c0,0.195,0.159,0.354,0.354,0.354
		s0.354-0.159,0.354-0.354V17.37c2.697-0.178,4.837-2.318,5.015-5.015h0.662c0.195,0,0.354-0.159,0.354-0.354
		S14.536,11.646,14.341,11.646z M12.932,11.646h-1.748c-0.161-1.329-1.197-2.376-2.52-2.553V7.371
		C10.951,7.545,12.761,9.357,12.932,11.646z M9.695,12.354h0.843c-0.154,0.97-0.908,1.735-1.874,1.901v-0.869
		c0-0.195-0.159-0.354-0.354-0.354s-0.354,0.159-0.354,0.354v0.876c-0.999-0.14-1.787-0.914-1.944-1.908h0.913
		c0.196,0,0.354-0.159,0.354-0.354s-0.159-0.354-0.354-0.354H6.01c0.153-0.998,0.943-1.778,1.945-1.918v0.888
		c0,0.196,0.159,0.354,0.354,0.354s0.354-0.159,0.354-0.354v-0.88c0.97,0.166,1.725,0.936,1.875,1.911H9.695
		c-0.195,0-0.354,0.159-0.354,0.354S9.5,12.354,9.695,12.354z M7.955,7.372v1.713c-1.358,0.148-2.429,1.208-2.593,2.561H3.693
		C3.863,9.359,5.67,7.548,7.955,7.372z M3.695,12.354h1.667c0.164,1.353,1.235,2.413,2.593,2.561v1.693
		C5.677,16.432,3.874,14.632,3.695,12.354z M8.664,16.609v-1.701c1.324-0.177,2.359-1.224,2.52-2.553h1.746
		C12.75,14.633,10.945,16.435,8.664,16.609z"/>
	<g>
		<path fill="#E83258" d="M15.998,13.984c1,1.636,2.431,3.02,2.197,5.079c-0.143,1.265-1.419,2.04-2.684,1.795
			c-1.204-0.233-2.034-1.429-1.779-2.653C14.063,16.613,15.006,15.337,15.998,13.984z M14.749,17.115
			c-0.119,0.358-0.274,0.708-0.348,1.075c-0.115,0.571-0.037,1.119,0.429,1.533c0.167,0.148,0.381,0.199,0.583,0.043
			c0.136-0.105,0.151-0.258,0.054-0.388C14.967,18.71,14.722,17.972,14.749,17.115z"/>
		<path fill="#E83258" d="M19.707,13.63c0.531,0.72,1.027,1.405,1.233,2.247c0.139,0.566-0.034,1.041-0.514,1.369
			c-0.467,0.319-0.971,0.324-1.439,0.004c-0.479-0.328-0.653-0.81-0.515-1.372C18.678,15.038,19.171,14.349,19.707,13.63z"/>
	</g>
</g>
</svg>
