<?xml version="1.0" encoding="utf-8"?>
<svg version="1.1" xmlns="http://www.w3.org/2000/svg" xmlns:xlink="http://www.w3.org/1999/xlink" x="0px" y="0px" width="24px"
	 height="24px" viewBox="0 0 24 24" enable-background="new 0 0 24 24" xml:space="preserve">
<g id="target_custom">
	<path fill="#36FF00" d="M14.341,11.646h-0.662c-0.178-2.697-2.318-4.837-5.015-5.015V5.969c0-0.196-0.159-0.354-0.354-0.354
		S7.955,5.773,7.955,5.969V6.63C5.258,6.808,3.118,8.948,2.94,11.646H2.278c-0.196,0-0.354,0.159-0.354,0.354
		s0.159,0.354,0.354,0.354H2.94c0.178,2.697,2.318,4.837,5.015,5.015v0.662c0,0.195,0.159,0.354,0.354,0.354
		s0.354-0.159,0.354-0.354V17.37c2.697-0.178,4.837-2.318,5.015-5.015h0.662c0.195,0,0.354-0.159,0.354-0.354
		S14.536,11.646,14.341,11.646z M12.932,11.646h-1.748c-0.161-1.329-1.197-2.376-2.52-2.553V7.371
		C10.951,7.545,12.761,9.357,12.932,11.646z M9.695,12.354h0.843c-0.154,0.97-0.908,1.735-1.874,1.901v-0.869
		c0-0.195-0.159-0.354-0.354-0.354s-0.354,0.159-0.354,0.354v0.876c-0.999-0.14-1.787-0.914-1.944-1.908h0.913
		c0.196,0,0.354-0.159,0.354-0.354s-0.159-0.354-0.354-0.354H6.01c0.153-0.998,0.943-1.778,1.945-1.918v0.888
		c0,0.196,0.159,0.354,0.354,0.354s0.354-0.159,0.354-0.354v-0.88c0.97,0.166,1.725,0.936,1.875,1.911H9.695
		c-0.195,0-0.354,0.159-0.354,0.354S9.5,12.354,9.695,12.354z M7.955,7.372v1.713c-1.358,0.148-2.429,1.208-2.593,2.561H3.693
		C3.863,9.359,5.67,7.548,7.955,7.372z M3.695,12.354h1.667c0.164,1.353,1.235,2.413,2.593,2.561v1.693
		C5.677,16.432,3.874,14.632,3.695,12.354z M8.664,16.609v-1.701c1.324-0.177,2.359-1.224,2.52-2.553h1.746
		C12.75,14.633,10.945,16.435,8.664,16.609z"/>
	<path fill="#36FF00" d="M18.357,13.676l-4.27,4.27c-0.034,0.034-0.057,0.078-0.066,0.125l-0.509,2.764
		c-0.014,0.077,0.01,0.156,0.066,0.211c0.055,0.055,0.134,0.08,0.211,0.066l2.764-0.509c0.047-0.009,0.091-0.032,0.125-0.066
		l4.27-4.27c0.249-0.249,0.248-0.655-0.002-0.904l-1.685-1.685C19.011,13.428,18.606,13.427,18.357,13.676z M16.11,19.947
		c0.054,0.054,0.074,0.134,0.051,0.208c-0.01,0.032-0.028,0.061-0.051,0.084c-0.029,0.029-0.067,0.05-0.11,0.057l-1.377,0.243
		c-0.137-0.004-0.272-0.058-0.376-0.162c-0.104-0.104-0.158-0.24-0.162-0.376l0.243-1.377c0.013-0.076,0.068-0.138,0.141-0.161
		c0.073-0.023,0.153-0.003,0.208,0.051L16.11,19.947z M20.591,15.664c0.079,0.079,0.079,0.206,0,0.285l-3.773,3.773
		c-0.079,0.079-0.206,0.079-0.285,0l-0.148-0.148c-0.079-0.079-0.079-0.206,0-0.285l3.773-3.773c0.079-0.079,0.206-0.079,0.285,0
		L20.591,15.664z M19.855,14.917c0.079,0.079,0.079,0.206,0,0.285l-3.773,3.773c-0.079,0.079-0.206,0.079-0.285,0l-0.148-0.148
		c-0.079-0.079-0.079-0.206,0-0.285l3.773-3.773c0.079-0.079,0.206-0.079,0.285,0L19.855,14.917z M19.12,14.169
		c0.079,0.079,0.079,0.206,0,0.285l-3.773,3.773c-0.079,0.079-0.206,0.079-0.285,0l-0.148-0.148c-0.079-0.079-0.079-0.206,0-0.285
		l3.773-3.773c0.079-0.079,0.206-0.079,0.285,0L19.12,14.169z"/>
</g>
</svg>
