<?xml version="1.0" encoding="utf-8"?>
<svg version="1.1" xmlns="http://www.w3.org/2000/svg" xmlns:xlink="http://www.w3.org/1999/xlink" x="0px" y="0px" width="24px"
	 height="24px" viewBox="0 0 24 24" enable-background="new 0 0 24 24" xml:space="preserve">
<g id="temptargetlow">
	<path fill="#67E86A" d="M7.242,17.689c-0.005,0-0.011,0-0.017,0c-0.695-0.013-1.318-0.829-1.709-2.24
		c-0.285-1.029-0.542-2.103-0.792-3.141c-0.156-0.65-0.313-1.301-0.476-1.945L4.14,9.929c-0.369-1.486-0.75-3.024-1.746-3.197
		c-0.116-0.02-0.193-0.13-0.173-0.246s0.129-0.189,0.246-0.173C3.735,6.534,4.15,8.208,4.552,9.827l0.108,0.432
		c0.164,0.646,0.321,1.298,0.478,1.951c0.249,1.035,0.506,2.104,0.789,3.127c0.322,1.163,0.834,1.92,1.307,1.929
		c0.002,0,0.005,0,0.008,0c0.443,0,0.905-0.656,1.269-1.804c0.188-0.592,0.349-1.229,0.504-1.847l0.124-0.487
		c0.138-0.536,0.268-1.08,0.398-1.624c0.267-1.114,0.542-2.265,0.878-3.332c0.373-1.182,0.928-1.836,1.565-1.842
		c0.003,0,0.005,0,0.008,0c0.639,0,1.208,0.65,1.603,1.832c0.278,0.833,0.514,1.729,0.74,2.598l0.177,0.671
		c0.147,0.553,0.288,1.112,0.43,1.672c0.24,0.956,0.489,1.945,0.769,2.879c0.229,0.77,0.619,1.26,1.017,1.28
		c0.356,0.043,0.729-0.362,1.011-1.041c0.271-0.651,0.521-1.41,0.761-2.318c0.333-1.265,0.648-2.547,0.964-3.829
		c0.146-0.592,0.291-1.184,0.438-1.773c0.281-1.125,0.812-1.774,1.62-1.983c0.111-0.028,0.229,0.04,0.259,0.153
		c0.029,0.114-0.039,0.229-0.153,0.259c-0.652,0.168-1.069,0.7-1.313,1.674c-0.147,0.589-0.293,1.181-0.438,1.772
		c-0.316,1.284-0.633,2.568-0.966,3.836c-0.245,0.928-0.5,1.704-0.779,2.374c-0.487,1.17-1.097,1.32-1.426,1.302
		c-0.59-0.03-1.114-0.622-1.402-1.584c-0.281-0.941-0.531-1.936-0.773-2.896c-0.14-0.558-0.28-1.115-0.427-1.666l-0.178-0.673
		c-0.225-0.861-0.458-1.751-0.731-2.57c-0.323-0.966-0.772-1.541-1.201-1.541c-0.001,0-0.002,0-0.004,0
		c-0.425,0.003-0.86,0.581-1.164,1.544c-0.331,1.052-0.605,2.196-0.87,3.303c-0.131,0.546-0.262,1.092-0.399,1.63l-0.124,0.486
		c-0.158,0.623-0.32,1.268-0.512,1.871C8.367,17.32,7.706,17.689,7.242,17.689z"/>
    <path fill="#67E86A" d="M16.797,16.24H7.212c-0.391,0-0.708-0.317-0.708-0.709l0-2.822H2.424c-0.392,0-0.708-0.317-0.708-0.709
        s0.317-0.708,0.708-0.708h4.788c0.391,0,0.708,0.317,0.708,0.708l0,2.822h8.167V12c0-0.392,0.317-0.708,0.709-0.708h4.766
        c0.392,0,0.709,0.317,0.709,0.708s-0.317,0.709-0.709,0.709h-4.057v2.822C17.506,15.923,17.188,16.24,16.797,16.24z"/>
</g>
</svg>
