<?xml version="1.0" encoding="utf-8"?>
<svg version="1.1" xmlns="http://www.w3.org/2000/svg" xmlns:xlink="http://www.w3.org/1999/xlink" x="0px" y="0px" width="24px"
	 height="24px" viewBox="0 0 24 24" enable-background="new 0 0 24 24" xml:space="preserve">
<g id="x_x5F_swap_x5F_vert">
	<path fill="none" d="M0,0h24v24H0V0z"/>
	<path fill="#008585" d="M19.375,17.01V10h-2v7.01h-3l4,3.99l4-3.99H19.375z M12.375,3l-4,3.99h3V14h2V6.99h3L12.375,3z"/>
	<g>
		<path fill="#008585" d="M2.756,15.271c-0.128,0-0.256-0.049-0.354-0.146c-0.195-0.195-0.195-0.512,0-0.707l5.514-5.515
			c0.196-0.195,0.512-0.196,0.708,0c0.195,0.195,0.195,0.512,0,0.708L3.11,15.124C3.012,15.222,2.884,15.271,2.756,15.271z"/>
		<path fill="#008585" d="M8.271,15.271c-0.128,0-0.256-0.049-0.354-0.146L2.403,9.61c-0.196-0.196-0.196-0.512,0-0.708
			c0.195-0.196,0.512-0.196,0.708,0l5.514,5.515c0.196,0.195,0.196,0.512,0,0.707C8.527,15.222,8.399,15.271,8.271,15.271z"/>
	</g>
</g>
</svg>
