<?xml version="1.0" encoding="utf-8"?>
<!-- Generator: Adobe Illustrator 17.0.0, SVG Export Plug-In . SVG Version: 6.00 Build 0)  -->
<!DOCTYPE svg PUBLIC "-//W3C//DTD SVG 1.1//EN" "http://www.w3.org/Graphics/SVG/1.1/DTD/svg11.dtd">
<svg version="1.1" id="Layer_1" xmlns="http://www.w3.org/2000/svg" xmlns:xlink="http://www.w3.org/1999/xlink" x="0px" y="0px"
	 width="24px" height="24px" viewBox="0 0 24 24" enable-background="new 0 0 24 24" xml:space="preserve">
<path d="M19.375,17.01V10h-2v7.01h-3l4,3.99l4-3.99H19.375z M12.375,3l-4,3.99h3V14h2V6.99h3L12.375,3z"/>
<path fill="none" d="M0,0h24v24H0V0z"/>
<polygon points="5.438,12.733 3.092,15.079 2.358,14.346 4.704,12 2.358,9.654 3.092,8.921 5.438,11.267 7.783,8.921 8.517,9.654 
	6.171,12 8.517,14.346 7.783,15.079 "/>
<path d="M8.375,9.654L7.783,9.063l-2.346,2.346L3.092,9.063L2.5,9.654L4.846,12L2.5,14.346l0.592,0.592l2.346-2.346l2.346,2.346
	l0.592-0.592L6.029,12L8.375,9.654z"/>
</svg>
