<?xml version="1.0" encoding="utf-8"?>
<svg version="1.1" xmlns="http://www.w3.org/2000/svg" xmlns:xlink="http://www.w3.org/1999/xlink" x="0px" y="0px" width="24px"
	 height="24px" viewBox="0 0 24 24" enable-background="new 0 0 24 24" xml:space="preserve">
<g id="xdrip">
	<path fill="none" d="M0,0h24v24H0V0z"/>
	<path fill="#B92929" d="M12.143,3.619c1.326,1.335,2.613,2.639,3.908,3.934c0.86,0.86,1.735,1.695,2.294,2.811
		c1.242,2.477,0.847,5.53-1.039,7.698c-1.763,2.026-4.813,2.845-7.35,1.973c-4.996-1.716-6.424-7.776-2.71-11.543
		C8.837,6.878,10.458,5.294,12.143,3.619z M12.08,6.135c-1.258,1.251-2.447,2.427-3.628,3.61c-1.148,1.149-1.65,2.542-1.541,4.158
		c0.177,2.618,2.665,4.888,5.169,4.688C12.08,14.471,12.08,10.35,12.08,6.135z"/>
</g>
</svg>
