<?xml version="1.0" encoding="UTF-8" standalone="no"?>
<svg
   xmlns:dc="http://purl.org/dc/elements/1.1/"
   xmlns:cc="http://creativecommons.org/ns#"
   xmlns:rdf="http://www.w3.org/1999/02/22-rdf-syntax-ns#"
   xmlns:svg="http://www.w3.org/2000/svg"
   xmlns="http://www.w3.org/2000/svg"
   id="svg4879"
   version="1.1"
   viewBox="-0.1 0 38.4175 38.4175"
   height="38.4175mm"
   width="38.4175mm">
  <defs
     id="defs4873" />
  <metadata
     id="metadata4876">
    <rdf:RDF>
      <cc:Work
         rdf:about="">
        <dc:format>image/svg+xml</dc:format>
        <dc:type
           rdf:resource="http://purl.org/dc/dcmitype/StillImage" />
        <dc:title></dc:title>
      </cc:Work>
    </rdf:RDF>
  </metadata>
  <g
     transform="translate(267.81708,63.899226)"
     id="layer1">
    <path
       id="path197"
       transform="matrix(0.26458333,0,0,0.26458333,-267.91708,-63.899226)"
       d="M 72.599609 0 C 62.799597 0 53.499969 1.9003894 45 5.4003906 C 27.099969 12.800392 12.800365 27.099999 5.4003906 45 C 1.9003591 53.499999 0 62.799608 0 72.599609 C 0 82.399611 1.9003591 91.69922 5.4003906 100.19922 C 12.800365 118.09922 27.099969 132.40078 45 139.80078 C 53.499969 143.30078 62.799597 145.19922 72.599609 145.19922 C 82.399584 145.19922 91.699212 143.30078 100.19922 139.80078 C 118.09921 132.40078 132.40077 118.09922 139.80078 100.19922 C 143.30077 91.69922 145.19922 82.399611 145.19922 72.599609 C 145.19922 62.799608 143.30077 53.499999 139.80078 45 C 132.40077 27.099999 118.09921 12.800392 100.19922 5.4003906 C 91.699212 1.9003894 82.399584 0 72.599609 0 z M 72.5 11.300781 C 106.29997 11.300781 133.69922 38.799997 133.69922 72.5 C 133.69922 84.099997 130.5004 94.899219 124.90039 104.19922 L 124.90039 72.699219 C 125.00055 62.899221 122.6996 53.900781 118.09961 45.800781 C 113.49958 37.700781 107.19963 31.39922 99.099609 26.699219 C 95.599616 24.699217 91.899584 23.100001 88.099609 22 C 83.899609 20.700001 79.599609 24.099999 79.599609 28.5 C 79.599609 31.5 81.600403 34.000391 84.400391 34.900391 C 87.000403 35.700392 89.400781 36.799221 91.800781 38.199219 C 97.600769 41.69922 102.19998 46.400391 105.5 52.400391 C 108.79998 58.400391 110.5 65.099609 110.5 72.599609 C 110.5 80.099609 108.79998 86.800781 105.5 92.800781 C 102.09997 98.800781 97.600769 103.50039 91.800781 106.90039 C 90.200756 107.80039 88.600384 108.60078 86.900391 109.30078 L 86.900391 106.09961 L 86.900391 98.900391 L 86.900391 92.900391 L 86.900391 82.400391 C 86.900391 80.300391 86.200794 78.499611 84.800781 77.099609 C 83.400806 75.699608 81.699987 75 79.5 75 C 77.499987 75 75.800762 75.699608 74.300781 77.099609 C 72.900769 78.499611 72.099609 80.200388 72.099609 82.400391 L 72.099609 92.900391 L 72.099609 98.900391 L 72.099609 106.5 L 72.099609 112.40039 L 72.099609 117.19922 C 72.099609 119.19922 72.800762 120.90039 74.300781 122.40039 C 75.700756 123.80039 77.499987 124.59961 79.5 124.59961 C 80.599994 124.59961 81.69959 124.39999 82.599609 124 C 86.299616 123.1 89.899238 121.89961 93.199219 120.09961 C 99.999231 116.59961 105.59963 111.90078 110.09961 105.80078 L 110.09961 117.19922 C 110.09961 118.39922 110.29916 119.40078 110.69922 120.30078 C 100.19924 128.70078 86.9 133.69922 72.5 133.69922 C 38.699987 133.69922 11.300781 106.2 11.300781 72.5 C 11.300781 38.799997 38.799994 11.300781 72.5 11.300781 z M 64.900391 20.300781 C 64.00041 20.300781 63.200365 20.499233 62.400391 20.699219 C 56.400391 21.699217 50.700384 23.699219 45.400391 26.699219 C 37.400378 31.299217 31.100384 37.700781 26.400391 45.800781 C 21.800365 53.900781 19.5 62.899221 19.5 72.699219 C 19.5 82.49922 21.6992 91.499999 26.199219 99.5 C 30.6992 107.5 36.799609 113.8 44.599609 118.5 C 48.199609 120.7 51.999616 122.30039 56.099609 123.40039 C 60.499622 124.60039 64.900391 121.40078 64.900391 116.80078 C 64.900391 113.70078 62.800384 111.19922 59.900391 110.19922 C 57.400384 109.39922 54.899603 108.30039 52.599609 106.90039 C 46.699616 103.50039 42.100762 98.800781 38.800781 92.800781 C 35.400794 86.800781 33.800781 80.099609 33.800781 72.599609 C 33.800781 65.099609 35.500762 58.400391 38.800781 52.400391 C 42.100762 46.400391 46.799622 41.69922 52.599609 38.199219 C 54.199597 37.299219 55.899578 36.500784 57.599609 35.800781 L 57.599609 38 L 57.599609 44 L 57.599609 51.599609 L 57.599609 57.5 L 57.599609 62.300781 C 57.599609 64.300779 58.300762 66 59.800781 67.5 C 61.200794 68.900001 63.000025 69.699219 65 69.699219 C 67.100019 69.699219 68.900806 69 70.300781 67.5 C 71.700794 66.099999 72.400391 64.300779 72.400391 62.300781 L 72.400391 57.5 L 72.400391 51.199219 L 72.400391 44 L 72.400391 38 L 72.400391 27.5 C 72.400391 25.4 71.700794 23.59922 70.300781 22.199219 C 68.8008 20.999219 67.100416 20.300781 64.900391 20.300781 z "
       style="stroke-width:0.99999994;fill:#ffffff" />
  </g>
</svg>
