<?xml version="1.0" encoding="UTF-8" standalone="no"?>
<svg
   xmlns:dc="http://purl.org/dc/elements/1.1/"
   xmlns:cc="http://creativecommons.org/ns#"
   xmlns:rdf="http://www.w3.org/1999/02/22-rdf-syntax-ns#"
   xmlns:svg="http://www.w3.org/2000/svg"
   xmlns="http://www.w3.org/2000/svg"
   id="svg6582"
   version="1.1"
   viewBox="0 0 6.3499999 6.3500002"
   height="24"
   width="24">
  <defs
     id="defs6576" />
  <metadata
     id="metadata6579">
    <rdf:RDF>
      <cc:Work
         rdf:about="">
        <dc:format>image/svg+xml</dc:format>
        <dc:type
           rdf:resource="http://purl.org/dc/dcmitype/StillImage" />
        <dc:title></dc:title>
      </cc:Work>
    </rdf:RDF>
  </metadata>
  <g
     transform="translate(0,-290.64998)"
     id="layer1">
    <path
       id="path7219"
       d="m 0.07295798,296.83173 c -0.1122387,-0.12403 -0.10912,-0.13361 0.1098377,-0.33755 0.123946,-0.11545 0.2399605,-0.2533 0.2578097,-0.30635 0.017849,-0.053 -0.072227,-0.28451 -0.2001711,-0.51436 -0.2216511,-0.3982 -0.232625,-0.44673 -0.232625,-1.02872 0,-0.55596 0.01701,-0.64151 0.1894393,-0.95278 0.2295216,-0.41433 0.5974781,-0.76138 0.699297,-0.65956 0.13093292,0.13093 0.21004832,0.0684 0.38036222,-0.30044 0.26666,-0.57755 0.4966683,-0.81559 0.7902781,-0.81787 0.2298957,-0.002 0.2496163,-0.0181 0.3361639,-0.27725 0.051087,-0.15301 0.2323105,-0.42442 0.4078375,-0.61081 l 0.3158958,-0.33544 0.2535776,0.28625 c 0.1394675,0.15744 0.3049613,0.38166 0.367764,0.49829 0.062802,0.11662 0.150967,0.21203 0.1959215,0.21203 0.044954,0 0.2481379,-0.12905 0.4515189,-0.28678 0.5138423,-0.3985 0.9479397,-0.53103 1.6161036,-0.49339 0.1488754,0.008 0.1524038,0.0212 0.1221769,0.44366 -0.038067,0.53204 -0.2122871,0.9432 -0.5590789,1.31942 -0.1446004,0.15688 -0.2629099,0.31727 -0.2629099,0.35643 0,0.0392 0.1518971,0.17085 0.3375495,0.29265 0.185652,0.1218 0.4191662,0.2894 0.5189208,0.37247 l 0.1813712,0.15102 -0.2456665,0.24913 c -0.1351167,0.13703 -0.4047968,0.32226 -0.5992897,0.41164 -0.4011153,0.18432 -0.4648215,0.2508 -0.3843851,0.40109 0.073206,0.13678 -0.2999593,0.50766 -0.708632,0.70428 -0.4873936,0.23449 -0.4833225,0.23068 -0.4632573,0.43341 0.015149,0.15308 -0.029439,0.23403 -0.222099,0.40318 -0.1325804,0.11641 -0.3972262,0.28315 -0.5881017,0.37054 -0.3044925,0.13941 -0.4133015,0.1554 -0.8873715,0.13052 -0.466717,-0.0245 -0.6018643,-0.0605 -0.9920655,-0.26433 l -0.45174132,-0.23597 -0.2783896,0.25662 c -0.1531142,0.14114 -0.2923695,0.25661 -0.309456,0.25661 -0.017086,0 -0.08305,-0.0574 -0.1465851,-0.12764 z M 3.046513,296.44094 c 0.1507077,-0.0649 0.2930096,-0.16746 0.3162261,-0.22796 0.1032308,-0.26902 -0.7725458,-0.65358 -1.3181185,-0.5788 -0.3753467,0.0515 -0.8473517,0.32482 -0.8473517,0.49076 0,0.24793 0.8400929,0.5377 1.3501978,0.46571 0.1237678,-0.0175 0.3483389,-0.0848 0.4990463,-0.14971 z m -1.9305252,-0.972 c 0.1526821,-0.23095 0.1774628,-0.33287 0.1758706,-0.72332 -0.00236,-0.57649 -0.2325739,-1.09745 -0.48498192,-1.09745 -0.3493751,0 -0.5780768,0.97634 -0.3705061,1.58171 0.1974871,0.57597 0.4079444,0.64999 0.67961742,0.23906 z m 2.7819869,-0.0587 c 0.3738715,-0.0802 0.6840596,-0.30762 0.625978,-0.45898 -0.074257,-0.19351 -0.719195,-0.44794 -1.1354468,-0.44794 -0.4126632,0 -0.858375,0.18827 -0.9959339,0.42069 -0.084486,0.14275 0.069181,0.27006 0.5327922,0.4414 0.3530742,0.1305 0.534218,0.13884 0.9726105,0.0448 z M 2.1580258,294.5053 c 0.3499054,-0.37558 0.4136063,-1.10931 0.1424518,-1.64082 -0.2587115,-0.50712 -0.4270412,-0.51919 -0.6556148,-0.047 -0.2434377,0.50288 -0.1785456,1.15285 0.1679929,1.68264 0.1180344,0.18046 0.1810123,0.18141 0.3451701,0.005 z m 3.2023524,-0.34041 c 0.355406,-0.16547 0.4105616,-0.27201 0.2250328,-0.43468 -0.4949714,-0.43399 -1.3565556,-0.47981 -1.896706,-0.10086 -0.277631,0.19477 -0.2274028,0.33089 0.1928854,0.52273 0.495521,0.22618 1.0108864,0.23064 1.4787878,0.0128 z m -1.8920711,-1.06321 c 0.1493138,-0.29099 0.1772115,-0.41624 0.157532,-0.70724 -0.025984,-0.38422 -0.264604,-0.93731 -0.4463561,-1.03458 -0.1590461,-0.0851 -0.3566052,0.14839 -0.4775562,0.56444 -0.114522,0.39395 -0.052801,0.87509 0.1676979,1.3073 0.1895712,0.3716 0.3603694,0.33453 0.5986824,-0.12992 z m 1.2973412,-0.31818 c 0.3810141,-0.16525 0.6449005,-0.41584 0.8308376,-0.78896 0.3045492,-0.61116 0.1964826,-0.81689 -0.3446688,-0.65619 -0.5698163,0.16922 -1.1773414,0.8697 -1.1773414,1.35748 0,0.29794 0.1596627,0.31819 0.6911726,0.0877 z"
       style="fill:#ffffff;stroke-width:1" />
  </g>
</svg>
