<?xml version="1.0" encoding="UTF-8" standalone="no"?>
<svg
   xmlns:dc="http://purl.org/dc/elements/1.1/"
   xmlns:cc="http://creativecommons.org/ns#"
   xmlns:rdf="http://www.w3.org/1999/02/22-rdf-syntax-ns#"
   xmlns:svg="http://www.w3.org/2000/svg"
   xmlns="http://www.w3.org/2000/svg"
   id="svg6582"
   version="1.1"
   viewBox="0 0 6.3499999 6.3500002"
   height="24"
   width="24">
  <defs
     id="defs6576" />
  <metadata
     id="metadata6579">
    <rdf:RDF>
      <cc:Work
         rdf:about="">
        <dc:format>image/svg+xml</dc:format>
        <dc:type
           rdf:resource="http://purl.org/dc/dcmitype/StillImage" />
        <dc:title></dc:title>
      </cc:Work>
    </rdf:RDF>
  </metadata>
  <g
     transform="translate(0,-290.64998)"
     id="layer1">
    <path
       id="path825"
       transform="matrix(0.26458333,0,0,0.26458333,0,290.64998)"
       d="M 19.140625 0.001953125 C 19.121272 -0.027012229 18.589483 0.4583956 17.533203 1.4433594 L 16.138672 2.7441406 L 15.527344 2.5976562 C 13.730619 2.1621791 13.408475 2.1102731 13.111328 2.1953125 C 12.925914 2.2486416 10.94043 4.1154248 8.3671875 6.65625 C 4.501091 10.473724 3.9157157 11.007283 3.7382812 10.875 C 3.6265902 10.79185 3.5095833 10.665561 3.4785156 10.59375 C 3.3890011 10.385498 2.6956999 10.335783 2.421875 10.517578 C 2.1700799 10.685465 2.054172 11.058916 2.1367188 11.429688 C 2.161278 11.540163 2.6055681 12.088626 3.125 12.646484 C 3.6444746 13.204078 4.0643642 13.696073 4.0605469 13.71875 C 4.0557994 13.750687 3.6257459 14.181218 3.1035156 14.677734 C 2.186075 15.549558 2.1449467 15.572728 1.9238281 15.353516 C 1.4122084 14.845169 1.0343414 14.538429 0.88671875 14.519531 C 0.80121122 14.506356 0.57686699 14.608976 0.390625 14.746094 C 0.022338157 15.020354 -0.10299958 15.442985 0.08984375 15.771484 C 0.15735881 15.886533 0.84541472 16.665959 1.6191406 17.501953 C 3.1426952 19.148391 3.4060405 19.299772 3.90625 18.828125 C 4.3506332 18.408938 4.3283738 18.120855 3.8007812 17.458984 C 3.4870143 17.065233 3.3639773 16.813238 3.4414062 16.71875 C 3.8030532 16.279191 5.1443222 15.025898 5.2382812 15.041016 C 5.2992756 15.050086 5.7637411 15.508585 6.2714844 16.060547 C 7.3071396 17.186468 7.673536 17.330977 8.1875 16.818359 C 8.5320648 16.474952 8.5015016 16.112352 8.0839844 15.597656 L 7.7890625 15.234375 L 12.257812 10.820312 C 15.831766 7.2902716 16.737615 6.334307 16.78125 6.0410156 C 16.811214 5.8398314 16.73678 5.08047 16.615234 4.3535156 L 16.394531 3.03125 L 17.671875 1.6503906 C 18.667198 0.57417015 19.159978 0.030918479 19.140625 0.001953125 z M 13.359375 2.9960938 C 13.540323 2.9885819 13.799901 3.0179049 14.216797 3.0800781 C 15.664845 3.295738 15.710698 3.3344481 15.921875 4.5878906 C 16.020672 5.1733394 16.087094 5.744414 16.070312 5.8574219 C 16.053501 5.9702408 14.08558 7.9931373 11.697266 10.351562 C 8.5441747 13.465062 7.308167 14.614402 7.1835938 14.542969 C 7.0902697 14.48552 6.9872808 14.44128 6.9609375 14.4375 L 6.9609375 14.439453 C 6.700214 14.400637 7.376599 13.638369 9.5722656 11.501953 C 10.991106 10.121405 12.145159 8.9517311 12.134766 8.9101562 C 12.125204 8.8646129 11.603789 8.271835 10.976562 7.59375 C 10.349408 6.9154382 9.8424538 6.3271702 9.8515625 6.2753906 C 9.8601609 6.2289024 9.986798 6.0749481 10.132812 5.9335938 L 10.398438 5.6777344 L 11.271484 6.6269531 C 12.076206 7.501876 12.415858 7.7093115 12.380859 7.3066406 C 12.373272 7.2189178 11.99431 6.748812 11.539062 6.2636719 L 10.712891 5.3808594 L 11.019531 5.0625 C 11.18859 4.886752 11.35177 4.7481736 11.384766 4.7519531 C 11.416647 4.7567153 11.825682 5.1774906 12.294922 5.6875 C 13.093696 6.5552417 13.356424 6.7168572 13.408203 6.3691406 C 13.419976 6.2901107 13.044139 5.8206097 12.574219 5.3261719 C 11.853512 4.5671294 11.743108 4.3962633 11.869141 4.2265625 C 12.275466 3.6803074 12.39437 3.7204245 13.300781 4.7128906 C 13.773899 5.2309883 14.212008 5.6261928 14.275391 5.6035156 C 14.538952 5.490281 14.39237 5.21977 13.630859 4.4160156 C 13.188908 3.9489416 12.804632 3.5165577 12.777344 3.4511719 C 12.749942 3.385786 12.837565 3.2431747 12.972656 3.1328125 C 13.075649 3.0473952 13.178427 3.0036056 13.359375 2.9960938 z M 11.183594 16.90625 A 0.80196695 0.80196695 0 0 0 11.263672 18.507812 L 18.298828 18.507812 A 0.80108009 0.80108009 0 1 0 18.298828 16.90625 L 11.263672 16.90625 A 0.80108009 0.80108009 0 0 0 11.183594 16.90625 z M 20.550781 16.90625 A 0.80196695 0.80196695 0 0 0 20.630859 18.507812 L 23.177734 18.507812 A 0.80108009 0.80108009 0 1 0 23.177734 16.90625 L 20.630859 16.90625 A 0.80108009 0.80108009 0 0 0 20.550781 16.90625 z M 11.183594 19.652344 A 0.80196695 0.80196695 0 0 0 11.263672 21.253906 L 14.298828 21.253906 A 0.80108009 0.80108009 0 1 0 14.298828 19.652344 L 11.263672 19.652344 A 0.80108009 0.80108009 0 0 0 11.183594 19.652344 z M 16.578125 19.652344 A 0.80196695 0.80196695 0 0 0 16.660156 21.253906 L 23.177734 21.253906 A 0.80108009 0.80108009 0 1 0 23.177734 19.652344 L 16.660156 19.652344 A 0.80108009 0.80108009 0 0 0 16.578125 19.652344 z M 11.183594 22.398438 A 0.80196695 0.80196695 0 0 0 11.263672 24 L 23.177734 24 A 0.80108009 0.80108009 0 1 0 23.177734 22.398438 L 11.263672 22.398438 A 0.80108009 0.80108009 0 0 0 11.183594 22.398438 z "
       style="fill:#ffffff;stroke-width:3.77952743" />
  </g>
</svg>
