<?xml version="1.0" encoding="UTF-8" standalone="no"?>
<!-- Created with Inkscape (http://www.inkscape.org/) -->

<svg
   xmlns:dc="http://purl.org/dc/elements/1.1/"
   xmlns:cc="http://creativecommons.org/ns#"
   xmlns:rdf="http://www.w3.org/1999/02/22-rdf-syntax-ns#"
   xmlns:svg="http://www.w3.org/2000/svg"
   xmlns="http://www.w3.org/2000/svg"
   xmlns:sodipodi="http://sodipodi.sourceforge.net/DTD/sodipodi-0.dtd"
   xmlns:inkscape="http://www.inkscape.org/namespaces/inkscape"
   width="24"
   height="24"
   viewBox="0 0 6.3499999 6.3500002"
   version="1.1"
   id="svg6582"
   inkscape:version="0.92.2 (5c3e80d, 2017-08-06)"
   sodipodi:docname="ic_br_cob_iob_orig.svg">
  <defs
     id="defs6576" />
  <sodipodi:namedview
     id="base"
     pagecolor="#ffffff"
     bordercolor="#666666"
     borderopacity="1.0"
     inkscape:pageopacity="0.0"
     inkscape:pageshadow="2"
     inkscape:zoom="20.48"
     inkscape:cx="21.368628"
     inkscape:cy="7.6899364"
     inkscape:document-units="mm"
     inkscape:current-layer="layer1"
     showgrid="false"
     units="px"
     inkscape:snap-object-midpoints="true"
     inkscape:snap-center="true"
     inkscape:window-width="1920"
     inkscape:window-height="1017"
     inkscape:window-x="-8"
     inkscape:window-y="-8"
     inkscape:window-maximized="1"
     showguides="true"
     inkscape:guide-bbox="true">
    <sodipodi:guide
       position="7.0150757,3.6431885"
       orientation="0,1"
       id="guide7239"
       inkscape:locked="false" />
    <sodipodi:guide
       position="6.110738,1.9637045"
       orientation="0,1"
       id="guide4515"
       inkscape:locked="false" />
  </sodipodi:namedview>
  <metadata
     id="metadata6579">
    <rdf:RDF>
      <cc:Work
         rdf:about="">
        <dc:format>image/svg+xml</dc:format>
        <dc:type
           rdf:resource="http://purl.org/dc/dcmitype/StillImage" />
        <dc:title></dc:title>
      </cc:Work>
    </rdf:RDF>
  </metadata>
  <g
     inkscape:label="Layer 1"
     inkscape:groupmode="layer"
     id="layer1"
     transform="translate(0,-290.64998)">
    <path
       style="fill:#000000;stroke-width:0.99999988"
       d="m 0.03622667,296.52928 c -0.05573246,-0.0616 -0.05418386,-0.0663 0.0545402,-0.1676 0.0615457,-0.0574 0.11915314,-0.12579 0.12801621,-0.15212 0.008863,-0.0264 -0.0358645,-0.14128 -0.0993956,-0.25541 -0.11006156,-0.19773 -0.11551067,-0.22183 -0.11551067,-0.51082 0,-0.27606 0.0084459,-0.31854 0.09406667,-0.47311 0.11396967,-0.20573 0.29667962,-0.37806 0.34723811,-0.32749 0.0650151,0.065 0.10430015,0.034 0.18887001,-0.14919 0.13241088,-0.28679 0.24662218,-0.40499 0.3924149,-0.40611 0.1141555,-8.6e-4 0.1239478,-0.009 0.1669233,-0.13767 0.025367,-0.0759 0.1153545,-0.21076 0.2025129,-0.3033 l 0.1568592,-0.16657 0.1259147,0.14214 c 0.069253,0.0782 0.1514296,0.18951 0.1826144,0.24742 0.031184,0.0579 0.074962,0.10528 0.097285,0.10528 0.022322,0 0.1232137,-0.0641 0.2242032,-0.1424 0.2551499,-0.19787 0.4707024,-0.26368 0.8024812,-0.24499 0.073924,0.003 0.075677,0.0105 0.060668,0.2203 -0.018902,0.2642 -0.1054117,0.46835 -0.2776124,0.65516 -0.071801,0.0779 -0.1305487,0.15755 -0.1305487,0.177 0,0.0194 0.075424,0.0848 0.1676113,0.14531 0.092186,0.0605 0.2081383,0.1437 0.2576717,0.18495 l 0.090061,0.075 -0.1219865,0.1237 c -0.067093,0.0681 -0.2010031,0.16002 -0.2975793,0.2044 -0.199175,0.0915 -0.2308085,0.12454 -0.1908675,0.19916 0.036351,0.068 -0.1489458,0.25209 -0.3518735,0.34972 -0.2420168,0.11644 -0.2399953,0.11454 -0.2300318,0.21521 0.00753,0.076 -0.014618,0.1162 -0.1102841,0.2002 -0.065833,0.0578 -0.1972437,0.14059 -0.2920236,0.18399 -0.1511967,0.0692 -0.2052261,0.0771 -0.4406271,0.0648 -0.23174967,-0.0122 -0.29885754,-0.0301 -0.49261315,-0.13125 l -0.22431318,-0.11718 -0.13823523,0.12743 c -0.0760293,0.0701 -0.14517698,0.12742 -0.15366134,0.12742 -0.008483,0 -0.0412387,-0.0284 -0.0727873,-0.0634 z m 1.47652803,-0.19404 c 0.074834,-0.0322 0.1454948,-0.0831 0.157023,-0.1132 0.05126,-0.13358 -0.38361,-0.32453 -0.6545159,-0.2874 -0.18637946,0.0257 -0.42075507,0.16129 -0.42075507,0.24369 0,0.12311 0.41715077,0.267 0.67044497,0.23125 0.061457,-0.009 0.1729686,-0.0421 0.247803,-0.0743 z m -0.95860832,-0.48265 c 0.0758147,-0.11469 0.0881196,-0.16528 0.0873291,-0.35916 -0.001169,-0.28626 -0.11548526,-0.54494 -0.24081925,-0.54494 -0.17348331,0 -0.28704584,0.48479 -0.18397596,0.7854 0.0980628,0.28599 0.20256607,0.32275 0.33746611,0.1187 z m 1.38140422,-0.0292 c 0.1856471,-0.0398 0.339672,-0.15275 0.3108314,-0.22791 -0.036872,-0.0961 -0.3571185,-0.22243 -0.5638097,-0.22243 -0.2049092,0 -0.4262288,0.0935 -0.4945342,0.2089 -0.041951,0.071 0.034352,0.1341 0.2645597,0.21918 0.1753201,0.0648 0.2652676,0.0689 0.4829528,0.0223 z m -0.8639771,-0.44935 c 0.1737466,-0.1865 0.2053776,-0.55083 0.070735,-0.81476 -0.1284641,-0.25181 -0.21204859,-0.2578 -0.32554745,-0.0234 -0.12087975,0.2497 -0.0886573,0.57245 0.0834178,0.83551 0.0586103,0.0896 0.0898824,0.0901 0.17139505,0.003 z m 1.5901381,-0.16903 c 0.176478,-0.0822 0.2038657,-0.13507 0.1117407,-0.21585 -0.2457795,-0.21549 -0.6736019,-0.23825 -0.9418152,-0.0501 -0.1378586,0.0967 -0.1129176,0.16431 0.095778,0.25956 0.2460525,0.11232 0.5019589,0.11452 0.7342967,0.006 z m -0.9395138,-0.52788 c 0.074142,-0.14449 0.087995,-0.20668 0.078224,-0.35117 -0.012903,-0.19079 -0.13139,-0.46543 -0.2216396,-0.51373 -0.078974,-0.0422 -0.1770734,0.0737 -0.237132,0.28028 -0.056866,0.19561 -0.026219,0.43452 0.083271,0.64914 0.094132,0.18452 0.1789426,0.16611 0.2972777,-0.0645 z m 0.6441989,-0.15798 c 0.1891937,-0.0821 0.3202273,-0.20649 0.4125549,-0.39177 0.1512249,-0.30347 0.097564,-0.40563 -0.1711463,-0.32584 -0.2829441,0.0841 -0.5846126,0.43186 -0.5846126,0.67407 0,0.14794 0.079282,0.158 0.343204,0.0435 z"
       id="path7219"
       inkscape:connector-curvature="0" />
    <g
       id="layer1-1"
       transform="matrix(0.58700842,0,0,0.58700842,1.7392457,119.14951)"
       style="fill:#000000;stroke-width:1.70355296">
      <path
         style="color:#000000;font-style:normal;font-variant:normal;font-weight:normal;font-stretch:normal;font-size:medium;line-height:normal;font-family:sans-serif;font-variant-ligatures:normal;font-variant-position:normal;font-variant-caps:normal;font-variant-numeric:normal;font-variant-alternates:normal;font-feature-settings:normal;text-indent:0;text-align:start;text-decoration:none;text-decoration-line:none;text-decoration-style:solid;text-decoration-color:#000000;letter-spacing:normal;word-spacing:normal;text-transform:none;writing-mode:lr-tb;direction:ltr;text-orientation:mixed;dominant-baseline:auto;baseline-shift:baseline;text-anchor:start;white-space:normal;shape-padding:0;clip-rule:nonzero;display:inline;overflow:visible;visibility:visible;opacity:1;isolation:auto;mix-blend-mode:normal;color-interpolation:sRGB;color-interpolation-filters:linearRGB;solid-color:#000000;solid-opacity:1;vector-effect:none;fill:#000000;fill-opacity:1;fill-rule:nonzero;stroke:none;stroke-width:0.90146357;stroke-linecap:butt;stroke-linejoin:miter;stroke-miterlimit:4;stroke-dasharray:none;stroke-dashoffset:0;stroke-opacity:1;color-rendering:auto;image-rendering:auto;shape-rendering:auto;text-rendering:auto;enable-background:accumulate"
         d="M 0.62430507,292.16017 V 295.604 H -1.4578422 v 0.65081 h 2.7329683 v -3.44383 h 1.0710931 v 1.66668 h 1.6138442 v 1.77715 H 6.3496096 V 295.604 h -1.738725 v -1.77475 H 2.9970403 v -1.66908 z"
         id="path6563"
         inkscape:connector-curvature="0" />
    </g>
    <path
       style="fill:#000000;stroke-width:1"
       d="m 2.7360592,296.16852 c 0.035985,-0.0266 0.079014,-0.0464 0.095561,-0.0439 0.028453,0.004 0.1012562,0.0628 0.1998654,0.16077 0.042618,0.0422 0.050276,0.0379 0.2271026,-0.13015 0.1006543,-0.0957 0.1837529,-0.17894 0.1846679,-0.18509 7.368e-4,-0.005 -0.080243,-0.0992 -0.1803661,-0.20667 -0.1001149,-0.10752 -0.1858963,-0.21293 -0.1906298,-0.23422 -0.01591,-0.0715 0.00672,-0.14361 0.055248,-0.17596 0.052777,-0.0351 0.1863359,-0.0256 0.2035889,0.0146 0.00599,0.0138 0.028459,0.0383 0.049986,0.0543 0.034199,0.0255 0.1469599,-0.0773 0.8921084,-0.81307 0.4959648,-0.48972 0.8786622,-0.84956 0.9143988,-0.85984 0.057272,-0.0164 0.1193571,-0.006 0.4656563,0.0774 l 0.1179261,0.0284 0.2688188,-0.25067 c 0.4071733,-0.37969 0.4103449,-0.37495 0.026669,0.0399 l -0.2462072,0.26615 0.042598,0.25476 c 0.023426,0.14012 0.037869,0.28652 0.032094,0.3253 -0.00841,0.0565 -0.1829859,0.24089 -0.871827,0.92127 l -0.8613178,0.85072 0.056621,0.0699 c 0.080472,0.0992 0.086441,0.16909 0.02003,0.23528 -0.099061,0.0988 -0.169502,0.0709 -0.3691134,-0.14606 -0.097862,-0.10638 -0.1875382,-0.19485 -0.1992942,-0.1966 -0.01811,-0.003 -0.2766334,0.23868 -0.346337,0.3234 -0.014924,0.0182 0.00872,0.0666 0.069195,0.14254 0.1016878,0.12757 0.1059961,0.18332 0.020346,0.26412 -0.09641,0.0909 -0.1470079,0.0616 -0.4406566,-0.25571 -0.1491273,-0.16113 -0.2817818,-0.31113 -0.2947946,-0.33331 -0.037247,-0.0635 -0.013228,-0.14534 0.058107,-0.19819 z m 1.2661739,-0.0595 c 0.00508,7.5e-4 0.024809,0.009 0.042796,0.0201 0.02401,0.0137 0.2623398,-0.20766 0.8700641,-0.80776 0.4603218,-0.45456 0.839611,-0.84429 0.8428512,-0.86604 0.00323,-0.0217 -0.00965,-0.1319 -0.028692,-0.24474 -0.040702,-0.24158 -0.049455,-0.24932 -0.328551,-0.29089 -0.1607045,-0.0239 -0.2000044,-0.0227 -0.2397059,0.0103 -0.026037,0.0213 -0.043089,0.049 -0.037808,0.0615 0.00526,0.0126 0.079361,0.0959 0.1645424,0.18593 0.1467729,0.15491 0.1751347,0.20713 0.124336,0.22895 -0.012216,0.005 -0.096829,-0.0721 -0.1880173,-0.17197 -0.1747009,-0.19129 -0.1974008,-0.19898 -0.2757157,-0.0937 -0.024291,0.0327 -0.00304,0.0658 0.1358708,0.21208 0.090572,0.0953 0.1627979,0.18582 0.1605287,0.20105 -0.00998,0.067 -0.060365,0.0359 -0.2143205,-0.1314 -0.090441,-0.0983 -0.1694681,-0.1795 -0.175613,-0.18042 -0.00636,-9.4e-4 -0.037769,0.0259 -0.070354,0.0598 l -0.059172,0.0615 0.1595191,0.17024 c 0.087744,0.0935 0.1607166,0.18409 0.1621791,0.201 0.00675,0.0776 -0.058967,0.0374 -0.2140684,-0.13126 l -0.1681788,-0.18284 -0.051111,0.0492 c -0.028143,0.0272 -0.052465,0.057 -0.054123,0.0659 -0.00176,0.01 0.095906,0.12352 0.2167832,0.25426 0.1208911,0.13069 0.2213029,0.24481 0.2231458,0.25359 0.002,0.008 -0.2203961,0.23363 -0.4938623,0.49971 -0.4231911,0.41178 -0.5536869,0.55846 -0.5034353,0.56594 z"
       id="path825"
       inkscape:connector-curvature="0" />
  </g>
</svg>
