<?xml version="1.0" encoding="utf-8"?>
<!-- Generator: Adobe Illustrator 22.0.0, SVG Export Plug-In . SVG Version: 6.00 Build 0)  -->
<svg version="1.1" id="Layer_1" xmlns="http://www.w3.org/2000/svg" xmlns:xlink="http://www.w3.org/1999/xlink" x="0px" y="0px"
	 viewBox="0 0 841.9 595.3" style="enable-background:new 0 0 841.9 595.3;" xml:space="preserve">
<style type="text/css">
	.st0{clip-path:url(#SVGID_2_);fill:#39BAD8;}
	.st1{fill:url(#SVGID_3_);}
	.st2{clip-path:url(#SVGID_5_);fill:#39BAD8;}
	.st3{fill:url(#SVGID_6_);}
	.st4{fill:#484495;}
	.st5{fill:url(#SVGID_7_);}
</style>
<g>
	<defs>
		<rect id="SVGID_1_" width="841.9" height="595.3"/>
	</defs>
	<clipPath id="SVGID_2_">
		<use xlink:href="#SVGID_1_"  style="overflow:visible;"/>
	</clipPath>
	<path class="st0" d="M-52,559.2L-52,559.2l0,36.1h2.4v-36.1h34.9v36.1h2.4v-36.1h36.1v36.1h2.4v-36.1h33.7v36.1h2.4v-36.1h36.1
		v36.1h2.4v-36.1h34.9v36.1h2.4v-36.1h36.1v36.1h0h2.4v-36.1h36.1h0v36.1h2.4v-36.1h34.9v36.1h2.4v-36.1h36.1v36.1h2.4v-36.1h33.7
		v36.1h2.4v-36.1H363v36.1h2.4v-36.1h34.9v36.1h2.4v-36.1h36.1v36.1h0h2.4v-36.1h36.1h0v36.1h2.4v-36.1h34.9v36.1h2.4v-36.1H553
		v36.1h2.4v-36.1h33.7v36.1h2.4v-36.1h36.1v36.1h2.4v-36.1h34.9v36.1h2.4v-36.1h36.1v36.1h0h2.4v-36.1h36.1h0v36.1h2.4v-36.1h34.9
		v36.1h2.4v-36.1h36.1v36.1h2.4v-36.1h36.1v-2.4H820v-36.1v0h36.1v-2.4H820v-34.9h36.1V481H820v-36.1h36.1v-2.4H820v-33.7h36.1v-2.4
		H820v-36.1v0h36.1V368H820v-34.9h36.1v-2.4H820v-36.1h36.1v-2.4H820v-36.1v0h36.1v-2.4H820v-34.9h36.1v-2.4H820v-36.1h36.1V178H820
		v-33.7h36.1v-2.4H820v-36.1v0h36.1v-2.4H820V68.5h36.1v-2.4H820V30h36.1v-2.4H820V-8.5h-2.4v36.1h-36.1V-8.5h-2.4v36.1h-34.9V-8.5
		h-2.4v36.1h0h-36.1V-8.5h-2.4h0v36.1h-36.1V-8.5h-2.4v36.1H630V-8.5h-2.4v36.1h-36.1V-8.5h-2.4v36.1h-33.7V-8.5H553v36.1h-36.1
		V-8.5h-2.4v36.1h-34.9V-8.5h-2.4v36.1h0h-36.1V-8.5h-2.4h0v36.1h-36.1V-8.5h-2.4v36.1h-34.9V-8.5H363v36.1h-36.1V-8.5h-2.4v36.1
		h-33.7V-8.5h-2.4v36.1h-36.1V-8.5h-2.4v36.1H215V-8.5h-2.4v36.1h0h-36.1V-8.5h-2.4h0v36.1h-36.1V-8.5h-2.4v36.1h-34.9V-8.5h-2.4
		v36.1H62.3V-8.5h-2.4v36.1H26.2V-8.5h-2.4v36.1h-36.1V-8.5h-2.4v36.1h-34.9V-8.5H-52v36.1h0 M781.5,30h36.1v36.1h-36.1V30z
		 M781.5,68.5h36.1v34.9h-36.1V68.5z M817.6,178h-36.1v-33.7h36.1V178z M781.5,333.1h36.1V368h-36.1V333.1z M817.6,442.5h-36.1
		v-33.7h36.1V442.5z M703.3,481h-36.1v-36.1h36.1V481z M703.3,518.3h-36.1v-34.9h36.1V518.3z M589.1,481h-33.7v-36.1h33.7V481z
		 M589.1,518.3h-33.7v-34.9h33.7V518.3z M438.7,481h-36.1v-36.1h36.1V481z M438.7,518.3h-36.1v-34.9h36.1V518.3z M324.5,481h-33.7
		v-36.1h33.7V481z M324.5,518.3h-33.7v-34.9h33.7V518.3z M174.1,481h-36.1v-36.1h36.1V481z M174.1,518.3h-36.1v-34.9h36.1V518.3z
		 M59.9,481H26.2v-36.1h33.7V481z M59.9,518.3H26.2v-34.9h33.7V518.3z M26.2,105.8L26.2,105.8l33.7,0v0v36.1H26.2V105.8z M26.2,68.5
		h33.7v34.9H26.2V68.5z M290.8,105.8L290.8,105.8l33.7,0v0v36.1h-33.7V105.8z M290.8,68.5h33.7v34.9h-33.7V68.5z M555.4,105.8
		L555.4,105.8l33.7,0v0v36.1h-33.7V105.8z M555.4,68.5h33.7v34.9h-33.7V68.5z M744.2,216.4v-36.1h34.9v36.1H744.2z M779.1,218.8
		v34.9h-34.9v-34.9H779.1z M744.2,178v-33.7h34.9V178H744.2z M744.2,333.1h34.9V368h-34.9V333.1z M589.1,442.5h-33.7v-33.7h33.7
		V442.5z M553,481h-36.1v-36.1H553V481z M324.5,442.5h-33.7v-33.7h33.7V442.5z M288.4,481h-36.1v-36.1h36.1V481z M59.9,442.5H26.2
		v-33.7h33.7V442.5z M23.8,481h-36.1v-36.1h36.1V481z M62.3,144.3h36.1V178H62.3V144.3z M326.9,144.3H363V178h-36.1V144.3z
		 M591.5,144.3h36.1V178h-36.1V144.3z M741.8,216.4h-36.1v-36.1h36.1h0L741.8,216.4L741.8,216.4z M741.8,218.8v34.9h0h-36.1v-34.9
		H741.8L741.8,218.8z M705.7,333.1h36.1h0V368h0h-36.1V333.1z M-52,333.1L-52,333.1l0,34.9h0 M-52,294.6L-52,294.6l0,36.1h0
		 M-49.6,333.1h34.9V368h-34.9V333.1z M-49.6,330.7v-36.1h34.9v36.1H-49.6z M26.2,256.1L26.2,256.1l33.7,0v0v36.1H26.2V256.1z
		 M26.2,218.8h33.7v34.9H26.2V218.8z M62.3,256.1L62.3,256.1l36.1,0v0v36.1H62.3V256.1z M98.4,253.7H62.3v-34.9h36.1V253.7z
		 M59.9,294.6v36.1H26.2v-36.1H59.9z M23.8,330.7h-36.1v-36.1h36.1V330.7z M-12.3,333.1h36.1V368h-36.1V333.1z M26.2,333.1h33.7V368
		H26.2V333.1z M62.3,333.1h36.1V368H62.3V333.1z M62.3,330.7v-36.1h36.1v36.1H62.3z M100.8,333.1h34.9V368h-34.9V333.1z
		 M100.8,330.7v-36.1h34.9v36.1H100.8z M138.1,333.1h36.1V368h-36.1V333.1z M138.1,330.7v-36.1h36.1v36.1H138.1z M176.5,333.1h36.1
		h0V368h0h-36.1V333.1z M212.6,330.7h-36.1v-36.1h36.1h0L212.6,330.7L212.6,330.7z M215,333.1h34.9V368H215V333.1z M215,330.7v-36.1
		h34.9v36.1H215z M290.8,256.1L290.8,256.1l33.7,0v0v36.1h-33.7V256.1z M290.8,218.8h33.7v34.9h-33.7V218.8z M326.9,256.1
		L326.9,256.1l36.1,0v0v36.1h-36.1V256.1z M363,253.7h-36.1v-34.9H363V253.7z M324.5,294.6v36.1h-33.7v-36.1H324.5z M288.4,330.7
		h-36.1v-36.1h36.1V330.7z M252.3,333.1h36.1V368h-36.1V333.1z M290.8,333.1h33.7V368h-33.7V333.1z M326.9,333.1H363V368h-36.1
		V333.1z M326.9,330.7v-36.1H363v36.1H326.9z M365.4,333.1h34.9V368h-34.9V333.1z M365.4,330.7v-36.1h34.9v36.1H365.4z M402.6,333.1
		h36.1V368h-36.1V333.1z M402.6,330.7v-36.1h36.1v36.1H402.6z M441.1,333.1h36.1h0V368h0h-36.1V333.1z M477.2,330.7h-36.1v-36.1
		h36.1h0L477.2,330.7L477.2,330.7z M479.6,333.1h34.9V368h-34.9V333.1z M479.6,330.7v-36.1h34.9v36.1H479.6z M555.4,256.1
		L555.4,256.1l33.7,0v0v36.1h-33.7V256.1z M555.4,218.8h33.7v34.9h-33.7V218.8z M591.5,256.1L591.5,256.1l36.1,0v0v36.1h-36.1V256.1
		z M627.5,253.7h-36.1v-34.9h36.1V253.7z M589.1,294.6v36.1h-33.7v-36.1H589.1z M553,330.7h-36.1v-36.1H553V330.7z M516.9,333.1H553
		V368h-36.1V333.1z M555.4,333.1h33.7V368h-33.7V333.1z M591.5,333.1h36.1V368h-36.1V333.1z M591.5,330.7v-36.1h36.1v36.1H591.5z
		 M630,333.1h34.9V368H630V333.1z M630,330.7v-36.1h34.9v36.1H630z M667.2,333.1h36.1V368h-36.1V333.1z M667.2,330.7v-36.1h36.1
		v36.1H667.2z M703.3,216.4h-36.1v-36.1h36.1V216.4z M703.3,218.8v34.9h-36.1v-34.9H703.3z M703.3,256.1L703.3,256.1v36.1h-36.1
		v-36.1v0H703.3z M664.8,256.1v36.1H630v-36.1v0L664.8,256.1L664.8,256.1z M630,253.7v-34.9h34.9v34.9H630z M664.8,216.4H630v-36.1
		h34.9V216.4z M627.5,180.4v36.1h-36.1v-36.1H627.5z M589.1,216.4h-33.7v-36.1h33.7V216.4z M553,216.4h-36.1v-36.1H553V216.4z
		 M553,218.8v34.9h-36.1v-34.9H553z M553,256.1L553,256.1v36.1h-36.1v-36.1v0H553z M514.5,216.4h-34.9v-36.1h34.9V216.4z
		 M514.5,218.8v34.9h-34.9v-34.9H514.5z M514.5,256.1L514.5,256.1v36.1h-34.9v-36.1v0H514.5z M477.2,256.1v36.1h0h-36.1v-36.1v0
		L477.2,256.1L477.2,256.1L477.2,256.1z M441.1,253.7v-34.9h36.1h0v34.9h0H441.1z M477.2,216.4L477.2,216.4h-36.1v-36.1h36.1h0
		V216.4z M438.7,216.4h-36.1v-36.1h36.1V216.4z M438.7,218.8v34.9h-36.1v-34.9H438.7z M438.7,256.1L438.7,256.1v36.1h-36.1v-36.1v0
		H438.7z M400.2,256.1v36.1h-34.9v-36.1v0L400.2,256.1L400.2,256.1z M365.4,253.7v-34.9h34.9v34.9H365.4z M400.2,216.4h-34.9v-36.1
		h34.9V216.4z M363,180.4v36.1h-36.1v-36.1H363z M324.5,216.4h-33.7v-36.1h33.7V216.4z M288.4,216.4h-36.1v-36.1h36.1V216.4z
		 M288.4,218.8v34.9h-36.1v-34.9H288.4z M288.4,256.1L288.4,256.1v36.1h-36.1v-36.1v0H288.4z M249.9,216.4H215v-36.1h34.9V216.4z
		 M249.9,218.8v34.9H215v-34.9H249.9z M249.9,256.1L249.9,256.1v36.1H215v-36.1v0H249.9z M212.6,256.1v36.1h0h-36.1v-36.1v0
		L212.6,256.1L212.6,256.1L212.6,256.1z M176.5,253.7v-34.9h36.1h0v34.9h0H176.5z M212.6,216.4L212.6,216.4h-36.1v-36.1h36.1h0
		V216.4z M174.1,216.4h-36.1v-36.1h36.1V216.4z M174.1,218.8v34.9h-36.1v-34.9H174.1z M174.1,256.1L174.1,256.1v36.1h-36.1v-36.1v0
		H174.1z M135.7,256.1v36.1h-34.9v-36.1v0L135.7,256.1L135.7,256.1z M100.8,253.7v-34.9h34.9v34.9H100.8z M135.7,216.4h-34.9v-36.1
		h34.9V216.4z M98.4,180.4v36.1H62.3v-36.1H98.4z M59.9,216.4H26.2v-36.1h33.7V216.4z M23.8,216.4h-36.1v-36.1h36.1V216.4z
		 M23.8,218.8v34.9h-36.1v-34.9H23.8z M23.8,256.1L23.8,256.1v36.1h-36.1v-36.1v0H23.8z M-14.7,216.4h-34.9v-36.1h34.9V216.4z
		 M-14.7,218.8v34.9h-34.9v-34.9H-14.7z M-14.7,256.1L-14.7,256.1v36.1h-34.9v-36.1v0H-14.7z M-52,256.1L-52,256.1L-52,256.1l0,36.1
		h0 M-52,218.8L-52,218.8l0,34.9h0 M-52,180.4L-52,180.4l0,36.1h0 M-52,370.4L-52,370.4L-52,370.4l0,36.1h0 M-49.6,370.4
		L-49.6,370.4l34.9,0v0v36.1h-34.9V370.4z M-12.3,370.4L-12.3,370.4l36.1,0v0v36.1h-36.1V370.4z M-12.3,408.9h36.1v33.7h-36.1V408.9
		z M26.2,406.5v-36.1v0h33.7v0v36.1H26.2z M62.3,370.4L62.3,370.4l36.1,0v0v36.1H62.3V370.4z M100.8,370.4L100.8,370.4l34.9,0v0
		v36.1h-34.9V370.4z M138.1,370.4L138.1,370.4l36.1,0v0v36.1h-36.1V370.4z M176.5,370.4L176.5,370.4l36.1,0h0v0v36.1h0h-36.1V370.4z
		 M215,370.4L215,370.4l34.9,0v0v36.1H215V370.4z M252.3,370.4L252.3,370.4l36.1,0v0v36.1h-36.1V370.4z M252.3,408.9h36.1v33.7
		h-36.1V408.9z M290.8,406.5v-36.1v0h33.7v0v36.1H290.8z M326.9,370.4L326.9,370.4l36.1,0v0v36.1h-36.1V370.4z M365.4,370.4
		L365.4,370.4l34.9,0v0v36.1h-34.9V370.4z M402.6,370.4L402.6,370.4l36.1,0v0v36.1h-36.1V370.4z M441.1,370.4L441.1,370.4l36.1,0h0
		v0v36.1h0h-36.1V370.4z M479.6,370.4L479.6,370.4l34.9,0v0v36.1h-34.9V370.4z M516.9,370.4L516.9,370.4l36.1,0v0v36.1h-36.1V370.4z
		 M516.9,408.9H553v33.7h-36.1V408.9z M555.4,406.5v-36.1v0h33.7v0v36.1H555.4z M591.5,370.4L591.5,370.4l36.1,0v0v36.1h-36.1V370.4
		z M630,370.4L630,370.4l34.9,0v0v36.1H630V370.4z M667.2,370.4L667.2,370.4l36.1,0v0v36.1h-36.1V370.4z M705.7,370.4L705.7,370.4
		l36.1,0h0v0v36.1h0h-36.1V370.4z M741.8,330.7h-36.1v-36.1h36.1h0L741.8,330.7L741.8,330.7z M741.8,256.1v36.1h0h-36.1v-36.1v0
		L741.8,256.1L741.8,256.1L741.8,256.1z M741.8,178L741.8,178h-36.1v-33.7h36.1h0V178z M703.3,178h-36.1v-33.7h36.1V178z M664.8,178
		H630v-33.7h34.9V178z M591.5,141.9v-36.1v0h36.1v0v36.1H591.5z M627.5,103.4h-36.1V68.5h36.1V103.4z M589.1,144.3V178h-33.7v-33.7
		H589.1z M553,178h-36.1v-33.7H553V178z M514.5,178h-34.9v-33.7h34.9V178z M477.2,178L477.2,178h-36.1v-33.7h36.1h0V178z M438.7,178
		h-36.1v-33.7h36.1V178z M400.2,178h-34.9v-33.7h34.9V178z M326.9,141.9v-36.1v0H363v0v36.1H326.9z M363,103.4h-36.1V68.5H363V103.4
		z M324.5,144.3V178h-33.7v-33.7H324.5z M288.4,178h-36.1v-33.7h36.1V178z M249.9,178H215v-33.7h34.9V178z M212.6,178L212.6,178
		h-36.1v-33.7h36.1h0V178z M174.1,178h-36.1v-33.7h36.1V178z M135.7,178h-34.9v-33.7h34.9V178z M62.3,141.9v-36.1v0h36.1v0v36.1
		H62.3z M98.4,103.4H62.3V68.5h36.1V103.4z M59.9,144.3V178H26.2v-33.7H59.9z M23.8,178h-36.1v-33.7h36.1V178z M-14.7,178h-34.9
		v-33.7h34.9V178z M-52,144.3L-52,144.3l0,33.7h0 M-52,408.9L-52,408.9l0,33.7h0 M-49.6,408.9h34.9v33.7h-34.9V408.9z M-12.3,483.4
		h36.1v34.9h-36.1V483.4z M62.3,408.9h36.1v33.7H62.3V408.9z M100.8,408.9h34.9v33.7h-34.9V408.9z M138.1,442.5v-33.7h36.1v33.7
		H138.1z M176.5,408.9h36.1h0v33.7h0h-36.1V408.9z M215,408.9h34.9v33.7H215V408.9z M252.3,483.4h36.1v34.9h-36.1V483.4z
		 M326.9,408.9H363v33.7h-36.1V408.9z M365.4,408.9h34.9v33.7h-34.9V408.9z M402.6,442.5v-33.7h36.1v33.7H402.6z M441.1,408.9h36.1
		h0v33.7h0h-36.1V408.9z M479.6,408.9h34.9v33.7h-34.9V408.9z M516.9,483.4H553v34.9h-36.1V483.4z M591.5,408.9h36.1v33.7h-36.1
		V408.9z M630,408.9h34.9v33.7H630V408.9z M667.2,442.5v-33.7h36.1v33.7H667.2z M705.7,408.9h36.1h0v33.7h0h-36.1V408.9z
		 M744.2,408.9h34.9v33.7h-34.9V408.9z M744.2,406.5v-36.1v0h34.9v0v36.1H744.2z M744.2,330.7v-36.1h34.9v36.1H744.2z M779.1,256.1
		v36.1h-34.9v-36.1v0L779.1,256.1L779.1,256.1z M781.5,218.8h36.1v34.9h-36.1V218.8z M781.5,216.4v-36.1h36.1v36.1H781.5z M744.2,30
		h34.9v36.1h-34.9V30z M744.2,68.5h34.9v34.9h-34.9V68.5z M744.2,105.8L744.2,105.8l34.9,0v0v36.1h-34.9V105.8z M705.7,30h36.1h0
		v36.1h0h-36.1V30z M705.7,68.5h36.1h0v34.9h0h-36.1V68.5z M705.7,105.8L705.7,105.8l36.1,0h0v0v36.1h0h-36.1V105.8z M667.2,30h36.1
		v36.1h-36.1V30z M667.2,68.5h36.1v34.9h-36.1V68.5z M667.2,105.8L667.2,105.8l36.1,0v0v36.1h-36.1V105.8z M630,30h34.9v36.1H630V30
		z M630,68.5h34.9v34.9H630V68.5z M630,105.8L630,105.8l34.9,0v0v36.1H630V105.8z M627.5,30v36.1h-36.1V30H627.5z M589.1,30v36.1
		h-33.7V30H589.1z M516.9,30H553v36.1h-36.1V30z M516.9,68.5H553v34.9h-36.1V68.5z M516.9,105.8L516.9,105.8l36.1,0v0v36.1h-36.1
		V105.8z M479.6,30h34.9v36.1h-34.9V30z M479.6,68.5h34.9v34.9h-34.9V68.5z M479.6,105.8L479.6,105.8l34.9,0v0v36.1h-34.9V105.8z
		 M441.1,30h36.1h0v36.1h0h-36.1V30z M441.1,68.5h36.1h0v34.9h0h-36.1V68.5z M441.1,105.8L441.1,105.8l36.1,0h0v0v36.1h0h-36.1
		V105.8z M402.6,30h36.1v36.1h-36.1V30z M402.6,68.5h36.1v34.9h-36.1V68.5z M402.6,105.8L402.6,105.8l36.1,0v0v36.1h-36.1V105.8z
		 M365.4,30h34.9v36.1h-34.9V30z M365.4,68.5h34.9v34.9h-34.9V68.5z M365.4,105.8L365.4,105.8l34.9,0v0v36.1h-34.9V105.8z M363,30
		v36.1h-36.1V30H363z M324.5,30v36.1h-33.7V30H324.5z M252.3,30h36.1v36.1h-36.1V30z M252.3,68.5h36.1v34.9h-36.1V68.5z
		 M252.3,105.8L252.3,105.8l36.1,0v0v36.1h-36.1V105.8z M215,30h34.9v36.1H215V30z M215,68.5h34.9v34.9H215V68.5z M215,105.8
		L215,105.8l34.9,0v0v36.1H215V105.8z M176.5,30h36.1h0v36.1h0h-36.1V30z M176.5,68.5h36.1h0v34.9h0h-36.1V68.5z M176.5,105.8
		L176.5,105.8l36.1,0h0v0v36.1h0h-36.1V105.8z M138.1,30h36.1v36.1h-36.1V30z M138.1,68.5h36.1v34.9h-36.1V68.5z M138.1,105.8
		L138.1,105.8l36.1,0v0v36.1h-36.1V105.8z M100.8,30h34.9v36.1h-34.9V30z M100.8,68.5h34.9v34.9h-34.9V68.5z M100.8,105.8
		L100.8,105.8l34.9,0v0v36.1h-34.9V105.8z M98.4,30v36.1H62.3V30H98.4z M59.9,30v36.1H26.2V30H59.9z M-12.3,30h36.1v36.1h-36.1V30z
		 M-12.3,68.5h36.1v34.9h-36.1V68.5z M-12.3,105.8L-12.3,105.8l36.1,0v0v36.1h-36.1V105.8z M-49.6,30h34.9v36.1h-34.9V30z
		 M-49.6,68.5h34.9v34.9h-34.9V68.5z M-49.6,105.8L-49.6,105.8l34.9,0v0v36.1h-34.9V105.8z M-52,30L-52,30l0,36.1h0 M-52,68.5
		L-52,68.5l0,34.9h0 M-52,105.8L-52,105.8L-52,105.8l0,36.1h0 M-52,520.7L-52,520.7L-52,520.7l0,36.1h0 M-52,483.4L-52,483.4l0,34.9
		h0 M-52,444.9L-52,444.9l0,36.1h0 M-14.7,520.7v36.1h-34.9v-36.1v0L-14.7,520.7L-14.7,520.7z M-14.7,518.3h-34.9v-34.9h34.9V518.3z
		 M-14.7,481h-34.9v-36.1h34.9V481z M-12.3,556.8v-36.1v0h36.1v0v36.1H-12.3z M26.2,556.8v-36.1v0h33.7v0v36.1H26.2z M98.4,520.7
		v36.1H62.3v-36.1v0L98.4,520.7L98.4,520.7z M98.4,518.3H62.3v-34.9h36.1V518.3z M98.4,481H62.3v-36.1h36.1V481z M135.7,520.7v36.1
		h-34.9v-36.1v0L135.7,520.7L135.7,520.7z M135.7,518.3h-34.9v-34.9h34.9V518.3z M135.7,481h-34.9v-36.1h34.9V481z M138.1,556.8
		v-36.1v0h36.1v0v36.1H138.1z M212.6,520.7v36.1h0h-36.1v-36.1v0L212.6,520.7L212.6,520.7L212.6,520.7z M212.6,518.3L212.6,518.3
		h-36.1v-34.9h36.1h0V518.3z M212.6,481L212.6,481h-36.1v-36.1h36.1h0V481z M249.9,520.7v36.1H215v-36.1v0L249.9,520.7L249.9,520.7z
		 M249.9,518.3H215v-34.9h34.9V518.3z M249.9,481H215v-36.1h34.9V481z M252.3,556.8v-36.1v0h36.1v0v36.1H252.3z M290.8,556.8v-36.1
		v0h33.7v0v36.1H290.8z M363,520.7v36.1h-36.1v-36.1v0L363,520.7L363,520.7z M363,518.3h-36.1v-34.9H363V518.3z M363,481h-36.1
		v-36.1H363V481z M400.2,520.7v36.1h-34.9v-36.1v0L400.2,520.7L400.2,520.7z M400.2,518.3h-34.9v-34.9h34.9V518.3z M400.2,481h-34.9
		v-36.1h34.9V481z M402.6,556.8v-36.1v0h36.1v0v36.1H402.6z M477.2,520.7v36.1h0h-36.1v-36.1v0L477.2,520.7L477.2,520.7L477.2,520.7
		z M477.2,518.3L477.2,518.3h-36.1v-34.9h36.1h0V518.3z M477.2,481L477.2,481h-36.1v-36.1h36.1h0V481z M514.5,520.7v36.1h-34.9
		v-36.1v0L514.5,520.7L514.5,520.7z M514.5,518.3h-34.9v-34.9h34.9V518.3z M514.5,481h-34.9v-36.1h34.9V481z M516.9,556.8v-36.1v0
		H553v0v36.1H516.9z M555.4,556.8v-36.1v0h33.7v0v36.1H555.4z M627.5,520.7v36.1h-36.1v-36.1v0L627.5,520.7L627.5,520.7z
		 M627.5,518.3h-36.1v-34.9h36.1V518.3z M627.5,481h-36.1v-36.1h36.1V481z M664.8,520.7v36.1H630v-36.1v0L664.8,520.7L664.8,520.7z
		 M664.8,518.3H630v-34.9h34.9V518.3z M664.8,481H630v-36.1h34.9V481z M667.2,556.8v-36.1v0h36.1v0v36.1H667.2z M741.8,520.7v36.1h0
		h-36.1v-36.1v0L741.8,520.7L741.8,520.7L741.8,520.7z M741.8,518.3L741.8,518.3h-36.1v-34.9h36.1h0V518.3z M741.8,481L741.8,481
		h-36.1v-36.1h36.1h0V481z M779.1,520.7v36.1h-34.9v-36.1v0L779.1,520.7L779.1,520.7z M779.1,518.3h-34.9v-34.9h34.9V518.3z
		 M779.1,481h-34.9v-36.1h34.9V481z M817.6,520.7v36.1h-36.1v-36.1v0L817.6,520.7L817.6,520.7z M817.6,518.3h-36.1v-34.9h36.1V518.3
		z M817.6,481h-36.1v-36.1h36.1V481z M781.5,406.5v-36.1v0h36.1v0v36.1H781.5z M781.5,330.7v-36.1h36.1v36.1H781.5z M817.6,256.1
		v36.1h-36.1v-36.1v0L817.6,256.1L817.6,256.1z M781.5,141.9v-36.1v0h36.1v0v36.1H781.5z"/>
</g>
<g>
	<g>
		<defs>
			<rect id="SVGID_4_" x="861.9" width="841.9" height="595.3"/>
		</defs>
		<clipPath id="SVGID_3_">
			<use xlink:href="#SVGID_4_"  style="overflow:visible;"/>
		</clipPath>
		<path style="clip-path:url(#SVGID_3_);fill:#39BAD8;" d="M809.9,559.2L809.9,559.2l0,36.1h2.4v-36.1h34.9v36.1h2.4v-36.1h36.1
			v36.1h2.4v-36.1h33.7v36.1h2.4v-36.1h36.1v36.1h2.4v-36.1h34.9v36.1h2.4v-36.1h36.1v36.1l0,0h2.4v-36.1h36.1l0,0v36.1h2.4v-36.1
			h34.9v36.1h2.4v-36.1h36.1v36.1h2.4v-36.1h33.7v36.1h2.4v-36.1h36.1v36.1h2.4v-36.1h34.9v36.1h2.4v-36.1h36.1v36.1h0h2.4v-36.1
			h36.1l0,0v36.1h2.4v-36.1h34.9v36.1h2.4v-36.1h36.1v36.1h2.4v-36.1h33.7v36.1h2.4v-36.1h36.1v36.1h2.4v-36.1h34.9v36.1h2.4v-36.1
			h36.1v36.1h0h2.4v-36.1h36.1h0v36.1h2.4v-36.1h34.9v36.1h2.4v-36.1h36.1v36.1h2.4v-36.1h36.1v-2.4h-36.1v-36.1v0h36.1v-2.4h-36.1
			v-34.9h36.1V481h-36.1v-36.1h36.1v-2.4h-36.1v-33.7h36.1v-2.4h-36.1v-36.1v0h36.1V368h-36.1v-34.9h36.1v-2.4h-36.1v-36.1h36.1
			v-2.4h-36.1v-36.1v0h36.1v-2.4h-36.1v-34.9h36.1v-2.4h-36.1v-36.1h36.1V178h-36.1v-33.7h36.1v-2.4h-36.1v-36.1v0h36.1v-2.4h-36.1
			V68.5h36.1v-2.4h-36.1V30h36.1v-2.4h-36.1V-8.5h-2.4v36.1h-36.1V-8.5h-2.4v36.1h-34.9V-8.5h-2.4v36.1h0h-36.1V-8.5h-2.4h0v36.1
			h-36.1V-8.5h-2.4v36.1h-34.9V-8.5h-2.4v36.1h-36.1V-8.5h-2.4v36.1h-33.7V-8.5h-2.4v36.1h-36.1V-8.5h-2.4v36.1h-34.9V-8.5h-2.4
			v36.1l0,0H1303V-8.5h-2.4h0v36.1h-36.1V-8.5h-2.4v36.1h-34.9V-8.5h-2.4v36.1h-36.1V-8.5h-2.4v36.1h-33.7V-8.5h-2.4v36.1h-36.1
			V-8.5h-2.4v36.1h-34.9V-8.5h-2.4v36.1l0,0h-36.1V-8.5h-2.4l0,0v36.1h-36.1V-8.5h-2.4v36.1h-34.9V-8.5h-2.4v36.1h-36.1V-8.5h-2.4
			v36.1h-33.7V-8.5h-2.4v36.1h-36.1V-8.5h-2.4v36.1h-34.9V-8.5h-2.4v36.1h0 M1643.4,30h36.1v36.1h-36.1V30z M1643.4,68.5h36.1v34.9
			h-36.1V68.5z M1679.5,178h-36.1v-33.7h36.1V178z M1643.4,333.1h36.1V368h-36.1V333.1z M1679.5,442.5h-36.1v-33.7h36.1V442.5z
			 M1565.2,481h-36.1v-36.1h36.1V481z M1565.2,518.3h-36.1v-34.9h36.1V518.3z M1450.9,481h-33.7v-36.1h33.7V481z M1450.9,518.3
			h-33.7v-34.9h33.7V518.3z M1300.6,481h-36.1v-36.1h36.1V481z M1300.6,518.3h-36.1v-34.9h36.1V518.3z M1186.4,481h-33.7v-36.1h33.7
			V481z M1186.4,518.3h-33.7v-34.9h33.7V518.3z M1036,481h-36.1v-36.1h36.1V481z M1036,518.3h-36.1v-34.9h36.1V518.3z M921.8,481
			h-33.7v-36.1h33.7V481z M921.8,518.3h-33.7v-34.9h33.7V518.3z M888.1,105.8L888.1,105.8l33.7,0v0v36.1h-33.7V105.8z M888.1,68.5
			h33.7v34.9h-33.7V68.5z M1152.7,105.8L1152.7,105.8l33.7,0v0v36.1h-33.7V105.8z M1152.7,68.5h33.7v34.9h-33.7V68.5z M1417.3,105.8
			L1417.3,105.8l33.7,0v0v36.1h-33.7V105.8z M1417.3,68.5h33.7v34.9h-33.7V68.5z M1606.1,216.4v-36.1h34.9v36.1H1606.1z M1641,218.8
			v34.9h-34.9v-34.9H1641z M1606.1,178v-33.7h34.9V178H1606.1z M1606.1,333.1h34.9V368h-34.9V333.1z M1450.9,442.5h-33.7v-33.7h33.7
			V442.5z M1414.9,481h-36.1v-36.1h36.1V481z M1186.4,442.5h-33.7v-33.7h33.7V442.5z M1150.3,481h-36.1v-36.1h36.1V481z
			 M921.8,442.5h-33.7v-33.7h33.7V442.5z M885.7,481h-36.1v-36.1h36.1V481z M924.2,144.3h36.1V178h-36.1V144.3z M1188.8,144.3h36.1
			V178h-36.1V144.3z M1453.4,144.3h36.1V178h-36.1V144.3z M1603.7,216.4h-36.1v-36.1h36.1h0L1603.7,216.4L1603.7,216.4z
			 M1603.7,218.8v34.9h0h-36.1v-34.9H1603.7L1603.7,218.8z M1567.6,333.1h36.1h0V368h0h-36.1V333.1z M809.9,333.1L809.9,333.1
			l0,34.9h0 M809.9,294.6L809.9,294.6l0,36.1h0 M812.3,333.1h34.9V368h-34.9V333.1z M812.3,330.7v-36.1h34.9v36.1H812.3z
			 M888.1,256.1L888.1,256.1l33.7,0v0v36.1h-33.7V256.1z M888.1,218.8h33.7v34.9h-33.7V218.8z M924.2,256.1L924.2,256.1l36.1,0v0
			v36.1h-36.1V256.1z M960.3,253.7h-36.1v-34.9h36.1V253.7z M921.8,294.6v36.1h-33.7v-36.1H921.8z M885.7,330.7h-36.1v-36.1h36.1
			V330.7z M849.6,333.1h36.1V368h-36.1V333.1z M888.1,333.1h33.7V368h-33.7V333.1z M924.2,333.1h36.1V368h-36.1V333.1z M924.2,330.7
			v-36.1h36.1v36.1H924.2z M962.7,333.1h34.9V368h-34.9V333.1z M962.7,330.7v-36.1h34.9v36.1H962.7z M999.9,333.1h36.1V368h-36.1
			V333.1z M999.9,330.7v-36.1h36.1v36.1H999.9z M1038.4,333.1h36.1l0,0V368l0,0h-36.1V333.1z M1074.5,330.7h-36.1v-36.1h36.1l0,0
			V330.7L1074.5,330.7z M1076.9,333.1h34.9V368h-34.9V333.1z M1076.9,330.7v-36.1h34.9v36.1H1076.9z M1152.7,256.1L1152.7,256.1
			l33.7,0v0v36.1h-33.7V256.1z M1152.7,218.8h33.7v34.9h-33.7V218.8z M1188.8,256.1L1188.8,256.1l36.1,0v0v36.1h-36.1V256.1z
			 M1224.8,253.7h-36.1v-34.9h36.1V253.7z M1186.4,294.6v36.1h-33.7v-36.1H1186.4z M1150.3,330.7h-36.1v-36.1h36.1V330.7z
			 M1114.2,333.1h36.1V368h-36.1V333.1z M1152.7,333.1h33.7V368h-33.7V333.1z M1188.8,333.1h36.1V368h-36.1V333.1z M1188.8,330.7
			v-36.1h36.1v36.1H1188.8z M1227.3,333.1h34.9V368h-34.9V333.1z M1227.3,330.7v-36.1h34.9v36.1H1227.3z M1264.5,333.1h36.1V368
			h-36.1V333.1z M1264.5,330.7v-36.1h36.1v36.1H1264.5z M1303,333.1h36.1l0,0V368l0,0H1303V333.1z M1339.1,330.7H1303v-36.1h36.1
			l0,0V330.7L1339.1,330.7z M1341.5,333.1h34.9V368h-34.9V333.1z M1341.5,330.7v-36.1h34.9v36.1H1341.5z M1417.3,256.1L1417.3,256.1
			l33.7,0v0v36.1h-33.7V256.1z M1417.3,218.8h33.7v34.9h-33.7V218.8z M1453.4,256.1L1453.4,256.1l36.1,0v0v36.1h-36.1V256.1z
			 M1489.4,253.7h-36.1v-34.9h36.1V253.7z M1450.9,294.6v36.1h-33.7v-36.1H1450.9z M1414.9,330.7h-36.1v-36.1h36.1V330.7z
			 M1378.8,333.1h36.1V368h-36.1V333.1z M1417.3,333.1h33.7V368h-33.7V333.1z M1453.4,333.1h36.1V368h-36.1V333.1z M1453.4,330.7
			v-36.1h36.1v36.1H1453.4z M1491.8,333.1h34.9V368h-34.9V333.1z M1491.8,330.7v-36.1h34.9v36.1H1491.8z M1529.1,333.1h36.1V368
			h-36.1V333.1z M1529.1,330.7v-36.1h36.1v36.1H1529.1z M1565.2,216.4h-36.1v-36.1h36.1V216.4z M1565.2,218.8v34.9h-36.1v-34.9
			H1565.2z M1565.2,256.1L1565.2,256.1v36.1h-36.1v-36.1v0H1565.2z M1526.7,256.1v36.1h-34.9v-36.1v0L1526.7,256.1L1526.7,256.1z
			 M1491.8,253.7v-34.9h34.9v34.9H1491.8z M1526.7,216.4h-34.9v-36.1h34.9V216.4z M1489.4,180.4v36.1h-36.1v-36.1H1489.4z
			 M1450.9,216.4h-33.7v-36.1h33.7V216.4z M1414.9,216.4h-36.1v-36.1h36.1V216.4z M1414.9,218.8v34.9h-36.1v-34.9H1414.9z
			 M1414.9,256.1L1414.9,256.1v36.1h-36.1v-36.1v0H1414.9z M1376.4,216.4h-34.9v-36.1h34.9V216.4z M1376.4,218.8v34.9h-34.9v-34.9
			H1376.4z M1376.4,256.1L1376.4,256.1v36.1h-34.9v-36.1v0H1376.4z M1339.1,256.1v36.1l0,0H1303v-36.1v0L1339.1,256.1L1339.1,256.1
			L1339.1,256.1z M1303,253.7v-34.9h36.1l0,0v34.9l0,0H1303z M1339.1,216.4L1339.1,216.4H1303v-36.1h36.1l0,0V216.4z M1300.6,216.4
			h-36.1v-36.1h36.1V216.4z M1300.6,218.8v34.9h-36.1v-34.9H1300.6z M1300.6,256.1L1300.6,256.1v36.1h-36.1v-36.1v0H1300.6z
			 M1262.1,256.1v36.1h-34.9v-36.1v0L1262.1,256.1L1262.1,256.1z M1227.3,253.7v-34.9h34.9v34.9H1227.3z M1262.1,216.4h-34.9v-36.1
			h34.9V216.4z M1224.8,180.4v36.1h-36.1v-36.1H1224.8z M1186.4,216.4h-33.7v-36.1h33.7V216.4z M1150.3,216.4h-36.1v-36.1h36.1
			V216.4z M1150.3,218.8v34.9h-36.1v-34.9H1150.3z M1150.3,256.1L1150.3,256.1v36.1h-36.1v-36.1v0H1150.3z M1111.8,216.4h-34.9
			v-36.1h34.9V216.4z M1111.8,218.8v34.9h-34.9v-34.9H1111.8z M1111.8,256.1L1111.8,256.1v36.1h-34.9v-36.1v0H1111.8z M1074.5,256.1
			v36.1l0,0h-36.1v-36.1v0L1074.5,256.1L1074.5,256.1L1074.5,256.1z M1038.4,253.7v-34.9h36.1l0,0v34.9l0,0H1038.4z M1074.5,216.4
			L1074.5,216.4h-36.1v-36.1h36.1l0,0V216.4z M1036,216.4h-36.1v-36.1h36.1V216.4z M1036,218.8v34.9h-36.1v-34.9H1036z M1036,256.1
			L1036,256.1v36.1h-36.1v-36.1v0H1036z M997.5,256.1v36.1h-34.9v-36.1v0L997.5,256.1L997.5,256.1z M962.7,253.7v-34.9h34.9v34.9
			H962.7z M997.5,216.4h-34.9v-36.1h34.9V216.4z M960.3,180.4v36.1h-36.1v-36.1H960.3z M921.8,216.4h-33.7v-36.1h33.7V216.4z
			 M885.7,216.4h-36.1v-36.1h36.1V216.4z M885.7,218.8v34.9h-36.1v-34.9H885.7z M885.7,256.1L885.7,256.1v36.1h-36.1v-36.1v0H885.7z
			 M847.2,216.4h-34.9v-36.1h34.9V216.4z M847.2,218.8v34.9h-34.9v-34.9H847.2z M847.2,256.1L847.2,256.1v36.1h-34.9v-36.1v0H847.2z
			 M809.9,256.1L809.9,256.1L809.9,256.1l0,36.1h0 M809.9,218.8L809.9,218.8l0,34.9h0 M809.9,180.4L809.9,180.4l0,36.1h0
			 M809.9,370.4L809.9,370.4L809.9,370.4l0,36.1h0 M812.3,370.4L812.3,370.4l34.9,0v0v36.1h-34.9V370.4z M849.6,370.4L849.6,370.4
			l36.1,0v0v36.1h-36.1V370.4z M849.6,408.9h36.1v33.7h-36.1V408.9z M888.1,406.5v-36.1v0h33.7v0v36.1H888.1z M924.2,370.4
			L924.2,370.4l36.1,0v0v36.1h-36.1V370.4z M962.7,370.4L962.7,370.4l34.9,0v0v36.1h-34.9V370.4z M999.9,370.4L999.9,370.4l36.1,0v0
			v36.1h-36.1V370.4z M1038.4,370.4L1038.4,370.4l36.1,0l0,0v0v36.1l0,0h-36.1V370.4z M1076.9,370.4L1076.9,370.4l34.9,0v0v36.1
			h-34.9V370.4z M1114.2,370.4L1114.2,370.4l36.1,0v0v36.1h-36.1V370.4z M1114.2,408.9h36.1v33.7h-36.1V408.9z M1152.7,406.5v-36.1
			v0h33.7v0v36.1H1152.7z M1188.8,370.4L1188.8,370.4l36.1,0v0v36.1h-36.1V370.4z M1227.3,370.4L1227.3,370.4l34.9,0v0v36.1h-34.9
			V370.4z M1264.5,370.4L1264.5,370.4l36.1,0v0v36.1h-36.1V370.4z M1303,370.4L1303,370.4l36.1,0l0,0v0v36.1l0,0H1303V370.4z
			 M1341.5,370.4L1341.5,370.4l34.9,0v0v36.1h-34.9V370.4z M1378.8,370.4L1378.8,370.4l36.1,0v0v36.1h-36.1V370.4z M1378.8,408.9
			h36.1v33.7h-36.1V408.9z M1417.3,406.5v-36.1v0h33.7v0v36.1H1417.3z M1453.4,370.4L1453.4,370.4l36.1,0v0v36.1h-36.1V370.4z
			 M1491.8,370.4L1491.8,370.4l34.9,0v0v36.1h-34.9V370.4z M1529.1,370.4L1529.1,370.4l36.1,0v0v36.1h-36.1V370.4z M1567.6,370.4
			L1567.6,370.4l36.1,0h0v0v36.1h0h-36.1V370.4z M1603.7,330.7h-36.1v-36.1h36.1h0L1603.7,330.7L1603.7,330.7z M1603.7,256.1v36.1h0
			h-36.1v-36.1v0L1603.7,256.1L1603.7,256.1L1603.7,256.1z M1603.7,178L1603.7,178h-36.1v-33.7h36.1h0V178z M1565.2,178h-36.1v-33.7
			h36.1V178z M1526.7,178h-34.9v-33.7h34.9V178z M1453.4,141.9v-36.1v0h36.1v0v36.1H1453.4z M1489.4,103.4h-36.1V68.5h36.1V103.4z
			 M1450.9,144.3V178h-33.7v-33.7H1450.9z M1414.9,178h-36.1v-33.7h36.1V178z M1376.4,178h-34.9v-33.7h34.9V178z M1339.1,178
			L1339.1,178H1303v-33.7h36.1l0,0V178z M1300.6,178h-36.1v-33.7h36.1V178z M1262.1,178h-34.9v-33.7h34.9V178z M1188.8,141.9v-36.1
			v0h36.1v0v36.1H1188.8z M1224.8,103.4h-36.1V68.5h36.1V103.4z M1186.4,144.3V178h-33.7v-33.7H1186.4z M1150.3,178h-36.1v-33.7
			h36.1V178z M1111.8,178h-34.9v-33.7h34.9V178z M1074.5,178L1074.5,178h-36.1v-33.7h36.1l0,0V178z M1036,178h-36.1v-33.7h36.1V178z
			 M997.5,178h-34.9v-33.7h34.9V178z M924.2,141.9v-36.1v0h36.1v0v36.1H924.2z M960.3,103.4h-36.1V68.5h36.1V103.4z M921.8,144.3
			V178h-33.7v-33.7H921.8z M885.7,178h-36.1v-33.7h36.1V178z M847.2,178h-34.9v-33.7h34.9V178z M809.9,144.3L809.9,144.3l0,33.7h0
			 M809.9,408.9L809.9,408.9l0,33.7h0 M812.3,408.9h34.9v33.7h-34.9V408.9z M849.6,483.4h36.1v34.9h-36.1V483.4z M924.2,408.9h36.1
			v33.7h-36.1V408.9z M962.7,408.9h34.9v33.7h-34.9V408.9z M999.9,442.5v-33.7h36.1v33.7H999.9z M1038.4,408.9h36.1l0,0v33.7l0,0
			h-36.1V408.9z M1076.9,408.9h34.9v33.7h-34.9V408.9z M1114.2,483.4h36.1v34.9h-36.1V483.4z M1188.8,408.9h36.1v33.7h-36.1V408.9z
			 M1227.3,408.9h34.9v33.7h-34.9V408.9z M1264.5,442.5v-33.7h36.1v33.7H1264.5z M1303,408.9h36.1l0,0v33.7l0,0H1303V408.9z
			 M1341.5,408.9h34.9v33.7h-34.9V408.9z M1378.8,483.4h36.1v34.9h-36.1V483.4z M1453.4,408.9h36.1v33.7h-36.1V408.9z M1491.8,408.9
			h34.9v33.7h-34.9V408.9z M1529.1,442.5v-33.7h36.1v33.7H1529.1z M1567.6,408.9h36.1h0v33.7h0h-36.1V408.9z M1606.1,408.9h34.9
			v33.7h-34.9V408.9z M1606.1,406.5v-36.1v0h34.9v0v36.1H1606.1z M1606.1,330.7v-36.1h34.9v36.1H1606.1z M1641,256.1v36.1h-34.9
			v-36.1v0L1641,256.1L1641,256.1z M1643.4,218.8h36.1v34.9h-36.1V218.8z M1643.4,216.4v-36.1h36.1v36.1H1643.4z M1606.1,30h34.9
			v36.1h-34.9V30z M1606.1,68.5h34.9v34.9h-34.9V68.5z M1606.1,105.8L1606.1,105.8l34.9,0v0v36.1h-34.9V105.8z M1567.6,30h36.1h0
			v36.1h0h-36.1V30z M1567.6,68.5h36.1h0v34.9h0h-36.1V68.5z M1567.6,105.8L1567.6,105.8l36.1,0h0v0v36.1h0h-36.1V105.8z M1529.1,30
			h36.1v36.1h-36.1V30z M1529.1,68.5h36.1v34.9h-36.1V68.5z M1529.1,105.8L1529.1,105.8l36.1,0v0v36.1h-36.1V105.8z M1491.8,30h34.9
			v36.1h-34.9V30z M1491.8,68.5h34.9v34.9h-34.9V68.5z M1491.8,105.8L1491.8,105.8l34.9,0v0v36.1h-34.9V105.8z M1489.4,30v36.1
			h-36.1V30H1489.4z M1450.9,30v36.1h-33.7V30H1450.9z M1378.8,30h36.1v36.1h-36.1V30z M1378.8,68.5h36.1v34.9h-36.1V68.5z
			 M1378.8,105.8L1378.8,105.8l36.1,0v0v36.1h-36.1V105.8z M1341.5,30h34.9v36.1h-34.9V30z M1341.5,68.5h34.9v34.9h-34.9V68.5z
			 M1341.5,105.8L1341.5,105.8l34.9,0v0v36.1h-34.9V105.8z M1303,30h36.1l0,0v36.1l0,0H1303V30z M1303,68.5h36.1l0,0v34.9l0,0H1303
			V68.5z M1303,105.8L1303,105.8l36.1,0l0,0v0v36.1l0,0H1303V105.8z M1264.5,30h36.1v36.1h-36.1V30z M1264.5,68.5h36.1v34.9h-36.1
			V68.5z M1264.5,105.8L1264.5,105.8l36.1,0v0v36.1h-36.1V105.8z M1227.3,30h34.9v36.1h-34.9V30z M1227.3,68.5h34.9v34.9h-34.9V68.5
			z M1227.3,105.8L1227.3,105.8l34.9,0v0v36.1h-34.9V105.8z M1224.8,30v36.1h-36.1V30H1224.8z M1186.4,30v36.1h-33.7V30H1186.4z
			 M1114.2,30h36.1v36.1h-36.1V30z M1114.2,68.5h36.1v34.9h-36.1V68.5z M1114.2,105.8L1114.2,105.8l36.1,0v0v36.1h-36.1V105.8z
			 M1076.9,30h34.9v36.1h-34.9V30z M1076.9,68.5h34.9v34.9h-34.9V68.5z M1076.9,105.8L1076.9,105.8l34.9,0v0v36.1h-34.9V105.8z
			 M1038.4,30h36.1l0,0v36.1l0,0h-36.1V30z M1038.4,68.5h36.1l0,0v34.9l0,0h-36.1V68.5z M1038.4,105.8L1038.4,105.8l36.1,0l0,0v0
			v36.1l0,0h-36.1V105.8z M999.9,30h36.1v36.1h-36.1V30z M999.9,68.5h36.1v34.9h-36.1V68.5z M999.9,105.8L999.9,105.8l36.1,0v0v36.1
			h-36.1V105.8z M962.7,30h34.9v36.1h-34.9V30z M962.7,68.5h34.9v34.9h-34.9V68.5z M962.7,105.8L962.7,105.8l34.9,0v0v36.1h-34.9
			V105.8z M960.3,30v36.1h-36.1V30H960.3z M921.8,30v36.1h-33.7V30H921.8z M849.6,30h36.1v36.1h-36.1V30z M849.6,68.5h36.1v34.9
			h-36.1V68.5z M849.6,105.8L849.6,105.8l36.1,0v0v36.1h-36.1V105.8z M812.3,30h34.9v36.1h-34.9V30z M812.3,68.5h34.9v34.9h-34.9
			V68.5z M812.3,105.8L812.3,105.8l34.9,0v0v36.1h-34.9V105.8z M809.9,30L809.9,30l0,36.1h0 M809.9,68.5L809.9,68.5l0,34.9h0
			 M809.9,105.8L809.9,105.8L809.9,105.8l0,36.1h0 M809.9,520.7L809.9,520.7L809.9,520.7l0,36.1h0 M809.9,483.4L809.9,483.4l0,34.9
			h0 M809.9,444.9L809.9,444.9l0,36.1h0 M847.2,520.7v36.1h-34.9v-36.1v0L847.2,520.7L847.2,520.7z M847.2,518.3h-34.9v-34.9h34.9
			V518.3z M847.2,481h-34.9v-36.1h34.9V481z M849.6,556.8v-36.1v0h36.1v0v36.1H849.6z M888.1,556.8v-36.1v0h33.7v0v36.1H888.1z
			 M960.3,520.7v36.1h-36.1v-36.1v0L960.3,520.7L960.3,520.7z M960.3,518.3h-36.1v-34.9h36.1V518.3z M960.3,481h-36.1v-36.1h36.1
			V481z M997.5,520.7v36.1h-34.9v-36.1v0L997.5,520.7L997.5,520.7z M997.5,518.3h-34.9v-34.9h34.9V518.3z M997.5,481h-34.9v-36.1
			h34.9V481z M999.9,556.8v-36.1v0h36.1v0v36.1H999.9z M1074.5,520.7v36.1l0,0h-36.1v-36.1v0L1074.5,520.7L1074.5,520.7
			L1074.5,520.7z M1074.5,518.3L1074.5,518.3h-36.1v-34.9h36.1l0,0V518.3z M1074.5,481L1074.5,481h-36.1v-36.1h36.1l0,0V481z
			 M1111.8,520.7v36.1h-34.9v-36.1v0L1111.8,520.7L1111.8,520.7z M1111.8,518.3h-34.9v-34.9h34.9V518.3z M1111.8,481h-34.9v-36.1
			h34.9V481z M1114.2,556.8v-36.1v0h36.1v0v36.1H1114.2z M1152.7,556.8v-36.1v0h33.7v0v36.1H1152.7z M1224.8,520.7v36.1h-36.1v-36.1
			v0L1224.8,520.7L1224.8,520.7z M1224.8,518.3h-36.1v-34.9h36.1V518.3z M1224.8,481h-36.1v-36.1h36.1V481z M1262.1,520.7v36.1
			h-34.9v-36.1v0L1262.1,520.7L1262.1,520.7z M1262.1,518.3h-34.9v-34.9h34.9V518.3z M1262.1,481h-34.9v-36.1h34.9V481z
			 M1264.5,556.8v-36.1v0h36.1v0v36.1H1264.5z M1339.1,520.7v36.1l0,0H1303v-36.1v0L1339.1,520.7L1339.1,520.7L1339.1,520.7z
			 M1339.1,518.3L1339.1,518.3H1303v-34.9h36.1l0,0V518.3z M1339.1,481L1339.1,481H1303v-36.1h36.1l0,0V481z M1376.4,520.7v36.1
			h-34.9v-36.1v0L1376.4,520.7L1376.4,520.7z M1376.4,518.3h-34.9v-34.9h34.9V518.3z M1376.4,481h-34.9v-36.1h34.9V481z
			 M1378.8,556.8v-36.1v0h36.1v0v36.1H1378.8z M1417.3,556.8v-36.1v0h33.7v0v36.1H1417.3z M1489.4,520.7v36.1h-36.1v-36.1v0
			L1489.4,520.7L1489.4,520.7z M1489.4,518.3h-36.1v-34.9h36.1V518.3z M1489.4,481h-36.1v-36.1h36.1V481z M1526.7,520.7v36.1h-34.9
			v-36.1v0L1526.7,520.7L1526.7,520.7z M1526.7,518.3h-34.9v-34.9h34.9V518.3z M1526.7,481h-34.9v-36.1h34.9V481z M1529.1,556.8
			v-36.1v0h36.1v0v36.1H1529.1z M1603.7,520.7v36.1h0h-36.1v-36.1v0L1603.7,520.7L1603.7,520.7L1603.7,520.7z M1603.7,518.3
			L1603.7,518.3h-36.1v-34.9h36.1h0V518.3z M1603.7,481L1603.7,481h-36.1v-36.1h36.1h0V481z M1641,520.7v36.1h-34.9v-36.1v0
			L1641,520.7L1641,520.7z M1641,518.3h-34.9v-34.9h34.9V518.3z M1641,481h-34.9v-36.1h34.9V481z M1679.5,520.7v36.1h-36.1v-36.1v0
			L1679.5,520.7L1679.5,520.7z M1679.5,518.3h-36.1v-34.9h36.1V518.3z M1679.5,481h-36.1v-36.1h36.1V481z M1643.4,406.5v-36.1v0
			h36.1v0v36.1H1643.4z M1643.4,330.7v-36.1h36.1v36.1H1643.4z M1679.5,256.1v36.1h-36.1v-36.1v0L1679.5,256.1L1679.5,256.1z
			 M1643.4,141.9v-36.1v0h36.1v0v36.1H1643.4z"/>
	</g>
</g>
</svg>
