<?xml version="1.0" encoding="UTF-8" standalone="no"?>
<!-- Created with Inkscape (http://www.inkscape.org/) -->

<svg xmlns:dc="http://purl.org/dc/elements/1.1/" xmlns:cc="http://creativecommons.org/ns#" xmlns:rdf="http://www.w3.org/1999/02/22-rdf-syntax-ns#"
    xmlns="http://www.w3.org/2000/svg" xmlns:sodipodi="http://sodipodi.sourceforge.net/DTD/sodipodi-0.dtd"
    xmlns:inkscape="http://www.inkscape.org/namespaces/inkscape" width="210mm" height="297mm"
    viewBox="0 0 744.09448819 1052.3622047" id="svg3585" version="1.1" inkscape:version="0.91 r13725"
    sodipodi:docname="drawing.svg">
  <defs
     id="defs3587">
    <clipPath
       clipPathUnits="userSpaceOnUse"
       id="clipPath130">
      <path
         d="m 582.392,461.304 c 0,-55.145 44.704,-99.85 99.848,-99.85 l 0,0 c 55.145,0 99.85,44.705 99.85,99.85 l 0,0 c 0,55.146 -44.705,99.849 -99.85,99.849 l 0,0 c -55.144,0 -99.848,-44.703 -99.848,-99.849"
         id="path132"
         inkscape:connector-curvature="0" />
    </clipPath>
    <clipPath
       clipPathUnits="userSpaceOnUse"
       id="clipPath142">
      <path
         d="m 564.954,475.006 237.612,0 0,-152.391 -237.612,0 0,152.391 z"
         id="path144"
         inkscape:connector-curvature="0" />
    </clipPath>
    <clipPath
       clipPathUnits="userSpaceOnUse"
       id="clipPath120">
      <path
         d="m 582.392,461.304 c 0,-6.011 0.532,-11.903 1.55,-17.621 l 0,0 104.152,27.644 93.638,-18.538 c 0.237,2.807 0.358,5.647 0.358,8.515 l 0,0 c 0,55.146 -44.705,99.849 -99.85,99.849 l 0,0 c -55.144,0 -99.848,-44.703 -99.848,-99.849"
         id="path122"
         inkscape:connector-curvature="0" />
    </clipPath>
    <clipPath
       clipPathUnits="userSpaceOnUse"
       id="clipPath108">
      <path
         d="m 582.392,461.304 c 0,-55.145 44.704,-99.85 99.848,-99.85 l 0,0 c 55.145,0 99.85,44.705 99.85,99.85 l 0,0 c 0,55.146 -44.705,99.849 -99.85,99.849 l 0,0 c -55.144,0 -99.848,-44.703 -99.848,-99.849"
         id="path110"
         inkscape:connector-curvature="0" />
    </clipPath>
    <clipPath
       clipPathUnits="userSpaceOnUse"
       id="clipPath16">
      <path
         d="m 0,595.276 841.89,0 L 841.89,0 0,0 0,595.276 Z"
         id="path18"
         inkscape:connector-curvature="0" />
    </clipPath>
  </defs>
  <sodipodi:namedview
     id="base"
     pagecolor="#ffffff"
     bordercolor="#666666"
     borderopacity="1.0"
     inkscape:pageopacity="0.0"
     inkscape:pageshadow="2"
     inkscape:zoom="0.35"
     inkscape:cx="-335"
     inkscape:cy="520"
     inkscape:document-units="px"
     inkscape:current-layer="layer1"
     showgrid="false"
     inkscape:window-width="1839"
     inkscape:window-height="1050"
     inkscape:window-x="81"
     inkscape:window-y="30"
     inkscape:window-maximized="1" />
  <metadata
     id="metadata3590">
    <rdf:RDF>
      <cc:Work
         rdf:about="">
        <dc:format>image/svg+xml</dc:format>
        <dc:type
           rdf:resource="http://purl.org/dc/dcmitype/StillImage" />
        <dc:title></dc:title>
      </cc:Work>
    </rdf:RDF>
  </metadata>
  <g
     inkscape:label="Layer 1"
     inkscape:groupmode="layer"
     id="layer1">
    <g
       transform="matrix(1.25,0,0,-1.25,-704.94316,723.27771)"
       id="g12"
       inkscape:export-xdpi="186.30571"
       inkscape:export-ydpi="186.30571">
      <g
         id="g14"
         clip-path="url(#clipPath16)">
        <g
           id="g20"
           transform="translate(682.2402,573.2424)">
          <path
             d="m 0,0 c -61.723,0 -111.938,-50.215 -111.938,-111.938 0,-61.724 50.215,-111.939 111.938,-111.939 61.724,0 111.938,50.215 111.938,111.939 C 111.938,-50.215 61.724,0 0,0 m 0,-16.975 c 52.447,0 94.963,-42.517 94.963,-94.963 0,-52.447 -42.516,-94.963 -94.963,-94.963 -52.446,0 -94.963,42.516 -94.963,94.963 0,52.446 42.517,94.963 94.963,94.963"
             style="fill:#f6f6f6;fill-opacity:1;fill-rule:nonzero;stroke:none"
             id="path22"
             inkscape:connector-curvature="0" />
        </g>
        <g
           id="g24"
           transform="translate(682.2402,552.2673)">
          <path
             d="m 0,0 c -50.157,0 -90.963,-40.806 -90.963,-90.963 0,-50.158 40.806,-90.963 90.963,-90.963 50.157,0 90.963,40.805 90.963,90.963 C 90.963,-40.806 50.157,0 0,0 m 0,-189.926 c -54.568,0 -98.963,44.394 -98.963,98.963 C -98.963,-36.395 -54.568,8 0,8 54.568,8 98.963,-36.395 98.963,-90.963 98.963,-145.532 54.568,-189.926 0,-189.926 M 0,16.975 c -59.518,0 -107.938,-48.421 -107.938,-107.938 0,-59.518 48.42,-107.939 107.938,-107.939 59.518,0 107.938,48.421 107.938,107.939 0,59.517 -48.42,107.938 -107.938,107.938 m 0,-223.877 c -63.929,0 -115.938,52.01 -115.938,115.939 0,63.928 52.009,115.938 115.938,115.938 63.929,0 115.938,-52.01 115.938,-115.938 0,-63.929 -52.009,-115.939 -115.938,-115.939"
             style="fill:#009fe3;fill-opacity:1;fill-rule:nonzero;stroke:none"
             id="path26"
             inkscape:connector-curvature="0" />
        </g>
      </g>
    </g>
    <g
       transform="matrix(1.25,0,0,-1.25,-704.94316,723.27771)"
       id="g104"
       inkscape:export-xdpi="186.30571"
       inkscape:export-ydpi="186.30571">
      <g
         id="g106"
         clip-path="url(#clipPath108)">
        <path
           d="m 782.09,361.455 -199.698,0 0,199.698 199.698,0 0,-199.698 z"
           style="fill:#009fe3;fill-opacity:1;fill-rule:nonzero;stroke:none"
           id="path112"
           inkscape:connector-curvature="0" />
        <path
           d="m 730.604,462.864 -46.804,0 0,46.805 46.804,0 0,-46.805 z m 0,-49.924 -46.804,0 0,46.804 46.804,0 0,-46.804 z m -96.728,46.804 46.805,0 0,-46.804 -46.805,0 0,46.804 z m 0,49.925 46.805,0 0,-46.805 -46.805,0 0,46.805 z m 148.214,0 0,3.12 -48.365,0 0,48.364 -3.121,0 0,-48.364 -46.803,0 0,48.364 -3.12,0 0,-48.364 -46.805,0 0,48.364 -3.12,0 0,-48.364 -48.364,0 0,-3.12 48.364,0 0,-46.805 -48.364,0 0,-3.12 48.364,0 0,-46.804 -48.364,0 0,-3.12 48.364,0 0,-48.365 3.12,0 0,48.365 46.805,0 0,-48.365 3.12,0 0,48.365 46.803,0 0,-48.365 3.121,0 0,48.365 48.365,0 0,3.12 -48.365,0 0,46.804 48.365,0 0,3.12 -48.365,0 0,46.805 48.365,0 z"
           style="fill:#38bad8;fill-opacity:1;fill-rule:nonzero;stroke:none"
           id="path114"
           inkscape:connector-curvature="0" />
      </g>
    </g>
    <g
       transform="matrix(1.25,0,0,-1.25,-704.94316,723.27771)"
       id="g116"
       inkscape:export-xdpi="186.30571"
       inkscape:export-ydpi="186.30571">
      <g
         id="g118"
         clip-path="url(#clipPath120)">
        <path
           d="m 730.769,462.7 -46.804,0 0,46.804 46.804,0 0,-46.804 z m 0,-49.924 -46.804,0 0,46.804 46.804,0 0,-46.804 z m -96.729,46.804 46.804,0 0,-46.804 -46.804,0 0,46.804 z m 0,49.925 46.804,0 0,-46.804 -46.804,0 0,46.804 z m 148.213,0 0,3.12 -48.364,0 0,48.364 -3.12,0 0,-48.364 -46.804,0 0,48.364 -3.121,0 0,-48.364 -46.804,0 0,48.364 -3.12,0 0,-48.364 -48.364,0 0,-3.12 48.364,0 0,-46.805 -48.364,0 0,-3.12 48.364,0 0,-46.804 -48.364,0 0,-3.121 48.364,0 0,-48.364 3.12,0 0,48.364 46.804,0 0,-48.364 3.121,0 0,48.364 46.804,0 0,-48.364 3.12,0 0,48.364 48.364,0 0,3.121 -48.364,0 0,46.804 48.364,0 0,3.12 -48.364,0 0,46.805 48.364,0 z"
           style="fill:#26b3d8;fill-opacity:1;fill-rule:nonzero;stroke:none"
           id="path124"
           inkscape:connector-curvature="0" />
      </g>
    </g>
    <g
       transform="matrix(1.25,0,0,-1.25,-704.94316,723.27771)"
       id="g126"
       inkscape:export-xdpi="186.30571"
       inkscape:export-ydpi="186.30571">
      <g
         id="g128"
         clip-path="url(#clipPath130)">
        <g
           id="g134"
           transform="translate(574.7041,437.5207)">
          <path
             d="M 0,0 -1.84,6.932 113.271,37.485 218.341,16.685 216.947,9.649 113.508,30.127 0,0 Z"
             style="fill:#494495;fill-opacity:1;fill-rule:nonzero;stroke:none"
             id="path136"
             inkscape:connector-curvature="0" />
        </g>
        <g
           id="g138">
          <g
             id="g140" />
          <g
             id="g146">
            <g
               clip-path="url(#clipPath142)"
               id="g148"
               style="opacity:0.61000103">
              <g
                 transform="translate(792.0234,450.6877)"
                 id="g150">
                <path
                   d="M 0,0 -104.254,20.639 -218.562,-9.701 -223.326,-116.426 0,-124.365 6.88,-8.468 0,0 Z"
                   style="fill:#494495;fill-opacity:1;fill-rule:nonzero;stroke:none"
                   id="path152"
                   inkscape:connector-curvature="0" />
              </g>
              <g
                 transform="translate(572.4414,337.716)"
                 id="g154">
                <path
                   d="m 0,0 216.21,-7.685 6.59,111.01 -5.184,6.381 -102.17,20.226 L 4.483,100.48 0,0 Z m 222.954,-15.101 -230.441,8.191 5.042,112.971 117.655,31.229 106.339,-21.052 8.576,-10.555 -0.083,-1.391 -7.088,-119.393 z"
                   style="fill:#494495;fill-opacity:1;fill-rule:nonzero;stroke:none"
                   id="path156"
                   inkscape:connector-curvature="0" />
              </g>
            </g>
          </g>
        </g>
        <g
           id="g158"
           transform="translate(749.7803,501.1115)">
          <path
             d="m 0,0 c -6.857,12.018 -16.247,21.457 -28.174,28.314 -5.201,2.99 -10.661,5.326 -16.379,7.011 -6.304,1.858 -12.59,-3.08 -12.59,-9.654 0,-4.434 2.965,-8.204 7.183,-9.572 3.815,-1.237 7.464,-2.891 10.942,-4.968 8.637,-5.17 15.446,-12.214 20.425,-21.13 4.975,-8.926 7.467,-18.924 7.467,-30.006 0,-11.086 -2.492,-21.084 -7.467,-30.006 -4.979,-8.921 -11.788,-15.914 -20.425,-20.989 -2.328,-1.366 -4.751,-2.5 -7.23,-3.494 l 0,4.695 0,10.638 0,8.971 0,15.653 c 0,3.161 -1.025,5.766 -3.072,7.818 -2.052,2.046 -4.658,3.074 -7.823,3.074 -2.982,0 -5.543,-1.028 -7.682,-3.074 -2.144,-2.052 -3.212,-4.657 -3.212,-7.818 l 0,-15.656 0,-8.967 0,-11.235 0,-8.791 0,-7.175 c 0,-2.986 1.068,-5.546 3.212,-7.683 2.139,-2.146 4.7,-3.214 7.682,-3.214 1.694,0 3.215,0.33 4.589,0.943 5.512,1.29 10.782,3.186 15.789,5.736 10.142,5.165 18.497,12.254 25.075,21.271 l 0,-16.906 c 0,-3.192 1.029,-5.775 3.098,-7.744 2.065,-1.973 4.693,-2.96 7.89,-2.96 3.191,0 5.819,1.032 7.887,3.102 2.066,2.064 3.101,4.596 3.101,7.602 l 0,66.209 C 10.286,-25.354 6.854,-12.022 0,0"
             style="fill:#f6f6f6;fill-opacity:1;fill-rule:nonzero;stroke:none"
             id="path160"
             inkscape:connector-curvature="0" />
        </g>
        <g
           id="g162"
           transform="translate(681.7432,483.4987)">
          <path
             d="m 0,0 0,9.39 0,10.639 0,8.97 0,15.653 c 0,3.16 -1.025,5.766 -3.072,7.818 -2.052,2.047 -4.657,3.074 -7.823,3.074 -1.334,0 -2.572,-0.237 -3.738,-0.649 -8.983,-1.547 -17.419,-4.476 -25.233,-8.968 C -51.795,39.07 -61.185,29.63 -68.039,17.613 -74.896,5.59 -78.322,-7.741 -78.322,-22.392 c 0,-14.65 3.333,-27.942 10.001,-39.863 6.666,-11.933 15.778,-21.322 27.327,-28.174 5.384,-3.198 11.067,-5.636 17.046,-7.332 6.534,-1.853 13.053,2.981 13.053,9.773 0,4.538 -3.05,8.386 -7.374,9.767 -3.787,1.209 -7.418,2.818 -10.891,4.834 -8.733,5.075 -15.592,12.068 -20.567,20.989 -4.978,8.921 -7.465,18.92 -7.465,30.006 0,11.081 2.487,21.08 7.465,30.006 4.975,8.916 11.834,15.96 20.567,21.13 2.378,1.405 4.847,2.57 7.371,3.59 l 0,-3.338 0,-8.967 0,-11.235 0,-8.791 0,-7.175 c 0,-2.985 1.068,-5.546 3.212,-7.682 2.14,-2.147 4.7,-3.215 7.682,-3.215 3.166,0 5.771,1.068 7.823,3.215 C -1.025,-12.718 0,-10.157 0,-7.172 L 0,0 Z"
             style="fill:#f6f6f6;fill-opacity:1;fill-rule:nonzero;stroke:none"
             id="path164"
             inkscape:connector-curvature="0" />
        </g>
      </g>
    </g>
  </g>
</svg>
