<?xml version="1.0" encoding="utf-8"?>
<!-- Generator: Adobe Illustrator 22.0.0, SVG Export Plug-In . SVG Version: 6.00 Build 0)  -->
<svg version="1.1" id="Layer_1" xmlns="http://www.w3.org/2000/svg" xmlns:xlink="http://www.w3.org/1999/xlink" x="0px" y="0px"
	 viewBox="0 0 841.9 595.3" style="enable-background:new 0 0 841.9 595.3;" xml:space="preserve">
<style type="text/css">
	.st0{fill:url(#SVGID_1_);}
	.st1{fill:url(#SVGID_2_);}
	.st2{clip-path:url(#SVGID_4_);}
	.st3{fill:url(#SVGID_5_);}
	.st4{clip-path:url(#SVGID_7_);fill:#39BAD8;}
	.st5{fill:url(#SVGID_8_);}
	.st6{fill:#484495;}
	.st7{fill:url(#SVGID_9_);}
	.st8{fill:#F6F6F6;}
	.st9{fill:#009FE3;}
	.st10{fill:none;}
	.st11{fill:url(#SVGID_10_);}
	.st12{clip-path:url(#SVGID_12_);}
	.st13{fill:url(#SVGID_13_);}
	.st14{clip-path:url(#SVGID_15_);fill:#C5C5C5;}
	.st15{fill:url(#SVGID_16_);}
	.st16{fill:#454545;}
	.st17{fill:url(#SVGID_17_);}
	.st18{fill:#F2F2F2;}
	.st19{fill:#B2B2B2;}
	.st20{clip-path:url(#SVGID_19_);}
	.st21{fill:url(#SVGID_20_);}
	.st22{clip-path:url(#SVGID_22_);fill:#39BAD8;}
	.st23{fill:url(#SVGID_23_);}
	.st24{fill:url(#SVGID_24_);}
	.st25{opacity:0.69;fill:url(#SVGID_25_);}
	.st26{fill:url(#SVGID_26_);}
	.st27{clip-path:url(#SVGID_28_);}
	.st28{fill:url(#SVGID_29_);}
	.st29{clip-path:url(#SVGID_31_);fill:#C5C5C5;}
	.st30{fill:url(#SVGID_32_);}
	.st31{fill:url(#SVGID_33_);}
	.st32{opacity:0.69;fill:url(#SVGID_34_);}
</style>
<linearGradient id="SVGID_1_" gradientUnits="userSpaceOnUse" x1="159.2481" y1="310.8988" x2="159.2481" y2="516.899">
	<stop  offset="5.712154e-03" style="stop-color:#484495"/>
	<stop  offset="1" style="stop-color:#009FE3"/>
</linearGradient>
<path class="st0" d="M203,515h-87.6c-26.3,0-47.5-21.3-47.5-47.5v-87.6c0-26.3,21.3-47.5,47.5-47.5H203c26.3,0,47.5,21.3,47.5,47.5
	v87.6C250.6,493.7,229.3,515,203,515z"/>
<g>
	<linearGradient id="SVGID_2_" gradientUnits="userSpaceOnUse" x1="160.0713" y1="291.7943" x2="160.0713" y2="-71.1309">
		<stop  offset="5.712154e-03" style="stop-color:#484495"/>
		<stop  offset="1" style="stop-color:#009FE3"/>
	</linearGradient>
	<circle class="st1" cx="160.1" cy="182.3" r="95"/>
	<g>
		<defs>
			<circle id="SVGID_3_" cx="159.4" cy="178.9" r="77.7"/>
		</defs>
		<clipPath id="SVGID_4_">
			<use xlink:href="#SVGID_3_"  style="overflow:visible;"/>
		</clipPath>
		<g class="st2">
			<linearGradient id="SVGID_5_" gradientUnits="userSpaceOnUse" x1="162.4868" y1="376.9976" x2="162.4868" y2="-8.4222">
				<stop  offset="5.712154e-03" style="stop-color:#484495"/>
				<stop  offset="1" style="stop-color:#009FE3"/>
			</linearGradient>
			<rect x="17.7" y="74.9" class="st3" width="289.6" height="204.8"/>
			<g>
				<defs>
					<rect id="SVGID_6_" x="17.7" y="74.9" width="289.6" height="204.8"/>
				</defs>
				<clipPath id="SVGID_7_">
					<use xlink:href="#SVGID_6_"  style="overflow:visible;"/>
				</clipPath>
				<path class="st4" d="M-0.2,267.3L-0.2,267.3l0,12.4h0.8v-12.4h12v12.4h0.8v-12.4h12.4v12.4h0.8v-12.4h11.6v12.4h0.8v-12.4h12.4
					v12.4h0.8v-12.4h12v12.4h0.8v-12.4h12.4v12.4h0h0.8v-12.4h12.4h0v12.4h0.8v-12.4h12v12.4h0.8v-12.4h12.4v12.4h0.8v-12.4h11.6
					v12.4h0.8v-12.4h12.4v12.4h0.8v-12.4h12v12.4h0.8v-12.4h12.4v12.4h0h0.8v-12.4h12.4h0v12.4h0.8v-12.4h12v12.4h0.8v-12.4h12.4
					v12.4h0.8v-12.4h11.6v12.4h0.8v-12.4h12.4v12.4h0.8v-12.4h12v12.4h0.8v-12.4h12.4v12.4h0h0.8v-12.4h12.4h0v12.4h0.8v-12.4h12
					v12.4h0.8v-12.4h12.4v12.4h0.8v-12.4h12.4v-0.8h-12.4v-12.4v0h12.4v-0.8h-12.4v-12h12.4v-0.8h-12.4V228h12.4v-0.8h-12.4v-11.6
					h12.4v-0.8h-12.4v-12.4v0h12.4v-0.8h-12.4v-12h12.4v-0.8h-12.4v-12.4h12.4v-0.8h-12.4V163v0h12.4v-0.8h-12.4v-12h12.4v-0.8
					h-12.4V137h12.4v-0.8h-12.4v-11.6h12.4v-0.8h-12.4v-12.4v0h12.4v-0.8h-12.4v-12h12.4v-0.8h-12.4V85.3h12.4v-0.8h-12.4V72h-0.8
					v12.4h-12.4V72h-0.8v12.4h-12V72h-0.8v12.4h0h-12.4V72h-0.8h0v12.4h-12.4V72h-0.8v12.4h-12V72h-0.8v12.4h-12.4V72h-0.8v12.4
					h-11.6V72h-0.8v12.4h-12.4V72h-0.8v12.4h-12V72h-0.8v12.4h0h-12.4V72h-0.8h0v12.4h-12.4V72h-0.8v12.4h-12V72h-0.8v12.4h-12.4V72
					h-0.8v12.4h-11.6V72h-0.8v12.4h-12.4V72h-0.8v12.4h-12V72h-0.8v12.4h0H78.4V72h-0.8h0v12.4H65.2V72h-0.8v12.4h-12V72h-0.8v12.4
					H39.1V72h-0.8v12.4H26.7V72h-0.8v12.4H13.4V72h-0.8v12.4h-12V72h-0.8v12.4h0 M286.5,85.3h12.4v12.4h-12.4V85.3z M286.5,98.5
					h12.4v12h-12.4V98.5z M298.9,136.1h-12.4v-11.6h12.4V136.1z M286.5,189.5h12.4v12h-12.4V189.5z M298.9,227.2h-12.4v-11.6h12.4
					V227.2z M259.6,240.4h-12.4V228h12.4V240.4z M259.6,253.2h-12.4v-12h12.4V253.2z M220.3,240.4h-11.6V228h11.6V240.4z
					 M220.3,253.2h-11.6v-12h11.6V253.2z M168.6,240.4h-12.4V228h12.4V240.4z M168.6,253.2h-12.4v-12h12.4V253.2z M129.3,240.4
					h-11.6V228h11.6V240.4z M129.3,253.2h-11.6v-12h11.6V253.2z M77.6,240.4H65.2V228h12.4V240.4z M77.6,253.2H65.2v-12h12.4V253.2z
					 M38.3,240.4H26.7V228h11.6V240.4z M38.3,253.2H26.7v-12h11.6V253.2z M26.7,111.3L26.7,111.3l11.6,0v0v12.4H26.7V111.3z
					 M26.7,98.5h11.6v12H26.7V98.5z M117.7,111.3L117.7,111.3l11.6,0v0v12.4h-11.6V111.3z M117.7,98.5h11.6v12h-11.6V98.5z
					 M208.7,111.3L208.7,111.3l11.6,0v0v12.4h-11.6V111.3z M208.7,98.5h11.6v12h-11.6V98.5z M273.7,149.4V137h12v12.4H273.7z
					 M285.7,150.2v12h-12v-12H285.7z M273.7,136.1v-11.6h12v11.6H273.7z M273.7,189.5h12v12h-12V189.5z M220.3,227.2h-11.6v-11.6
					h11.6V227.2z M207.9,240.4h-12.4V228h12.4V240.4z M129.3,227.2h-11.6v-11.6h11.6V227.2z M116.9,240.4h-12.4V228h12.4V240.4z
					 M38.3,227.2H26.7v-11.6h11.6V227.2z M25.9,240.4H13.4V228h12.4V240.4z M39.1,124.6h12.4v11.6H39.1V124.6z M130.1,124.6h12.4
					v11.6h-12.4V124.6z M221.2,124.6h12.4v11.6h-12.4V124.6z M272.9,149.4h-12.4V137h12.4h0L272.9,149.4L272.9,149.4z M272.9,150.2
					v12h0h-12.4v-12H272.9L272.9,150.2z M260.5,189.5h12.4h0v12h0h-12.4V189.5z M-0.2,189.5L-0.2,189.5l0,12h0 M-0.2,176.3
					L-0.2,176.3l0,12.4h0 M0.6,189.5h12v12h-12V189.5z M0.6,188.7v-12.4h12v12.4H0.6z M26.7,163L26.7,163l11.6,0v0v12.4H26.7V163z
					 M26.7,150.2h11.6v12H26.7V150.2z M39.1,163L39.1,163l12.4,0v0v12.4H39.1V163z M51.5,162.2H39.1v-12h12.4V162.2z M38.3,176.3
					v12.4H26.7v-12.4H38.3z M25.9,188.7H13.4v-12.4h12.4V188.7z M13.4,189.5h12.4v12H13.4V189.5z M26.7,189.5h11.6v12H26.7V189.5z
					 M39.1,189.5h12.4v12H39.1V189.5z M39.1,188.7v-12.4h12.4v12.4H39.1z M52.3,189.5h12v12h-12V189.5z M52.3,188.7v-12.4h12v12.4
					H52.3z M65.2,189.5h12.4v12H65.2V189.5z M65.2,188.7v-12.4h12.4v12.4H65.2z M78.4,189.5h12.4h0v12h0H78.4V189.5z M90.8,188.7
					H78.4v-12.4h12.4h0L90.8,188.7L90.8,188.7z M91.6,189.5h12v12h-12V189.5z M91.6,188.7v-12.4h12v12.4H91.6z M117.7,163L117.7,163
					l11.6,0v0v12.4h-11.6V163z M117.7,150.2h11.6v12h-11.6V150.2z M130.1,163L130.1,163l12.4,0v0v12.4h-12.4V163z M142.5,162.2
					h-12.4v-12h12.4V162.2z M129.3,176.3v12.4h-11.6v-12.4H129.3z M116.9,188.7h-12.4v-12.4h12.4V188.7z M104.5,189.5h12.4v12h-12.4
					V189.5z M117.7,189.5h11.6v12h-11.6V189.5z M130.1,189.5h12.4v12h-12.4V189.5z M130.1,188.7v-12.4h12.4v12.4H130.1z
					 M143.4,189.5h12v12h-12V189.5z M143.4,188.7v-12.4h12v12.4H143.4z M156.2,189.5h12.4v12h-12.4V189.5z M156.2,188.7v-12.4h12.4
					v12.4H156.2z M169.4,189.5h12.4h0v12h0h-12.4V189.5z M181.8,188.7h-12.4v-12.4h12.4h0L181.8,188.7L181.8,188.7z M182.7,189.5h12
					v12h-12V189.5z M182.7,188.7v-12.4h12v12.4H182.7z M208.7,163L208.7,163l11.6,0v0v12.4h-11.6V163z M208.7,150.2h11.6v12h-11.6
					V150.2z M221.2,163L221.2,163l12.4,0v0v12.4h-12.4V163z M233.6,162.2h-12.4v-12h12.4V162.2z M220.3,176.3v12.4h-11.6v-12.4
					H220.3z M207.9,188.7h-12.4v-12.4h12.4V188.7z M195.5,189.5h12.4v12h-12.4V189.5z M208.7,189.5h11.6v12h-11.6V189.5z
					 M221.2,189.5h12.4v12h-12.4V189.5z M221.2,188.7v-12.4h12.4v12.4H221.2z M234.4,189.5h12v12h-12V189.5z M234.4,188.7v-12.4h12
					v12.4H234.4z M247.2,189.5h12.4v12h-12.4V189.5z M247.2,188.7v-12.4h12.4v12.4H247.2z M259.6,149.4h-12.4V137h12.4V149.4z
					 M259.6,150.2v12h-12.4v-12H259.6z M259.6,163L259.6,163v12.4h-12.4V163v0H259.6z M246.4,163v12.4h-12V163v0L246.4,163
					L246.4,163z M234.4,162.2v-12h12v12H234.4z M246.4,149.4h-12V137h12V149.4z M233.6,137v12.4h-12.4V137H233.6z M220.3,149.4
					h-11.6V137h11.6V149.4z M207.9,149.4h-12.4V137h12.4V149.4z M207.9,150.2v12h-12.4v-12H207.9z M207.9,163L207.9,163v12.4h-12.4
					V163v0H207.9z M194.7,149.4h-12V137h12V149.4z M194.7,150.2v12h-12v-12H194.7z M194.7,163L194.7,163v12.4h-12V163v0H194.7z
					 M181.8,163v12.4h0h-12.4V163v0L181.8,163L181.8,163L181.8,163z M169.4,162.2v-12h12.4h0v12h0H169.4z M181.8,149.4L181.8,149.4
					h-12.4V137h12.4h0V149.4z M168.6,149.4h-12.4V137h12.4V149.4z M168.6,150.2v12h-12.4v-12H168.6z M168.6,163L168.6,163v12.4
					h-12.4V163v0H168.6z M155.4,163v12.4h-12V163v0L155.4,163L155.4,163z M143.4,162.2v-12h12v12H143.4z M155.4,149.4h-12V137h12
					V149.4z M142.5,137v12.4h-12.4V137H142.5z M129.3,149.4h-11.6V137h11.6V149.4z M116.9,149.4h-12.4V137h12.4V149.4z M116.9,150.2
					v12h-12.4v-12H116.9z M116.9,163L116.9,163v12.4h-12.4V163v0H116.9z M103.6,149.4h-12V137h12V149.4z M103.6,150.2v12h-12v-12
					H103.6z M103.6,163L103.6,163v12.4h-12V163v0H103.6z M90.8,163v12.4h0H78.4V163v0L90.8,163L90.8,163L90.8,163z M78.4,162.2v-12
					h12.4h0v12h0H78.4z M90.8,149.4L90.8,149.4H78.4V137h12.4h0V149.4z M77.6,149.4H65.2V137h12.4V149.4z M77.6,150.2v12H65.2v-12
					H77.6z M77.6,163L77.6,163v12.4H65.2V163v0H77.6z M64.3,163v12.4h-12V163v0L64.3,163L64.3,163z M52.3,162.2v-12h12v12H52.3z
					 M64.3,149.4h-12V137h12V149.4z M51.5,137v12.4H39.1V137H51.5z M38.3,149.4H26.7V137h11.6V149.4z M25.9,149.4H13.4V137h12.4
					V149.4z M25.9,150.2v12H13.4v-12H25.9z M25.9,163L25.9,163v12.4H13.4V163v0H25.9z M12.6,149.4h-12V137h12V149.4z M12.6,150.2v12
					h-12v-12H12.6z M12.6,163L12.6,163v12.4h-12V163v0H12.6z M-0.2,163L-0.2,163L-0.2,163l0,12.4h0 M-0.2,150.2L-0.2,150.2l0,12h0
					 M-0.2,137L-0.2,137l0,12.4h0 M-0.2,202.4L-0.2,202.4L-0.2,202.4l0,12.4h0 M0.6,202.4L0.6,202.4l12,0v0v12.4h-12V202.4z
					 M13.4,202.4L13.4,202.4l12.4,0v0v12.4H13.4V202.4z M13.4,215.6h12.4v11.6H13.4V215.6z M26.7,214.8v-12.4v0h11.6v0v12.4H26.7z
					 M39.1,202.4L39.1,202.4l12.4,0v0v12.4H39.1V202.4z M52.3,202.4L52.3,202.4l12,0v0v12.4h-12V202.4z M65.2,202.4L65.2,202.4
					l12.4,0v0v12.4H65.2V202.4z M78.4,202.4L78.4,202.4l12.4,0h0v0v12.4h0H78.4V202.4z M91.6,202.4L91.6,202.4l12,0v0v12.4h-12
					V202.4z M104.5,202.4L104.5,202.4l12.4,0v0v12.4h-12.4V202.4z M104.5,215.6h12.4v11.6h-12.4V215.6z M117.7,214.8v-12.4v0h11.6v0
					v12.4H117.7z M130.1,202.4L130.1,202.4l12.4,0v0v12.4h-12.4V202.4z M143.4,202.4L143.4,202.4l12,0v0v12.4h-12V202.4z
					 M156.2,202.4L156.2,202.4l12.4,0v0v12.4h-12.4V202.4z M169.4,202.4L169.4,202.4l12.4,0h0v0v12.4h0h-12.4V202.4z M182.7,202.4
					L182.7,202.4l12,0v0v12.4h-12V202.4z M195.5,202.4L195.5,202.4l12.4,0v0v12.4h-12.4V202.4z M195.5,215.6h12.4v11.6h-12.4V215.6z
					 M208.7,214.8v-12.4v0h11.6v0v12.4H208.7z M221.2,202.4L221.2,202.4l12.4,0v0v12.4h-12.4V202.4z M234.4,202.4L234.4,202.4l12,0
					v0v12.4h-12V202.4z M247.2,202.4L247.2,202.4l12.4,0v0v12.4h-12.4V202.4z M260.5,202.4L260.5,202.4l12.4,0h0v0v12.4h0h-12.4
					V202.4z M272.9,188.7h-12.4v-12.4h12.4h0L272.9,188.7L272.9,188.7z M272.9,163v12.4h0h-12.4V163v0L272.9,163L272.9,163
					L272.9,163z M272.9,136.1L272.9,136.1h-12.4v-11.6h12.4h0V136.1z M259.6,136.1h-12.4v-11.6h12.4V136.1z M246.4,136.1h-12v-11.6
					h12V136.1z M221.2,123.7v-12.4v0h12.4v0v12.4H221.2z M233.6,110.5h-12.4v-12h12.4V110.5z M220.3,124.6v11.6h-11.6v-11.6H220.3z
					 M207.9,136.1h-12.4v-11.6h12.4V136.1z M194.7,136.1h-12v-11.6h12V136.1z M181.8,136.1L181.8,136.1h-12.4v-11.6h12.4h0V136.1z
					 M168.6,136.1h-12.4v-11.6h12.4V136.1z M155.4,136.1h-12v-11.6h12V136.1z M130.1,123.7v-12.4v0h12.4v0v12.4H130.1z M142.5,110.5
					h-12.4v-12h12.4V110.5z M129.3,124.6v11.6h-11.6v-11.6H129.3z M116.9,136.1h-12.4v-11.6h12.4V136.1z M103.6,136.1h-12v-11.6h12
					V136.1z M90.8,136.1L90.8,136.1H78.4v-11.6h12.4h0V136.1z M77.6,136.1H65.2v-11.6h12.4V136.1z M64.3,136.1h-12v-11.6h12V136.1z
					 M39.1,123.7v-12.4v0h12.4v0v12.4H39.1z M51.5,110.5H39.1v-12h12.4V110.5z M38.3,124.6v11.6H26.7v-11.6H38.3z M25.9,136.1H13.4
					v-11.6h12.4V136.1z M12.6,136.1h-12v-11.6h12V136.1z M-0.2,124.6L-0.2,124.6l0,11.6h0 M-0.2,215.6L-0.2,215.6l0,11.6h0
					 M0.6,215.6h12v11.6h-12V215.6z M13.4,241.2h12.4v12H13.4V241.2z M39.1,215.6h12.4v11.6H39.1V215.6z M52.3,215.6h12v11.6h-12
					V215.6z M65.2,227.2v-11.6h12.4v11.6H65.2z M78.4,215.6h12.4h0v11.6h0H78.4V215.6z M91.6,215.6h12v11.6h-12V215.6z M104.5,241.2
					h12.4v12h-12.4V241.2z M130.1,215.6h12.4v11.6h-12.4V215.6z M143.4,215.6h12v11.6h-12V215.6z M156.2,227.2v-11.6h12.4v11.6
					H156.2z M169.4,215.6h12.4h0v11.6h0h-12.4V215.6z M182.7,215.6h12v11.6h-12V215.6z M195.5,241.2h12.4v12h-12.4V241.2z
					 M221.2,215.6h12.4v11.6h-12.4V215.6z M234.4,215.6h12v11.6h-12V215.6z M247.2,227.2v-11.6h12.4v11.6H247.2z M260.5,215.6h12.4
					h0v11.6h0h-12.4V215.6z M273.7,215.6h12v11.6h-12V215.6z M273.7,214.8v-12.4v0h12v0v12.4H273.7z M273.7,188.7v-12.4h12v12.4
					H273.7z M285.7,163v12.4h-12V163v0L285.7,163L285.7,163z M286.5,150.2h12.4v12h-12.4V150.2z M286.5,149.4V137h12.4v12.4H286.5z
					 M273.7,85.3h12v12.4h-12V85.3z M273.7,98.5h12v12h-12V98.5z M273.7,111.3L273.7,111.3l12,0v0v12.4h-12V111.3z M260.5,85.3h12.4
					h0v12.4h0h-12.4V85.3z M260.5,98.5h12.4h0v12h0h-12.4V98.5z M260.5,111.3L260.5,111.3l12.4,0h0v0v12.4h0h-12.4V111.3z
					 M247.2,85.3h12.4v12.4h-12.4V85.3z M247.2,98.5h12.4v12h-12.4V98.5z M247.2,111.3L247.2,111.3l12.4,0v0v12.4h-12.4V111.3z
					 M234.4,85.3h12v12.4h-12V85.3z M234.4,98.5h12v12h-12V98.5z M234.4,111.3L234.4,111.3l12,0v0v12.4h-12V111.3z M233.6,85.3v12.4
					h-12.4V85.3H233.6z M220.3,85.3v12.4h-11.6V85.3H220.3z M195.5,85.3h12.4v12.4h-12.4V85.3z M195.5,98.5h12.4v12h-12.4V98.5z
					 M195.5,111.3L195.5,111.3l12.4,0v0v12.4h-12.4V111.3z M182.7,85.3h12v12.4h-12V85.3z M182.7,98.5h12v12h-12V98.5z M182.7,111.3
					L182.7,111.3l12,0v0v12.4h-12V111.3z M169.4,85.3h12.4h0v12.4h0h-12.4V85.3z M169.4,98.5h12.4h0v12h0h-12.4V98.5z M169.4,111.3
					L169.4,111.3l12.4,0h0v0v12.4h0h-12.4V111.3z M156.2,85.3h12.4v12.4h-12.4V85.3z M156.2,98.5h12.4v12h-12.4V98.5z M156.2,111.3
					L156.2,111.3l12.4,0v0v12.4h-12.4V111.3z M143.4,85.3h12v12.4h-12V85.3z M143.4,98.5h12v12h-12V98.5z M143.4,111.3L143.4,111.3
					l12,0v0v12.4h-12V111.3z M142.5,85.3v12.4h-12.4V85.3H142.5z M129.3,85.3v12.4h-11.6V85.3H129.3z M104.5,85.3h12.4v12.4h-12.4
					V85.3z M104.5,98.5h12.4v12h-12.4V98.5z M104.5,111.3L104.5,111.3l12.4,0v0v12.4h-12.4V111.3z M91.6,85.3h12v12.4h-12V85.3z
					 M91.6,98.5h12v12h-12V98.5z M91.6,111.3L91.6,111.3l12,0v0v12.4h-12V111.3z M78.4,85.3h12.4h0v12.4h0H78.4V85.3z M78.4,98.5
					h12.4h0v12h0H78.4V98.5z M78.4,111.3L78.4,111.3l12.4,0h0v0v12.4h0H78.4V111.3z M65.2,85.3h12.4v12.4H65.2V85.3z M65.2,98.5
					h12.4v12H65.2V98.5z M65.2,111.3L65.2,111.3l12.4,0v0v12.4H65.2V111.3z M52.3,85.3h12v12.4h-12V85.3z M52.3,98.5h12v12h-12V98.5
					z M52.3,111.3L52.3,111.3l12,0v0v12.4h-12V111.3z M51.5,85.3v12.4H39.1V85.3H51.5z M38.3,85.3v12.4H26.7V85.3H38.3z M13.4,85.3
					h12.4v12.4H13.4V85.3z M13.4,98.5h12.4v12H13.4V98.5z M13.4,111.3L13.4,111.3l12.4,0v0v12.4H13.4V111.3z M0.6,85.3h12v12.4h-12
					V85.3z M0.6,98.5h12v12h-12V98.5z M0.6,111.3L0.6,111.3l12,0v0v12.4h-12V111.3z M-0.2,85.3L-0.2,85.3l0,12.4h0 M-0.2,98.5
					L-0.2,98.5l0,12h0 M-0.2,111.3L-0.2,111.3L-0.2,111.3l0,12.4h0 M-0.2,254.1L-0.2,254.1L-0.2,254.1l0,12.4h0 M-0.2,241.2
					L-0.2,241.2l0,12h0 M-0.2,228L-0.2,228l0,12.4h0 M12.6,254.1v12.4h-12v-12.4v0L12.6,254.1L12.6,254.1z M12.6,253.2h-12v-12h12
					V253.2z M12.6,240.4h-12V228h12V240.4z M13.4,266.5v-12.4v0h12.4v0v12.4H13.4z M26.7,266.5v-12.4v0h11.6v0v12.4H26.7z
					 M51.5,254.1v12.4H39.1v-12.4v0L51.5,254.1L51.5,254.1z M51.5,253.2H39.1v-12h12.4V253.2z M51.5,240.4H39.1V228h12.4V240.4z
					 M64.3,254.1v12.4h-12v-12.4v0L64.3,254.1L64.3,254.1z M64.3,253.2h-12v-12h12V253.2z M64.3,240.4h-12V228h12V240.4z
					 M65.2,266.5v-12.4v0h12.4v0v12.4H65.2z M90.8,254.1v12.4h0H78.4v-12.4v0L90.8,254.1L90.8,254.1L90.8,254.1z M90.8,253.2
					L90.8,253.2H78.4v-12h12.4h0V253.2z M90.8,240.4L90.8,240.4H78.4V228h12.4h0V240.4z M103.6,254.1v12.4h-12v-12.4v0L103.6,254.1
					L103.6,254.1z M103.6,253.2h-12v-12h12V253.2z M103.6,240.4h-12V228h12V240.4z M104.5,266.5v-12.4v0h12.4v0v12.4H104.5z
					 M117.7,266.5v-12.4v0h11.6v0v12.4H117.7z M142.5,254.1v12.4h-12.4v-12.4v0L142.5,254.1L142.5,254.1z M142.5,253.2h-12.4v-12
					h12.4V253.2z M142.5,240.4h-12.4V228h12.4V240.4z M155.4,254.1v12.4h-12v-12.4v0L155.4,254.1L155.4,254.1z M155.4,253.2h-12v-12
					h12V253.2z M155.4,240.4h-12V228h12V240.4z M156.2,266.5v-12.4v0h12.4v0v12.4H156.2z M181.8,254.1v12.4h0h-12.4v-12.4v0
					L181.8,254.1L181.8,254.1L181.8,254.1z M181.8,253.2L181.8,253.2h-12.4v-12h12.4h0V253.2z M181.8,240.4L181.8,240.4h-12.4V228
					h12.4h0V240.4z M194.7,254.1v12.4h-12v-12.4v0L194.7,254.1L194.7,254.1z M194.7,253.2h-12v-12h12V253.2z M194.7,240.4h-12V228
					h12V240.4z M195.5,266.5v-12.4v0h12.4v0v12.4H195.5z M208.7,266.5v-12.4v0h11.6v0v12.4H208.7z M233.6,254.1v12.4h-12.4v-12.4v0
					L233.6,254.1L233.6,254.1z M233.6,253.2h-12.4v-12h12.4V253.2z M233.6,240.4h-12.4V228h12.4V240.4z M246.4,254.1v12.4h-12v-12.4
					v0L246.4,254.1L246.4,254.1z M246.4,253.2h-12v-12h12V253.2z M246.4,240.4h-12V228h12V240.4z M247.2,266.5v-12.4v0h12.4v0v12.4
					H247.2z M272.9,254.1v12.4h0h-12.4v-12.4v0L272.9,254.1L272.9,254.1L272.9,254.1z M272.9,253.2L272.9,253.2h-12.4v-12h12.4h0
					V253.2z M272.9,240.4L272.9,240.4h-12.4V228h12.4h0V240.4z M285.7,254.1v12.4h-12v-12.4v0L285.7,254.1L285.7,254.1z
					 M285.7,253.2h-12v-12h12V253.2z M285.7,240.4h-12V228h12V240.4z M298.9,254.1v12.4h-12.4v-12.4v0L298.9,254.1L298.9,254.1z
					 M298.9,253.2h-12.4v-12h12.4V253.2z M298.9,240.4h-12.4V228h12.4V240.4z M286.5,214.8v-12.4v0h12.4v0v12.4H286.5z M286.5,188.7
					v-12.4h12.4v12.4H286.5z M298.9,163v12.4h-12.4V163v0L298.9,163L298.9,163z M286.5,123.7v-12.4v0h12.4v0v12.4H286.5z"/>
			</g>
			<linearGradient id="SVGID_8_" gradientUnits="userSpaceOnUse" x1="162.8056" y1="291.6743" x2="162.8056" y2="85.2422">
				<stop  offset="5.712154e-03" style="stop-color:#484495"/>
				<stop  offset="1" style="stop-color:#009FE3"/>
			</linearGradient>
			<polygon class="st5" points="17.7,192.9 169.4,175.4 307.9,187.7 307.9,283.4 17.7,279.7 			"/>
			<g>
				<g>
					<polygon class="st6" points="16.6,193.5 16.9,189.1 169.1,171.1 307.9,183.4 307.9,187.7 169.4,175.4 					"/>
				</g>
			</g>
			<linearGradient id="SVGID_9_" gradientUnits="userSpaceOnUse" x1="162.2986" y1="291.6743" x2="162.2986" y2="85.2422">
				<stop  offset="5.712154e-03" style="stop-color:#484495"/>
				<stop  offset="1" style="stop-color:#009FE3"/>
			</linearGradient>
			<polygon class="st7" points="17.2,192.9 168.9,175.4 307.4,187.7 307.4,283.4 17.2,279.7 			"/>
		</g>
	</g>
	<g>
		<g>
			<path class="st8" d="M160.1,115.9c36.7,0,66.4,29.7,66.4,66.4v0c0,36.7-29.7,66.4-66.4,66.4h0c-36.7,0-66.4-29.7-66.4-66.4v0
				C93.7,145.6,123.4,115.9,160.1,115.9L160.1,115.9 M160.1,104c-43.2,0-78.3,35.1-78.3,78.3s35.1,78.3,78.3,78.3
				c43.2,0,78.3-35.1,78.3-78.3S203.2,104,160.1,104L160.1,104z"/>
			<path class="st9" d="M160.1,263.4c-44.7,0-81.1-36.4-81.1-81.1s36.4-81.1,81.1-81.1s81.1,36.4,81.1,81.1S204.8,263.4,160.1,263.4
				z M160.1,106.8c-41.6,0-75.5,33.9-75.5,75.5s33.9,75.5,75.5,75.5s75.5-33.9,75.5-75.5S201.7,106.8,160.1,106.8z M160.1,251.5
				c-38.2,0-69.2-31-69.2-69.2s31-69.2,69.2-69.2s69.2,31,69.2,69.2S198.2,251.5,160.1,251.5z M160.1,118.7
				c-35.1,0-63.6,28.5-63.6,63.6s28.5,63.6,63.6,63.6s63.6-28.5,63.6-63.6S195.2,118.7,160.1,118.7z"/>
		</g>
	</g>
	<g>
		<g>
			<g>
				<path class="st8" d="M207.3,154.5c-4.8-8.4-11.4-15-19.7-19.8c-3.6-2.1-7.5-3.7-11.5-4.9c-4.4-1.3-8.8,2.2-8.8,6.8v0
					c0,3.1,2.1,5.7,5,6.7c2.7,0.9,5.2,2,7.7,3.5c6,3.6,10.8,8.5,14.3,14.8c3.5,6.2,5.2,13.2,5.2,21c0,7.8-1.7,14.7-5.2,21
					c-3.5,6.2-8.2,11.1-14.3,14.7c-1.6,1-3.3,1.7-5.1,2.4v-3.3v-7.4v-6.3v-10.9c0-2.2-0.7-4-2.1-5.5c-1.4-1.4-3.3-2.2-5.5-2.2
					c-2.1,0-3.9,0.7-5.4,2.2c-1.5,1.4-2.2,3.3-2.2,5.5v11v6.3v7.9v6.1v5c0,2.1,0.7,3.9,2.2,5.4c1.5,1.5,3.3,2.2,5.4,2.2
					c1.2,0,2.2-0.2,3.2-0.7c3.9-0.9,7.5-2.2,11-4c7.1-3.6,12.9-8.6,17.5-14.9v11.8c0,2.2,0.7,4,2.2,5.4c1.4,1.4,3.3,2.1,5.5,2.1
					c2.2,0,4.1-0.7,5.5-2.2c1.4-1.4,2.2-3.2,2.2-5.3v-46.3C214.5,172.2,212.1,162.9,207.3,154.5z"/>
			</g>
		</g>
		<g>
			<g>
				<path class="st8" d="M159.7,166.8v-6.6v-7.4v-6.3v-10.9c0-2.2-0.7-4-2.1-5.5c-1.4-1.4-3.3-2.2-5.5-2.2c-0.9,0-1.8,0.2-2.6,0.5
					c-6.3,1.1-12.2,3.1-17.6,6.3c-8.3,4.8-14.9,11.4-19.7,19.8c-4.8,8.4-7.2,17.7-7.2,28c0,10.2,2.3,19.5,7,27.9
					c4.7,8.3,11,14.9,19.1,19.7c3.8,2.2,7.7,3.9,11.9,5.1c4.6,1.3,9.1-2.1,9.1-6.8c0-3.2-2.1-5.9-5.2-6.8c-2.6-0.8-5.2-2-7.6-3.4
					c-6.1-3.5-10.9-8.4-14.4-14.7c-3.5-6.2-5.2-13.2-5.2-21c0-7.8,1.7-14.7,5.2-21c3.5-6.2,8.3-11.2,14.4-14.8
					c1.7-1,3.4-1.8,5.2-2.5v2.3v6.3v7.9v6.1v5c0,2.1,0.7,3.9,2.2,5.4c1.5,1.5,3.3,2.2,5.4,2.2c2.2,0,4-0.7,5.5-2.2
					c1.4-1.5,2.1-3.3,2.1-5.4V166.8z"/>
			</g>
		</g>
	</g>
	<g>
		<g>
			<rect x="90.2" y="112.5" class="st10" width="139.7" height="139.7"/>
		</g>
	</g>
	<g>
		<g>
			<path class="st10" d="M160.1,252.1L160.1,252.1c-38.6,0-69.8-31.3-69.8-69.8v0c0-38.6,31.3-69.8,69.8-69.8h0
				c38.6,0,69.8,31.3,69.8,69.8v0C229.9,220.9,198.6,252.1,160.1,252.1z"/>
		</g>
	</g>
</g>
<g>
	<linearGradient id="SVGID_10_" gradientUnits="userSpaceOnUse" x1="425.0589" y1="291.3379" x2="425.0589" y2="-71.5873">
		<stop  offset="5.712154e-03" style="stop-color:#454545"/>
		<stop  offset="1" style="stop-color:#B2B2B2"/>
	</linearGradient>
	<circle class="st11" cx="425.1" cy="181.9" r="95"/>
	<g>
		<defs>
			<circle id="SVGID_11_" cx="424.4" cy="178.4" r="77.7"/>
		</defs>
		<clipPath id="SVGID_12_">
			<use xlink:href="#SVGID_11_"  style="overflow:visible;"/>
		</clipPath>
		<g class="st12">
			<linearGradient id="SVGID_13_" gradientUnits="userSpaceOnUse" x1="427.4744" y1="376.5412" x2="427.4744" y2="-8.8786">
				<stop  offset="5.712154e-03" style="stop-color:#454545"/>
				<stop  offset="1" style="stop-color:#B2B2B2"/>
			</linearGradient>
			<rect x="282.7" y="74.5" class="st13" width="289.6" height="204.8"/>
			<g>
				<defs>
					<rect id="SVGID_14_" x="282.7" y="74.5" width="289.6" height="204.8"/>
				</defs>
				<clipPath id="SVGID_15_">
					<use xlink:href="#SVGID_14_"  style="overflow:visible;"/>
				</clipPath>
				<path class="st14" d="M264.8,266.9L264.8,266.9l0,12.4h0.8v-12.4h12v12.4h0.8v-12.4h12.4v12.4h0.8v-12.4h11.6v12.4h0.8v-12.4
					h12.4v12.4h0.8v-12.4h12v12.4h0.8v-12.4h12.4v12.4h0h0.8v-12.4h12.4h0v12.4h0.8v-12.4h12v12.4h0.8v-12.4h12.4v12.4h0.8v-12.4
					h11.6v12.4h0.8v-12.4h12.4v12.4h0.8v-12.4h12v12.4h0.8v-12.4h12.4v12.4h0h0.8v-12.4h12.4h0v12.4h0.8v-12.4h12v12.4h0.8v-12.4
					h12.4v12.4h0.8v-12.4h11.6v12.4h0.8v-12.4h12.4v12.4h0.8v-12.4h12v12.4h0.8v-12.4h12.4v12.4l0,0h0.8v-12.4h12.4h0v12.4h0.8
					v-12.4h12v12.4h0.8v-12.4h12.4v12.4h0.8v-12.4h12.4V266h-12.4v-12.4v0h12.4v-0.8h-12.4v-12h12.4V240h-12.4v-12.4h12.4v-0.8
					h-12.4v-11.6h12.4v-0.8h-12.4v-12.4v0h12.4v-0.8h-12.4v-12h12.4v-0.8h-12.4v-12.4h12.4V175h-12.4v-12.4v0h12.4v-0.8h-12.4v-12
					h12.4v-0.8h-12.4v-12.4h12.4v-0.8h-12.4v-11.6h12.4v-0.8h-12.4v-12.4v0h12.4V110h-12.4V98h12.4v-0.8h-12.4V84.8h12.4V84h-12.4
					V71.6h-0.8V84h-12.4V71.6h-0.8V84h-12V71.6h-0.8V84h0h-12.4V71.6h-0.8l0,0V84h-12.4V71.6h-0.8V84h-12V71.6h-0.8V84h-12.4V71.6
					h-0.8V84h-11.6V71.6h-0.8V84h-12.4V71.6h-0.8V84h-12V71.6h-0.8V84h0h-12.4V71.6h-0.8h0V84h-12.4V71.6h-0.8V84h-12V71.6h-0.8V84
					h-12.4V71.6h-0.8V84h-11.6V71.6h-0.8V84h-12.4V71.6h-0.8V84h-12V71.6h-0.8V84h0h-12.4V71.6h-0.8h0V84h-12.4V71.6h-0.8V84h-12
					V71.6h-0.8V84h-12.4V71.6h-0.8V84h-11.6V71.6h-0.8V84h-12.4V71.6h-0.8V84h-12V71.6h-0.8V84h0 M551.5,84.8h12.4v12.4h-12.4V84.8z
					 M551.5,98h12.4v12h-12.4V98z M563.9,135.7h-12.4v-11.6h12.4V135.7z M551.5,189.1h12.4v12h-12.4V189.1z M563.9,226.7h-12.4
					v-11.6h12.4V226.7z M524.6,240h-12.4v-12.4h12.4V240z M524.6,252.8h-12.4v-12h12.4V252.8z M485.3,240h-11.6v-12.4h11.6V240z
					 M485.3,252.8h-11.6v-12h11.6V252.8z M433.6,240h-12.4v-12.4h12.4V240z M433.6,252.8h-12.4v-12h12.4V252.8z M394.3,240h-11.6
					v-12.4h11.6V240z M394.3,252.8h-11.6v-12h11.6V252.8z M342.6,240h-12.4v-12.4h12.4V240z M342.6,252.8h-12.4v-12h12.4V252.8z
					 M303.3,240h-11.6v-12.4h11.6V240z M303.3,252.8h-11.6v-12h11.6V252.8z M291.7,110.9L291.7,110.9l11.6,0v0v12.4h-11.6V110.9z
					 M291.7,98h11.6v12h-11.6V98z M382.7,110.9L382.7,110.9l11.6,0v0v12.4h-11.6V110.9z M382.7,98h11.6v12h-11.6V98z M473.7,110.9
					L473.7,110.9l11.6,0v0v12.4h-11.6V110.9z M473.7,98h11.6v12h-11.6V98z M538.7,148.9v-12.4h12v12.4H538.7z M550.7,149.8v12h-12
					v-12H550.7z M538.7,135.7v-11.6h12v11.6H538.7z M538.7,189.1h12v12h-12V189.1z M485.3,226.7h-11.6v-11.6h11.6V226.7z M472.9,240
					h-12.4v-12.4h12.4V240z M394.3,226.7h-11.6v-11.6h11.6V226.7z M381.9,240h-12.4v-12.4h12.4V240z M303.3,226.7h-11.6v-11.6h11.6
					V226.7z M290.8,240h-12.4v-12.4h12.4V240z M304.1,124.1h12.4v11.6h-12.4V124.1z M395.1,124.1h12.4v11.6h-12.4V124.1z
					 M486.1,124.1h12.4v11.6h-12.4V124.1z M537.9,148.9h-12.4v-12.4h12.4h0L537.9,148.9L537.9,148.9z M537.9,149.8v12h0h-12.4v-12
					H537.9L537.9,149.8z M525.4,189.1h12.4h0v12h0h-12.4V189.1z M264.8,189.1L264.8,189.1l0,12h0 M264.8,175.8L264.8,175.8l0,12.4h0
					 M265.6,189.1h12v12h-12V189.1z M265.6,188.2v-12.4h12v12.4H265.6z M291.7,162.6L291.7,162.6l11.6,0v0V175h-11.6V162.6z
					 M291.7,149.8h11.6v12h-11.6V149.8z M304.1,162.6L304.1,162.6l12.4,0v0V175h-12.4V162.6z M316.5,161.8h-12.4v-12h12.4V161.8z
					 M303.3,175.8v12.4h-11.6v-12.4H303.3z M290.8,188.2h-12.4v-12.4h12.4V188.2z M278.4,189.1h12.4v12h-12.4V189.1z M291.7,189.1
					h11.6v12h-11.6V189.1z M304.1,189.1h12.4v12h-12.4V189.1z M304.1,188.2v-12.4h12.4v12.4H304.1z M317.3,189.1h12v12h-12V189.1z
					 M317.3,188.2v-12.4h12v12.4H317.3z M330.1,189.1h12.4v12h-12.4V189.1z M330.1,188.2v-12.4h12.4v12.4H330.1z M343.4,189.1h12.4
					h0v12h0h-12.4V189.1z M355.8,188.2h-12.4v-12.4h12.4h0L355.8,188.2L355.8,188.2z M356.6,189.1h12v12h-12V189.1z M356.6,188.2
					v-12.4h12v12.4H356.6z M382.7,162.6L382.7,162.6l11.6,0v0V175h-11.6V162.6z M382.7,149.8h11.6v12h-11.6V149.8z M395.1,162.6
					L395.1,162.6l12.4,0v0V175h-12.4V162.6z M407.5,161.8h-12.4v-12h12.4V161.8z M394.3,175.8v12.4h-11.6v-12.4H394.3z M381.9,188.2
					h-12.4v-12.4h12.4V188.2z M369.5,189.1h12.4v12h-12.4V189.1z M382.7,189.1h11.6v12h-11.6V189.1z M395.1,189.1h12.4v12h-12.4
					V189.1z M395.1,188.2v-12.4h12.4v12.4H395.1z M408.4,189.1h12v12h-12V189.1z M408.4,188.2v-12.4h12v12.4H408.4z M421.2,189.1
					h12.4v12h-12.4V189.1z M421.2,188.2v-12.4h12.4v12.4H421.2z M434.4,189.1h12.4h0v12h0h-12.4V189.1z M446.8,188.2h-12.4v-12.4
					h12.4h0L446.8,188.2L446.8,188.2z M447.7,189.1h12v12h-12V189.1z M447.7,188.2v-12.4h12v12.4H447.7z M473.7,162.6L473.7,162.6
					l11.6,0v0V175h-11.6V162.6z M473.7,149.8h11.6v12h-11.6V149.8z M486.1,162.6L486.1,162.6l12.4,0v0V175h-12.4V162.6z
					 M498.6,161.8h-12.4v-12h12.4V161.8z M485.3,175.8v12.4h-11.6v-12.4H485.3z M472.9,188.2h-12.4v-12.4h12.4V188.2z M460.5,189.1
					h12.4v12h-12.4V189.1z M473.7,189.1h11.6v12h-11.6V189.1z M486.1,189.1h12.4v12h-12.4V189.1z M486.1,188.2v-12.4h12.4v12.4
					H486.1z M499.4,189.1h12v12h-12V189.1z M499.4,188.2v-12.4h12v12.4H499.4z M512.2,189.1h12.4v12h-12.4V189.1z M512.2,188.2
					v-12.4h12.4v12.4H512.2z M524.6,148.9h-12.4v-12.4h12.4V148.9z M524.6,149.8v12h-12.4v-12H524.6z M524.6,162.6L524.6,162.6V175
					h-12.4v-12.4v0H524.6z M511.4,162.6V175h-12v-12.4v0L511.4,162.6L511.4,162.6z M499.4,161.8v-12h12v12H499.4z M511.4,148.9h-12
					v-12.4h12V148.9z M498.6,136.5v12.4h-12.4v-12.4H498.6z M485.3,148.9h-11.6v-12.4h11.6V148.9z M472.9,148.9h-12.4v-12.4h12.4
					V148.9z M472.9,149.8v12h-12.4v-12H472.9z M472.9,162.6L472.9,162.6V175h-12.4v-12.4v0H472.9z M459.7,148.9h-12v-12.4h12V148.9z
					 M459.7,149.8v12h-12v-12H459.7z M459.7,162.6L459.7,162.6V175h-12v-12.4v0H459.7z M446.8,162.6V175h0h-12.4v-12.4v0
					L446.8,162.6L446.8,162.6L446.8,162.6z M434.4,161.8v-12h12.4h0v12h0H434.4z M446.8,148.9L446.8,148.9h-12.4v-12.4h12.4h0V148.9
					z M433.6,148.9h-12.4v-12.4h12.4V148.9z M433.6,149.8v12h-12.4v-12H433.6z M433.6,162.6L433.6,162.6V175h-12.4v-12.4v0H433.6z
					 M420.4,162.6V175h-12v-12.4v0L420.4,162.6L420.4,162.6z M408.4,161.8v-12h12v12H408.4z M420.4,148.9h-12v-12.4h12V148.9z
					 M407.5,136.5v12.4h-12.4v-12.4H407.5z M394.3,148.9h-11.6v-12.4h11.6V148.9z M381.9,148.9h-12.4v-12.4h12.4V148.9z
					 M381.9,149.8v12h-12.4v-12H381.9z M381.9,162.6L381.9,162.6V175h-12.4v-12.4v0H381.9z M368.6,148.9h-12v-12.4h12V148.9z
					 M368.6,149.8v12h-12v-12H368.6z M368.6,162.6L368.6,162.6V175h-12v-12.4v0H368.6z M355.8,162.6V175h0h-12.4v-12.4v0
					L355.8,162.6L355.8,162.6L355.8,162.6z M343.4,161.8v-12h12.4h0v12h0H343.4z M355.8,148.9L355.8,148.9h-12.4v-12.4h12.4h0V148.9
					z M342.6,148.9h-12.4v-12.4h12.4V148.9z M342.6,149.8v12h-12.4v-12H342.6z M342.6,162.6L342.6,162.6V175h-12.4v-12.4v0H342.6z
					 M329.3,162.6V175h-12v-12.4v0L329.3,162.6L329.3,162.6z M317.3,161.8v-12h12v12H317.3z M329.3,148.9h-12v-12.4h12V148.9z
					 M316.5,136.5v12.4h-12.4v-12.4H316.5z M303.3,148.9h-11.6v-12.4h11.6V148.9z M290.8,148.9h-12.4v-12.4h12.4V148.9z
					 M290.8,149.8v12h-12.4v-12H290.8z M290.8,162.6L290.8,162.6V175h-12.4v-12.4v0H290.8z M277.6,148.9h-12v-12.4h12V148.9z
					 M277.6,149.8v12h-12v-12H277.6z M277.6,162.6L277.6,162.6V175h-12v-12.4v0H277.6z M264.8,162.6L264.8,162.6L264.8,162.6l0,12.4
					h0 M264.8,149.8L264.8,149.8l0,12h0 M264.8,136.5L264.8,136.5l0,12.4h0 M264.8,201.9L264.8,201.9L264.8,201.9l0,12.4h0
					 M265.6,201.9L265.6,201.9l12,0v0v12.4h-12V201.9z M278.4,201.9L278.4,201.9l12.4,0v0v12.4h-12.4V201.9z M278.4,215.1h12.4v11.6
					h-12.4V215.1z M291.7,214.3v-12.4v0h11.6v0v12.4H291.7z M304.1,201.9L304.1,201.9l12.4,0v0v12.4h-12.4V201.9z M317.3,201.9
					L317.3,201.9l12,0v0v12.4h-12V201.9z M330.1,201.9L330.1,201.9l12.4,0v0v12.4h-12.4V201.9z M343.4,201.9L343.4,201.9l12.4,0h0v0
					v12.4h0h-12.4V201.9z M356.6,201.9L356.6,201.9l12,0v0v12.4h-12V201.9z M369.5,201.9L369.5,201.9l12.4,0v0v12.4h-12.4V201.9z
					 M369.5,215.1h12.4v11.6h-12.4V215.1z M382.7,214.3v-12.4v0h11.6v0v12.4H382.7z M395.1,201.9L395.1,201.9l12.4,0v0v12.4h-12.4
					V201.9z M408.4,201.9L408.4,201.9l12,0v0v12.4h-12V201.9z M421.2,201.9L421.2,201.9l12.4,0v0v12.4h-12.4V201.9z M434.4,201.9
					L434.4,201.9l12.4,0h0v0v12.4h0h-12.4V201.9z M447.7,201.9L447.7,201.9l12,0v0v12.4h-12V201.9z M460.5,201.9L460.5,201.9l12.4,0
					v0v12.4h-12.4V201.9z M460.5,215.1h12.4v11.6h-12.4V215.1z M473.7,214.3v-12.4v0h11.6v0v12.4H473.7z M486.1,201.9L486.1,201.9
					l12.4,0v0v12.4h-12.4V201.9z M499.4,201.9L499.4,201.9l12,0v0v12.4h-12V201.9z M512.2,201.9L512.2,201.9l12.4,0v0v12.4h-12.4
					V201.9z M525.4,201.9L525.4,201.9l12.4,0h0v0v12.4h0h-12.4V201.9z M537.9,188.2h-12.4v-12.4h12.4h0L537.9,188.2L537.9,188.2z
					 M537.9,162.6V175h0h-12.4v-12.4v0L537.9,162.6L537.9,162.6L537.9,162.6z M537.9,135.7L537.9,135.7h-12.4v-11.6h12.4h0V135.7z
					 M524.6,135.7h-12.4v-11.6h12.4V135.7z M511.4,135.7h-12v-11.6h12V135.7z M486.1,123.3v-12.4v0h12.4v0v12.4H486.1z M498.6,110
					h-12.4V98h12.4V110z M485.3,124.1v11.6h-11.6v-11.6H485.3z M472.9,135.7h-12.4v-11.6h12.4V135.7z M459.7,135.7h-12v-11.6h12
					V135.7z M446.8,135.7L446.8,135.7h-12.4v-11.6h12.4h0V135.7z M433.6,135.7h-12.4v-11.6h12.4V135.7z M420.4,135.7h-12v-11.6h12
					V135.7z M395.1,123.3v-12.4v0h12.4v0v12.4H395.1z M407.5,110h-12.4V98h12.4V110z M394.3,124.1v11.6h-11.6v-11.6H394.3z
					 M381.9,135.7h-12.4v-11.6h12.4V135.7z M368.6,135.7h-12v-11.6h12V135.7z M355.8,135.7L355.8,135.7h-12.4v-11.6h12.4h0V135.7z
					 M342.6,135.7h-12.4v-11.6h12.4V135.7z M329.3,135.7h-12v-11.6h12V135.7z M304.1,123.3v-12.4v0h12.4v0v12.4H304.1z M316.5,110
					h-12.4V98h12.4V110z M303.3,124.1v11.6h-11.6v-11.6H303.3z M290.8,135.7h-12.4v-11.6h12.4V135.7z M277.6,135.7h-12v-11.6h12
					V135.7z M264.8,124.1L264.8,124.1l0,11.6h0 M264.8,215.1L264.8,215.1l0,11.6h0 M265.6,215.1h12v11.6h-12V215.1z M278.4,240.8
					h12.4v12h-12.4V240.8z M304.1,215.1h12.4v11.6h-12.4V215.1z M317.3,215.1h12v11.6h-12V215.1z M330.1,226.7v-11.6h12.4v11.6
					H330.1z M343.4,215.1h12.4h0v11.6h0h-12.4V215.1z M356.6,215.1h12v11.6h-12V215.1z M369.5,240.8h12.4v12h-12.4V240.8z
					 M395.1,215.1h12.4v11.6h-12.4V215.1z M408.4,215.1h12v11.6h-12V215.1z M421.2,226.7v-11.6h12.4v11.6H421.2z M434.4,215.1h12.4
					h0v11.6h0h-12.4V215.1z M447.7,215.1h12v11.6h-12V215.1z M460.5,240.8h12.4v12h-12.4V240.8z M486.1,215.1h12.4v11.6h-12.4V215.1
					z M499.4,215.1h12v11.6h-12V215.1z M512.2,226.7v-11.6h12.4v11.6H512.2z M525.4,215.1h12.4h0v11.6h0h-12.4V215.1z M538.7,215.1
					h12v11.6h-12V215.1z M538.7,214.3v-12.4v0h12v0v12.4H538.7z M538.7,188.2v-12.4h12v12.4H538.7z M550.7,162.6V175h-12v-12.4v0
					L550.7,162.6L550.7,162.6z M551.5,149.8h12.4v12h-12.4V149.8z M551.5,148.9v-12.4h12.4v12.4H551.5z M538.7,84.8h12v12.4h-12
					V84.8z M538.7,98h12v12h-12V98z M538.7,110.9L538.7,110.9l12,0v0v12.4h-12V110.9z M525.4,84.8h12.4h0v12.4h0h-12.4V84.8z
					 M525.4,98h12.4h0v12h0h-12.4V98z M525.4,110.9L525.4,110.9l12.4,0h0v0v12.4h0h-12.4V110.9z M512.2,84.8h12.4v12.4h-12.4V84.8z
					 M512.2,98h12.4v12h-12.4V98z M512.2,110.9L512.2,110.9l12.4,0v0v12.4h-12.4V110.9z M499.4,84.8h12v12.4h-12V84.8z M499.4,98h12
					v12h-12V98z M499.4,110.9L499.4,110.9l12,0v0v12.4h-12V110.9z M498.6,84.8v12.4h-12.4V84.8H498.6z M485.3,84.8v12.4h-11.6V84.8
					H485.3z M460.5,84.8h12.4v12.4h-12.4V84.8z M460.5,98h12.4v12h-12.4V98z M460.5,110.9L460.5,110.9l12.4,0v0v12.4h-12.4V110.9z
					 M447.7,84.8h12v12.4h-12V84.8z M447.7,98h12v12h-12V98z M447.7,110.9L447.7,110.9l12,0v0v12.4h-12V110.9z M434.4,84.8h12.4h0
					v12.4h0h-12.4V84.8z M434.4,98h12.4h0v12h0h-12.4V98z M434.4,110.9L434.4,110.9l12.4,0h0v0v12.4h0h-12.4V110.9z M421.2,84.8
					h12.4v12.4h-12.4V84.8z M421.2,98h12.4v12h-12.4V98z M421.2,110.9L421.2,110.9l12.4,0v0v12.4h-12.4V110.9z M408.4,84.8h12v12.4
					h-12V84.8z M408.4,98h12v12h-12V98z M408.4,110.9L408.4,110.9l12,0v0v12.4h-12V110.9z M407.5,84.8v12.4h-12.4V84.8H407.5z
					 M394.3,84.8v12.4h-11.6V84.8H394.3z M369.5,84.8h12.4v12.4h-12.4V84.8z M369.5,98h12.4v12h-12.4V98z M369.5,110.9L369.5,110.9
					l12.4,0v0v12.4h-12.4V110.9z M356.6,84.8h12v12.4h-12V84.8z M356.6,98h12v12h-12V98z M356.6,110.9L356.6,110.9l12,0v0v12.4h-12
					V110.9z M343.4,84.8h12.4h0v12.4h0h-12.4V84.8z M343.4,98h12.4h0v12h0h-12.4V98z M343.4,110.9L343.4,110.9l12.4,0h0v0v12.4h0
					h-12.4V110.9z M330.1,84.8h12.4v12.4h-12.4V84.8z M330.1,98h12.4v12h-12.4V98z M330.1,110.9L330.1,110.9l12.4,0v0v12.4h-12.4
					V110.9z M317.3,84.8h12v12.4h-12V84.8z M317.3,98h12v12h-12V98z M317.3,110.9L317.3,110.9l12,0v0v12.4h-12V110.9z M316.5,84.8
					v12.4h-12.4V84.8H316.5z M303.3,84.8v12.4h-11.6V84.8H303.3z M278.4,84.8h12.4v12.4h-12.4V84.8z M278.4,98h12.4v12h-12.4V98z
					 M278.4,110.9L278.4,110.9l12.4,0v0v12.4h-12.4V110.9z M265.6,84.8h12v12.4h-12V84.8z M265.6,98h12v12h-12V98z M265.6,110.9
					L265.6,110.9l12,0v0v12.4h-12V110.9z M264.8,84.8L264.8,84.8l0,12.4h0 M264.8,98L264.8,98l0,12h0 M264.8,110.9L264.8,110.9
					L264.8,110.9l0,12.4h0 M264.8,253.6L264.8,253.6L264.8,253.6l0,12.4h0 M264.8,240.8L264.8,240.8l0,12h0 M264.8,227.5
					L264.8,227.5l0,12.4h0 M277.6,253.6V266h-12v-12.4v0L277.6,253.6L277.6,253.6z M277.6,252.8h-12v-12h12V252.8z M277.6,240h-12
					v-12.4h12V240z M278.4,266v-12.4v0h12.4v0V266H278.4z M291.7,266v-12.4v0h11.6v0V266H291.7z M316.5,253.6V266h-12.4v-12.4v0
					L316.5,253.6L316.5,253.6z M316.5,252.8h-12.4v-12h12.4V252.8z M316.5,240h-12.4v-12.4h12.4V240z M329.3,253.6V266h-12v-12.4v0
					L329.3,253.6L329.3,253.6z M329.3,252.8h-12v-12h12V252.8z M329.3,240h-12v-12.4h12V240z M330.1,266v-12.4v0h12.4v0V266H330.1z
					 M355.8,253.6V266h0h-12.4v-12.4v0L355.8,253.6L355.8,253.6L355.8,253.6z M355.8,252.8L355.8,252.8h-12.4v-12h12.4h0V252.8z
					 M355.8,240L355.8,240h-12.4v-12.4h12.4h0V240z M368.6,253.6V266h-12v-12.4v0L368.6,253.6L368.6,253.6z M368.6,252.8h-12v-12h12
					V252.8z M368.6,240h-12v-12.4h12V240z M369.5,266v-12.4v0h12.4v0V266H369.5z M382.7,266v-12.4v0h11.6v0V266H382.7z M407.5,253.6
					V266h-12.4v-12.4v0L407.5,253.6L407.5,253.6z M407.5,252.8h-12.4v-12h12.4V252.8z M407.5,240h-12.4v-12.4h12.4V240z
					 M420.4,253.6V266h-12v-12.4v0L420.4,253.6L420.4,253.6z M420.4,252.8h-12v-12h12V252.8z M420.4,240h-12v-12.4h12V240z
					 M421.2,266v-12.4v0h12.4v0V266H421.2z M446.8,253.6V266h0h-12.4v-12.4v0L446.8,253.6L446.8,253.6L446.8,253.6z M446.8,252.8
					L446.8,252.8h-12.4v-12h12.4h0V252.8z M446.8,240L446.8,240h-12.4v-12.4h12.4h0V240z M459.7,253.6V266h-12v-12.4v0L459.7,253.6
					L459.7,253.6z M459.7,252.8h-12v-12h12V252.8z M459.7,240h-12v-12.4h12V240z M460.5,266v-12.4v0h12.4v0V266H460.5z M473.7,266
					v-12.4v0h11.6v0V266H473.7z M498.6,253.6V266h-12.4v-12.4v0L498.6,253.6L498.6,253.6z M498.6,252.8h-12.4v-12h12.4V252.8z
					 M498.6,240h-12.4v-12.4h12.4V240z M511.4,253.6V266h-12v-12.4v0L511.4,253.6L511.4,253.6z M511.4,252.8h-12v-12h12V252.8z
					 M511.4,240h-12v-12.4h12V240z M512.2,266v-12.4v0h12.4v0V266H512.2z M537.9,253.6V266h0h-12.4v-12.4v0L537.9,253.6L537.9,253.6
					L537.9,253.6z M537.9,252.8L537.9,252.8h-12.4v-12h12.4h0V252.8z M537.9,240L537.9,240h-12.4v-12.4h12.4h0V240z M550.7,253.6
					V266h-12v-12.4v0L550.7,253.6L550.7,253.6z M550.7,252.8h-12v-12h12V252.8z M550.7,240h-12v-12.4h12V240z M563.9,253.6V266
					h-12.4v-12.4v0L563.9,253.6L563.9,253.6z M563.9,252.8h-12.4v-12h12.4V252.8z M563.9,240h-12.4v-12.4h12.4V240z M551.5,214.3
					v-12.4v0h12.4v0v12.4H551.5z M551.5,188.2v-12.4h12.4v12.4H551.5z M563.9,162.6V175h-12.4v-12.4v0L563.9,162.6L563.9,162.6z
					 M551.5,123.3v-12.4v0h12.4v0v12.4H551.5z"/>
			</g>
			<linearGradient id="SVGID_16_" gradientUnits="userSpaceOnUse" x1="427.7932" y1="291.2178" x2="427.7932" y2="84.7857">
				<stop  offset="5.712154e-03" style="stop-color:#454545"/>
				<stop  offset="1" style="stop-color:#B2B2B2"/>
			</linearGradient>
			<polygon class="st15" points="282.7,192.5 434.4,174.9 572.9,187.2 572.9,283 282.7,279.3 			"/>
			<g>
				<g>
					<polygon class="st16" points="281.6,193.1 281.9,188.7 434.1,170.6 572.9,182.9 572.9,187.2 434.4,174.9 					"/>
				</g>
			</g>
			<linearGradient id="SVGID_17_" gradientUnits="userSpaceOnUse" x1="427.2863" y1="291.2178" x2="427.2863" y2="84.7857">
				<stop  offset="5.712154e-03" style="stop-color:#454545"/>
				<stop  offset="1" style="stop-color:#B2B2B2"/>
			</linearGradient>
			<polygon class="st17" points="282.1,192.5 433.9,174.9 572.4,187.2 572.4,283 282.1,279.3 			"/>
		</g>
	</g>
	<g>
		<g>
			<path class="st18" d="M425.1,115.4c36.7,0,66.4,29.7,66.4,66.4v0c0,36.7-29.7,66.4-66.4,66.4h0c-36.7,0-66.4-29.7-66.4-66.4v0
				C358.6,145.2,388.4,115.4,425.1,115.4L425.1,115.4 M425.1,103.6c-43.2,0-78.3,35.1-78.3,78.3s35.1,78.3,78.3,78.3
				c43.2,0,78.3-35.1,78.3-78.3S468.2,103.6,425.1,103.6L425.1,103.6z"/>
			<path class="st19" d="M425.1,262.9c-44.7,0-81.1-36.4-81.1-81.1s36.4-81.1,81.1-81.1s81.1,36.4,81.1,81.1
				S469.8,262.9,425.1,262.9z M425.1,106.4c-41.6,0-75.5,33.9-75.5,75.5s33.9,75.5,75.5,75.5s75.5-33.9,75.5-75.5
				S466.7,106.4,425.1,106.4z M425.1,251.1c-38.2,0-69.2-31-69.2-69.2s31-69.2,69.2-69.2s69.2,31,69.2,69.2S463.2,251.1,425.1,251.1
				z M425.1,118.2c-35.1,0-63.6,28.5-63.6,63.6s28.5,63.6,63.6,63.6s63.6-28.5,63.6-63.6S460.1,118.2,425.1,118.2z"/>
		</g>
	</g>
	<g>
		<g>
			<g>
				<path class="st18" d="M472.3,154c-4.8-8.4-11.4-15-19.7-19.8c-3.6-2.1-7.5-3.7-11.5-4.9c-4.4-1.3-8.8,2.2-8.8,6.8v0
					c0,3.1,2.1,5.7,5,6.7c2.7,0.9,5.2,2,7.7,3.5c6,3.6,10.8,8.5,14.3,14.8c3.5,6.2,5.2,13.2,5.2,21c0,7.8-1.7,14.7-5.2,21
					c-3.5,6.2-8.2,11.1-14.3,14.7c-1.6,1-3.3,1.7-5.1,2.4v-3.3v-7.4v-6.3v-10.9c0-2.2-0.7-4-2.1-5.5c-1.4-1.4-3.3-2.2-5.5-2.2
					c-2.1,0-3.9,0.7-5.4,2.2c-1.5,1.4-2.2,3.3-2.2,5.5v11v6.3v7.9v6.1v5c0,2.1,0.7,3.9,2.2,5.4c1.5,1.5,3.3,2.2,5.4,2.2
					c1.2,0,2.2-0.2,3.2-0.7c3.9-0.9,7.5-2.2,11-4c7.1-3.6,12.9-8.6,17.5-14.9v11.8c0,2.2,0.7,4,2.2,5.4c1.4,1.4,3.3,2.1,5.5,2.1
					c2.2,0,4.1-0.7,5.5-2.2c1.4-1.4,2.2-3.2,2.2-5.3V182C479.5,171.7,477.1,162.4,472.3,154z"/>
			</g>
		</g>
		<g>
			<g>
				<path class="st18" d="M424.7,166.3v-6.6v-7.4v-6.3v-10.9c0-2.2-0.7-4-2.1-5.5c-1.4-1.4-3.3-2.2-5.5-2.2c-0.9,0-1.8,0.2-2.6,0.5
					c-6.3,1.1-12.2,3.1-17.6,6.3c-8.3,4.8-14.9,11.4-19.7,19.8c-4.8,8.4-7.2,17.7-7.2,28s2.3,19.5,7,27.9c4.7,8.3,11,14.9,19.1,19.7
					c3.8,2.2,7.7,3.9,11.9,5.1c4.6,1.3,9.1-2.1,9.1-6.8c0-3.2-2.1-5.9-5.2-6.8c-2.6-0.8-5.2-2-7.6-3.4c-6.1-3.5-10.9-8.4-14.4-14.7
					c-3.5-6.2-5.2-13.2-5.2-21c0-7.8,1.7-14.7,5.2-21c3.5-6.2,8.3-11.2,14.4-14.8c1.7-1,3.4-1.8,5.2-2.5v2.3v6.3v7.9v6.1v5
					c0,2.1,0.7,3.9,2.2,5.4c1.5,1.5,3.3,2.2,5.4,2.2c2.2,0,4-0.7,5.5-2.2c1.4-1.5,2.1-3.3,2.1-5.4V166.3z"/>
			</g>
		</g>
	</g>
	<g>
		<g>
			<rect x="355.2" y="112" class="st10" width="139.7" height="139.7"/>
		</g>
	</g>
	<g>
		<g>
			<path class="st10" d="M425.1,251.7L425.1,251.7c-38.6,0-69.8-31.3-69.8-69.8v0c0-38.6,31.3-69.8,69.8-69.8h0
				c38.6,0,69.8,31.3,69.8,69.8v0C494.9,220.4,463.6,251.7,425.1,251.7z"/>
		</g>
	</g>
</g>
<g>
	<path d="M749.7,149.7c-7.4-17.9-21.7-32.2-39.6-39.6c-8.5-3.5-17.8-5.4-27.6-5.4c-9.8,0-19.1,1.9-27.6,5.4
		c-17.9,7.4-32.2,21.7-39.6,39.6c-3.5,8.5-5.4,17.8-5.4,27.6c0,9.8,1.9,19.1,5.4,27.6c7.4,17.9,21.7,32.2,39.6,39.6
		c8.5,3.5,17.8,5.4,27.6,5.4c9.8,0,19.1-1.9,27.6-5.4c17.9-7.4,32.2-21.7,39.6-39.6c3.5-8.5,5.4-17.8,5.4-27.6
		C755.1,167.5,753.2,158.2,749.7,149.7z M728,150.5c-4.6-8.1-10.9-14.4-19-19.1c-3.5-2-7.2-3.6-11-4.7c-4.2-1.3-8.5,2.1-8.5,6.5v0
		c0,3,2,5.5,4.8,6.4c2.6,0.8,5,1.9,7.4,3.3c5.8,3.5,10.4,8.2,13.7,14.2c3.3,6,5,12.7,5,20.2c0,7.5-1.7,14.2-5,20.2
		c-3.4,6-7.9,10.7-13.7,14.1c-1.6,0.9-3.2,1.7-4.9,2.4v-3.2v-7.2v-6v-10.5c0-2.1-0.7-3.9-2.1-5.3c-1.4-1.4-3.1-2.1-5.3-2.1
		c-2,0-3.7,0.7-5.2,2.1c-1.4,1.4-2.2,3.1-2.2,5.3v10.5v6v7.6v5.9v4.8c0,2,0.7,3.7,2.2,5.2c1.4,1.4,3.2,2.2,5.2,2.2
		c1.1,0,2.2-0.2,3.1-0.6c3.7-0.9,7.3-2.1,10.6-3.9c6.8-3.5,12.4-8.2,16.9-14.3V222c0,1.2,0.2,2.2,0.6,3.1
		c-10.5,8.4-23.8,13.4-38.2,13.4c-33.8,0-61.2-27.5-61.2-61.2s27.5-61.2,61.2-61.2c33.8,0,61.2,27.5,61.2,61.2
		c0,11.6-3.2,22.4-8.8,31.7v-31.5C734.9,167.6,732.6,158.6,728,150.5z"/>
	<path d="M674.8,125c-0.9,0-1.7,0.2-2.5,0.4c-6,1-11.7,3-17,6c-8,4.6-14.3,11-19,19.1c-4.6,8.1-6.9,17.1-6.9,26.9
		c0,9.9,2.2,18.8,6.7,26.8c4.5,8,10.6,14.3,18.4,19c3.6,2.2,7.4,3.8,11.5,4.9c4.4,1.2,8.8-2,8.8-6.6c0-3.1-2.1-5.6-5-6.6
		c-2.5-0.8-5-1.9-7.3-3.3c-5.9-3.4-10.5-8.1-13.8-14.1c-3.4-6-5-12.7-5-20.2c0-7.5,1.7-14.2,5-20.2c3.3-6,8-10.7,13.8-14.2
		c1.6-0.9,3.3-1.7,5-2.4v2.2v6v7.6v5.9v4.8c0,2,0.7,3.7,2.2,5.2c1.4,1.4,3.2,2.2,5.2,2.2c2.1,0,3.9-0.7,5.3-2.2
		c1.4-1.4,2.1-3.2,2.1-5.2v-4.8V156v-7.2v-6v-10.5c0-2.1-0.7-3.9-2.1-5.3C678.7,125.7,677,125,674.8,125z"/>
</g>
<g>
	<path d="M749.7,396.1c-7.4-17.9-21.7-32.2-39.6-39.6c-8.5-3.5-17.8-5.4-27.6-5.4c-9.8,0-19.1,1.9-27.6,5.4
		c-17.9,7.4-32.2,21.7-39.6,39.6c-3.5,8.5-5.4,17.8-5.4,27.6c0,9.8,1.9,19.1,5.4,27.6c7.4,17.9,21.7,32.2,39.6,39.6
		c8.5,3.5,17.8,5.4,27.6,5.4c9.8,0,19.1-1.9,27.6-5.4c17.9-7.4,32.2-21.7,39.6-39.6c3.5-8.5,5.4-17.8,5.4-27.6
		C755.1,413.9,753.2,404.6,749.7,396.1z M728,396.9c-4.6-8.1-10.9-14.4-19-19.1c-3.5-2-7.2-3.6-11-4.7c-4.2-1.3-8.5,2.1-8.5,6.5v0
		c0,3,2,5.5,4.8,6.4c2.6,0.8,5,1.9,7.4,3.3c5.8,3.5,10.4,8.2,13.7,14.2c3.3,6,5,12.7,5,20.2c0,7.5-1.7,14.2-5,20.2
		c-3.4,6-7.9,10.7-13.7,14.1c-1.6,0.9-3.2,1.7-4.9,2.4v-3.2v-7.2v-6v-10.5c0-2.1-0.7-3.9-2.1-5.3c-1.4-1.4-3.1-2.1-5.3-2.1
		c-2,0-3.7,0.7-5.2,2.1c-1.4,1.4-2.2,3.1-2.2,5.3v10.5v6v7.6v5.9v4.8c0,2,0.7,3.7,2.2,5.2c1.4,1.4,3.2,2.2,5.2,2.2
		c1.1,0,2.2-0.2,3.1-0.6c3.7-0.9,7.3-2.1,10.6-3.9c6.8-3.5,12.4-8.2,16.9-14.3v11.4c0,1.2,0.2,2.2,0.6,3.1
		c-10.5,8.4-23.8,13.4-38.2,13.4c-33.8,0-61.2-27.5-61.2-61.2s27.5-61.2,61.2-61.2c33.8,0,61.2,27.5,61.2,61.2
		c0,11.6-3.2,22.4-8.8,31.7v-31.5C734.9,414,732.6,405,728,396.9z"/>
	<path d="M674.8,371.4c-0.9,0-1.7,0.2-2.5,0.4c-6,1-11.7,3-17,6c-8,4.6-14.3,11-19,19.1c-4.6,8.1-6.9,17.1-6.9,26.9
		s2.2,18.8,6.7,26.8c4.5,8,10.6,14.3,18.4,19c3.6,2.2,7.4,3.8,11.5,4.9c4.4,1.2,8.8-2,8.8-6.6c0-3.1-2.1-5.6-5-6.6
		c-2.5-0.8-5-1.9-7.3-3.3c-5.9-3.4-10.5-8.1-13.8-14.1c-3.4-6-5-12.7-5-20.2c0-7.5,1.7-14.2,5-20.2c3.3-6,8-10.7,13.8-14.2
		c1.6-0.9,3.3-1.7,5-2.4v2.2v6v7.6v5.9v4.8c0,2,0.7,3.7,2.2,5.2c1.4,1.4,3.2,2.2,5.2,2.2c2.1,0,3.9-0.7,5.3-2.2
		c1.4-1.4,2.1-3.2,2.1-5.2v-4.8v-6.3v-7.2v-6v-10.5c0-2.1-0.7-3.9-2.1-5.3C678.7,372.1,677,371.4,674.8,371.4z"/>
</g>
<g>
	<defs>
		<path id="SVGID_18_" d="M198.1,510.1h-77.8c-26.3,0-47.5-21.3-47.5-47.5v-77.8c0-26.3,21.3-47.5,47.5-47.5h77.8
			c26.3,0,47.5,21.3,47.5,47.5v77.8C245.7,488.9,224.4,510.1,198.1,510.1z"/>
	</defs>
	<clipPath id="SVGID_19_">
		<use xlink:href="#SVGID_18_"  style="overflow:visible;"/>
	</clipPath>
	<g class="st20">
		<linearGradient id="SVGID_20_" gradientUnits="userSpaceOnUse" x1="159.9118" y1="625.5445" x2="159.9118" y2="240.1247">
			<stop  offset="5.712154e-03" style="stop-color:#484495"/>
			<stop  offset="1" style="stop-color:#009FE3"/>
		</linearGradient>
		<rect x="15.1" y="323.5" class="st21" width="289.6" height="204.8"/>
		<g>
			<defs>
				<rect id="SVGID_21_" x="15.1" y="323.5" width="289.6" height="204.8"/>
			</defs>
			<clipPath id="SVGID_22_">
				<use xlink:href="#SVGID_21_"  style="overflow:visible;"/>
			</clipPath>
			<path class="st22" d="M-2.8,515.9L-2.8,515.9l0,12.4H-2v-12.4h12v12.4h0.8v-12.4h12.4v12.4h0.8v-12.4h11.6v12.4h0.8v-12.4h12.4
				v12.4h0.8v-12.4h12v12.4h0.8v-12.4H75v12.4h0h0.8v-12.4h12.4h0v12.4h0.8v-12.4h12v12.4h0.8v-12.4h12.4v12.4h0.8v-12.4h11.6v12.4
				h0.8v-12.4H140v12.4h0.8v-12.4h12v12.4h0.8v-12.4H166v12.4h0h0.8v-12.4h12.4h0v12.4h0.8v-12.4h12v12.4h0.8v-12.4h12.4v12.4h0.8
				v-12.4h11.6v12.4h0.8v-12.4H231v12.4h0.8v-12.4h12v12.4h0.8v-12.4h12.4v12.4h0h0.8v-12.4h12.4h0v12.4h0.8v-12.4h12v12.4h0.8
				v-12.4h12.4v12.4h0.8v-12.4h12.4V515h-12.4v-12.4v0h12.4v-0.8h-12.4v-12h12.4V489h-12.4v-12.4h12.4v-0.8h-12.4v-11.6h12.4v-0.8
				h-12.4v-12.4v0h12.4v-0.8h-12.4v-12h12.4v-0.8h-12.4v-12.4h12.4V424h-12.4v-12.4v0h12.4v-0.8h-12.4v-12h12.4v-0.8h-12.4v-12.4
				h12.4v-0.8h-12.4v-11.6h12.4v-0.8h-12.4v-12.4v0h12.4V359h-12.4v-12h12.4v-0.8h-12.4v-12.4h12.4V333h-12.4v-12.4h-0.8V333H284
				v-12.4h-0.8V333h-12v-12.4h-0.8V333h0h-12.4v-12.4h-0.8h0V333h-12.4v-12.4h-0.8V333h-12v-12.4H231V333h-12.4v-12.4h-0.8V333
				h-11.6v-12.4h-0.8V333h-12.4v-12.4h-0.8V333h-12v-12.4h-0.8V333h0h-12.4v-12.4H166h0V333h-12.4v-12.4h-0.8V333h-12v-12.4H140V333
				h-12.4v-12.4h-0.8V333h-11.6v-12.4h-0.8V333h-12.4v-12.4h-0.8V333h-12v-12.4h-0.8V333h0H75.8v-12.4H75h0V333H62.6v-12.4h-0.8V333
				h-12v-12.4h-0.8V333H36.5v-12.4h-0.8V333H24.1v-12.4h-0.8V333H10.9v-12.4H10V333H-2v-12.4h-0.8V333h0 M284,333.8h12.4v12.4H284
				V333.8z M284,347h12.4v12H284V347z M296.4,384.7H284v-11.6h12.4V384.7z M284,438.1h12.4v12H284V438.1z M296.4,475.7H284v-11.6
				h12.4V475.7z M257.1,489h-12.4v-12.4h12.4V489z M257.1,501.8h-12.4v-12h12.4V501.8z M217.8,489h-11.6v-12.4h11.6V489z
				 M217.8,501.8h-11.6v-12h11.6V501.8z M166,489h-12.4v-12.4H166V489z M166,501.8h-12.4v-12H166V501.8z M126.7,489h-11.6v-12.4
				h11.6V489z M126.7,501.8h-11.6v-12h11.6V501.8z M75,489H62.6v-12.4H75V489z M75,501.8H62.6v-12H75V501.8z M35.7,489H24.1v-12.4
				h11.6V489z M35.7,501.8H24.1v-12h11.6V501.8z M24.1,359.9L24.1,359.9l11.6,0v0v12.4H24.1V359.9z M24.1,347h11.6v12H24.1V347z
				 M115.1,359.9L115.1,359.9l11.6,0v0v12.4h-11.6V359.9z M115.1,347h11.6v12h-11.6V347z M206.2,359.9L206.2,359.9l11.6,0v0v12.4
				h-11.6V359.9z M206.2,347h11.6v12h-11.6V347z M271.1,397.9v-12.4h12v12.4H271.1z M283.1,398.8v12h-12v-12H283.1z M271.1,384.7
				v-11.6h12v11.6H271.1z M271.1,438.1h12v12h-12V438.1z M217.8,475.7h-11.6v-11.6h11.6V475.7z M205.3,489h-12.4v-12.4h12.4V489z
				 M126.7,475.7h-11.6v-11.6h11.6V475.7z M114.3,489h-12.4v-12.4h12.4V489z M35.7,475.7H24.1v-11.6h11.6V475.7z M23.3,489H10.9
				v-12.4h12.4V489z M36.5,373.1h12.4v11.6H36.5V373.1z M127.5,373.1H140v11.6h-12.4V373.1z M218.6,373.1H231v11.6h-12.4V373.1z
				 M270.3,397.9h-12.4v-12.4h12.4h0L270.3,397.9L270.3,397.9z M270.3,398.8v12h0h-12.4v-12H270.3L270.3,398.8z M257.9,438.1h12.4h0
				v12h0h-12.4V438.1z M-2.8,438.1L-2.8,438.1l0,12h0 M-2.8,424.8L-2.8,424.8l0,12.4h0 M-2,438.1h12v12H-2V438.1z M-2,437.2v-12.4
				h12v12.4H-2z M24.1,411.6L24.1,411.6l11.6,0v0V424H24.1V411.6z M24.1,398.8h11.6v12H24.1V398.8z M36.5,411.6L36.5,411.6l12.4,0v0
				V424H36.5V411.6z M48.9,410.8H36.5v-12h12.4V410.8z M35.7,424.8v12.4H24.1v-12.4H35.7z M23.3,437.2H10.9v-12.4h12.4V437.2z
				 M10.9,438.1h12.4v12H10.9V438.1z M24.1,438.1h11.6v12H24.1V438.1z M36.5,438.1h12.4v12H36.5V438.1z M36.5,437.2v-12.4h12.4v12.4
				H36.5z M49.8,438.1h12v12h-12V438.1z M49.8,437.2v-12.4h12v12.4H49.8z M62.6,438.1H75v12H62.6V438.1z M62.6,437.2v-12.4H75v12.4
				H62.6z M75.8,438.1h12.4h0v12h0H75.8V438.1z M88.2,437.2H75.8v-12.4h12.4h0L88.2,437.2L88.2,437.2z M89.1,438.1h12v12h-12V438.1z
				 M89.1,437.2v-12.4h12v12.4H89.1z M115.1,411.6L115.1,411.6l11.6,0v0V424h-11.6V411.6z M115.1,398.8h11.6v12h-11.6V398.8z
				 M127.5,411.6L127.5,411.6l12.4,0v0V424h-12.4V411.6z M140,410.8h-12.4v-12H140V410.8z M126.7,424.8v12.4h-11.6v-12.4H126.7z
				 M114.3,437.2h-12.4v-12.4h12.4V437.2z M101.9,438.1h12.4v12h-12.4V438.1z M115.1,438.1h11.6v12h-11.6V438.1z M127.5,438.1H140
				v12h-12.4V438.1z M127.5,437.2v-12.4H140v12.4H127.5z M140.8,438.1h12v12h-12V438.1z M140.8,437.2v-12.4h12v12.4H140.8z
				 M153.6,438.1H166v12h-12.4V438.1z M153.6,437.2v-12.4H166v12.4H153.6z M166.9,438.1h12.4h0v12h0h-12.4V438.1z M179.3,437.2
				h-12.4v-12.4h12.4h0L179.3,437.2L179.3,437.2z M180.1,438.1h12v12h-12V438.1z M180.1,437.2v-12.4h12v12.4H180.1z M206.2,411.6
				L206.2,411.6l11.6,0v0V424h-11.6V411.6z M206.2,398.8h11.6v12h-11.6V398.8z M218.6,411.6L218.6,411.6l12.4,0v0V424h-12.4V411.6z
				 M231,410.8h-12.4v-12H231V410.8z M217.8,424.8v12.4h-11.6v-12.4H217.8z M205.3,437.2h-12.4v-12.4h12.4V437.2z M192.9,438.1h12.4
				v12h-12.4V438.1z M206.2,438.1h11.6v12h-11.6V438.1z M218.6,438.1H231v12h-12.4V438.1z M218.6,437.2v-12.4H231v12.4H218.6z
				 M231.8,438.1h12v12h-12V438.1z M231.8,437.2v-12.4h12v12.4H231.8z M244.6,438.1h12.4v12h-12.4V438.1z M244.6,437.2v-12.4h12.4
				v12.4H244.6z M257.1,397.9h-12.4v-12.4h12.4V397.9z M257.1,398.8v12h-12.4v-12H257.1z M257.1,411.6L257.1,411.6V424h-12.4v-12.4
				v0H257.1z M243.8,411.6V424h-12v-12.4v0L243.8,411.6L243.8,411.6z M231.8,410.8v-12h12v12H231.8z M243.8,397.9h-12v-12.4h12
				V397.9z M231,385.5v12.4h-12.4v-12.4H231z M217.8,397.9h-11.6v-12.4h11.6V397.9z M205.3,397.9h-12.4v-12.4h12.4V397.9z
				 M205.3,398.8v12h-12.4v-12H205.3z M205.3,411.6L205.3,411.6V424h-12.4v-12.4v0H205.3z M192.1,397.9h-12v-12.4h12V397.9z
				 M192.1,398.8v12h-12v-12H192.1z M192.1,411.6L192.1,411.6V424h-12v-12.4v0H192.1z M179.3,411.6V424h0h-12.4v-12.4v0L179.3,411.6
				L179.3,411.6L179.3,411.6z M166.9,410.8v-12h12.4h0v12h0H166.9z M179.3,397.9L179.3,397.9h-12.4v-12.4h12.4h0V397.9z M166,397.9
				h-12.4v-12.4H166V397.9z M166,398.8v12h-12.4v-12H166z M166,411.6L166,411.6V424h-12.4v-12.4v0H166z M152.8,411.6V424h-12v-12.4
				v0L152.8,411.6L152.8,411.6z M140.8,410.8v-12h12v12H140.8z M152.8,397.9h-12v-12.4h12V397.9z M140,385.5v12.4h-12.4v-12.4H140z
				 M126.7,397.9h-11.6v-12.4h11.6V397.9z M114.3,397.9h-12.4v-12.4h12.4V397.9z M114.3,398.8v12h-12.4v-12H114.3z M114.3,411.6
				L114.3,411.6V424h-12.4v-12.4v0H114.3z M101.1,397.9h-12v-12.4h12V397.9z M101.1,398.8v12h-12v-12H101.1z M101.1,411.6
				L101.1,411.6V424h-12v-12.4v0H101.1z M88.2,411.6V424h0H75.8v-12.4v0L88.2,411.6L88.2,411.6L88.2,411.6z M75.8,410.8v-12h12.4h0
				v12h0H75.8z M88.2,397.9L88.2,397.9H75.8v-12.4h12.4h0V397.9z M75,397.9H62.6v-12.4H75V397.9z M75,398.8v12H62.6v-12H75z
				 M75,411.6L75,411.6V424H62.6v-12.4v0H75z M61.8,411.6V424h-12v-12.4v0L61.8,411.6L61.8,411.6z M49.8,410.8v-12h12v12H49.8z
				 M61.8,397.9h-12v-12.4h12V397.9z M48.9,385.5v12.4H36.5v-12.4H48.9z M35.7,397.9H24.1v-12.4h11.6V397.9z M23.3,397.9H10.9v-12.4
				h12.4V397.9z M23.3,398.8v12H10.9v-12H23.3z M23.3,411.6L23.3,411.6V424H10.9v-12.4v0H23.3z M10,397.9H-2v-12.4h12V397.9z
				 M10,398.8v12H-2v-12H10z M10,411.6L10,411.6V424H-2v-12.4v0H10z M-2.8,411.6L-2.8,411.6L-2.8,411.6l0,12.4h0 M-2.8,398.8
				L-2.8,398.8l0,12h0 M-2.8,385.5L-2.8,385.5l0,12.4h0 M-2.8,450.9L-2.8,450.9L-2.8,450.9l0,12.4h0 M-2,450.9L-2,450.9l12,0v0v12.4
				H-2V450.9z M10.9,450.9L10.9,450.9l12.4,0v0v12.4H10.9V450.9z M10.9,464.1h12.4v11.6H10.9V464.1z M24.1,463.3v-12.4v0h11.6v0
				v12.4H24.1z M36.5,450.9L36.5,450.9l12.4,0v0v12.4H36.5V450.9z M49.8,450.9L49.8,450.9l12,0v0v12.4h-12V450.9z M62.6,450.9
				L62.6,450.9l12.4,0v0v12.4H62.6V450.9z M75.8,450.9L75.8,450.9l12.4,0h0v0v12.4h0H75.8V450.9z M89.1,450.9L89.1,450.9l12,0v0
				v12.4h-12V450.9z M101.9,450.9L101.9,450.9l12.4,0v0v12.4h-12.4V450.9z M101.9,464.1h12.4v11.6h-12.4V464.1z M115.1,463.3v-12.4
				v0h11.6v0v12.4H115.1z M127.5,450.9L127.5,450.9l12.4,0v0v12.4h-12.4V450.9z M140.8,450.9L140.8,450.9l12,0v0v12.4h-12V450.9z
				 M153.6,450.9L153.6,450.9l12.4,0v0v12.4h-12.4V450.9z M166.9,450.9L166.9,450.9l12.4,0h0v0v12.4h0h-12.4V450.9z M180.1,450.9
				L180.1,450.9l12,0v0v12.4h-12V450.9z M192.9,450.9L192.9,450.9l12.4,0v0v12.4h-12.4V450.9z M192.9,464.1h12.4v11.6h-12.4V464.1z
				 M206.2,463.3v-12.4v0h11.6v0v12.4H206.2z M218.6,450.9L218.6,450.9l12.4,0v0v12.4h-12.4V450.9z M231.8,450.9L231.8,450.9l12,0v0
				v12.4h-12V450.9z M244.6,450.9L244.6,450.9l12.4,0v0v12.4h-12.4V450.9z M257.9,450.9L257.9,450.9l12.4,0h0v0v12.4h0h-12.4V450.9z
				 M270.3,437.2h-12.4v-12.4h12.4h0L270.3,437.2L270.3,437.2z M270.3,411.6V424h0h-12.4v-12.4v0L270.3,411.6L270.3,411.6
				L270.3,411.6z M270.3,384.7L270.3,384.7h-12.4v-11.6h12.4h0V384.7z M257.1,384.7h-12.4v-11.6h12.4V384.7z M243.8,384.7h-12v-11.6
				h12V384.7z M218.6,372.3v-12.4v0H231v0v12.4H218.6z M231,359h-12.4v-12H231V359z M217.8,373.1v11.6h-11.6v-11.6H217.8z
				 M205.3,384.7h-12.4v-11.6h12.4V384.7z M192.1,384.7h-12v-11.6h12V384.7z M179.3,384.7L179.3,384.7h-12.4v-11.6h12.4h0V384.7z
				 M166,384.7h-12.4v-11.6H166V384.7z M152.8,384.7h-12v-11.6h12V384.7z M127.5,372.3v-12.4v0H140v0v12.4H127.5z M140,359h-12.4
				v-12H140V359z M126.7,373.1v11.6h-11.6v-11.6H126.7z M114.3,384.7h-12.4v-11.6h12.4V384.7z M101.1,384.7h-12v-11.6h12V384.7z
				 M88.2,384.7L88.2,384.7H75.8v-11.6h12.4h0V384.7z M75,384.7H62.6v-11.6H75V384.7z M61.8,384.7h-12v-11.6h12V384.7z M36.5,372.3
				v-12.4v0h12.4v0v12.4H36.5z M48.9,359H36.5v-12h12.4V359z M35.7,373.1v11.6H24.1v-11.6H35.7z M23.3,384.7H10.9v-11.6h12.4V384.7z
				 M10,384.7H-2v-11.6h12V384.7z M-2.8,373.1L-2.8,373.1l0,11.6h0 M-2.8,464.1L-2.8,464.1l0,11.6h0 M-2,464.1h12v11.6H-2V464.1z
				 M10.9,489.8h12.4v12H10.9V489.8z M36.5,464.1h12.4v11.6H36.5V464.1z M49.8,464.1h12v11.6h-12V464.1z M62.6,475.7v-11.6H75v11.6
				H62.6z M75.8,464.1h12.4h0v11.6h0H75.8V464.1z M89.1,464.1h12v11.6h-12V464.1z M101.9,489.8h12.4v12h-12.4V489.8z M127.5,464.1
				H140v11.6h-12.4V464.1z M140.8,464.1h12v11.6h-12V464.1z M153.6,475.7v-11.6H166v11.6H153.6z M166.9,464.1h12.4h0v11.6h0h-12.4
				V464.1z M180.1,464.1h12v11.6h-12V464.1z M192.9,489.8h12.4v12h-12.4V489.8z M218.6,464.1H231v11.6h-12.4V464.1z M231.8,464.1h12
				v11.6h-12V464.1z M244.6,475.7v-11.6h12.4v11.6H244.6z M257.9,464.1h12.4h0v11.6h0h-12.4V464.1z M271.1,464.1h12v11.6h-12V464.1z
				 M271.1,463.3v-12.4v0h12v0v12.4H271.1z M271.1,437.2v-12.4h12v12.4H271.1z M283.1,411.6V424h-12v-12.4v0L283.1,411.6
				L283.1,411.6z M284,398.8h12.4v12H284V398.8z M284,397.9v-12.4h12.4v12.4H284z M271.1,333.8h12v12.4h-12V333.8z M271.1,347h12v12
				h-12V347z M271.1,359.9L271.1,359.9l12,0v0v12.4h-12V359.9z M257.9,333.8h12.4h0v12.4h0h-12.4V333.8z M257.9,347h12.4h0v12h0
				h-12.4V347z M257.9,359.9L257.9,359.9l12.4,0h0v0v12.4h0h-12.4V359.9z M244.6,333.8h12.4v12.4h-12.4V333.8z M244.6,347h12.4v12
				h-12.4V347z M244.6,359.9L244.6,359.9l12.4,0v0v12.4h-12.4V359.9z M231.8,333.8h12v12.4h-12V333.8z M231.8,347h12v12h-12V347z
				 M231.8,359.9L231.8,359.9l12,0v0v12.4h-12V359.9z M231,333.8v12.4h-12.4v-12.4H231z M217.8,333.8v12.4h-11.6v-12.4H217.8z
				 M192.9,333.8h12.4v12.4h-12.4V333.8z M192.9,347h12.4v12h-12.4V347z M192.9,359.9L192.9,359.9l12.4,0v0v12.4h-12.4V359.9z
				 M180.1,333.8h12v12.4h-12V333.8z M180.1,347h12v12h-12V347z M180.1,359.9L180.1,359.9l12,0v0v12.4h-12V359.9z M166.9,333.8h12.4
				h0v12.4h0h-12.4V333.8z M166.9,347h12.4h0v12h0h-12.4V347z M166.9,359.9L166.9,359.9l12.4,0h0v0v12.4h0h-12.4V359.9z
				 M153.6,333.8H166v12.4h-12.4V333.8z M153.6,347H166v12h-12.4V347z M153.6,359.9L153.6,359.9l12.4,0v0v12.4h-12.4V359.9z
				 M140.8,333.8h12v12.4h-12V333.8z M140.8,347h12v12h-12V347z M140.8,359.9L140.8,359.9l12,0v0v12.4h-12V359.9z M140,333.8v12.4
				h-12.4v-12.4H140z M126.7,333.8v12.4h-11.6v-12.4H126.7z M101.9,333.8h12.4v12.4h-12.4V333.8z M101.9,347h12.4v12h-12.4V347z
				 M101.9,359.9L101.9,359.9l12.4,0v0v12.4h-12.4V359.9z M89.1,333.8h12v12.4h-12V333.8z M89.1,347h12v12h-12V347z M89.1,359.9
				L89.1,359.9l12,0v0v12.4h-12V359.9z M75.8,333.8h12.4h0v12.4h0H75.8V333.8z M75.8,347h12.4h0v12h0H75.8V347z M75.8,359.9
				L75.8,359.9l12.4,0h0v0v12.4h0H75.8V359.9z M62.6,333.8H75v12.4H62.6V333.8z M62.6,347H75v12H62.6V347z M62.6,359.9L62.6,359.9
				l12.4,0v0v12.4H62.6V359.9z M49.8,333.8h12v12.4h-12V333.8z M49.8,347h12v12h-12V347z M49.8,359.9L49.8,359.9l12,0v0v12.4h-12
				V359.9z M48.9,333.8v12.4H36.5v-12.4H48.9z M35.7,333.8v12.4H24.1v-12.4H35.7z M10.9,333.8h12.4v12.4H10.9V333.8z M10.9,347h12.4
				v12H10.9V347z M10.9,359.9L10.9,359.9l12.4,0v0v12.4H10.9V359.9z M-2,333.8h12v12.4H-2V333.8z M-2,347h12v12H-2V347z M-2,359.9
				L-2,359.9l12,0v0v12.4H-2V359.9z M-2.8,333.8L-2.8,333.8l0,12.4h0 M-2.8,347L-2.8,347l0,12h0 M-2.8,359.9L-2.8,359.9L-2.8,359.9
				l0,12.4h0 M-2.8,502.6L-2.8,502.6L-2.8,502.6l0,12.4h0 M-2.8,489.8L-2.8,489.8l0,12h0 M-2.8,476.6L-2.8,476.6l0,12.4h0 M10,502.6
				V515H-2v-12.4v0L10,502.6L10,502.6z M10,501.8H-2v-12h12V501.8z M10,489H-2v-12.4h12V489z M10.9,515v-12.4v0h12.4v0V515H10.9z
				 M24.1,515v-12.4v0h11.6v0V515H24.1z M48.9,502.6V515H36.5v-12.4v0L48.9,502.6L48.9,502.6z M48.9,501.8H36.5v-12h12.4V501.8z
				 M48.9,489H36.5v-12.4h12.4V489z M61.8,502.6V515h-12v-12.4v0L61.8,502.6L61.8,502.6z M61.8,501.8h-12v-12h12V501.8z M61.8,489
				h-12v-12.4h12V489z M62.6,515v-12.4v0H75v0V515H62.6z M88.2,502.6V515h0H75.8v-12.4v0L88.2,502.6L88.2,502.6L88.2,502.6z
				 M88.2,501.8L88.2,501.8H75.8v-12h12.4h0V501.8z M88.2,489L88.2,489H75.8v-12.4h12.4h0V489z M101.1,502.6V515h-12v-12.4v0
				L101.1,502.6L101.1,502.6z M101.1,501.8h-12v-12h12V501.8z M101.1,489h-12v-12.4h12V489z M101.9,515v-12.4v0h12.4v0V515H101.9z
				 M115.1,515v-12.4v0h11.6v0V515H115.1z M140,502.6V515h-12.4v-12.4v0L140,502.6L140,502.6z M140,501.8h-12.4v-12H140V501.8z
				 M140,489h-12.4v-12.4H140V489z M152.8,502.6V515h-12v-12.4v0L152.8,502.6L152.8,502.6z M152.8,501.8h-12v-12h12V501.8z
				 M152.8,489h-12v-12.4h12V489z M153.6,515v-12.4v0H166v0V515H153.6z M179.3,502.6V515h0h-12.4v-12.4v0L179.3,502.6L179.3,502.6
				L179.3,502.6z M179.3,501.8L179.3,501.8h-12.4v-12h12.4h0V501.8z M179.3,489L179.3,489h-12.4v-12.4h12.4h0V489z M192.1,502.6V515
				h-12v-12.4v0L192.1,502.6L192.1,502.6z M192.1,501.8h-12v-12h12V501.8z M192.1,489h-12v-12.4h12V489z M192.9,515v-12.4v0h12.4v0
				V515H192.9z M206.2,515v-12.4v0h11.6v0V515H206.2z M231,502.6V515h-12.4v-12.4v0L231,502.6L231,502.6z M231,501.8h-12.4v-12H231
				V501.8z M231,489h-12.4v-12.4H231V489z M243.8,502.6V515h-12v-12.4v0L243.8,502.6L243.8,502.6z M243.8,501.8h-12v-12h12V501.8z
				 M243.8,489h-12v-12.4h12V489z M244.6,515v-12.4v0h12.4v0V515H244.6z M270.3,502.6V515h0h-12.4v-12.4v0L270.3,502.6L270.3,502.6
				L270.3,502.6z M270.3,501.8L270.3,501.8h-12.4v-12h12.4h0V501.8z M270.3,489L270.3,489h-12.4v-12.4h12.4h0V489z M283.1,502.6V515
				h-12v-12.4v0L283.1,502.6L283.1,502.6z M283.1,501.8h-12v-12h12V501.8z M283.1,489h-12v-12.4h12V489z M296.4,502.6V515H284v-12.4
				v0L296.4,502.6L296.4,502.6z M296.4,501.8H284v-12h12.4V501.8z M296.4,489H284v-12.4h12.4V489z M284,463.3v-12.4v0h12.4v0v12.4
				H284z M284,437.2v-12.4h12.4v12.4H284z M296.4,411.6V424H284v-12.4v0L296.4,411.6L296.4,411.6z M284,372.3v-12.4v0h12.4v0v12.4
				H284z"/>
		</g>
		<linearGradient id="SVGID_23_" gradientUnits="userSpaceOnUse" x1="160.2306" y1="540.2211" x2="160.2306" y2="333.7891">
			<stop  offset="5.712154e-03" style="stop-color:#484495"/>
			<stop  offset="1" style="stop-color:#009FE3"/>
		</linearGradient>
		<polygon class="st23" points="15.1,441.5 166.8,423.9 305.4,436.2 305.4,532 15.1,528.3 		"/>
		<g>
			<g>
				<polygon class="st6" points="14.1,442.1 14.4,437.7 166.5,419.6 305.4,431.9 305.4,436.2 166.8,423.9 				"/>
			</g>
		</g>
		<linearGradient id="SVGID_24_" gradientUnits="userSpaceOnUse" x1="159.7236" y1="540.2211" x2="159.7236" y2="333.7891">
			<stop  offset="5.712154e-03" style="stop-color:#484495"/>
			<stop  offset="1" style="stop-color:#009FE3"/>
		</linearGradient>
		<polygon class="st24" points="14.6,441.5 166.3,423.9 304.9,436.2 304.9,532 14.6,528.3 		"/>
	</g>
</g>
<linearGradient id="SVGID_25_" gradientUnits="userSpaceOnUse" x1="160.1552" y1="499.7409" x2="160.1552" y2="251.4419">
	<stop  offset="5.712154e-03" style="stop-color:#484495"/>
	<stop  offset="1" style="stop-color:#009FE3"/>
</linearGradient>
<circle class="st25" cx="160.2" cy="424.8" r="65"/>
<g>
	<g>
		<path class="st8" d="M160.1,371.9c30,0,54.3,24.3,54.3,54.3v0c0,30-24.3,54.3-54.3,54.3h0c-30,0-54.3-24.3-54.3-54.3v0
			C105.7,396.2,130.1,371.9,160.1,371.9L160.1,371.9 M160.1,362.2c-35.3,0-64.1,28.7-64.1,64.1s28.7,64.1,64.1,64.1
			s64.1-28.7,64.1-64.1S195.4,362.2,160.1,362.2L160.1,362.2z"/>
		<path class="st9" d="M160.1,492.6c-36.6,0-66.3-29.8-66.3-66.3s29.8-66.3,66.3-66.3s66.3,29.8,66.3,66.3S196.7,492.6,160.1,492.6z
			 M160.1,364.4c-34.1,0-61.8,27.7-61.8,61.8S126,488,160.1,488s61.8-27.7,61.8-61.8S194.1,364.4,160.1,364.4z M160.1,482.8
			c-31.2,0-56.6-25.4-56.6-56.6s25.4-56.6,56.6-56.6s56.6,25.4,56.6,56.6S191.3,482.8,160.1,482.8z M160.1,374.2
			c-28.7,0-52.1,23.4-52.1,52.1s23.4,52.1,52.1,52.1s52.1-23.4,52.1-52.1S188.8,374.2,160.1,374.2z"/>
	</g>
	<g>
		<g>
			<g>
				<path class="st8" d="M199.1,402.6c-3.9-6.9-9.3-12.3-16.1-16.2c-3-1.7-6.1-3-9.4-4c-3.6-1.1-7.2,1.8-7.2,5.5v0
					c0,2.5,1.7,4.7,4.1,5.5c2.2,0.7,4.3,1.7,6.3,2.8c4.9,3,8.8,7,11.7,12.1c2.8,5.1,4.3,10.8,4.3,17.2c0,6.3-1.4,12.1-4.3,17.2
					c-2.8,5.1-6.7,9.1-11.7,12c-1.3,0.8-2.7,1.4-4.1,2V454v-6.1v-5.1v-9c0-1.8-0.6-3.3-1.8-4.5c-1.2-1.2-2.7-1.8-4.5-1.8
					c-1.7,0-3.2,0.6-4.4,1.8c-1.2,1.2-1.8,2.7-1.8,4.5v9v5.1v6.4v5v4.1c0,1.7,0.6,3.2,1.8,4.4c1.2,1.2,2.7,1.8,4.4,1.8
					c1,0,1.8-0.2,2.6-0.5c3.2-0.7,6.2-1.8,9-3.3c5.8-3,10.6-7,14.3-12.2v9.7c0,1.8,0.6,3.3,1.8,4.4c1.2,1.1,2.7,1.7,4.5,1.7
					c1.8,0,3.3-0.6,4.5-1.8c1.2-1.2,1.8-2.6,1.8-4.4v-37.9C205,417.1,203,409.4,199.1,402.6z"/>
			</g>
		</g>
		<g>
			<g>
				<path class="st8" d="M160.2,412.6v-5.4v-6.1v-5.1v-9c0-1.8-0.6-3.3-1.8-4.5c-1.2-1.2-2.7-1.8-4.5-1.8c-0.8,0-1.5,0.1-2.1,0.4
					c-5.1,0.9-10,2.6-14.4,5.1c-6.8,3.9-12.2,9.3-16.1,16.2c-3.9,6.9-5.9,14.5-5.9,22.9s1.9,16,5.7,22.8c3.8,6.8,9,12.2,15.6,16.1
					c3.1,1.8,6.3,3.2,9.8,4.2c3.7,1.1,7.5-1.7,7.5-5.6c0-2.6-1.7-4.8-4.2-5.6c-2.2-0.7-4.2-1.6-6.2-2.8c-5-2.9-8.9-6.9-11.8-12
					c-2.8-5.1-4.3-10.8-4.3-17.2c0-6.3,1.4-12.1,4.3-17.2c2.8-5.1,6.8-9.1,11.8-12.1c1.4-0.8,2.8-1.5,4.2-2.1v1.9v5.1v6.4v5v4.1
					c0,1.7,0.6,3.2,1.8,4.4c1.2,1.2,2.7,1.8,4.4,1.8c1.8,0,3.3-0.6,4.5-1.8c1.2-1.2,1.8-2.7,1.8-4.4V412.6z"/>
			</g>
		</g>
	</g>
</g>
<linearGradient id="SVGID_26_" gradientUnits="userSpaceOnUse" x1="424.4207" y1="310.8988" x2="424.4207" y2="516.899">
	<stop  offset="5.712154e-03" style="stop-color:#454545"/>
	<stop  offset="1" style="stop-color:#B2B2B2"/>
</linearGradient>
<path class="st26" d="M468.2,515h-87.6c-26.3,0-47.5-21.3-47.5-47.5v-87.6c0-26.3,21.3-47.5,47.5-47.5h87.6
	c26.3,0,47.5,21.3,47.5,47.5v87.6C515.7,493.7,494.5,515,468.2,515z"/>
<g>
	<defs>
		<path id="SVGID_27_" d="M463.3,510.1h-77.8c-26.3,0-47.5-21.3-47.5-47.5v-77.8c0-26.3,21.3-47.5,47.5-47.5h77.8
			c26.3,0,47.5,21.3,47.5,47.5v77.8C510.9,488.9,489.6,510.1,463.3,510.1z"/>
	</defs>
	<clipPath id="SVGID_28_">
		<use xlink:href="#SVGID_27_"  style="overflow:visible;"/>
	</clipPath>
	<g class="st27">
		<linearGradient id="SVGID_29_" gradientUnits="userSpaceOnUse" x1="425.0845" y1="625.5445" x2="425.0845" y2="240.1247">
			<stop  offset="5.712154e-03" style="stop-color:#454545"/>
			<stop  offset="1" style="stop-color:#B2B2B2"/>
		</linearGradient>
		<rect x="280.3" y="323.5" class="st28" width="289.6" height="204.8"/>
		<g>
			<defs>
				<rect id="SVGID_30_" x="280.3" y="323.5" width="289.6" height="204.8"/>
			</defs>
			<clipPath id="SVGID_31_">
				<use xlink:href="#SVGID_30_"  style="overflow:visible;"/>
			</clipPath>
			<path class="st29" d="M262.4,515.9L262.4,515.9l0,12.4h0.8v-12.4h12v12.4h0.8v-12.4h12.4v12.4h0.8v-12.4h11.6v12.4h0.8v-12.4
				h12.4v12.4h0.8v-12.4h12v12.4h0.8v-12.4h12.4v12.4h0h0.8v-12.4h12.4h0v12.4h0.8v-12.4h12v12.4h0.8v-12.4h12.4v12.4h0.8v-12.4
				h11.6v12.4h0.8v-12.4h12.4v12.4h0.8v-12.4h12v12.4h0.8v-12.4h12.4v12.4h0h0.8v-12.4h12.4h0v12.4h0.8v-12.4h12v12.4h0.8v-12.4
				h12.4v12.4h0.8v-12.4h11.6v12.4h0.8v-12.4h12.4v12.4h0.8v-12.4h12v12.4h0.8v-12.4h12.4v12.4h0h0.8v-12.4h12.4h0v12.4h0.8v-12.4
				h12v12.4h0.8v-12.4h12.4v12.4h0.8v-12.4h12.4V515h-12.4v-12.4v0h12.4v-0.8h-12.4v-12h12.4V489h-12.4v-12.4h12.4v-0.8h-12.4v-11.6
				h12.4v-0.8h-12.4v-12.4v0h12.4v-0.8h-12.4v-12h12.4v-0.8h-12.4v-12.4h12.4V424h-12.4v-12.4v0h12.4v-0.8h-12.4v-12h12.4v-0.8
				h-12.4v-12.4h12.4v-0.8h-12.4v-11.6h12.4v-0.8h-12.4v-12.4v0h12.4V359h-12.4v-12h12.4v-0.8h-12.4v-12.4h12.4V333h-12.4v-12.4
				h-0.8V333h-12.4v-12.4h-0.8V333h-12v-12.4h-0.8V333h0h-12.4v-12.4h-0.8h0V333h-12.4v-12.4H509V333h-12v-12.4h-0.8V333h-12.4
				v-12.4h-0.8V333h-11.6v-12.4h-0.8V333h-12.4v-12.4h-0.8V333h-12v-12.4h-0.8V333h0H432v-12.4h-0.8h0V333h-12.4v-12.4H418V333h-12
				v-12.4h-0.8V333h-12.4v-12.4h-0.8V333h-11.6v-12.4h-0.8V333h-12.4v-12.4h-0.8V333h-12v-12.4h-0.8V333h0H341v-12.4h-0.8h0V333
				h-12.4v-12.4h-0.8V333h-12v-12.4h-0.8V333h-12.4v-12.4h-0.8V333h-11.6v-12.4h-0.8V333H276v-12.4h-0.8V333h-12v-12.4h-0.8V333h0
				 M549.1,333.8h12.4v12.4h-12.4V333.8z M549.1,347h12.4v12h-12.4V347z M561.5,384.7h-12.4v-11.6h12.4V384.7z M549.1,438.1h12.4v12
				h-12.4V438.1z M561.5,475.7h-12.4v-11.6h12.4V475.7z M522.2,489h-12.4v-12.4h12.4V489z M522.2,501.8h-12.4v-12h12.4V501.8z
				 M482.9,489h-11.6v-12.4h11.6V489z M482.9,501.8h-11.6v-12h11.6V501.8z M431.2,489h-12.4v-12.4h12.4V489z M431.2,501.8h-12.4v-12
				h12.4V501.8z M391.9,489h-11.6v-12.4h11.6V489z M391.9,501.8h-11.6v-12h11.6V501.8z M340.2,489h-12.4v-12.4h12.4V489z
				 M340.2,501.8h-12.4v-12h12.4V501.8z M300.9,489h-11.6v-12.4h11.6V489z M300.9,501.8h-11.6v-12h11.6V501.8z M289.3,359.9
				L289.3,359.9l11.6,0v0v12.4h-11.6V359.9z M289.3,347h11.6v12h-11.6V347z M380.3,359.9L380.3,359.9l11.6,0v0v12.4h-11.6V359.9z
				 M380.3,347h11.6v12h-11.6V347z M471.3,359.9L471.3,359.9l11.6,0v0v12.4h-11.6V359.9z M471.3,347h11.6v12h-11.6V347z
				 M536.3,397.9v-12.4h12v12.4H536.3z M548.3,398.8v12h-12v-12H548.3z M536.3,384.7v-11.6h12v11.6H536.3z M536.3,438.1h12v12h-12
				V438.1z M482.9,475.7h-11.6v-11.6h11.6V475.7z M470.5,489h-12.4v-12.4h12.4V489z M391.9,475.7h-11.6v-11.6h11.6V475.7z
				 M379.5,489h-12.4v-12.4h12.4V489z M300.9,475.7h-11.6v-11.6h11.6V475.7z M288.5,489H276v-12.4h12.4V489z M301.7,373.1h12.4v11.6
				h-12.4V373.1z M392.7,373.1h12.4v11.6h-12.4V373.1z M483.8,373.1h12.4v11.6h-12.4V373.1z M535.5,397.9h-12.4v-12.4h12.4h0
				L535.5,397.9L535.5,397.9z M535.5,398.8v12h0h-12.4v-12H535.5L535.5,398.8z M523.1,438.1h12.4h0v12h0h-12.4V438.1z M262.4,438.1
				L262.4,438.1l0,12h0 M262.4,424.8L262.4,424.8l0,12.4h0 M263.2,438.1h12v12h-12V438.1z M263.2,437.2v-12.4h12v12.4H263.2z
				 M289.3,411.6L289.3,411.6l11.6,0v0V424h-11.6V411.6z M289.3,398.8h11.6v12h-11.6V398.8z M301.7,411.6L301.7,411.6l12.4,0v0V424
				h-12.4V411.6z M314.1,410.8h-12.4v-12h12.4V410.8z M300.9,424.8v12.4h-11.6v-12.4H300.9z M288.5,437.2H276v-12.4h12.4V437.2z
				 M276,438.1h12.4v12H276V438.1z M289.3,438.1h11.6v12h-11.6V438.1z M301.7,438.1h12.4v12h-12.4V438.1z M301.7,437.2v-12.4h12.4
				v12.4H301.7z M314.9,438.1h12v12h-12V438.1z M314.9,437.2v-12.4h12v12.4H314.9z M327.8,438.1h12.4v12h-12.4V438.1z M327.8,437.2
				v-12.4h12.4v12.4H327.8z M341,438.1h12.4h0v12h0H341V438.1z M353.4,437.2H341v-12.4h12.4h0L353.4,437.2L353.4,437.2z
				 M354.2,438.1h12v12h-12V438.1z M354.2,437.2v-12.4h12v12.4H354.2z M380.3,411.6L380.3,411.6l11.6,0v0V424h-11.6V411.6z
				 M380.3,398.8h11.6v12h-11.6V398.8z M392.7,411.6L392.7,411.6l12.4,0v0V424h-12.4V411.6z M405.1,410.8h-12.4v-12h12.4V410.8z
				 M391.9,424.8v12.4h-11.6v-12.4H391.9z M379.5,437.2h-12.4v-12.4h12.4V437.2z M367.1,438.1h12.4v12h-12.4V438.1z M380.3,438.1
				h11.6v12h-11.6V438.1z M392.7,438.1h12.4v12h-12.4V438.1z M392.7,437.2v-12.4h12.4v12.4H392.7z M406,438.1h12v12h-12V438.1z
				 M406,437.2v-12.4h12v12.4H406z M418.8,438.1h12.4v12h-12.4V438.1z M418.8,437.2v-12.4h12.4v12.4H418.8z M432,438.1h12.4h0v12h0
				H432V438.1z M444.4,437.2H432v-12.4h12.4h0L444.4,437.2L444.4,437.2z M445.3,438.1h12v12h-12V438.1z M445.3,437.2v-12.4h12v12.4
				H445.3z M471.3,411.6L471.3,411.6l11.6,0v0V424h-11.6V411.6z M471.3,398.8h11.6v12h-11.6V398.8z M483.8,411.6L483.8,411.6l12.4,0
				v0V424h-12.4V411.6z M496.2,410.8h-12.4v-12h12.4V410.8z M482.9,424.8v12.4h-11.6v-12.4H482.9z M470.5,437.2h-12.4v-12.4h12.4
				V437.2z M458.1,438.1h12.4v12h-12.4V438.1z M471.3,438.1h11.6v12h-11.6V438.1z M483.8,438.1h12.4v12h-12.4V438.1z M483.8,437.2
				v-12.4h12.4v12.4H483.8z M497,438.1h12v12h-12V438.1z M497,437.2v-12.4h12v12.4H497z M509.8,438.1h12.4v12h-12.4V438.1z
				 M509.8,437.2v-12.4h12.4v12.4H509.8z M522.2,397.9h-12.4v-12.4h12.4V397.9z M522.2,398.8v12h-12.4v-12H522.2z M522.2,411.6
				L522.2,411.6V424h-12.4v-12.4v0H522.2z M509,411.6V424h-12v-12.4v0L509,411.6L509,411.6z M497,410.8v-12h12v12H497z M509,397.9
				h-12v-12.4h12V397.9z M496.2,385.5v12.4h-12.4v-12.4H496.2z M482.9,397.9h-11.6v-12.4h11.6V397.9z M470.5,397.9h-12.4v-12.4h12.4
				V397.9z M470.5,398.8v12h-12.4v-12H470.5z M470.5,411.6L470.5,411.6V424h-12.4v-12.4v0H470.5z M457.3,397.9h-12v-12.4h12V397.9z
				 M457.3,398.8v12h-12v-12H457.3z M457.3,411.6L457.3,411.6V424h-12v-12.4v0H457.3z M444.4,411.6V424h0H432v-12.4v0L444.4,411.6
				L444.4,411.6L444.4,411.6z M432,410.8v-12h12.4h0v12h0H432z M444.4,397.9L444.4,397.9H432v-12.4h12.4h0V397.9z M431.2,397.9
				h-12.4v-12.4h12.4V397.9z M431.2,398.8v12h-12.4v-12H431.2z M431.2,411.6L431.2,411.6V424h-12.4v-12.4v0H431.2z M418,411.6V424
				h-12v-12.4v0L418,411.6L418,411.6z M406,410.8v-12h12v12H406z M418,397.9h-12v-12.4h12V397.9z M405.1,385.5v12.4h-12.4v-12.4
				H405.1z M391.9,397.9h-11.6v-12.4h11.6V397.9z M379.5,397.9h-12.4v-12.4h12.4V397.9z M379.5,398.8v12h-12.4v-12H379.5z
				 M379.5,411.6L379.5,411.6V424h-12.4v-12.4v0H379.5z M366.2,397.9h-12v-12.4h12V397.9z M366.2,398.8v12h-12v-12H366.2z
				 M366.2,411.6L366.2,411.6V424h-12v-12.4v0H366.2z M353.4,411.6V424h0H341v-12.4v0L353.4,411.6L353.4,411.6L353.4,411.6z
				 M341,410.8v-12h12.4h0v12h0H341z M353.4,397.9L353.4,397.9H341v-12.4h12.4h0V397.9z M340.2,397.9h-12.4v-12.4h12.4V397.9z
				 M340.2,398.8v12h-12.4v-12H340.2z M340.2,411.6L340.2,411.6V424h-12.4v-12.4v0H340.2z M326.9,411.6V424h-12v-12.4v0L326.9,411.6
				L326.9,411.6z M314.9,410.8v-12h12v12H314.9z M326.9,397.9h-12v-12.4h12V397.9z M314.1,385.5v12.4h-12.4v-12.4H314.1z
				 M300.9,397.9h-11.6v-12.4h11.6V397.9z M288.5,397.9H276v-12.4h12.4V397.9z M288.5,398.8v12H276v-12H288.5z M288.5,411.6
				L288.5,411.6V424H276v-12.4v0H288.5z M275.2,397.9h-12v-12.4h12V397.9z M275.2,398.8v12h-12v-12H275.2z M275.2,411.6L275.2,411.6
				V424h-12v-12.4v0H275.2z M262.4,411.6L262.4,411.6L262.4,411.6l0,12.4h0 M262.4,398.8L262.4,398.8l0,12h0 M262.4,385.5
				L262.4,385.5l0,12.4h0 M262.4,450.9L262.4,450.9L262.4,450.9l0,12.4h0 M263.2,450.9L263.2,450.9l12,0v0v12.4h-12V450.9z
				 M276,450.9L276,450.9l12.4,0v0v12.4H276V450.9z M276,464.1h12.4v11.6H276V464.1z M289.3,463.3v-12.4v0h11.6v0v12.4H289.3z
				 M301.7,450.9L301.7,450.9l12.4,0v0v12.4h-12.4V450.9z M314.9,450.9L314.9,450.9l12,0v0v12.4h-12V450.9z M327.8,450.9
				L327.8,450.9l12.4,0v0v12.4h-12.4V450.9z M341,450.9L341,450.9l12.4,0h0v0v12.4h0H341V450.9z M354.2,450.9L354.2,450.9l12,0v0
				v12.4h-12V450.9z M367.1,450.9L367.1,450.9l12.4,0v0v12.4h-12.4V450.9z M367.1,464.1h12.4v11.6h-12.4V464.1z M380.3,463.3v-12.4
				v0h11.6v0v12.4H380.3z M392.7,450.9L392.7,450.9l12.4,0v0v12.4h-12.4V450.9z M406,450.9L406,450.9l12,0v0v12.4h-12V450.9z
				 M418.8,450.9L418.8,450.9l12.4,0v0v12.4h-12.4V450.9z M432,450.9L432,450.9l12.4,0h0v0v12.4h0H432V450.9z M445.3,450.9
				L445.3,450.9l12,0v0v12.4h-12V450.9z M458.1,450.9L458.1,450.9l12.4,0v0v12.4h-12.4V450.9z M458.1,464.1h12.4v11.6h-12.4V464.1z
				 M471.3,463.3v-12.4v0h11.6v0v12.4H471.3z M483.8,450.9L483.8,450.9l12.4,0v0v12.4h-12.4V450.9z M497,450.9L497,450.9l12,0v0
				v12.4h-12V450.9z M509.8,450.9L509.8,450.9l12.4,0v0v12.4h-12.4V450.9z M523.1,450.9L523.1,450.9l12.4,0h0v0v12.4h0h-12.4V450.9z
				 M535.5,437.2h-12.4v-12.4h12.4h0L535.5,437.2L535.5,437.2z M535.5,411.6V424h0h-12.4v-12.4v0L535.5,411.6L535.5,411.6
				L535.5,411.6z M535.5,384.7L535.5,384.7h-12.4v-11.6h12.4h0V384.7z M522.2,384.7h-12.4v-11.6h12.4V384.7z M509,384.7h-12v-11.6
				h12V384.7z M483.8,372.3v-12.4v0h12.4v0v12.4H483.8z M496.2,359h-12.4v-12h12.4V359z M482.9,373.1v11.6h-11.6v-11.6H482.9z
				 M470.5,384.7h-12.4v-11.6h12.4V384.7z M457.3,384.7h-12v-11.6h12V384.7z M444.4,384.7L444.4,384.7H432v-11.6h12.4h0V384.7z
				 M431.2,384.7h-12.4v-11.6h12.4V384.7z M418,384.7h-12v-11.6h12V384.7z M392.7,372.3v-12.4v0h12.4v0v12.4H392.7z M405.1,359
				h-12.4v-12h12.4V359z M391.9,373.1v11.6h-11.6v-11.6H391.9z M379.5,384.7h-12.4v-11.6h12.4V384.7z M366.2,384.7h-12v-11.6h12
				V384.7z M353.4,384.7L353.4,384.7H341v-11.6h12.4h0V384.7z M340.2,384.7h-12.4v-11.6h12.4V384.7z M326.9,384.7h-12v-11.6h12
				V384.7z M301.7,372.3v-12.4v0h12.4v0v12.4H301.7z M314.1,359h-12.4v-12h12.4V359z M300.9,373.1v11.6h-11.6v-11.6H300.9z
				 M288.5,384.7H276v-11.6h12.4V384.7z M275.2,384.7h-12v-11.6h12V384.7z M262.4,373.1L262.4,373.1l0,11.6h0 M262.4,464.1
				L262.4,464.1l0,11.6h0 M263.2,464.1h12v11.6h-12V464.1z M276,489.8h12.4v12H276V489.8z M301.7,464.1h12.4v11.6h-12.4V464.1z
				 M314.9,464.1h12v11.6h-12V464.1z M327.8,475.7v-11.6h12.4v11.6H327.8z M341,464.1h12.4h0v11.6h0H341V464.1z M354.2,464.1h12
				v11.6h-12V464.1z M367.1,489.8h12.4v12h-12.4V489.8z M392.7,464.1h12.4v11.6h-12.4V464.1z M406,464.1h12v11.6h-12V464.1z
				 M418.8,475.7v-11.6h12.4v11.6H418.8z M432,464.1h12.4h0v11.6h0H432V464.1z M445.3,464.1h12v11.6h-12V464.1z M458.1,489.8h12.4
				v12h-12.4V489.8z M483.8,464.1h12.4v11.6h-12.4V464.1z M497,464.1h12v11.6h-12V464.1z M509.8,475.7v-11.6h12.4v11.6H509.8z
				 M523.1,464.1h12.4h0v11.6h0h-12.4V464.1z M536.3,464.1h12v11.6h-12V464.1z M536.3,463.3v-12.4v0h12v0v12.4H536.3z M536.3,437.2
				v-12.4h12v12.4H536.3z M548.3,411.6V424h-12v-12.4v0L548.3,411.6L548.3,411.6z M549.1,398.8h12.4v12h-12.4V398.8z M549.1,397.9
				v-12.4h12.4v12.4H549.1z M536.3,333.8h12v12.4h-12V333.8z M536.3,347h12v12h-12V347z M536.3,359.9L536.3,359.9l12,0v0v12.4h-12
				V359.9z M523.1,333.8h12.4h0v12.4h0h-12.4V333.8z M523.1,347h12.4h0v12h0h-12.4V347z M523.1,359.9L523.1,359.9l12.4,0h0v0v12.4h0
				h-12.4V359.9z M509.8,333.8h12.4v12.4h-12.4V333.8z M509.8,347h12.4v12h-12.4V347z M509.8,359.9L509.8,359.9l12.4,0v0v12.4h-12.4
				V359.9z M497,333.8h12v12.4h-12V333.8z M497,347h12v12h-12V347z M497,359.9L497,359.9l12,0v0v12.4h-12V359.9z M496.2,333.8v12.4
				h-12.4v-12.4H496.2z M482.9,333.8v12.4h-11.6v-12.4H482.9z M458.1,333.8h12.4v12.4h-12.4V333.8z M458.1,347h12.4v12h-12.4V347z
				 M458.1,359.9L458.1,359.9l12.4,0v0v12.4h-12.4V359.9z M445.3,333.8h12v12.4h-12V333.8z M445.3,347h12v12h-12V347z M445.3,359.9
				L445.3,359.9l12,0v0v12.4h-12V359.9z M432,333.8h12.4h0v12.4h0H432V333.8z M432,347h12.4h0v12h0H432V347z M432,359.9L432,359.9
				l12.4,0h0v0v12.4h0H432V359.9z M418.8,333.8h12.4v12.4h-12.4V333.8z M418.8,347h12.4v12h-12.4V347z M418.8,359.9L418.8,359.9
				l12.4,0v0v12.4h-12.4V359.9z M406,333.8h12v12.4h-12V333.8z M406,347h12v12h-12V347z M406,359.9L406,359.9l12,0v0v12.4h-12V359.9
				z M405.1,333.8v12.4h-12.4v-12.4H405.1z M391.9,333.8v12.4h-11.6v-12.4H391.9z M367.1,333.8h12.4v12.4h-12.4V333.8z M367.1,347
				h12.4v12h-12.4V347z M367.1,359.9L367.1,359.9l12.4,0v0v12.4h-12.4V359.9z M354.2,333.8h12v12.4h-12V333.8z M354.2,347h12v12h-12
				V347z M354.2,359.9L354.2,359.9l12,0v0v12.4h-12V359.9z M341,333.8h12.4h0v12.4h0H341V333.8z M341,347h12.4h0v12h0H341V347z
				 M341,359.9L341,359.9l12.4,0h0v0v12.4h0H341V359.9z M327.8,333.8h12.4v12.4h-12.4V333.8z M327.8,347h12.4v12h-12.4V347z
				 M327.8,359.9L327.8,359.9l12.4,0v0v12.4h-12.4V359.9z M314.9,333.8h12v12.4h-12V333.8z M314.9,347h12v12h-12V347z M314.9,359.9
				L314.9,359.9l12,0v0v12.4h-12V359.9z M314.1,333.8v12.4h-12.4v-12.4H314.1z M300.9,333.8v12.4h-11.6v-12.4H300.9z M276,333.8
				h12.4v12.4H276V333.8z M276,347h12.4v12H276V347z M276,359.9L276,359.9l12.4,0v0v12.4H276V359.9z M263.2,333.8h12v12.4h-12V333.8
				z M263.2,347h12v12h-12V347z M263.2,359.9L263.2,359.9l12,0v0v12.4h-12V359.9z M262.4,333.8L262.4,333.8l0,12.4h0 M262.4,347
				L262.4,347l0,12h0 M262.4,359.9L262.4,359.9L262.4,359.9l0,12.4h0 M262.4,502.6L262.4,502.6L262.4,502.6l0,12.4h0 M262.4,489.8
				L262.4,489.8l0,12h0 M262.4,476.6L262.4,476.6l0,12.4h0 M275.2,502.6V515h-12v-12.4v0L275.2,502.6L275.2,502.6z M275.2,501.8h-12
				v-12h12V501.8z M275.2,489h-12v-12.4h12V489z M276,515v-12.4v0h12.4v0V515H276z M289.3,515v-12.4v0h11.6v0V515H289.3z
				 M314.1,502.6V515h-12.4v-12.4v0L314.1,502.6L314.1,502.6z M314.1,501.8h-12.4v-12h12.4V501.8z M314.1,489h-12.4v-12.4h12.4V489z
				 M326.9,502.6V515h-12v-12.4v0L326.9,502.6L326.9,502.6z M326.9,501.8h-12v-12h12V501.8z M326.9,489h-12v-12.4h12V489z
				 M327.8,515v-12.4v0h12.4v0V515H327.8z M353.4,502.6V515h0H341v-12.4v0L353.4,502.6L353.4,502.6L353.4,502.6z M353.4,501.8
				L353.4,501.8H341v-12h12.4h0V501.8z M353.4,489L353.4,489H341v-12.4h12.4h0V489z M366.2,502.6V515h-12v-12.4v0L366.2,502.6
				L366.2,502.6z M366.2,501.8h-12v-12h12V501.8z M366.2,489h-12v-12.4h12V489z M367.1,515v-12.4v0h12.4v0V515H367.1z M380.3,515
				v-12.4v0h11.6v0V515H380.3z M405.1,502.6V515h-12.4v-12.4v0L405.1,502.6L405.1,502.6z M405.1,501.8h-12.4v-12h12.4V501.8z
				 M405.1,489h-12.4v-12.4h12.4V489z M418,502.6V515h-12v-12.4v0L418,502.6L418,502.6z M418,501.8h-12v-12h12V501.8z M418,489h-12
				v-12.4h12V489z M418.8,515v-12.4v0h12.4v0V515H418.8z M444.4,502.6V515h0H432v-12.4v0L444.4,502.6L444.4,502.6L444.4,502.6z
				 M444.4,501.8L444.4,501.8H432v-12h12.4h0V501.8z M444.4,489L444.4,489H432v-12.4h12.4h0V489z M457.3,502.6V515h-12v-12.4v0
				L457.3,502.6L457.3,502.6z M457.3,501.8h-12v-12h12V501.8z M457.3,489h-12v-12.4h12V489z M458.1,515v-12.4v0h12.4v0V515H458.1z
				 M471.3,515v-12.4v0h11.6v0V515H471.3z M496.2,502.6V515h-12.4v-12.4v0L496.2,502.6L496.2,502.6z M496.2,501.8h-12.4v-12h12.4
				V501.8z M496.2,489h-12.4v-12.4h12.4V489z M509,502.6V515h-12v-12.4v0L509,502.6L509,502.6z M509,501.8h-12v-12h12V501.8z
				 M509,489h-12v-12.4h12V489z M509.8,515v-12.4v0h12.4v0V515H509.8z M535.5,502.6V515h0h-12.4v-12.4v0L535.5,502.6L535.5,502.6
				L535.5,502.6z M535.5,501.8L535.5,501.8h-12.4v-12h12.4h0V501.8z M535.5,489L535.5,489h-12.4v-12.4h12.4h0V489z M548.3,502.6V515
				h-12v-12.4v0L548.3,502.6L548.3,502.6z M548.3,501.8h-12v-12h12V501.8z M548.3,489h-12v-12.4h12V489z M561.5,502.6V515h-12.4
				v-12.4v0L561.5,502.6L561.5,502.6z M561.5,501.8h-12.4v-12h12.4V501.8z M561.5,489h-12.4v-12.4h12.4V489z M549.1,463.3v-12.4v0
				h12.4v0v12.4H549.1z M549.1,437.2v-12.4h12.4v12.4H549.1z M561.5,411.6V424h-12.4v-12.4v0L561.5,411.6L561.5,411.6z M549.1,372.3
				v-12.4v0h12.4v0v12.4H549.1z"/>
		</g>
		<linearGradient id="SVGID_32_" gradientUnits="userSpaceOnUse" x1="425.4033" y1="540.2211" x2="425.4033" y2="333.7891">
			<stop  offset="5.712154e-03" style="stop-color:#454545"/>
			<stop  offset="1" style="stop-color:#B2B2B2"/>
		</linearGradient>
		<polygon class="st30" points="280.3,441.5 432,423.9 570.5,436.2 570.5,532 280.3,528.3 		"/>
		<g>
			<g>
				<polygon class="st16" points="279.2,442.1 279.5,437.7 431.7,419.6 570.5,431.9 570.5,436.2 432,423.9 				"/>
			</g>
		</g>
		<linearGradient id="SVGID_33_" gradientUnits="userSpaceOnUse" x1="424.8963" y1="540.2211" x2="424.8963" y2="333.7891">
			<stop  offset="5.712154e-03" style="stop-color:#454545"/>
			<stop  offset="1" style="stop-color:#B2B2B2"/>
		</linearGradient>
		<polygon class="st31" points="279.8,441.5 431.5,423.9 570,436.2 570,532 279.8,528.3 		"/>
	</g>
</g>
<linearGradient id="SVGID_34_" gradientUnits="userSpaceOnUse" x1="425.3279" y1="499.7409" x2="425.3279" y2="251.4419">
	<stop  offset="5.712154e-03" style="stop-color:#454545"/>
	<stop  offset="1" style="stop-color:#B2B2B2"/>
</linearGradient>
<circle class="st32" cx="425.3" cy="424.8" r="65"/>
<g>
	<g>
		<path class="st18" d="M425.2,371.9c30,0,54.3,24.3,54.3,54.3v0c0,30-24.3,54.3-54.3,54.3h0c-30,0-54.3-24.3-54.3-54.3v0
			C370.9,396.2,395.2,371.9,425.2,371.9L425.2,371.9 M425.2,362.2c-35.3,0-64.1,28.7-64.1,64.1s28.7,64.1,64.1,64.1
			s64.1-28.7,64.1-64.1S460.6,362.2,425.2,362.2L425.2,362.2z"/>
		<path class="st19" d="M425.2,492.6c-36.6,0-66.3-29.8-66.3-66.3s29.8-66.3,66.3-66.3s66.3,29.8,66.3,66.3S461.8,492.6,425.2,492.6
			z M425.2,364.4c-34.1,0-61.8,27.7-61.8,61.8s27.7,61.8,61.8,61.8s61.8-27.7,61.8-61.8S459.3,364.4,425.2,364.4z M425.2,482.8
			c-31.2,0-56.6-25.4-56.6-56.6s25.4-56.6,56.6-56.6s56.6,25.4,56.6,56.6S456.5,482.8,425.2,482.8z M425.2,374.2
			c-28.7,0-52.1,23.4-52.1,52.1s23.4,52.1,52.1,52.1s52.1-23.4,52.1-52.1S453.9,374.2,425.2,374.2z"/>
	</g>
	<g>
		<g>
			<g>
				<path class="st18" d="M464.3,402.6c-3.9-6.9-9.3-12.3-16.1-16.2c-3-1.7-6.1-3-9.4-4c-3.6-1.1-7.2,1.8-7.2,5.5v0
					c0,2.5,1.7,4.7,4.1,5.5c2.2,0.7,4.3,1.7,6.3,2.8c4.9,3,8.8,7,11.7,12.1c2.8,5.1,4.3,10.8,4.3,17.2c0,6.3-1.4,12.1-4.3,17.2
					c-2.8,5.1-6.7,9.1-11.7,12c-1.3,0.8-2.7,1.4-4.1,2V454v-6.1v-5.1v-9c0-1.8-0.6-3.3-1.8-4.5c-1.2-1.2-2.7-1.8-4.5-1.8
					c-1.7,0-3.2,0.6-4.4,1.8c-1.2,1.2-1.8,2.7-1.8,4.5v9v5.1v6.4v5v4.1c0,1.7,0.6,3.2,1.8,4.4c1.2,1.2,2.7,1.8,4.4,1.8
					c1,0,1.8-0.2,2.6-0.5c3.2-0.7,6.2-1.8,9-3.3c5.8-3,10.6-7,14.3-12.2v9.7c0,1.8,0.6,3.3,1.8,4.4c1.2,1.1,2.7,1.7,4.5,1.7
					c1.8,0,3.3-0.6,4.5-1.8c1.2-1.2,1.8-2.6,1.8-4.4v-37.9C470.1,417.1,468.2,409.4,464.3,402.6z"/>
			</g>
		</g>
		<g>
			<g>
				<path class="st18" d="M425.3,412.6v-5.4v-6.1v-5.1v-9c0-1.8-0.6-3.3-1.8-4.5c-1.2-1.2-2.7-1.8-4.5-1.8c-0.8,0-1.5,0.1-2.1,0.4
					c-5.1,0.9-10,2.6-14.4,5.1c-6.8,3.9-12.2,9.3-16.1,16.2c-3.9,6.9-5.9,14.5-5.9,22.9s1.9,16,5.7,22.8c3.8,6.8,9,12.2,15.6,16.1
					c3.1,1.8,6.3,3.2,9.8,4.2c3.7,1.1,7.5-1.7,7.5-5.6c0-2.6-1.7-4.8-4.2-5.6c-2.2-0.7-4.2-1.6-6.2-2.8c-5-2.9-8.9-6.9-11.8-12
					c-2.8-5.1-4.3-10.8-4.3-17.2c0-6.3,1.4-12.1,4.3-17.2c2.8-5.1,6.8-9.1,11.8-12.1c1.4-0.8,2.8-1.5,4.2-2.1v1.9v5.1v6.4v5v4.1
					c0,1.7,0.6,3.2,1.8,4.4c1.2,1.2,2.7,1.8,4.4,1.8c1.8,0,3.3-0.6,4.5-1.8c1.2-1.2,1.8-2.7,1.8-4.4V412.6z"/>
			</g>
		</g>
	</g>
</g>
</svg>
