<?xml version="1.0" encoding="utf-8"?>
<!-- Generator: Adobe Illustrator 22.0.0, SVG Export Plug-In . SVG Version: 6.00 Build 0)  -->
<svg version="1.1" id="Layer_1" xmlns="http://www.w3.org/2000/svg"  x="0px" y="0px"
	 viewBox="0 0 1024 1024" style="enable-background:new 0 0 1024 1024;" xml:space="preserve">
<style type="text/css">
	.st0{fill:#FFFFFF;stroke:#008D36;stroke-width:18;stroke-miterlimit:10;}
	.st1{fill:#FFFFFF;stroke:#E30613;stroke-width:7;stroke-miterlimit:10;}
	.st2{fill:#FFFFFF;stroke:#000000;stroke-width:7;stroke-miterlimit:10;}
	.st3{fill:#575656;}
	.st4{fill:#484495;}
	.st5{fill:#009FE3;}
	.st6{fill:#24ABD0;}
	.st7{fill:#76BA55;}
	.st8{fill:#FFFFFF;}
	.st9{fill:#7E4997;}
	.st10{fill:#EB612A;}
	.st11{fill:#DB542D;}
	.st12{font-family:'Comfortaa-Light';}
	.st13{font-size:12.1524px;}
	.st14{font-family:'Comfortaa-Bold';}
	.st15{font-size:44.9384px;}
	.st16{letter-spacing:-3;}
	.st17{font-family:'MyriadPro-Regular';}
	.st18{font-size:27.1978px;}
	.st19{font-size:15.6302px;}
	.st20{letter-spacing:-1;}
	.st21{font-size:28.746px;}
	.st22{letter-spacing:-2;}
</style>
<rect x="448.7" y="692.7" class="st0" width="296.8" height="232.3"/>
<rect x="758" y="685" class="st1" width="229.8" height="247"/>
<rect x="70" y="692.7" class="st2" width="328.6" height="232.3"/>
<g>
	<g>
		<path class="st3" d="M122.5,530.1c3.7,2.2,6.7,5.2,8.9,9c2.2,3.8,3.3,8,3.3,12.7v20c0,1.3-0.4,2.4-1.3,3.3c-0.9,0.9-2,1.3-3.3,1.3
			c-1.3,0-2.4-0.4-3.3-1.3c-0.9-0.9-1.3-2-1.3-3.3v-3.3c-2.1,2.6-4.6,4.6-7.6,6c-3,1.4-6.2,2.2-9.7,2.2c-4.3,0-8.2-1.1-11.7-3.2
			c-3.5-2.2-6.3-5.1-8.3-8.9c-2-3.8-3-8-3-12.7c0-4.7,1.1-8.9,3.2-12.7c2.2-3.8,5.1-6.8,8.9-9c3.8-2.2,8-3.3,12.6-3.3
			S118.8,527.9,122.5,530.1z M118.1,566.4c2.4-1.5,4.3-3.5,5.7-6c1.4-2.5,2.1-5.4,2.1-8.6c0-3.2-0.7-6-2.1-8.6
			c-1.4-2.6-3.3-4.6-5.7-6.1c-2.4-1.5-5.1-2.2-8.1-2.2s-5.7,0.7-8.1,2.2c-2.4,1.5-4.3,3.5-5.7,6.1c-1.4,2.6-2.1,5.4-2.1,8.6
			c0,3.2,0.7,6,2.1,8.6c1.4,2.5,3.3,4.6,5.7,6c2.4,1.5,5.1,2.2,8.1,2.2S115.7,567.9,118.1,566.4z"/>
		<path class="st3" d="M177.2,529.4c3.3,1.8,5.9,4.4,7.7,7.9c1.9,3.4,2.8,7.6,2.8,12.4v22.1c0,1.3-0.4,2.4-1.3,3.3
			c-0.9,0.9-2,1.3-3.3,1.3c-1.3,0-2.4-0.4-3.3-1.3c-0.9-0.9-1.3-2-1.3-3.3v-22.1c0-4.9-1.3-8.5-3.9-11c-2.6-2.5-6.1-3.7-10.4-3.7
			c-2.5,0-4.8,0.5-6.9,1.5c-2.1,1-3.7,2.4-4.9,4.1c-1.2,1.7-1.8,3.7-1.8,5.8v25.3c0,1.3-0.4,2.4-1.3,3.3c-0.8,0.9-1.9,1.3-3.3,1.3
			c-1.3,0-2.4-0.4-3.3-1.3c-0.9-0.9-1.3-2-1.3-3.3v-40.1c0-1.4,0.4-2.5,1.3-3.3c0.9-0.8,2-1.3,3.3-1.3c1.4,0,2.5,0.4,3.3,1.3
			c0.8,0.8,1.3,1.9,1.3,3.3v1c1.9-1.9,4.2-3.4,6.8-4.4c2.6-1,5.4-1.6,8.4-1.6C170.2,526.7,173.9,527.6,177.2,529.4z"/>
		<path class="st3" d="M241.8,507.4c0.8,0.8,1.3,1.9,1.3,3.3v41c0,4.7-1.1,8.9-3.3,12.7c-2.2,3.8-5.2,6.8-8.9,9
			c-3.7,2.2-7.9,3.3-12.5,3.3s-8.8-1.1-12.6-3.3c-3.8-2.2-6.8-5.2-8.9-9c-2.2-3.8-3.2-8-3.2-12.7c0-4.7,1-8.9,3-12.7
			c2-3.8,4.8-6.8,8.3-8.9c3.5-2.2,7.4-3.2,11.7-3.2c3.5,0,6.7,0.7,9.7,2.2c3,1.4,5.5,3.4,7.6,6v-24.3c0-1.4,0.4-2.5,1.3-3.3
			c0.9-0.8,2-1.3,3.3-1.3C239.9,506.2,241,506.6,241.8,507.4z M226.5,566.4c2.4-1.5,4.3-3.5,5.7-6.1c1.4-2.6,2.1-5.4,2.1-8.6
			c0-3.2-0.7-6-2.1-8.6c-1.4-2.5-3.3-4.6-5.7-6c-2.4-1.5-5.1-2.2-8.1-2.2s-5.7,0.7-8.1,2.2c-2.4,1.5-4.3,3.5-5.7,6
			c-1.4,2.5-2.1,5.4-2.1,8.6c0,3.2,0.7,6,2.1,8.6c1.4,2.6,3.3,4.6,5.7,6.1c2.4,1.5,5.1,2.2,8.1,2.2S224.1,567.9,226.5,566.4z"/>
		<path class="st3" d="M284,528.1c1.8,1,2.7,2.2,2.7,3.6c0,0.4,0,0.7-0.1,0.9c-0.5,1.9-1.7,2.9-3.6,2.9c-0.3,0-0.7-0.1-1.3-0.2
			c-2.4-0.4-4.3-0.6-5.8-0.6c-4.3,0-7.8,1-10.4,3c-2.6,2-4,4.6-4,8v26.2c0,1.4-0.4,2.5-1.1,3.3c-0.7,0.8-1.9,1.2-3.4,1.2
			c-1.4,0-2.5-0.4-3.3-1.1c-0.8-0.7-1.2-1.9-1.2-3.4v-40.1c0-1.4,0.4-2.5,1.2-3.3c0.8-0.8,1.9-1.2,3.3-1.2c3,0,4.5,1.5,4.5,4.5v1.7
			c1.8-2.1,4-3.7,6.6-4.9c2.6-1.2,5.4-1.8,8.4-1.8C279.8,526.7,282.3,527.1,284,528.1z"/>
		<path class="st3" d="M320.8,530c3.7,2.1,6.7,5.1,8.8,8.8s3.2,8.1,3.2,12.9c0,4.8-1,9.1-3.1,12.8c-2.1,3.8-5,6.7-8.8,8.8
			c-3.7,2.1-8,3.2-12.8,3.2c-4.8,0-9.1-1.1-12.8-3.2c-3.8-2.1-6.7-5.1-8.8-8.8c-2.1-3.8-3.1-8.1-3.1-12.8c0-4.9,1-9.2,3.1-12.9
			c2.1-3.8,5-6.7,8.8-8.8c3.8-2.1,8.1-3.2,12.8-3.2C312.8,526.8,317.1,527.9,320.8,530z M299.9,537.1c-2.4,1.4-4.3,3.4-5.7,6
			c-1.4,2.6-2.1,5.5-2.1,8.7c0,3.2,0.7,6.1,2.1,8.7c1.4,2.5,3.3,4.5,5.7,6c2.4,1.4,5.2,2.2,8.2,2.2c3.1,0,5.8-0.7,8.2-2.2
			c2.4-1.4,4.3-3.4,5.7-6c1.3-2.5,2-5.4,2-8.7c0-3.2-0.7-6.1-2-8.7c-1.3-2.6-3.2-4.6-5.7-6c-2.4-1.4-5.2-2.2-8.2-2.2
			C305.1,534.9,302.3,535.6,299.9,537.1z"/>
		<path class="st3" d="M349.4,509.1c1.2,1.2,1.8,2.6,1.8,4.2c0,1.6-0.6,3-1.8,4.2s-2.6,1.8-4.2,1.8s-3-0.6-4.2-1.8
			c-1.2-1.2-1.8-2.6-1.8-4.2c0-1.6,0.6-3,1.8-4.2c1.2-1.2,2.6-1.8,4.2-1.8S348.2,507.9,349.4,509.1z M341.9,528.4
			c0.9-0.8,2-1.3,3.3-1.3c1.4,0,2.5,0.4,3.3,1.3c0.8,0.8,1.3,1.9,1.3,3.3v40c0,1.3-0.4,2.4-1.3,3.3c-0.8,0.9-1.9,1.3-3.3,1.3
			c-1.3,0-2.4-0.4-3.3-1.3c-0.9-0.9-1.3-2-1.3-3.3v-40C340.6,530.4,341.1,529.3,341.9,528.4z"/>
		<path class="st3" d="M405.8,507.4c0.8,0.8,1.3,1.9,1.3,3.3v41c0,4.7-1.1,8.9-3.3,12.7c-2.2,3.8-5.2,6.8-8.9,9
			c-3.7,2.2-7.9,3.3-12.5,3.3c-4.6,0-8.8-1.1-12.6-3.3c-3.8-2.2-6.8-5.2-8.9-9c-2.2-3.8-3.2-8-3.2-12.7c0-4.7,1-8.9,3-12.7
			c2-3.8,4.8-6.8,8.3-8.9c3.5-2.2,7.4-3.2,11.7-3.2c3.5,0,6.7,0.7,9.7,2.2c3,1.4,5.5,3.4,7.6,6v-24.3c0-1.4,0.4-2.5,1.3-3.3
			c0.9-0.8,2-1.3,3.3-1.3C403.9,506.2,405,506.6,405.8,507.4z M390.5,566.4c2.4-1.5,4.3-3.5,5.7-6.1c1.4-2.6,2.1-5.4,2.1-8.6
			c0-3.2-0.7-6-2.1-8.6c-1.4-2.5-3.3-4.6-5.7-6c-2.4-1.5-5.1-2.2-8.1-2.2c-3,0-5.7,0.7-8.1,2.2c-2.4,1.5-4.3,3.5-5.7,6
			c-1.4,2.5-2.1,5.4-2.1,8.6c0,3.2,0.7,6,2.1,8.6c1.4,2.6,3.3,4.6,5.7,6.1c2.4,1.5,5.1,2.2,8.1,2.2
			C385.4,568.6,388.1,567.9,390.5,566.4z"/>
		<path class="st4" d="M451.3,530.1c3.7,2.2,6.7,5.2,8.9,9c2.2,3.8,3.3,8,3.3,12.7v20c0,1.3-0.4,2.4-1.3,3.3c-0.9,0.9-2,1.3-3.3,1.3
			c-1.3,0-2.4-0.4-3.3-1.3c-0.9-0.9-1.3-2-1.3-3.3v-3.3c-2.1,2.6-4.6,4.6-7.6,6c-3,1.4-6.2,2.2-9.7,2.2c-4.3,0-8.2-1.1-11.7-3.2
			c-3.5-2.2-6.3-5.1-8.3-8.9c-2-3.8-3-8-3-12.7c0-4.7,1.1-8.9,3.2-12.7c2.2-3.8,5.1-6.8,8.9-9c3.8-2.2,8-3.3,12.6-3.3
			S447.6,527.9,451.3,530.1z M446.9,566.4c2.4-1.5,4.3-3.5,5.7-6c1.4-2.5,2.1-5.4,2.1-8.6c0-3.2-0.7-6-2.1-8.6
			c-1.4-2.6-3.3-4.6-5.7-6.1c-2.4-1.5-5.1-2.2-8.1-2.2c-3,0-5.7,0.7-8.1,2.2c-2.4,1.5-4.3,3.5-5.7,6.1c-1.4,2.6-2.1,5.4-2.1,8.6
			c0,3.2,0.7,6,2.1,8.6c1.4,2.5,3.3,4.6,5.7,6c2.4,1.5,5.1,2.2,8.1,2.2C441.8,568.6,444.5,567.9,446.9,566.4z"/>
		<path class="st4" d="M514.5,530.1c3.8,2.2,6.8,5.2,8.9,9c2.2,3.8,3.2,8,3.2,12.7c0,4.7-1,8.9-3,12.7c-2,3.8-4.8,6.8-8.3,8.9
			c-3.5,2.2-7.4,3.2-11.7,3.2c-3.5,0-6.7-0.7-9.7-2.2c-3-1.4-5.5-3.4-7.6-6v24.3c0,1.4-0.4,2.5-1.3,3.3c-0.8,0.8-1.9,1.3-3.3,1.3
			c-1.3,0-2.4-0.4-3.3-1.3c-0.9-0.8-1.3-1.9-1.3-3.3v-41c0-4.7,1.1-8.9,3.3-12.7c2.2-3.8,5.1-6.8,8.9-9c3.7-2.2,7.9-3.3,12.5-3.3
			C506.5,526.8,510.7,527.9,514.5,530.1z M510,566.4c2.4-1.5,4.3-3.5,5.7-6c1.4-2.5,2.1-5.4,2.1-8.6c0-3.2-0.7-6-2.1-8.6
			c-1.4-2.6-3.3-4.6-5.7-6.1c-2.4-1.5-5.1-2.2-8.1-2.2c-3,0-5.7,0.7-8.1,2.2c-2.4,1.5-4.3,3.5-5.7,6.1c-1.4,2.6-2.1,5.4-2.1,8.6
			c0,3.2,0.7,6,2.1,8.6c1.4,2.5,3.3,4.6,5.7,6c2.4,1.5,5.1,2.2,8.1,2.2C504.8,568.6,507.6,567.9,510,566.4z"/>
		<path class="st4" d="M568,528.7c3.1,1.3,5.5,3,7.3,5.2c0.8,1,1.2,1.9,1.2,2.9c0,1-0.5,1.9-1.5,2.8c-0.7,0.5-1.5,0.7-2.5,0.7
			c-1.6,0-3-0.6-4.2-1.7c-1.5-1.4-3.1-2.3-4.8-2.9c-1.7-0.6-3.7-0.9-6.1-0.9c-2.8,0-5,0.5-6.8,1.4c-1.8,0.9-2.6,2.2-2.6,3.9
			c0,1.2,0.3,2.2,0.9,3c0.6,0.8,1.7,1.6,3.4,2.2c1.7,0.7,4.1,1.4,7.3,2c6.5,1.3,11.2,3.1,13.9,5.5s4.1,5.4,4.1,9.1
			c0,2.8-0.7,5.3-2.2,7.5c-1.5,2.2-3.7,4-6.6,5.3c-2.9,1.3-6.4,1.9-10.5,1.9c-4.1,0-7.9-0.6-11.5-1.9c-3.6-1.3-6.4-2.9-8.4-4.9
			c-0.8-0.8-1.2-1.7-1.2-2.8c0-1.4,0.6-2.6,1.8-3.5c1.1-0.8,2.2-1.3,3.1-1.3c1.2,0,2.3,0.5,3.4,1.6c1.1,1.3,2.8,2.4,5.1,3.3
			c2.3,0.9,4.7,1.4,7.3,1.4c3.4,0,6.1-0.6,7.9-1.7c1.9-1.1,2.8-2.7,2.8-4.6c0-1.9-0.9-3.4-2.8-4.6c-1.9-1.2-5-2.3-9.4-3.1
			c-11.5-2.2-17.2-6.9-17.2-14.2c0-2.9,0.9-5.4,2.6-7.5c1.7-2,4-3.6,6.8-4.6c2.8-1,5.8-1.5,9-1.5C561.4,526.8,564.9,527.5,568,528.7
			z"/>
	</g>
	<g>
		<g>
			<path class="st5" d="M408.2,331.1c-7.9-13.8-18.6-24.6-32.3-32.4c-6-3.4-12.2-6.1-18.8-8c-7.2-2.1-14.4,3.5-14.4,11.1v0
				c0,5.1,3.4,9.4,8.2,11c4.4,1.4,8.5,3.3,12.5,5.7c9.9,5.9,17.7,14,23.4,24.2c5.7,10.2,8.5,21.7,8.5,34.4c0,12.7-2.9,24.1-8.5,34.4
				c-5.7,10.2-13.5,18.2-23.4,24c-2.7,1.6-5.4,2.9-8.3,4v-5.4v-12.2v-10.3v-17.9c0-3.6-1.2-6.6-3.5-9c-2.3-2.3-5.3-3.5-9-3.5
				c-3.4,0-6.3,1.2-8.8,3.5c-2.5,2.3-3.7,5.3-3.7,9v17.9v10.3v12.9v10.1v8.2c0,3.4,1.2,6.4,3.7,8.8c2.4,2.5,5.4,3.7,8.8,3.7
				c1.9,0,3.7-0.4,5.3-1.1c6.3-1.5,12.3-3.6,18.1-6.6c11.6-5.9,21.2-14,28.7-24.4v19.4c0,3.7,1.2,6.6,3.5,8.9c2.4,2.3,5.4,3.4,9,3.4
				c3.7,0,6.7-1.2,9-3.6c2.4-2.4,3.6-5.3,3.6-8.7v-75.8C420,360.1,416.1,344.9,408.2,331.1z"/>
		</g>
		<g>
			<path class="st6" d="M330.3,351.3v-10.8v-12.2v-10.3v-17.9c0-3.6-1.2-6.6-3.5-9c-2.3-2.3-5.3-3.5-9-3.5c-1.5,0-2.9,0.3-4.3,0.7
				c-10.3,1.8-19.9,5.1-28.9,10.3c-13.7,7.9-24.4,18.7-32.3,32.4c-7.9,13.8-11.8,29-11.8,45.8c0,16.8,3.8,32,11.5,45.6
				c7.6,13.7,18.1,24.4,31.3,32.3c6.2,3.7,12.7,6.5,19.5,8.4c7.5,2.1,14.9-3.4,14.9-11.2c0-5.2-3.5-9.6-8.4-11.2
				c-4.3-1.4-8.5-3.2-12.5-5.5c-10-5.8-17.9-13.8-23.6-24c-5.7-10.2-8.5-21.7-8.5-34.4c0-12.7,2.8-24.1,8.5-34.4
				c5.7-10.2,13.6-18.3,23.6-24.2c2.7-1.6,5.5-2.9,8.4-4.1v3.8v10.3v12.9v10.1v8.2c0,3.4,1.2,6.4,3.7,8.8c2.4,2.5,5.4,3.7,8.8,3.7
				c3.6,0,6.6-1.2,9-3.7c2.3-2.4,3.5-5.4,3.5-8.8V351.3z"/>
		</g>
	</g>
</g>
<g>
	<g>
		<g>
			<path class="st5" d="M888.4,332.9c-7.7-13.5-18.3-24.2-31.7-31.9c-5.9-3.4-12-6-18.5-7.9c-7.1-2.1-14.2,3.5-14.2,10.9v0
				c0,5,3.3,9.2,8.1,10.8c4.3,1.4,8.4,3.3,12.3,5.6c9.7,5.8,17.4,13.8,23,23.8c5.6,10.1,8.4,21.3,8.4,33.8c0,12.5-2.8,23.8-8.4,33.8
				c-5.6,10.1-13.3,17.9-23,23.6c-2.6,1.5-5.4,2.8-8.1,3.9v-5.3v-12V412v-17.6c0-3.6-1.2-6.5-3.5-8.8c-2.3-2.3-5.2-3.5-8.8-3.5
				c-3.4,0-6.2,1.2-8.7,3.5c-2.4,2.3-3.6,5.2-3.6,8.8V412v10.1v12.7v9.9v8.1c0,3.4,1.2,6.2,3.6,8.7c2.4,2.4,5.3,3.6,8.7,3.6
				c1.9,0,3.6-0.4,5.2-1.1c6.2-1.5,12.1-3.6,17.8-6.5c11.4-5.8,20.8-13.8,28.3-24v19c0,3.6,1.2,6.5,3.5,8.7c2.3,2.2,5.3,3.3,8.9,3.3
				c3.6,0,6.6-1.2,8.9-3.5c2.3-2.3,3.5-5.2,3.5-8.6V378C900,361.5,896.1,346.5,888.4,332.9z"/>
		</g>
		<g>
			<path class="st6" d="M811.8,352.8v-10.6v-12v-10.1v-17.6c0-3.6-1.2-6.5-3.5-8.8c-2.3-2.3-5.2-3.5-8.8-3.5c-1.5,0-2.9,0.3-4.2,0.7
				c-10.1,1.7-19.6,5-28.4,10.1c-13.4,7.7-24,18.4-31.7,31.9c-7.7,13.5-11.6,28.6-11.6,45.1s3.8,31.5,11.3,44.9
				c7.5,13.4,17.8,24,30.8,31.7c6.1,3.6,12.5,6.4,19.2,8.3c7.4,2.1,14.7-3.4,14.7-11c0-5.1-3.4-9.4-8.3-11
				c-4.3-1.4-8.4-3.2-12.3-5.4c-9.8-5.7-17.6-13.6-23.2-23.6c-5.6-10.1-8.4-21.3-8.4-33.8c0-12.5,2.8-23.8,8.4-33.8
				c5.6-10,13.3-18,23.2-23.8c2.7-1.6,5.5-2.9,8.3-4v3.8v10.1v12.7v9.9v8.1c0,3.4,1.2,6.2,3.6,8.7c2.4,2.4,5.3,3.6,8.7,3.6
				c3.6,0,6.5-1.2,8.8-3.6c2.3-2.4,3.5-5.3,3.5-8.7V352.8z"/>
		</g>
	</g>
	<g>
		<g>
			<path class="st3" d="M682.4,528.1c3.8,2.2,6.7,5.1,8.9,8.9c2.2,3.8,3.2,8,3.2,12.6v21.5c0,0.8-0.2,1.4-0.7,1.9
				c-0.5,0.5-1.1,0.8-1.9,0.8c-0.8,0-1.4-0.2-1.9-0.8c-0.5-0.5-0.8-1.1-0.8-1.9v-6.9c-1.9,3.1-4.6,5.6-8,7.4
				c-3.4,1.8-7.2,2.7-11.4,2.7c-4.7,0-8.9-1.1-12.6-3.2c-3.8-2.2-6.7-5.1-8.9-8.9c-2.2-3.8-3.2-8-3.2-12.5c0-4.7,1.1-8.9,3.2-12.6
				c2.2-3.8,5.1-6.7,8.9-8.9c3.8-2.2,8-3.2,12.6-3.2C674.4,524.9,678.6,525.9,682.4,528.1z M679.7,566.7c2.9-1.7,5.3-4.1,6.9-7.1
				c1.7-3,2.5-6.4,2.5-10.1c0-3.7-0.8-7.1-2.5-10.1c-1.7-3-4-5.4-6.9-7.1c-2.9-1.7-6.2-2.6-9.9-2.6c-3.7,0-7,0.9-9.9,2.6
				c-2.9,1.7-5.3,4.1-7,7.1c-1.7,3-2.6,6.4-2.6,10.1c0,3.7,0.9,7.1,2.6,10.1c1.7,3,4,5.4,7,7.1c2.9,1.7,6.2,2.6,9.9,2.6
				C673.5,569.3,676.8,568.5,679.7,566.7z"/>
			<path class="st3" d="M734.7,527.4c3.4,1.8,6,4.3,8,7.7c1.9,3.4,2.9,7.4,2.9,12.2v23.8c0,0.8-0.3,1.4-0.8,1.9
				c-0.5,0.5-1.1,0.8-1.9,0.8c-0.8,0-1.4-0.2-1.9-0.8c-0.5-0.5-0.8-1.1-0.8-1.9v-23.8c0-5.6-1.6-9.9-4.7-12.8
				c-3.2-2.9-7.3-4.4-12.3-4.4c-3.1,0-6,0.6-8.5,1.8c-2.6,1.2-4.6,2.9-6.1,5c-1.5,2.2-2.2,4.5-2.2,7.1v27c0,0.8-0.2,1.4-0.7,1.9
				c-0.5,0.5-1.1,0.8-1.9,0.8c-0.8,0-1.4-0.2-1.9-0.8c-0.5-0.5-0.8-1.1-0.8-1.9v-43c0-0.8,0.3-1.5,0.8-1.9c0.5-0.5,1.1-0.7,1.9-0.7
				c0.8,0,1.5,0.2,1.9,0.7c0.5,0.5,0.7,1.1,0.7,1.9v4.6c2-2.5,4.4-4.4,7.3-5.8c2.9-1.4,6-2.1,9.5-2.1
				C727.5,524.8,731.3,525.6,734.7,527.4z"/>
			<path class="st3" d="M788.2,528.3c3.7,2.2,6.6,5.1,8.7,8.8c2.2,3.7,3.2,7.9,3.2,12.5v19.7c0,1.3-0.4,2.4-1.3,3.2
				c-0.9,0.9-1.9,1.3-3.2,1.3c-1.3,0-2.4-0.4-3.2-1.3c-0.9-0.9-1.3-1.9-1.3-3.2V566c-2.1,2.5-4.6,4.5-7.5,5.9
				c-2.9,1.4-6.1,2.1-9.5,2.1c-4.2,0-8.1-1.1-11.5-3.2c-3.4-2.1-6.2-5.1-8.1-8.8c-2-3.7-3-7.9-3-12.5c0-4.6,1.1-8.8,3.2-12.5
				c2.1-3.7,5.1-6.7,8.8-8.8c3.7-2.2,7.9-3.2,12.4-3.2C780.4,525,784.5,526.1,788.2,528.3z M783.9,564c2.4-1.4,4.3-3.4,5.6-5.9
				c1.4-2.5,2-5.3,2-8.4c0-3.1-0.7-6-2-8.5c-1.4-2.5-3.2-4.5-5.6-6c-2.4-1.4-5.1-2.2-8-2.2c-2.9,0-5.6,0.7-8,2.2
				c-2.4,1.4-4.3,3.4-5.7,6c-1.4,2.5-2.1,5.4-2.1,8.5c0,3.1,0.7,5.9,2.1,8.4c1.4,2.5,3.3,4.5,5.7,5.9c2.4,1.4,5.1,2.2,8,2.2
				C778.8,566.1,781.5,565.4,783.9,564z"/>
			<path class="st3" d="M843.7,528.3c3.7,2.2,6.7,5.1,8.8,8.8c2.1,3.7,3.2,7.9,3.2,12.5c0,4.6-1,8.8-3,12.5c-2,3.7-4.7,6.7-8.1,8.8
				c-3.4,2.1-7.3,3.2-11.5,3.2c-3.4,0-6.6-0.7-9.5-2.1c-2.9-1.4-5.5-3.4-7.5-5.9v23.9c0,1.4-0.4,2.4-1.2,3.3
				c-0.8,0.8-1.9,1.2-3.3,1.2c-1.3,0-2.4-0.4-3.2-1.2c-0.9-0.8-1.3-1.9-1.3-3.3v-40.3c0-4.6,1.1-8.8,3.2-12.5
				c2.2-3.7,5.1-6.7,8.7-8.8c3.7-2.2,7.8-3.2,12.3-3.2C835.8,525,840,526.1,843.7,528.3z M839.3,564c2.4-1.4,4.3-3.4,5.7-5.9
				c1.4-2.5,2.1-5.3,2.1-8.4c0-3.1-0.7-6-2.1-8.5c-1.4-2.5-3.3-4.5-5.7-6c-2.4-1.4-5.1-2.2-8-2.2c-2.9,0-5.6,0.7-8,2.2
				c-2.4,1.4-4.3,3.4-5.6,6c-1.4,2.5-2,5.4-2,8.5c0,3.1,0.7,5.9,2,8.4c1.4,2.5,3.2,4.5,5.6,5.9c2.4,1.4,5.1,2.2,8,2.2
				C834.2,566.1,836.9,565.4,839.3,564z"/>
			<path class="st3" d="M889.7,526.9c3,1.2,5.4,2.9,7.2,5.1c0.8,0.9,1.1,1.9,1.1,2.8c0,1-0.5,1.9-1.5,2.7c-0.6,0.5-1.5,0.7-2.5,0.7
				c-1.5,0-2.9-0.6-4.2-1.7c-1.5-1.4-3-2.3-4.7-2.9c-1.7-0.6-3.7-0.8-6-0.8c-2.7,0-4.9,0.5-6.7,1.4c-1.7,0.9-2.6,2.2-2.6,3.8
				c0,1.2,0.3,2.2,0.9,3c0.6,0.8,1.7,1.5,3.4,2.2c1.6,0.7,4,1.3,7.2,2c6.4,1.3,11,3.1,13.7,5.4c2.7,2.3,4,5.3,4,8.9
				c0,2.7-0.7,5.2-2.2,7.4s-3.6,3.9-6.5,5.2c-2.9,1.3-6.3,1.9-10.3,1.9c-4,0-7.8-0.6-11.3-1.9c-3.5-1.2-6.3-2.9-8.3-4.9
				c-0.8-0.8-1.1-1.7-1.1-2.7c0-1.4,0.6-2.6,1.8-3.4c1.1-0.8,2.2-1.2,3.1-1.2c1.2,0,2.3,0.5,3.4,1.6c1.1,1.2,2.8,2.3,5,3.2
				c2.2,0.9,4.6,1.4,7.2,1.4c3.4,0,6-0.6,7.8-1.7c1.9-1.1,2.8-2.6,2.8-4.5c0-1.8-0.9-3.3-2.7-4.6c-1.8-1.2-4.9-2.2-9.3-3
				c-11.3-2.2-17-6.8-17-14c0-2.9,0.9-5.3,2.6-7.3c1.7-2,3.9-3.5,6.7-4.5c2.8-1,5.7-1.5,8.8-1.5C883.3,525,886.7,525.6,889.7,526.9z
				"/>
		</g>
		<g>
			<path class="st4" d="M913,567.2c0.6,0.6,0.9,1.3,0.9,2.1c0,0.8-0.3,1.5-0.8,2c-0.6,0.6-1.2,0.9-2,0.9c-0.8,0-1.5-0.3-2-0.9
				c-0.6-0.6-0.9-1.2-0.9-2c0-0.8,0.3-1.5,0.9-2.1c0.6-0.6,1.2-0.9,2-0.9C911.8,566.4,912.5,566.7,913,567.2z"/>
			<path class="st4" d="M935.4,549.7c1.5,0.8,2.7,2.1,3.6,3.7c0.9,1.6,1.3,3.5,1.3,5.8v10.3c0,0.6-0.2,1.1-0.6,1.5
				c-0.4,0.4-0.9,0.6-1.5,0.6c-0.6,0-1.1-0.2-1.5-0.6c-0.4-0.4-0.6-0.9-0.6-1.5v-10.3c0-2.3-0.6-4-1.8-5.1c-1.2-1.2-2.8-1.7-4.8-1.7
				c-1.2,0-2.2,0.2-3.2,0.7c-1,0.5-1.7,1.1-2.3,1.9c-0.5,0.8-0.8,1.7-0.8,2.7v11.8c0,0.6-0.2,1.1-0.6,1.5c-0.4,0.4-0.9,0.6-1.5,0.6
				c-0.6,0-1.1-0.2-1.5-0.6c-0.4-0.4-0.6-0.9-0.6-1.5v-18.6c0-0.6,0.2-1.2,0.6-1.5c0.4-0.4,0.9-0.6,1.5-0.6c0.6,0,1.2,0.2,1.5,0.6
				c0.4,0.4,0.6,0.9,0.6,1.5v0.5c0.9-0.9,1.9-1.6,3.2-2.1c1.2-0.5,2.5-0.7,3.9-0.7C932.2,548.5,933.9,548.9,935.4,549.7z"/>
			<path class="st4" d="M966.5,561.1c-0.4,0.3-0.8,0.5-1.4,0.5h-15.9c0.3,1.9,1.2,3.5,2.7,4.7c1.5,1.2,3.2,1.8,5.4,1.8
				c0.8,0,1.7-0.2,2.6-0.5c0.9-0.3,1.6-0.7,2.2-1.1c0.4-0.3,0.8-0.5,1.4-0.5c0.5,0,0.9,0.1,1.3,0.4c0.5,0.4,0.8,0.9,0.8,1.4
				c0,0.5-0.2,0.9-0.7,1.3c-0.9,0.8-2.1,1.4-3.5,1.8c-1.4,0.5-2.7,0.7-4,0.7c-2.3,0-4.3-0.5-6.1-1.5c-1.8-1-3.2-2.4-4.2-4.1
				c-1-1.8-1.5-3.7-1.5-6c0-2.2,0.5-4.2,1.4-6s2.3-3.1,4-4.1c1.7-1,3.7-1.5,5.8-1.5c2.1,0,4,0.5,5.6,1.4c1.6,0.9,2.8,2.3,3.6,4
				c0.8,1.7,1.3,3.6,1.3,5.8C967,560.3,966.8,560.7,966.5,561.1z M951.7,553.8c-1.3,1.1-2.1,2.6-2.4,4.5h13.9
				c-0.2-1.9-0.9-3.4-2.1-4.5c-1.1-1.1-2.6-1.7-4.5-1.7C954.6,552.1,952.9,552.7,951.7,553.8z"/>
			<path class="st4" d="M982.6,567.9c0.3,0.4,0.5,0.9,0.5,1.5c0,0.6-0.2,1.1-0.7,1.5c-0.5,0.4-1.1,0.6-1.8,0.6h-0.8
				c-1.4,0-2.6-0.4-3.7-1.1c-1.1-0.7-2-1.7-2.7-2.9c-0.6-1.2-1-2.6-1-4.1v-10.3h-1.9c-0.6,0-1.1-0.2-1.4-0.5
				c-0.4-0.3-0.5-0.8-0.5-1.3c0-0.6,0.2-1,0.5-1.3c0.4-0.3,0.8-0.5,1.4-0.5h1.9v-6c0-0.6,0.2-1.1,0.6-1.5c0.4-0.4,0.9-0.6,1.5-0.6
				c0.6,0,1.1,0.2,1.5,0.6c0.4,0.4,0.6,0.9,0.6,1.5v6h3.5c0.6,0,1.1,0.2,1.4,0.5c0.4,0.3,0.5,0.8,0.5,1.3c0,0.5-0.2,0.9-0.5,1.3
				c-0.4,0.3-0.8,0.5-1.4,0.5h-3.5v10.3c0,1.1,0.3,2,0.9,2.8c0.6,0.8,1.4,1.1,2.3,1.1h1.4C981.8,567.3,982.3,567.5,982.6,567.9z"/>
		</g>
	</g>
</g>
<g>
	<g>
		<path d="M228.3,716.5c18.4,0,33.3,14.9,33.3,33.3l0,0c0,18.4-14.9,33.3-33.3,33.3h0c-18.4,0-33.3-14.9-33.3-33.3l0,0
			C195,731.4,209.9,716.5,228.3,716.5L228.3,716.5 M228.3,710.5c-21.7,0-39.3,17.6-39.3,39.3c0,21.7,17.6,39.3,39.3,39.3
			s39.3-17.6,39.3-39.3S249.9,710.5,228.3,710.5L228.3,710.5z"/>
	</g>
	<g>
		<path d="M252.2,735.9c-2.4-4.2-5.7-7.5-9.9-10c-1.8-1.1-3.7-1.9-5.8-2.5c-2.2-0.7-4.4,1.1-4.4,3.4v0c0,1.6,1,2.9,2.5,3.4
			c1.3,0.4,2.6,1,3.8,1.7c3,1.8,5.4,4.3,7.2,7.4c1.7,3.1,2.6,6.7,2.6,10.5c0,3.9-0.9,7.4-2.6,10.5c-1.8,3.1-4.1,5.6-7.2,7.4
			c-0.8,0.5-1.7,0.9-2.5,1.2v-1.7v-3.7v-3.2V755c0-1.1-0.4-2-1.1-2.7c-0.7-0.7-1.6-1.1-2.7-1.1c-1,0-1.9,0.4-2.7,1.1
			c-0.8,0.7-1.1,1.6-1.1,2.7v5.5v3.2v3.9v3.1v2.5c0,1,0.4,1.9,1.1,2.7c0.8,0.8,1.7,1.1,2.7,1.1c0.6,0,1.1-0.1,1.6-0.3
			c1.9-0.5,3.8-1.1,5.5-2c3.6-1.8,6.5-4.3,8.8-7.5v5.9c0,1.1,0.4,2,1.1,2.7c0.7,0.7,1.6,1,2.8,1c1.1,0,2-0.4,2.8-1.1
			c0.7-0.7,1.1-1.6,1.1-2.7v-23.3C255.8,744.8,254.6,740.1,252.2,735.9z"/>
		<path d="M228.3,742.1v-3.3V735v-3.2v-5.5c0-1.1-0.4-2-1.1-2.7c-0.7-0.7-1.6-1.1-2.7-1.1c-0.5,0-0.9,0.1-1.3,0.2
			c-3.2,0.5-6.1,1.6-8.9,3.2c-4.2,2.4-7.5,5.7-9.9,10c-2.4,4.2-3.6,8.9-3.6,14.1s1.2,9.8,3.5,14c2.3,4.2,5.5,7.5,9.6,9.9
			c1.9,1.1,3.9,2,6,2.6c2.3,0.7,4.6-1,4.6-3.4c0-1.6-1.1-2.9-2.6-3.4c-1.3-0.4-2.6-1-3.8-1.7c-3.1-1.8-5.5-4.2-7.2-7.4
			c-1.7-3.1-2.6-6.6-2.6-10.5c0-3.9,0.9-7.4,2.6-10.5c1.7-3.1,4.2-5.6,7.2-7.4c0.8-0.5,1.7-0.9,2.6-1.3v1.2v3.2v3.9v3.1v2.5
			c0,1,0.4,1.9,1.1,2.7c0.8,0.8,1.7,1.1,2.7,1.1c1.1,0,2-0.4,2.7-1.1c0.7-0.8,1.1-1.7,1.1-2.7V742.1z"/>
	</g>
</g>
<g>
	<g>
		<path class="st7" d="M334.4,716.5c18.4,0,33.3,14.9,33.3,33.3l0,0c0,18.4-14.9,33.3-33.3,33.3h0c-18.4,0-33.3-14.9-33.3-33.3l0,0
			C301.1,731.4,316,716.5,334.4,716.5L334.4,716.5 M334.4,710.5c-21.7,0-39.3,17.6-39.3,39.3c0,21.7,17.6,39.3,39.3,39.3
			c21.7,0,39.3-17.6,39.3-39.3S356.1,710.5,334.4,710.5L334.4,710.5z"/>
	</g>
	<g>
		<path class="st7" d="M358.4,735.9c-2.4-4.2-5.7-7.5-9.9-10c-1.8-1.1-3.7-1.9-5.8-2.5c-2.2-0.7-4.4,1.1-4.4,3.4v0
			c0,1.6,1,2.9,2.5,3.4c1.3,0.4,2.6,1,3.8,1.7c3,1.8,5.4,4.3,7.2,7.4c1.7,3.1,2.6,6.7,2.6,10.5c0,3.9-0.9,7.4-2.6,10.5
			c-1.8,3.1-4.1,5.6-7.2,7.4c-0.8,0.5-1.7,0.9-2.5,1.2v-1.7v-3.7v-3.2V755c0-1.1-0.4-2-1.1-2.7c-0.7-0.7-1.6-1.1-2.7-1.1
			c-1,0-1.9,0.4-2.7,1.1c-0.8,0.7-1.1,1.6-1.1,2.7v5.5v3.2v3.9v3.1v2.5c0,1,0.4,1.9,1.1,2.7c0.8,0.8,1.7,1.1,2.7,1.1
			c0.6,0,1.1-0.1,1.6-0.3c1.9-0.5,3.8-1.1,5.5-2c3.6-1.8,6.5-4.3,8.8-7.5v5.9c0,1.1,0.4,2,1.1,2.7c0.7,0.7,1.6,1,2.8,1
			c1.1,0,2-0.4,2.8-1.1c0.7-0.7,1.1-1.6,1.1-2.7v-23.3C362,744.8,360.8,740.1,358.4,735.9z"/>
		<path class="st7" d="M334.4,742.1v-3.3V735v-3.2v-5.5c0-1.1-0.4-2-1.1-2.7c-0.7-0.7-1.6-1.1-2.7-1.1c-0.5,0-0.9,0.1-1.3,0.2
			c-3.2,0.5-6.1,1.6-8.9,3.2c-4.2,2.4-7.5,5.7-9.9,10c-2.4,4.2-3.6,8.9-3.6,14.1s1.2,9.8,3.5,14c2.3,4.2,5.5,7.5,9.6,9.9
			c1.9,1.1,3.9,2,6,2.6c2.3,0.7,4.6-1,4.6-3.4c0-1.6-1.1-2.9-2.6-3.4c-1.3-0.4-2.6-1-3.8-1.7c-3.1-1.8-5.5-4.2-7.2-7.4
			c-1.7-3.1-2.6-6.6-2.6-10.5c0-3.9,0.9-7.4,2.6-10.5c1.7-3.1,4.2-5.6,7.2-7.4c0.8-0.5,1.7-0.9,2.6-1.3v1.2v3.2v3.9v3.1v2.5
			c0,1,0.4,1.9,1.1,2.7c0.8,0.8,1.7,1.1,2.7,1.1c1.1,0,2-0.4,2.7-1.1c0.7-0.8,1.1-1.7,1.1-2.7V742.1z"/>
	</g>
</g>
<g>
	<g>
		<path class="st5" d="M132.1,719.3c18.4,0,33.3,14.9,33.3,33.3l0,0c0,18.4-14.9,33.3-33.3,33.3h0c-18.4,0-33.3-14.9-33.3-33.3l0,0
			C98.8,734.3,113.7,719.3,132.1,719.3L132.1,719.3 M132.1,713.4c-21.7,0-39.3,17.6-39.3,39.3s17.6,39.3,39.3,39.3
			c21.7,0,39.3-17.6,39.3-39.3C171.4,731,153.8,713.4,132.1,713.4L132.1,713.4z"/>
	</g>
	<g>
		<path class="st5" d="M156,738.7c-2.4-4.2-5.7-7.5-9.9-10c-1.8-1.1-3.7-1.9-5.8-2.5c-2.2-0.7-4.4,1.1-4.4,3.4v0
			c0,1.6,1,2.9,2.5,3.4c1.3,0.4,2.6,1,3.8,1.7c3,1.8,5.4,4.3,7.2,7.4c1.7,3.1,2.6,6.7,2.6,10.5c0,3.9-0.9,7.4-2.6,10.5
			c-1.8,3.1-4.1,5.6-7.2,7.4c-0.8,0.5-1.7,0.9-2.5,1.2v-1.6v-3.7v-3.2v-5.5c0-1.1-0.4-2-1.1-2.7c-0.7-0.7-1.6-1.1-2.7-1.1
			c-1,0-1.9,0.4-2.7,1.1c-0.8,0.7-1.1,1.6-1.1,2.7v5.5v3.2v3.9v3.1v2.5c0,1,0.4,1.9,1.1,2.7c0.8,0.8,1.7,1.1,2.7,1.1
			c0.6,0,1.1-0.1,1.6-0.3c1.9-0.5,3.8-1.1,5.5-2c3.6-1.8,6.5-4.3,8.8-7.5v5.9c0,1.1,0.4,2,1.1,2.7c0.7,0.7,1.6,1,2.8,1
			c1.1,0,2-0.4,2.8-1.1c0.7-0.7,1.1-1.6,1.1-2.7v-23.3C159.7,747.6,158.4,743,156,738.7z"/>
		<path class="st6" d="M132.1,744.9v-3.3v-3.7v-3.2v-5.5c0-1.1-0.4-2-1.1-2.7c-0.7-0.7-1.6-1.1-2.7-1.1c-0.5,0-0.9,0.1-1.3,0.2
			c-3.2,0.5-6.1,1.6-8.9,3.2c-4.2,2.4-7.5,5.7-9.9,10c-2.4,4.2-3.6,8.9-3.6,14.1s1.2,9.8,3.5,14c2.3,4.2,5.5,7.5,9.6,9.9
			c1.9,1.1,3.9,2,6,2.6c2.3,0.7,4.6-1,4.6-3.4c0-1.6-1.1-2.9-2.6-3.4c-1.3-0.4-2.6-1-3.8-1.7c-3.1-1.8-5.5-4.2-7.2-7.4
			c-1.7-3.1-2.6-6.6-2.6-10.5c0-3.9,0.9-7.4,2.6-10.5c1.7-3.1,4.2-5.6,7.2-7.4c0.8-0.5,1.7-0.9,2.6-1.3v1.2v3.2v3.9v3.1v2.5
			c0,1,0.4,1.9,1.1,2.7c0.8,0.8,1.7,1.1,2.7,1.1c1.1,0,2-0.4,2.7-1.1c0.7-0.8,1.1-1.7,1.1-2.7V744.9z"/>
	</g>
</g>
<rect x="70" y="817.6" width="328.6" height="107.5"/>
<g>
	<g>
		<path class="st8" d="M228.3,836.6c18.4,0,33.3,14.9,33.3,33.3v0c0,18.4-14.9,33.3-33.3,33.3h0c-18.4,0-33.3-14.9-33.3-33.3v0
			C195,851.5,209.9,836.6,228.3,836.6L228.3,836.6 M228.3,830.6c-21.7,0-39.3,17.6-39.3,39.3s17.6,39.3,39.3,39.3
			s39.3-17.6,39.3-39.3C267.6,848.3,249.9,830.6,228.3,830.6L228.3,830.6z"/>
	</g>
	<g>
		<path class="st8" d="M252.2,856c-2.4-4.2-5.7-7.5-9.9-10c-1.8-1.1-3.7-1.9-5.8-2.5c-2.2-0.7-4.4,1.1-4.4,3.4v0
			c0,1.6,1,2.9,2.5,3.4c1.3,0.4,2.6,1,3.8,1.7c3,1.8,5.4,4.3,7.2,7.4c1.7,3.1,2.6,6.7,2.6,10.5c0,3.9-0.9,7.4-2.6,10.5
			c-1.8,3.1-4.1,5.6-7.2,7.4c-0.8,0.5-1.7,0.9-2.5,1.2v-1.6v-3.7v-3.2v-5.5c0-1.1-0.4-2-1.1-2.7c-0.7-0.7-1.6-1.1-2.7-1.1
			c-1,0-1.9,0.4-2.7,1.1c-0.8,0.7-1.1,1.6-1.1,2.7v5.5v3.2v3.9v3.1v2.5c0,1,0.4,1.9,1.1,2.7c0.8,0.8,1.7,1.1,2.7,1.1
			c0.6,0,1.1-0.1,1.6-0.3c1.9-0.5,3.8-1.1,5.5-2c3.6-1.8,6.5-4.3,8.8-7.5v5.9c0,1.1,0.4,2,1.1,2.7c0.7,0.7,1.6,1,2.8,1
			c1.1,0,2-0.4,2.8-1.1c0.7-0.7,1.1-1.6,1.1-2.7V870C255.8,864.9,254.6,860.2,252.2,856z"/>
		<path class="st8" d="M228.3,862.2v-3.3v-3.7V852v-5.5c0-1.1-0.4-2-1.1-2.7c-0.7-0.7-1.6-1.1-2.7-1.1c-0.5,0-0.9,0.1-1.3,0.2
			c-3.2,0.5-6.1,1.6-8.9,3.2c-4.2,2.4-7.5,5.7-9.9,10c-2.4,4.2-3.6,8.9-3.6,14.1s1.2,9.8,3.5,14c2.3,4.2,5.5,7.5,9.6,9.9
			c1.9,1.1,3.9,2,6,2.6c2.3,0.7,4.6-1,4.6-3.4c0-1.6-1.1-2.9-2.6-3.4c-1.3-0.4-2.6-1-3.8-1.7c-3.1-1.8-5.5-4.2-7.2-7.4
			c-1.7-3.1-2.6-6.6-2.6-10.5c0-3.9,0.9-7.4,2.6-10.5c1.7-3.1,4.2-5.6,7.2-7.4c0.8-0.5,1.7-0.9,2.6-1.3v1.2v3.2v3.9v3.1v2.5
			c0,1,0.4,1.9,1.1,2.7c0.8,0.8,1.7,1.1,2.7,1.1c1.1,0,2-0.4,2.7-1.1c0.7-0.8,1.1-1.7,1.1-2.7V862.2z"/>
	</g>
</g>
<g>
	<g>
		<path class="st9" d="M334.4,836.6c18.4,0,33.3,14.9,33.3,33.3v0c0,18.4-14.9,33.3-33.3,33.3h0c-18.4,0-33.3-14.9-33.3-33.3v0
			C301.1,851.5,316,836.6,334.4,836.6L334.4,836.6 M334.4,830.6c-21.7,0-39.3,17.6-39.3,39.3s17.6,39.3,39.3,39.3
			c21.7,0,39.3-17.6,39.3-39.3C373.7,848.3,356.1,830.6,334.4,830.6L334.4,830.6z"/>
	</g>
	<g>
		<path class="st9" d="M358.4,856c-2.4-4.2-5.7-7.5-9.9-10c-1.8-1.1-3.7-1.9-5.8-2.5c-2.2-0.7-4.4,1.1-4.4,3.4v0
			c0,1.6,1,2.9,2.5,3.4c1.3,0.4,2.6,1,3.8,1.7c3,1.8,5.4,4.3,7.2,7.4c1.7,3.1,2.6,6.7,2.6,10.5c0,3.9-0.9,7.4-2.6,10.5
			c-1.8,3.1-4.1,5.6-7.2,7.4c-0.8,0.5-1.7,0.9-2.5,1.2v-1.6v-3.7v-3.2v-5.5c0-1.1-0.4-2-1.1-2.7c-0.7-0.7-1.6-1.1-2.7-1.1
			c-1,0-1.9,0.4-2.7,1.1c-0.8,0.7-1.1,1.6-1.1,2.7v5.5v3.2v3.9v3.1v2.5c0,1,0.4,1.9,1.1,2.7c0.8,0.8,1.7,1.1,2.7,1.1
			c0.6,0,1.1-0.1,1.6-0.3c1.9-0.5,3.8-1.1,5.5-2c3.6-1.8,6.5-4.3,8.8-7.5v5.9c0,1.1,0.4,2,1.1,2.7c0.7,0.7,1.6,1,2.8,1
			c1.1,0,2-0.4,2.8-1.1c0.7-0.7,1.1-1.6,1.1-2.7V870C362,864.9,360.8,860.2,358.4,856z"/>
		<path class="st9" d="M334.4,862.2v-3.3v-3.7V852v-5.5c0-1.1-0.4-2-1.1-2.7c-0.7-0.7-1.6-1.1-2.7-1.1c-0.5,0-0.9,0.1-1.3,0.2
			c-3.2,0.5-6.1,1.6-8.9,3.2c-4.2,2.4-7.5,5.7-9.9,10c-2.4,4.2-3.6,8.9-3.6,14.1s1.2,9.8,3.5,14c2.3,4.2,5.5,7.5,9.6,9.9
			c1.9,1.1,3.9,2,6,2.6c2.3,0.7,4.6-1,4.6-3.4c0-1.6-1.1-2.9-2.6-3.4c-1.3-0.4-2.6-1-3.8-1.7c-3.1-1.8-5.5-4.2-7.2-7.4
			c-1.7-3.1-2.6-6.6-2.6-10.5c0-3.9,0.9-7.4,2.6-10.5c1.7-3.1,4.2-5.6,7.2-7.4c0.8-0.5,1.7-0.9,2.6-1.3v1.2v3.2v3.9v3.1v2.5
			c0,1,0.4,1.9,1.1,2.7c0.8,0.8,1.7,1.1,2.7,1.1c1.1,0,2-0.4,2.7-1.1c0.7-0.8,1.1-1.7,1.1-2.7V862.2z"/>
	</g>
</g>
<g>
	<g>
		<path class="st10" d="M132.1,839.5c18.4,0,33.3,14.9,33.3,33.3v0c0,18.4-14.9,33.3-33.3,33.3h0c-18.4,0-33.3-14.9-33.3-33.3v0
			C98.8,854.4,113.7,839.5,132.1,839.5L132.1,839.5 M132.1,833.5c-21.7,0-39.3,17.6-39.3,39.3c0,21.7,17.6,39.3,39.3,39.3
			c21.7,0,39.3-17.6,39.3-39.3C171.4,851.1,153.8,833.5,132.1,833.5L132.1,833.5z"/>
	</g>
	<g>
		<path class="st10" d="M156,858.8c-2.4-4.2-5.7-7.5-9.9-10c-1.8-1.1-3.7-1.9-5.8-2.5c-2.2-0.7-4.4,1.1-4.4,3.4v0
			c0,1.6,1,2.9,2.5,3.4c1.3,0.4,2.6,1,3.8,1.7c3,1.8,5.4,4.3,7.2,7.4c1.7,3.1,2.6,6.7,2.6,10.5c0,3.9-0.9,7.4-2.6,10.5
			c-1.8,3.1-4.1,5.6-7.2,7.4c-0.8,0.5-1.7,0.9-2.5,1.2v-1.7v-3.7v-3.2V878c0-1.1-0.4-2-1.1-2.7c-0.7-0.7-1.6-1.1-2.7-1.1
			c-1,0-1.9,0.4-2.7,1.1c-0.8,0.7-1.1,1.6-1.1,2.7v5.5v3.2v3.9v3.1v2.5c0,1,0.4,1.9,1.1,2.7c0.8,0.8,1.7,1.1,2.7,1.1
			c0.6,0,1.1-0.1,1.6-0.3c1.9-0.5,3.8-1.1,5.5-2c3.6-1.8,6.5-4.3,8.8-7.5v5.9c0,1.1,0.4,2,1.1,2.7c0.7,0.7,1.6,1,2.8,1
			c1.1,0,2-0.4,2.8-1.1c0.7-0.7,1.1-1.6,1.1-2.7v-23.3C159.7,867.7,158.4,863.1,156,858.8z"/>
		<path class="st11" d="M132.1,865v-3.3V858v-3.2v-5.5c0-1.1-0.4-2-1.1-2.7c-0.7-0.7-1.6-1.1-2.7-1.1c-0.5,0-0.9,0.1-1.3,0.2
			c-3.2,0.5-6.1,1.6-8.9,3.2c-4.2,2.4-7.5,5.7-9.9,10c-2.4,4.2-3.6,8.9-3.6,14.1s1.2,9.8,3.5,14c2.3,4.2,5.5,7.5,9.6,9.9
			c1.9,1.1,3.9,2,6,2.6c2.3,0.7,4.6-1,4.6-3.4c0-1.6-1.1-2.9-2.6-3.4c-1.3-0.4-2.6-1-3.8-1.7c-3.1-1.8-5.5-4.2-7.2-7.4
			c-1.7-3.1-2.6-6.6-2.6-10.5c0-3.9,0.9-7.4,2.6-10.5c1.7-3.1,4.2-5.6,7.2-7.4c0.8-0.5,1.7-0.9,2.6-1.3v1.2v3.2v3.9v3.1v2.5
			c0,1,0.4,1.9,1.1,2.7c0.8,0.8,1.7,1.1,2.7,1.1c1.1,0,2-0.4,2.7-1.1c0.7-0.8,1.1-1.7,1.1-2.7V865z"/>
	</g>
</g>
<g>
	<text transform="matrix(1 0 0 1 126.3802 966.4117)" class="st12 st13">POSITIVE / NEGATIVE - MONOCOLOR</text>
</g>
<text transform="matrix(1 0 0 1 267.5465 138.2623)"><tspan x="0" y="0" class="st3 st14 st15 st16">Google Font </tspan><tspan x="260.3" y="0" class="st12 st15 st16">Comfortaa</tspan></text>
<g>
	<text transform="matrix(1 0 0 1 516.9235 190.2545)" class="st4 st17 st18">5C0CE8</text>
</g>
<g>
	<text transform="matrix(1 0 0 1 318.8033 190.2545)" class="st6 st17 st18">24ABD0</text>
</g>
<text transform="matrix(1 0 0 1 422.733 190.2545)" class="st5 st17 st18">009FE3</text>
<g>
	<text transform="matrix(1 0 0 1 618.0739 190.2545)" class="st3 st17 st18">575656</text>
</g>
<g>
	<g>
		<path class="st5" d="M926.6,745c-4.7-4.2-11-7.5-19.1-9.8c-3.5-1-7.2-1.8-11.1-2.4c-4.3-0.6-8.5,1.1-8.5,3.4v0
			c0,1.5,2,2.8,4.9,3.3c2.6,0.4,5.1,1,7.4,1.7c5.9,1.8,10.5,4.2,13.9,7.3c3.4,3.1,5.1,6.6,5.1,10.4c0,3.9-1.7,7.3-5.1,10.4
			c-3.4,3.1-8,5.5-13.9,7.3c-1.6,0.5-3.2,0.9-4.9,1.2v-1.6v-3.7v-3.1v-5.4c0-1.1-0.7-2-2.1-2.7c-1.4-0.7-3.2-1.1-5.3-1.1
			c-2,0-3.8,0.4-5.2,1.1c-1.5,0.7-2.2,1.6-2.2,2.7v5.4v3.1v3.9v3.1v2.5c0,1,0.7,1.9,2.2,2.7c1.5,0.7,3.2,1.1,5.2,1.1
			c1.2,0,2.2-0.1,3.1-0.3c3.7-0.4,7.3-1.1,10.7-2c6.9-1.8,12.6-4.3,17-7.4v5.9c0,1.1,0.7,2,2.1,2.7c1.4,0.7,3.2,1,5.4,1
			c2.2,0,4-0.4,5.4-1.1c1.4-0.7,2.1-1.6,2.1-2.6v-23C933.6,753.8,931.2,749.2,926.6,745z"/>
	</g>
	<g>
		<path class="st6" d="M880.4,751.1v-3.3v-3.7V741v-5.4c0-1.1-0.7-2-2.1-2.7c-1.4-0.7-3.2-1.1-5.3-1.1c-0.9,0-1.7,0.1-2.5,0.2
			c-6.1,0.5-11.8,1.6-17.1,3.1c-8.1,2.4-14.5,5.7-19.1,9.8c-4.7,4.2-7,8.8-7,13.9s2.3,9.7,6.8,13.8c4.5,4.1,10.7,7.4,18.6,9.8
			c3.7,1.1,7.5,2,11.6,2.5c4.4,0.6,8.9-1,8.9-3.4c0-1.6-2.1-2.9-5-3.4c-2.6-0.4-5-1-7.4-1.7c-5.9-1.8-10.6-4.2-14-7.3
			c-3.4-3.1-5.1-6.6-5.1-10.4c0-3.8,1.7-7.3,5.1-10.4c3.4-3.1,8-5.5,14-7.3c1.6-0.5,3.3-0.9,5-1.2v1.2v3.1v3.9v3.1v2.5
			c0,1,0.7,1.9,2.2,2.7c1.5,0.7,3.2,1.1,5.2,1.1c2.1,0,3.9-0.4,5.3-1.1c1.4-0.7,2.1-1.6,2.1-2.7V751.1z"/>
	</g>
</g>
<g>
	<g>
		<path class="st5" d="M891.1,859.9c-1.8-6.1-4.3-11-7.5-14.5c-1.4-1.5-2.9-2.7-4.4-3.6c-1.7-1-3.4,1.6-3.4,4.9v0
			c0,2.3,0.8,4.2,1.9,4.9c1,0.6,2,1.5,2.9,2.5c2.3,2.6,4.1,6.2,5.5,10.8c1.3,4.6,2,9.7,2,15.3c0,5.7-0.7,10.8-2,15.3
			c-1.3,4.6-3.2,8.1-5.5,10.7c-0.6,0.7-1.3,1.3-1.9,1.8v-2.4v-5.4v-4.6v-8c0-1.6-0.3-2.9-0.8-4c-0.5-1-1.2-1.6-2.1-1.6
			c-0.8,0-1.5,0.5-2.1,1.6c-0.6,1-0.9,2.4-0.9,4v8v4.6v5.7v4.5v3.7c0,1.5,0.3,2.8,0.9,3.9c0.6,1.1,1.3,1.6,2.1,1.6
			c0.5,0,0.9-0.2,1.2-0.5c1.5-0.7,2.9-1.6,4.2-2.9c2.7-2.6,4.9-6.3,6.7-10.9v8.6c0,1.6,0.3,3,0.8,4c0.6,1,1.3,1.5,2.1,1.5
			c0.9,0,1.6-0.5,2.1-1.6c0.6-1.1,0.8-2.4,0.8-3.9v-33.9C893.9,872.9,893,866.1,891.1,859.9z"/>
	</g>
	<g>
		<path class="st6" d="M872.9,868.9v-4.8v-5.4v-4.6v-8c0-1.6-0.3-2.9-0.8-4c-0.5-1-1.2-1.6-2.1-1.6c-0.4,0-0.7,0.1-1,0.3
			c-2.4,0.8-4.7,2.3-6.8,4.6c-3.2,3.5-5.7,8.3-7.5,14.5c-1.8,6.1-2.8,13-2.8,20.5s0.9,14.3,2.7,20.4c1.8,6.1,4.2,10.9,7.3,14.4
			c1.4,1.6,3,2.9,4.6,3.7c1.7,0.9,3.5-1.5,3.5-5c0-2.3-0.8-4.3-2-5c-1-0.6-2-1.4-2.9-2.5c-2.3-2.6-4.2-6.2-5.5-10.7
			c-1.3-4.6-2-9.7-2-15.3c0-5.7,0.7-10.8,2-15.3c1.3-4.6,3.2-8.2,5.5-10.8c0.6-0.7,1.3-1.3,2-1.8v1.7v4.6v5.7v4.5v3.7
			c0,1.5,0.3,2.8,0.9,3.9c0.6,1.1,1.3,1.6,2.1,1.6c0.8,0,1.5-0.5,2.1-1.6c0.5-1.1,0.8-2.4,0.8-3.9V868.9z"/>
	</g>
</g>
<line class="st1" x1="758" y1="806.7" x2="987.8" y2="806.7"/>
<text transform="matrix(1 0 0 1 812.8828 720.0488)" class="st12 st19 st20">DO NOT USE THUS</text>
<text transform="matrix(1 0 0 1 512 977.6589)" class="st12 st21 st22">Correct use</text>
<text transform="matrix(1 0 0 1 812.8828 836.8203)" class="st12 st19 st20">DO NOT USE THUS</text>
<g>
	<g>
		<path class="st5" d="M647.9,777.1c-5.3-9.2-12.5-16.5-21.7-21.8c-4-2.3-8.2-4.1-12.6-5.4c-4.8-1.4-9.7,2.4-9.7,7.4v0
			c0,3.4,2.3,6.3,5.5,7.4c2.9,1,5.7,2.2,8.4,3.8c6.6,4,11.9,9.4,15.7,16.2c3.8,6.9,5.7,14.6,5.7,23.1c0,8.5-1.9,16.2-5.7,23.1
			c-3.8,6.9-9.1,12.2-15.7,16.1c-1.8,1.1-3.7,1.9-5.6,2.7v-3.6V838v-6.9v-12c0-2.4-0.8-4.4-2.4-6c-1.6-1.6-3.6-2.4-6-2.4
			c-2.3,0-4.3,0.8-5.9,2.4c-1.6,1.6-2.5,3.6-2.5,6v12v6.9v8.6v6.8v5.5c0,2.3,0.8,4.3,2.5,5.9c1.6,1.7,3.6,2.5,5.9,2.5
			c1.3,0,2.5-0.3,3.5-0.7c4.2-1,8.3-2.4,12.1-4.4c7.8-4,14.2-9.4,19.3-16.4v13c0,2.5,0.8,4.4,2.4,6c1.6,1.5,3.6,2.3,6.1,2.3
			c2.5,0,4.5-0.8,6.1-2.4c1.6-1.6,2.4-3.5,2.4-5.8v-50.9C655.8,796.6,653.2,786.4,647.9,777.1z"/>
	</g>
	<g>
		<path class="st6" d="M595.6,790.7v-7.2v-8.2v-6.9v-12c0-2.4-0.8-4.4-2.4-6c-1.6-1.6-3.6-2.4-6-2.4c-1,0-2,0.2-2.9,0.5
			c-6.9,1.2-13.4,3.4-19.4,6.9c-9.2,5.3-16.4,12.5-21.7,21.8c-5.3,9.2-7.9,19.5-7.9,30.8s2.6,21.5,7.7,30.7
			c5.1,9.2,12.1,16.4,21,21.7c4.1,2.5,8.5,4.3,13.1,5.6c5,1.4,10-2.3,10-7.5c0-3.5-2.3-6.4-5.7-7.5c-2.9-0.9-5.7-2.2-8.4-3.7
			c-6.7-3.9-12-9.3-15.8-16.1c-3.8-6.9-5.7-14.5-5.7-23.1c0-8.5,1.9-16.2,5.7-23.1c3.8-6.9,9.1-12.3,15.8-16.2
			c1.8-1.1,3.7-2,5.7-2.8v2.6v6.9v8.6v6.8v5.5c0,2.3,0.8,4.3,2.5,5.9c1.6,1.7,3.6,2.5,5.9,2.5c2.4,0,4.4-0.8,6-2.5
			c1.6-1.6,2.4-3.6,2.4-5.9V790.7z"/>
	</g>
</g>
</svg>
