<?xml version="1.0" encoding="utf-8"?>
<svg version="1.1" xmlns="http://www.w3.org/2000/svg" xmlns:xlink="http://www.w3.org/1999/xlink" x="0px" y="0px" width="24px"
	 height="24px" viewBox="0 0 24 24" enable-background="new 0 0 24 24" xml:space="preserve">
<g id="calculator">
	<path display="none" fill="none" d="M0,0h24v24H0V0z"/>
	<path fill="#67E86A" d="M17.625,15.345h-4.083c-0.063,0-0.113,0.051-0.113,0.113v1.292c0,0.063,0.051,0.113,0.113,0.113h4.083
		c0.063,0,0.113-0.051,0.113-0.113v-1.292C17.738,15.396,17.688,15.345,17.625,15.345z"/>
	<g>
		<path fill="#67E86A" d="M16.343,14.036c0-0.063-0.051-0.113-0.113-0.113h-1.292c-0.063,0-0.113,0.051-0.113,0.113v1.016h1.519
			V14.036z"/>
		<path fill="#67E86A" d="M14.824,18.119c0,0.063,0.051,0.113,0.113,0.113h1.292c0.063,0,0.113-0.051,0.113-0.113v-1.017h-1.519
			V18.119z"/>
	</g>
	<path fill="#67E86A" d="M19.836,1.96h-15.1c-0.344,0-0.624,0.279-0.624,0.624v18.375c0,0.345,0.279,0.624,0.624,0.624h15.1
		c0.345,0,0.624-0.279,0.624-0.624V2.583C20.46,2.239,20.181,1.96,19.836,1.96z M19.212,20.334H5.36V7.04h13.852V20.334z
		 M19.212,5.793H5.36V3.207h13.852V5.793z"/>
	<path fill="#67E86A" d="M13.542,11.363h4.083c0.063,0,0.113-0.051,0.113-0.113V9.958c0-0.063-0.051-0.113-0.113-0.113h-4.083
		c-0.063,0-0.113,0.051-0.113,0.113v1.292C13.429,11.313,13.479,11.363,13.542,11.363z"/>
	<path fill="#67E86A" d="M7.042,11.363h1.283v1.282c0,0.063,0.051,0.113,0.113,0.113h1.292c0.063,0,0.113-0.051,0.113-0.113v-1.282
		h1.283c0.063,0,0.113-0.051,0.113-0.113V9.958c0-0.063-0.051-0.113-0.113-0.113H9.842V8.563c0-0.063-0.051-0.113-0.113-0.113H8.438
		c-0.063,0-0.113,0.051-0.113,0.113v1.283H7.042c-0.063,0-0.113,0.051-0.113,0.113v1.292C6.928,11.313,6.979,11.363,7.042,11.363z"
		/>
	<path fill="#67E86A" d="M10.157,16.078l0.907-0.907c0.021-0.021,0.033-0.05,0.033-0.08s-0.012-0.059-0.033-0.08l-0.914-0.913
		c-0.044-0.045-0.116-0.045-0.16,0l-0.907,0.907l-0.907-0.907c-0.044-0.045-0.116-0.045-0.16,0l-0.913,0.913
		c-0.044,0.044-0.044,0.116,0,0.16l0.907,0.907l-0.907,0.907c-0.044,0.044-0.044,0.116,0,0.16l0.913,0.914
		c0.021,0.021,0.05,0.033,0.08,0.033s0.059-0.012,0.08-0.033l0.907-0.907l0.907,0.907c0.021,0.021,0.05,0.033,0.08,0.033
		s0.059-0.012,0.08-0.033l0.914-0.914c0.044-0.044,0.044-0.116,0-0.16L10.157,16.078z"/>
</g>
</svg>
