<?xml version="1.0" encoding="utf-8"?>
<svg version="1.1" xmlns="http://www.w3.org/2000/svg" xmlns:xlink="http://www.w3.org/1999/xlink" x="0px" y="0px" width="24px"
	 height="24px" viewBox="0 0 24 24" enable-background="new 0 0 24 24" xml:space="preserve">
<g id="calibration">
	<path fill="none" d="M0,0h24v24H0V0z"/>
	<path fill="#E83258" d="M7.305,4.482c1.782,2.914,4.332,5.382,3.916,9.05c-0.256,2.254-2.529,3.635-4.783,3.199
		c-2.145-0.415-3.625-2.546-3.171-4.728C3.858,9.168,5.537,6.894,7.305,4.482z M5.08,10.061c-0.212,0.638-0.489,1.262-0.621,1.916
		c-0.205,1.017-0.065,1.994,0.764,2.731c0.297,0.264,0.68,0.354,1.038,0.077c0.242-0.187,0.269-0.46,0.096-0.692
		C5.468,12.903,5.032,11.589,5.08,10.061z"/>
	<path fill="#E83258" d="M17.959,4.566c1.073,1.453,2.073,2.837,2.489,4.535c0.28,1.143-0.069,2.1-1.037,2.763
		c-0.943,0.645-1.961,0.655-2.904,0.009c-0.967-0.662-1.318-1.635-1.041-2.769C15.88,7.408,16.875,6.019,17.959,4.566z"/>
	<path fill="#E83258" d="M14.82,14.425c0.797,1.094,1.535,2.104,1.819,3.355c0.188,0.826-0.096,1.498-0.784,1.965
		c-0.669,0.454-1.393,0.467-2.067,0.014c-0.688-0.462-0.985-1.13-0.8-1.959C13.272,16.531,14.004,15.503,14.82,14.425z"/>
</g>
</svg>
