<?xml version="1.0" encoding="utf-8"?>
<!DOCTYPE svg PUBLIC "-//W3C//DTD SVG 1.1//EN" "http://www.w3.org/Graphics/SVG/1.1/DTD/svg11.dtd">
<svg version="1.1" id="Layer_1" xmlns="http://www.w3.org/2000/svg" xmlns:xlink="http://www.w3.org/1999/xlink" x="0px" y="0px"
	 width="48px" height="128px" viewBox="0 0 48 128" enable-background="new 0 0 48 128" xml:space="preserve">
<rect display="none" width="48" height="128"/>
<g id="Child_Back">
	<path id="Child_Back" fill="#EFC3AD" stroke="#000000" stroke-width="0.5669" stroke-miterlimit="10" d="M36.66,44.223
		c-0.037-0.298-0.088-0.595-0.09-0.897c-0.006-1.129,0.069-2.266-0.028-3.387c-0.164-1.895-0.068-2.946-0.143-4.839
		c-0.019-0.495-0.182-1.83-0.286-2.319c-0.363-1.702-0.514-2.971-0.67-4.87c-0.019-0.226-0.093-0.742-0.093-1.669
		c0-0.755-0.089-1.574-0.158-2.331c-0.063-0.695-0.145-1.352-0.397-1.985c-0.356-0.895-0.991-2.33-2.518-2.916
		c-1.476-0.567-3.678-1.398-4.928-2.228c-1.381-0.917-1.481-2.139-0.603-3.017c1.387-1.387,1.945-3.67,2.179-4.662
		c0.516-0.308,0.626-2.731,0.085-2.684c-0.12-0.798,0.029-3.375-2.558-4.745c-1.712-0.907-3.574-0.904-4.976-0.016
		c-1.855,1.175-2.361,3.863-2.431,4.761c-0.543-0.115-0.295,2.576,0.255,2.683c0,1.014,0.576,3.116,2.113,4.654
		c0.947,0.947,1.143,2.101-0.772,3.32c-0.952,0.606-2.111,1.109-3.184,1.459c-0.809,0.264-1.667,0.604-2.427,1.015
		c-0.971,0.524-1.274,1.306-1.606,2.391c-0.311,1.016-0.447,2.276-0.625,4.826c-0.22,1.525-0.443,3.56-0.8,5.722
		c-0.12,0.727-0.41,2.547-0.402,3.284c0.015,1.266,0.043,1.891-0.017,3.154c-0.04,0.85-0.068,1.707-0.233,2.549
		c-0.024,0.123-0.058,0.259-0.029,0.375c0.325,1.289-0.031,2.546-0.155,3.815c-0.048,0.488,0.158,0.937,0.284,1.396
		c0.367,1.342,1.237,2.217,2.515,2.717c0.141,0.055,0.287,0.168,0.423,0.059c0.159-0.128,0.116-0.319,0.054-0.49
		c-0.098-0.269-0.246-0.515-0.511-0.635c-0.399-0.18-0.574-0.535-0.602-0.903c-0.041-0.529-0.319-1.081,0.046-1.602
		c0.07-0.099,0.108-0.249,0.269-0.215c0.134,0.028,0.21,0.144,0.234,0.27c0.06,0.321,0.146,0.644,0.146,0.966
		c0,0.331,0.141,0.577,0.311,0.83c0.101,0.15,0.189,0.333,0.403,0.253c0.188-0.071,0.226-0.26,0.215-0.447
		c-0.06-1.107-0.112-2.214-0.194-3.319c-0.016-0.214-0.117-0.451-0.25-0.623c-0.466-0.606-0.546-1.346-0.731-2.044
		c-0.105-0.397,0.106-0.786,0.219-1.169c0.364-1.228,0.747-2.451,1.096-3.683c0.391-1.379,0.621-2.787,0.797-4.21
		c0.206-1.672,0.681-5.019,0.81-5.019c0.144,0,0.293,3.729,0.293,4.936c0,2.592-0.144,5.124-0.526,8.078
		c-0.124,0.957-0.387,3.038-0.309,5.405c0.145,4.443,0.103,7.797,0.776,11.712c0.457,1.635,0.214,3.31,0.299,4.967
		c0.063,1.224-0.141,2.412-0.348,3.603c-0.222,1.281-0.134,2.557-0.036,3.842c0.082,1.08,0.254,2.147,0.356,3.222
		c0.09,0.952,0.303,1.881,0.424,2.827c0.125,0.977,0.381,1.936,0.477,2.918c0.019,0.552-0.353,1.273-0.976,1.704
		c-0.794,0.549-1.608,1.059-2.551,1.321c-0.22,0.061-0.447,0.122-0.644,0.23c-0.175,0.096-0.34,0.248-0.307,0.489
		c0.034,0.245,0.224,0.292,0.434,0.356c0.524,0.159,1.064,0.094,1.591,0.16c1.364,0.171,2.734,0.234,4.104,0.276
		c0.926,0.029,1.32-0.431,1.38-1.348c0.046-0.698-0.215-1.362-0.188-2.051c0.015-0.379,0.01-0.795-0.041-1.137
		c-0.183-0.949-0.161-1.944,0.025-2.887c0.339-1.722,0.811-3.427,0.967-5.175c0.129-1.444-0.084-2.863-0.084-4.354
		c0-1.415,0.001-2.327,0.201-3.453c0.204-1.149,0.347-1.879,0.449-3.053c0.065-0.756,0.285-1.613,0.273-2.372
		c-0.024-1.595,0.308-3.151,0.531-4.717c0.197-1.39,0.02-0.299,0.255-1.683c0.05-0.297,0.106-0.594,0.17-0.888
		c0.028-0.126,0.106-0.243,0.238-0.269c0.183-0.037,0.273,0.105,0.339,0.242c0.076,0.158,0.14,0.317,0.162,0.5
		c0.215,1.819,0.143,1.065,0.32,2.886c0.16,1.646,0.177,3.305,0.342,4.971c0.171,1.731,0.39,3.05,0.762,4.734
		c0.302,1.367,0.351,2.283,0.355,3.632c0.004,1.224-0.098,2.608,0.036,3.85c0.197,1.83,0.559,3.435,0.754,5.251
		c0.099,0.923,0.111,1.827,0.032,2.784c-0.088,0.989-0.217,1.975-0.3,3.087c-0.009,0.126-0.018,0.258,0.004,0.383
		c0.08,0.453,0.342,0.806,0.832,0.961c0.381,0.12,0.773,0.184,1.129,0.091c0.635-0.167,1.268-0.092,1.902-0.125
		c1.065-0.055,2.127-0.143,3.183-0.298c0.245-0.036,0.487-0.073,0.501-0.36c0.013-0.263-0.088-0.519-0.4-0.562
		c-0.867-0.12-1.539-0.659-2.267-1.063c-0.763-0.424-1.794-0.91-1.856-1.906c-0.004-0.063,0.012-0.148,0.01-0.207
		c0.013-0.084,0.028-0.167,0.045-0.251c0.497-2.361,0.842-4.747,1.138-7.136c0.109-0.884,0.099-1.806,0.099-2.709
		c0-1.73-0.155-2.962-0.329-4.614c-0.034-0.323-0.033-0.656-0.035-0.985c-0.003-0.861,0.032-1.724-0.008-2.584
		c-0.05-1.067,0.081-2.109,0.301-3.146c0.948-4.488,0.899-9.829,0.899-12.62c0-1.45-0.108-2.876-0.224-4.692
		c-0.121-1.892-0.369-3.901-0.526-5.844c-0.059-0.728-0.082-1.927-0.093-2.659c0.031-0.859,0.294-3.13,0.37-3.702
		c0.015-0.111,0.055-0.297,0.162-0.337c0.082,0.082,0.089,0.246,0.095,0.325c0.051,0.732,0.199,1.214,0.198,1.848
		c-0.004,1.415,0.282,2.798,0.529,4.181c0.406,2.277,1.067,4.494,1.666,6.726c0.192,0.715,0.156,1.454-0.166,2.148
		c-0.241,0.52-0.496,1.033-0.733,1.554c-0.05,0.11-0.069,0.242-0.07,0.364c-0.01,0.887-0.012,1.773-0.014,2.66
		c0,0.148-0.021,0.32,0.176,0.37c0.167,0.042,0.282-0.066,0.401-0.164c0.396-0.323,0.37-0.805,0.468-1.237
		c0.033-0.145,0.003-0.303,0.01-0.455c0.009-0.197-0.018-0.464,0.258-0.451c0.206,0.01,0.347,0.227,0.354,0.44
		c0.029,0.88,0.167,1.798-0.727,2.404c-0.124,0.084-0.23,0.202-0.324,0.32c-0.116,0.146-0.373,0.258-0.229,0.499
		c0.166,0.277,0.427,0.215,0.673,0.109c1.342-0.578,2.153-1.594,2.584-2.985C36.981,45.838,36.759,45.037,36.66,44.223z"/>
	<g>
		<g>
			<path fill="#EE694C" stroke="#000000" stroke-width="0.2835" stroke-miterlimit="10" d="M15.544,30.688
				c-0.175,1.144-0.537,1.603-0.905,1.559c-0.433-0.051-0.808-0.149-1.191-0.212c-0.557-0.092-0.941-0.317-0.719-1.392
				c0.371-1.801,0.458-3.806,0.619-4.527c0.139-0.624,0.352-0.758,0.936-0.704c0.449,0.042,0.649,0.088,1.342,0.152
				c0.599,0.056,0.798,0.736,0.631,1.483C16.082,27.831,15.736,29.432,15.544,30.688z"/>
		</g>
		<g>
			<path fill="#EE694C" stroke="#000000" stroke-width="0.2835" stroke-miterlimit="10" d="M32.553,30.647
				c0.132,1.149,0.476,1.622,0.846,1.592c0.435-0.035,0.813-0.118,1.198-0.167c0.56-0.071,0.952-0.281,0.771-1.364
				c-0.303-1.813-0.315-3.82-0.448-4.547c-0.115-0.629-0.323-0.771-0.909-0.738c-0.451,0.025-0.652,0.063-1.347,0.102
				c-0.601,0.033-0.825,0.705-0.687,1.458C32.122,27.772,32.408,29.385,32.553,30.647z"/>
		</g>
	</g>
	<g>
		<path fill="#EF6A4C" stroke="#000000" stroke-width="0.2835" stroke-miterlimit="10" d="M16.87,44.209
			c0-0.697,0.207-2.048,0.621-2.664c0.621-0.923,1.31-1.159,3.603-0.834c2.303,0.327,2.3,2.656,1.917,4.963
			c-0.29,1.744-3.858,1.96-5.346,0.74C17.068,45.925,16.78,45.051,16.87,44.209z"/>
		<path fill="#EF6A4C" stroke="#000000" stroke-width="0.2835" stroke-miterlimit="10" d="M31.13,44.209
			c0-0.697-0.207-2.048-0.621-2.664c-0.621-0.923-1.31-1.159-3.603-0.834c-2.303,0.327-2.3,2.656-1.917,4.963
			c0.29,1.744,3.858,1.96,5.346,0.74C30.932,45.925,31.22,45.051,31.13,44.209z"/>
	</g>
</g>
</svg>
