<?xml version="1.0" encoding="utf-8"?>
<!DOCTYPE svg PUBLIC "-//W3C//DTD SVG 1.1//EN" "http://www.w3.org/Graphics/SVG/1.1/DTD/svg11.dtd">
<svg version="1.1" id="Layer_1" xmlns="http://www.w3.org/2000/svg" xmlns:xlink="http://www.w3.org/1999/xlink" x="0px" y="0px"
	 width="48px" height="128px" viewBox="0 0 48 128" enable-background="new 0 0 48 128" xml:space="preserve">
<rect display="none" width="48" height="128"/>
<g id="Child">
	<path fill="#EFC3AD" stroke="#000000" stroke-width="0.5669" stroke-miterlimit="10" d="M36.835,45.666
		c-0.124-1.269-0.479-2.526-0.155-3.815c0.029-0.116-0.005-0.252-0.029-0.375c-0.164-0.842-0.192-1.699-0.233-2.549
		c-0.06-1.263-0.032-1.888-0.017-3.154c0.009-0.737-0.282-2.557-0.402-3.284c-0.357-2.162-0.58-4.198-0.8-5.722
		c-0.179-2.55-0.314-3.809-0.625-4.826c-0.332-1.085-0.634-1.867-1.606-2.391c-0.76-0.41-1.618-0.751-2.427-1.015
		c-1.073-0.35-2.232-0.853-3.184-1.459c-1.915-1.219-1.719-2.374-0.772-3.32c1.538-1.538,2.113-3.64,2.113-4.654
		c0.551-0.108,0.798-2.799,0.255-2.683c-0.071-0.898-0.576-3.586-2.431-4.761c-1.402-0.888-3.263-0.892-4.976,0.016
		C18.96,3.044,19.11,5.62,18.989,6.419c-0.541-0.047-0.431,2.375,0.085,2.684c0.234,0.992,0.792,3.275,2.179,4.662
		c0.878,0.878,0.778,2.1-0.603,3.017c-1.249,0.83-3.451,1.661-4.928,2.228c-1.527,0.586-2.162,2.021-2.518,2.916
		c-0.252,0.634-0.334,1.291-0.397,1.985c-0.069,0.757-0.158,1.575-0.158,2.331c0,0.927-0.074,1.443-0.093,1.669
		c-0.156,1.9-0.307,3.168-0.67,4.87c-0.104,0.489-0.267,1.824-0.286,2.319c-0.074,1.893,0.022,2.944-0.143,4.839
		c-0.097,1.121-0.022,2.257-0.028,3.387c-0.002,0.302-0.053,0.599-0.09,0.897c-0.1,0.813-0.321,1.615-0.058,2.463
		c0.431,1.391,1.242,2.406,2.584,2.985c0.246,0.106,0.507,0.168,0.673-0.109c0.144-0.241-0.113-0.353-0.229-0.499
		c-0.094-0.118-0.2-0.236-0.324-0.32c-0.894-0.607-0.757-1.524-0.727-2.404c0.007-0.212,0.148-0.43,0.354-0.44
		c0.277-0.013,0.25,0.255,0.258,0.451c0.007,0.152-0.023,0.31,0.01,0.455c0.098,0.433,0.072,0.915,0.468,1.237
		c0.12,0.098,0.235,0.206,0.401,0.164c0.197-0.05,0.176-0.222,0.176-0.37c-0.002-0.887-0.004-1.773-0.014-2.66
		c-0.001-0.122-0.02-0.254-0.07-0.364c-0.237-0.521-0.492-1.034-0.733-1.554c-0.321-0.694-0.357-1.433-0.166-2.148
		c0.598-2.232,1.259-4.448,1.666-6.726c0.247-1.383,0.533-2.767,0.529-4.181c-0.002-0.634,0.147-1.115,0.198-1.848
		c0.006-0.08,0.013-0.244,0.095-0.325c0.107,0.04,0.148,0.226,0.162,0.337c0.076,0.572,0.339,2.844,0.37,3.702
		c-0.011,0.732-0.034,1.931-0.093,2.659c-0.157,1.943-0.405,3.953-0.526,5.844c-0.116,1.817-0.224,3.243-0.224,4.692
		c0,2.79-0.049,8.132,0.899,12.62c0.219,1.037,0.351,2.079,0.301,3.146c-0.04,0.86-0.005,1.722-0.008,2.584
		c-0.001,0.329-0.001,0.663-0.035,0.985c-0.174,1.652-0.329,2.884-0.329,4.614c0,0.903-0.01,1.826,0.099,2.709
		c0.295,2.389,0.641,4.775,1.138,7.136c0.165,0.783,0.141,1.591-0.53,2.258c-0.25,0.248-0.49,0.582-0.64,0.925
		c-0.184,0.42-0.471,0.727-0.872,0.906c-0.615,0.274-1.027,0.81-1.581,1.159c-0.174,0.109-0.277,0.268-0.301,0.497
		c-0.075,0.72,0.257,1.256,0.94,1.453c0.168,0.049,0.351,0.057,0.511,0.123c0.972,0.402,1.415,0.324,2.166-0.401
		c0.236-0.227,0.442-0.487,0.76-0.618c0.264-0.109,0.409-0.3,0.542-0.578c0.251-0.525,0.654-0.922,1.282-1.06
		c0.818-0.18,0.986-0.408,0.947-1.276c-0.034-0.753-0.197-1.503-0.259-2.265c-0.004-0.048-0.016-0.1-0.03-0.147
		c-0.342-1.234-0.243-2.357-0.119-3.51c0.195-1.815,0.557-3.421,0.754-5.251c0.134-1.242,0.032-2.625,0.036-3.85
		c0.005-1.349,0.053-2.264,0.355-3.632c0.372-1.685,0.591-3.004,0.762-4.734c0.164-1.666,0.182-3.326,0.342-4.971
		c0.177-1.822,0.105-1.067,0.32-2.886c0.022-0.183,0.086-0.343,0.162-0.5c0.066-0.137,0.156-0.279,0.339-0.242
		c0.132,0.027,0.21,0.143,0.238,0.269c0.064,0.294,0.12,0.591,0.17,0.888c0.235,1.384,0.058,0.293,0.255,1.683
		c0.222,1.566,0.554,3.122,0.531,4.717c-0.011,0.76,0.208,1.616,0.273,2.372c0.101,1.174,0.245,1.904,0.449,3.053
		c0.2,1.125,0.201,2.038,0.201,3.453c0,1.491-0.213,2.909-0.084,4.354c0.156,1.747,0.628,3.453,0.967,5.175
		c0.199,1.011,0.213,2.082-0.015,3.092c-0.241,1.065-0.285,2.139-0.365,3.212c-0.049,0.651,0.18,0.93,0.828,1.055
		c0.458,0.088,0.882,0.267,1.062,0.648c0.392,0.829,1.219,1.167,1.813,1.761c0.649,0.648,1.187,0.65,2.027,0.161
		c0.16-0.093,0.301,0.006,0.417-0.026c0.398-0.109,0.824-0.228,0.969-0.696c0.157-0.509,0.021-1.044-0.326-1.308
		c-0.42-0.32-0.819-0.68-1.276-0.937c-0.69-0.389-1.158-0.957-1.527-1.627c-0.1-0.182-0.219-0.342-0.368-0.478
		c-0.344-0.315-0.444-0.705-0.451-1.16c-0.019-1.271,0.356-2.483,0.515-3.726c0.121-0.946,0.335-1.875,0.424-2.827
		c0.101-1.075,0.273-2.143,0.356-3.222c0.098-1.285,0.187-2.562-0.036-3.842c-0.207-1.191-0.411-2.379-0.348-3.603
		c0.085-1.657-0.158-3.332,0.299-4.967c0.673-3.915,0.631-7.269,0.776-11.712c0.077-2.367-0.186-4.448-0.309-5.405
		c-0.381-2.955-0.526-5.486-0.526-8.078c0-1.206,0.149-4.936,0.293-4.936c0.129,0,0.604,3.347,0.81,5.019
		c0.176,1.423,0.406,2.831,0.797,4.21c0.349,1.232,0.732,2.455,1.096,3.683c0.113,0.383,0.324,0.772,0.219,1.169
		c-0.185,0.698-0.264,1.438-0.731,2.044c-0.132,0.172-0.234,0.409-0.25,0.623c-0.083,1.105-0.134,2.212-0.194,3.319
		c-0.01,0.187,0.027,0.377,0.215,0.447c0.214,0.08,0.302-0.103,0.403-0.253c0.17-0.254,0.311-0.499,0.311-0.83
		c0-0.322,0.086-0.646,0.146-0.966c0.024-0.127,0.099-0.242,0.234-0.27c0.16-0.034,0.199,0.116,0.269,0.215
		c0.366,0.521,0.087,1.073,0.046,1.602c-0.028,0.368-0.203,0.723-0.602,0.903c-0.264,0.119-0.412,0.366-0.511,0.635
		c-0.063,0.171-0.105,0.362,0.054,0.49c0.136,0.109,0.282-0.003,0.423-0.059c1.278-0.5,2.149-1.375,2.515-2.717
		C36.676,46.603,36.883,46.154,36.835,45.666z"/>
	<g>
		<g>
			<path fill="#EF6A4C" stroke="#000000" stroke-width="0.2835" stroke-miterlimit="10" d="M17.357,55.586
				c0.269,1.641,0.655,3.29,0.885,3.633c0.121,0.18,0.779,0.199,1.084,0.198c1.337-0.004,1.853-0.281,1.865-1.103
				c0.011-0.753,0.093-1.69,0.181-2.6C20.021,55.69,18.682,55.647,17.357,55.586z"/>
			<path fill="#EF6A4C" stroke="#000000" stroke-width="0.2835" stroke-miterlimit="10" d="M19.935,51.691
				c-0.807-0.058-2.318-0.168-2.75,0.303c-0.253,0.275-0.1,1.929,0.173,3.591c1.325,0.061,2.663,0.104,4.015,0.128
				c0.1-1.033,0.209-2.031,0.235-2.687C21.644,52.079,21.309,51.791,19.935,51.691z"/>
		</g>
		<g>
			<path fill="#EF6A4C" stroke="#000000" stroke-width="0.2835" stroke-miterlimit="10" d="M26.808,58.314
				c0.012,0.822,0.528,1.099,1.865,1.103c0.305,0.001,0.963-0.018,1.084-0.198c0.23-0.343,0.616-1.993,0.885-3.633
				c-1.325,0.061-2.663,0.104-4.015,0.128C26.716,56.624,26.797,57.561,26.808,58.314z"/>
			<path fill="#EF6A4C" stroke="#000000" stroke-width="0.2835" stroke-miterlimit="10" d="M28.065,51.691
				c-1.374,0.099-1.709,0.388-1.673,1.335c0.025,0.656,0.135,1.655,0.235,2.687c1.352-0.024,2.691-0.067,4.015-0.128
				c0.273-1.662,0.425-3.315,0.173-3.591C30.383,51.524,28.872,51.633,28.065,51.691z"/>
		</g>
	</g>
	<g>
		<path fill="#EE694C" stroke="#000000" stroke-width="0.2835" stroke-miterlimit="10" d="M18.257,43.738
			c1.851,0.062,3.771,0.095,5.743,0.095v-2.177c-0.879,0-1.59-0.709-1.598-1.586c-1.3-0.017-2.582-0.055-3.842-0.113
			C18.486,41.258,18.385,42.523,18.257,43.738z"/>
		<path fill="#EE694C" stroke="#000000" stroke-width="0.2835" stroke-miterlimit="10" d="M24,38.458V35.54
			c-1.815,0-3.585,0.029-5.299,0.081c-0.011,1.483-0.06,2.931-0.14,4.337c1.26,0.058,2.542,0.096,3.842,0.113
			c0-0.005-0.001-0.009-0.001-0.014C22.401,39.174,23.117,38.458,24,38.458z"/>
		<path fill="#EE694C" stroke="#000000" stroke-width="0.2835" stroke-miterlimit="10" d="M16.345,40.573
			c-0.073,1.148-0.143,2.14-0.185,3.081c0.687,0.032,1.388,0.06,2.097,0.084c0.128-1.216,0.229-2.48,0.303-3.78
			c-0.727-0.034-1.443-0.076-2.154-0.123C16.387,40.08,16.36,40.332,16.345,40.573z"/>
		<path fill="#EE694C" stroke="#000000" stroke-width="0.2835" stroke-miterlimit="10" d="M16.785,35.691
			c-0.128,1.389-0.273,2.785-0.378,4.145c0.711,0.047,1.428,0.089,2.154,0.123c0.08-1.406,0.129-2.854,0.14-4.337
			C18.054,35.641,17.414,35.664,16.785,35.691z"/>
		<path fill="#EE694C" stroke="#000000" stroke-width="0.2835" stroke-miterlimit="10" d="M24,41.657v2.177
			c1.972,0,3.892-0.033,5.743-0.095c-0.128-1.216-0.229-2.48-0.303-3.78c-1.26,0.058-2.542,0.096-3.842,0.113
			C25.59,40.948,24.879,41.657,24,41.657z"/>
		<path fill="#EE694C" stroke="#000000" stroke-width="0.2835" stroke-miterlimit="10" d="M24,35.54v2.918
			c0.883,0,1.599,0.716,1.599,1.599c0,0.005-0.001,0.009-0.001,0.014c1.3-0.017,2.582-0.055,3.842-0.113
			c-0.08-1.406-0.129-2.854-0.14-4.337C27.586,35.568,25.814,35.54,24,35.54z"/>
		<path fill="#EE694C" stroke="#000000" stroke-width="0.2835" stroke-miterlimit="10" d="M29.743,43.738
			c0.699-0.023,1.388-0.051,2.065-0.082c-0.07-1.242-0.198-2.255-0.274-2.842c-0.042-0.329-0.079-0.647-0.115-0.966
			c-0.654,0.042-1.313,0.08-1.979,0.111C29.514,41.258,29.615,42.523,29.743,43.738z"/>
		<path fill="#EE694C" stroke="#000000" stroke-width="0.2835" stroke-miterlimit="10" d="M29.299,35.621
			c0.011,1.483,0.06,2.931,0.14,4.337c0.667-0.031,1.326-0.069,1.979-0.111c-0.168-1.46-0.28-2.83-0.343-4.162
			C30.492,35.66,29.899,35.639,29.299,35.621z"/>
	</g>
</g>
</svg>
