<?xml version="1.0" encoding="utf-8"?>
<svg version="1.1" xmlns="http://www.w3.org/2000/svg" xmlns:xlink="http://www.w3.org/1999/xlink" x="0px" y="0px" width="24px"
	 height="24px" viewBox="0 0 24 24" enable-background="new 0 0 24 24" xml:space="preserve">
<g id="cp_x5F_age_x5F_insulin">
	<path opacity="0.5" fill="#FFFFFF" d="M19.455,9.988l-0.947-1.652c-0.144-0.252-0.482-0.329-0.753-0.174
		c-0.171,0.098-0.266,0.267-0.283,0.44l-1.149-0.585c-0.093-0.042-0.202-0.037-0.292,0.015l-9.796,5.614l-0.156-0.271
		c-0.187-0.326-0.61-0.434-0.945-0.242c-0.336,0.192-0.456,0.612-0.269,0.938l2.747,4.79c0.187,0.326,0.61,0.434,0.945,0.242
		c0.336-0.192,0.456-0.612,0.269-0.938L8.67,17.896l9.796-5.614c0.09-0.052,0.15-0.143,0.16-0.244l0.076-1.289
		c0.158,0.072,0.351,0.076,0.522-0.022C19.496,10.57,19.599,10.239,19.455,9.988z M17.407,12.176l-1.127-1.769
		c-0.055-0.086-0.172-0.11-0.261-0.054c-0.086,0.055-0.115,0.165-0.066,0.251c0.001,0.002,0.003,0.005,0.004,0.007l1.118,1.755
		l-0.752,0.431l-1.127-1.769c-0.055-0.086-0.172-0.111-0.261-0.054c-0.086,0.054-0.115,0.165-0.066,0.251
		c0.001,0.002,0.003,0.005,0.004,0.007l1.118,1.755l-0.752,0.431l-1.127-1.769c-0.055-0.086-0.172-0.111-0.261-0.054
		c-0.087,0.055-0.115,0.165-0.066,0.251c0.001,0.002,0.003,0.005,0.004,0.007l1.118,1.755l-0.655,0.375l-1.552-2.482
		c-0.053-0.084-0.165-0.111-0.254-0.06L6.82,14.666l-0.277-0.483l9.652-5.532l1.685,0.87l0.236,0.412l-0.101,1.894L17.407,12.176z"
		/>
</g>
</svg>
