<?xml version="1.0" encoding="utf-8"?>
<svg version="1.1" xmlns="http://www.w3.org/2000/svg" xmlns:xlink="http://www.w3.org/1999/xlink" x="0px" y="0px" width="24px"
	 height="24px" viewBox="0 0 24 24" enable-background="new 0 0 24 24" xml:space="preserve">
<g id="cp_x5F_bolus_x5F_snack">
	<path display="inline" fill="#6EE870" d="M17.44,12.691c0.014,1.998-0.63,3.425-1.684,4.674c-0.756,0.896-1.908,1.144-3.027,0.72
		c-0.27-0.103-0.531-0.139-0.812-0.054c-1.598,0.482-2.731,0.144-3.638-1.256c-1.076-1.661-1.531-3.49-0.981-5.454
		c0.555-1.984,2.385-2.847,4.309-2.074c0.339,0.136,0.662,0.212,1.037,0.098C15.682,8.411,17.449,9.77,17.44,12.691z M7.763,12.765
		c-0.006,1.123,0.402,2.593,0.959,3.451c0.831,1.281,1.572,1.552,2.999,1.081c0.395-0.13,0.796-0.165,1.16,0.026
		c1.13,0.59,1.993,0.123,2.64-0.754c1.042-1.413,1.47-3.04,1.154-4.781c-0.33-1.819-1.703-2.542-3.398-1.858
		c-0.705,0.284-1.379,0.274-2.075-0.025c-0.302-0.13-0.639-0.24-0.963-0.25C8.675,9.61,7.774,10.759,7.763,12.765z"/>
	<path display="inline" fill="#6EE870" d="M11.034,8.824C9.913,8.797,8.47,7.663,8.178,6.641c-0.096-0.336,0.125-0.317,0.31-0.346
		c1.093-0.175,2.761,0.947,3.053,2.037C11.689,8.884,11.28,8.779,11.034,8.824z M9.202,7.065c0.365,0.575,0.753,0.928,1.424,0.999
		C10.312,7.475,9.882,7.186,9.202,7.065z"/>
	<path display="inline" fill="#6EE870" d="M12.186,6.575c0.592-0.057,0.772,0.169,0.702,0.626c-0.08,0.527-0.166,1.054-0.23,1.583
		c-0.029,0.236-0.132,0.363-0.368,0.378c-0.256,0.016-0.417-0.091-0.451-0.358c-0.077-0.607-0.184-1.212-0.225-1.821
		C11.582,6.479,12.031,6.635,12.186,6.575z"/>
</g>
</svg>
