<?xml version="1.0" encoding="utf-8"?>
<svg version="1.1" xmlns="http://www.w3.org/2000/svg" xmlns:xlink="http://www.w3.org/1999/xlink" x="0px" y="0px" width="24px"
	 height="24px" viewBox="0 0 24 24" enable-background="new 0 0 24 24" xml:space="preserve">
<g id="cp_x5F_bgcheck2">
		<path fill="#E83258" d="M9.576,6.295c1.872,3.062,4.551,5.654,4.114,9.509c-0.269,2.368-2.657,3.819-5.025,3.361
			c-2.253-0.436-3.809-2.675-3.331-4.967C5.954,11.218,7.718,8.829,9.576,6.295z M7.238,12.157c-0.223,0.67-0.514,1.326-0.652,2.013
			c-0.215,1.068-0.069,2.095,0.803,2.87c0.312,0.277,0.714,0.372,1.091,0.08c0.254-0.197,0.283-0.484,0.101-0.727
			C7.646,15.142,7.188,13.762,7.238,12.157z"/>
		<path fill="#E83258" d="M16.521,5.632c0.995,1.348,1.923,2.631,2.308,4.206c0.26,1.06-0.064,1.948-0.962,2.562
			c-0.874,0.598-1.818,0.607-2.693,0.008c-0.897-0.614-1.222-1.517-0.965-2.568C14.593,8.267,15.516,6.979,16.521,5.632z"/>
</g>
</svg>
