<?xml version="1.0" encoding="utf-8"?>
<svg version="1.1" xmlns="http://www.w3.org/2000/svg" xmlns:xlink="http://www.w3.org/1999/xlink" x="0px" y="0px" width="24px"
	 height="24px" viewBox="0 0 24 24" enable-background="new 0 0 24 24" xml:space="preserve">
<g id="cp_x5F_note">
	<path display="inline" fill="#FEAF05" d="M13.909,5.715l-7.634,7.634c-0.061,0.061-0.102,0.139-0.118,0.224l-0.911,4.941
		c-0.025,0.138,0.019,0.279,0.118,0.378c0.099,0.099,0.24,0.143,0.378,0.118l4.941-0.911c0.085-0.016,0.163-0.057,0.224-0.118
		l7.634-7.634c0.445-0.445,0.444-1.17-0.003-1.617l-3.012-3.012C15.079,5.271,14.354,5.27,13.909,5.715z M9.891,16.927
		c0.097,0.097,0.132,0.24,0.091,0.371c-0.018,0.058-0.05,0.109-0.091,0.15c-0.053,0.053-0.121,0.089-0.197,0.102l-2.462,0.435
		c-0.244-0.008-0.486-0.103-0.673-0.29c-0.187-0.187-0.282-0.429-0.29-0.673l0.435-2.463c0.024-0.135,0.121-0.246,0.252-0.287
		c0.131-0.041,0.274-0.006,0.371,0.091L9.891,16.927z M17.903,9.269c0.141,0.141,0.141,0.369,0,0.509l-6.746,6.746
		c-0.141,0.141-0.369,0.141-0.509,0l-0.265-0.265c-0.141-0.141-0.141-0.369,0-0.509l6.746-6.746c0.141-0.141,0.369-0.141,0.509,0
		L17.903,9.269z M16.588,7.933c0.141,0.141,0.141,0.369,0,0.509l-6.746,6.746c-0.141,0.141-0.369,0.141-0.509,0l-0.265-0.265
		c-0.141-0.141-0.141-0.369,0-0.509l6.746-6.746c0.141-0.141,0.369-0.141,0.509,0L16.588,7.933z M15.273,6.596
		c0.141,0.141,0.141,0.369,0,0.509l-6.746,6.746c-0.141,0.141-0.369,0.141-0.509,0l-0.265-0.265c-0.141-0.141-0.141-0.369,0-0.509
		l6.746-6.746c0.141-0.141,0.369-0.141,0.509,0L15.273,6.596z"/>
</g>
</svg>
