<?xml version="1.0" encoding="utf-8"?>
<svg version="1.1" xmlns="http://www.w3.org/2000/svg" xmlns:xlink="http://www.w3.org/1999/xlink" x="0px" y="0px" width="24px"
	 height="24px" viewBox="0 0 24 24" enable-background="new 0 0 24 24" xml:space="preserve">
<g id="cp_x5F_pump_x5F_cartridge">
		<path fill="#FEAF05" d="M21.266,9.094c-0.356,0.204-0.798,0.102-0.987-0.227l-1.241-2.164c-0.189-0.33-0.054-0.762,0.302-0.967
			l0,0c0.356-0.204,0.798-0.102,0.987,0.227l1.241,2.164C21.758,8.457,21.622,8.89,21.266,9.094L21.266,9.094z"/>
		<path fill="#FEAF05" d="M7.644,18.842L7.44,18.488l12.834-7.356c0.118-0.068,0.196-0.187,0.21-0.32l0.188-3.195l-0.355-0.619
			l-2.852-1.452c-0.122-0.055-0.264-0.048-0.382,0.02L4.249,12.921l-0.204-0.354C3.8,12.14,3.246,11.998,2.807,12.25
			c-0.44,0.252-0.597,0.802-0.353,1.229l3.599,6.276c0.245,0.427,0.799,0.569,1.238,0.317C7.73,19.819,7.888,19.269,7.644,18.842z
			 M18.885,10.994l-1.476-2.318c-0.072-0.113-0.225-0.145-0.342-0.07c-0.113,0.071-0.151,0.216-0.086,0.329
			c0.002,0.003,0.004,0.007,0.006,0.01l1.465,2.299l-0.986,0.565L15.988,9.49c-0.072-0.113-0.225-0.145-0.342-0.07
			c-0.113,0.071-0.151,0.216-0.086,0.329c0.002,0.003,0.004,0.007,0.006,0.01l1.465,2.299l-0.986,0.565l-1.477-2.318
			c-0.072-0.113-0.225-0.145-0.342-0.07c-0.113,0.071-0.151,0.216-0.086,0.329c0.002,0.003,0.004,0.007,0.006,0.01l1.465,2.299
			l-0.858,0.492l-2.033-3.252C12.65,10,12.503,9.965,12.386,10.032l-7.372,4.225l-0.363-0.633l12.645-7.247l2.537,1.309
			l-0.152,2.852L18.885,10.994z"/>
</g>
</svg>
