<?xml version="1.0" encoding="utf-8"?>
<svg version="1.1" xmlns="http://www.w3.org/2000/svg" xmlns:xlink="http://www.w3.org/1999/xlink" x="0px" y="0px" width="24px"
	 height="24px" viewBox="0 0 24 24" enable-background="new 0 0 24 24" xml:space="preserve">
<g id="danar_x5F_useropt">
    <path fill="#6AE86D" d="M13.351,12.926c-0.137-0.003-0.283,0.012-0.337-0.17c-0.046-0.155,0.002-0.266,0.122-0.366
        c0.628-0.523,0.741-1.232,0.711-2.042c0-0.148,0.013-0.348-0.002-0.546c-0.071-0.91-0.785-1.606-1.718-1.686
        c-0.845-0.073-1.71,0.485-1.862,1.344c-0.184,1.039-0.278,2.111,0.636,2.933c0.115,0.104,0.172,0.206,0.12,0.363
        c-0.059,0.177-0.201,0.171-0.34,0.169c-0.347-0.005-0.668,0.083-0.97,0.249c-0.973,0.535-1.043,1.404-0.165,2.061
        c1.299,0.974,3.949,0.841,5.144-0.257c0.471-0.433,0.508-0.927,0.084-1.408C14.4,13.146,13.918,12.937,13.351,12.926z
         M13.572,14.889c-1.202,0.486-2.407,0.499-3.555-0.158c-0.579-0.331-0.548-0.663,0.046-0.976c0.248-0.131,0.517-0.214,0.801-0.195
        c0.348,0.024,0.636-0.047,0.765-0.414c0.14-0.399,0.306-0.823-0.105-1.149c-0.661-0.524-0.705-1.225-0.666-1.98
        c0.039-0.729,0.51-1.259,1.159-1.248c0.662,0.011,1.13,0.529,1.146,1.269c0.003,0.119,0,0.239,0,0.456
        c0.097,0.503-0.086,0.988-0.564,1.377c-0.395,0.321-0.385,0.738-0.235,1.187c0.15,0.448,0.477,0.542,0.89,0.506
        c0.039-0.003,0.08,0.004,0.118,0.014c0.389,0.093,0.879,0.167,0.948,0.599C14.392,14.615,13.901,14.756,13.572,14.889z"/>
    <path fill="#6AE86D" d="M19.107,10.662H17.78c-0.15-0.648-0.406-1.253-0.749-1.801l0.941-0.941c0.239-0.239,0.239-0.626,0-0.864
        l-1.027-1.027c-0.239-0.239-0.626-0.239-0.864,0l-0.941,0.941c-0.548-0.343-1.154-0.599-1.801-0.749V4.893
        c0-0.338-0.274-0.611-0.611-0.611h-1.453c-0.338,0-0.611,0.274-0.611,0.611V6.22c-0.648,0.15-1.253,0.406-1.801,0.749L7.92,6.028
        c-0.239-0.239-0.626-0.239-0.864,0L6.028,7.056c-0.239,0.239-0.239,0.626,0,0.864l0.941,0.941
        C6.626,9.409,6.37,10.015,6.22,10.662H4.893c-0.338,0-0.611,0.274-0.611,0.611v1.453c0,0.338,0.274,0.611,0.611,0.611H6.22
        c0.15,0.648,0.406,1.253,0.749,1.801L6.028,16.08c-0.239,0.239-0.239,0.626,0,0.864l1.027,1.027c0.239,0.239,0.626,0.239,0.864,0
        l0.941-0.941c0.548,0.343,1.154,0.599,1.801,0.749v1.328c0,0.338,0.274,0.611,0.611,0.611h1.453c0.338,0,0.611-0.274,0.611-0.611
        V17.78c0.648-0.15,1.254-0.406,1.801-0.749l0.941,0.941c0.239,0.239,0.626,0.239,0.864,0l1.027-1.027
        c0.239-0.239,0.239-0.626,0-0.864l-0.941-0.941c0.343-0.548,0.599-1.154,0.749-1.801h1.328c0.338,0,0.611-0.274,0.611-0.611
        v-1.453C19.719,10.936,19.445,10.662,19.107,10.662z M12,16.938c-2.723,0-4.938-2.215-4.938-4.938S9.277,7.063,12,7.063
        S16.938,9.277,16.938,12S14.723,16.938,12,16.938z"/>
</g>
</svg>
