<?xml version="1.0" encoding="utf-8"?>
<svg version="1.1" id="Layer_1" xmlns:serif="http://www.serif.com/"
	 xmlns="http://www.w3.org/2000/svg" xmlns:xlink="http://www.w3.org/1999/xlink" x="0px" y="0px" width="841.89px"
	 height="595.28px" viewBox="0 0 841.89 595.28" enable-background="new 0 0 841.89 595.28" xml:space="preserve">
<g id="DanaRS">
	<path id="Gehäuse" fill="#F5F4F0" d="M618.108,160.13H130.123v265.155c0,4.041,3.279,7.32,7.32,7.32h480.665V160.13
		L618.108,160.13z"/>
	<path id="Bedienfeld" fill="#383A3B" d="M599.803,251.859c0-9.501-7.715-17.217-17.217-17.217H198.645
		c-9.501,0-17.217,7.715-17.217,17.217v183.072c0,0.809,0.66,1.465,1.47,1.465h414.915c1.098,0,1.99-0.888,1.99-1.986V251.859z"/>
	<g id="Schriftzug">
		<g>
			<path fill="#433E3E" d="M344.963,231.276v-13.659h6.855c1.381,0,2.428,0.121,3.144,0.367c0.716,0.246,1.293,0.679,1.721,1.298
				c0.428,0.623,0.642,1.311,0.642,2.06c0,0.967-0.353,1.786-1.065,2.451c-0.707,0.665-1.804,1.088-3.288,1.265
				c0.539,0.233,0.949,0.46,1.232,0.684c0.595,0.484,1.163,1.088,1.697,1.814l2.693,3.721h-2.576l-2.046-2.842
				c-0.595-0.823-1.088-1.451-1.474-1.883c-0.391-0.437-0.735-0.739-1.042-0.912c-0.307-0.177-0.619-0.298-0.935-0.367
				c-0.233-0.042-0.609-0.065-1.139-0.065h-2.372v6.069H344.963z M347.009,223.644h4.399c0.935,0,1.665-0.084,2.195-0.256
				c0.526-0.172,0.925-0.446,1.2-0.819c0.274-0.377,0.414-0.786,0.414-1.228c0-0.646-0.265-1.177-0.8-1.59
				c-0.53-0.419-1.367-0.628-2.516-0.628h-4.892V223.644L347.009,223.644z"/>
			<path fill="#433E3E" d="M359.836,226.885l1.93-0.149c0.093,0.684,0.307,1.242,0.637,1.684c0.335,0.437,0.856,0.791,1.558,1.06
				c0.702,0.27,1.493,0.405,2.372,0.405c0.781,0,1.47-0.102,2.07-0.307c0.595-0.205,1.042-0.488,1.335-0.842
				c0.293-0.358,0.437-0.749,0.437-1.172c0-0.428-0.14-0.8-0.423-1.121c-0.279-0.321-0.744-0.591-1.391-0.805
				c-0.414-0.144-1.335-0.367-2.753-0.67c-1.423-0.298-2.418-0.581-2.986-0.851c-0.739-0.34-1.288-0.767-1.651-1.27
				c-0.363-0.507-0.544-1.074-0.544-1.702c0-0.688,0.223-1.335,0.665-1.935c0.442-0.6,1.088-1.051,1.939-1.363
				c0.851-0.312,1.8-0.465,2.842-0.465c1.144,0,2.153,0.163,3.032,0.488c0.874,0.326,1.549,0.805,2.018,1.437
				c0.47,0.637,0.725,1.353,0.758,2.153l-1.963,0.13c-0.102-0.86-0.46-1.516-1.07-1.953c-0.609-0.442-1.507-0.665-2.693-0.665
				c-1.237,0-2.139,0.2-2.707,0.605c-0.567,0.4-0.851,0.879-0.851,1.446c0,0.493,0.2,0.893,0.605,1.209
				c0.391,0.321,1.418,0.642,3.083,0.977c1.665,0.33,2.804,0.623,3.423,0.87c0.902,0.367,1.567,0.832,1.995,1.395
				c0.428,0.558,0.642,1.209,0.642,1.939c0,0.725-0.237,1.414-0.707,2.056s-1.149,1.144-2.028,1.497
				c-0.884,0.358-1.879,0.539-2.981,0.539c-1.4,0-2.572-0.181-3.521-0.544c-0.944-0.358-1.688-0.902-2.223-1.623
				C360.147,228.615,359.864,227.797,359.836,226.885L359.836,226.885z"/>
		</g>
		<g>
			<path fill="#433E3E" d="M286.268,224.379h3.121c0.614,0,1.107,0.084,1.488,0.251c0.377,0.167,0.688,0.405,0.935,0.716
				c0.246,0.312,0.428,0.674,0.539,1.088c0.112,0.414,0.167,0.856,0.167,1.316c0,0.725-0.084,1.288-0.251,1.688
				c-0.163,0.4-0.391,0.735-0.684,1.005s-0.609,0.451-0.949,0.539c-0.46,0.126-0.874,0.186-1.246,0.186h-3.121V224.379
				L286.268,224.379z M288.365,225.918v3.707h0.516c0.437,0,0.749-0.046,0.935-0.144c0.186-0.098,0.33-0.265,0.437-0.507
				c0.102-0.246,0.158-0.637,0.158-1.181c0-0.721-0.121-1.214-0.353-1.479c-0.237-0.265-0.623-0.395-1.167-0.395H288.365
				L288.365,225.918z"/>
			<path fill="#433E3E" d="M293.564,224.379h1.883v1.284h-1.883V224.379z M293.564,226.248h1.883v4.92h-1.883V226.248z"/>
			<path fill="#433E3E" d="M298.373,227.843l-1.804-0.191c0.07-0.316,0.167-0.563,0.293-0.744c0.13-0.177,0.316-0.335,0.553-0.47
				c0.177-0.093,0.414-0.167,0.716-0.223c0.302-0.051,0.628-0.074,0.981-0.074c0.563,0,1.018,0.028,1.363,0.093
				c0.34,0.065,0.628,0.195,0.856,0.395c0.163,0.14,0.288,0.335,0.381,0.591c0.093,0.256,0.14,0.498,0.14,0.73v2.172
				c0,0.233,0.014,0.414,0.042,0.544c0.028,0.13,0.093,0.298,0.191,0.502h-1.767c-0.07-0.126-0.116-0.223-0.139-0.288
				c-0.023-0.065-0.042-0.172-0.065-0.312c-0.246,0.237-0.493,0.405-0.735,0.507c-0.335,0.135-0.721,0.205-1.163,0.205
				c-0.586,0-1.032-0.135-1.339-0.409c-0.302-0.27-0.456-0.605-0.456-1.005c0-0.372,0.112-0.679,0.33-0.921
				c0.219-0.242,0.623-0.419,1.214-0.535c0.707-0.144,1.167-0.242,1.377-0.302c0.209-0.056,0.432-0.13,0.665-0.223
				c0-0.233-0.047-0.395-0.144-0.488c-0.093-0.088-0.26-0.135-0.502-0.135c-0.312,0-0.539,0.047-0.698,0.144
				C298.541,227.485,298.448,227.629,298.373,227.843L298.373,227.843z M300.006,228.834c-0.26,0.093-0.53,0.177-0.809,0.246
				c-0.381,0.102-0.628,0.2-0.725,0.302c-0.107,0.102-0.158,0.219-0.158,0.344c0,0.149,0.051,0.27,0.153,0.367
				c0.102,0.093,0.256,0.14,0.456,0.14c0.209,0,0.405-0.051,0.586-0.153s0.312-0.228,0.386-0.372
				c0.074-0.149,0.112-0.34,0.112-0.572V228.834L300.006,228.834z"/>
			<path fill="#433E3E" d="M303.084,224.379h1.902v2.353c0.186-0.195,0.4-0.344,0.642-0.446c0.237-0.098,0.502-0.144,0.795-0.144
				c0.595,0,1.093,0.214,1.484,0.642c0.395,0.432,0.591,1.051,0.591,1.856c0,0.539-0.088,1.014-0.27,1.423
				c-0.181,0.409-0.428,0.712-0.744,0.916c-0.316,0.2-0.665,0.302-1.051,0.302c-0.33,0-0.637-0.07-0.912-0.214
				c-0.205-0.112-0.432-0.316-0.674-0.623v0.725h-1.763V224.379L303.084,224.379z M304.972,228.695c0,0.423,0.079,0.73,0.237,0.921
				c0.158,0.191,0.363,0.284,0.605,0.284c0.228,0,0.414-0.093,0.567-0.279c0.153-0.186,0.228-0.502,0.228-0.944
				c0-0.386-0.074-0.674-0.223-0.856c-0.149-0.181-0.33-0.274-0.544-0.274c-0.256,0-0.465,0.098-0.628,0.288
				C305.051,228.02,304.972,228.309,304.972,228.695L304.972,228.695z"/>
			<path fill="#433E3E" d="M314.86,229.178h-3.776c0.033,0.302,0.112,0.526,0.242,0.674c0.181,0.214,0.423,0.321,0.716,0.321
				c0.186,0,0.358-0.047,0.526-0.14c0.102-0.056,0.214-0.163,0.33-0.312l1.856,0.172c-0.284,0.493-0.623,0.851-1.028,1.065
				c-0.4,0.214-0.977,0.321-1.725,0.321c-0.651,0-1.167-0.093-1.539-0.274c-0.372-0.186-0.684-0.474-0.93-0.874
				c-0.242-0.4-0.367-0.874-0.367-1.414c0-0.767,0.246-1.391,0.739-1.865c0.493-0.474,1.172-0.712,2.042-0.712
				c0.702,0,1.26,0.102,1.665,0.316c0.409,0.214,0.721,0.521,0.93,0.925c0.214,0.405,0.321,0.935,0.321,1.581V229.178
				L314.86,229.178z M312.944,228.276c-0.037-0.367-0.135-0.628-0.293-0.786c-0.163-0.158-0.372-0.233-0.628-0.233
				c-0.302,0-0.539,0.116-0.721,0.353c-0.112,0.149-0.186,0.372-0.214,0.665L312.944,228.276L312.944,228.276z"/>
			<path fill="#433E3E" d="M319.394,229.243l1.795,0.205c-0.102,0.372-0.26,0.698-0.488,0.967c-0.223,0.274-0.512,0.488-0.865,0.637
				c-0.349,0.153-0.795,0.228-1.335,0.228c-0.521,0-0.958-0.047-1.302-0.144c-0.349-0.098-0.646-0.256-0.898-0.474
				c-0.251-0.219-0.446-0.47-0.591-0.763c-0.14-0.293-0.209-0.684-0.209-1.167c0-0.507,0.084-0.93,0.256-1.265
				c0.13-0.246,0.302-0.47,0.521-0.665c0.219-0.195,0.446-0.34,0.674-0.437c0.367-0.149,0.842-0.223,1.414-0.223
				c0.805,0,1.414,0.14,1.837,0.428c0.423,0.288,0.716,0.707,0.888,1.26l-1.777,0.237c-0.056-0.209-0.153-0.367-0.302-0.474
				c-0.144-0.107-0.344-0.163-0.591-0.163c-0.312,0-0.563,0.112-0.758,0.335c-0.191,0.228-0.288,0.563-0.288,1.018
				c0,0.405,0.098,0.707,0.288,0.921c0.191,0.209,0.432,0.312,0.73,0.312c0.246,0,0.456-0.06,0.623-0.191
				C319.185,229.699,319.31,229.504,319.394,229.243L319.394,229.243z"/>
			<path fill="#433E3E" d="M323.77,227.843l-1.8-0.191c0.07-0.316,0.167-0.563,0.293-0.744c0.13-0.177,0.312-0.335,0.553-0.47
				c0.172-0.093,0.414-0.167,0.716-0.223c0.302-0.051,0.628-0.074,0.981-0.074c0.563,0,1.018,0.028,1.363,0.093
				c0.34,0.065,0.628,0.195,0.856,0.395c0.158,0.14,0.288,0.335,0.377,0.591c0.093,0.256,0.14,0.498,0.14,0.73v2.172
				c0,0.233,0.014,0.414,0.046,0.544c0.028,0.13,0.093,0.298,0.191,0.502h-1.767c-0.074-0.126-0.121-0.223-0.139-0.288
				c-0.023-0.065-0.042-0.172-0.065-0.312c-0.246,0.237-0.493,0.405-0.735,0.507c-0.335,0.135-0.725,0.205-1.163,0.205
				c-0.591,0-1.032-0.135-1.339-0.409c-0.302-0.27-0.456-0.605-0.456-1.005c0-0.372,0.112-0.679,0.33-0.921
				c0.219-0.242,0.623-0.419,1.214-0.535c0.707-0.144,1.163-0.242,1.377-0.302c0.209-0.056,0.428-0.13,0.665-0.223
				c0-0.233-0.047-0.395-0.144-0.488c-0.093-0.088-0.265-0.135-0.502-0.135c-0.312,0-0.544,0.047-0.698,0.144
				C323.942,227.485,323.845,227.629,323.77,227.843L323.77,227.843z M325.407,228.834c-0.26,0.093-0.53,0.177-0.809,0.246
				c-0.386,0.102-0.628,0.2-0.73,0.302s-0.158,0.219-0.158,0.344c0,0.149,0.056,0.27,0.158,0.367c0.102,0.093,0.256,0.14,0.456,0.14
				c0.209,0,0.405-0.051,0.586-0.153c0.181-0.102,0.307-0.228,0.386-0.372c0.074-0.149,0.112-0.34,0.112-0.572L325.407,228.834
				L325.407,228.834z"/>
			<path fill="#433E3E" d="M328.398,226.248h1.767v0.809c0.167-0.349,0.344-0.591,0.526-0.721c0.181-0.13,0.405-0.195,0.67-0.195
				c0.279,0,0.581,0.084,0.911,0.256l-0.586,1.344c-0.219-0.093-0.395-0.14-0.526-0.14c-0.246,0-0.437,0.102-0.577,0.307
				c-0.191,0.288-0.288,0.823-0.288,1.614v1.646h-1.897V226.248L328.398,226.248z"/>
			<path fill="#433E3E" d="M338.206,229.178h-3.781c0.033,0.302,0.116,0.526,0.246,0.674c0.181,0.214,0.419,0.321,0.712,0.321
				c0.186,0,0.363-0.047,0.53-0.14c0.102-0.056,0.209-0.163,0.326-0.312l1.86,0.172c-0.284,0.493-0.628,0.851-1.028,1.065
				c-0.405,0.214-0.977,0.321-1.73,0.321c-0.651,0-1.163-0.093-1.535-0.274c-0.377-0.186-0.684-0.474-0.93-0.874
				s-0.367-0.874-0.367-1.414c0-0.767,0.246-1.391,0.739-1.865c0.488-0.474,1.172-0.712,2.037-0.712c0.707,0,1.26,0.102,1.67,0.316
				c0.405,0.214,0.716,0.521,0.93,0.925c0.214,0.405,0.321,0.935,0.321,1.581V229.178L338.206,229.178z M336.285,228.276
				c-0.037-0.367-0.135-0.628-0.293-0.786c-0.158-0.158-0.367-0.233-0.628-0.233c-0.298,0-0.539,0.116-0.716,0.353
				c-0.116,0.149-0.186,0.372-0.219,0.665L336.285,228.276L336.285,228.276z"/>
		</g>
		<g>
			<path fill="#433E3E" d="M212.997,217.984h7.976c1.795,0,3.167,0.084,4.111,0.251c1.265,0.228,2.349,0.632,3.255,1.214
				c0.902,0.581,1.591,1.293,2.06,2.135c0.474,0.842,0.707,1.883,0.707,3.116c0,1.088-0.219,2.023-0.66,2.809
				c-0.539,0.958-1.311,1.735-2.316,2.33c-0.753,0.451-1.777,0.8-3.065,1.051c-0.963,0.186-2.246,0.279-3.86,0.279h-8.208
				L212.997,217.984L212.997,217.984z M217.359,220.212v8.734h3.26c1.214,0,2.097-0.042,2.637-0.126
				c0.707-0.107,1.293-0.288,1.758-0.549c0.47-0.256,0.846-0.679,1.144-1.27c0.293-0.591,0.442-1.395,0.442-2.418
				c0-1.018-0.149-1.8-0.442-2.349c-0.298-0.544-0.707-0.967-1.237-1.274c-0.53-0.307-1.205-0.512-2.018-0.623
				c-0.609-0.084-1.804-0.126-3.581-0.126C219.322,220.212,217.359,220.212,217.359,220.212z"/>
			<path fill="#433E3E" d="M237.873,224.532l-3.758-0.414c0.423-0.925,1.149-1.609,2.181-2.051c1.032-0.446,2.563-0.665,4.595-0.665
				c1.846,0,3.223,0.13,4.125,0.4c0.907,0.265,1.544,0.605,1.911,1.014c0.367,0.414,0.553,1.167,0.553,2.265l-0.047,2.948
				c0,0.842,0.065,1.46,0.2,1.86c0.13,0.395,0.381,0.823,0.744,1.279h-4.097c-0.107-0.167-0.242-0.414-0.4-0.744
				c-0.065-0.153-0.116-0.251-0.144-0.298c-0.707,0.419-1.465,0.735-2.27,0.944c-0.805,0.209-1.665,0.316-2.581,0.316
				c-1.609,0-2.879-0.27-3.809-0.805c-0.925-0.53-1.391-1.205-1.391-2.023c0-0.539,0.209-1.018,0.632-1.442s1.014-0.749,1.777-0.972
				c0.763-0.223,1.86-0.423,3.293-0.591c1.935-0.223,3.279-0.428,4.023-0.619v-0.251c0-0.488-0.195-0.832-0.591-1.042
				c-0.391-0.205-1.135-0.312-2.223-0.312c-0.739,0-1.311,0.088-1.725,0.27C238.459,223.779,238.129,224.086,237.873,224.532
				L237.873,224.532z M243.412,226.583c-0.53,0.107-1.372,0.237-2.521,0.386c-1.149,0.149-1.897,0.298-2.251,0.442
				c-0.544,0.233-0.814,0.53-0.814,0.888c0,0.353,0.219,0.66,0.651,0.916c0.433,0.26,0.981,0.391,1.651,0.391
				c0.744,0,1.456-0.153,2.135-0.451c0.502-0.228,0.828-0.507,0.986-0.837c0.107-0.214,0.163-0.628,0.163-1.232V226.583z"/>
			<path fill="#433E3E" d="M265.796,231.169h-4.139v-4.874c0-1.032-0.088-1.697-0.265-2.004c-0.177-0.302-0.465-0.535-0.865-0.702
				c-0.395-0.172-0.874-0.256-1.437-0.256c-0.716,0-1.358,0.121-1.93,0.363c-0.567,0.237-0.958,0.558-1.172,0.953
				c-0.209,0.395-0.316,1.125-0.316,2.195v4.325h-4.139v-9.552h3.846v1.404c1.363-1.079,3.083-1.618,5.158-1.618
				c0.911,0,1.749,0.098,2.502,0.298c0.758,0.205,1.33,0.46,1.721,0.772c0.386,0.312,0.656,0.665,0.809,1.06
				c0.154,0.395,0.228,0.963,0.228,1.702C265.796,225.234,265.796,231.169,265.796,231.169z"/>
			<path fill="#433E3E" d="M273.088,224.532l-3.758-0.414c0.423-0.925,1.149-1.609,2.181-2.051c1.032-0.446,2.567-0.665,4.599-0.665
				c1.846,0,3.223,0.13,4.125,0.4c0.902,0.265,1.539,0.605,1.907,1.014c0.367,0.414,0.553,1.167,0.553,2.265l-0.042,2.948
				c0,0.842,0.065,1.46,0.195,1.86c0.135,0.395,0.381,0.823,0.744,1.279h-4.097c-0.107-0.167-0.237-0.414-0.395-0.744
				c-0.07-0.153-0.116-0.251-0.149-0.298c-0.707,0.419-1.46,0.735-2.27,0.944c-0.805,0.209-1.665,0.316-2.576,0.316
				c-1.614,0-2.883-0.27-3.809-0.805c-0.93-0.53-1.395-1.205-1.395-2.023c0-0.539,0.214-1.018,0.637-1.442
				c0.419-0.423,1.014-0.749,1.772-0.972c0.763-0.223,1.86-0.423,3.297-0.591c1.935-0.223,3.274-0.428,4.023-0.619v-0.251
				c0-0.488-0.2-0.832-0.591-1.042c-0.395-0.205-1.135-0.312-2.228-0.312c-0.735,0-1.311,0.088-1.721,0.27
				C273.678,223.779,273.343,224.086,273.088,224.532L273.088,224.532z M278.631,226.583c-0.535,0.107-1.372,0.237-2.521,0.386
				c-1.149,0.149-1.902,0.298-2.256,0.442c-0.539,0.233-0.809,0.53-0.809,0.888c0,0.353,0.214,0.66,0.646,0.916
				c0.432,0.26,0.981,0.391,1.651,0.391c0.749,0,1.46-0.153,2.135-0.451c0.502-0.228,0.832-0.507,0.991-0.837
				c0.107-0.214,0.163-0.628,0.163-1.232V226.583z"/>
		</g>
		<path fill="#2C2D2D" d="M246.616,221.57c-1.577-0.67-3.39-2.576-5.669-6.836h5.069L246.616,221.57z"/>
	</g>
	<path id="Display" fill="#7A9C8E" d="M417.443,272.675c0-1.251-1.018-2.27-2.27-2.27H207.751c-1.251,0-2.27,1.018-2.27,2.27v95.952
		c0,1.256,1.018,2.27,2.27,2.27h207.423c1.251,0,2.27-1.014,2.27-2.27V272.675z"/>
	<rect x="174.02" y="160.13" fill="#ADB0AF" width="1.851" height="272.475"/>
	<rect x="130.123" y="160.13" fill="#DEDEDC" width="1.851" height="272.475"/>
	<path fill="#CFCCCC" fill-opacity="0.45" d="M584.991,164.111c0-2.195-1.781-3.981-3.981-3.981H448.072
		c-2.195,0-3.981,1.786-3.981,3.981v27.75c0,2.195,1.786,3.981,3.981,3.981H581.01c2.2,0,3.981-1.786,3.981-3.981V164.111z"/>
	<g id="OK">
		
			<path fill="none" stroke="#212122" stroke-width="1.77" stroke-linecap="round" stroke-linejoin="round" stroke-miterlimit="1.5" d="
			M562.217,332.952c0-2.609-2.116-4.725-4.725-4.725h-32.164c-2.604,0-4.725,2.116-4.725,4.725v32.671
			c0,2.609,2.121,4.725,4.725,4.725h32.164c2.609,0,4.725-2.116,4.725-4.725V332.952z"/>
		<g>
			<path fill="#BD1716" d="M522.859,349.541c0-3.162,0.846-5.637,2.544-7.427c1.697-1.79,3.888-2.683,6.576-2.683
				c1.758,0,3.344,0.419,4.753,1.26c1.414,0.842,2.488,2.014,3.232,3.516c0.739,1.502,1.112,3.209,1.112,5.111
				c0,1.935-0.391,3.66-1.172,5.185c-0.781,1.525-1.884,2.679-3.311,3.465c-1.432,0.781-2.972,1.172-4.627,1.172
				c-1.79,0-3.395-0.433-4.809-1.298c-1.409-0.865-2.479-2.046-3.209-3.548C523.222,352.796,522.859,351.211,522.859,349.541
				L522.859,349.541z M525.454,349.578c0,2.297,0.619,4.107,1.851,5.427c1.237,1.321,2.786,1.981,4.646,1.981
				c1.897,0,3.46-0.67,4.683-2.004c1.228-1.33,1.842-3.223,1.842-5.678c0-1.549-0.265-2.902-0.786-4.06
				c-0.526-1.153-1.293-2.051-2.302-2.688c-1.009-0.637-2.139-0.953-3.395-0.953c-1.786,0-3.321,0.614-4.609,1.837
				C526.1,344.667,525.454,346.713,525.454,349.578L525.454,349.578z"/>
			<path fill="#BD1716" d="M544.219,358.819V339.77h2.521v9.445l9.459-9.445h3.414l-7.99,7.715l8.343,11.334h-3.325l-6.785-9.641
				l-3.116,3.037v6.604L544.219,358.819L544.219,358.819z"/>
		</g>
	</g>
	<g id="Plus">
		<g id="Plus-Zeichen" serif:id="Plus Zeichen">
			<rect x="478.306" y="282.316" fill="#FFFFFF" width="4.409" height="18.863"/>
			<path fill="#FFFFFF" d="M489.839,293.547v-4.404h-18.863v4.404H489.839z"/>
		</g>
		
			<ellipse id="Plus1" serif:id="Plus" fill="none" stroke="#212122" stroke-width="2.08" stroke-linecap="round" stroke-linejoin="round" stroke-miterlimit="1.5" cx="480.557" cy="291.078" rx="20.807" ry="21.342">
		</ellipse>
	</g>
	<g id="Minus">
		
			<ellipse id="Plus2" serif:id="Plus" fill="none" stroke="#212122" stroke-width="2.08" stroke-linecap="round" stroke-linejoin="round" stroke-miterlimit="1.5" cx="480.557" cy="349.118" rx="20.807" ry="21.342">
		</ellipse>
		<rect x="470.879" y="346.904" fill="#FFFFFF" width="19.356" height="4.423"/>
	</g>
	<g id="Delta">
		
			<ellipse id="Delta1" serif:id="Delta" fill="none" stroke="#212122" stroke-width="2.08" stroke-linecap="round" stroke-linejoin="round" stroke-miterlimit="1.5" cx="541.41" cy="291.748" rx="20.807" ry="21.342">
		</ellipse>
		<path fill="#FFFFFF" d="M556.52,291.097l-24.086,11.771v-23.541L556.52,291.097z"/>
	</g>
	<rect x="618.108" y="160.13" fill="#F0EEEB" width="15.505" height="117.982"/>
	<path fill="#F3F3F1" d="M711.777,251.292c0-1.879-1.521-3.4-3.4-3.4h-46.092c-1.879,0-3.4,1.521-3.4,3.4v6.799
		c0,1.874,1.521,3.4,3.4,3.4h46.092c1.879,0,3.4-1.525,3.4-3.4V251.292z"/>
	<path fill="#F3F3F1" d="M711.777,177.533c0-1.93-1.567-3.497-3.497-3.497h-45.897c-1.93,0-3.497,1.567-3.497,3.497v6.995
		c0,1.935,1.567,3.502,3.497,3.502h45.897c1.93,0,3.497-1.567,3.497-3.502V177.533z"/>
	<path fill="#EAEAE9" d="M633.613,278.112V160.13l50.538,29.494v58.989L633.613,278.112z"/>
	<path id="Schatten" fill="#DEDEDC" d="M659.834,261.979l0.209-86.683c17.454,4.93,34.661,9.613,51.682,11.203v65.011
		C693.03,251.766,675.832,255.78,659.834,261.979z"/>
	<path fill="#EAEAE9" d="M659.857,257.626v-77.461c17.505,4.52,34.842,6.971,51.92,8.427v59.598
		C693.025,248.427,675.902,251.943,659.857,257.626L659.857,257.626z"/>
	<path fill="#D7D7D7" d="M658.885,218.896c15.463-8.083,34.531-8.45,52.892-10.324v18.235
		C693.955,225.574,675.832,226.523,658.885,218.896z"/>
	<path fill="#E3E3E1" d="M712.009,216.156c0-1.163-1.023-2.107-2.288-2.107h-48.985c-1.265,0-2.288,0.944-2.288,2.107
		c0,0-0.381,3.158,0,4.209c0.349,0.972,1.023,2.107,2.288,2.107h48.985c1.265,0,2.288-0.944,2.288-2.107V216.156z"/>
	<g id="Pfeil">
		<path fill="#DEDEDC" d="M608.468,188.034l3.846,8.283h-7.697L608.468,188.034L608.468,188.034z"/>
		<rect x="606.77" y="195.638" fill="#DEDEDC" width="3.018" height="16.152"/>
	</g>
	<rect x="616.085" y="228.36" fill="#DEDEDC" width="2.028" height="205.655"/>
	<path fill="#DEDEDC" d="M618.108,228.499c-0.158-4.041-1.66-7.762-4.274-10.603c-3.558-3.869-8.855-5.767-14.477-5.181
		l-0.028,1.935c5.041-0.526,9.794,1.177,12.985,4.646c2.344,2.549,3.688,5.883,3.832,9.506L618.108,228.499L618.108,228.499z"/>
	<rect x="285.84" y="212.608" fill="#DEDEDC" width="317.545" height="1.967"/>
	<path fill="#DEDEDC" d="M235.934,158.884c-0.442,11.357,2.795,22.649,9.218,32.164c9.292,13.757,24.327,22.467,40.609,23.527
		l0.079-2.093c-15.631-1.018-30.066-9.38-38.982-22.588c-6.167-9.134-9.273-19.97-8.85-30.876
		C238.008,159.019,235.934,158.884,235.934,158.884z"/>
	<g>
		<path fill="#D6D2D2" d="M612.197,227.997c0.051,1.386-0.353,2.511-1.214,3.376c-0.856,0.865-1.93,1.298-3.223,1.298
			c-1.102,0-2.074-0.326-2.911-0.967c-1.111-0.856-1.665-2.065-1.665-3.623c0-1.563,0.53-2.776,1.591-3.627
			c0.837-0.679,1.828-1.014,2.981-1.014c1.288,0,2.367,0.437,3.228,1.316S612.248,226.713,612.197,227.997L612.197,227.997z
			 M611.788,228.071c0-0.791-0.409-1.395-1.219-1.814c-0.67-0.335-1.623-0.507-2.874-0.507c-1.484,0-2.576,0.265-3.288,0.786
			c-0.498,0.363-0.744,0.87-0.744,1.525c0,0.437,0.107,0.805,0.321,1.102c0.274,0.377,0.712,0.67,1.311,0.879
			c0.6,0.209,1.381,0.312,2.349,0.312c1.149,0,2.009-0.107,2.581-0.321c0.572-0.214,0.972-0.484,1.209-0.814
			C611.667,228.885,611.788,228.504,611.788,228.071L611.788,228.071z"/>
		<path fill="#D6D2D2" d="M607.319,236.684h-2.409c-0.474,0-0.767,0.028-0.888,0.084c-0.126,0.06-0.219,0.163-0.293,0.312
			c-0.074,0.144-0.107,0.414-0.107,0.809h-0.242v-4.418h0.242c0,0.405,0.037,0.674,0.112,0.819c0.074,0.144,0.172,0.242,0.288,0.302
			c0.121,0.056,0.414,0.084,0.888,0.084h5.641c0.47,0,0.763-0.028,0.888-0.084c0.121-0.06,0.219-0.163,0.288-0.307
			c0.074-0.144,0.112-0.414,0.112-0.814h0.237v3.79c0,1.246-0.223,2.144-0.67,2.683c-0.442,0.544-1,0.818-1.665,0.818
			c-0.563,0-1.046-0.177-1.451-0.53c-0.4-0.349-0.674-0.832-0.819-1.446C607.37,238.372,607.319,237.67,607.319,236.684
			L607.319,236.684z M611.574,236.684h-3.758c-0.005,0.14-0.009,0.246-0.009,0.321c0,0.521,0.153,0.921,0.465,1.204
			c0.307,0.284,0.786,0.423,1.437,0.423c0.646,0,1.116-0.14,1.418-0.423c0.298-0.284,0.446-0.702,0.446-1.265V236.684z"/>
		<path fill="#D6D2D2" d="M611.574,244.734h-3.539v0.172c0,0.553,0.172,0.953,0.521,1.2c0.344,0.246,0.856,0.405,1.53,0.474v0.246
			h-4.548v-0.246c0.493-0.051,0.902-0.158,1.218-0.321c0.316-0.167,0.526-0.358,0.637-0.577c0.107-0.219,0.163-0.535,0.163-0.949
			h-2.451c-0.479,0-0.772,0.023-0.879,0.06c-0.107,0.042-0.191,0.116-0.26,0.228c-0.07,0.112-0.102,0.293-0.102,0.539v0.521
			c0,0.809,0.186,1.46,0.563,1.949c0.377,0.493,0.949,0.842,1.721,1.056v0.237l-2.767-0.391v-7.515h0.242v0.293
			c0,0.251,0.042,0.451,0.13,0.605c0.06,0.112,0.163,0.2,0.312,0.26c0.102,0.046,0.372,0.07,0.805,0.07h5.72
			c0.391,0,0.632-0.014,0.725-0.033c0.149-0.042,0.265-0.121,0.344-0.237c0.121-0.163,0.181-0.386,0.181-0.665v-0.293h0.237v7.278
			h-2.572v-0.242c0.628-0.126,1.079-0.298,1.353-0.526c0.274-0.223,0.474-0.539,0.6-0.949c0.079-0.242,0.116-0.688,0.116-1.349
			L611.574,244.734L611.574,244.734z"/>
		<path fill="#D6D2D2" d="M612.076,253.185l-5.395,4.288h3.739c0.521,0,0.874-0.074,1.06-0.223c0.247-0.205,0.367-0.549,0.358-1.032
			h0.237v2.874h-0.237c-0.047-0.367-0.107-0.619-0.186-0.744c-0.074-0.126-0.195-0.223-0.363-0.293
			c-0.167-0.07-0.46-0.107-0.87-0.107h-7.236v-0.219l7.236-5.878h-5.525c-0.502,0-0.837,0.116-1.014,0.344
			c-0.177,0.228-0.26,0.488-0.26,0.786v0.205h-0.242v-3.083h0.242c0,0.479,0.102,0.814,0.293,1s0.521,0.284,0.981,0.284h6.134
			l0.233-0.186c0.228-0.186,0.381-0.349,0.456-0.488c0.07-0.14,0.112-0.344,0.121-0.609h0.237V253.185z"/>
	</g>
	<rect x="129.881" y="158.884" fill="#DEDEDC" width="106.016" height="2.497"/>
	<rect x="130.123" y="430.453" fill="#DEDEDC" width="51.017" height="2.153"/>
	<rect x="599.803" y="432.462" fill="#DEDEDC" width="16.505" height="1.553"/>
</g>
</svg>
