<?xml version="1.0" encoding="utf-8"?>
<!DOCTYPE svg PUBLIC "-//W3C//DTD SVG 1.1//EN" "http://www.w3.org/Graphics/SVG/1.1/DTD/svg11.dtd">
<svg version="1.1" xmlns="http://www.w3.org/2000/svg" xmlns:xlink="http://www.w3.org/1999/xlink" x="0px" y="0px" width="24px"
	 height="24px" viewBox="0 0 24 24" enable-background="new 0 0 24 24" xml:space="preserve">
<g id="Rotation_Arrows">
	<path display="none" fill="#36FF00" d="M11.272,18.783c2.66-0.1,5.908-0.143,7.753,0.243l0.001,0.001l0-0.001l0.001,0l-0.001-0.001
		c-0.386-1.845-0.343-5.093-0.243-7.753l-2.225-0.351c0,0-0.12,2.111-0.146,4.003L5.717,4.229L4.229,5.717l10.695,10.695
		c-1.892,0.026-4.003,0.146-4.003,0.146L11.272,18.783z"/>
	<path display="none" fill="#36FF00" d="M16.281,17.311c1.81-1.952,4.076-4.279,5.654-5.31h0.002c0,0-0.001-0.001-0.001-0.001
		c0,0,0.001-0.001,0.001-0.001h-0.002c-1.578-1.032-3.844-3.359-5.654-5.31L14.46,8.014c0,0,1.408,1.578,2.728,2.934H2.063v2.104
		h15.125c-1.319,1.356-2.728,2.934-2.728,2.934L16.281,17.311z"/>
	<path display="none" fill="#36FF00" d="M18.783,12.728c-0.1-2.66-0.143-5.908,0.243-7.753l0.001-0.001l-0.001,0l0-0.001
		l-0.001,0.001c-1.845,0.386-5.093,0.343-7.753,0.243l-0.351,2.225c0,0,2.111,0.12,4.003,0.146L4.229,18.283l1.488,1.488
		L16.412,9.076c0.026,1.892,0.146,4.003,0.146,4.003L18.783,12.728z"/>
	<path display="none" fill="#36FF00" d="M6.689,16.281c1.952,1.81,4.279,4.076,5.31,5.654v0.002c0,0,0.001-0.001,0.001-0.001
		c0,0,0.001,0.001,0.001,0.001v-0.002c1.032-1.578,3.359-3.844,5.31-5.654l-1.325-1.821c0,0-1.578,1.408-2.934,2.728V2.063h-2.104
		v15.125c-1.356-1.319-2.934-2.728-2.934-2.728L6.689,16.281z"/>
	<path display="none" fill="#36FF00" d="M17.102,7.719c-1.952-1.81-4.279-4.076-5.31-5.654V2.063c0,0-0.001,0.001-0.001,0.001
		c0,0-0.001-0.001-0.001-0.001l0,0.002c-1.032,1.578-3.359,3.844-5.31,5.654L7.805,9.54c0,0,1.578-1.408,2.934-2.728v15.125h2.104
		V6.813c1.356,1.319,2.934,2.728,2.934,2.728L17.102,7.719z"/>
	<path fill="#36FF00" d="M12.728,18.783c-2.66-0.1-5.908-0.143-7.753,0.243l-0.001,0.001l0-0.001l-0.001,0l0.001-0.001
		c0.386-1.845,0.343-5.093,0.243-7.753l2.225-0.351c0,0,0.12,2.111,0.146,4.003L18.283,4.229l1.488,1.488L9.076,16.412
		c1.892,0.026,4.003,0.146,4.003,0.146L12.728,18.783z"/>
	<path fill="#36FF00" d="M7.719,17.311c-1.81-1.952-4.076-4.279-5.654-5.31H2.063c0,0,0.001-0.001,0.001-0.001
		c0,0-0.001-0.001-0.001-0.001h0.002c1.578-1.032,3.844-3.359,5.654-5.31L9.54,8.014c0,0-1.408,1.578-2.728,2.934h15.125v2.104
		H6.813c1.319,1.356,2.728,2.934,2.728,2.934L7.719,17.311z"/>
	<path fill="#36FF00" d="M5.217,12.728c0.1-2.66,0.143-5.908-0.243-7.753L4.973,4.974l0.001,0l0-0.001l0.001,0.001
		c1.845,0.386,5.093,0.343,7.753,0.243l0.351,2.225c0,0-2.111,0.12-4.003,0.146l10.695,10.695l-1.488,1.488L7.588,9.076
		c-0.026,1.892-0.146,4.003-0.146,4.003L5.217,12.728z"/>
</g>
</svg>
