<?xml version="1.0" encoding="utf-8"?>
<!DOCTYPE svg PUBLIC "-//W3C//DTD SVG 1.1//EN" "http://www.w3.org/Graphics/SVG/1.1/DTD/svg11.dtd">
<svg version="1.1" xmlns="http://www.w3.org/2000/svg" xmlns:xlink="http://www.w3.org/1999/xlink" x="0px" y="0px" width="24px"
	 height="24px" viewBox="0 0 24 24" enable-background="new 0 0 24 24" xml:space="preserve">
<g id="ic_invalid">
	<g>
		<g>
			<circle fill="#36FF00" cx="17.991" cy="20.275" r="1.285"/>
			<path fill="#36FF00" d="M17.936,17.188c-0.514,0-0.93-0.416-0.93-0.93c0-3.343,1.558-4.509,2.81-5.446
				c1.049-0.786,1.808-1.354,1.808-3.191c0-2.534-2.433-3.321-3.32-3.321c-1.91,0-3.452,1.145-4.231,3.14
				c-0.187,0.479-0.728,0.716-1.204,0.528c-0.479-0.187-0.714-0.726-0.528-1.204c1.057-2.707,3.286-4.322,5.963-4.322
				c2.088,0,5.18,1.646,5.18,5.18c0,2.768-1.416,3.828-2.553,4.679c-1.154,0.864-2.065,1.546-2.065,3.958
				C18.866,16.771,18.45,17.188,17.936,17.188z"/>
		</g>
		<g>
			<circle fill="#36FF00" cx="6.228" cy="20.275" r="1.285"/>
			<path fill="#36FF00" d="M6.173,17.188c-0.514,0-0.93-0.416-0.93-0.93c0-3.343,1.558-4.509,2.81-5.446
				c1.049-0.786,1.808-1.354,1.808-3.191c0-2.534-2.433-3.321-3.32-3.321c-1.91,0-3.452,1.145-4.231,3.14
				C2.124,7.918,1.583,8.155,1.107,7.967C0.628,7.78,0.392,7.241,0.579,6.763C1.636,4.056,3.865,2.44,6.542,2.44
				c2.088,0,5.18,1.646,5.18,5.18c0,2.768-1.416,3.828-2.553,4.679c-1.154,0.864-2.065,1.546-2.065,3.958
				C7.103,16.771,6.687,17.188,6.173,17.188z"/>
		</g>
	</g>
</g>
<g id="ic_flat">
	<path fill="#36FF00" d="M17.17,18.413c2.186-2.357,4.922-5.167,6.828-6.413H24c0,0-0.001-0.001-0.001-0.001
		c0,0,0.001-0.001,0.001-0.001h-0.003c-1.906-1.246-4.642-4.056-6.828-6.413l-2.199,1.6c0,0,1.7,1.905,3.294,3.543H0l0,2.54h18.264
		c-1.593,1.638-3.294,3.543-3.294,3.543L17.17,18.413z"/>
</g>
<g id="ic_simpleup">
	<path fill="#36FF00" d="M18.16,6.83c-2.357-2.186-5.167-4.922-6.413-6.828V0c0,0-0.001,0.001-0.001,0.001
		c0,0-0.001-0.001-0.001-0.001l0,0.002C10.5,1.908,7.69,4.644,5.333,6.83l1.6,2.199c0,0,1.905-1.7,3.543-3.294V24h2.54V5.736
		C14.655,7.329,16.56,9.03,16.56,9.03L18.16,6.83z"/>
</g>
<g id="ic_doubleup">
	<g>
		<path fill="#36FF00" d="M0.772,6.83c2.357-2.186,5.167-4.922,6.413-6.828V0c0,0,0.001,0.001,0.001,0.001
			c0,0,0.001-0.001,0.001-0.001v0.003c1.246,1.906,4.056,4.642,6.413,6.828l-1.6,2.199c0,0-1.905-1.7-3.543-3.294V24h-2.54V5.736
			C4.278,7.329,2.373,9.03,2.373,9.03L0.772,6.83z"/>
		<path fill="#36FF00" d="M10.401,6.83c2.357-2.186,5.167-4.922,6.413-6.828V0c0,0,0.001,0.001,0.001,0.001
			c0,0,0.001-0.001,0.001-0.001v0.003c1.246,1.906,4.056,4.642,6.413,6.828l-1.6,2.199c0,0-1.905-1.7-3.543-3.294V24h-2.54V5.736
			c-1.638,1.593-3.543,3.294-3.543,3.294L10.401,6.83z"/>
	</g>
</g>
<g id="ic_simpledown">
	<path fill="#36FF00" d="M5.587,17.17c2.357,2.186,5.167,4.922,6.413,6.828V24c0,0,0.001-0.001,0.001-0.001
		c0,0,0.001,0.001,0.001,0.001v-0.003c1.246-1.906,4.056-4.642,6.413-6.828l-1.6-2.199c0,0-1.905,1.7-3.543,3.294V0l-2.54,0v18.264
		c-1.638-1.593-3.543-3.294-3.543-3.294L5.587,17.17z"/>
</g>
<g id="ic_doubledown">
	<g>
		<path fill="#36FF00" d="M0.772,17.17c2.357,2.186,5.167,4.922,6.413,6.828V24c0,0,0.001-0.001,0.001-0.001
			c0,0,0.001,0.001,0.001,0.001v-0.003c1.246-1.906,4.056-4.642,6.413-6.828l-1.6-2.199c0,0-1.905,1.7-3.543,3.294V0l-2.54,0v18.264
			c-1.638-1.593-3.543-3.294-3.543-3.294L0.772,17.17z"/>
		<path fill="#36FF00" d="M10.401,17.17c2.357,2.186,5.167,4.922,6.413,6.828V24c0,0,0.001-0.001,0.001-0.001
			c0,0,0.001,0.001,0.001,0.001v-0.003c1.246-1.906,4.056-4.642,6.413-6.828l-1.6-2.199c0,0-1.905,1.7-3.543,3.294V0l-2.54,0v18.264
			c-1.638-1.593-3.543-3.294-3.543-3.294L10.401,17.17z"/>
	</g>
</g>
<g id="ic_fortyfivedown">
	<path fill="#36FF00" d="M11.121,20.191c3.212-0.121,7.134-0.173,9.362,0.294l0.002,0.002l0-0.002l0.002,0l-0.002-0.002
		c-0.466-2.229-0.414-6.15-0.294-9.362l-2.687-0.424c0,0-0.145,2.55-0.176,4.834L4.413,2.617L2.617,4.413l12.915,12.915
		c-2.285,0.031-4.834,0.176-4.834,0.176L11.121,20.191z"/>
</g>
<g id="ic_fortyfiveup">
	<path fill="#36FF00" d="M20.191,12.879c-0.121-3.212-0.173-7.134,0.294-9.362l0.002-0.002l-0.002,0l0-0.002l-0.002,0.002
		c-2.229,0.466-6.15,0.414-9.362,0.294l-0.424,2.687c0,0,2.55,0.145,4.834,0.176L2.617,19.587l1.796,1.796L17.328,8.469
		c0.031,2.285,0.176,4.834,0.176,4.834L20.191,12.879z"/>
</g>
</svg>
