<?xml version="1.0" encoding="utf-8"?>
<!DOCTYPE svg PUBLIC "-//W3C//DTD SVG 1.1//EN" "http://www.w3.org/Graphics/SVG/1.1/DTD/svg11.dtd">
<svg version="1.1" id="Layer_1" xmlns="http://www.w3.org/2000/svg" xmlns:xlink="http://www.w3.org/1999/xlink" x="0px" y="0px"
	 width="48px" height="48px" viewBox="0 0 48 48" enable-background="new 0 0 48 48" xml:space="preserve">
<g>
	<ellipse fill="#0FBBE0" cx="24" cy="24" rx="22.031" ry="21.688"/>
	<g>
		<path fill="#FFFFFF" d="M36.136,17.006c0.073,0.633,0.147,1.265,0.11,1.898c-0.055,1.066-0.165,2.133-0.349,3.199
			c-0.257,1.428-0.643,2.801-1.138,4.175c-0.569,1.536-1.285,3-2.075,4.428c-0.698,1.283-1.469,2.494-2.313,3.687
			c-0.643,0.922-1.34,1.825-2.056,2.711c-0.789,0.94-2.442,2.856-3.598,3.958c-0.441,0.416-1.01,0.416-1.432,0
			c-1.157-1.121-2.221-2.331-3.25-3.56c-1.157-1.374-2.221-2.783-3.195-4.265c-0.973-1.464-1.836-2.982-2.589-4.572
			c-0.863-1.825-1.524-3.723-1.983-5.675c-0.147-0.687-0.239-1.392-0.349-2.096c-0.11-0.705-0.129-1.41-0.147-2.151
			c-0.037-0.614,0.018-1.247,0.11-1.843c0.092-0.759,0.275-1.482,0.514-2.205c0.459-1.301,1.12-2.494,2.001-3.578
			c1.248-1.554,2.772-2.765,4.627-3.578c1.083-0.47,2.185-0.813,3.378-0.94c0.551-0.054,1.12-0.127,1.689-0.127
			c1.763,0.036,3.433,0.398,5.03,1.121c1.138,0.524,2.166,1.211,3.121,2.06c1.267,1.121,2.221,2.458,2.938,3.976
			C35.677,14.711,35.989,15.831,36.136,17.006z M33.712,21.181c0.257-1.102,0.496-2.187,0.22-3.325
			c-0.294-1.319-1.028-2.331-2.277-2.91c-1.469-0.687-2.974-0.669-4.425,0.145c-1.377,0.777-2.075,2.024-2.13,3.56
			c-0.055,1.753,0,3.506,0,5.241c0,0.506-0.092,0.596-0.624,0.596c-0.33,0-0.643-0.018-0.973,0.018
			c-0.422,0.036-0.606-0.163-0.606-0.596c0-0.904,0-1.789,0-2.693c0-0.759,0-1.536,0-2.313c0.018-0.38-0.037-0.759-0.129-1.139
			c-0.257-1.139-0.881-2.042-1.891-2.639c-1.046-0.633-2.185-0.777-3.396-0.578c-2.111,0.361-3.488,2.205-3.543,4.211
			c-0.018,0.578,0.092,1.139,0.184,1.717c0.202,1.048,0.569,2.042,1.102,2.946c0.734,1.229,1.652,2.295,2.827,3.127
			c1.542,1.102,3.231,1.753,5.104,1.88c1.212,0.09,2.405-0.018,3.58-0.343c2.056-0.578,3.745-1.663,5.086-3.289
			C32.702,23.729,33.363,22.518,33.712,21.181z M31.197,12.632c0.349,0.072,0.661,0.199,1.01,0.235
			c-1.909-2.602-4.516-4.084-7.766-4.211c-3.617-0.127-6.518,1.337-8.702,4.229c0.092,0,0.11,0.018,0.147,0
			c0.129-0.036,0.239-0.072,0.367-0.108c1.046-0.343,2.13-0.398,3.213-0.253c1.377,0.181,2.589,0.741,3.617,1.681
			c0.275,0.253,0.514,0.542,0.716,0.831c0.11,0.163,0.22,0.307,0.404,0.018c0.312-0.488,0.716-0.904,1.193-1.247
			C27.158,12.524,29.104,12.198,31.197,12.632z M31.601,28.03c-0.569,0.398-1.157,0.759-1.762,1.102
			c-1.707,0.922-3.543,1.374-5.471,1.464c-0.165,0.018-0.239,0.054-0.312,0.199c-0.147,0.289-0.312,0.56-0.477,0.831
			c-0.734,1.265-1.542,2.476-2.387,3.651c-0.11,0.127-0.092,0.181,0,0.289c0.257,0.325,0.532,0.651,0.808,0.976
			c0.624,0.759,1.304,1.482,2.001,2.223C27.084,35.549,29.728,32.061,31.601,28.03z M21.705,30.633
			c0.092-0.163,0.129-0.235-0.147-0.289c-0.955-0.181-1.873-0.488-2.772-0.904c-0.826-0.398-1.616-0.886-2.387-1.41
			c0.9,1.988,2.038,3.831,3.305,5.621c0.165-0.217,0.312-0.416,0.441-0.614C20.695,32.259,21.191,31.428,21.705,30.633z"/>
		<path fill="#FFFFFF" d="M29.6,15c2.111,0.018,3.837,1.681,3.819,3.813c-0.018,2.115-1.671,3.741-3.855,3.759
			c-2.111,0-3.855-1.717-3.837-3.85C25.763,16.662,27.488,14.982,29.6,15z M31.252,18.813c0.037-0.922-0.808-1.771-1.689-1.663
			c-0.826-0.108-1.652,0.759-1.671,1.572c-0.018,0.904,0.789,1.699,1.671,1.717C30.499,20.44,31.234,19.608,31.252,18.813z"/>
		<path fill="#FFFFFF" d="M18.602,15c1.909,0.054,3.672,1.681,3.672,3.759c-0.018,2.205-1.763,3.813-3.874,3.795
			c-2.13,0-3.819-1.663-3.819-3.813C14.582,16.735,16.252,14.927,18.602,15z M18.419,20.44c0.863,0,1.762-0.777,1.671-1.681
			c0.092-0.886-0.826-1.59-1.524-1.627c-1.138-0.054-1.799,0.868-1.818,1.608C16.73,19.681,17.538,20.422,18.419,20.44z"/>
	</g>
	<g>
		<path fill="#010101" d="M38.394,16.066c0.055,0.343,0.184,1.374,0.184,2.512c0,1.283-0.165,2.892-0.257,3.416
			c-0.202,1.464-0.588,2.91-1.046,4.319c-0.624,1.825-1.395,3.597-2.332,5.295c-0.588,1.048-1.193,2.06-1.854,3.054
			c-0.698,1.066-1.45,2.115-2.258,3.109c-0.771,0.958-1.542,1.916-2.35,2.819c-0.275,0.289-0.551,0.578-0.826,0.868
			c-0.514,0.578-0.973,1.048-1.579,1.536c-1.304,1.211-3.213,1.121-4.351-0.145c-0.863-0.831-1.671-1.699-2.46-2.584
			c-0.973-1.121-1.909-2.259-2.791-3.434c-1.322-1.753-2.515-3.578-3.562-5.494c-0.753-1.355-1.377-2.783-1.909-4.265
			c-0.698-1.97-1.267-3.994-1.469-6.109c-0.018-0.253-0.11-1.283-0.11-2.386c0-1.157,0.129-2.096,0.184-2.44
			c0.202-1.374,0.661-2.657,1.267-3.886c0.477-1.012,1.102-1.934,1.818-2.819c0.716-0.831,1.487-1.59,2.35-2.259
			c0.955-0.723,1.983-1.337,3.103-1.807c1.212-0.524,2.479-0.886,3.8-1.066c0.239-0.018,1.102-0.108,2.148-0.108
			c1.322,0,2.644,0.199,3.231,0.343c1.34,0.307,2.625,0.795,3.837,1.464c1.707,0.94,3.158,2.187,4.37,3.687
			c0.863,1.084,1.561,2.277,2.075,3.578C37.953,14.168,38.229,15.108,38.394,16.066z M36.246,18.903
			c0.037-0.633-0.037-1.265-0.11-1.898c-0.147-1.175-0.459-2.295-0.955-3.38c-0.716-1.518-1.671-2.856-2.938-3.976
			c-0.955-0.849-1.983-1.536-3.121-2.06c-1.597-0.723-3.268-1.084-5.03-1.121c-0.569,0-1.138,0.072-1.689,0.127
			c-1.193,0.127-2.295,0.47-3.378,0.94c-1.854,0.813-3.378,2.024-4.627,3.578c-0.881,1.084-1.542,2.277-2.001,3.578
			c-0.239,0.723-0.422,1.446-0.514,2.205c-0.092,0.596-0.147,1.229-0.11,1.843c0.018,0.741,0.037,1.446,0.147,2.151
			c0.11,0.705,0.202,1.41,0.349,2.096c0.459,1.952,1.12,3.85,1.983,5.675c0.753,1.59,1.616,3.109,2.589,4.572
			c0.973,1.482,2.038,2.892,3.195,4.265c1.028,1.229,2.093,2.44,3.25,3.56c0.422,0.416,0.991,0.416,1.432,0
			c1.157-1.102,2.809-3.018,3.598-3.958c0.716-0.886,1.414-1.789,2.056-2.711c0.845-1.193,1.616-2.404,2.313-3.687
			c0.789-1.428,1.505-2.892,2.075-4.428c0.496-1.374,0.881-2.747,1.138-4.175C36.08,21.036,36.191,19.97,36.246,18.903z"/>
		<path fill="#010101" d="M33.932,17.855c0.275,1.139,0.037,2.223-0.22,3.325c-0.349,1.337-1.01,2.548-1.891,3.615
			c-1.34,1.627-3.029,2.711-5.086,3.289c-1.175,0.325-2.368,0.434-3.58,0.343c-1.873-0.127-3.562-0.777-5.104-1.88
			c-1.175-0.831-2.093-1.898-2.827-3.127c-0.532-0.904-0.9-1.898-1.102-2.946c-0.092-0.578-0.202-1.139-0.184-1.717
			c0.055-2.006,1.432-3.85,3.543-4.211c1.212-0.199,2.35-0.054,3.396,0.578c1.01,0.596,1.634,1.5,1.891,2.639
			c0.092,0.38,0.147,0.759,0.129,1.139c0,0.777,0,1.554,0,2.313c0,0.904,0,1.789,0,2.693c0,0.434,0.184,0.633,0.606,0.596
			c0.33-0.036,0.643-0.018,0.973-0.018c0.532,0,0.624-0.09,0.624-0.596c0-1.735-0.055-3.488,0-5.241
			c0.055-1.536,0.753-2.783,2.13-3.56c1.45-0.813,2.956-0.831,4.425-0.145C32.904,15.524,33.639,16.536,33.932,17.855z
			 M33.418,18.813C33.437,16.68,31.711,15.018,29.6,15s-3.837,1.663-3.874,3.723c-0.018,2.133,1.726,3.85,3.837,3.85
			C31.748,22.554,33.4,20.928,33.418,18.813z M22.274,18.759c0-2.078-1.763-3.705-3.672-3.759c-2.35-0.072-4.021,1.735-4.021,3.741
			c0,2.151,1.689,3.813,3.819,3.813C20.512,22.572,22.256,20.964,22.274,18.759z"/>
		<path fill="#010101" d="M32.207,12.867c-0.349-0.036-0.661-0.163-1.01-0.235c-2.093-0.434-4.039-0.108-5.802,1.175
			c-0.477,0.343-0.881,0.759-1.193,1.247c-0.184,0.289-0.294,0.145-0.404-0.018c-0.202-0.289-0.441-0.578-0.716-0.831
			c-1.028-0.94-2.24-1.5-3.617-1.681c-1.083-0.145-2.166-0.09-3.213,0.253c-0.129,0.036-0.239,0.072-0.367,0.108
			c-0.037,0.018-0.055,0-0.147,0c2.185-2.892,5.086-4.356,8.702-4.229C27.69,8.783,30.297,10.265,32.207,12.867z"/>
		<path fill="#010101" d="M29.563,17.15c0.881-0.108,1.726,0.741,1.689,1.663c-0.018,0.795-0.753,1.627-1.689,1.627
			c-0.881-0.018-1.689-0.813-1.671-1.717C27.911,17.909,28.737,17.042,29.563,17.15z"/>
		<path fill="#010101" d="M29.838,29.133c0.606-0.343,1.193-0.705,1.762-1.102c-1.873,4.03-4.516,7.518-7.601,10.735
			c-0.698-0.741-1.377-1.464-2.001-2.223c-0.275-0.325-0.551-0.651-0.808-0.976c-0.092-0.108-0.11-0.163,0-0.289
			c0.845-1.175,1.652-2.386,2.387-3.651c0.165-0.271,0.33-0.542,0.477-0.831c0.073-0.145,0.147-0.181,0.312-0.199
			C26.295,30.506,28.131,30.054,29.838,29.133z"/>
		<path fill="#010101" d="M21.558,30.344c0.275,0.054,0.239,0.127,0.147,0.289c-0.514,0.795-1.01,1.627-1.561,2.404
			c-0.129,0.199-0.275,0.398-0.441,0.614c-1.267-1.789-2.405-3.633-3.305-5.621c0.771,0.524,1.561,1.012,2.387,1.41
			C19.686,29.856,20.604,30.163,21.558,30.344z"/>
		<path fill="#010101" d="M20.089,18.759c0.092,0.904-0.808,1.681-1.671,1.681c-0.881-0.018-1.689-0.759-1.671-1.699
			c0.018-0.741,0.679-1.663,1.818-1.608C19.263,17.168,20.181,17.873,20.089,18.759z"/>
	</g>
</g>
</svg>