<?xml version="1.0" encoding="utf-8"?>
<!-- Generator: Adobe Illustrator 17.0.0, SVG Export Plug-In . SVG Version: 6.00 Build 0)  -->
<!DOCTYPE svg PUBLIC "-//W3C//DTD SVG 1.1//EN" "http://www.w3.org/Graphics/SVG/1.1/DTD/svg11.dtd">
<svg version="1.1" id="Layer_1" xmlns="http://www.w3.org/2000/svg" xmlns:xlink="http://www.w3.org/1999/xlink" x="0px" y="0px"
	 width="24px" height="24px" viewBox="0 0 24 24" enable-background="new 0 0 24 24" xml:space="preserve">
<circle fill="#555555" cx="12" cy="12" r="12"/>
<path fill="#B7B7B7" d="M16.407,2.131c0.068-0.14,0.269-0.181,0.449-0.093l0,0c0.18,0.088,0.271,0.272,0.203,0.412l-4.738,9.696
	c-0.068,0.14-0.269,0.181-0.449,0.093l0,0c-0.18-0.088-0.271-0.272-0.203-0.412L16.407,2.131z"/>
<path fill="#B7B7B7" d="M18.097,9.416c0.147-0.052,0.325,0.076,0.399,0.285l0,0c0.074,0.209,0.014,0.42-0.132,0.472l-6.224,2.193
	c-0.147,0.052-0.325-0.076-0.399-0.285l0,0c-0.074-0.209-0.014-0.42,0.132-0.472L18.097,9.416z"/>
<g>
	<circle fill="#FFFFFF" cx="3.813" cy="12" r="2.414"/>
	<circle fill="#FFFFFF" cx="20.188" cy="12" r="2.414"/>
	<circle fill="#FFFFFF" cx="12" cy="20.188" r="2.414"/>
</g>
</svg>
