<?xml version="1.0" encoding="utf-8"?>
<!DOCTYPE svg PUBLIC "-//W3C//DTD SVG 1.1//EN" "http://www.w3.org/Graphics/SVG/1.1/DTD/svg11.dtd">
<svg version="1.1" id="Layer_1" xmlns="http://www.w3.org/2000/svg" xmlns:xlink="http://www.w3.org/1999/xlink" x="0px" y="0px"
	 width="48px" height="24px" viewBox="0 0 48 24" enable-background="new 0 0 48 24" xml:space="preserve">
<g>
	<path d="M37.578,3.501c0.447,0.001,0.795,0.356,0.789,0.805c-0.005,0.434-0.359,0.781-0.796,0.781
		c-0.441,0-0.797-0.363-0.791-0.807C36.786,3.85,37.145,3.499,37.578,3.501z"/>
	<path d="M38.29,10.163c-0.116-0.066-0.206,0.007-0.275,0.094c-0.112,0.141-0.211,0.292-0.329,0.428
		c-0.2,0.231-0.394,0.474-0.682,0.606c-0.098,0.045-0.213,0.081-0.303,0.006c-0.082-0.067-0.042-0.174-0.025-0.265
		c0.081-0.437,0.269-0.837,0.435-1.244c0.354-0.872,0.685-1.751,0.923-2.663c0.167-0.64-0.046-1.142-0.568-1.352
		c-0.247-0.1-0.506-0.145-0.765-0.088c-0.674,0.148-1.262,0.456-1.725,0.979c-0.289,0.288-0.544,0.602-0.74,0.96
		c-0.033,0.061-0.078,0.137-0.001,0.199c0.071,0.058,0.154,0.043,0.224-0.003c0.049-0.032,0.095-0.075,0.13-0.122
		c0.277-0.37,0.611-0.685,0.962-0.982c0,0,0,0,0,0c0.126-0.043,0.253-0.171,0.385-0.039c0.131,0.131,0.128,0.299,0.074,0.468
		C36,7.17,35.989,7.194,35.979,7.219c-0.465,1.178-0.93,2.356-1.395,3.535c-0.141,0.357-0.234,0.724-0.211,1.111
		c0.026,0.435,0.257,0.685,0.688,0.75c0.305,0.046,0.597-0.021,0.885-0.112c0.849-0.267,1.469-0.847,2.032-1.5
		c0.143-0.166,0.267-0.351,0.351-0.556C38.369,10.349,38.414,10.234,38.29,10.163z"/>
	<path d="M36.771,1.284c-3.971,0-7.191,3.219-7.191,7.191s3.219,7.191,7.191,7.191s7.191-3.219,7.191-7.191
		S40.742,1.284,36.771,1.284z M36.771,15.003c-3.605,0-6.528-2.923-6.528-6.528s2.923-6.528,6.528-6.528s6.528,2.923,6.528,6.528
		S40.376,15.003,36.771,15.003z"/>
</g>
<g>
	
		<rect x="9.749" y="2.184" fill="none" stroke="#000000" stroke-width="0.4819" stroke-linejoin="round" stroke-miterlimit="10" width="15.561" height="19.631"/>
	<g>
		
			<line fill="none" stroke="#000000" stroke-width="0.4819" stroke-linecap="round" stroke-linejoin="round" stroke-miterlimit="10" x1="23.409" y1="4.107" x2="11.65" y2="4.107"/>
		
			<line fill="none" stroke="#000000" stroke-width="0.4819" stroke-linecap="round" stroke-linejoin="round" stroke-miterlimit="10" x1="23.409" y1="6.362" x2="11.65" y2="6.362"/>
		
			<line fill="none" stroke="#000000" stroke-width="0.4819" stroke-linecap="round" stroke-linejoin="round" stroke-miterlimit="10" x1="23.409" y1="10.871" x2="11.65" y2="10.871"/>
		
			<line fill="none" stroke="#000000" stroke-width="0.4819" stroke-linecap="round" stroke-linejoin="round" stroke-miterlimit="10" x1="23.409" y1="8.616" x2="11.65" y2="8.616"/>
		
			<line fill="none" stroke="#000000" stroke-width="0.4819" stroke-linecap="round" stroke-linejoin="round" stroke-miterlimit="10" x1="23.409" y1="13.126" x2="11.65" y2="13.126"/>
		
			<line fill="none" stroke="#000000" stroke-width="0.4819" stroke-linecap="round" stroke-linejoin="round" stroke-miterlimit="10" x1="23.409" y1="15.38" x2="11.65" y2="15.38"/>
		
			<line fill="none" stroke="#000000" stroke-width="0.4819" stroke-linecap="round" stroke-linejoin="round" stroke-miterlimit="10" x1="23.409" y1="19.889" x2="11.65" y2="19.889"/>
		
			<line fill="none" stroke="#000000" stroke-width="0.4819" stroke-linecap="round" stroke-linejoin="round" stroke-miterlimit="10" x1="23.409" y1="17.635" x2="11.65" y2="17.635"/>
	</g>
</g>
</svg>
