<?xml version="1.0" encoding="utf-8"?>
<!-- Generator: Adobe Illustrator 17.0.0, SVG Export Plug-In . SVG Version: 6.00 Build 0)  -->
<!DOCTYPE svg PUBLIC "-//W3C//DTD SVG 1.1//EN" "http://www.w3.org/Graphics/SVG/1.1/DTD/svg11.dtd">
<svg version="1.1" id="Layer_1" xmlns="http://www.w3.org/2000/svg" xmlns:xlink="http://www.w3.org/1999/xlink" x="0px" y="0px"
	 width="24px" height="24px" viewBox="0 0 24 24" enable-background="new 0 0 24 24" xml:space="preserve">
<g>
	<circle fill="#555555" cx="12" cy="12" r="12"/>
</g>
<g>
	<g>
		<path fill="#84C441" d="M7.346,15.22c0.621,0,1.211,0.202,1.707,0.584l0.401-0.519c-0.611-0.472-1.34-0.721-2.108-0.721
			c-1.903,0-3.451,1.546-3.455,3.448H3.359l0.86,1.49l0.86-1.49H4.547C4.551,16.472,5.805,15.22,7.346,15.22z"/>
	</g>
	<g>
		<path fill="#84C441" d="M11.333,18.024l-0.86-1.49l-0.86,1.49h0.532c-0.003,1.541-1.257,2.794-2.798,2.794
			c-0.621,0-1.211-0.202-1.707-0.584l-0.401,0.519c0.611,0.472,1.34,0.721,2.108,0.721c1.903,0,3.452-1.547,3.454-3.45H11.333z"/>
	</g>
</g>
<g>
	<path fill="#84C441" d="M19.268,20.276c0.907-0.978,2.043-2.145,2.834-2.662h0.001l-0.001,0l0.001,0h-0.001
		c-0.791-0.517-1.927-1.684-2.834-2.662l-0.913,0.664c0,0,0.706,0.791,1.367,1.471h-7.581v1.055h7.582
		c-0.661,0.68-1.367,1.471-1.367,1.471L19.268,20.276z"/>
</g>
<g>
	<path fill="#F99D1C" d="M2.62,12.053l0.687,0.217c-0.105,0.383-0.281,0.668-0.525,0.852c-0.245,0.186-0.556,0.28-0.932,0.28
		c-0.466,0-0.849-0.159-1.148-0.478c-0.3-0.318-0.45-0.754-0.45-1.306c0-0.583,0.151-1.036,0.453-1.36
		c0.301-0.322,0.698-0.484,1.189-0.484c0.429,0,0.777,0.127,1.046,0.38c0.159,0.15,0.279,0.366,0.359,0.646l-0.701,0.167
		c-0.042-0.181-0.128-0.325-0.26-0.43c-0.132-0.105-0.291-0.158-0.48-0.158c-0.26,0-0.471,0.092-0.633,0.28
		c-0.162,0.186-0.243,0.489-0.243,0.906c0,0.444,0.08,0.76,0.239,0.947c0.159,0.189,0.367,0.282,0.622,0.282
		c0.188,0,0.35-0.059,0.485-0.18C2.464,12.498,2.561,12.31,2.62,12.053z"/>
	<path fill="#F99D1C" d="M4.412,11.577l-0.61-0.11c0.069-0.245,0.187-0.428,0.354-0.546c0.168-0.118,0.416-0.177,0.746-0.177
		c0.3,0,0.523,0.036,0.67,0.107c0.146,0.072,0.25,0.162,0.31,0.271c0.06,0.109,0.089,0.309,0.089,0.601l-0.007,0.786
		c0,0.223,0.011,0.388,0.032,0.493c0.022,0.107,0.062,0.221,0.121,0.341H5.453c-0.018-0.045-0.039-0.11-0.065-0.199
		c-0.011-0.04-0.019-0.065-0.024-0.078c-0.115,0.112-0.238,0.195-0.368,0.252C4.865,13.372,4.726,13.4,4.578,13.4
		c-0.262,0-0.468-0.072-0.619-0.213c-0.151-0.143-0.226-0.321-0.226-0.538c0-0.144,0.034-0.272,0.103-0.384
		C3.904,12.152,4,12.066,4.124,12.006c0.124-0.059,0.302-0.112,0.535-0.157c0.315-0.059,0.532-0.114,0.653-0.164v-0.068
		c0-0.128-0.032-0.221-0.096-0.276c-0.064-0.055-0.184-0.082-0.361-0.082c-0.119,0-0.213,0.023-0.28,0.071
		C4.508,11.377,4.454,11.459,4.412,11.577z M5.312,12.123c-0.086,0.028-0.223,0.063-0.41,0.103c-0.186,0.04-0.308,0.078-0.366,0.117
		c-0.087,0.063-0.132,0.141-0.132,0.238c0,0.094,0.035,0.175,0.105,0.244c0.071,0.068,0.16,0.103,0.268,0.103
		c0.121,0,0.237-0.04,0.347-0.119c0.082-0.062,0.135-0.135,0.16-0.223c0.017-0.056,0.026-0.167,0.026-0.327V12.123z"/>
	<path fill="#F99D1C" d="M7.278,13.342H6.606v-2.541h0.625v0.361c0.107-0.171,0.203-0.282,0.288-0.336
		c0.085-0.055,0.182-0.082,0.291-0.082c0.153,0,0.3,0.042,0.442,0.127l-0.208,0.587c-0.114-0.074-0.219-0.11-0.316-0.11
		c-0.094,0-0.174,0.026-0.239,0.077c-0.065,0.053-0.117,0.146-0.154,0.281c-0.037,0.136-0.056,0.42-0.056,0.852V13.342z"/>
	<path fill="#F99D1C" d="M8.512,13.342V9.835h0.672v1.263c0.207-0.236,0.453-0.354,0.737-0.354c0.309,0,0.566,0.113,0.768,0.336
		c0.203,0.225,0.304,0.546,0.304,0.965c0,0.434-0.103,0.768-0.31,1.003c-0.207,0.234-0.457,0.352-0.752,0.352
		c-0.145,0-0.288-0.037-0.429-0.109c-0.141-0.073-0.263-0.18-0.365-0.322v0.374H8.512z M9.18,12.018
		c0,0.263,0.041,0.457,0.125,0.583c0.116,0.178,0.271,0.268,0.464,0.268c0.148,0,0.275-0.063,0.379-0.19
		c0.105-0.127,0.157-0.326,0.157-0.6c0-0.29-0.053-0.499-0.158-0.628c-0.105-0.128-0.239-0.193-0.404-0.193
		c-0.161,0-0.295,0.063-0.402,0.187C9.233,11.572,9.18,11.762,9.18,12.018z"/>
	<path fill="#F99D1C" d="M11.297,12.617l0.675-0.103c0.029,0.131,0.087,0.23,0.175,0.298c0.087,0.068,0.211,0.101,0.368,0.101
		c0.174,0,0.304-0.031,0.392-0.095c0.059-0.045,0.089-0.104,0.089-0.18c0-0.051-0.016-0.094-0.048-0.127
		c-0.033-0.031-0.108-0.06-0.225-0.089c-0.542-0.119-0.886-0.229-1.031-0.327c-0.201-0.137-0.302-0.327-0.302-0.571
		c0-0.221,0.087-0.406,0.261-0.556c0.174-0.149,0.444-0.225,0.809-0.225c0.348,0,0.606,0.056,0.775,0.171
		c0.169,0.113,0.285,0.28,0.349,0.502l-0.634,0.117c-0.027-0.099-0.078-0.175-0.154-0.227c-0.076-0.053-0.184-0.078-0.324-0.078
		c-0.177,0-0.304,0.024-0.381,0.073c-0.051,0.036-0.076,0.081-0.076,0.137c0,0.048,0.022,0.089,0.067,0.122
		c0.061,0.045,0.27,0.108,0.628,0.189c0.358,0.081,0.608,0.181,0.75,0.299c0.14,0.119,0.211,0.286,0.211,0.499
		c0,0.234-0.098,0.434-0.292,0.601c-0.194,0.168-0.482,0.252-0.863,0.252c-0.346,0-0.62-0.071-0.822-0.211
		C11.491,13.048,11.359,12.858,11.297,12.617z"/>
</g>
<g>
	<path fill="#40C7F4" d="M15.147,13.375V9.802h0.721v3.572H15.147z"/>
	<path fill="#40C7F4" d="M16.409,11.611c0-0.364,0.054-0.67,0.163-0.917c0.081-0.182,0.192-0.345,0.332-0.49
		c0.14-0.144,0.294-0.251,0.462-0.32c0.222-0.094,0.48-0.141,0.77-0.141c0.526,0,0.948,0.163,1.263,0.489
		c0.316,0.327,0.475,0.781,0.475,1.363c0,0.577-0.157,1.028-0.471,1.353s-0.732,0.489-1.258,0.489c-0.531,0-0.953-0.162-1.267-0.486
		C16.566,12.626,16.409,12.18,16.409,11.611z M17.152,11.586c0,0.405,0.094,0.711,0.28,0.921c0.187,0.208,0.425,0.313,0.713,0.313
		c0.286,0,0.523-0.103,0.707-0.31c0.184-0.208,0.276-0.518,0.276-0.932c0-0.409-0.089-0.715-0.269-0.917
		c-0.179-0.201-0.417-0.302-0.714-0.302c-0.298,0-0.537,0.102-0.719,0.306C17.243,10.868,17.152,11.176,17.152,11.586z"/>
	<path fill="#40C7F4" d="M20.44,9.802h1.427c0.284,0,0.494,0.012,0.633,0.035c0.139,0.024,0.263,0.073,0.373,0.148
		s0.201,0.174,0.275,0.298c0.073,0.124,0.11,0.264,0.11,0.418c0,0.167-0.046,0.32-0.136,0.46s-0.212,0.245-0.366,0.314
		c0.217,0.064,0.384,0.171,0.502,0.324c0.116,0.153,0.175,0.332,0.175,0.539c0,0.162-0.038,0.32-0.114,0.473
		c-0.076,0.154-0.179,0.277-0.31,0.369c-0.131,0.092-0.292,0.148-0.483,0.169c-0.12,0.013-0.411,0.022-0.871,0.025H20.44V9.802z
		 M21.161,10.397v0.826h0.473c0.28,0,0.455-0.005,0.523-0.013c0.124-0.014,0.221-0.058,0.292-0.128
		c0.071-0.071,0.106-0.163,0.106-0.279c0-0.111-0.03-0.2-0.092-0.269c-0.061-0.069-0.152-0.111-0.272-0.126
		c-0.071-0.008-0.277-0.012-0.616-0.012H21.161z M21.161,11.818v0.956h0.668c0.259,0,0.424-0.008,0.494-0.022
		c0.107-0.02,0.195-0.067,0.262-0.143c0.068-0.076,0.102-0.177,0.102-0.303c0-0.107-0.026-0.199-0.078-0.273
		s-0.127-0.129-0.225-0.163c-0.099-0.034-0.313-0.051-0.641-0.051H21.161z"/>
</g>
<g>
	<path fill="#DEDDDD" d="M8.21,8.513H7.142V4.488c-0.39,0.365-0.85,0.635-1.38,0.81V4.329C6.041,4.238,6.344,4.065,6.67,3.81
		s0.551-0.552,0.673-0.891H8.21V8.513z"/>
	<path fill="#DEDDDD" d="M11.9,8.513V7.392H9.619V6.457l2.418-3.538h0.896v3.535h0.692v0.939h-0.692v1.121H11.9z M11.9,6.453V4.549
		l-1.281,1.904H11.9z"/>
	<path fill="#DEDDDD" d="M16.228,8.513V7.392h-2.28V6.457l2.417-3.538h0.897v3.535h0.692v0.939h-0.692v1.121H16.228z M16.228,6.453
		V4.549l-1.281,1.904H16.228z"/>
</g>
</svg>
