<?xml version="1.0" encoding="utf-8"?>
<!-- Generator: Adobe Illustrator 17.0.0, SVG Export Plug-In . SVG Version: 6.00 Build 0)  -->
<!DOCTYPE svg PUBLIC "-//W3C//DTD SVG 1.1//EN" "http://www.w3.org/Graphics/SVG/1.1/DTD/svg11.dtd">
<svg version="1.1" id="Layer_1" xmlns="http://www.w3.org/2000/svg" xmlns:xlink="http://www.w3.org/1999/xlink" x="0px" y="0px"
	 width="24px" height="24px" viewBox="0 0 24 24" enable-background="new 0 0 24 24" xml:space="preserve">
<circle fill="#555555" cx="12" cy="12" r="12"/>
<path fill="#C8C8C8" d="M23.216,7.763v8.474c0.029-0.078,0.058-0.156,0.086-0.235V7.998C23.274,7.919,23.245,7.841,23.216,7.763z"/>
<rect x="16.993" y="1.86" fill="#C8C8C8" width="0.428" height="17.214"/>
<path fill="#C8C8C8" d="M23.045,16.696c0.163-0.382,0.305-0.774,0.428-1.175V8.479c-0.123-0.401-0.265-0.793-0.428-1.175V16.696z"/>
<path fill="#C8C8C8" d="M23.045,16.696c0.163-0.382,0.305-0.774,0.428-1.175V8.479c-0.123-0.401-0.265-0.793-0.428-1.175V16.696z"/>
<path fill="#C8C8C8" d="M4.889,2.35v16.725h0.429V2.033C5.17,2.132,5.032,2.244,4.889,2.35z"/>
<rect x="10.942" y="1.86" fill="#C8C8C8" width="0.427" height="17.214"/>
<g>
	<path fill="#D1D2D3" d="M4.491,20.319c0-0.222,0.023-0.399,0.069-0.534s0.114-0.239,0.203-0.313c0.09-0.073,0.204-0.109,0.34-0.109
		c0.101,0,0.189,0.021,0.265,0.061c0.076,0.04,0.139,0.099,0.188,0.175c0.05,0.076,0.088,0.169,0.117,0.278s0.042,0.257,0.042,0.442
		c0,0.22-0.023,0.396-0.068,0.531c-0.046,0.135-0.113,0.239-0.203,0.313c-0.09,0.073-0.204,0.11-0.341,0.11
		c-0.181,0-0.323-0.065-0.426-0.194C4.553,20.925,4.491,20.671,4.491,20.319z M4.728,20.319c0,0.308,0.036,0.512,0.108,0.613
		c0.072,0.102,0.161,0.152,0.267,0.152s0.195-0.051,0.267-0.153c0.072-0.102,0.108-0.306,0.108-0.612
		c0-0.308-0.036-0.513-0.108-0.614c-0.072-0.101-0.162-0.151-0.269-0.151c-0.106,0-0.19,0.044-0.254,0.134
		C4.768,19.802,4.728,20.012,4.728,20.319z"/>
	<path fill="#D1D2D3" d="M10.791,21.242h-0.2v-1.464c-0.048,0.053-0.111,0.105-0.189,0.158s-0.148,0.092-0.21,0.118v-0.222
		c0.112-0.061,0.209-0.134,0.293-0.22c0.084-0.086,0.143-0.169,0.178-0.25h0.129V21.242z"/>
	<path fill="#D1D2D3" d="M11.886,21.242h-0.2v-1.464c-0.048,0.053-0.111,0.105-0.189,0.158s-0.148,0.092-0.21,0.118v-0.222
		c0.112-0.061,0.209-0.134,0.293-0.22c0.084-0.086,0.143-0.169,0.178-0.25h0.129V21.242z"/>
	<path fill="#D1D2D3" d="M16.768,21.242h-0.199v-1.464c-0.048,0.053-0.111,0.105-0.189,0.158s-0.148,0.092-0.21,0.118v-0.222
		c0.111-0.061,0.209-0.134,0.293-0.22c0.083-0.086,0.143-0.169,0.178-0.25h0.128V21.242z"/>
	<path fill="#D1D2D3" d="M18.331,21.021v0.221h-1.076c-0.001-0.056,0.007-0.108,0.023-0.159c0.027-0.085,0.071-0.168,0.132-0.249
		c0.061-0.082,0.147-0.177,0.262-0.283c0.177-0.167,0.296-0.3,0.358-0.396c0.063-0.098,0.094-0.189,0.094-0.276
		c0-0.092-0.028-0.168-0.085-0.23s-0.131-0.094-0.222-0.094c-0.097,0-0.174,0.033-0.231,0.1s-0.087,0.158-0.088,0.275l-0.205-0.024
		c0.015-0.176,0.067-0.311,0.159-0.402c0.092-0.093,0.215-0.139,0.369-0.139c0.156,0,0.28,0.05,0.371,0.149s0.137,0.223,0.137,0.37
		c0,0.075-0.014,0.148-0.04,0.221s-0.071,0.148-0.133,0.229s-0.164,0.189-0.308,0.329c-0.12,0.116-0.197,0.194-0.231,0.235
		c-0.034,0.042-0.063,0.083-0.084,0.125H18.331z"/>
</g>
<path fill="#3954A3" d="M1.54,6.129v1.763H0.978v2.146H0.174c-0.037,0.227-0.08,0.452-0.104,0.684h1.591V8.576h0.563V5.058
	C1.978,5.403,1.749,5.759,1.54,6.129z"/>
<path fill="#3954A3" d="M10,6.951H7.134v8.574H5.752v-3.9H4.38V3.519L3.467,3.568C3.265,3.772,3.074,3.987,2.887,4.205h0.809v8.104
	h1.373v3.898h2.749V7.635h1.499v9.243h8.115v-0.682H10V6.951z"/>
<path fill="#D52028" d="M0.465,15.277h23.071c0.064-0.225,0.124-0.451,0.175-0.682H0.289C0.34,14.826,0.401,15.052,0.465,15.277z"/>
<path fill="#F5EB11" d="M0.737,7.892C0.654,8.118,0.571,8.344,0.502,8.576h22.995c-0.069-0.232-0.152-0.458-0.234-0.684H0.737z"/>
<path fill="#DFE335" d="M23.968,11.371l-1.383-0.288c-0.938-0.192-1.678-0.345-2.543-0.761l-0.394-0.185
	c-0.285-0.131-0.58-0.267-0.83-0.415c-0.089-0.052-0.187-0.129-0.322-0.236c-0.352-0.275-0.751-0.588-1.258-0.595l-0.3-0.003
	L16.926,9.77l0.301,0.005c0.207,0.003,0.49,0.224,0.743,0.421c0.14,0.109,0.271,0.211,0.399,0.287c0.28,0.165,0.6,0.313,0.911,0.457
	l0.379,0.177c0.964,0.465,1.816,0.64,2.803,0.842l1.524,0.32C23.988,12.185,24,12.094,24,12C24,11.788,23.979,11.581,23.968,11.371z
	"/>
<path fill="#3496CE" d="M23.803,9.889c-0.053-0.296-0.119-0.586-0.193-0.874c-1.782,0.162-3.987,0.269-6.071-0.141l-0.295-0.058
	l-0.168,0.867l0.294,0.057C19.59,10.178,21.938,10.061,23.803,9.889z"/>
<path fill="#56C5CD" d="M21.556,13.262c-0.179-0.132-0.353-0.28-0.537-0.436c-0.412-0.351-0.84-0.714-1.268-0.882l-0.351-0.366
	c-0.732-0.757-1.56-1.615-1.713-2.413l-0.058-0.3l-0.996,0.096l0.058,0.301c0.203,1.054,1.138,2.021,1.963,2.876l0.398,0.408
	l0.138,0.09c0.416,0.185,0.795,0.508,1.163,0.82c0.19,0.161,0.386,0.327,0.583,0.472c0.778,0.574,1.588,1.017,2.347,1.408
	l0.21,0.113c0.088-0.293,0.164-0.591,0.229-0.892C23.011,14.191,22.261,13.781,21.556,13.262z"/>
<g>
	<ellipse fill="#EC9F23" cx="3.673" cy="15.784" rx="0.921" ry="0.848"/>
</g>
<g>
	<ellipse fill="#29ABE2" cx="5.104" cy="16.549" rx="0.921" ry="0.848"/>
</g>
<path fill="#7FC242" d="M13.364,9.36c-0.486,0.284-1.095,0.35-1.74,0.419c-0.736,0.079-1.497,0.161-2.087,0.594
	c-0.313,0.229-0.605,0.458-0.893,0.684C8.078,11.5,7.543,11.918,6.897,12.31c-0.169,0.103-0.306,0.27-0.438,0.432
	c-0.162,0.198-0.315,0.387-0.501,0.433c-0.297,0.076-0.883-0.014-1.354-0.083c-0.232-0.034-0.446-0.066-0.608-0.078
	c-1.145-0.082-2.571-0.188-3.874-0.053c-0.028,0.003-0.046,0.009-0.073,0.012c0.008,0.094,0.008,0.19,0.017,0.283
	c0.031-0.004,0.052-0.011,0.084-0.014c1.277-0.129,2.69-0.027,3.824,0.055c0.157,0.011,0.364,0.042,0.587,0.075
	c0.522,0.077,1.114,0.164,1.464,0.078c0.277-0.069,0.468-0.303,0.652-0.529c0.123-0.149,0.238-0.291,0.366-0.368
	c0.66-0.401,1.201-0.824,1.773-1.273c0.286-0.223,0.576-0.45,0.886-0.678c0.529-0.388,1.251-0.466,1.95-0.541
	c0.646-0.069,1.314-0.141,1.853-0.456c1.377-0.805,2.205-0.816,3.847-0.448l0.063-0.276C15.694,8.494,14.823,8.509,13.364,9.36z"/>
<path fill="#DD9D27" d="M22.332,7.527c0.141-0.082,0.281-0.169,0.422-0.263c0.076-0.05,0.126-0.105,0.196-0.158
	C22.826,6.83,22.7,6.555,22.557,6.29c-0.097,0.081-0.18,0.163-0.291,0.237c-0.124,0.082-0.249,0.159-0.374,0.232
	c-0.47,0.275-0.959,0.501-1.391,0.7c-0.444,0.204-0.902,0.415-1.365,0.686C18.943,8.258,18.749,8.381,18.63,8.5
	c-0.348-0.051-0.776,0.083-1.174,0.207c-0.13,0.041-0.251,0.078-0.328,0.091l-0.296,0.049l0.144,0.872l0.297-0.049
	c0.12-0.021,0.28-0.068,0.47-0.127c0.435-0.135,0.71-0.181,0.854-0.127l0.247-0.013l0.103-0.076
	c0.211-0.157,0.424-0.294,0.635-0.418c0.427-0.25,0.871-0.455,1.318-0.661C21.34,8.045,21.838,7.816,22.332,7.527z"/>
<path fill="#7FC242" d="M15.44,8.422c-0.822,0-1.537,0.221-2.466,0.764c-0.432,0.252-1.011,0.314-1.625,0.38
	c-0.774,0.083-1.575,0.169-2.229,0.65c-0.307,0.225-0.593,0.449-0.9,0.689c-0.557,0.437-1.083,0.849-1.717,1.233
	c-0.212,0.128-0.366,0.317-0.517,0.501c-0.111,0.137-0.25,0.307-0.342,0.329c-0.034,0.009-0.101,0.02-0.221,0.02
	c-0.269,0-0.634-0.053-1.05-0.114c-0.226-0.033-0.434-0.063-0.663-0.08c-0.744-0.053-1.586-0.114-2.446-0.114
	c-0.445,0-0.834,0.021-1.226,0.057c0.018,0.295,0.045,0.586,0.084,0.875c0.349-0.029,0.719-0.048,1.139-0.048
	c0.851,0,1.69,0.061,2.455,0.115c0.145,0.011,0.332,0.039,0.579,0.075C4.66,13.81,5.075,13.87,5.423,13.87
	c0.17,0,0.313-0.014,0.438-0.044c0.375-0.094,0.608-0.38,0.813-0.633c0.101-0.122,0.204-0.249,0.287-0.299
	c0.679-0.412,1.235-0.848,1.828-1.313c0.275-0.215,0.555-0.433,0.853-0.653c0.463-0.339,1.144-0.413,1.805-0.484
	c0.677-0.073,1.376-0.147,1.972-0.495c0.778-0.455,1.367-0.64,2.033-0.64c0.412,0,0.89,0.067,1.597,0.226L17.341,9.6l0.194-0.861
	l-0.293-0.066C16.46,8.497,15.921,8.422,15.44,8.422z"/>
</svg>
