<?xml version="1.0" encoding="utf-8"?>
<!-- Generator: Adobe Illustrator 17.0.0, SVG Export Plug-In . SVG Version: 6.00 Build 0)  -->
<!DOCTYPE svg PUBLIC "-//W3C//DTD SVG 1.1//EN" "http://www.w3.org/Graphics/SVG/1.1/DTD/svg11.dtd">
<svg version="1.1" id="Layer_1" xmlns="http://www.w3.org/2000/svg" xmlns:xlink="http://www.w3.org/1999/xlink" x="0px" y="0px"
	 width="24px" height="24px" viewBox="0 0 24 24" enable-background="new 0 0 24 24" xml:space="preserve">
<circle fill="#555555" cx="12" cy="12" r="12"/>
<g>
	<path fill="#212121" d="M20.398,4.993c0,0.917-0.743,1.66-1.66,1.66H5.288c-0.917,0-1.66-0.743-1.66-1.66l0,0
		c0-0.917,0.743-1.66,1.66-1.66h13.451C19.655,3.333,20.398,4.076,20.398,4.993L20.398,4.993z"/>
	<circle fill="#80C564" cx="5.5" cy="4.993" r="1.354"/>
	<path fill="#FFFFFF" d="M14.875,4.625c0,0.368-0.298,0.667-0.667,0.667H8.521c-0.368,0-0.667-0.298-0.667-0.667l0,0
		c0-0.368,0.298-0.667,0.667-0.667h5.688C14.577,3.958,14.875,4.257,14.875,4.625L14.875,4.625z"/>
</g>
<g>
	<path fill="#212121" d="M23.034,10.49c0,1.45-1.175,2.625-2.625,2.625H3.617c-1.45,0-2.625-1.175-2.625-2.625l0,0
		c0-1.45,1.175-2.625,2.625-2.625h16.792C21.859,7.865,23.034,9.04,23.034,10.49L23.034,10.49z"/>
	<circle fill="#FBAD18" cx="3.646" cy="10.49" r="1.854"/>
	<path fill="#FFFFFF" d="M15.75,10.146c0,0.472-0.382,0.854-0.854,0.854h-7.25c-0.472,0-0.854-0.382-0.854-0.854l0,0
		c0-0.472,0.382-0.854,0.854-0.854h7.25C15.368,9.292,15.75,9.674,15.75,10.146L15.75,10.146z"/>
</g>
<g>
	<path fill="#212121" d="M21.784,16.271c0,1.254-1.017,2.271-2.271,2.271h-15c-1.254,0-2.271-1.017-2.271-2.271l0,0
		C2.242,15.017,3.259,14,4.513,14h15C20.767,14,21.784,15.017,21.784,16.271L21.784,16.271z"/>
	<circle fill="#78CEDB" cx="4.547" cy="16.271" r="1.604"/>
	<path fill="#FFFFFF" d="M16.292,15.938c0,0.38-0.308,0.688-0.687,0.688H7.979c-0.38,0-0.688-0.308-0.688-0.688l0,0
		c0-0.38,0.308-0.688,0.688-0.688h7.625C15.984,15.25,16.292,15.558,16.292,15.938L16.292,15.938z"/>
</g>
<g>
	<path fill="#212121" d="M17.388,20.375H6.638c-0.771,0-1.396,0.625-1.396,1.396c0,0.053,0.01,0.104,0.016,0.155
		c0.735,0.5,1.532,0.912,2.371,1.241h8.743c0.85-0.333,1.656-0.753,2.399-1.262c0.004-0.045,0.014-0.088,0.014-0.134
		C18.784,21,18.159,20.375,17.388,20.375z"/>
	<path fill="#B38FC2" d="M6.714,20.75c-0.587,0-1.063,0.476-1.063,1.063c0,0.144,0.03,0.281,0.082,0.407
		c0.37,0.227,0.753,0.435,1.148,0.622c0.504-0.083,0.895-0.501,0.895-1.029C7.776,21.226,7.3,20.75,6.714,20.75z"/>
	<path fill="#FFFFFF" d="M15.167,21.667c0,0.276-0.224,0.5-0.5,0.5H9.25c-0.276,0-0.5-0.224-0.5-0.5l0,0c0-0.276,0.224-0.5,0.5-0.5
		h5.417C14.943,21.167,15.167,21.391,15.167,21.667L15.167,21.667z"/>
</g>
</svg>
