<?xml version="1.0" encoding="utf-8"?>
<!DOCTYPE svg PUBLIC "-//W3C//DTD SVG 1.1//EN" "http://www.w3.org/Graphics/SVG/1.1/DTD/svg11.dtd">
<svg version="1.1" id="Layer_1" xmlns="http://www.w3.org/2000/svg" xmlns:xlink="http://www.w3.org/1999/xlink" x="0px" y="0px"
	 width="128px" height="128px" viewBox="0 0 128 128" enable-background="new 0 0 128 128" xml:space="preserve">
<g id="Layer_7">
	<g id="Medtrum_2">
		<path fill="#FFFFFF" d="M94.383,15.26H34.367c-16.327,0-29.563,13.3-29.563,29.706v38.687c0,16.406,13.236,29.706,29.563,29.706
			h60.017c16.327,0,29.563-13.3,29.563-29.706V44.965C123.946,28.559,110.71,15.26,94.383,15.26z M56.935,106.393
			c-1.272,0-2.303-1.031-2.303-2.303c0-1.272,1.031-2.303,2.303-2.303c1.272,0,2.303,1.031,2.303,2.303
			C59.238,105.362,58.207,106.393,56.935,106.393z M56.935,26.83c-1.272,0-2.303-1.031-2.303-2.303c0-1.272,1.031-2.303,2.303-2.303
			c1.272,0,2.303,1.031,2.303,2.303C59.238,25.801,58.207,26.83,56.935,26.83z M112.167,73.321V55.296
			c2.428,2.241,3.95,5.448,3.95,9.013S114.595,71.081,112.167,73.321z"/>
		<g>
			<path fill="#E0E0E0" d="M88.268,99.547c5.196-0.229,9.454-0.602,11.926-1.147c8.841-1.951,12.243-6.224,12.243-13.385v-1.263
				V44.865v-1.263c0-7.162-3.402-11.436-12.243-13.385c-2.472-0.546-6.73-0.918-11.926-1.147"/>
		</g>
		<g>
			<path fill="#AAAAAA" d="M88.531,29.079c-19.865-0.79-52.154,0.131-58.579,1.565c-8.285,1.848-12.095,5.194-13.418,12.916
				c-0.606,3.544-0.627,12.306-0.473,20.748c-0.154,8.442-0.134,17.204,0.473,20.75c1.323,7.721,5.133,11.066,13.418,12.916
				c6.425,1.434,38.715,2.355,58.579,1.565"/>
		</g>
		<g>
			<path fill="#EAEAEA" d="M88.268,98.819c5.011-0.224,9.117-0.59,11.502-1.123c8.527-1.911,11.808-6.095,11.808-13.109v-1.237
				V45.267V44.03c0-7.014-3.281-11.199-11.808-13.109c-2.384-0.535-6.491-0.899-11.502-1.123"/>
		</g>
		<path fill="#B2B2B2" d="M88.531,29.807c-19.567-0.774-51.374,0.128-57.702,1.533c-8.161,1.81-11.914,5.087-13.217,12.649
			c-0.597,3.471-0.618,12.052-0.466,20.32c-0.152,8.268-0.132,16.849,0.466,20.321c1.303,7.562,5.056,10.837,13.217,12.649
			c6.329,1.405,38.135,2.306,57.702,1.533"/>
		<g>
			<path fill="#F0F0F0" d="M88.268,97.88c4.751-0.218,8.643-0.573,10.904-1.092c8.084-1.859,11.194-5.929,11.194-12.752v-1.203
				V45.785v-1.203c0-6.823-3.11-10.895-11.194-12.752c-2.261-0.52-6.153-0.874-10.904-1.092"/>
		</g>
		<path fill="#B9B9B9" d="M88.531,30.745c-19.148-0.753-50.274,0.124-56.467,1.491c-7.986,1.761-11.659,4.949-12.934,12.305
			c-0.585,3.377-0.604,11.724-0.456,19.767c-0.149,8.043-0.129,16.39,0.456,19.768c1.275,7.356,4.948,10.542,12.934,12.305
			c6.193,1.367,37.319,2.244,56.467,1.491"/>
		<g>
			<path fill="#F4F4F4" d="M88.268,96.224c4.241-0.207,7.717-0.545,9.735-1.039c7.217-1.767,9.994-5.637,9.994-12.123v-1.144V46.698
				v-1.144c0-6.486-2.777-10.357-9.994-12.123c-2.018-0.495-5.494-0.831-9.735-1.039"/>
		</g>
		<path fill="#BEBEBE" d="M88.531,32.401c-18.728-0.715-49.17,0.118-55.227,1.417c-7.811,1.674-11.403,4.705-12.65,11.698
			c-0.572,3.21-0.591,11.146-0.446,18.792c-0.145,7.646-0.126,15.582,0.446,18.793c1.247,6.993,4.839,10.022,12.65,11.698
			c6.057,1.299,36.499,2.133,55.227,1.417"/>
		<g>
			
				<linearGradient id="SVGID_1_" gradientUnits="userSpaceOnUse" x1="157.3581" y1="-156.2687" x2="184.8192" y2="-156.2687" gradientTransform="matrix(1 0 0 -1 -97.66 -91.96)">
				<stop  offset="0" style="stop-color:#BBBDBF"/>
				<stop  offset="0.1232" style="stop-color:#B5B7B9"/>
				<stop  offset="0.5123" style="stop-color:#B5B7B9"/>
				<stop  offset="0.5764" style="stop-color:#B5B7B9"/>
				<stop  offset="1" style="stop-color:#929497"/>
			</linearGradient>
			<polyline fill="url(#SVGID_1_)" stroke="#9D9DA0" stroke-width="0.4252" stroke-miterlimit="10" points="59.698,75.534 
				76.854,75.534 76.854,74.24 87.159,74.24 87.159,54.379 76.854,54.379 76.854,53.083 59.698,53.083 			"/>
		</g>
		<g>
			<path fill="#D0D2D3" stroke="#A3A3A3" stroke-width="0.4252" stroke-miterlimit="10" d="M90.39,68.37
				c0,1.835-1.432,3.322-3.198,3.322H72.747c-1.766,0-3.198-1.487-3.198-3.322v-8.12c0-1.835,1.432-3.322,3.198-3.322h14.446
				c1.766,0,3.198,1.487,3.198,3.322V68.37z"/>
		</g>
		<g>
			<path fill="#F4F4F4" stroke="#C1C1C1" stroke-width="0.2835" stroke-miterlimit="10" d="M84.165,74.54
				c0,4.387-0.05,4.448,3.627,4.448l0,0c4.387,0,7.945-3.557,7.945-7.945v-13.47c0-4.387-3.557-7.945-7.945-7.945l0,0
				c-3.678,0-3.627,0.102-3.627,4.489V74.54z"/>
		</g>
		<g>
			<g>
				<path fill="#F1F1F2" stroke="#B2B2B2" stroke-width="0.2835" stroke-miterlimit="10" d="M94.571,67.677
					c0,0.834-0.677,1.511-1.511,1.511l0,0c-0.834,0-1.511-0.677-1.511-1.511v-6.735c0-0.834,0.677-1.511,1.511-1.511l0,0
					c0.834,0,1.511,0.677,1.511,1.511V67.677z"/>
			</g>
			<path fill="#231F20" d="M94.291,61.74c0,0.679-0.551,1.231-1.231,1.231l0,0c-0.679,0-1.231-0.551-1.231-1.231l0,0
				c0-0.679,0.551-1.231,1.231-1.231l0,0C93.74,60.51,94.291,61.06,94.291,61.74L94.291,61.74z"/>
		</g>
	</g>
</g>
</svg>
