<?xml version="1.0" encoding="utf-8"?>
<!-- Generator: Adobe Illustrator 17.0.0, SVG Export Plug-In . SVG Version: 6.00 Build 0)  -->
<!DOCTYPE svg PUBLIC "-//W3C//DTD SVG 1.1//EN" "http://www.w3.org/Graphics/SVG/1.1/DTD/svg11.dtd">
<svg version="1.1" id="Layer_1" xmlns="http://www.w3.org/2000/svg" xmlns:xlink="http://www.w3.org/1999/xlink" x="0px" y="0px"
	 width="24px" height="24px" viewBox="0 0 24 24" enable-background="new 0 0 24 24" xml:space="preserve">
<path fill="#010101" d="M12,0C5.6,0,0,5.6,0,12s5.6,12,12,12s12-5.6,12-12S18.4,0,12,0"/>
<path fill="#FFFFFF" d="M7.89,19.226c-0.286,0-0.56-0.09-0.793-0.259c-0.419-0.304-0.625-0.811-0.537-1.321l0.666-3.878
	l-2.818-2.746c-0.371-0.36-0.502-0.891-0.342-1.383C4.222,9.153,4.65,8.793,5.154,8.72l3.894-0.566l1.742-3.528
	c0.212-0.432,0.676-0.701,1.21-0.701s0.997,0.269,1.21,0.701l1.742,3.528l3.893,0.566c0.513,0.074,0.931,0.426,1.09,0.918
	c0.158,0.482,0.024,1.026-0.341,1.383l-2.817,2.746l0.665,3.878c0.087,0.502-0.123,1.021-0.536,1.321
	c-0.231,0.168-0.505,0.258-0.79,0.258l0,0c-0.218,0-0.437-0.054-0.632-0.155L12,17.238l-3.482,1.83
	C8.324,19.171,8.106,19.226,7.89,19.226z M16.033,17.758l-0.72-4.485l3.236-3.154l-4.489-0.701l-2-4.053l-0.026-0.007
	c-0.015,0-0.025,0.005-0.026,0.007l-2.001,4.053l-4.474,0.65l3.221,3.206L7.99,17.727l4.044-2.07L16.033,17.758z"/>
</svg>
