<?xml version="1.0" encoding="utf-8"?>
<!DOCTYPE svg PUBLIC "-//W3C//DTD SVG 1.1//EN" "http://www.w3.org/Graphics/SVG/1.1/DTD/svg11.dtd">
<svg version="1.1" id="Layer_1" xmlns="http://www.w3.org/2000/svg" xmlns:xlink="http://www.w3.org/1999/xlink" x="0px" y="0px"
	 width="24px" height="24px" viewBox="0 0 24 24" enable-background="new 0 0 24 24" xml:space="preserve">
<circle fill="#FFFFFF" cx="12" cy="12" r="12"/>
<g>
	<path d="M13.348,3.699c0.745,0.002,1.326,0.595,1.317,1.344c-0.009,0.725-0.599,1.304-1.329,1.303C12.6,6.346,12.005,5.74,12.015,5
		C12.025,4.282,12.624,3.697,13.348,3.699z"/>
	<path d="M14.535,14.818c-0.193-0.11-0.343,0.011-0.459,0.157c-0.187,0.235-0.352,0.488-0.549,0.714
		c-0.334,0.386-0.658,0.79-1.138,1.011c-0.163,0.075-0.355,0.135-0.506,0.01c-0.136-0.112-0.07-0.29-0.042-0.442
		c0.135-0.729,0.45-1.396,0.726-2.076c0.59-1.454,1.143-2.922,1.54-4.443c0.279-1.068-0.077-1.905-0.948-2.256
		c-0.412-0.166-0.844-0.242-1.276-0.147c-1.124,0.247-2.105,0.761-2.879,1.633c-0.482,0.48-0.907,1.004-1.235,1.602
		c-0.056,0.102-0.13,0.229-0.003,0.332c0.119,0.096,0.257,0.071,0.374-0.005c0.082-0.053,0.158-0.126,0.217-0.204
		c0.463-0.617,1.019-1.143,1.605-1.639l0,0c0.21-0.072,0.422-0.285,0.642-0.066c0.219,0.218,0.214,0.5,0.123,0.781
		c-0.014,0.042-0.033,0.083-0.049,0.124c-0.776,1.966-1.553,3.932-2.327,5.899c-0.235,0.596-0.391,1.208-0.353,1.855
		c0.043,0.726,0.429,1.143,1.149,1.252c0.51,0.077,0.997-0.035,1.477-0.187c1.416-0.446,2.451-1.413,3.39-2.503
		c0.239-0.277,0.446-0.585,0.585-0.928C14.666,15.127,14.742,14.935,14.535,14.818z"/>
</g>
</svg>
