<?xml version="1.0" encoding="utf-8"?>
<svg version="1.1" xmlns="http://www.w3.org/2000/svg" xmlns:xlink="http://www.w3.org/1999/xlink" x="0px" y="0px" width="24px"
	 height="24px" viewBox="0 0 24 24" enable-background="new 0 0 24 24" xml:space="preserve">
<g id="Import_Settings">
	<path fill="#FFFFFF" d="M20.264,12.645c0.028-0.206,0.041-0.42,0.041-0.647c0-0.22-0.014-0.44-0.048-0.647l1.396-1.087
		c0.124-0.096,0.158-0.282,0.083-0.42l-1.321-2.284c-0.083-0.151-0.255-0.199-0.406-0.151l-1.644,0.66
		c-0.344-0.261-0.709-0.482-1.114-0.647l-0.248-1.747c-0.028-0.165-0.165-0.282-0.33-0.282h-2.642c-0.165,0-0.296,0.117-0.323,0.282
		L13.46,7.424c-0.406,0.165-0.777,0.392-1.114,0.647l-1.644-0.66c-0.151-0.055-0.323,0-0.406,0.151L8.982,9.845
		c-0.083,0.144-0.055,0.323,0.083,0.42l1.396,1.087c-0.034,0.206-0.062,0.433-0.062,0.647s0.014,0.44,0.048,0.647l-1.396,1.087
		c-0.124,0.096-0.158,0.282-0.083,0.42l1.321,2.284c0.083,0.151,0.255,0.199,0.406,0.151l1.644-0.66
		c0.344,0.261,0.709,0.482,1.114,0.647l0.248,1.747c0.034,0.165,0.165,0.282,0.33,0.282h2.642c0.165,0,0.303-0.117,0.323-0.282
		l0.248-1.747c0.406-0.165,0.777-0.385,1.114-0.647l1.644,0.66c0.151,0.055,0.323,0,0.406-0.151l1.321-2.284
		c0.083-0.151,0.048-0.323-0.083-0.42L20.264,12.645z M15.352,14.475c-1.362,0-2.476-1.114-2.476-2.476s1.114-2.476,2.476-2.476
		s2.476,1.114,2.476,2.476S16.714,14.475,15.352,14.475z"/>
	<polygon fill="#6AE86D" points="15.038,11.998 10.063,9.868 10.063,11.123 2.167,11.123 2.167,12.873 10.063,12.873 10.063,14.128 
			"/>
</g>
</svg>
