<?xml version="1.0" encoding="utf-8"?>
<svg version="1.1" xmlns="http://www.w3.org/2000/svg" xmlns:xlink="http://www.w3.org/1999/xlink" x="0px" y="0px" width="24px"
	 height="24px" viewBox="0 0 24 24" enable-background="new 0 0 24 24" xml:space="preserve">
<g id="local_x5F_activate">
	<g>
		<path fill="#67DFE8" d="M12.069,20.423c-4.644,0-8.422-3.779-8.422-8.423s3.778-8.422,8.422-8.422S20.492,7.355,20.492,12
			S16.713,20.423,12.069,20.423z M12.069,4.943c-3.891,0-7.057,3.166-7.057,7.057c0,3.891,3.166,7.057,7.057,7.057
			c3.891,0,7.057-3.166,7.057-7.057C19.126,8.109,15.961,4.943,12.069,4.943z"/>
		<path fill="#67DFE8" d="M9.945,16.362c-0.113,0-0.227-0.028-0.33-0.085c-0.217-0.12-0.353-0.349-0.353-0.598V8.32
			c0-0.249,0.135-0.478,0.353-0.598c0.218-0.12,0.485-0.112,0.694,0.021l5.827,3.679c0.198,0.125,0.318,0.343,0.318,0.577
			s-0.12,0.452-0.318,0.577l-5.827,3.679C10.198,16.326,10.072,16.362,9.945,16.362z M10.627,9.559v4.881L14.493,12L10.627,9.559z"
			/>
	</g>
</g>
</svg>
