<?xml version="1.0" encoding="utf-8"?>
<svg version="1.1" xmlns="http://www.w3.org/2000/svg" xmlns:xlink="http://www.w3.org/1999/xlink" x="0px" y="0px" width="24px"
	 height="24px" viewBox="0 0 24 24" enable-background="new 0 0 24 24" xml:space="preserve">
<g id="local_x5F_reset">
	<path fill="#E93057" d="M13.787,4.15c-4.338,0-7.867,3.529-7.867,7.867v5.193l-2.486-2.485c-0.25-0.248-0.653-0.248-0.902,0
		c-0.249,0.249-0.249,0.653,0,0.902l3.575,3.574c0.008,0.008,0.019,0.011,0.028,0.018c0.054,0.048,0.112,0.091,0.18,0.119
		c0.078,0.032,0.161,0.049,0.244,0.049s0.166-0.017,0.244-0.049c0.068-0.028,0.126-0.071,0.18-0.119
		c0.008-0.008,0.019-0.01,0.028-0.018l3.575-3.574c0.249-0.249,0.249-0.653,0-0.902c-0.249-0.248-0.653-0.248-0.902,0l-2.486,2.485
		v-5.193c0-3.635,2.957-6.592,6.591-6.592c3.635,0,6.592,2.957,6.592,6.592c0,1.761-0.686,3.415-1.931,4.66
		c-0.249,0.249-0.249,0.653,0,0.902c0.25,0.248,0.652,0.248,0.902,0c1.485-1.486,2.304-3.461,2.304-5.563
		C21.654,7.68,18.125,4.15,13.787,4.15z"/>
</g>
</svg>
