<?xml version="1.0" encoding="utf-8"?><svg version="1.1" xmlns="http://www.w3.org/2000/svg" xmlns:xlink="http://www.w3.org/1999/xlink" x="0px" y="0px" width="24px"
	 height="24px" viewBox="0 0 24 24" enable-background="new 0 0 24 24" xml:space="preserve">
<g id="loop">
    <path fill="#FFFFFF" d="M12,3.782c1.824,0,3.557,0.593,5.011,1.716l1.177-1.524C16.393,2.588,14.254,1.856,12,1.856
        c-5.587,0-10.132,4.539-10.143,10.124H0.294l2.525,4.373l2.525-4.373H3.783C3.794,7.458,7.475,3.782,12,3.782z"/>
    <path fill="#FFFFFF" d="M23.705,12.014L21.18,7.641l-2.525,4.373h1.561c-0.008,4.525-3.69,8.204-8.217,8.204
        c-1.824,0-3.557-0.593-5.011-1.716l-1.177,1.524c1.794,1.386,3.934,2.118,6.188,2.118c5.589,0,10.135-4.543,10.143-10.13H23.705z"
        />
</g>
</svg>
