<?xml version="1.0" encoding="utf-8"?>
<!DOCTYPE svg PUBLIC "-//W3C//DTD SVG 1.1//EN" "http://www.w3.org/Graphics/SVG/1.1/DTD/svg11.dtd">
<svg version="1.1" id="Layer_1" xmlns="http://www.w3.org/2000/svg" xmlns:xlink="http://www.w3.org/1999/xlink" x="0px" y="0px"
	 width="48px" height="128px" viewBox="0 0 48 128" enable-background="new 0 0 48 128" xml:space="preserve">
<rect display="none" width="48" height="128"/>
<g id="Man">
	<path fill="#EFC3AD" stroke="#000000" stroke-width="0.5669" stroke-miterlimit="10" d="M42.956,67.199
		c-0.18-1.843-0.697-3.67-0.225-5.542c0.042-0.168-0.007-0.366-0.042-0.545c-0.239-1.223-0.279-2.469-0.338-3.703
		c-0.087-1.835-0.047-3.678-0.025-5.517c0.013-1.07-0.069-2.123-0.384-3.145c-0.862-2.797-1.002-6.789-1.002-9.004
		c-0.338-4.834,0.269-10.396-0.783-13.469c-0.534-1.559-1.406-2.686-2.818-3.448c-1.104-0.596-2.35-0.768-3.526-1.151
		c-1.559-0.508-3.161-0.89-4.706-1.439c-2.217-0.787-2.432-2.621-1.402-4.271c0.625-1,1.633-2.772,1.633-4.245
		c0.8-0.157,1.159-4.066,0.371-3.898c-0.102-1.305-0.182-2.979-0.874-4.162C27.633,1.6,24.604,0.422,21.919,1.27
		c-2.289,0.724-3.565,2.234-3.934,4.618c-0.17,1.1-0.063,0.772-0.238,1.932c-0.786-0.069-0.626,3.451,0.124,3.899
		c0.34,1.442,1.355,3.299,2.088,4.258c1.102,1.442,0.296,3.836-1.435,4.359c-2.2,0.664-4.392,1.352-6.599,1.991
		c-2.219,0.642-3.575,2.106-4.276,4.263c-0.306,0.942-0.486,1.875-0.577,2.884c-0.1,1.1-0.003,2.289,0.017,3.386
		c0.046,2.525-0.111,8.129-0.098,8.458c0.098,2.434-0.239,4.81-0.897,7.152c-0.196,0.699-0.388,1.423-0.416,2.142
		c-0.108,2.75,0.032,5.504-0.207,8.257c-0.141,1.629-0.032,3.28-0.041,4.92c-0.002,0.438-0.077,0.87-0.13,1.303
		c-0.145,1.181-0.467,2.346-0.085,3.578c0.627,2.021,1.804,3.496,3.754,4.336c0.357,0.154,0.736,0.245,0.977-0.158
		c0.209-0.35-0.164-0.512-0.333-0.725c-0.137-0.172-0.29-0.343-0.47-0.464c-1.299-0.881-1.099-2.215-1.056-3.493
		c0.01-0.309,0.214-0.625,0.514-0.639c0.402-0.019,0.363,0.37,0.375,0.656c0.01,0.22-0.033,0.45,0.014,0.661
		c0.142,0.628,0.105,1.329,0.68,1.798c0.174,0.142,0.341,0.299,0.583,0.238c0.286-0.072,0.256-0.322,0.255-0.538
		c-0.002-1.288-0.006-2.576-0.02-3.864c-0.002-0.178-0.03-0.37-0.102-0.529c-0.345-0.757-0.715-1.502-1.065-2.257
		c-0.467-1.008-0.519-2.081-0.241-3.12c0.869-3.242,1.829-6.463,2.42-9.771c0.359-2.009,0.774-4.02,0.769-6.075
		c-0.002-0.921,0.213-1.62,0.287-2.684c0.008-0.116,0.019-0.354,0.138-0.473c0.156,0.059,0.214,0.329,0.236,0.49
		c0.111,0.832,0.891,4.91,0.936,6.157c-0.015,1.063,0.028,2.132-0.057,3.19c-0.228,2.822-1.133,6.657-1.919,9.296
		c-0.786,2.639-0.835,4.139-0.915,6.243c-0.152,4.001,0.391,11.566,1.768,18.086c0.318,1.507,0.509,3.02,0.437,4.57
		c-0.059,1.249-0.007,2.502-0.012,3.754c-0.002,0.478,0.041,0.969-0.051,1.432c-0.439,2.213-0.877,4.404-0.662,6.703
		c0.122,1.306,0.137,2.652,0.328,3.936c0.515,3.459,0.931,6.937,1.653,10.367c0.239,1.137,0.205,2.311-0.77,3.281
		c-0.362,0.36-0.711,0.845-0.93,1.344c-0.268,0.61-0.684,1.056-1.267,1.316c-0.893,0.398-1.491,1.177-2.297,1.684
		c-0.252,0.159-0.403,0.389-0.438,0.722c-0.109,1.046,0.373,1.824,1.366,2.11c0.244,0.071,0.51,0.083,0.742,0.179
		c1.412,0.584,2.055,0.471,3.146-0.582c0.342-0.33,0.642-0.707,1.104-0.898c0.383-0.158,0.594-0.436,0.787-0.84
		c0.364-0.762,0.95-1.339,1.862-1.54c1.188-0.261,1.432-0.593,1.376-1.854c-0.049-1.094-0.329-2.173-0.241-3.28
		c0.006-0.07-0.014-0.149-0.043-0.213c-0.751-1.661-0.488-3.434-0.308-5.109c0.284-2.637,1.048-5.208,1.334-7.867
		c0.194-1.804,0.275-3.613,0.072-5.38c-0.211-1.836-0.19-3.574,0.516-5.276c0.916-2.209,1.281-4.49,1.107-6.878
		c-0.177-2.426,0.143-4.831,0.496-7.222c0.389-2.63,0.959-5.233,1.271-7.876c0.032-0.266,0.124-0.498,0.235-0.727
		c0.096-0.199,0.227-0.405,0.493-0.352c0.192,0.039,0.305,0.208,0.345,0.391c0.094,0.428,0.174,0.859,0.247,1.29
		c0.342,2.011,0.72,4.017,1.007,6.036c0.323,2.275,0.805,4.535,0.771,6.853c-0.016,1.104,0.04,2.211-0.019,3.312
		c-0.089,1.655,0.357,3.184,0.943,4.695c0.615,1.586,1.138,3.233,0.777,4.928c-0.451,2.118-0.389,4.227-0.122,6.325
		c0.322,2.528,0.912,5.016,1.405,7.518c0.289,1.469,0.31,3.025-0.022,4.491c-0.35,1.548-0.414,3.107-0.531,4.666
		c-0.071,0.946,0.262,1.352,1.202,1.533c0.665,0.128,1.281,0.388,1.542,0.941c0.569,1.204,1.77,1.696,2.634,2.558
		c0.942,0.941,1.724,0.944,2.945,0.234c0.232-0.135,0.438,0.008,0.605-0.038c0.578-0.158,1.197-0.331,1.407-1.011
		c0.229-0.739,0.03-1.517-0.473-1.9c-0.611-0.465-1.19-0.988-1.854-1.362c-1.002-0.565-1.682-1.39-2.218-2.364
		c-0.145-0.264-0.318-0.497-0.534-0.695c-0.5-0.457-0.645-1.025-0.655-1.686c-0.028-1.846,0.518-3.607,0.749-5.414
		c0.176-1.374,0.486-2.724,0.617-4.107c0.147-1.562,0.397-3.113,0.517-4.682c0.142-1.867,0.271-3.722-0.052-5.582
		c-0.3-1.73-0.597-3.455-0.506-5.234c0.124-2.407-0.23-4.841,0.434-7.216C36.608,79.742,36.9,74.221,36.84,68
		c-0.022-2.246-0.329-5.463-0.731-6.805c-1-3.336-2.187-9.017-2.187-12.783c0-1.753,0.787-7.17,0.996-7.17
		c0.188,0,0.877,4.862,1.177,7.291c0.255,2.068,0.59,4.114,1.157,6.116c0.507,1.79,1.063,3.566,1.592,5.35
		c0.165,0.556,0.471,1.122,0.319,1.699c-0.268,1.014-0.384,2.089-1.061,2.97c-0.192,0.25-0.339,0.594-0.363,0.905
		c-0.12,1.605-0.195,3.214-0.282,4.821c-0.015,0.272,0.04,0.547,0.313,0.65c0.31,0.117,0.439-0.149,0.585-0.367
		c0.247-0.368,0.452-0.725,0.452-1.206c0-0.468,0.125-0.938,0.212-1.404c0.034-0.184,0.144-0.352,0.339-0.393
		c0.233-0.049,0.289,0.168,0.39,0.312c0.531,0.757,0.126,1.559,0.067,2.328c-0.041,0.534-0.296,1.05-0.875,1.311
		c-0.384,0.174-0.599,0.532-0.742,0.922c-0.091,0.249-0.153,0.526,0.078,0.712c0.197,0.159,0.409-0.005,0.614-0.085
		c1.857-0.727,3.121-1.998,3.654-3.948C42.725,68.56,43.025,67.907,42.956,67.199z"/>
	<g>
		<g>
			<path fill="#EF6A4C" stroke="#000000" stroke-width="0.2835" stroke-miterlimit="10" d="M14.105,84.729
				c0.207,0.31,1.338,0.342,1.863,0.34c2.298-0.007,3.185-0.484,3.206-1.896c0.019-1.294,0.159-2.904,0.311-4.468
				c-2.323-0.042-4.624-0.116-6.9-0.22C13.047,81.304,13.711,84.139,14.105,84.729z"/>
			<path fill="#EF6A4C" stroke="#000000" stroke-width="0.2835" stroke-miterlimit="10" d="M17.014,71.793
				c-1.386-0.1-3.983-0.288-4.726,0.521c-0.434,0.473-0.172,3.314,0.296,6.171c2.276,0.105,4.577,0.179,6.9,0.22
				c0.172-1.775,0.36-3.491,0.404-4.618C19.951,72.459,19.376,71.963,17.014,71.793z"/>
		</g>
		<g>
			<path fill="#EF6A4C" stroke="#000000" stroke-width="0.2835" stroke-miterlimit="10" d="M28.826,83.173
				c0.021,1.412,0.907,1.888,3.206,1.896c0.525,0.002,1.655-0.031,1.863-0.34c0.395-0.59,1.058-3.424,1.521-6.244
				c-2.276,0.105-4.577,0.179-6.9,0.22C28.667,80.269,28.807,81.879,28.826,83.173z"/>
			<path fill="#EF6A4C" stroke="#000000" stroke-width="0.2835" stroke-miterlimit="10" d="M35.712,72.314
				c-0.742-0.81-3.339-0.621-4.726-0.521c-2.362,0.17-2.938,0.666-2.875,2.294c0.044,1.127,0.231,2.843,0.404,4.618
				c2.323-0.042,4.624-0.116,6.9-0.22C35.884,75.628,36.146,72.788,35.712,72.314z"/>
		</g>
	</g>
	<g>
		<g>
			<path fill="#EF6A4C" stroke="#000000" stroke-width="0.2835" stroke-miterlimit="10" d="M14.105,84.729
				c0.207,0.31,1.338,0.342,1.863,0.34c2.298-0.007,3.185-0.484,3.206-1.896c0.019-1.294,0.159-2.904,0.311-4.468
				c-2.323-0.042-4.624-0.116-6.9-0.22C13.047,81.304,13.711,84.139,14.105,84.729z"/>
			<path fill="#EF6A4C" stroke="#000000" stroke-width="0.2835" stroke-miterlimit="10" d="M17.014,71.793
				c-1.386-0.1-3.983-0.288-4.726,0.521c-0.434,0.473-0.172,3.314,0.296,6.171c2.276,0.105,4.577,0.179,6.9,0.22
				c0.172-1.775,0.36-3.491,0.404-4.618C19.951,72.459,19.376,71.963,17.014,71.793z"/>
		</g>
		<g>
			<path fill="#EF6A4C" stroke="#000000" stroke-width="0.2835" stroke-miterlimit="10" d="M28.826,83.173
				c0.021,1.412,0.907,1.888,3.206,1.896c0.525,0.002,1.655-0.031,1.863-0.34c0.395-0.59,1.058-3.424,1.521-6.244
				c-2.276,0.105-4.577,0.179-6.9,0.22C28.667,80.269,28.807,81.879,28.826,83.173z"/>
			<path fill="#EF6A4C" stroke="#000000" stroke-width="0.2835" stroke-miterlimit="10" d="M35.712,72.314
				c-0.742-0.81-3.339-0.621-4.726-0.521c-2.362,0.17-2.938,0.666-2.875,2.294c0.044,1.127,0.231,2.843,0.404,4.618
				c2.323-0.042,4.624-0.116,6.9-0.22C35.884,75.628,36.146,72.788,35.712,72.314z"/>
		</g>
	</g>
	<g>
		<path fill="#EF6A4C" stroke="#000000" stroke-width="0.2835" stroke-miterlimit="10" d="M7.071,29.482
			c-0.099,1.097-0.002,2.283,0.018,3.377c0.035,1.937-0.049,5.683-0.084,7.473c1.456-0.051,1.801-0.409,1.801-1.653
			c0-2.724,0.048-5.132-0.034-7.813C8.737,29.764,8.584,29.523,7.071,29.482z"/>
		<path fill="#EF6A4C" stroke="#000000" stroke-width="0.2835" stroke-miterlimit="10" d="M40.716,29.487
			c-1.362,0.055-1.501,0.317-1.534,1.38c-0.082,2.681-0.034,5.089-0.034,7.813c0,1.242,0.344,1.601,1.796,1.653
			c-0.002-0.207-0.004-0.406-0.004-0.59C40.7,36.306,40.937,32.503,40.716,29.487z"/>
	</g>
	<g>
		<path fill="#EF6A4C" stroke="#000000" stroke-width="0.2835" stroke-miterlimit="10" d="M26.202,55.344
			c0.003,0.046,0.007,0.092,0.007,0.139c0,1.22-0.989,2.209-2.209,2.209v3.864c3.156,0,6.189-0.129,9.023-0.364
			c-0.54-1.868-0.955-3.942-1.219-6.16C29.968,55.192,28.099,55.298,26.202,55.344z"/>
		<path fill="#EF6A4C" stroke="#000000" stroke-width="0.2835" stroke-miterlimit="10" d="M31.804,55.031
			c0.264,2.218,0.679,4.293,1.219,6.16c1.026-0.085,2.028-0.183,2.998-0.296c-0.491-1.689-1.018-3.904-1.42-6.154
			C33.678,54.853,32.745,54.949,31.804,55.031z"/>
		<path fill="#EF6A4C" stroke="#000000" stroke-width="0.2835" stroke-miterlimit="10" d="M31.501,47.844
			c-2.389-0.162-4.904-0.248-7.501-0.248v5.679c1.173,0,2.13,0.915,2.202,2.07c1.898-0.046,3.766-0.152,5.603-0.313
			c-0.213-1.796-0.328-3.685-0.328-5.636C31.476,48.873,31.485,48.356,31.501,47.844z"/>
		<path fill="#EF6A4C" stroke="#000000" stroke-width="0.2835" stroke-miterlimit="10" d="M33.931,48.038
			c-0.794-0.073-1.604-0.138-2.43-0.194c-0.016,0.512-0.025,1.029-0.025,1.551c0,1.951,0.115,3.841,0.328,5.636
			c0.941-0.082,1.874-0.178,2.796-0.289c-0.4-2.237-0.679-4.507-0.679-6.33C33.922,48.301,33.925,48.176,33.931,48.038z"/>
		<path fill="#EF6A4C" stroke="#000000" stroke-width="0.2835" stroke-miterlimit="10" d="M21.791,55.483
			c0-0.047,0.004-0.093,0.007-0.139c-1.898-0.046-3.766-0.152-5.603-0.313c-0.264,2.218-0.679,4.292-1.219,6.16
			c2.835,0.235,5.867,0.364,9.023,0.364v-3.864C22.78,57.691,21.791,56.703,21.791,55.483z"/>
		<path fill="#EF6A4C" stroke="#000000" stroke-width="0.2835" stroke-miterlimit="10" d="M11.89,60.7
			c-0.018,0.062-0.034,0.12-0.052,0.18c1.014,0.119,2.063,0.222,3.139,0.311c0.54-1.868,0.955-3.942,1.219-6.16
			c-0.962-0.084-1.915-0.182-2.858-0.297C12.946,56.827,12.394,59.008,11.89,60.7z"/>
		<path fill="#EF6A4C" stroke="#000000" stroke-width="0.2835" stroke-miterlimit="10" d="M16.524,49.395
			c0,1.951-0.115,3.841-0.328,5.636c1.836,0.161,3.705,0.267,5.603,0.313c0.072-1.155,1.029-2.07,2.202-2.07v-5.679
			c-2.598,0-5.111,0.088-7.501,0.249C16.515,48.357,16.524,48.874,16.524,49.395z"/>
		<path fill="#EF6A4C" stroke="#000000" stroke-width="0.2835" stroke-miterlimit="10" d="M13.858,48.058
			c0.004,0.056,0.007,0.109,0.009,0.156c-0.015,1.063,0.028,2.132-0.057,3.19c-0.082,1.014-0.252,2.159-0.472,3.331
			c0.943,0.114,1.896,0.213,2.858,0.297c0.213-1.796,0.328-3.685,0.328-5.636c0-0.521-0.009-1.038-0.025-1.55
			C15.601,47.906,14.718,47.976,13.858,48.058z"/>
	</g>
	<g>
		
			<ellipse transform="matrix(0.9975 0.071 -0.071 0.9975 1.8651 -1.281)" fill="#EE694C" stroke="#000000" stroke-width="0.2835" stroke-miterlimit="10" cx="18.943" cy="25.581" rx="3.989" ry="2.16"/>
		
			<ellipse transform="matrix(-0.9975 0.071 -0.071 -0.9975 59.8587 49.0331)" fill="#EE694C" stroke="#000000" stroke-width="0.2835" stroke-miterlimit="10" cx="29.057" cy="25.581" rx="3.989" ry="2.16"/>
	</g>
</g>
</svg>
