<?xml version="1.0" encoding="utf-8"?>
<!DOCTYPE svg PUBLIC "-//W3C//DTD SVG 1.1//EN" "http://www.w3.org/Graphics/SVG/1.1/DTD/svg11.dtd">
<svg version="1.1" id="Layer_1" xmlns="http://www.w3.org/2000/svg" xmlns:xlink="http://www.w3.org/1999/xlink" x="0px" y="0px"
	 width="48px" height="128px" viewBox="0 0 48 128" enable-background="new 0 0 48 128" xml:space="preserve">
<rect display="none" width="48" height="128"/>
<g id="Man_Back">
	<path display="inline" fill="#EFC3AD" stroke="#000000" stroke-width="0.5669" stroke-miterlimit="10" d="M42.701,65.091
		c-0.053-0.433-0.128-0.865-0.13-1.303c-0.009-1.641,0.1-3.291-0.041-4.92c-0.239-2.753-0.099-5.506-0.207-8.257
		c-0.028-0.719-0.219-1.443-0.416-2.142c-0.658-2.341-0.995-4.717-0.897-7.152c0.013-0.329-0.144-5.933-0.098-8.458
		c0.02-1.097,0.117-2.286,0.017-3.386c-0.092-1.009-0.271-1.942-0.577-2.884c-0.701-2.157-2.057-3.621-4.276-4.263
		c-2.207-0.638-4.4-1.327-6.599-1.991c-1.732-0.523-2.537-2.916-1.435-4.359c0.732-0.959,1.747-2.816,2.088-4.258
		c0.749-0.448,0.91-3.967,0.124-3.899c-0.175-1.16-0.068-0.832-0.238-1.932c-0.369-2.384-1.645-3.894-3.934-4.618
		c-2.685-0.849-5.713,0.33-6.916,2.388c-0.691,1.183-0.771,2.857-0.874,4.162c-0.789-0.167-0.429,3.742,0.371,3.898
		c0,1.473,1.008,3.245,1.633,4.245c1.03,1.649,0.815,3.484-1.402,4.271c-1.546,0.548-3.147,0.931-4.706,1.439
		c-1.175,0.383-2.421,0.555-3.526,1.151c-1.411,0.762-2.284,1.889-2.818,3.448C6.79,29.346,7.398,34.908,7.06,39.742
		c0,2.215-0.14,6.207-1.002,9.004c-0.315,1.022-0.397,2.075-0.384,3.145c0.022,1.839,0.062,3.681-0.025,5.517
		c-0.059,1.234-0.099,2.48-0.338,3.703c-0.035,0.179-0.084,0.377-0.042,0.545c0.472,1.872-0.045,3.699-0.225,5.542
		c-0.069,0.708,0.23,1.361,0.412,2.028c0.533,1.95,1.797,3.221,3.654,3.948c0.205,0.08,0.417,0.244,0.614,0.085
		c0.231-0.186,0.169-0.463,0.078-0.712c-0.143-0.39-0.358-0.749-0.742-0.922c-0.579-0.262-0.834-0.777-0.875-1.311
		c-0.059-0.769-0.464-1.57,0.067-2.328c0.101-0.144,0.157-0.362,0.39-0.312c0.195,0.041,0.305,0.209,0.339,0.393
		c0.087,0.466,0.211,0.936,0.212,1.404c0,0.481,0.205,0.838,0.452,1.206c0.146,0.218,0.275,0.484,0.585,0.367
		c0.273-0.103,0.328-0.378,0.313-0.65c-0.088-1.608-0.162-3.216-0.282-4.821c-0.023-0.312-0.17-0.655-0.363-0.905
		c-0.677-0.881-0.793-1.956-1.061-2.97c-0.152-0.577,0.154-1.142,0.319-1.699c0.528-1.784,1.085-3.56,1.592-5.35
		c0.568-2.003,0.902-4.048,1.157-6.116c0.3-2.429,0.989-7.291,1.177-7.291c0.209,0,0.996,5.417,0.996,7.17
		c0,3.766-1.188,9.446-2.187,12.783c-0.402,1.342-0.709,4.559-0.731,6.805c-0.06,6.221,0.231,11.741,1.627,17.012
		c0.664,2.375,0.31,4.809,0.434,7.216c0.091,1.779-0.205,3.504-0.506,5.234c-0.323,1.861-0.194,3.715-0.052,5.582
		c0.12,1.569,0.37,3.119,0.517,4.682c0.13,1.383,0.441,2.733,0.617,4.107c0.133,1.039,0.37,2.064,0.542,3.098
		c0.005,0.03,0.007,0.059,0.012,0.089c0.19,1.106-0.306,2.289-1.394,3.041c-1.142,0.79-2.314,1.525-3.672,1.901
		c-0.316,0.088-0.643,0.175-0.927,0.331c-0.252,0.138-0.49,0.357-0.442,0.703c0.049,0.353,0.323,0.42,0.624,0.512
		c0.754,0.228,1.531,0.135,2.29,0.23c1.963,0.245,3.935,0.336,5.907,0.397c1.333,0.041,1.899-0.62,1.986-1.94
		c0.066-1.005-0.309-1.96-0.271-2.951c0.03-0.772-0.047-1.543-0.045-2.314c-0.077-1.021-0.008-2.057,0.188-3.053
		c0.493-2.502,1.083-4.99,1.405-7.518c0.267-2.098,0.329-4.207-0.122-6.325c-0.361-1.695,0.162-3.341,0.777-4.928
		c0.586-1.512,1.032-3.04,0.943-4.695c-0.059-1.101-0.003-2.208-0.019-3.312c-0.034-2.317,0.448-4.577,0.771-6.853
		c0.287-2.019,0.665-4.025,1.007-6.036c0.073-0.432,0.154-0.863,0.247-1.29c0.04-0.184,0.153-0.353,0.345-0.391
		c0.266-0.053,0.397,0.153,0.493,0.352c0.111,0.229,0.204,0.46,0.235,0.727c0.313,2.643,0.882,5.246,1.271,7.876
		c0.354,2.391,0.673,4.796,0.496,7.222c-0.174,2.388,0.191,4.669,1.107,6.878c0.706,1.702,0.727,3.44,0.516,5.276
		c-0.203,1.767-0.122,3.577,0.072,5.38c0.286,2.658,1.05,5.229,1.334,7.867c0.099,0.922,0.223,1.875,0.189,2.821
		c-0.01,0.202,0.006,0.379,0.003,0.57c-0.027,1.524-0.117,3.051-0.353,4.577c-0.028,0.179-0.026,0.372,0.006,0.551
		c0.116,0.652,0.401,1.134,1.106,1.357c0.548,0.173,1.112,0.265,1.624,0.131c0.914-0.241,1.826-0.133,2.737-0.18
		c1.533-0.08,3.061-0.206,4.581-0.429c0.352-0.051,0.701-0.105,0.721-0.518c0.018-0.378-0.126-0.747-0.575-0.809
		c-1.248-0.172-2.215-0.948-3.263-1.53c-1.099-0.611-2.452-1.347-2.541-2.78c-0.019-0.313-0.023-0.557,0.025-0.938h0.001
		c0.511-3.073,1.009-6.337,1.481-9.508c0.191-1.284,0.206-2.63,0.328-3.936c0.215-2.299-0.223-4.49-0.662-6.703
		c-0.092-0.462-0.049-0.954-0.051-1.432c-0.005-1.251,0.047-2.505-0.012-3.754c-0.073-1.55,0.118-3.064,0.437-4.57
		c1.377-6.52,1.92-14.084,1.768-18.086c-0.08-2.104-0.129-3.604-0.915-6.243c-0.786-2.639-1.691-6.474-1.919-9.296
		c-0.085-1.058-0.042-2.126-0.057-3.19c0.045-1.247,0.825-5.325,0.936-6.157c0.021-0.161,0.08-0.431,0.236-0.49
		c0.119,0.119,0.13,0.357,0.138,0.473c0.074,1.064,0.29,1.763,0.287,2.684c-0.005,2.055,0.41,4.065,0.769,6.075
		c0.59,3.309,1.551,6.529,2.42,9.771c0.278,1.039,0.226,2.112-0.241,3.12c-0.35,0.755-0.72,1.5-1.065,2.257
		c-0.073,0.16-0.1,0.352-0.102,0.529c-0.014,1.288-0.017,2.576-0.02,3.864c0,0.215-0.031,0.465,0.255,0.538
		c0.242,0.061,0.409-0.096,0.583-0.238c0.575-0.469,0.538-1.169,0.68-1.798c0.048-0.21,0.004-0.44,0.014-0.661
		c0.013-0.286-0.027-0.674,0.375-0.656c0.3,0.014,0.504,0.33,0.514,0.639c0.043,1.278,0.243,2.612-1.056,3.493
		c-0.18,0.122-0.333,0.293-0.47,0.464c-0.169,0.213-0.542,0.375-0.333,0.725c0.241,0.403,0.62,0.312,0.977,0.158
		c1.95-0.84,3.128-2.316,3.754-4.336C43.168,67.437,42.846,66.273,42.701,65.091z"/>
	<g display="inline">
		<path fill="#EE694C" stroke="#000000" stroke-width="0.2835" stroke-miterlimit="10" d="M12.175,37.936
			c0,1.801-0.29,2.754-1.449,2.754c-0.657,0-1.232-0.123-1.815-0.168c-0.849-0.066-1.341-0.564-1.176-2.307
			c0.203-2.149-0.038-6.275,0.102-7.509c0.121-1.067,0.515-1.41,1.399-1.41c0.68,0,0.986,0.045,2.034,0.045
			c0.906,0,1.127,0.762,1.127,2.046C12.396,32.589,12.175,36.698,12.175,37.936z"/>
		<path fill="#EE694C" stroke="#000000" stroke-width="0.2835" stroke-miterlimit="10" d="M35.825,37.936
			c0,1.801,0.29,2.754,1.449,2.754c0.657,0,1.232-0.123,1.815-0.168c0.849-0.066,1.341-0.564,1.176-2.307
			c-0.203-2.149,0.038-6.275-0.102-7.509c-0.121-1.067-0.515-1.41-1.399-1.41c-0.68,0-0.986,0.045-2.034,0.045
			c-0.906,0-1.127,0.762-1.127,2.046C35.604,32.589,35.825,36.698,35.825,37.936z"/>
	</g>
	<g display="inline">
		<path fill="#EF6A4C" stroke="#000000" stroke-width="0.2835" stroke-miterlimit="10" d="M11.645,78.96
			c0.252,2.068,0.62,4.078,1.143,6.052c0.026,0.092,0.047,0.184,0.07,0.276c0.634-0.157,1.154-0.387,1.147-1.192
			c-0.014-1.737-0.02-3.474-0.021-5.211C13.219,78.929,12.437,78.953,11.645,78.96z"/>
		<path fill="#EF6A4C" stroke="#000000" stroke-width="0.2835" stroke-miterlimit="10" d="M14,73.748
			c0.004-0.609-0.309-0.838-0.894-0.954c-0.633-0.125-1.27-0.151-1.91-0.154c0.062,2.179,0.199,4.278,0.448,6.32
			c0.793-0.007,1.574-0.031,2.339-0.075C13.984,77.173,13.989,75.46,14,73.748z"/>
		<path fill="#EF6A4C" stroke="#000000" stroke-width="0.2835" stroke-miterlimit="10" d="M33.995,84.096
			c-0.007,0.83,0.546,1.049,1.206,1.207c0.018-0.091,0.036-0.183,0.055-0.274c0.416-1.971,0.755-4.036,1.023-6.07
			c-0.767-0.01-1.523-0.035-2.264-0.079C34.016,80.619,34.009,82.358,33.995,84.096z"/>
		<path fill="#EF6A4C" stroke="#000000" stroke-width="0.2835" stroke-miterlimit="10" d="M34.894,72.794
			c-0.585,0.116-0.897,0.344-0.894,0.954c0.01,1.711,0.016,3.421,0.016,5.132c0.741,0.044,1.497,0.069,2.264,0.079
			c0.289-2.197,0.494-4.356,0.62-6.319C36.228,72.641,35.559,72.663,34.894,72.794z"/>
	</g>
	<g display="inline">
		<path fill="#EF6A4C" stroke="#000000" stroke-width="0.2835" stroke-miterlimit="10" d="M12.842,61.903
			c0.129-1.13,0.567-3.081,1.318-4.021c1.152-1.441,1.591-1.672,5.308-1.04s3.465,3.887,2.844,7.627
			c-0.469,2.826-6.135,3.293-8.548,1.317C12.796,64.994,12.695,63.268,12.842,61.903z"/>
		<path fill="#EF6A4C" stroke="#000000" stroke-width="0.2835" stroke-miterlimit="10" d="M35.158,61.903
			c-0.129-1.13-0.567-3.081-1.318-4.021c-1.152-1.441-1.591-1.672-5.308-1.04s-3.465,3.887-2.844,7.627
			c0.469,2.826,6.135,3.293,8.548,1.317C35.204,64.994,35.305,63.268,35.158,61.903z"/>
	</g>
</g>
</svg>
