<?xml version="1.0" encoding="utf-8"?>
<!-- Generator: Adobe Illustrator 17.0.0, SVG Export Plug-In . SVG Version: 6.00 Build 0)  -->
<!DOCTYPE svg PUBLIC "-//W3C//DTD SVG 1.1//EN" "http://www.w3.org/Graphics/SVG/1.1/DTD/svg11.dtd">
<svg version="1.1" id="Layer_1" xmlns="http://www.w3.org/2000/svg" xmlns:xlink="http://www.w3.org/1999/xlink" x="0px" y="0px"
	 width="128px" height="128px" viewBox="0 0 128 128" enable-background="new 0 0 128 128" xml:space="preserve">
<g id="Layer_7">
	<g id="Medtrum_2">
		<path fill="#FFFFFF" d="M86.641,26.993H41.359c-12.318,0-22.305,10.035-22.305,22.413v29.189c0,12.378,9.987,22.413,22.305,22.413
			h45.282c12.318,0,22.305-10.035,22.305-22.413V49.406C108.946,37.027,98.96,26.993,86.641,26.993z M58.387,95.752
			c-0.959,0-1.737-0.778-1.737-1.737s0.778-1.737,1.737-1.737s1.737,0.778,1.737,1.737C60.124,94.974,59.346,95.752,58.387,95.752z
			 M58.387,35.723c-0.959,0-1.737-0.778-1.737-1.737s0.778-1.737,1.737-1.737s1.737,0.778,1.737,1.737
			C60.124,34.946,59.346,35.723,58.387,35.723z M100.059,70.8V57.2c1.832,1.691,2.98,4.11,2.98,6.8S101.891,69.11,100.059,70.8z"/>
		<g>
			<path fill="#E0E0E0" d="M82.027,90.587c3.92-0.173,7.133-0.454,8.998-0.865c6.671-1.472,9.237-4.696,9.237-10.099V78.67V49.33
				v-0.953c0-5.404-2.567-8.628-9.237-10.099c-1.865-0.412-5.078-0.692-8.998-0.865"/>
		</g>
		<g>
			<path fill="#AAAAAA" d="M82.226,37.419c-14.988-0.596-39.35,0.099-44.198,1.181c-6.251,1.395-9.126,3.919-10.124,9.745
				c-0.458,2.674-0.473,9.285-0.357,15.655c-0.116,6.37-0.101,12.981,0.357,15.656c0.998,5.826,3.873,8.349,10.124,9.745
				c4.847,1.082,29.21,1.777,44.198,1.181"/>
		</g>
		<g>
			<path fill="#EAEAEA" d="M82.027,90.038c3.781-0.169,6.879-0.445,8.678-0.847c6.434-1.442,8.909-4.599,8.909-9.891v-0.933V49.633
				V48.7c0-5.292-2.475-8.45-8.909-9.891c-1.799-0.404-4.897-0.678-8.678-0.847"/>
		</g>
		<path fill="#B2B2B2" d="M82.226,37.969c-14.763-0.584-38.761,0.097-43.536,1.156c-6.157,1.366-8.989,3.838-9.972,9.543
			c-0.451,2.619-0.466,9.093-0.351,15.331c-0.115,6.238-0.099,12.712,0.351,15.332c0.983,5.705,3.815,8.176,9.972,9.543
			c4.775,1.06,28.773,1.74,43.536,1.156"/>
		<g>
			<path fill="#F0F0F0" d="M82.027,89.33c3.584-0.165,6.521-0.433,8.227-0.824c6.099-1.403,8.446-4.474,8.446-9.622v-0.908V50.024
				v-0.908c0-5.148-2.347-8.22-8.446-9.622c-1.706-0.393-4.643-0.66-8.227-0.824"/>
		</g>
		<path fill="#B9B9B9" d="M82.226,38.677c-14.447-0.568-37.931,0.094-42.604,1.125c-6.026,1.329-8.796,3.734-9.759,9.284
			c-0.441,2.548-0.456,8.846-0.344,14.914c-0.112,6.068-0.097,12.366,0.344,14.915c0.962,5.55,3.733,7.954,9.759,9.284
			c4.673,1.031,28.157,1.693,42.604,1.125"/>
		<g>
			<path fill="#F4F4F4" d="M82.027,88.08c3.2-0.157,5.822-0.411,7.345-0.784c5.445-1.333,7.541-4.253,7.541-9.147v-0.863V50.713
				V49.85c0-4.894-2.095-7.815-7.541-9.147c-1.523-0.373-4.145-0.627-7.345-0.784"/>
		</g>
		<path fill="#BEBEBE" d="M82.226,39.926c-14.13-0.54-37.098,0.089-41.668,1.069c-5.893,1.263-8.603,3.55-9.544,8.826
			c-0.431,2.422-0.446,8.409-0.336,14.178c-0.11,5.769-0.095,11.756,0.336,14.179c0.941,5.276,3.651,7.562,9.544,8.826
			c4.57,0.98,27.538,1.609,41.668,1.069"/>
		<g>
			
				<linearGradient id="SVGID_1_" gradientUnits="userSpaceOnUse" x1="158.1313" y1="-155.96" x2="178.8506" y2="-155.96" gradientTransform="matrix(1 0 0 -1 -97.66 -91.96)">
				<stop  offset="0" style="stop-color:#BBBDBF"/>
				<stop  offset="0.1232" style="stop-color:#B5B7B9"/>
				<stop  offset="0.5123" style="stop-color:#B5B7B9"/>
				<stop  offset="0.5764" style="stop-color:#B5B7B9"/>
				<stop  offset="1" style="stop-color:#929497"/>
			</linearGradient>
			<polyline fill="url(#SVGID_1_)" stroke="#9D9DA0" stroke-width="0.4252" stroke-miterlimit="10" points="60.471,72.47 
				73.415,72.47 73.415,71.493 81.191,71.493 81.191,56.508 73.415,56.508 73.415,55.53 60.471,55.53 			"/>
		</g>
		<g>
			<path fill="#D0D2D3" stroke="#A3A3A3" stroke-width="0.4252" stroke-miterlimit="10" d="M83.628,67.064
				c0,1.384-1.08,2.506-2.413,2.506H70.316c-1.332,0-2.413-1.122-2.413-2.506v-6.127c0-1.384,1.08-2.506,2.413-2.506h10.899
				c1.332,0,2.413,1.122,2.413,2.506V67.064z"/>
		</g>
		<g>
			<path fill="#F4F4F4" stroke="#C1C1C1" stroke-width="0.2835" stroke-miterlimit="10" d="M78.932,71.72
				c0,3.31-0.038,3.356,2.737,3.356l0,0c3.31,0,5.994-2.684,5.994-5.994V58.918c0-3.31-2.684-5.994-5.994-5.994l0,0
				c-2.775,0-2.737,0.077-2.737,3.387V71.72z"/>
		</g>
		<g>
			<g>
				<path fill="#F1F1F2" stroke="#B2B2B2" stroke-width="0.2835" stroke-miterlimit="10" d="M86.783,66.541
					c0,0.629-0.511,1.14-1.14,1.14l0,0c-0.629,0-1.14-0.511-1.14-1.14V61.46c0-0.629,0.511-1.14,1.14-1.14l0,0
					c0.629,0,1.14,0.511,1.14,1.14V66.541z"/>
			</g>
			<path fill="#231F20" d="M86.571,62.062c0,0.513-0.416,0.929-0.929,0.929l0,0c-0.513,0-0.929-0.416-0.929-0.929l0,0
				c0-0.513,0.416-0.929,0.929-0.929l0,0C86.156,61.134,86.571,61.548,86.571,62.062L86.571,62.062z"/>
		</g>
	</g>
</g>
</svg>
