<?xml version="1.0" encoding="utf-8"?>
<svg version="1.1" xmlns="http://www.w3.org/2000/svg" xmlns:xlink="http://www.w3.org/1999/xlink" x="0px" y="0px" width="600px"
	 height="300px" viewBox="0 0 600 300" enable-background="new 0 0 600 300" xml:space="preserve">
<g id="Medtrum">
	<path fill="#FFFFFF" d="M393.58,8.879H219.83c-47.268,0-85.586,38.504-85.586,86v112c0,47.497,38.318,86,85.586,86h173.75
		c47.268,0,85.586-38.503,85.586-86v-112C479.167,47.383,440.848,8.879,393.58,8.879z M285.167,272.713
		c-3.682,0-6.667-2.985-6.667-6.667s2.985-6.667,6.667-6.667c3.682,0,6.667,2.985,6.667,6.667S288.849,272.713,285.167,272.713z
		 M285.167,42.379c-3.682,0-6.667-2.985-6.667-6.667c0-3.682,2.985-6.667,6.667-6.667c3.682,0,6.667,2.985,6.667,6.667
		C291.833,39.394,288.849,42.379,285.167,42.379z M445.066,176.969v-52.181c7.028,6.486,11.434,15.772,11.434,26.09
		S452.094,170.483,445.066,176.969z"/>
	<g>
		<g>
			<path fill="#F4F4F4" d="M369.313,242.733c13.544-0.597,24.641-1.567,31.086-2.989c23.045-5.085,31.914-16.223,31.914-34.891
				v-3.292V100.198v-3.292c0-18.668-8.868-29.807-31.914-34.891c-6.445-1.422-17.543-2.392-31.086-2.989"/>
			<g>
				
					<image overflow="visible" width="76.318" height="209.194" xlink:href="4178185B.png"  transform="matrix(1 0 0 1 368.7508 46.282)"/>
			</g>
		</g>
		<g>
			<path fill="#BBBDBF" d="M370,59.051c-51.78-2.061-135.946,0.341-152.692,4.078c-21.595,4.82-31.527,13.54-34.973,33.665
				c-1.583,9.241-1.637,32.082-1.234,54.085c-0.404,22.003-0.349,44.844,1.234,54.085c3.446,20.125,13.378,28.845,34.973,33.665
				c16.745,3.737,100.912,6.139,152.692,4.078"/>
			<g>
				
					<image overflow="visible" width="202.368" height="210.683" xlink:href="4178185D.png"  transform="matrix(1 0 0 1 168.1391 45.5375)"/>
			</g>
		</g>
	</g>
	<g>
		<linearGradient id="SVGID_54_" gradientUnits="userSpaceOnUse" x1="293.1667" y1="150.8792" x2="372.6667" y2="150.8792">
			<stop  offset="0" style="stop-color:#BBBDBF"/>
			<stop  offset="0.1232" style="stop-color:#B5B7B9"/>
			<stop  offset="0.5123" style="stop-color:#B5B7B9"/>
			<stop  offset="0.5764" style="stop-color:#B5B7B9"/>
			<stop  offset="1" style="stop-color:#929497"/>
		</linearGradient>
		<polyline fill="url(#SVGID_54_)" points="293.167,183.379 342.833,183.379 342.833,179.629 372.667,179.629 372.667,122.129 
			342.833,122.129 342.833,118.379 293.167,118.379 			"/>
		<g>
			
				<image overflow="visible" width="80.917" height="67.835" xlink:href="4178185F.png"  transform="matrix(1 0 0 1 293.1667 116.9619)"/>
		</g>
	</g>
	<g>
		<path fill="#D0D2D3" d="M382.02,162.634c0,5.312-4.144,9.618-9.256,9.618h-41.822c-5.112,0-9.256-4.306-9.256-9.618v-23.509
			c0-5.312,4.144-9.618,9.256-9.618h41.822c5.112,0,9.256,4.306,9.256,9.618V162.634z"/>
		<g>
			
				<image overflow="visible" width="66.003" height="48.414" xlink:href="4178185C.png"  transform="matrix(1 0 0 1 318.8522 126.6723)"/>
		</g>
	</g>
	<g>
		<path fill="#F4F4F4" d="M364,180.5c0,12.703-0.146,12.879,10.5,12.879l0,0c12.703,0,23-10.297,23-23v-39
			c0-12.703-10.297-23-23-23l0,0c-10.646,0-10.5,0.293-10.5,12.996V180.5z"/>
		<g>
			
				<image overflow="visible" width="35.201" height="86.701" xlink:href="41781854.png"  transform="matrix(1 0 0 1 363.1496 107.5288)"/>
		</g>
	</g>
	<g>
		<g>
			<path fill="#F1F1F2" d="M394.125,160.629c0,2.416-1.959,4.375-4.375,4.375l0,0c-2.416,0-4.375-1.959-4.375-4.375v-19.5
				c0-2.416,1.959-4.375,4.375-4.375l0,0c2.416,0,4.375,1.959,4.375,4.375V160.629z"/>
			<g>
				
					<image overflow="visible" width="10.451" height="29.949" xlink:href="41781856.png"  transform="matrix(1 0 0 1 384.5246 135.9048)"/>
			</g>
		</g>
		<path fill="#231F20" d="M393.313,143.442c0,1.968-1.595,3.563-3.563,3.563l0,0c-1.968,0-3.563-1.595-3.563-3.563l0,0
			c0-1.968,1.595-3.563,3.563-3.563l0,0C391.718,139.879,393.313,141.474,393.313,143.442L393.313,143.442z"/>
	</g>
</g>
</svg>
