<?xml version="1.0" encoding="utf-8"?>
<svg version="1.1" xmlns="http://www.w3.org/2000/svg" xmlns:xlink="http://www.w3.org/1999/xlink" x="0px" y="0px" width="24px"
	 height="24px" viewBox="0 0 24 24" enable-background="new 0 0 24 24" xml:space="preserve">
<g id="Reset_Database">
	<g>
		<ellipse fill="#FFFFFF" cx="12.103" cy="5.728" rx="7.505" ry="2.62"/>
		<path fill="#FFFFFF" d="M19.051,7.533c-0.41,0.264-0.91,0.493-1.475,0.687c-1.517,0.521-3.5,0.787-5.473,0.787
			c-1.973,0-3.957-0.267-5.473-0.787C6.065,8.026,5.565,7.797,5.155,7.533C4.945,7.398,4.757,7.254,4.598,7.1v3.578
			c0.003,0.003,0.007,0.007,0.011,0.01c1.315,1.25,4.419,1.897,7.495,1.897c3.076,0,6.18-0.647,7.495-1.897
			c0.001,0,0.001-0.001,0.002-0.001V7.109C19.441,7.259,19.257,7.4,19.051,7.533z"/>
		<path fill="#FFFFFF" d="M19.051,11.937c-0.41,0.264-0.91,0.493-1.475,0.687c-1.517,0.521-3.5,0.787-5.473,0.787
			c-1.973,0-3.957-0.267-5.473-0.787c-0.565-0.194-1.065-0.423-1.475-0.687c-0.21-0.135-0.397-0.28-0.557-0.433v3.578
			c0.003,0.003,0.007,0.007,0.011,0.01c1.315,1.25,4.419,1.897,7.495,1.897c3.076,0,6.18-0.647,7.495-1.897
			c0.001,0,0.001-0.001,0.002-0.001v-3.578C19.441,11.663,19.257,11.804,19.051,11.937z"/>
		<path fill="#FFFFFF" d="M19.051,16.341c-0.41,0.264-0.91,0.493-1.475,0.687c-1.517,0.521-3.5,0.787-5.473,0.787
			c-1.973,0-3.957-0.267-5.473-0.787c-0.565-0.194-1.065-0.423-1.475-0.687c-0.21-0.135-0.397-0.28-0.557-0.433v3.578
			c0.003,0.003,0.007,0.007,0.011,0.01c1.315,1.25,4.419,1.897,7.495,1.897c3.076,0,6.18-0.647,7.495-1.897
			c0.001,0,0.001-0.001,0.002-0.001v-3.578C19.441,16.067,19.257,16.209,19.051,16.341z"/>
	</g>
	<path fill="#FF1313" d="M13.709,13.832l1.886-1.886c0.081-0.081,0.081-0.213,0-0.294l-1.372-1.372
		c-0.078-0.078-0.216-0.078-0.294,0l-1.886,1.886l-1.886-1.886c-0.078-0.078-0.216-0.078-0.294,0l-1.372,1.372
		c-0.039,0.039-0.061,0.092-0.061,0.147c0,0.055,0.022,0.108,0.061,0.147l1.886,1.886l-1.886,1.886
		c-0.039,0.039-0.061,0.092-0.061,0.147c0,0.055,0.022,0.108,0.061,0.147l1.372,1.372c0.041,0.04,0.094,0.061,0.147,0.061
		s0.106-0.02,0.147-0.061l1.886-1.886l1.886,1.886c0.04,0.04,0.093,0.061,0.147,0.061s0.106-0.02,0.147-0.061l1.371-1.371
		c0.081-0.081,0.081-0.213,0-0.294L13.709,13.832z"/>
</g>
</svg>
