<?xml version="1.0" encoding="utf-8"?>
<svg version="1.1" xmlns="http://www.w3.org/2000/svg" xmlns:xlink="http://www.w3.org/1999/xlink" x="0px" y="0px" width="24px"
	 height="24px" viewBox="0 0 24 24" enable-background="new 0 0 24 24" xml:space="preserve">
<g id="Second_hand">
	<path fill="#FF1313" d="M12.198,11.462v-0.237c0-0.077-0.05-0.131-0.114-0.164V0.508c0-0.047-0.038-0.086-0.086-0.086
		c-0.047,0-0.086,0.038-0.086,0.086v10.553c-0.063,0.033-0.114,0.087-0.114,0.164v0.238c-0.219,0.082-0.376,0.29-0.376,0.537
		s0.157,0.455,0.376,0.537v0.92c0,0.11,0.089,0.2,0.2,0.2s0.2-0.089,0.2-0.2v-0.919c0.221-0.081,0.381-0.289,0.381-0.538
		S12.419,11.543,12.198,11.462z M11.999,12.094c-0.047,0-0.086-0.038-0.086-0.086s0.039-0.086,0.086-0.086
		c0.047,0,0.086,0.038,0.086,0.086S12.046,12.094,11.999,12.094z"/>
</g>
</svg>