<?xml version="1.0" encoding="utf-8"?>
<!DOCTYPE svg PUBLIC "-//W3C//DTD SVG 1.1//EN" "http://www.w3.org/Graphics/SVG/1.1/DTD/svg11.dtd">
<svg version="1.1" xmlns="http://www.w3.org/2000/svg" xmlns:xlink="http://www.w3.org/1999/xlink" x="0px" y="0px" width="24px"
	 height="24px" viewBox="0 0 24 24" enable-background="new 0 0 24 24" xml:space="preserve">
<g id="SendCustom">
	<g>
		<path fill="#AAAAAA" d="M16.168,7.286c-2.578,0-4.668,2.09-4.668,4.668c0,2.578,2.09,4.668,4.668,4.668s4.668-2.09,4.668-4.668
			C20.836,9.375,18.746,7.286,16.168,7.286z M16.168,15.414c-1.911,0-3.46-1.549-3.46-3.46c0-1.911,1.549-3.46,3.46-3.46
			s3.46,1.549,3.46,3.46C19.628,13.864,18.079,15.414,16.168,15.414z"/>
		<polygon fill="#AAAAAA" points="18.448,4.976 13.888,4.976 13.291,8.314 19.045,8.314 			"/>
		<polygon fill="#AAAAAA" points="18.448,19.024 13.888,19.024 13.291,15.686 19.045,15.686 			"/>
	</g>
	<polygon fill="#6AE86D" points="16.241,11.953 11.266,9.823 11.266,11.078 3.37,11.078 3.37,12.828 11.266,12.828 11.266,14.084 
				"/>
</g>
</svg>
