<?xml version="1.0" encoding="utf-8"?>
<svg version="1.1" xmlns="http://www.w3.org/2000/svg" xmlns:xlink="http://www.w3.org/1999/xlink" x="0px" y="0px" width="24px"
	 height="24px" viewBox="0 0 24 24" enable-background="new 0 0 24 24" xml:space="preserve">
<g id="SendLog">
	<g>
		<polygon fill="none" points="9.135,15.969 14.871,15.969 16.301,14.539 7.705,14.539 		"/>
		<polygon fill="none" points="12,2.299 9.521,4.778 14.479,4.778 		"/>
		<polygon fill="none" points="16.362,19.891 13.247,18.109 10.756,18.107 5.915,20.877 4.3,21.801 19.699,21.801 		"/>
		<polygon fill="none" points="14.389,16.451 9.617,16.451 10.791,17.625 13.213,17.627 		"/>
		<polygon fill="none" points="3.634,21.627 6.173,20.174 10.299,17.813 5.24,12.755 5.227,12.742 3.634,11.149 		"/>
		<polygon fill="none" points="13.705,17.815 15.209,18.676 20.362,21.625 20.365,16.234 20.365,11.155 		"/>
		<polygon fill="none" points="20.27,10.57 18.84,9.142 18.84,12 		"/>
		<polygon fill="none" points="5.161,11.994 5.161,9.137 3.732,10.565 		"/>
		<path fill="none" d="M5.642,8.557v3.919l1.581,1.581h9.56l1.574-1.574V5.259H5.642v3.296C5.642,8.555,5.642,8.556,5.642,8.557z
			 M7.308,6.409h9.384c0.133,0,0.241,0.107,0.241,0.241S16.824,6.89,16.691,6.89H7.308c-0.133,0-0.241-0.107-0.241-0.241
			S7.174,6.409,7.308,6.409z M7.014,8.321h9.973c0.133,0,0.241,0.107,0.241,0.241s-0.108,0.241-0.241,0.241H7.014
			c-0.133,0-0.241-0.107-0.241-0.241S6.88,8.321,7.014,8.321z M7.014,10.233h9.973c0.133,0,0.241,0.107,0.241,0.241
			s-0.108,0.241-0.241,0.241H7.014c-0.133,0-0.241-0.107-0.241-0.241S6.88,10.233,7.014,10.233z M7.014,12.145h9.973
			c0.133,0,0.241,0.107,0.241,0.241c0,0.133-0.108,0.241-0.241,0.241H7.014c-0.133,0-0.241-0.108-0.241-0.241
			C6.773,12.252,6.88,12.145,7.014,12.145z"/>
		<path fill="#FFFFFF" d="M7.014,8.802h9.973c0.133,0,0.241-0.107,0.241-0.241s-0.108-0.241-0.241-0.241H7.014
			c-0.133,0-0.241,0.107-0.241,0.241S6.88,8.802,7.014,8.802z"/>
		<path fill="#FFFFFF" d="M7.014,6.89h9.973c0.133,0,0.241-0.107,0.241-0.241s-0.108-0.241-0.241-0.241H7.014
			c-0.133,0-0.241,0.107-0.241,0.241S6.88,6.89,7.014,6.89z"/>
		<path fill="#FFFFFF" d="M7.014,12.627h9.973c0.133,0,0.241-0.108,0.241-0.241c0-0.133-0.108-0.241-0.241-0.241H7.014
			c-0.133,0-0.241,0.107-0.241,0.241C6.773,12.519,6.88,12.627,7.014,12.627z"/>
		<path fill="#FFFFFF" d="M7.014,10.714h9.973c0.133,0,0.241-0.107,0.241-0.241s-0.108-0.241-0.241-0.241H7.014
			c-0.133,0-0.241,0.107-0.241,0.241S6.88,10.714,7.014,10.714z"/>
		<path fill="#FFFFFF" d="M20.848,16.305l0.003-5.737c0-0.015-0.014-0.026-0.017-0.041c-0.008-0.037-0.019-0.071-0.042-0.1
			c-0.007-0.009-0.004-0.022-0.012-0.03L18.84,8.462V5.019c0-0.133-0.108-0.241-0.241-0.241H15.16l-2.99-2.99
			c-0.094-0.094-0.247-0.094-0.341,0l-2.991,2.99H5.401c-0.133,0-0.241,0.107-0.241,0.241v3.437l-1.94,1.94
			c-0.006,0.007-0.004,0.017-0.01,0.025c-0.026,0.033-0.041,0.071-0.047,0.114c-0.002,0.012-0.013,0.02-0.013,0.032v11.476
			c0,0.008,0.008,0.012,0.008,0.02c0,0.006,0.003,0.01,0.004,0.016c0.001,0.009-0.004,0.017-0.002,0.026
			c0.002,0.009,0.011,0.013,0.014,0.021c0.009,0.023,0.02,0.043,0.035,0.062c0.01,0.012,0.016,0.022,0.028,0.032
			c0.007,0.007,0.014,0.012,0.022,0.018c0.005,0.003,0.007,0.01,0.013,0.013c0.035,0.021,0.074,0.029,0.112,0.031
			c0.002,0,0.003,0.002,0.006,0.002h0.003h17.21h0.003c0.042,0,0.084-0.011,0.121-0.033c0.005-0.003,0.008-0.009,0.013-0.013
			c0.009-0.006,0.016-0.013,0.024-0.021c0.007-0.006,0.01-0.012,0.016-0.019c0.02-0.022,0.035-0.046,0.046-0.074
			c0.003-0.008,0.011-0.012,0.013-0.02c0.002-0.008-0.003-0.015-0.002-0.023c0.002-0.013,0.01-0.025,0.01-0.038V16.305z
			 M5.227,12.742c0.005,0.005,0.008,0.009,0.013,0.013l5.059,5.058l-4.125,2.361l-2.539,1.453V11.149L5.227,12.742z M20.365,11.155
			v5.079l-0.003,5.39l-5.153-2.948l-1.504-0.861L20.365,11.155z M10.791,17.625l-1.174-1.174h4.771l-1.176,1.176L10.791,17.625z
			 M14.871,15.969H9.135l-1.43-1.43h8.596L14.871,15.969z M5.915,20.877l4.841-2.769l2.491,0.002l3.115,1.782l3.338,1.91H4.3
			L5.915,20.877z M20.27,10.57L18.84,12V9.142L20.27,10.57z M12,2.299l2.479,2.479H9.521L12,2.299z M18.357,5.259v7.223
			l-1.574,1.574h-9.56l-1.581-1.581V8.557c0-0.001,0-0.001,0-0.002V5.259H18.357z M5.161,11.994l-1.429-1.429l1.429-1.428V11.994z"
			/>
	</g>
</g>
</svg>
