<?xml version="1.0" encoding="utf-8"?>
<!DOCTYPE svg PUBLIC "-//W3C//DTD SVG 1.1//EN" "http://www.w3.org/Graphics/SVG/1.1/DTD/svg11.dtd">
<svg version="1.1" id="Layer_1" xmlns="http://www.w3.org/2000/svg" xmlns:xlink="http://www.w3.org/1999/xlink" x="0px" y="0px"
	 width="48px" height="24px" viewBox="0 0 48 24" enable-background="new 0 0 48 24" xml:space="preserve">
<g id="WF_x5F_Icon">
	<path fill="#ABABAB" d="M37.464,4.2c-4.265,0-7.723,3.458-7.723,7.723c0,4.265,3.458,7.723,7.723,7.723s7.723-3.458,7.723-7.723
		C45.186,7.658,41.729,4.2,37.464,4.2z M37.464,17.648c-3.162,0-5.725-2.563-5.725-5.725c0-3.162,2.563-5.725,5.725-5.725
		s5.725,2.563,5.725,5.725C43.188,15.085,40.625,17.648,37.464,17.648z"/>
	<polygon fill="#ABABAB" points="41.235,0.378 33.692,0.378 32.704,5.901 42.223,5.901 	"/>
	<polygon fill="#ABABAB" points="41.235,23.622 33.692,23.622 32.704,18.099 42.223,18.099 	"/>
</g>
<g id="Default_x5F_WF">
	<circle fill="#010101" cx="11.501" cy="12.017" r="8.687"/>
	<g id="Graph">
		<g>
			
				<line fill="none" stroke="#C9C9C9" stroke-width="0.085" stroke-miterlimit="10" x1="15.948" y1="13.501" x2="15.948" y2="19.538"/>
			
				<line fill="none" stroke="#C9C9C9" stroke-width="0.085" stroke-miterlimit="10" x1="13.458" y1="13.501" x2="13.458" y2="19.538"/>
			
				<line fill="none" stroke="#C9C9C9" stroke-width="0.085" stroke-miterlimit="10" x1="10.969" y1="13.501" x2="10.969" y2="19.538"/>
			
				<line fill="none" stroke="#C9C9C9" stroke-width="0.085" stroke-miterlimit="10" x1="8.479" y1="13.501" x2="8.479" y2="19.538"/>
			<line fill="none" stroke="#C9C9C9" stroke-width="0.085" stroke-miterlimit="10" x1="5.99" y1="13.501" x2="5.99" y2="18.691"/>
			
				<line fill="none" stroke="#C9C9C9" stroke-width="0.085" stroke-miterlimit="10" x1="18.438" y1="13.501" x2="18.438" y2="17.246"/>
			<line fill="none" stroke="#C9C9C9" stroke-width="0.085" stroke-miterlimit="10" x1="3.5" y1="13.501" x2="3.5" y2="15.373"/>
		</g>
		<g>
			<path fill="#D1D3D4" d="M8.428,20.045c0-0.079,0.008-0.143,0.024-0.191c0.016-0.049,0.04-0.086,0.072-0.111
				c0.032-0.026,0.073-0.039,0.122-0.039c0.036,0,0.067,0.007,0.094,0.021c0.027,0.014,0.05,0.035,0.067,0.063
				s0.031,0.061,0.042,0.1c0.01,0.039,0.015,0.092,0.015,0.158c0,0.078-0.008,0.142-0.024,0.189
				c-0.016,0.049-0.04,0.086-0.072,0.112s-0.073,0.04-0.122,0.04c-0.065,0-0.115-0.023-0.152-0.07
				C8.45,20.262,8.428,20.17,8.428,20.045z M8.513,20.045c0,0.109,0.013,0.184,0.039,0.219c0.025,0.037,0.057,0.055,0.095,0.055
				c0.038,0,0.069-0.018,0.095-0.055c0.025-0.036,0.039-0.109,0.039-0.219c0-0.11-0.013-0.184-0.039-0.22
				c-0.026-0.036-0.058-0.055-0.096-0.055s-0.068,0.017-0.09,0.048C8.527,19.859,8.513,19.936,8.513,20.045z"/>
			<path fill="#D1D3D4" d="M10.817,20.375h-0.083v-0.523c-0.02,0.019-0.045,0.037-0.078,0.057c-0.032,0.019-0.061,0.033-0.086,0.042
				v-0.079c0.046-0.021,0.086-0.049,0.121-0.079c0.034-0.03,0.059-0.061,0.073-0.089h0.053V20.375z"/>
			<path fill="#D1D3D4" d="M11.268,20.375h-0.083v-0.523c-0.02,0.019-0.045,0.037-0.078,0.057c-0.032,0.019-0.061,0.033-0.086,0.042
				v-0.079c0.046-0.021,0.086-0.049,0.121-0.079c0.034-0.03,0.059-0.061,0.073-0.089h0.053V20.375z"/>
			<path fill="#D1D3D4" d="M13.348,20.375h-0.083v-0.523c-0.02,0.019-0.045,0.037-0.078,0.057c-0.032,0.019-0.061,0.033-0.086,0.042
				v-0.079c0.046-0.021,0.086-0.049,0.121-0.079c0.034-0.03,0.059-0.061,0.073-0.089h0.053V20.375z"/>
			<path fill="#D1D3D4" d="M13.99,20.296v0.079h-0.442c0-0.02,0.002-0.039,0.01-0.057c0.011-0.031,0.029-0.061,0.054-0.09
				c0.025-0.029,0.061-0.063,0.108-0.102c0.073-0.059,0.122-0.106,0.147-0.141c0.025-0.035,0.039-0.068,0.039-0.1
				c0-0.033-0.012-0.061-0.035-0.082c-0.023-0.023-0.054-0.034-0.091-0.034c-0.04,0-0.071,0.013-0.095,0.036
				c-0.024,0.023-0.036,0.057-0.036,0.098l-0.084-0.008c0.006-0.063,0.027-0.111,0.065-0.145c0.038-0.033,0.088-0.049,0.152-0.049
				c0.064,0,0.115,0.018,0.153,0.053c0.037,0.035,0.056,0.08,0.056,0.133c0,0.027-0.006,0.053-0.017,0.079
				c-0.011,0.026-0.029,0.053-0.055,0.081c-0.025,0.029-0.068,0.068-0.126,0.118c-0.05,0.042-0.081,0.069-0.095,0.085
				c-0.014,0.014-0.025,0.029-0.035,0.044H13.99z"/>
		</g>
		<polyline fill="none" stroke="#3953A4" stroke-width="0.085" stroke-miterlimit="10" points="4.052,16.488 4.768,16.488 
			4.768,15.72 5.076,15.72 5.076,14.156 6.255,14.156 6.255,17.056 7.005,17.056 7.005,18.451 8.134,18.451 8.134,15.384 
			8.611,15.384 8.611,18.691 13.469,18.691 		"/>
		
			<line fill="none" stroke="#D51F26" stroke-width="0.085" stroke-miterlimit="10" x1="5.319" y1="18.118" x2="17.651" y2="18.118"/>
		<line fill="none" stroke="#F6EC13" stroke-width="0.0567" stroke-miterlimit="10" x1="3.642" y1="15.72" x2="19.36" y2="15.72"/>
		<path fill="none" stroke="#69BD45" stroke-width="0.1701" stroke-miterlimit="10" d="M4.918,17.687
			c0.265-0.027,0.569-0.025,0.824-0.079c0.262-0.055,0.415-0.121,0.694-0.146c0.519-0.046,1.079-0.013,1.583,0.019
			c0.21,0.013,0.632,0.098,0.826,0.056c0.166-0.036,0.259-0.24,0.403-0.315c0.406-0.214,0.71-0.453,1.09-0.696
			c0.434-0.277,1.121-0.132,1.57-0.36c0.572-0.291,0.916-0.304,1.624-0.166"/>
		<path fill="none" stroke="#DD9D27" stroke-width="0.0567" stroke-miterlimit="10" d="M13.448,16.047
			c0.132,0.044,0.506,0.08,0.581,0.187c0.636-0.062,1.141,0.082,1.79,0.05c0.406-0.02,0.749-0.175,1.171-0.17
			c0.337,0.004,0.666,0.092,0.983,0.143c0.002,0.014-0.003,0.022-0.014,0.026c0.173,0.046,0.277,0.141,0.453,0.17
			c0.196,0.032,0.394-0.004,0.581,0.034"/>
		<path fill="none" stroke="#E0E331" stroke-width="0.0567" stroke-miterlimit="10" d="M18.201,17.501
			c-0.545-0.001-0.734-0.181-1.2-0.326c-0.352-0.11-0.744-0.165-1.107-0.233c-0.513-0.097-0.894-0.141-1.349-0.332
			c-0.174-0.073-0.361-0.141-0.517-0.221c-0.155-0.079-0.349-0.273-0.56-0.275"/>
		<path fill="none" stroke="#3497CF" stroke-width="0.0567" stroke-miterlimit="10" d="M13.563,16.101
			c0.816,0.305,1.727,0.445,2.646,0.536c0.463,0.046,0.927,0.135,1.382,0.201c0.354,0.052,0.604,0.227,0.92,0.29"/>
		<path fill="none" stroke="#55C5CD" stroke-width="0.0567" stroke-miterlimit="10" d="M13.469,16.114
			c0.155,0.359,0.634,0.635,1.005,0.887c0.276,0.056,0.512,0.224,0.751,0.33c0.296,0.131,0.59,0.218,0.9,0.3
			c0.46,0.121,1.097,0.36,1.625,0.368"/>
		<circle fill="#EC9F21" cx="8.059" cy="18.422" r="0.303"/>
		<circle fill="#00AEEF" cx="8.433" cy="18.696" r="0.303"/>
	</g>
	<g>
		<path fill="#D1D3D4" d="M3.578,10.11V9.927H3.396V9.85h0.182V9.668h0.078V9.85h0.182v0.077H3.656v0.184H3.578z"/>
		<path fill="#D1D3D4" d="M3.929,9.889c0-0.079,0.008-0.143,0.024-0.191c0.016-0.048,0.04-0.085,0.072-0.112
			C4.058,9.56,4.099,9.546,4.147,9.546c0.036,0,0.067,0.007,0.094,0.021c0.027,0.015,0.05,0.036,0.067,0.063
			c0.018,0.027,0.031,0.06,0.042,0.1C4.36,9.77,4.366,9.822,4.366,9.889c0,0.079-0.008,0.142-0.024,0.19s-0.04,0.086-0.072,0.112
			c-0.032,0.026-0.073,0.04-0.122,0.04c-0.065,0-0.115-0.023-0.152-0.069C3.951,10.105,3.929,10.014,3.929,9.889z M4.014,9.889
			c0,0.11,0.013,0.183,0.039,0.219c0.025,0.037,0.057,0.055,0.095,0.055c0.038,0,0.069-0.018,0.095-0.055
			c0.025-0.037,0.039-0.11,0.039-0.219c0-0.11-0.013-0.184-0.039-0.22C4.217,9.633,4.185,9.614,4.146,9.614S4.079,9.63,4.056,9.663
			C4.028,9.703,4.014,9.779,4.014,9.889z"/>
		<path fill="#D1D3D4" d="M4.493,10.219v-0.094h0.094v0.094c0,0.034-0.006,0.062-0.018,0.083c-0.012,0.021-0.032,0.038-0.058,0.049
			l-0.023-0.035c0.018-0.007,0.03-0.019,0.039-0.034c0.008-0.015,0.013-0.036,0.014-0.063H4.493z"/>
		<path fill="#D1D3D4" d="M4.709,9.889c0-0.079,0.008-0.143,0.024-0.191c0.016-0.048,0.04-0.085,0.072-0.112
			C4.838,9.56,4.878,9.546,4.927,9.546c0.036,0,0.067,0.007,0.094,0.021c0.027,0.015,0.05,0.036,0.067,0.063
			c0.018,0.027,0.031,0.06,0.042,0.1C5.14,9.77,5.146,9.822,5.146,9.889c0,0.079-0.008,0.142-0.024,0.19s-0.04,0.086-0.072,0.112
			c-0.032,0.026-0.073,0.04-0.122,0.04c-0.065,0-0.115-0.023-0.152-0.069C4.731,10.105,4.709,10.014,4.709,9.889z M4.793,9.889
			c0,0.11,0.013,0.183,0.039,0.219c0.025,0.037,0.057,0.055,0.095,0.055c0.038,0,0.069-0.018,0.095-0.055
			c0.025-0.037,0.039-0.11,0.039-0.219c0-0.11-0.013-0.184-0.039-0.22C4.997,9.633,4.964,9.614,4.926,9.614S4.858,9.63,4.836,9.663
			C4.808,9.703,4.793,9.779,4.793,9.889z"/>
		<path fill="#D1D3D4" d="M5.74,10.018V9.935h0.252v0.083H5.74z"/>
		<path fill="#D1D3D4" d="M6.061,9.889c0-0.079,0.008-0.143,0.024-0.191c0.016-0.048,0.04-0.085,0.072-0.112
			C6.189,9.56,6.23,9.546,6.279,9.546c0.036,0,0.067,0.007,0.094,0.021C6.4,9.583,6.423,9.604,6.44,9.631
			c0.018,0.027,0.031,0.06,0.042,0.1c0.01,0.039,0.015,0.092,0.015,0.158c0,0.079-0.008,0.142-0.024,0.19S6.433,10.165,6.4,10.19
			c-0.032,0.026-0.073,0.04-0.122,0.04c-0.065,0-0.115-0.023-0.152-0.069C6.083,10.105,6.061,10.014,6.061,9.889z M6.145,9.889
			c0,0.11,0.013,0.183,0.039,0.219c0.025,0.037,0.057,0.055,0.095,0.055c0.038,0,0.069-0.018,0.095-0.055
			c0.025-0.037,0.039-0.11,0.039-0.219c0-0.11-0.013-0.184-0.039-0.22C6.348,9.633,6.316,9.614,6.278,9.614S6.21,9.63,6.188,9.663
			C6.159,9.703,6.145,9.779,6.145,9.889z"/>
		<path fill="#D1D3D4" d="M6.625,10.219v-0.094h0.094v0.094c0,0.034-0.006,0.062-0.018,0.083c-0.012,0.021-0.032,0.038-0.058,0.049
			L6.62,10.316c0.018-0.007,0.03-0.019,0.039-0.034c0.008-0.015,0.013-0.036,0.014-0.063H6.625z"/>
		<path fill="#D1D3D4" d="M6.841,10.043l0.086-0.007c0.006,0.042,0.021,0.074,0.045,0.095c0.023,0.021,0.051,0.032,0.084,0.032
			c0.04,0,0.073-0.015,0.101-0.045s0.041-0.069,0.041-0.119c0-0.047-0.013-0.084-0.04-0.111C7.131,9.861,7.097,9.847,7.054,9.847
			c-0.026,0-0.05,0.006-0.072,0.018c-0.021,0.012-0.038,0.028-0.05,0.047l-0.078-0.01L6.92,9.558h0.333v0.079H6.986L6.95,9.817
			c0.04-0.028,0.083-0.042,0.126-0.042c0.059,0,0.108,0.02,0.148,0.061c0.041,0.041,0.061,0.093,0.061,0.156
			c0,0.061-0.018,0.113-0.053,0.157C7.188,10.203,7.13,10.23,7.056,10.23c-0.061,0-0.11-0.017-0.149-0.051
			C6.868,10.145,6.846,10.1,6.841,10.043z"/>
		<path fill="#D1D3D4" d="M8.19,10.219H8.108V9.695C8.088,9.714,8.063,9.732,8.03,9.751S7.969,9.785,7.944,9.794v-0.08
			C7.99,9.693,8.03,9.667,8.064,9.636c0.034-0.031,0.059-0.061,0.073-0.089H8.19V10.219z"/>
		<path fill="#D1D3D4" d="M8.401,9.889c0-0.079,0.008-0.143,0.024-0.191c0.016-0.048,0.04-0.085,0.072-0.112
			C8.53,9.56,8.57,9.546,8.619,9.546c0.036,0,0.067,0.007,0.094,0.021c0.027,0.015,0.05,0.036,0.067,0.063
			c0.018,0.027,0.031,0.06,0.042,0.1c0.01,0.039,0.015,0.092,0.015,0.158c0,0.079-0.008,0.142-0.024,0.19s-0.04,0.086-0.072,0.112
			c-0.032,0.026-0.073,0.04-0.122,0.04c-0.065,0-0.115-0.023-0.152-0.069C8.423,10.105,8.401,10.014,8.401,9.889z M8.485,9.889
			c0,0.11,0.013,0.183,0.039,0.219c0.025,0.037,0.057,0.055,0.095,0.055c0.038,0,0.069-0.018,0.095-0.055
			c0.025-0.037,0.039-0.11,0.039-0.219c0-0.11-0.013-0.184-0.039-0.22C8.688,9.633,8.656,9.614,8.618,9.614S8.55,9.63,8.528,9.663
			C8.5,9.703,8.485,9.779,8.485,9.889z"/>
		<path fill="#D1D3D4" d="M8.921,9.889c0-0.079,0.008-0.143,0.024-0.191c0.016-0.048,0.04-0.085,0.072-0.112
			C9.05,9.56,9.091,9.546,9.14,9.546c0.036,0,0.067,0.007,0.094,0.021c0.027,0.015,0.05,0.036,0.067,0.063
			c0.018,0.027,0.031,0.06,0.042,0.1c0.01,0.039,0.015,0.092,0.015,0.158c0,0.079-0.008,0.142-0.024,0.19s-0.04,0.086-0.072,0.112
			c-0.032,0.026-0.073,0.04-0.122,0.04c-0.065,0-0.115-0.023-0.152-0.069C8.943,10.105,8.921,10.014,8.921,9.889z M9.006,9.889
			c0,0.11,0.013,0.183,0.039,0.219c0.025,0.037,0.057,0.055,0.095,0.055c0.038,0,0.069-0.018,0.095-0.055
			c0.025-0.037,0.039-0.11,0.039-0.219c0-0.11-0.013-0.184-0.039-0.22C9.209,9.633,9.177,9.614,9.139,9.614S9.071,9.63,9.048,9.663
			C9.02,9.703,9.006,9.779,9.006,9.889z"/>
		<path fill="#D1D3D4" d="M9.457,9.71c0-0.048,0.012-0.088,0.036-0.122c0.024-0.033,0.059-0.05,0.104-0.05
			c0.042,0,0.077,0.015,0.104,0.045c0.028,0.03,0.042,0.074,0.042,0.132c0,0.057-0.014,0.101-0.042,0.131
			C9.673,9.876,9.639,9.892,9.598,9.892c-0.041,0-0.074-0.015-0.101-0.045C9.47,9.816,9.457,9.771,9.457,9.71z M9.6,9.594
			c-0.021,0-0.037,0.009-0.051,0.027c-0.014,0.018-0.021,0.05-0.021,0.097c0,0.043,0.007,0.073,0.021,0.09
			C9.563,9.826,9.58,9.835,9.6,9.835c0.021,0,0.038-0.009,0.051-0.026c0.014-0.018,0.021-0.05,0.021-0.097
			c0-0.043-0.007-0.074-0.021-0.091S9.62,9.594,9.6,9.594z M9.6,10.244l0.366-0.706h0.067l-0.365,0.706H9.6z M9.89,10.062
			c0-0.048,0.012-0.089,0.036-0.122s0.059-0.05,0.105-0.05c0.042,0,0.077,0.015,0.104,0.045c0.027,0.03,0.042,0.074,0.042,0.132
			c0,0.056-0.014,0.1-0.042,0.131c-0.028,0.03-0.063,0.046-0.104,0.046c-0.041,0-0.074-0.016-0.101-0.046S9.89,10.122,9.89,10.062z
			 M10.033,9.946c-0.021,0-0.038,0.009-0.051,0.026c-0.014,0.018-0.021,0.05-0.021,0.097c0,0.042,0.007,0.073,0.021,0.09
			s0.031,0.027,0.051,0.027c0.021,0,0.038-0.009,0.052-0.027s0.021-0.05,0.021-0.097c0-0.043-0.007-0.074-0.021-0.091
			S10.054,9.946,10.033,9.946z"/>
		<path fill="#D1D3D4" d="M11.103,10.219H11.02V9.695C11,9.714,10.975,9.732,10.942,9.751s-0.061,0.033-0.086,0.042v-0.08
			c0.046-0.021,0.086-0.048,0.121-0.079c0.034-0.031,0.059-0.061,0.073-0.089h0.053V10.219z"/>
		<path fill="#D1D3D4" d="M11.313,9.889c0-0.079,0.008-0.143,0.024-0.191c0.016-0.048,0.04-0.085,0.072-0.112
			c0.032-0.026,0.073-0.039,0.122-0.039c0.036,0,0.067,0.007,0.094,0.021c0.027,0.015,0.05,0.036,0.067,0.063
			c0.018,0.027,0.031,0.06,0.042,0.1c0.01,0.039,0.015,0.092,0.015,0.158c0,0.079-0.008,0.142-0.024,0.19s-0.04,0.086-0.072,0.112
			c-0.032,0.026-0.073,0.04-0.122,0.04c-0.065,0-0.115-0.023-0.152-0.069C11.335,10.105,11.313,10.014,11.313,9.889z M11.398,9.889
			c0,0.11,0.013,0.183,0.039,0.219c0.025,0.037,0.057,0.055,0.095,0.055c0.038,0,0.069-0.018,0.095-0.055
			c0.025-0.037,0.039-0.11,0.039-0.219c0-0.11-0.013-0.184-0.039-0.22c-0.026-0.036-0.058-0.055-0.096-0.055
			s-0.068,0.016-0.09,0.048C11.412,9.703,11.398,9.779,11.398,9.889z"/>
		<path fill="#D1D3D4" d="M11.833,9.889c0-0.079,0.008-0.143,0.024-0.191c0.016-0.048,0.04-0.085,0.072-0.112
			c0.032-0.026,0.073-0.039,0.122-0.039c0.036,0,0.067,0.007,0.094,0.021c0.027,0.015,0.05,0.036,0.067,0.063
			c0.018,0.027,0.031,0.06,0.042,0.1c0.01,0.039,0.015,0.092,0.015,0.158c0,0.079-0.008,0.142-0.024,0.19s-0.04,0.086-0.072,0.112
			c-0.032,0.026-0.073,0.04-0.122,0.04c-0.065,0-0.115-0.023-0.152-0.069C11.855,10.105,11.833,10.014,11.833,9.889z M11.918,9.889
			c0,0.11,0.013,0.183,0.039,0.219c0.025,0.037,0.057,0.055,0.095,0.055c0.038,0,0.069-0.018,0.095-0.055
			c0.025-0.037,0.039-0.11,0.039-0.219c0-0.11-0.013-0.184-0.039-0.22c-0.026-0.036-0.058-0.055-0.096-0.055
			s-0.068,0.016-0.09,0.048C11.932,9.703,11.918,9.779,11.918,9.889z"/>
		<path fill="#D1D3D4" d="M12.369,9.71c0-0.048,0.012-0.088,0.036-0.122c0.024-0.033,0.059-0.05,0.104-0.05
			c0.042,0,0.077,0.015,0.104,0.045c0.028,0.03,0.042,0.074,0.042,0.132c0,0.057-0.014,0.101-0.042,0.131
			c-0.028,0.031-0.062,0.046-0.103,0.046c-0.041,0-0.074-0.015-0.101-0.045C12.383,9.816,12.369,9.771,12.369,9.71z M12.512,9.594
			c-0.021,0-0.037,0.009-0.051,0.027c-0.014,0.018-0.021,0.05-0.021,0.097c0,0.043,0.007,0.073,0.021,0.09
			c0.014,0.018,0.031,0.026,0.051,0.026c0.021,0,0.038-0.009,0.051-0.026c0.014-0.018,0.021-0.05,0.021-0.097
			c0-0.043-0.007-0.074-0.021-0.091S12.533,9.594,12.512,9.594z M12.513,10.244l0.366-0.706h0.067l-0.365,0.706H12.513z
			 M12.802,10.062c0-0.048,0.012-0.089,0.036-0.122s0.059-0.05,0.105-0.05c0.042,0,0.077,0.015,0.104,0.045
			c0.027,0.03,0.042,0.074,0.042,0.132c0,0.056-0.014,0.1-0.042,0.131c-0.028,0.03-0.063,0.046-0.104,0.046
			c-0.041,0-0.074-0.016-0.101-0.046S12.802,10.122,12.802,10.062z M12.946,9.946c-0.021,0-0.038,0.009-0.051,0.026
			c-0.014,0.018-0.021,0.05-0.021,0.097c0,0.042,0.007,0.073,0.021,0.09s0.031,0.027,0.051,0.027c0.021,0,0.038-0.009,0.052-0.027
			s0.021-0.05,0.021-0.097c0-0.043-0.007-0.074-0.021-0.091S12.966,9.946,12.946,9.946z"/>
		<path fill="#D1D3D4" d="M15.005,9.889c0-0.079,0.008-0.143,0.024-0.191c0.016-0.048,0.04-0.085,0.072-0.112
			c0.032-0.026,0.073-0.039,0.122-0.039c0.036,0,0.067,0.007,0.094,0.021c0.027,0.015,0.05,0.036,0.067,0.063
			c0.018,0.027,0.031,0.06,0.042,0.1c0.01,0.039,0.015,0.092,0.015,0.158c0,0.079-0.008,0.142-0.024,0.19s-0.04,0.086-0.072,0.112
			c-0.032,0.026-0.073,0.04-0.122,0.04c-0.065,0-0.115-0.023-0.152-0.069C15.027,10.105,15.005,10.014,15.005,9.889z M15.089,9.889
			c0,0.11,0.013,0.183,0.039,0.219c0.025,0.037,0.057,0.055,0.095,0.055c0.038,0,0.069-0.018,0.095-0.055
			c0.025-0.037,0.039-0.11,0.039-0.219c0-0.11-0.013-0.184-0.039-0.22c-0.026-0.036-0.058-0.055-0.096-0.055
			s-0.068,0.016-0.09,0.048C15.104,9.703,15.089,9.779,15.089,9.889z"/>
		<path fill="#D1D3D4" d="M15.54,9.71c0-0.048,0.012-0.088,0.036-0.122c0.024-0.033,0.059-0.05,0.104-0.05
			c0.042,0,0.077,0.015,0.104,0.045c0.028,0.03,0.042,0.074,0.042,0.132c0,0.057-0.014,0.101-0.042,0.131
			c-0.028,0.031-0.062,0.046-0.103,0.046c-0.041,0-0.074-0.015-0.101-0.045C15.554,9.816,15.54,9.771,15.54,9.71z M15.683,9.594
			c-0.021,0-0.037,0.009-0.051,0.027c-0.014,0.018-0.021,0.05-0.021,0.097c0,0.043,0.007,0.073,0.021,0.09
			c0.014,0.018,0.031,0.026,0.051,0.026c0.021,0,0.038-0.009,0.051-0.026c0.014-0.018,0.021-0.05,0.021-0.097
			c0-0.043-0.007-0.074-0.021-0.091S15.704,9.594,15.683,9.594z M15.684,10.244l0.366-0.706h0.067l-0.365,0.706H15.684z
			 M15.973,10.062c0-0.048,0.012-0.089,0.036-0.122s0.059-0.05,0.105-0.05c0.042,0,0.077,0.015,0.104,0.045
			c0.027,0.03,0.042,0.074,0.042,0.132c0,0.056-0.014,0.1-0.042,0.131c-0.028,0.03-0.063,0.046-0.104,0.046
			c-0.041,0-0.074-0.016-0.101-0.046S15.973,10.122,15.973,10.062z M16.117,9.946c-0.021,0-0.038,0.009-0.051,0.026
			c-0.014,0.018-0.021,0.05-0.021,0.097c0,0.042,0.007,0.073,0.021,0.09s0.031,0.027,0.051,0.027c0.021,0,0.038-0.009,0.052-0.027
			s0.021-0.05,0.021-0.097c0-0.043-0.007-0.074-0.021-0.091S16.137,9.946,16.117,9.946z"/>
		<path fill="#D1D3D4" d="M17.647,10.018V9.935h0.252v0.083H17.647z"/>
		<path fill="#D1D3D4" d="M18.277,10.219h-0.083V9.695c-0.02,0.019-0.045,0.038-0.078,0.057s-0.061,0.033-0.086,0.042v-0.08
			c0.046-0.021,0.086-0.048,0.121-0.079c0.034-0.031,0.059-0.061,0.073-0.089h0.053V10.219z"/>
		<path fill="#D1D3D4" d="M18.488,10.042l0.083-0.011c0.009,0.046,0.025,0.08,0.048,0.101c0.022,0.021,0.05,0.031,0.083,0.031
			c0.039,0,0.071-0.013,0.098-0.04s0.04-0.06,0.04-0.1c0-0.038-0.012-0.069-0.037-0.094c-0.024-0.024-0.056-0.037-0.094-0.037
			c-0.015,0-0.035,0.003-0.058,0.009l0.009-0.072c0.005,0,0.01,0.001,0.013,0.001c0.035,0,0.067-0.009,0.095-0.027
			c0.028-0.019,0.042-0.046,0.042-0.084c0-0.03-0.01-0.055-0.031-0.075c-0.02-0.02-0.046-0.03-0.079-0.03s-0.059,0.01-0.08,0.03
			c-0.021,0.02-0.035,0.05-0.041,0.09L18.496,9.72c0.01-0.055,0.033-0.098,0.069-0.128s0.08-0.045,0.133-0.045
			c0.037,0,0.07,0.008,0.101,0.023s0.054,0.037,0.07,0.064c0.016,0.027,0.024,0.056,0.024,0.086c0,0.029-0.008,0.056-0.023,0.079
			c-0.015,0.024-0.038,0.043-0.069,0.057c0.04,0.009,0.07,0.028,0.092,0.057s0.033,0.064,0.033,0.108
			c0,0.059-0.021,0.108-0.063,0.148c-0.043,0.041-0.097,0.061-0.162,0.061c-0.059,0-0.107-0.018-0.146-0.052
			C18.516,10.143,18.494,10.098,18.488,10.042z"/>
		<path fill="#D1D3D4" d="M19.052,10.219v-0.094h0.094v0.094c0,0.034-0.006,0.062-0.018,0.083c-0.012,0.021-0.032,0.038-0.058,0.049
			l-0.023-0.035c0.018-0.007,0.03-0.019,0.039-0.034c0.008-0.015,0.013-0.036,0.014-0.063H19.052z"/>
		<path fill="#D1D3D4" d="M19.694,9.713L19.613,9.72c-0.007-0.033-0.018-0.056-0.031-0.07c-0.022-0.023-0.05-0.036-0.082-0.036
			c-0.026,0-0.049,0.007-0.069,0.022c-0.026,0.019-0.046,0.046-0.062,0.083c-0.015,0.036-0.022,0.088-0.023,0.155
			c0.02-0.03,0.044-0.053,0.073-0.067c0.029-0.015,0.059-0.022,0.09-0.022c0.055,0,0.102,0.021,0.14,0.061
			c0.039,0.041,0.058,0.093,0.058,0.157c0,0.042-0.009,0.081-0.027,0.117s-0.043,0.063-0.075,0.083
			c-0.032,0.02-0.068,0.029-0.108,0.029c-0.068,0-0.125-0.025-0.167-0.075c-0.043-0.051-0.065-0.134-0.065-0.25
			c0-0.129,0.024-0.223,0.072-0.282c0.042-0.051,0.098-0.077,0.168-0.077c0.053,0,0.096,0.015,0.129,0.044
			C19.667,9.62,19.688,9.661,19.694,9.713z M19.359,10.002c0,0.028,0.006,0.055,0.018,0.081c0.012,0.026,0.029,0.046,0.05,0.059
			c0.021,0.014,0.044,0.021,0.068,0.021c0.035,0,0.065-0.014,0.09-0.042s0.037-0.066,0.037-0.114c0-0.046-0.012-0.083-0.037-0.109
			c-0.025-0.027-0.056-0.04-0.093-0.04c-0.037,0-0.069,0.013-0.095,0.04S19.359,9.958,19.359,10.002z"/>
	</g>
	<g>
		<path fill="#D1D3D4" d="M15.891,8.6l0.105-0.009c0.008,0.051,0.025,0.089,0.054,0.115c0.028,0.025,0.063,0.039,0.102,0.039
			c0.048,0,0.089-0.018,0.122-0.055c0.033-0.036,0.05-0.084,0.05-0.144c0-0.057-0.016-0.102-0.048-0.135
			c-0.032-0.033-0.074-0.049-0.125-0.049c-0.032,0-0.061,0.007-0.087,0.022s-0.046,0.034-0.061,0.057l-0.093-0.012l0.079-0.417
			h0.403v0.095h-0.324l-0.044,0.218c0.049-0.034,0.1-0.051,0.153-0.051c0.071,0,0.131,0.024,0.18,0.074
			c0.049,0.049,0.073,0.112,0.073,0.189c0,0.074-0.021,0.137-0.064,0.191c-0.052,0.065-0.123,0.098-0.213,0.098
			c-0.074,0-0.134-0.021-0.181-0.062C15.925,8.723,15.898,8.668,15.891,8.6z"/>
		<path fill="#D1D3D4" d="M16.543,8.108V7.993h0.106v0.091c0,0.049-0.005,0.085-0.017,0.107c-0.016,0.03-0.041,0.052-0.074,0.067
			l-0.024-0.039c0.02-0.008,0.035-0.021,0.045-0.039s0.015-0.042,0.016-0.072H16.543z"/>
	</g>
	<g>
		<path fill="#A7A9AC" d="M6.774,5.876c0.153,0,0.298,0.05,0.42,0.144l0.099-0.128c-0.151-0.116-0.33-0.178-0.519-0.178
			c-0.469,0-0.85,0.381-0.851,0.849H5.792l0.212,0.367l0.212-0.367H6.085C6.086,6.185,6.394,5.876,6.774,5.876z"/>
		<path fill="#A7A9AC" d="M7.756,6.567L7.544,6.2L7.332,6.567h0.131c-0.001,0.38-0.31,0.688-0.689,0.688
			c-0.153,0-0.298-0.05-0.42-0.144L6.255,7.239c0.151,0.116,0.33,0.178,0.519,0.178c0.469,0,0.85-0.381,0.851-0.85H7.756z"/>
	</g>
	<path fill="#69BD45" d="M16.641,6.448c0.164-0.177,0.369-0.388,0.512-0.481h0l0,0l0,0h0c-0.143-0.093-0.348-0.304-0.512-0.481
		l-0.165,0.12c0,0,0.128,0.143,0.247,0.266h-1.37v0.191h1.37c-0.12,0.123-0.247,0.266-0.247,0.266L16.641,6.448z"/>
	<g>
		<path fill="#D1D3D4" d="M6.579,6.621v-0.1h0.306v0.1H6.579z"/>
	</g>
	<g>
		<path fill="#D1D3D4" d="M5.511,11.444V11.36l0.301,0v0.264c-0.046,0.037-0.094,0.064-0.143,0.083
			c-0.049,0.019-0.1,0.028-0.151,0.028c-0.07,0-0.133-0.015-0.19-0.045s-0.1-0.073-0.129-0.129c-0.029-0.057-0.043-0.12-0.043-0.189
			c0-0.069,0.015-0.134,0.043-0.194c0.029-0.06,0.07-0.104,0.125-0.133C5.378,11.015,5.44,11,5.511,11
			c0.052,0,0.098,0.008,0.14,0.025s0.074,0.04,0.098,0.069c0.023,0.03,0.041,0.068,0.054,0.116l-0.085,0.023
			c-0.011-0.036-0.024-0.064-0.04-0.085c-0.016-0.021-0.039-0.037-0.068-0.049C5.58,11.086,5.547,11.08,5.511,11.08
			c-0.043,0-0.08,0.007-0.111,0.02c-0.031,0.013-0.057,0.03-0.076,0.051c-0.019,0.021-0.034,0.045-0.045,0.07
			c-0.018,0.044-0.027,0.092-0.027,0.143c0,0.063,0.011,0.116,0.033,0.159c0.021,0.043,0.053,0.074,0.095,0.095
			c0.042,0.021,0.086,0.031,0.133,0.031c0.041,0,0.081-0.008,0.119-0.023c0.039-0.016,0.068-0.032,0.088-0.05v-0.132H5.511z"/>
		<path fill="#D1D3D4" d="M5.873,11.722l0.273-0.71h0.101l0.291,0.71H6.43l-0.083-0.215H6.05l-0.078,0.215H5.873z M6.078,11.431
			h0.241l-0.074-0.197c-0.022-0.06-0.04-0.109-0.05-0.147c-0.009,0.046-0.022,0.091-0.039,0.136L6.078,11.431z"/>
		<path fill="#D1D3D4" d="M5.371,12.913H5.283v-0.556c-0.021,0.02-0.048,0.04-0.083,0.06s-0.064,0.035-0.092,0.045v-0.084
			c0.049-0.023,0.091-0.051,0.128-0.083S5.299,12.23,5.314,12.2h0.056V12.913z"/>
		<path fill="#D1D3D4" d="M5.849,12.913H5.761v-0.556c-0.021,0.02-0.048,0.04-0.083,0.06s-0.064,0.035-0.092,0.045v-0.084
			c0.049-0.023,0.091-0.051,0.128-0.083S5.777,12.23,5.792,12.2h0.056V12.913z"/>
		<path fill="#D1D3D4" d="M6.08,12.956l0.085,0.013c0.003,0.025,0.013,0.045,0.029,0.057c0.022,0.017,0.051,0.024,0.089,0.024
			c0.041,0,0.071-0.008,0.093-0.024c0.022-0.016,0.037-0.04,0.045-0.068c0.004-0.019,0.006-0.056,0.006-0.112
			c-0.039,0.045-0.086,0.067-0.143,0.067c-0.071,0-0.125-0.025-0.164-0.077c-0.039-0.051-0.059-0.111-0.059-0.184
			c0-0.049,0.009-0.094,0.027-0.135s0.043-0.074,0.077-0.096s0.074-0.034,0.119-0.034c0.061,0,0.111,0.024,0.15,0.073v-0.062h0.081
			v0.445c0,0.08-0.008,0.137-0.024,0.17c-0.016,0.033-0.042,0.06-0.078,0.079c-0.035,0.02-0.079,0.029-0.13,0.029
			c-0.062,0-0.111-0.014-0.149-0.042C6.097,13.053,6.079,13.012,6.08,12.956z M6.152,12.646c0,0.068,0.013,0.117,0.04,0.148
			c0.027,0.03,0.061,0.046,0.101,0.046c0.04,0,0.074-0.015,0.101-0.046c0.027-0.031,0.041-0.08,0.041-0.146
			c0-0.063-0.014-0.11-0.042-0.142c-0.028-0.032-0.062-0.048-0.101-0.048s-0.072,0.016-0.099,0.047
			C6.166,12.538,6.152,12.583,6.152,12.646z"/>
	</g>
	<g>
		<path fill="#D1D3D4" d="M16.599,11.722v-0.71h0.094v0.71H16.599z"/>
		<path fill="#D1D3D4" d="M16.781,11.722l0.273-0.71h0.101l0.291,0.71h-0.107l-0.083-0.215h-0.297l-0.078,0.215H16.781z
			 M16.986,11.431h0.241l-0.074-0.197c-0.022-0.06-0.04-0.109-0.05-0.147c-0.009,0.046-0.022,0.091-0.039,0.136L16.986,11.431z"/>
		<path fill="#D1D3D4" d="M16.353,12.913h-0.087v-0.556c-0.021,0.02-0.048,0.04-0.083,0.06s-0.064,0.035-0.092,0.045v-0.084
			c0.049-0.023,0.091-0.051,0.128-0.083s0.063-0.064,0.078-0.095h0.056V12.913z"/>
		<path fill="#D1D3D4" d="M16.623,12.913v-0.099h0.099v0.099c0,0.036-0.006,0.066-0.02,0.089c-0.013,0.022-0.033,0.039-0.062,0.052
			l-0.024-0.037c0.018-0.009,0.032-0.021,0.041-0.037s0.014-0.038,0.015-0.067H16.623z"/>
		<path fill="#D1D3D4" d="M16.986,12.527c-0.036-0.013-0.063-0.032-0.081-0.057c-0.017-0.024-0.026-0.054-0.026-0.088
			c0-0.052,0.019-0.095,0.056-0.13s0.086-0.053,0.148-0.053s0.112,0.018,0.149,0.054c0.038,0.036,0.057,0.08,0.057,0.132
			c0,0.033-0.008,0.062-0.026,0.086c-0.017,0.024-0.043,0.043-0.079,0.056c0.043,0.014,0.077,0.037,0.1,0.069
			c0.022,0.032,0.034,0.069,0.034,0.113c0,0.062-0.021,0.112-0.064,0.153s-0.1,0.062-0.169,0.062c-0.07,0-0.127-0.021-0.17-0.062
			c-0.043-0.042-0.064-0.094-0.064-0.156c0-0.045,0.012-0.084,0.035-0.115S16.943,12.539,16.986,12.527z M16.94,12.708
			c0,0.024,0.006,0.05,0.018,0.072c0.012,0.023,0.029,0.042,0.053,0.054c0.023,0.014,0.048,0.02,0.075,0.02
			c0.042,0,0.076-0.014,0.103-0.04c0.027-0.026,0.041-0.062,0.041-0.103c0-0.042-0.014-0.076-0.042-0.104
			c-0.028-0.027-0.063-0.041-0.104-0.041c-0.041,0-0.075,0.013-0.102,0.04C16.954,12.633,16.94,12.667,16.94,12.708z M16.968,12.38
			c0,0.033,0.011,0.061,0.033,0.082c0.021,0.021,0.05,0.032,0.084,0.032c0.033,0,0.061-0.011,0.083-0.032s0.032-0.047,0.032-0.078
			c0-0.032-0.011-0.059-0.033-0.081c-0.022-0.021-0.05-0.033-0.083-0.033c-0.034,0-0.061,0.011-0.083,0.032
			S16.968,12.35,16.968,12.38z"/>
		<path fill="#D1D3D4" d="M17.732,12.913h-0.087v-0.556c-0.021,0.02-0.048,0.04-0.083,0.06s-0.064,0.035-0.092,0.045v-0.084
			c0.049-0.023,0.091-0.051,0.128-0.083s0.063-0.064,0.078-0.095h0.056V12.913z"/>
	</g>
	<g>
		<path fill="#FFFFFF" d="M8.382,11.723l-0.275-0.71h0.102l0.185,0.516c0.015,0.042,0.027,0.08,0.038,0.116
			c0.011-0.039,0.023-0.077,0.038-0.116l0.192-0.516h0.096l-0.278,0.71H8.382z"/>
		<path fill="#FFFFFF" d="M8.843,11.723v-0.71h0.513v0.083H8.937v0.218H9.33v0.083H8.937v0.242h0.436v0.084H8.843z"/>
		<path fill="#FFFFFF" d="M9.502,11.723v-0.71h0.096l0.373,0.557v-0.557h0.09v0.71H9.965l-0.373-0.558v0.558H9.502z"/>
		<path fill="#FFFFFF" d="M10.233,11.723v-0.099h0.099v0.099H10.233z"/>
		<path fill="#FFFFFF" d="M8.75,12.563c0-0.083,0.009-0.151,0.026-0.203c0.018-0.051,0.043-0.09,0.077-0.118
			s0.077-0.042,0.129-0.042c0.038,0,0.071,0.007,0.1,0.023c0.029,0.015,0.052,0.037,0.071,0.066
			c0.019,0.029,0.033,0.064,0.044,0.105s0.016,0.098,0.016,0.167c0,0.084-0.009,0.15-0.026,0.202s-0.042,0.091-0.077,0.118
			c-0.034,0.028-0.077,0.042-0.129,0.042c-0.069,0-0.123-0.024-0.162-0.073C8.773,12.793,8.75,12.697,8.75,12.563z M8.84,12.563
			c0,0.117,0.014,0.194,0.041,0.232c0.027,0.039,0.061,0.059,0.101,0.059s0.074-0.02,0.101-0.059
			c0.027-0.038,0.041-0.115,0.041-0.232c0-0.117-0.014-0.194-0.041-0.233c-0.027-0.038-0.061-0.058-0.102-0.058
			c-0.04,0-0.072,0.017-0.096,0.051C8.855,12.367,8.84,12.447,8.84,12.563z"/>
		<path fill="#FFFFFF" d="M9.582,12.914v-0.17H9.273v-0.08l0.324-0.46h0.071v0.46h0.096v0.08H9.668v0.17H9.582z M9.582,12.664v-0.32
			l-0.223,0.32H9.582z"/>
	</g>
	<g>
		<path fill="#FFFFFF" d="M13.009,12.254c-0.032,0.027-0.063,0.047-0.093,0.058c-0.03,0.011-0.062,0.017-0.096,0.017
			c-0.057,0-0.1-0.014-0.13-0.042c-0.031-0.028-0.046-0.063-0.046-0.106c0-0.025,0.006-0.048,0.018-0.069
			c0.011-0.021,0.026-0.038,0.045-0.05s0.04-0.022,0.063-0.028c0.017-0.005,0.043-0.009,0.078-0.013
			c0.07-0.008,0.122-0.019,0.156-0.03c0-0.012,0-0.02,0-0.022c0-0.036-0.008-0.061-0.025-0.075c-0.022-0.02-0.055-0.03-0.099-0.03
			c-0.041,0-0.071,0.007-0.091,0.022c-0.02,0.014-0.034,0.04-0.043,0.076l-0.085-0.012c0.008-0.037,0.021-0.066,0.039-0.088
			c0.018-0.022,0.043-0.04,0.077-0.052c0.034-0.012,0.073-0.018,0.117-0.018s0.08,0.005,0.107,0.015
			c0.027,0.01,0.047,0.023,0.061,0.039c0.013,0.016,0.022,0.036,0.027,0.06c0.003,0.015,0.004,0.042,0.004,0.08v0.117
			c0,0.081,0.002,0.132,0.006,0.154c0.003,0.021,0.011,0.042,0.022,0.062h-0.091C13.018,12.3,13.012,12.279,13.009,12.254z
			 M13.002,12.06c-0.032,0.013-0.079,0.024-0.143,0.033c-0.036,0.005-0.061,0.011-0.076,0.017c-0.015,0.007-0.026,0.016-0.034,0.028
			c-0.008,0.013-0.012,0.026-0.012,0.042c0,0.023,0.009,0.043,0.026,0.058c0.018,0.016,0.043,0.023,0.077,0.023
			s0.063-0.007,0.09-0.022c0.026-0.015,0.045-0.035,0.058-0.061c0.009-0.02,0.014-0.049,0.014-0.087V12.06z"/>
		<path fill="#FFFFFF" d="M13.192,12.061c0-0.095,0.027-0.166,0.08-0.211c0.044-0.038,0.098-0.057,0.162-0.057
			c0.07,0,0.128,0.023,0.173,0.069s0.067,0.11,0.067,0.192c0,0.066-0.01,0.119-0.03,0.156c-0.02,0.038-0.049,0.067-0.087,0.088
			s-0.08,0.032-0.124,0.032c-0.072,0-0.13-0.023-0.175-0.069S13.192,12.147,13.192,12.061z M13.282,12.061
			c0,0.066,0.014,0.115,0.043,0.148s0.065,0.049,0.109,0.049c0.043,0,0.079-0.017,0.108-0.049c0.029-0.033,0.043-0.083,0.043-0.151
			c0-0.063-0.015-0.112-0.043-0.145s-0.064-0.049-0.107-0.049c-0.044,0-0.08,0.017-0.109,0.049
			C13.296,11.945,13.282,11.995,13.282,12.061z"/>
		<path fill="#FFFFFF" d="M14.114,12.318v-0.076c-0.04,0.058-0.094,0.087-0.163,0.087c-0.03,0-0.059-0.006-0.085-0.018
			s-0.046-0.026-0.059-0.044s-0.022-0.039-0.027-0.064c-0.003-0.017-0.005-0.044-0.005-0.082v-0.319h0.087v0.286
			c0,0.045,0.001,0.076,0.005,0.092c0.006,0.023,0.018,0.041,0.035,0.054s0.04,0.02,0.066,0.02c0.026,0,0.051-0.007,0.074-0.02
			c0.023-0.014,0.039-0.032,0.048-0.055c0.01-0.023,0.015-0.057,0.015-0.101v-0.276h0.087v0.515H14.114z M13.985,11.657
			l-0.055,0.082h-0.1l0.104-0.135h0.093l0.109,0.135h-0.099L13.985,11.657z"/>
		<path fill="#FFFFFF" d="M14.519,12.24l0.013,0.077c-0.025,0.005-0.047,0.008-0.066,0.008c-0.032,0-0.056-0.005-0.074-0.015
			c-0.018-0.01-0.03-0.023-0.037-0.04c-0.007-0.016-0.011-0.05-0.011-0.103v-0.296h-0.064v-0.068h0.064v-0.127l0.086-0.052v0.18
			h0.088v0.068h-0.088v0.301c0,0.025,0.001,0.041,0.005,0.048c0.003,0.007,0.008,0.013,0.015,0.017
			c0.007,0.004,0.017,0.006,0.03,0.006C14.49,12.243,14.503,12.242,14.519,12.24z"/>
	</g>
	<g>
		<path fill="#69BD45" d="M9.931,7.97H9.619V5.986C9.544,6.057,9.446,6.128,9.324,6.201c-0.122,0.071-0.231,0.125-0.328,0.16V6.06
			C9.17,5.978,9.323,5.879,9.453,5.763c0.13-0.117,0.222-0.229,0.277-0.339h0.201V7.97z"/>
		<path fill="#69BD45" d="M11.727,7.97V7.363h-1.101V7.078l1.158-1.644h0.254v1.644h0.343v0.285h-0.343V7.97H11.727z M11.727,7.078
			V5.934l-0.794,1.144H11.727z"/>
		<path fill="#69BD45" d="M13.697,7.97V7.363h-1.101V7.078l1.158-1.644h0.254v1.644h0.343v0.285h-0.343V7.97H13.697z M13.697,7.078
			V5.934l-0.794,1.144H13.697z"/>
	</g>
	<g id="Cadran_heure_1_">
		
			<line fill="#FFFFFF" stroke="#FFFFFF" stroke-width="0.1417" stroke-miterlimit="10" x1="11.501" y1="3.331" x2="11.501" y2="5.285"/>
		
			<line fill="#FFFFFF" stroke="#FFFFFF" stroke-width="0.1417" stroke-miterlimit="10" x1="11.501" y1="18.75" x2="11.501" y2="20.704"/>
		
			<line fill="#FFFFFF" stroke="#FFFFFF" stroke-width="0.1417" stroke-miterlimit="10" x1="20.187" y1="12.012" x2="18.233" y2="12.012"/>
		
			<line fill="#FFFFFF" stroke="#FFFFFF" stroke-width="0.1417" stroke-miterlimit="10" x1="4.768" y1="12.012" x2="2.814" y2="12.012"/>
		
			<line fill="#FFFFFF" stroke="#FFFFFF" stroke-width="0.1417" stroke-miterlimit="10" x1="7.157" y1="4.494" x2="8.134" y2="6.187"/>
		
			<line fill="#FFFFFF" stroke="#FFFFFF" stroke-width="0.1417" stroke-miterlimit="10" x1="14.867" y1="17.848" x2="15.844" y2="19.541"/>
		
			<line fill="#FFFFFF" stroke="#FFFFFF" stroke-width="0.1417" stroke-miterlimit="10" x1="19.021" y1="7.669" x2="17.328" y2="8.647"/>
		
			<line fill="#FFFFFF" stroke="#FFFFFF" stroke-width="0.1417" stroke-miterlimit="10" x1="5.668" y1="15.379" x2="3.975" y2="16.356"/>
		
			<line fill="#FFFFFF" stroke="#FFFFFF" stroke-width="0.1417" stroke-miterlimit="10" x1="3.977" y1="7.674" x2="5.67" y2="8.651"/>
		
			<line fill="#FFFFFF" stroke="#FFFFFF" stroke-width="0.1417" stroke-miterlimit="10" x1="17.331" y1="15.384" x2="19.024" y2="16.361"/>
		
			<line fill="#FFFFFF" stroke="#FFFFFF" stroke-width="0.1417" stroke-miterlimit="10" x1="15.839" y1="4.492" x2="14.862" y2="6.185"/>
		
			<line fill="#FFFFFF" stroke="#FFFFFF" stroke-width="0.1417" stroke-miterlimit="10" x1="8.13" y1="17.845" x2="7.152" y2="19.538"/>
	</g>
	<path fill="#FFFFFF" d="M11.5,6.864c-0.075,0-0.136,0.061-0.136,0.136v5c0,0.075,0.061,0.136,0.136,0.136
		c0.075,0,0.136-0.061,0.136-0.136V7C11.636,6.925,11.575,6.864,11.5,6.864z M11.5,12.068c-0.034,0-0.062-0.028-0.062-0.062
		c0-0.034,0.028-0.062,0.062-0.062c0.034,0,0.062,0.028,0.062,0.062C11.562,12.04,11.534,12.068,11.5,12.068z"/>
	<path fill="#FFFFFF" d="M13.702,4.652c-0.072-0.021-0.147,0.019-0.169,0.091l-2.158,7.218c-0.021,0.072,0.019,0.147,0.091,0.169
		c0.072,0.021,0.147-0.019,0.169-0.091l2.158-7.218C13.814,4.749,13.773,4.674,13.702,4.652z M11.486,12.065
		c-0.033-0.01-0.052-0.044-0.042-0.077s0.045-0.052,0.077-0.042c0.033,0.01,0.052,0.044,0.042,0.077
		C11.553,12.057,11.519,12.075,11.486,12.065z"/>
	<path fill="#EE2725" d="M11.26,11.66l-0.138-0.102c-0.045-0.033-0.098-0.027-0.144-0.005L4.842,7
		c-0.028-0.02-0.067-0.015-0.087,0.013C4.735,7.04,4.741,7.079,4.768,7.1l6.135,4.553c-0.008,0.051,0.002,0.104,0.046,0.137
		l0.138,0.103c-0.047,0.163,0.006,0.344,0.15,0.45s0.332,0.105,0.475,0.013l0.535,0.397c0.064,0.048,0.155,0.034,0.202-0.03
		c0.048-0.064,0.034-0.155-0.03-0.202l-0.534-0.396c0.048-0.164-0.004-0.346-0.149-0.454S11.402,11.566,11.26,11.66z M11.541,12.048
		c-0.02,0.028-0.059,0.033-0.087,0.013s-0.033-0.059-0.013-0.087c0.02-0.028,0.059-0.033,0.087-0.013S11.561,12.021,11.541,12.048z"
		/>
</g>
<polygon fill="#69BD45" points="38.147,11.923 28.873,7.952 28.873,10.292 14.153,10.292 14.153,13.554 28.873,13.554 
	28.873,15.894 "/>
</svg>
