<?xml version="1.0" encoding="utf-8"?>
<!DOCTYPE svg PUBLIC "-//W3C//DTD SVG 1.1//EN" "http://www.w3.org/Graphics/SVG/1.1/DTD/svg11.dtd">
<svg version="1.1" xmlns="http://www.w3.org/2000/svg" xmlns:xlink="http://www.w3.org/1999/xlink" x="0px" y="0px" width="24px"
	 height="24px" viewBox="0 0 24 24" enable-background="new 0 0 24 24" xml:space="preserve">
<g id="SetDefault">
	<g>
		<path fill="#AAAAAA" d="M12.103,7.286c-2.578,0-4.668,2.09-4.668,4.668c0,2.578,2.09,4.668,4.668,4.668s4.668-2.09,4.668-4.668
			C16.771,9.375,14.681,7.286,12.103,7.286z M12.103,15.414c-1.911,0-3.46-1.549-3.46-3.46c0-1.911,1.549-3.46,3.46-3.46
			s3.46,1.549,3.46,3.46C15.563,13.864,14.014,15.414,12.103,15.414z"/>
		<polygon fill="#AAAAAA" points="14.383,4.976 9.823,4.976 9.226,8.314 14.98,8.314 		"/>
		<polygon fill="#AAAAAA" points="14.383,19.024 9.823,19.024 9.226,15.686 14.98,15.686 		"/>
	</g>
	<path fill="#FF1313" d="M13.768,11.999l1.886-1.886c0.081-0.081,0.081-0.213,0-0.294l-1.372-1.372
		c-0.078-0.078-0.216-0.078-0.294,0l-1.886,1.886l-1.886-1.886c-0.078-0.078-0.216-0.078-0.294,0L8.552,9.819
		C8.513,9.858,8.491,9.911,8.491,9.966c0,0.055,0.022,0.108,0.061,0.147l1.886,1.886l-1.886,1.886
		c-0.039,0.039-0.061,0.092-0.061,0.147c0,0.055,0.022,0.108,0.061,0.147l1.372,1.372c0.041,0.04,0.094,0.061,0.147,0.061
		c0.053,0,0.106-0.02,0.147-0.061l1.886-1.886l1.886,1.886c0.04,0.04,0.093,0.061,0.147,0.061c0.053,0,0.106-0.02,0.147-0.061
		l1.371-1.371c0.081-0.081,0.081-0.213,0-0.294L13.768,11.999z"/>
</g>
</svg>
