<?xml version="1.0" encoding="utf-8"?>
<svg version="1.1" xmlns="http://www.w3.org/2000/svg" xmlns:xlink="http://www.w3.org/1999/xlink" x="0px" y="0px" width="24px"
	 height="24px" viewBox="0 0 24 24" enable-background="new 0 0 24 24" xml:space="preserve">
<g id="target_manual">
	<path fill="#67E86A" d="M16.438,8.901L9.729,15.61c-0.054,0.054-0.09,0.122-0.103,0.196L8.825,20.15
		c-0.022,0.121,0.016,0.245,0.103,0.332s0.211,0.126,0.332,0.103l4.343-0.801c0.074-0.014,0.143-0.05,0.196-0.103l6.709-6.709
		c0.391-0.391,0.39-1.029-0.002-1.421l-2.648-2.648C17.467,8.511,16.829,8.51,16.438,8.901z M12.907,18.755
		c0.085,0.085,0.116,0.211,0.08,0.326c-0.016,0.051-0.044,0.096-0.08,0.132c-0.046,0.046-0.106,0.078-0.173,0.09l-2.164,0.382
		c-0.215-0.007-0.428-0.091-0.592-0.255c-0.164-0.164-0.248-0.377-0.255-0.591l0.382-2.164c0.021-0.119,0.107-0.216,0.222-0.253
		c0.115-0.036,0.241-0.005,0.326,0.08L12.907,18.755z M19.949,12.025c0.124,0.124,0.124,0.324,0,0.447l-5.929,5.929
		c-0.124,0.124-0.324,0.124-0.447,0l-0.233-0.233c-0.124-0.124-0.124-0.324,0-0.447l5.929-5.929c0.124-0.124,0.324-0.124,0.447,0
		L19.949,12.025z M18.793,10.85c0.124,0.124,0.124,0.324,0,0.447l-5.929,5.929c-0.124,0.124-0.324,0.124-0.447,0l-0.233-0.233
		c-0.124-0.124-0.124-0.324,0-0.447l5.929-5.929c0.124-0.124,0.324-0.124,0.447,0L18.793,10.85z M17.637,9.675
		c0.124,0.124,0.124,0.324,0,0.447l-5.929,5.929c-0.124,0.124-0.324,0.124-0.447,0l-0.233-0.233c-0.124-0.124-0.124-0.324,0-0.447
		l5.929-5.929c0.124-0.124,0.324-0.124,0.447,0L17.637,9.675z"/>
    <path fill="#67E86A" d="M5.453,9.325c-0.003,0-0.006,0-0.01,0C5.031,9.317,4.661,8.827,4.43,7.979
		C4.261,7.361,4.108,6.716,3.96,6.092C3.867,5.701,3.774,5.31,3.677,4.924l-0.064-0.26C3.394,3.77,3.168,2.847,2.577,2.743
		C2.509,2.731,2.463,2.665,2.475,2.595c0.012-0.07,0.077-0.114,0.146-0.104c0.752,0.133,0.999,1.138,1.237,2.11l0.064,0.259
		c0.097,0.388,0.19,0.78,0.283,1.172c0.147,0.622,0.3,1.264,0.468,1.878C4.864,8.61,5.168,9.064,5.448,9.069
		c0.001,0,0.003,0,0.005,0c0.263,0,0.537-0.394,0.753-1.083C6.317,7.63,6.413,7.247,6.505,6.877l0.074-0.293
		C6.66,6.262,6.737,5.935,6.815,5.609C6.973,4.94,7.137,4.248,7.336,3.608c0.221-0.71,0.551-1.103,0.928-1.106
		c0.002,0,0.003,0,0.005,0c0.379,0,0.717,0.39,0.951,1.1c0.165,0.5,0.305,1.039,0.439,1.56l0.105,0.403
		c0.087,0.332,0.171,0.668,0.255,1.004c0.143,0.574,0.29,1.169,0.456,1.729c0.136,0.462,0.367,0.757,0.603,0.769
		c0.211,0.026,0.432-0.218,0.6-0.625c0.161-0.391,0.309-0.847,0.451-1.393c0.198-0.76,0.385-1.53,0.572-2.3
		c0.086-0.355,0.173-0.711,0.26-1.065c0.167-0.676,0.481-1.066,0.961-1.191c0.066-0.017,0.136,0.024,0.154,0.092
		c0.017,0.068-0.023,0.138-0.091,0.156c-0.387,0.101-0.634,0.421-0.779,1.005c-0.087,0.354-0.174,0.709-0.26,1.064
		c-0.188,0.771-0.375,1.543-0.573,2.304c-0.145,0.557-0.297,1.024-0.462,1.426c-0.289,0.703-0.651,0.793-0.846,0.782
		c-0.35-0.018-0.661-0.374-0.832-0.951c-0.167-0.565-0.315-1.163-0.459-1.74c-0.083-0.335-0.166-0.67-0.253-1.001L9.415,5.226
		C9.282,4.709,9.143,4.174,8.981,3.682c-0.192-0.58-0.458-0.926-0.712-0.926c-0.001,0-0.001,0-0.002,0
		c-0.252,0.002-0.51,0.349-0.69,0.928C7.38,4.316,7.217,5.004,7.06,5.668C6.982,5.996,6.905,6.324,6.823,6.647L6.75,6.939
		C6.656,7.314,6.56,7.701,6.446,8.063C6.121,9.103,5.728,9.325,5.453,9.325z"/>
    <path fill="#67E86A" d="M13.949,6.338h-2.831c-0.232,0-0.421-0.193-0.421-0.431V4.19H5.856l0,1.717
        c0,0.238-0.188,0.431-0.42,0.431h-2.84c-0.232,0-0.42-0.193-0.42-0.431c0-0.238,0.188-0.431,0.42-0.431h2.42l0-1.717
        c0-0.238,0.188-0.431,0.42-0.431h5.682c0.232,0,0.421,0.193,0.421,0.431v1.717h2.411c0.232,0,0.421,0.193,0.421,0.431
        C14.37,6.145,14.181,6.338,13.949,6.338z"/>
</g>
</svg>
