<?xml version="1.0" encoding="utf-8"?>
<svg version="1.1" id="Layer_1" xmlns="http://www.w3.org/2000/svg" xmlns:xlink="http://www.w3.org/1999/xlink" x="0px" y="0px"
	 width="100px" height="100px" viewBox="0 0 100 100" enable-background="new 0 0 100 100" xml:space="preserve">
<circle cx="50" cy="50" r="50"/>
<g>
	<g>
		<g>
			<circle fill="#313131" cx="29.652" cy="29.711" r="18.5"/>
		</g>
		<g>
			<path fill="#FFFFFF" d="M14.72,34.571h0.688v1.845c0,0.292,0.009,0.482,0.026,0.569c0.029,0.139,0.1,0.251,0.21,0.335
				c0.111,0.084,0.262,0.127,0.455,0.127c0.195,0,0.342-0.04,0.441-0.12c0.099-0.08,0.159-0.178,0.179-0.294
				c0.02-0.116,0.03-0.309,0.03-0.579v-1.885h0.688v1.789c0,0.409-0.019,0.698-0.056,0.867s-0.105,0.311-0.206,0.427
				s-0.233,0.209-0.401,0.278s-0.386,0.104-0.655,0.104c-0.326,0-0.572-0.038-0.74-0.113s-0.301-0.173-0.398-0.293
				c-0.098-0.12-0.162-0.246-0.193-0.377c-0.045-0.195-0.067-0.483-0.067-0.864V34.571z"/>
			<path fill="#FFFFFF" d="M17.927,37.273l0.656-0.1c0.028,0.127,0.084,0.224,0.169,0.29c0.085,0.066,0.205,0.099,0.358,0.099
				c0.169,0,0.296-0.031,0.381-0.093c0.058-0.043,0.086-0.102,0.086-0.174c0-0.05-0.016-0.091-0.047-0.123
				c-0.032-0.031-0.105-0.06-0.218-0.086c-0.527-0.116-0.861-0.222-1.001-0.318c-0.195-0.133-0.293-0.318-0.293-0.555
				c0-0.214,0.084-0.394,0.253-0.539s0.431-0.219,0.785-0.219c0.338,0,0.589,0.055,0.753,0.165c0.164,0.11,0.277,0.273,0.339,0.488
				l-0.616,0.114c-0.026-0.096-0.076-0.169-0.15-0.221s-0.179-0.077-0.315-0.077c-0.172,0-0.295,0.024-0.369,0.072
				c-0.05,0.034-0.075,0.079-0.075,0.133c0,0.046,0.022,0.086,0.065,0.118c0.059,0.043,0.262,0.104,0.61,0.184
				s0.59,0.176,0.729,0.291c0.136,0.116,0.205,0.278,0.205,0.486c0,0.226-0.095,0.42-0.284,0.583
				c-0.189,0.163-0.469,0.244-0.839,0.244c-0.336,0-0.603-0.068-0.798-0.205C18.116,37.692,17.987,37.507,17.927,37.273z"/>
			<path fill="#FFFFFF" d="M22.233,37.192l0.65,0.109c-0.083,0.239-0.216,0.42-0.396,0.545c-0.181,0.125-0.406,0.187-0.678,0.187
				c-0.429,0-0.747-0.14-0.953-0.42c-0.163-0.225-0.244-0.508-0.244-0.851c0-0.409,0.107-0.729,0.321-0.961s0.484-0.348,0.811-0.348
				c0.367,0,0.657,0.122,0.869,0.364c0.212,0.243,0.314,0.614,0.305,1.114h-1.636c0.005,0.194,0.057,0.344,0.158,0.452
				c0.101,0.108,0.226,0.162,0.376,0.162c0.102,0,0.188-0.028,0.258-0.084C22.145,37.406,22.198,37.316,22.233,37.192z
				 M22.271,36.532c-0.005-0.189-0.054-0.333-0.146-0.431c-0.093-0.099-0.206-0.147-0.339-0.147c-0.143,0-0.26,0.052-0.353,0.155
				c-0.093,0.104-0.139,0.245-0.137,0.423H22.271z"/>
			<path fill="#FFFFFF" d="M24.076,37.978h-0.653V35.51h0.606v0.351c0.104-0.166,0.197-0.275,0.28-0.328s0.177-0.079,0.282-0.079
				c0.149,0,0.292,0.041,0.43,0.124l-0.202,0.569c-0.11-0.071-0.212-0.107-0.307-0.107c-0.092,0-0.169,0.025-0.232,0.075
				c-0.063,0.051-0.114,0.142-0.15,0.273c-0.037,0.131-0.055,0.407-0.055,0.827V37.978z"/>
			<path fill="#FFFFFF" d="M29.525,37.978h-0.749l-0.297-0.774h-1.362l-0.281,0.774h-0.729l1.327-3.407h0.727L29.525,37.978z
				 M28.259,36.63l-0.469-1.265l-0.46,1.265H28.259z"/>
			<path fill="#FFFFFF" d="M32.038,36.239l-0.644,0.116c-0.021-0.128-0.071-0.226-0.147-0.291s-0.176-0.098-0.298-0.098
				c-0.163,0-0.292,0.056-0.39,0.168c-0.097,0.112-0.145,0.3-0.145,0.563c0,0.293,0.049,0.5,0.147,0.621
				c0.099,0.121,0.23,0.181,0.396,0.181c0.124,0,0.225-0.035,0.304-0.105c0.079-0.071,0.135-0.192,0.167-0.364l0.641,0.109
				c-0.066,0.294-0.194,0.517-0.383,0.667c-0.189,0.15-0.442,0.225-0.76,0.225c-0.361,0-0.649-0.114-0.863-0.341
				c-0.215-0.228-0.322-0.543-0.322-0.946c0-0.408,0.107-0.725,0.323-0.952c0.215-0.227,0.507-0.341,0.874-0.341
				c0.3,0,0.54,0.065,0.717,0.194S31.96,35.974,32.038,36.239z"/>
			<path fill="#FFFFFF" d="M33.664,35.51v0.521h-0.446v0.995c0,0.201,0.004,0.319,0.013,0.352c0.008,0.033,0.028,0.061,0.058,0.083
				c0.03,0.021,0.067,0.032,0.11,0.032c0.061,0,0.148-0.021,0.263-0.063l0.056,0.506c-0.152,0.065-0.324,0.098-0.516,0.098
				c-0.118,0-0.224-0.02-0.318-0.059c-0.094-0.04-0.164-0.091-0.208-0.153c-0.044-0.063-0.075-0.147-0.092-0.254
				c-0.014-0.076-0.021-0.229-0.021-0.46V36.03h-0.299V35.51h0.299v-0.491l0.656-0.381v0.872H33.664z"/>
			<path fill="#FFFFFF" d="M34.118,35.175v-0.604h0.653v0.604H34.118z M34.118,37.978V35.51h0.653v2.468H34.118z"/>
			<path fill="#FFFFFF" d="M35.289,36.708c0-0.217,0.054-0.427,0.161-0.629c0.107-0.203,0.258-0.358,0.454-0.465
				s0.415-0.161,0.657-0.161c0.373,0,0.679,0.122,0.918,0.364c0.238,0.243,0.358,0.549,0.358,0.919c0,0.373-0.121,0.683-0.362,0.928
				c-0.241,0.246-0.544,0.368-0.91,0.368c-0.226,0-0.442-0.051-0.647-0.153c-0.206-0.102-0.361-0.252-0.468-0.45
				C35.342,37.233,35.289,36.992,35.289,36.708z M35.958,36.744c0,0.245,0.058,0.432,0.174,0.563c0.116,0.13,0.259,0.195,0.43,0.195
				s0.313-0.065,0.429-0.195c0.116-0.13,0.173-0.319,0.173-0.567c0-0.242-0.058-0.427-0.173-0.558
				c-0.115-0.13-0.258-0.195-0.429-0.195s-0.313,0.065-0.43,0.195C36.016,36.312,35.958,36.499,35.958,36.744z"/>
			<path fill="#FFFFFF" d="M40.592,37.978h-0.653v-1.26c0-0.266-0.014-0.438-0.042-0.517c-0.028-0.078-0.073-0.139-0.136-0.182
				c-0.063-0.043-0.138-0.065-0.227-0.065c-0.113,0-0.215,0.031-0.305,0.093s-0.151,0.144-0.185,0.246
				c-0.033,0.103-0.05,0.292-0.05,0.567v1.118h-0.653V35.51h0.606v0.362c0.215-0.279,0.487-0.418,0.813-0.418
				c0.144,0,0.276,0.026,0.395,0.078s0.209,0.118,0.271,0.199c0.061,0.081,0.104,0.172,0.127,0.274
				c0.024,0.103,0.036,0.249,0.036,0.439V37.978z"/>
			<path fill="#FFFFFF" d="M44.108,37.978h-0.653v-2.461c-0.239,0.223-0.52,0.388-0.844,0.495v-0.593
				c0.17-0.056,0.355-0.162,0.555-0.317c0.2-0.156,0.337-0.337,0.412-0.545h0.53V37.978z"/>
		</g>
		<g>
			<g>
				<path fill="#82C567" d="M30.389,26.171c-0.075-0.002-0.154,0.007-0.184-0.093c-0.025-0.085,0.001-0.145,0.067-0.2
					c0.342-0.285,0.404-0.672,0.388-1.113c0-0.081,0.007-0.19-0.001-0.298c-0.039-0.496-0.428-0.876-0.937-0.919
					c-0.461-0.04-0.932,0.264-1.015,0.733c-0.1,0.566-0.152,1.151,0.347,1.599c0.063,0.057,0.094,0.112,0.065,0.198
					c-0.032,0.097-0.11,0.093-0.185,0.092c-0.189-0.003-0.364,0.045-0.529,0.136c-0.53,0.292-0.569,0.765-0.09,1.124
					c0.708,0.531,2.153,0.459,2.805-0.14c0.257-0.236,0.277-0.505,0.046-0.768C30.961,26.291,30.698,26.177,30.389,26.171z
					 M30.51,27.241c-0.655,0.265-1.312,0.272-1.938-0.086c-0.316-0.18-0.299-0.361,0.025-0.532c0.135-0.071,0.282-0.117,0.437-0.106
					c0.19,0.013,0.347-0.026,0.417-0.226c0.076-0.218,0.167-0.449-0.057-0.626c-0.36-0.286-0.384-0.668-0.363-1.08
					c0.021-0.397,0.278-0.686,0.632-0.68c0.361,0.006,0.616,0.288,0.625,0.692c0.002,0.065,0,0.13,0,0.249
					c0.053,0.274-0.047,0.539-0.308,0.751c-0.215,0.175-0.21,0.402-0.128,0.647c0.082,0.244,0.26,0.296,0.485,0.276
					c0.021-0.002,0.044,0.002,0.064,0.008c0.212,0.051,0.479,0.091,0.517,0.327C30.957,27.092,30.689,27.168,30.51,27.241z"/>
			</g>
			<g>
				<path fill="#82C567" d="M33.527,24.936h-0.724c-0.082-0.353-0.221-0.683-0.408-0.982l0.513-0.513c0.13-0.13,0.13-0.341,0-0.471
					l-0.56-0.56c-0.13-0.13-0.341-0.13-0.471,0l-0.513,0.513c-0.299-0.187-0.629-0.327-0.982-0.408v-0.724
					c0-0.184-0.149-0.333-0.333-0.333h-0.792c-0.184,0-0.333,0.149-0.333,0.333v0.724c-0.353,0.082-0.683,0.221-0.982,0.408
					l-0.514-0.513c-0.13-0.13-0.341-0.13-0.471,0l-0.56,0.56c-0.13,0.13-0.13,0.341,0,0.471l0.513,0.513
					c-0.187,0.299-0.327,0.629-0.408,0.982h-0.724c-0.184,0-0.333,0.149-0.333,0.333v0.792c0,0.184,0.149,0.333,0.333,0.333h0.724
					c0.082,0.353,0.221,0.683,0.408,0.982l-0.513,0.514c-0.13,0.13-0.13,0.341,0,0.471l0.56,0.56c0.13,0.13,0.341,0.13,0.471,0
					l0.513-0.513c0.299,0.187,0.629,0.327,0.982,0.408v0.724c0,0.184,0.149,0.333,0.333,0.333h0.792
					c0.184,0,0.333-0.149,0.333-0.333v-0.724c0.353-0.082,0.684-0.221,0.982-0.408l0.513,0.513c0.13,0.13,0.341,0.13,0.471,0
					l0.56-0.56c0.13-0.13,0.13-0.341,0-0.471l-0.513-0.513c0.187-0.299,0.327-0.629,0.408-0.982h0.724
					c0.184,0,0.333-0.149,0.333-0.333v-0.792C33.861,25.086,33.712,24.936,33.527,24.936z M29.652,28.358
					c-1.485,0-2.692-1.208-2.692-2.692c0-1.485,1.208-2.692,2.692-2.692s2.692,1.207,2.692,2.692
					C32.345,27.15,31.137,28.358,29.652,28.358z"/>
			</g>
		</g>
	</g>
	<g>
		<g>
			<circle fill="#313131" cx="70.348" cy="29.711" r="18.5"/>
		</g>
		<g>
			<path fill="#FFFFFF" d="M55.545,33.891h0.688v1.845c0,0.292,0.009,0.482,0.026,0.569c0.029,0.139,0.1,0.251,0.21,0.335
				c0.11,0.084,0.262,0.127,0.454,0.127c0.195,0,0.343-0.04,0.441-0.12c0.1-0.08,0.159-0.178,0.18-0.294
				c0.02-0.116,0.03-0.309,0.03-0.579v-1.885h0.688v1.789c0,0.409-0.019,0.698-0.056,0.867S58.101,36.858,58,36.974
				c-0.1,0.116-0.233,0.209-0.4,0.278c-0.168,0.069-0.386,0.104-0.655,0.104c-0.326,0-0.572-0.038-0.74-0.113
				s-0.301-0.173-0.398-0.293c-0.098-0.12-0.162-0.246-0.193-0.377c-0.045-0.195-0.067-0.483-0.067-0.864V33.891z"/>
			<path fill="#FFFFFF" d="M58.752,36.593l0.655-0.1c0.028,0.127,0.084,0.224,0.17,0.29c0.085,0.066,0.204,0.099,0.357,0.099
				c0.169,0,0.296-0.031,0.381-0.093c0.058-0.043,0.087-0.102,0.087-0.174c0-0.05-0.016-0.091-0.047-0.123
				c-0.032-0.031-0.105-0.06-0.219-0.086c-0.526-0.116-0.86-0.222-1.001-0.318c-0.195-0.133-0.293-0.318-0.293-0.555
				c0-0.214,0.084-0.394,0.253-0.539s0.431-0.219,0.785-0.219c0.338,0,0.589,0.055,0.754,0.165c0.164,0.11,0.276,0.273,0.339,0.488
				l-0.616,0.114c-0.026-0.096-0.076-0.169-0.149-0.221c-0.074-0.051-0.179-0.077-0.315-0.077c-0.172,0-0.295,0.024-0.369,0.072
				c-0.05,0.034-0.074,0.079-0.074,0.133c0,0.046,0.021,0.086,0.065,0.118c0.059,0.043,0.262,0.104,0.609,0.184
				s0.591,0.176,0.729,0.291c0.137,0.116,0.205,0.278,0.205,0.486c0,0.226-0.095,0.42-0.284,0.583
				c-0.188,0.163-0.469,0.244-0.839,0.244c-0.336,0-0.603-0.068-0.798-0.205C58.94,37.012,58.813,36.827,58.752,36.593z"/>
			<path fill="#FFFFFF" d="M63.059,36.512l0.65,0.109c-0.084,0.239-0.216,0.42-0.396,0.545c-0.181,0.125-0.406,0.187-0.678,0.187
				c-0.429,0-0.746-0.14-0.952-0.42c-0.163-0.225-0.244-0.508-0.244-0.851c0-0.409,0.106-0.729,0.32-0.961s0.484-0.348,0.812-0.348
				c0.367,0,0.656,0.122,0.869,0.364c0.212,0.243,0.313,0.614,0.305,1.114h-1.637c0.005,0.194,0.058,0.344,0.158,0.452
				s0.227,0.162,0.377,0.162c0.102,0,0.188-0.028,0.258-0.084C62.97,36.726,63.022,36.636,63.059,36.512z M63.096,35.852
				c-0.005-0.189-0.054-0.333-0.146-0.431c-0.093-0.099-0.206-0.147-0.34-0.147c-0.143,0-0.26,0.052-0.353,0.155
				c-0.094,0.104-0.139,0.245-0.138,0.423H63.096z"/>
			<path fill="#FFFFFF" d="M64.901,37.297h-0.653V34.83h0.606v0.351c0.104-0.166,0.197-0.275,0.28-0.328s0.177-0.079,0.282-0.079
				c0.148,0,0.292,0.041,0.43,0.124l-0.202,0.569c-0.109-0.071-0.212-0.107-0.307-0.107c-0.092,0-0.169,0.025-0.232,0.075
				c-0.063,0.051-0.113,0.142-0.149,0.273c-0.037,0.131-0.055,0.407-0.055,0.827V37.297z"/>
			<path fill="#FFFFFF" d="M70.351,37.297h-0.749l-0.297-0.774h-1.362l-0.281,0.774h-0.729l1.327-3.407h0.728L70.351,37.297z
				 M69.084,35.95l-0.47-1.265l-0.46,1.265H69.084z"/>
			<path fill="#FFFFFF" d="M72.862,35.559l-0.644,0.116c-0.021-0.128-0.071-0.226-0.147-0.291c-0.077-0.065-0.177-0.098-0.299-0.098
				c-0.163,0-0.292,0.056-0.39,0.168c-0.097,0.112-0.145,0.3-0.145,0.563c0,0.293,0.049,0.5,0.147,0.621
				c0.099,0.121,0.23,0.181,0.396,0.181c0.123,0,0.225-0.035,0.304-0.105c0.079-0.071,0.135-0.192,0.168-0.364l0.641,0.109
				c-0.066,0.294-0.194,0.517-0.383,0.667c-0.189,0.15-0.442,0.225-0.76,0.225c-0.361,0-0.649-0.114-0.863-0.341
				c-0.215-0.228-0.322-0.543-0.322-0.946c0-0.408,0.107-0.725,0.323-0.952c0.215-0.227,0.507-0.341,0.874-0.341
				c0.3,0,0.539,0.065,0.717,0.194C72.657,35.097,72.785,35.294,72.862,35.559z"/>
			<path fill="#FFFFFF" d="M74.489,34.83v0.521h-0.446v0.995c0,0.201,0.004,0.319,0.013,0.352s0.028,0.061,0.059,0.083
				c0.03,0.021,0.066,0.032,0.11,0.032c0.061,0,0.147-0.021,0.263-0.063l0.056,0.506c-0.152,0.065-0.324,0.098-0.517,0.098
				c-0.117,0-0.224-0.02-0.318-0.059c-0.094-0.04-0.163-0.091-0.208-0.153c-0.044-0.063-0.074-0.147-0.092-0.254
				c-0.014-0.076-0.021-0.229-0.021-0.46V35.35h-0.3V34.83h0.3v-0.491l0.655-0.381v0.872H74.489z"/>
			<path fill="#FFFFFF" d="M74.942,34.495v-0.604h0.653v0.604H74.942z M74.942,37.297V34.83h0.653v2.468H74.942z"/>
			<path fill="#FFFFFF" d="M76.113,36.028c0-0.217,0.054-0.427,0.161-0.629c0.106-0.203,0.258-0.358,0.454-0.465
				c0.195-0.107,0.415-0.161,0.656-0.161c0.373,0,0.68,0.122,0.918,0.364c0.238,0.243,0.358,0.549,0.358,0.919
				c0,0.373-0.121,0.683-0.362,0.928c-0.24,0.246-0.544,0.368-0.909,0.368c-0.227,0-0.442-0.051-0.647-0.153
				c-0.205-0.102-0.361-0.252-0.468-0.45C76.167,36.553,76.113,36.312,76.113,36.028z M76.783,36.063
				c0,0.245,0.058,0.432,0.174,0.563c0.116,0.13,0.26,0.195,0.43,0.195c0.171,0,0.313-0.065,0.429-0.195
				c0.116-0.13,0.174-0.319,0.174-0.567c0-0.242-0.058-0.427-0.174-0.558c-0.115-0.13-0.258-0.195-0.429-0.195
				c-0.17,0-0.313,0.065-0.43,0.195C76.841,35.631,76.783,35.818,76.783,36.063z"/>
			<path fill="#FFFFFF" d="M81.417,37.297h-0.653v-1.26c0-0.266-0.014-0.438-0.042-0.517c-0.027-0.078-0.073-0.139-0.136-0.182
				s-0.138-0.065-0.227-0.065c-0.113,0-0.215,0.031-0.305,0.093s-0.151,0.144-0.185,0.246c-0.033,0.103-0.05,0.292-0.05,0.567v1.118
				h-0.653V34.83h0.606v0.362c0.216-0.279,0.487-0.418,0.813-0.418c0.145,0,0.276,0.026,0.396,0.078s0.209,0.118,0.271,0.199
				s0.104,0.172,0.128,0.274c0.024,0.103,0.036,0.249,0.036,0.439V37.297z"/>
			<path fill="#FFFFFF" d="M85.468,36.691v0.606h-2.289c0.024-0.229,0.099-0.447,0.223-0.652s0.369-0.478,0.734-0.817
				c0.294-0.274,0.475-0.46,0.542-0.558c0.089-0.135,0.135-0.268,0.135-0.4c0-0.146-0.04-0.257-0.118-0.335
				c-0.078-0.079-0.186-0.118-0.324-0.118c-0.136,0-0.244,0.041-0.325,0.123c-0.08,0.083-0.127,0.219-0.14,0.409l-0.65-0.065
				c0.039-0.359,0.16-0.618,0.365-0.774c0.204-0.157,0.46-0.235,0.767-0.235c0.336,0,0.601,0.091,0.793,0.272
				c0.191,0.181,0.288,0.407,0.288,0.676c0,0.153-0.028,0.299-0.083,0.438s-0.142,0.284-0.262,0.436
				c-0.079,0.101-0.221,0.245-0.427,0.435c-0.206,0.189-0.337,0.314-0.392,0.376c-0.056,0.062-0.1,0.122-0.134,0.181H85.468z"/>
		</g>
		<g>
			<g>
				<path fill="#82C567" d="M71.085,26.171c-0.075-0.002-0.154,0.007-0.184-0.093c-0.025-0.085,0.001-0.145,0.067-0.2
					c0.342-0.285,0.404-0.672,0.388-1.113c0-0.081,0.007-0.19-0.001-0.298c-0.039-0.496-0.428-0.876-0.937-0.919
					c-0.461-0.04-0.932,0.264-1.015,0.733c-0.1,0.566-0.152,1.151,0.347,1.599c0.063,0.057,0.094,0.112,0.065,0.198
					c-0.032,0.097-0.11,0.093-0.185,0.092c-0.189-0.003-0.364,0.045-0.529,0.136c-0.53,0.292-0.569,0.765-0.09,1.124
					c0.708,0.531,2.153,0.459,2.805-0.14c0.257-0.236,0.277-0.505,0.046-0.768C71.657,26.291,71.394,26.177,71.085,26.171z
					 M71.206,27.241c-0.655,0.265-1.312,0.272-1.938-0.086c-0.316-0.18-0.299-0.361,0.025-0.532
					c0.135-0.071,0.282-0.117,0.437-0.106c0.19,0.013,0.347-0.026,0.417-0.226c0.076-0.218,0.167-0.449-0.057-0.626
					c-0.36-0.286-0.384-0.668-0.363-1.08c0.021-0.397,0.278-0.686,0.632-0.68c0.361,0.006,0.616,0.288,0.625,0.692
					c0.002,0.065,0,0.13,0,0.249c0.053,0.274-0.047,0.539-0.308,0.751c-0.215,0.175-0.21,0.402-0.128,0.647
					c0.082,0.244,0.26,0.296,0.485,0.276c0.021-0.002,0.044,0.002,0.064,0.008c0.212,0.051,0.479,0.091,0.517,0.327
					C71.653,27.092,71.385,27.168,71.206,27.241z"/>
			</g>
			<g>
				<path fill="#82C567" d="M74.223,24.936H73.5c-0.082-0.353-0.221-0.683-0.408-0.982l0.513-0.513c0.13-0.13,0.13-0.341,0-0.471
					l-0.56-0.56c-0.13-0.13-0.341-0.13-0.471,0l-0.513,0.513c-0.299-0.187-0.629-0.327-0.982-0.408v-0.724
					c0-0.184-0.149-0.333-0.333-0.333h-0.792c-0.184,0-0.333,0.149-0.333,0.333v0.724c-0.353,0.082-0.683,0.221-0.982,0.408
					l-0.514-0.513c-0.13-0.13-0.341-0.13-0.471,0l-0.56,0.56c-0.13,0.13-0.13,0.341,0,0.471l0.513,0.513
					c-0.187,0.299-0.327,0.629-0.408,0.982h-0.724c-0.184,0-0.333,0.149-0.333,0.333v0.792c0,0.184,0.149,0.333,0.333,0.333h0.724
					c0.082,0.353,0.221,0.683,0.408,0.982l-0.513,0.514c-0.13,0.13-0.13,0.341,0,0.471l0.56,0.56c0.13,0.13,0.341,0.13,0.471,0
					l0.513-0.513c0.299,0.187,0.629,0.327,0.982,0.408v0.724c0,0.184,0.149,0.333,0.333,0.333h0.792
					c0.184,0,0.333-0.149,0.333-0.333v-0.724c0.353-0.082,0.684-0.221,0.982-0.408l0.513,0.513c0.13,0.13,0.341,0.13,0.471,0
					l0.56-0.56c0.13-0.13,0.13-0.341,0-0.471l-0.513-0.513c0.187-0.299,0.327-0.629,0.408-0.982h0.724
					c0.184,0,0.333-0.149,0.333-0.333v-0.792C74.557,25.086,74.408,24.936,74.223,24.936z M70.349,28.358
					c-1.485,0-2.692-1.208-2.692-2.692c0-1.485,1.208-2.692,2.692-2.692s2.692,1.207,2.692,2.692
					C73.041,27.15,71.833,28.358,70.349,28.358z"/>
			</g>
		</g>
	</g>
	<g>
		<g>
			<circle fill="#313131" cx="30.348" cy="69.711" r="18.5"/>
		</g>
		<g>
			<path fill="#FFFFFF" d="M14.997,73.891h0.688v1.846c0,0.293,0.009,0.482,0.026,0.569c0.029,0.14,0.1,0.251,0.21,0.336
				c0.111,0.084,0.262,0.126,0.455,0.126c0.195,0,0.342-0.039,0.441-0.119s0.159-0.178,0.179-0.294c0.02-0.116,0.03-0.31,0.03-0.579
				v-1.885h0.688v1.79c0,0.409-0.019,0.697-0.056,0.866s-0.105,0.312-0.206,0.428s-0.233,0.209-0.401,0.278
				c-0.167,0.068-0.386,0.103-0.655,0.103c-0.326,0-0.572-0.037-0.74-0.112s-0.301-0.173-0.398-0.293s-0.162-0.246-0.193-0.377
				c-0.045-0.195-0.067-0.483-0.067-0.865V73.891z"/>
			<path fill="#FFFFFF" d="M18.203,76.594l0.656-0.1c0.028,0.127,0.084,0.223,0.169,0.289c0.085,0.065,0.205,0.099,0.358,0.099
				c0.169,0,0.296-0.031,0.381-0.093c0.058-0.044,0.086-0.102,0.086-0.175c0-0.049-0.016-0.09-0.047-0.123
				c-0.032-0.03-0.105-0.06-0.218-0.086c-0.527-0.116-0.861-0.222-1.001-0.318c-0.195-0.133-0.293-0.318-0.293-0.556
				c0-0.213,0.084-0.393,0.253-0.539c0.169-0.146,0.431-0.218,0.785-0.218c0.338,0,0.589,0.055,0.753,0.165
				c0.164,0.109,0.277,0.272,0.339,0.487l-0.616,0.114c-0.026-0.096-0.076-0.17-0.15-0.221s-0.179-0.077-0.315-0.077
				c-0.172,0-0.295,0.024-0.369,0.072c-0.05,0.034-0.075,0.078-0.075,0.133c0,0.046,0.022,0.086,0.065,0.118
				c0.059,0.044,0.262,0.104,0.61,0.184s0.59,0.176,0.729,0.291c0.136,0.116,0.205,0.277,0.205,0.485
				c0,0.227-0.095,0.421-0.284,0.583c-0.189,0.163-0.469,0.244-0.839,0.244c-0.336,0-0.603-0.068-0.798-0.204
				C18.392,77.013,18.264,76.828,18.203,76.594z"/>
			<path fill="#FFFFFF" d="M22.51,76.513l0.65,0.109c-0.083,0.238-0.216,0.42-0.396,0.545c-0.181,0.124-0.406,0.187-0.678,0.187
				c-0.429,0-0.747-0.14-0.953-0.421c-0.163-0.225-0.244-0.508-0.244-0.851c0-0.408,0.107-0.729,0.321-0.961
				c0.214-0.231,0.484-0.347,0.811-0.347c0.367,0,0.657,0.121,0.869,0.363s0.314,0.614,0.305,1.114h-1.636
				c0.005,0.193,0.057,0.345,0.158,0.452c0.101,0.107,0.226,0.161,0.376,0.161c0.102,0,0.188-0.027,0.258-0.083
				S22.474,76.637,22.51,76.513z M22.547,75.853c-0.005-0.189-0.054-0.333-0.146-0.432c-0.093-0.098-0.206-0.147-0.339-0.147
				c-0.143,0-0.26,0.052-0.353,0.156c-0.093,0.104-0.139,0.244-0.137,0.423H22.547z"/>
			<path fill="#FFFFFF" d="M24.353,77.298H23.7V74.83h0.606v0.351c0.104-0.166,0.197-0.274,0.28-0.327s0.177-0.079,0.282-0.079
				c0.149,0,0.292,0.041,0.43,0.123l-0.202,0.569c-0.11-0.071-0.212-0.107-0.307-0.107c-0.092,0-0.169,0.025-0.232,0.076
				c-0.063,0.05-0.114,0.141-0.15,0.272c-0.037,0.132-0.055,0.408-0.055,0.827V77.298z"/>
			<path fill="#FFFFFF" d="M29.802,77.298h-0.749l-0.297-0.773h-1.362l-0.281,0.773h-0.729l1.327-3.407h0.727L29.802,77.298z
				 M28.535,75.95l-0.469-1.265l-0.46,1.265H28.535z"/>
			<path fill="#FFFFFF" d="M32.314,75.56l-0.644,0.116c-0.021-0.129-0.071-0.226-0.147-0.29c-0.077-0.065-0.176-0.098-0.298-0.098
				c-0.163,0-0.292,0.056-0.39,0.168c-0.097,0.112-0.145,0.3-0.145,0.563c0,0.293,0.049,0.5,0.147,0.621
				c0.099,0.12,0.23,0.181,0.396,0.181c0.124,0,0.225-0.035,0.304-0.105s0.135-0.191,0.167-0.364l0.641,0.109
				c-0.066,0.295-0.194,0.517-0.383,0.667s-0.442,0.226-0.76,0.226c-0.361,0-0.649-0.113-0.863-0.342
				c-0.215-0.228-0.322-0.543-0.322-0.945c0-0.407,0.107-0.725,0.323-0.952c0.215-0.227,0.507-0.34,0.874-0.34
				c0.3,0,0.54,0.064,0.717,0.193C32.109,75.098,32.236,75.295,32.314,75.56z"/>
			<path fill="#FFFFFF" d="M33.94,74.83v0.521h-0.446v0.994c0,0.202,0.004,0.319,0.013,0.353c0.008,0.033,0.028,0.061,0.058,0.082
				c0.03,0.022,0.067,0.033,0.11,0.033c0.061,0,0.148-0.021,0.263-0.063l0.056,0.507c-0.152,0.065-0.324,0.098-0.516,0.098
				c-0.118,0-0.224-0.02-0.318-0.06c-0.094-0.039-0.164-0.09-0.208-0.153c-0.044-0.063-0.075-0.147-0.092-0.254
				c-0.014-0.076-0.021-0.229-0.021-0.46v-1.076H32.54V74.83h0.299v-0.49l0.656-0.382v0.872H33.94z"/>
			<path fill="#FFFFFF" d="M34.394,74.495v-0.604h0.653v0.604H34.394z M34.394,77.298V74.83h0.653v2.468H34.394z"/>
			<path fill="#FFFFFF" d="M35.565,76.029c0-0.217,0.054-0.427,0.161-0.63s0.258-0.358,0.454-0.465
				c0.196-0.107,0.415-0.16,0.657-0.16c0.373,0,0.679,0.121,0.918,0.363c0.238,0.242,0.358,0.549,0.358,0.919
				c0,0.374-0.121,0.684-0.362,0.929c-0.241,0.245-0.544,0.368-0.91,0.368c-0.226,0-0.442-0.051-0.647-0.153
				c-0.206-0.103-0.361-0.252-0.468-0.449C35.619,76.553,35.565,76.313,35.565,76.029z M36.234,76.063
				c0,0.245,0.058,0.433,0.174,0.563c0.116,0.131,0.259,0.195,0.43,0.195s0.313-0.064,0.429-0.195
				c0.116-0.13,0.173-0.319,0.173-0.566c0-0.242-0.058-0.428-0.173-0.558c-0.115-0.131-0.258-0.195-0.429-0.195
				s-0.313,0.064-0.43,0.195C36.292,75.632,36.234,75.819,36.234,76.063z"/>
			<path fill="#FFFFFF" d="M40.868,77.298h-0.653v-1.26c0-0.267-0.014-0.438-0.042-0.517s-0.073-0.14-0.136-0.183
				c-0.063-0.043-0.138-0.065-0.227-0.065c-0.113,0-0.215,0.031-0.305,0.093c-0.09,0.063-0.151,0.145-0.185,0.247
				c-0.033,0.102-0.05,0.291-0.05,0.566v1.118h-0.653V74.83h0.606v0.362c0.215-0.279,0.487-0.418,0.813-0.418
				c0.144,0,0.276,0.025,0.395,0.077c0.119,0.053,0.209,0.118,0.271,0.199c0.061,0.08,0.104,0.172,0.127,0.274
				c0.024,0.102,0.036,0.248,0.036,0.438V77.298z"/>
			<path fill="#FFFFFF" d="M42.69,76.394l0.632-0.076c0.02,0.161,0.074,0.284,0.163,0.369s0.195,0.128,0.321,0.128
				c0.135,0,0.248-0.051,0.34-0.153s0.138-0.24,0.138-0.414c0-0.164-0.044-0.294-0.132-0.39c-0.088-0.097-0.196-0.145-0.323-0.145
				c-0.084,0-0.184,0.017-0.3,0.049l0.072-0.532c0.177,0.005,0.312-0.033,0.404-0.115c0.093-0.081,0.14-0.189,0.14-0.324
				c0-0.114-0.034-0.206-0.103-0.273c-0.068-0.068-0.159-0.103-0.271-0.103c-0.112,0-0.207,0.038-0.286,0.116
				c-0.079,0.077-0.127,0.19-0.144,0.339l-0.602-0.102c0.042-0.206,0.105-0.371,0.189-0.494s0.202-0.22,0.354-0.291
				c0.151-0.07,0.32-0.105,0.508-0.105c0.32,0,0.578,0.103,0.771,0.307c0.16,0.168,0.239,0.356,0.239,0.567
				c0,0.299-0.164,0.537-0.49,0.716c0.195,0.042,0.351,0.136,0.468,0.281c0.117,0.146,0.175,0.321,0.175,0.527
				c0,0.299-0.109,0.554-0.328,0.765s-0.49,0.315-0.816,0.315c-0.308,0-0.563-0.088-0.767-0.266S42.723,76.681,42.69,76.394z"/>
		</g>
		<g>
			<g>
				<path fill="#82C567" d="M31.085,66.171c-0.075-0.002-0.154,0.007-0.184-0.093c-0.025-0.085,0.001-0.145,0.067-0.2
					c0.342-0.285,0.404-0.672,0.388-1.113c0-0.081,0.007-0.19-0.001-0.298c-0.039-0.496-0.428-0.876-0.937-0.919
					c-0.461-0.04-0.932,0.264-1.015,0.733c-0.1,0.566-0.152,1.151,0.347,1.599c0.063,0.057,0.094,0.112,0.065,0.198
					c-0.032,0.097-0.11,0.093-0.185,0.092c-0.189-0.003-0.364,0.045-0.529,0.136c-0.53,0.292-0.569,0.765-0.09,1.124
					c0.708,0.531,2.153,0.459,2.805-0.14c0.257-0.236,0.277-0.505,0.046-0.768C31.657,66.291,31.394,66.177,31.085,66.171z
					 M31.206,67.241c-0.655,0.265-1.312,0.272-1.938-0.086c-0.316-0.18-0.299-0.361,0.025-0.532
					c0.135-0.071,0.282-0.117,0.437-0.106c0.19,0.013,0.347-0.026,0.417-0.226c0.076-0.218,0.167-0.449-0.057-0.626
					c-0.36-0.286-0.384-0.668-0.363-1.08c0.021-0.397,0.278-0.686,0.632-0.68c0.361,0.006,0.616,0.288,0.625,0.692
					c0.002,0.065,0,0.13,0,0.249c0.053,0.274-0.047,0.539-0.308,0.751c-0.215,0.175-0.21,0.402-0.128,0.647
					c0.082,0.244,0.26,0.296,0.485,0.276c0.021-0.002,0.044,0.002,0.064,0.008c0.212,0.051,0.479,0.091,0.517,0.327
					C31.653,67.092,31.385,67.168,31.206,67.241z"/>
			</g>
			<g>
				<path fill="#82C567" d="M34.223,64.936H33.5c-0.082-0.353-0.221-0.683-0.408-0.982l0.513-0.513c0.13-0.13,0.13-0.341,0-0.471
					l-0.56-0.56c-0.13-0.13-0.341-0.13-0.471,0l-0.513,0.513c-0.299-0.187-0.629-0.327-0.982-0.408v-0.724
					c0-0.184-0.149-0.333-0.333-0.333h-0.792c-0.184,0-0.333,0.149-0.333,0.333v0.724c-0.353,0.082-0.683,0.221-0.982,0.408
					l-0.514-0.513c-0.13-0.13-0.341-0.13-0.471,0l-0.56,0.56c-0.13,0.13-0.13,0.341,0,0.471l0.513,0.513
					c-0.187,0.299-0.327,0.629-0.408,0.982h-0.724c-0.184,0-0.333,0.149-0.333,0.333v0.792c0,0.184,0.149,0.333,0.333,0.333h0.724
					c0.082,0.353,0.221,0.683,0.408,0.982l-0.513,0.514c-0.13,0.13-0.13,0.341,0,0.471l0.56,0.56c0.13,0.13,0.341,0.13,0.471,0
					l0.513-0.513c0.299,0.187,0.629,0.327,0.982,0.408v0.724c0,0.184,0.149,0.333,0.333,0.333h0.792
					c0.184,0,0.333-0.149,0.333-0.333v-0.724c0.353-0.082,0.684-0.221,0.982-0.408l0.513,0.513c0.13,0.13,0.341,0.13,0.471,0
					l0.56-0.56c0.13-0.13,0.13-0.341,0-0.471l-0.513-0.513c0.187-0.299,0.327-0.629,0.408-0.982h0.724
					c0.184,0,0.333-0.149,0.333-0.333v-0.792C34.557,65.086,34.408,64.936,34.223,64.936z M30.349,68.358
					c-1.485,0-2.692-1.208-2.692-2.692c0-1.485,1.208-2.692,2.692-2.692c1.485,0,2.692,1.207,2.692,2.692
					C33.041,67.15,31.833,68.358,30.349,68.358z"/>
			</g>
		</g>
	</g>
	<g>
		<g>
			<circle fill="#313131" cx="70.348" cy="70.289" r="18.5"/>
		</g>
		<g>
			<g>
				<path fill="#FFFFFF" d="M54.997,74.468h0.688v1.846c0,0.293,0.009,0.482,0.025,0.569c0.029,0.14,0.1,0.251,0.21,0.336
					c0.111,0.084,0.263,0.126,0.455,0.126c0.195,0,0.342-0.039,0.441-0.119c0.099-0.08,0.158-0.178,0.179-0.294
					s0.03-0.31,0.03-0.579v-1.885h0.688v1.79c0,0.409-0.019,0.697-0.056,0.866s-0.105,0.312-0.205,0.428
					c-0.101,0.116-0.233,0.209-0.401,0.278c-0.167,0.068-0.386,0.103-0.655,0.103c-0.325,0-0.572-0.037-0.74-0.112
					s-0.301-0.173-0.398-0.293s-0.162-0.246-0.192-0.377c-0.045-0.195-0.067-0.483-0.067-0.865V74.468z"/>
			</g>
			<g>
				<path fill="#FFFFFF" d="M58.203,77.171l0.656-0.1c0.027,0.127,0.084,0.223,0.169,0.289c0.085,0.065,0.205,0.099,0.358,0.099
					c0.169,0,0.296-0.031,0.381-0.093c0.058-0.044,0.086-0.102,0.086-0.175c0-0.049-0.016-0.09-0.047-0.123
					c-0.032-0.03-0.104-0.06-0.218-0.086c-0.527-0.116-0.861-0.222-1.002-0.318c-0.195-0.133-0.293-0.318-0.293-0.556
					c0-0.213,0.085-0.393,0.254-0.539c0.169-0.146,0.431-0.218,0.785-0.218c0.338,0,0.589,0.055,0.753,0.165
					c0.164,0.109,0.277,0.272,0.339,0.487l-0.615,0.114c-0.026-0.096-0.076-0.17-0.15-0.221c-0.073-0.051-0.179-0.077-0.314-0.077
					c-0.172,0-0.295,0.024-0.369,0.072c-0.05,0.034-0.075,0.078-0.075,0.133c0,0.046,0.022,0.086,0.065,0.118
					c0.059,0.044,0.263,0.104,0.61,0.184s0.59,0.176,0.729,0.291c0.136,0.116,0.204,0.277,0.204,0.485
					c0,0.227-0.095,0.421-0.283,0.583c-0.189,0.163-0.469,0.244-0.839,0.244c-0.337,0-0.603-0.068-0.799-0.204
					C58.393,77.59,58.264,77.405,58.203,77.171z"/>
			</g>
			<g>
				<path fill="#FFFFFF" d="M62.51,77.09l0.65,0.109c-0.083,0.238-0.216,0.42-0.396,0.545c-0.181,0.124-0.406,0.187-0.678,0.187
					c-0.429,0-0.747-0.14-0.953-0.421c-0.162-0.225-0.244-0.508-0.244-0.851c0-0.408,0.107-0.729,0.321-0.961
					c0.214-0.231,0.484-0.347,0.811-0.347c0.367,0,0.657,0.121,0.869,0.363c0.213,0.242,0.314,0.614,0.305,1.114H61.56
					c0.005,0.193,0.057,0.345,0.158,0.452c0.101,0.107,0.226,0.161,0.376,0.161c0.103,0,0.188-0.027,0.258-0.083
					C62.422,77.304,62.475,77.214,62.51,77.09z M62.547,76.43c-0.005-0.189-0.054-0.333-0.146-0.432
					c-0.093-0.098-0.206-0.147-0.339-0.147c-0.143,0-0.261,0.052-0.354,0.156c-0.093,0.104-0.139,0.244-0.137,0.423H62.547z"/>
			</g>
			<g>
				<path fill="#FFFFFF" d="M64.353,77.875H63.7v-2.468h0.606v0.351c0.104-0.166,0.196-0.274,0.279-0.327s0.178-0.079,0.282-0.079
					c0.149,0,0.293,0.041,0.431,0.123l-0.202,0.569c-0.11-0.071-0.213-0.107-0.307-0.107c-0.092,0-0.169,0.025-0.232,0.076
					c-0.063,0.05-0.114,0.141-0.15,0.272s-0.055,0.408-0.055,0.827V77.875z"/>
			</g>
			<g>
				<path fill="#FFFFFF" d="M69.802,77.875h-0.748l-0.298-0.773h-1.361l-0.281,0.773h-0.729l1.327-3.407h0.727L69.802,77.875z
					 M68.535,76.527l-0.469-1.265l-0.461,1.265H68.535z"/>
			</g>
			<g>
				<path fill="#FFFFFF" d="M72.314,76.137l-0.645,0.116c-0.021-0.129-0.07-0.226-0.147-0.29c-0.076-0.065-0.176-0.098-0.298-0.098
					c-0.163,0-0.293,0.056-0.39,0.168s-0.146,0.3-0.146,0.563c0,0.293,0.05,0.5,0.147,0.621c0.099,0.12,0.23,0.181,0.396,0.181
					c0.124,0,0.226-0.035,0.305-0.105s0.135-0.191,0.167-0.364l0.642,0.109c-0.066,0.295-0.194,0.517-0.384,0.667
					c-0.188,0.15-0.442,0.226-0.76,0.226c-0.361,0-0.648-0.113-0.863-0.342c-0.215-0.228-0.321-0.543-0.321-0.945
					c0-0.407,0.107-0.725,0.322-0.952c0.216-0.227,0.507-0.34,0.874-0.34c0.301,0,0.54,0.064,0.717,0.193
					C72.109,75.675,72.236,75.872,72.314,76.137z"/>
			</g>
			<g>
				<path fill="#FFFFFF" d="M73.94,75.407v0.521h-0.445v0.994c0,0.202,0.004,0.319,0.013,0.353c0.008,0.033,0.027,0.061,0.058,0.082
					c0.03,0.022,0.067,0.033,0.11,0.033c0.061,0,0.148-0.021,0.263-0.063l0.056,0.507c-0.151,0.065-0.323,0.098-0.516,0.098
					c-0.118,0-0.224-0.02-0.318-0.06c-0.095-0.039-0.164-0.09-0.208-0.153c-0.044-0.063-0.075-0.147-0.092-0.254
					c-0.014-0.076-0.021-0.229-0.021-0.46v-1.076H72.54v-0.521h0.299v-0.49l0.656-0.382v0.872H73.94z"/>
			</g>
			<g>
				<path fill="#FFFFFF" d="M74.395,75.072v-0.604h0.652v0.604H74.395z M74.395,77.875v-2.468h0.652v2.468H74.395z"/>
			</g>
			<g>
				<path fill="#FFFFFF" d="M75.565,76.606c0-0.217,0.054-0.427,0.16-0.63c0.107-0.203,0.259-0.358,0.454-0.465
					c0.196-0.107,0.415-0.16,0.657-0.16c0.373,0,0.679,0.121,0.918,0.363c0.238,0.242,0.357,0.549,0.357,0.919
					c0,0.374-0.12,0.684-0.361,0.929s-0.544,0.368-0.91,0.368c-0.226,0-0.441-0.051-0.646-0.153
					c-0.206-0.103-0.361-0.252-0.469-0.449C75.619,77.13,75.565,76.89,75.565,76.606z M76.234,76.641
					c0,0.245,0.059,0.433,0.175,0.563c0.116,0.131,0.259,0.195,0.43,0.195c0.17,0,0.313-0.064,0.429-0.195
					c0.115-0.13,0.173-0.319,0.173-0.566c0-0.242-0.058-0.428-0.173-0.558c-0.115-0.131-0.259-0.195-0.429-0.195
					c-0.171,0-0.313,0.064-0.43,0.195C76.293,76.209,76.234,76.396,76.234,76.641z"/>
			</g>
			<g>
				<path fill="#FFFFFF" d="M80.868,77.875h-0.652v-1.26c0-0.267-0.015-0.438-0.042-0.517c-0.028-0.078-0.073-0.14-0.136-0.183
					c-0.063-0.043-0.139-0.065-0.227-0.065c-0.113,0-0.215,0.031-0.305,0.093c-0.09,0.063-0.151,0.145-0.185,0.247
					c-0.033,0.102-0.051,0.291-0.051,0.566v1.118h-0.652v-2.468h0.606v0.362c0.215-0.279,0.486-0.418,0.813-0.418
					c0.144,0,0.275,0.025,0.395,0.077c0.119,0.053,0.21,0.118,0.271,0.199c0.061,0.08,0.104,0.172,0.127,0.274
					c0.024,0.102,0.036,0.248,0.036,0.438V77.875z"/>
			</g>
			<g>
				<path fill="#FFFFFF" d="M83.994,77.875v-0.686H82.6v-0.571l1.479-2.164h0.548v2.161h0.423v0.574h-0.423v0.686H83.994z
					 M83.994,76.615v-1.164l-0.783,1.164H83.994z"/>
			</g>
		</g>
		<g>
			<g>
				<path fill="#82C567" d="M71.085,66.748c-0.075-0.002-0.154,0.007-0.184-0.093c-0.025-0.085,0.001-0.145,0.067-0.2
					c0.342-0.285,0.404-0.672,0.388-1.113c0-0.081,0.007-0.19-0.001-0.298c-0.039-0.496-0.428-0.876-0.937-0.919
					c-0.461-0.04-0.932,0.264-1.015,0.733c-0.1,0.566-0.152,1.151,0.347,1.599c0.063,0.057,0.094,0.112,0.065,0.198
					c-0.032,0.097-0.11,0.093-0.185,0.092c-0.189-0.003-0.364,0.045-0.529,0.136c-0.53,0.292-0.569,0.765-0.09,1.124
					c0.708,0.531,2.153,0.459,2.805-0.14c0.257-0.236,0.277-0.505,0.046-0.768C71.657,66.868,71.394,66.754,71.085,66.748z
					 M71.206,67.818c-0.655,0.265-1.312,0.272-1.938-0.086c-0.316-0.18-0.299-0.361,0.025-0.532
					c0.135-0.071,0.282-0.117,0.437-0.106c0.19,0.013,0.347-0.026,0.417-0.226c0.076-0.218,0.167-0.449-0.057-0.626
					c-0.36-0.286-0.384-0.668-0.363-1.08c0.021-0.397,0.278-0.686,0.632-0.68c0.361,0.006,0.616,0.288,0.625,0.692
					c0.002,0.065,0,0.13,0,0.249c0.053,0.274-0.047,0.539-0.308,0.751c-0.215,0.175-0.21,0.402-0.128,0.647
					c0.082,0.244,0.26,0.296,0.485,0.276c0.021-0.002,0.044,0.002,0.064,0.008c0.212,0.051,0.479,0.091,0.517,0.327
					C71.653,67.669,71.385,67.746,71.206,67.818z"/>
			</g>
			<g>
				<path fill="#82C567" d="M74.223,65.513H73.5c-0.082-0.353-0.221-0.683-0.408-0.982l0.513-0.513c0.13-0.13,0.13-0.341,0-0.471
					l-0.56-0.56c-0.13-0.13-0.341-0.13-0.471,0l-0.513,0.513c-0.299-0.187-0.629-0.327-0.982-0.408v-0.724
					c0-0.184-0.149-0.333-0.333-0.333h-0.792c-0.184,0-0.333,0.149-0.333,0.333v0.724c-0.353,0.082-0.683,0.221-0.982,0.408
					l-0.514-0.513c-0.13-0.13-0.341-0.13-0.471,0l-0.56,0.56c-0.13,0.13-0.13,0.341,0,0.471l0.513,0.513
					c-0.187,0.299-0.327,0.629-0.408,0.982h-0.724c-0.184,0-0.333,0.149-0.333,0.333v0.792c0,0.184,0.149,0.333,0.333,0.333h0.724
					c0.082,0.353,0.221,0.683,0.408,0.982l-0.513,0.514c-0.13,0.13-0.13,0.341,0,0.471l0.56,0.56c0.13,0.13,0.341,0.13,0.471,0
					l0.513-0.513c0.299,0.187,0.629,0.327,0.982,0.408v0.724c0,0.184,0.149,0.333,0.333,0.333h0.792
					c0.184,0,0.333-0.149,0.333-0.333v-0.724c0.353-0.082,0.684-0.221,0.982-0.408l0.513,0.513c0.13,0.13,0.341,0.13,0.471,0
					l0.56-0.56c0.13-0.13,0.13-0.341,0-0.471l-0.513-0.513c0.187-0.299,0.327-0.629,0.408-0.982h0.724
					c0.184,0,0.333-0.149,0.333-0.333v-0.792C74.557,65.663,74.408,65.513,74.223,65.513z M70.349,68.935
					c-1.485,0-2.692-1.208-2.692-2.692s1.208-2.692,2.692-2.692s2.692,1.207,2.692,2.692S71.833,68.935,70.349,68.935z"/>
			</g>
		</g>
	</g>
</g>
</svg>
