<?xml version="1.0" encoding="utf-8"?>
<!DOCTYPE svg PUBLIC "-//W3C//DTD SVG 1.1//EN" "http://www.w3.org/Graphics/SVG/1.1/DTD/svg11.dtd">
<svg version="1.1" id="Layer_1" xmlns="http://www.w3.org/2000/svg" xmlns:xlink="http://www.w3.org/1999/xlink" x="0px" y="0px"
	 width="48px" height="128px" viewBox="0 0 48 128" enable-background="new 0 0 48 128" xml:space="preserve">
<rect display="none" width="48" height="128"/>
<g id="Woman_Back">
	<path fill="#EDC3AD" stroke="#000000" stroke-width="0.5669" stroke-miterlimit="10" d="M42.13,64.399
		c-0.959-2.587-1.369-5.263-1.454-8.015c-0.104-3.403-0.421-6.795-0.485-10.204c-0.025-1.354-0.389-2.731-0.89-4.042
		c-0.742-1.941-0.889-3.984-0.855-6.043c-0.097-3.294,0.016-6.593-0.227-9.884c-0.136-1.842-1.362-4.914-4.076-5.624
		c-1.69-0.442-3.426-0.772-5-1.59c-0.163-0.085-0.325-0.17-0.489-0.253c-0.4-0.204-0.906-0.477-0.875-0.894
		c0.032-0.421,0.653-0.335,1.004-0.436c2.605-0.755,4.41-3.432,3.861-6.287c-0.444-2.312-1.038-4.538-2.098-6.643
		c-0.614-1.22-1.583-2.084-2.659-2.861c-0.059-0.042-0.129-0.1-0.193-0.098c-2.101,0.052-4.149-1.001-6.286-0.274
		c-2.2,0.749-3.698,2.074-4.15,4.479c-0.363,1.926-0.469,3.854-0.386,5.795c0.063,1.48-0.427,2.601-1.829,3.174
		c-0.627,0.256-0.278,0.469-0.047,0.683c1.179,1.096,2.595,1.756,4.128,2.189c0.14,0.039,0.3,0.018,0.432,0.07
		c0.197,0.078,0.466,0.116,0.521,0.352c0.071,0.306-0.208,0.465-0.409,0.592c-0.339,0.214-0.711,0.384-1.083,0.537
		c-1.727,0.709-3.539,1.141-5.339,1.608c-1.762,0.457-2.61,1.563-3.111,3.287c-0.08,0.274-0.199,0.839-0.267,1.159
		c-0.273,1.703-0.302,3.414-0.232,5.135c0.04,0.984,0.037,1.972-0.104,2.952c0,0.604-0.218,4.189-0.172,4.877
		c0.089,1.352-0.299,2.582-0.699,3.844c-0.46,1.453-0.796,2.941-0.887,4.487c-0.129,2.196-0.128,4.397-0.252,6.589
		c-0.116,2.04-0.141,4.1-0.437,6.118c-0.214,1.46-0.399,2.962-1.043,4.34c-0.541,1.156-0.583,2.332-0.294,3.599
		c0.32,1.398,1.192,2.21,2.351,2.857c0.325,0.181,0.597,0.182,0.925,0.002c0.579-0.318,0.606-0.451,0.095-0.93
		c-0.106-0.099-0.189-0.239-0.312-0.302c-1.382-0.698-1.008-1.958-1.001-3.099c0.001-0.17,0.114-0.282,0.275-0.267
		c0.092,0.009,0.193,0.104,0.256,0.187c0.143,0.188,0.105,0.419,0.115,0.637c0.013,0.293-0.023,0.599,0.048,0.877
		c0.067,0.264,0.138,0.63,0.52,0.611c0.367-0.018,0.381-0.395,0.509-0.644c0.016-0.03,0.014-0.073,0.012-0.109
		c-0.104-1.728,0.647-3.455-0.144-5.205c-0.346-0.766,0.071-1.647,0.299-2.461c1.072-3.826,2.218-7.636,3.077-11.515
		c0.456-2.057,0.695-4.164,1.018-6.25c0.417-2.688,0.766-8.242,0.946-8.242c0.515,0,0.672,1.512,0.792,2.324
		c0.435,2.96,1.07,8.067-0.597,11.768c-0.675,1.498-1.305,3.445-1.888,5.581c-1.019,3.739-1.507,7.836-1.507,11.694
		c0,3.088,0.782,8.205,2.223,14.073c0.165,0.673,0.308,1.351,0.462,2.027c0.287,1.377,0.194,2.773,0.179,4.162
		c-0.007,0.669,0.138,1.306,0.233,1.956c0.176,1.204-0.339,2.304-0.577,3.441c-0.181,0.865-0.33,1.718-0.316,2.607
		c0.035,2.31-0.077,4.625,0.245,6.925c0.399,2.853,0.553,5.735,1.065,8.574c0.139,0.77,0.218,1.54,0.235,2.311h0
		c0,0.645,0.039,1.293,0.016,1.943c-0.025,0.681-0.218,1.309-0.772,1.619c-1.037,0.582-1.942,1.417-3.183,1.645
		c-0.443,0.082-1.154,0.193-1.095,0.852c0.061,0.677,0.813,0.576,1.231,0.595c2.087,0.093,4.166,0.389,6.263,0.281
		c1.078-0.055,1.466-0.464,1.523-1.565c0.04-0.781-0.276-1.505-0.242-2.29c0.045-1.028-0.067-2.794-0.12-3.081
		c-0.004-0.019-0.007-0.038-0.01-0.057c-0.197-0.992,0.061-2.114,0.283-3.142c0.531-2.464,0.766-4.972,1.227-7.443
		c0.255-1.365,0.342-2.749,0.598-4.111c0.18-0.958-0.087-1.911-0.257-2.831c-0.255-1.382-0.138-2.677,0.265-3.998
		c0.534-1.75,0.97-3.521,0.922-5.379c-0.013-0.486-0.116-0.94-0.218-1.403c-0.377-1.715,0.028-3.4,0.152-5.103
		c0.151-2.08,0.557-4.122,0.761-6.194c0.222-2.253,0.464-4.503,0.607-6.762c0.042-0.658,0.495-0.494,0.873-0.524
		c0.431-0.034,0.686,0.08,0.686,0.596c0,2.774,0.545,6.074,0.764,8.507c0.145,1.603,0.785,6.152,0.803,6.854
		c0.026,1.033-0.114,2.042-0.233,3.061c-0.283,2.42,0.327,4.722,0.971,7.02c0.296,1.058,0.438,2.108,0.145,3.234
		c-0.438,1.684-0.331,3.405-0.026,5.119c0.325,1.829,0.591,3.668,0.885,5.503c0.358,2.231,0.755,4.456,1.059,6.694
		c0.016,0.12,0.02,0.24,0.015,0.359c-0.006,0.055-0.011,0.11-0.018,0.165c-0.246,1.799-0.266,3.591-0.316,5.386
		c-0.032,1.139,0.217,1.327,1.345,1.386c2.06,0.107,4.101-0.206,6.153-0.253c0.285-0.006,0.565-0.148,0.853-0.191
		c0.291-0.043,0.483-0.138,0.48-0.473c-0.003-0.294-0.135-0.492-0.398-0.598c-0.204-0.082-0.412-0.159-0.626-0.209
		c-1.168-0.272-2.116-0.971-3.075-1.626c-0.409-0.279-0.686-0.684-0.815-1.247c-0.182-0.794-0.134-1.656-0.123-2.339
		c0.004-0.102,0.01-0.204,0.018-0.306c0.123-1.497,0.39-2.974,0.59-4.45c0.298-2.205,0.526-4.423,0.739-6.629
		c0.308-3.192,0.68-6.426-0.195-9.613c-0.193-0.702-0.326-1.421-0.508-2.126c-0.066-0.257-0.102-0.505-0.02-0.757
		c0.636-1.939,0.298-3.932,0.328-5.904c0.653-1.787,0.917-3.67,1.327-5.514c0.883-3.979,1.475-9.335,1.331-13.876
		c-0.087-2.764-0.478-5.52-1.219-8.202c-0.1-0.361-1.346-4.749-2.048-6.048c-1.943-3.598-0.922-10.472-0.465-12.43
		c0.058-0.249,0.088-0.476,0.183-0.723c0.083-0.215,0.291-0.742,0.5-0.715c0.136,0.017,0.191,0.631,0.211,0.85
		c0.201,2.216,0.591,4.411,0.689,6.641c0.12,2.739,0.554,5.449,1.356,8.065c1.07,3.489,1.926,7.033,2.915,10.542
		c0.295,1.045,0.395,2.054-0.094,3.074c-0.314,0.654-0.328,1.341-0.038,2.026c0.233,0.551,0.267,1.134,0.245,1.726
		c-0.012,0.328,0.002,0.663,0.059,0.985c0.04,0.229,0.229,0.376,0.48,0.375c0.3-0.002,0.336-0.226,0.353-0.456
		c0.037-0.509-0.041-1.029,0.186-1.519c0.076-0.163,0.081-0.387,0.326-0.352c0.198,0.028,0.289,0.208,0.341,0.389
		c0.325,1.12-0.104,2.262-1.08,2.992c-0.326,0.244-0.934,0.506-0.559,0.992c0.277,0.359,0.818,0.51,1.386,0.224
		C42.028,68.931,42.953,66.618,42.13,64.399z"/>
	<g>
		<g>
			<path fill="#EF6A4C" stroke="#000000" stroke-width="0.2835" stroke-miterlimit="10" d="M14.795,77.708
				c-0.015-1.737-0.289-3.474-0.289-5.211c-0.678,0.036-1.37,0.056-2.069,0.067c0.346,1.9,0.788,3.966,1.321,6.136
				c0.005,0.021,0.009,0.042,0.015,0.062C14.218,78.594,14.8,78.314,14.795,77.708z"/>
			<path fill="#EF6A4C" stroke="#000000" stroke-width="0.2835" stroke-miterlimit="10" d="M14.522,67.359
				c0.004-0.609-0.331-0.838-0.959-0.954c-0.653-0.12-1.309-0.148-1.968-0.152c0.116,1.744,0.399,3.889,0.841,6.31
				c0.699-0.011,1.391-0.031,2.069-0.067C14.505,70.784,14.511,69.072,14.522,67.359z"/>
		</g>
		<g>
			<path fill="#EF6A4C" stroke="#000000" stroke-width="0.2835" stroke-miterlimit="10" d="M33.084,77.708
				c-0.051,0.679,0.579,0.95,1.113,1.112c0.267-1.133,0.464-2.282,0.716-3.417c0.196-0.885,0.377-1.841,0.54-2.838
				c-0.731-0.01-1.454-0.031-2.162-0.069C33.292,74.234,33.206,76.078,33.084,77.708z"/>
			<path fill="#EF6A4C" stroke="#000000" stroke-width="0.2835" stroke-miterlimit="10" d="M33.275,67.359
				c0.011,1.712,0.017,3.425,0.017,5.137c0.708,0.038,1.431,0.058,2.162,0.069c0.325-1.993,0.573-4.159,0.705-6.312
				c-0.644,0.006-1.286,0.034-1.925,0.152C33.607,66.521,33.271,66.75,33.275,67.359z"/>
		</g>
	</g>
	<g>
		<path fill="#EF6A4C" stroke="#000000" stroke-width="0.2835" stroke-miterlimit="10" d="M12.842,57.285
			c0.129-1.13,0.567-3.081,1.318-4.021c1.152-1.441,1.591-1.672,5.308-1.04c3.716,0.633,3.465,3.887,2.844,7.627
			c-0.469,2.826-6.135,3.293-8.548,1.317C12.796,60.376,12.695,58.651,12.842,57.285z"/>
		<path fill="#EF6A4C" stroke="#000000" stroke-width="0.2835" stroke-miterlimit="10" d="M35.158,57.285
			c-0.129-1.13-0.567-3.081-1.318-4.021c-1.152-1.441-1.591-1.672-5.308-1.04c-3.716,0.633-3.465,3.887-2.844,7.627
			c0.469,2.826,6.135,3.293,8.548,1.317C35.204,60.376,35.305,58.651,35.158,57.285z"/>
	</g>
	<g>
		<g>
			<path fill="#EE694C" stroke="#000000" stroke-width="0.2835" stroke-miterlimit="10" d="M13.627,34.526
				c-0.087,1.846-0.497,2.63-0.975,2.615c-0.563-0.017-1.055-0.117-1.554-0.16c-0.727-0.063-1.246-0.364-1.09-2.108
				c0.26-2.92,0.131-6.123,0.251-7.295c0.103-1.014,0.361-1.259,1.117-1.259c0.582,0,0.844,0.043,1.741,0.043
				c0.776,0,1.113,1.052,0.989,2.265C13.975,29.901,13.722,32.5,13.627,34.526z"/>
		</g>
		<g>
			<path fill="#EE694C" stroke="#000000" stroke-width="0.2835" stroke-miterlimit="10" d="M34.373,34.526
				c0.087,1.846,0.497,2.63,0.975,2.615c0.563-0.017,1.055-0.117,1.554-0.16c0.727-0.063,1.246-0.364,1.09-2.108
				c-0.26-2.92-0.131-6.123-0.251-7.295c-0.103-1.014-0.361-1.259-1.117-1.259c-0.582,0-0.844,0.043-1.741,0.043
				c-0.776,0-1.113,1.052-0.989,2.265C34.025,29.901,34.278,32.5,34.373,34.526z"/>
		</g>
	</g>
</g>
</svg>
