<?xml version="1.0" encoding="utf-8"?>
<!DOCTYPE svg PUBLIC "-//W3C//DTD SVG 1.1//EN" "http://www.w3.org/Graphics/SVG/1.1/DTD/svg11.dtd">
<svg version="1.1" id="Layer_1" xmlns="http://www.w3.org/2000/svg" xmlns:xlink="http://www.w3.org/1999/xlink" x="0px" y="0px"
	 width="48px" height="128px" viewBox="0 0 48 128" enable-background="new 0 0 48 128" xml:space="preserve">
<rect display="none" width="48" height="128"/>
<g id="Woman">
	<path fill="#EFC3AD" stroke="#000000" stroke-width="0.5669" stroke-miterlimit="10" d="M41.958,63.514
		c-0.645-1.377-0.83-2.879-1.043-4.34c-0.295-2.018-0.321-4.077-0.437-6.118c-0.125-2.192-0.123-4.392-0.252-6.589
		c-0.091-1.547-0.427-3.034-0.887-4.487c-0.399-1.262-0.788-2.492-0.699-3.844c0.045-0.688-0.172-4.273-0.172-4.877
		c-0.141-0.98-0.144-1.969-0.104-2.952c0.07-1.72,0.041-3.432-0.232-5.135c-0.068-0.319-0.188-0.884-0.267-1.159
		c-0.501-1.724-1.349-2.831-3.111-3.287c-1.8-0.467-3.612-0.899-5.339-1.608c-0.373-0.153-0.744-0.323-1.083-0.537
		c-0.201-0.126-0.48-0.285-0.409-0.592c0.055-0.236,0.324-0.274,0.521-0.352c0.133-0.052,0.293-0.031,0.432-0.07
		c1.533-0.433,2.949-1.093,4.128-2.189c0.231-0.215,0.58-0.427-0.047-0.683c-1.402-0.573-1.893-1.694-1.829-3.174
		c0.083-1.941-0.023-3.869-0.386-5.795c-0.453-2.405-1.951-3.73-4.15-4.479c-2.138-0.728-4.185,0.326-6.286,0.274
		c-0.064-0.002-0.135,0.056-0.193,0.098c-1.076,0.777-2.045,1.64-2.659,2.861c-1.06,2.105-1.654,4.332-2.098,6.643
		c-0.548,2.855,1.257,5.532,3.861,6.287c0.351,0.102,0.973,0.015,1.004,0.436c0.031,0.417-0.475,0.69-0.875,0.894
		c-0.164,0.083-0.326,0.169-0.489,0.253c-1.574,0.818-3.311,1.148-5,1.59c-2.714,0.71-3.94,3.782-4.076,5.624
		c-0.242,3.291-0.13,6.59-0.227,9.884c0.034,2.06-0.113,4.102-0.855,6.043c-0.501,1.31-0.865,2.688-0.89,4.042
		c-0.064,3.409-0.381,6.801-0.485,10.204c-0.084,2.753-0.495,5.428-1.454,8.015c-0.823,2.22,0.102,4.533,2.158,5.566
		C8.596,70.25,9.136,70.1,9.414,69.74c0.375-0.486-0.233-0.748-0.559-0.992c-0.976-0.73-1.405-1.872-1.08-2.992
		c0.053-0.181,0.143-0.36,0.341-0.389c0.245-0.035,0.25,0.189,0.326,0.352c0.227,0.49,0.149,1.01,0.186,1.519
		c0.017,0.229,0.053,0.454,0.353,0.456c0.251,0.001,0.44-0.146,0.48-0.375c0.057-0.322,0.07-0.657,0.059-0.985
		c-0.022-0.593,0.012-1.175,0.245-1.726c0.29-0.684,0.276-1.371-0.038-2.026c-0.489-1.021-0.389-2.029-0.094-3.074
		c0.989-3.509,1.845-7.053,2.915-10.542c0.802-2.616,1.237-5.325,1.356-8.065c0.098-2.23,0.488-4.425,0.689-6.641
		c0.02-0.219,0.075-0.833,0.211-0.85c0.209-0.026,0.418,0.5,0.5,0.715c0.095,0.248,0.125,0.474,0.183,0.723
		c0.457,1.957,1.478,8.831-0.465,12.43c-0.702,1.299-1.948,5.687-2.048,6.048c-0.741,2.681-1.132,5.438-1.219,8.202
		c-0.144,4.541,0.448,9.897,1.331,13.876c0.409,1.844,0.674,3.727,1.327,5.514c0.03,1.972-0.308,3.965,0.328,5.904
		c0.083,0.252,0.047,0.499-0.02,0.757c-0.182,0.706-0.315,1.424-0.508,2.126c-0.875,3.187-0.503,6.421-0.195,9.613
		c0.213,2.206,0.441,4.424,0.739,6.629c0.2,1.477,0.467,2.953,0.59,4.45c0.134,1.626-0.316,3.084-0.755,4.576
		c-0.048,0.164-0.196,0.311-0.325,0.437c-0.814,0.793-1.529,1.683-2.48,2.341c-0.84,0.582-0.713,1.475,0.22,1.866
		c0.47,0.198,0.969,0.332,1.428,0.55c1.056,0.502,1.705,0.375,2.596-0.306c1.035-0.791,1.873-1.839,3.089-2.39
		c0.429-0.194,0.566-0.51,0.568-0.966c0.005-1.213-0.29-2.391-0.383-3.591c-0.068-0.876-0.582-1.697-0.463-2.57
		c0.304-2.238,0.701-4.463,1.059-6.694c0.294-1.834,0.56-3.674,0.885-5.503c0.304-1.714,0.412-3.435-0.026-5.119
		c-0.293-1.126-0.152-2.176,0.145-3.234c0.644-2.299,1.254-4.601,0.971-7.02c-0.119-1.019-0.259-2.028-0.233-3.061
		c0.018-0.702,0.658-5.251,0.803-6.854c0.22-2.432,0.764-5.733,0.764-8.507c0-0.516,0.255-0.629,0.686-0.596
		c0.377,0.029,0.831-0.135,0.873,0.524c0.143,2.259,0.384,4.51,0.607,6.762c0.204,2.072,0.61,4.114,0.761,6.194
		c0.124,1.702,0.529,3.388,0.152,5.103c-0.102,0.463-0.205,0.918-0.218,1.403c-0.048,1.858,0.388,3.629,0.922,5.379
		c0.403,1.321,0.52,2.616,0.265,3.998c-0.169,0.92-0.437,1.873-0.257,2.831c0.256,1.363,0.343,2.746,0.598,4.111
		c0.461,2.471,0.696,4.979,1.227,7.443c0.221,1.028,0.48,2.15,0.283,3.142c-0.334,1.684-0.252,3.421-0.778,5.078
		c-0.271,0.855,0.018,1.564,0.777,1.845c1.086,0.402,1.645,1.39,2.531,2.002c0.422,0.291,0.822,0.604,1.287,0.826
		c0.352,0.168,0.745,0.192,1.079,0.081c0.795-0.265,1.58-0.574,2.336-0.936c0.7-0.336,0.742-1.046,0.136-1.566
		c-0.36-0.309-0.752-0.597-1.093-0.912c-1.098-1.016-2.148-2.075-2.449-3.661c-0.318-1.681-0.284-3.345,0.017-5.012
		c0.513-2.839,0.666-5.722,1.065-8.574c0.322-2.3,0.21-4.615,0.245-6.925c0.014-0.889-0.135-1.742-0.316-2.607
		c-0.239-1.138-0.753-2.237-0.577-3.441c0.095-0.65,0.24-1.288,0.233-1.956c-0.015-1.389-0.108-2.785,0.179-4.162
		c0.154-0.676,0.296-1.354,0.462-2.027c1.44-5.869,2.223-10.985,2.223-14.073c0-3.857-0.488-7.955-1.507-11.694
		c-0.582-2.137-1.213-4.083-1.888-5.581c-1.667-3.701-1.032-8.808-0.597-11.768c0.119-0.812,0.276-2.324,0.792-2.324
		c0.179,0,0.529,5.554,0.946,8.242c0.323,2.086,0.563,4.193,1.018,6.25c0.859,3.88,2.005,7.689,3.077,11.515
		c0.228,0.814,0.645,1.695,0.299,2.461c-0.791,1.75-0.04,3.477-0.144,5.205c-0.002,0.036-0.004,0.078,0.012,0.109
		c0.128,0.25,0.142,0.626,0.509,0.644c0.382,0.019,0.452-0.347,0.52-0.611c0.071-0.278,0.035-0.583,0.048-0.877
		c0.009-0.218-0.028-0.45,0.115-0.637c0.063-0.083,0.164-0.178,0.256-0.187c0.16-0.016,0.274,0.097,0.275,0.267
		c0.006,1.141,0.381,2.401-1.001,3.099c-0.123,0.062-0.206,0.202-0.312,0.302c-0.51,0.479-0.484,0.612,0.095,0.93
		c0.328,0.18,0.6,0.179,0.925-0.002c1.16-0.647,2.032-1.459,2.351-2.857C42.541,65.847,42.499,64.671,41.958,63.514z"/>
	<g>
		<path fill="#EF6A4C" stroke="#000000" stroke-width="0.2835" stroke-miterlimit="10" d="M24,49.407
			c-1.201,0-2.176-0.959-2.206-2.153c-1.442-0.029-2.859-0.088-4.254-0.172c-0.299,1.957-0.7,3.82-1.189,5.561
			c2.412,0.201,4.98,0.312,7.648,0.312V49.407z"/>
		<path fill="#EF6A4C" stroke="#000000" stroke-width="0.2835" stroke-miterlimit="10" d="M15.2,46.92
			c-0.057,0.122-0.116,0.241-0.178,0.357c-0.517,0.957-1.328,3.586-1.76,5.052c0.995,0.123,2.029,0.227,3.091,0.315
			c0.489-1.741,0.889-3.604,1.189-5.561C16.753,47.036,15.971,46.983,15.2,46.92z"/>
		<path fill="#EF6A4C" stroke="#000000" stroke-width="0.2835" stroke-miterlimit="10" d="M18.149,40.064
			c-0.058,2.436-0.268,4.788-0.609,7.019c1.395,0.083,2.812,0.143,4.254,0.172c0-0.019-0.003-0.037-0.003-0.055
			c0-1.22,0.989-2.209,2.209-2.209v-5.105C21.985,39.885,20.027,39.947,18.149,40.064z"/>
		<path fill="#EF6A4C" stroke="#000000" stroke-width="0.2835" stroke-miterlimit="10" d="M16.146,40.211
			c0.086,2.323-0.095,4.868-0.945,6.708c0.77,0.064,1.553,0.116,2.34,0.163c0.341-2.23,0.55-4.583,0.609-7.019
			C17.471,40.106,16.802,40.155,16.146,40.211z"/>
		<path fill="#EF6A4C" stroke="#000000" stroke-width="0.2835" stroke-miterlimit="10" d="M26.206,47.254
			c-0.03,1.194-1.005,2.153-2.206,2.153v3.548c2.668,0,5.236-0.111,7.648-0.312c-0.489-1.741-0.889-3.604-1.189-5.561
			C29.065,47.165,27.648,47.225,26.206,47.254z"/>
		<path fill="#EF6A4C" stroke="#000000" stroke-width="0.2835" stroke-miterlimit="10" d="M33.07,47.352
			c-0.065-0.144-0.126-0.291-0.184-0.44c-0.799,0.067-1.61,0.121-2.427,0.17c0.299,1.958,0.7,3.82,1.189,5.561
			c1.079-0.09,2.13-0.196,3.14-0.321C34.253,50.427,33.68,48.706,33.07,47.352z"/>
		<path fill="#EF6A4C" stroke="#000000" stroke-width="0.2835" stroke-miterlimit="10" d="M24,39.885v5.105
			c1.22,0,2.209,0.989,2.209,2.209c0,0.019-0.002,0.037-0.003,0.055c1.442-0.029,2.859-0.089,4.254-0.172
			c-0.341-2.23-0.55-4.582-0.609-7.018C27.973,39.947,26.015,39.885,24,39.885z"/>
		<path fill="#EF6A4C" stroke="#000000" stroke-width="0.2835" stroke-miterlimit="10" d="M32.004,40.224
			c-0.704-0.062-1.423-0.114-2.153-0.16c0.058,2.436,0.268,4.788,0.609,7.018c0.817-0.049,1.628-0.103,2.427-0.17
			C32.084,44.865,31.92,42.452,32.004,40.224z"/>
	</g>
	<g>
		<g>
			<path fill="#EF6A4C" stroke="#000000" stroke-width="0.2835" stroke-miterlimit="10" d="M15.062,78.416
				c0.207,0.31,1.338,0.342,1.863,0.34c2.298-0.007,3.185-0.483,3.206-1.896c0.019-1.294,0.159-2.904,0.311-4.468
				c-2.323-0.042-4.624-0.116-6.9-0.22C14.004,74.992,14.668,77.827,15.062,78.416z"/>
			<path fill="#EF6A4C" stroke="#000000" stroke-width="0.2835" stroke-miterlimit="10" d="M17.971,65.481
				c-1.386-0.1-3.983-0.288-4.726,0.521c-0.434,0.473-0.172,3.314,0.296,6.171c2.276,0.105,4.577,0.179,6.9,0.22
				c0.172-1.775,0.36-3.491,0.404-4.618C20.909,66.147,20.333,65.651,17.971,65.481z"/>
		</g>
		<g>
			<path fill="#EF6A4C" stroke="#000000" stroke-width="0.2835" stroke-miterlimit="10" d="M27.869,76.861
				c0.021,1.412,0.907,1.888,3.206,1.896c0.525,0.002,1.655-0.031,1.863-0.34c0.395-0.59,1.058-3.424,1.521-6.244
				c-2.276,0.105-4.577,0.179-6.9,0.22C27.71,73.957,27.85,75.567,27.869,76.861z"/>
			<path fill="#EF6A4C" stroke="#000000" stroke-width="0.2835" stroke-miterlimit="10" d="M34.755,66.002
				c-0.742-0.81-3.339-0.621-4.726-0.521c-2.362,0.17-2.938,0.666-2.875,2.294c0.044,1.127,0.231,2.843,0.404,4.618
				c2.323-0.042,4.624-0.116,6.9-0.22C34.927,69.316,35.189,66.475,34.755,66.002z"/>
		</g>
	</g>
	<g>
		<path fill="#EF6A4C" stroke="#000000" stroke-width="0.2835" stroke-miterlimit="10" d="M11.368,35.504
			c0-2.724,0.054-5.132-0.038-7.813c-0.035-1.02-0.188-1.302-1.556-1.371c-0.232,3.254-0.124,6.516-0.22,9.774
			c0.006,0.352,0.006,0.703-0.001,1.054C11.012,37.071,11.368,36.691,11.368,35.504z"/>
		<path fill="#EF6A4C" stroke="#000000" stroke-width="0.2835" stroke-miterlimit="10" d="M36.67,27.691
			c-0.092,2.681-0.038,5.089-0.038,7.813c0,1.236,0.385,1.598,2,1.652c-0.042-1.328-0.164-3.444-0.164-3.895
			c-0.141-0.98-0.144-1.969-0.104-2.952c0.054-1.336,0.047-2.666-0.086-3.991C36.86,26.382,36.706,26.658,36.67,27.691z"/>
	</g>
</g>
</svg>
